<svg width="370" height="163" viewBox="0 0 370 163" fill="none" xmlns="http://www.w3.org/2000/svg">
<g filter="url(#filter0_d)">
<mask id="path-1-outside-1" maskUnits="userSpaceOnUse" x="148" y="90.9857" width="192" height="42" fill="black">
<rect fill="white" x="148" y="90.9857" width="192" height="42"/>
<path d="M170.143 124.652V118.319H176.857V124.652H170.143ZM163.429 118.319V111.986H170.143V118.319H163.429ZM163.429 105.652V99.3191H170.143V105.652H163.429ZM150 124.652V92.9857H156.714V105.652H163.429V111.986H156.714V124.652H150ZM170.143 99.3191V92.9857H176.857V99.3191H170.143Z"/>
<path d="M210.429 111.986V99.3191H217.143V111.986H210.429ZM183.571 130.986V92.9857H190.286V99.3191H197V105.652H190.286V111.986H210.429V118.319H190.286V130.986H183.571ZM197 99.3191V92.9857H210.429V99.3191H197Z"/>
<path d="M237.286 111.986V105.652H244V111.986H237.286ZM223.857 124.652V92.9857H230.571V111.986H237.286V118.319H230.571V124.652H223.857ZM250.714 124.652V105.652H244V99.3191H250.714V92.9857H257.429V124.652H250.714Z"/>
<path d="M264.143 124.652V92.9857H270.857V105.652H291V92.9857H297.714V124.652H291V111.986H270.857V124.652H264.143Z"/>
<path d="M304.429 124.652V111.986H311.143V124.652H304.429ZM331.286 124.652V111.986H338V124.652H331.286ZM304.429 105.652V92.9857H311.143V105.652H304.429ZM317.857 124.652V111.986H311.143V105.652H317.857V92.9857H324.571V105.652H331.286V111.986H324.571V124.652H317.857ZM331.286 105.652V92.9857H338V105.652H331.286Z"/>
</mask>
<path d="M170.143 124.652V118.319H176.857V124.652H170.143ZM163.429 118.319V111.986H170.143V118.319H163.429ZM163.429 105.652V99.3191H170.143V105.652H163.429ZM150 124.652V92.9857H156.714V105.652H163.429V111.986H156.714V124.652H150ZM170.143 99.3191V92.9857H176.857V99.3191H170.143Z" fill="black"/>
<path d="M210.429 111.986V99.3191H217.143V111.986H210.429ZM183.571 130.986V92.9857H190.286V99.3191H197V105.652H190.286V111.986H210.429V118.319H190.286V130.986H183.571ZM197 99.3191V92.9857H210.429V99.3191H197Z" fill="black"/>
<path d="M237.286 111.986V105.652H244V111.986H237.286ZM223.857 124.652V92.9857H230.571V111.986H237.286V118.319H230.571V124.652H223.857ZM250.714 124.652V105.652H244V99.3191H250.714V92.9857H257.429V124.652H250.714Z" fill="black"/>
<path d="M264.143 124.652V92.9857H270.857V105.652H291V92.9857H297.714V124.652H291V111.986H270.857V124.652H264.143Z" fill="black"/>
<path d="M304.429 124.652V111.986H311.143V124.652H304.429ZM331.286 124.652V111.986H338V124.652H331.286ZM304.429 105.652V92.9857H311.143V105.652H304.429ZM317.857 124.652V111.986H311.143V105.652H317.857V92.9857H324.571V105.652H331.286V111.986H324.571V124.652H317.857ZM331.286 105.652V92.9857H338V105.652H331.286Z" fill="black"/>
<path d="M170.143 124.652H168.143V126.652H170.143V124.652ZM176.857 118.319H178.857V116.319H176.857V118.319ZM176.857 124.652V126.652H178.857V124.652H176.857ZM163.429 118.319H161.429V120.319H163.429V118.319ZM170.143 111.986H172.143V109.986H170.143V111.986ZM163.429 99.3191V97.3191H161.429V99.3191H163.429ZM170.143 105.652V107.652H172.143V105.652H170.143ZM150 124.652H148V126.652H150V124.652ZM150 92.9857V90.9857H148V92.9857H150ZM156.714 92.9857H158.714V90.9857H156.714V92.9857ZM156.714 105.652H154.714V107.652H156.714V105.652ZM156.714 111.986V109.986H154.714V111.986H156.714ZM156.714 124.652V126.652H158.714V124.652H156.714ZM170.143 92.9857V90.9857H168.143V92.9857H170.143ZM176.857 92.9857H178.857V90.9857H176.857V92.9857ZM176.857 99.3191V101.319H178.857V99.3191H176.857ZM217.143 99.3191H219.143V97.3191H217.143V99.3191ZM217.143 111.986V113.986H219.143V111.986H217.143ZM183.571 130.986H181.571V132.986H183.571V130.986ZM183.571 92.9857V90.9857H181.571V92.9857H183.571ZM190.286 92.9857H192.286V90.9857H190.286V92.9857ZM190.286 99.3191H188.286V101.319H190.286V99.3191ZM197 105.652V107.652H199V105.652H197ZM190.286 105.652V103.652H188.286V105.652H190.286ZM190.286 111.986H188.286V113.986H190.286V111.986ZM210.429 118.319V120.319H212.429V118.319H210.429ZM190.286 118.319V116.319H188.286V118.319H190.286ZM190.286 130.986V132.986H192.286V130.986H190.286ZM197 92.9857V90.9857H195V92.9857H197ZM210.429 92.9857H212.429V90.9857H210.429V92.9857ZM237.286 105.652V103.652H235.286V105.652H237.286ZM244 111.986V113.986H246V111.986H244ZM223.857 124.652H221.857V126.652H223.857V124.652ZM223.857 92.9857V90.9857H221.857V92.9857H223.857ZM230.571 92.9857H232.571V90.9857H230.571V92.9857ZM230.571 111.986H228.571V113.986H230.571V111.986ZM237.286 118.319V120.319H239.286V118.319H237.286ZM230.571 118.319V116.319H228.571V118.319H230.571ZM230.571 124.652V126.652H232.571V124.652H230.571ZM250.714 124.652H248.714V126.652H250.714V124.652ZM250.714 105.652H252.714V103.652H250.714V105.652ZM244 99.3191V97.3191H242V99.3191H244ZM250.714 99.3191V101.319H252.714V99.3191H250.714ZM250.714 92.9857V90.9857H248.714V92.9857H250.714ZM257.429 92.9857H259.429V90.9857H257.429V92.9857ZM257.429 124.652V126.652H259.429V124.652H257.429ZM264.143 124.652H262.143V126.652H264.143V124.652ZM264.143 92.9857V90.9857H262.143V92.9857H264.143ZM270.857 92.9857H272.857V90.9857H270.857V92.9857ZM270.857 105.652H268.857V107.652H270.857V105.652ZM291 105.652V107.652H293V105.652H291ZM291 92.9857V90.9857H289V92.9857H291ZM297.714 92.9857H299.714V90.9857H297.714V92.9857ZM297.714 124.652V126.652H299.714V124.652H297.714ZM291 124.652H289V126.652H291V124.652ZM291 111.986H293V109.986H291V111.986ZM270.857 111.986V109.986H268.857V111.986H270.857ZM270.857 124.652V126.652H272.857V124.652H270.857ZM304.429 124.652H302.429V126.652H304.429V124.652ZM304.429 111.986V109.986H302.429V111.986H304.429ZM311.143 124.652V126.652H313.143V124.652H311.143ZM331.286 124.652H329.286V126.652H331.286V124.652ZM338 111.986H340V109.986H338V111.986ZM338 124.652V126.652H340V124.652H338ZM304.429 105.652H302.429V107.652H304.429V105.652ZM304.429 92.9857V90.9857H302.429V92.9857H304.429ZM311.143 92.9857H313.143V90.9857H311.143V92.9857ZM317.857 124.652H315.857V126.652H317.857V124.652ZM317.857 111.986H319.857V109.986H317.857V111.986ZM317.857 105.652V107.652H319.857V105.652H317.857ZM317.857 92.9857V90.9857H315.857V92.9857H317.857ZM324.571 92.9857H326.571V90.9857H324.571V92.9857ZM324.571 105.652H322.571V107.652H324.571V105.652ZM324.571 111.986V109.986H322.571V111.986H324.571ZM324.571 124.652V126.652H326.571V124.652H324.571ZM331.286 92.9857V90.9857H329.286V92.9857H331.286ZM338 92.9857H340V90.9857H338V92.9857ZM338 105.652V107.652H340V105.652H338ZM172.143 124.652V118.319H168.143V124.652H172.143ZM170.143 120.319H176.857V116.319H170.143V120.319ZM174.857 118.319V124.652H178.857V118.319H174.857ZM176.857 122.652H170.143V126.652H176.857V122.652ZM165.429 118.319V111.986H161.429V118.319H165.429ZM163.429 113.986H170.143V109.986H163.429V113.986ZM168.143 111.986V118.319H172.143V111.986H168.143ZM170.143 116.319H163.429V120.319H170.143V116.319ZM165.429 105.652V99.3191H161.429V105.652H165.429ZM163.429 101.319H170.143V97.3191H163.429V101.319ZM168.143 99.3191V105.652H172.143V99.3191H168.143ZM170.143 103.652H163.429V107.652H170.143V103.652ZM152 124.652V92.9857H148V124.652H152ZM150 94.9857H156.714V90.9857H150V94.9857ZM154.714 92.9857V105.652H158.714V92.9857H154.714ZM156.714 107.652H163.429V103.652H156.714V107.652ZM161.429 105.652V111.986H165.429V105.652H161.429ZM163.429 109.986H156.714V113.986H163.429V109.986ZM154.714 111.986V124.652H158.714V111.986H154.714ZM156.714 122.652H150V126.652H156.714V122.652ZM172.143 99.3191V92.9857H168.143V99.3191H172.143ZM170.143 94.9857H176.857V90.9857H170.143V94.9857ZM174.857 92.9857V99.3191H178.857V92.9857H174.857ZM176.857 97.3191H170.143V101.319H176.857V97.3191ZM212.429 111.986V99.3191H208.429V111.986H212.429ZM210.429 101.319H217.143V97.3191H210.429V101.319ZM215.143 99.3191V111.986H219.143V99.3191H215.143ZM217.143 109.986H210.429V113.986H217.143V109.986ZM185.571 130.986V92.9857H181.571V130.986H185.571ZM183.571 94.9857H190.286V90.9857H183.571V94.9857ZM188.286 92.9857V99.3191H192.286V92.9857H188.286ZM190.286 101.319H197V97.3191H190.286V101.319ZM195 99.3191V105.652H199V99.3191H195ZM197 103.652H190.286V107.652H197V103.652ZM188.286 105.652V111.986H192.286V105.652H188.286ZM190.286 113.986H210.429V109.986H190.286V113.986ZM208.429 111.986V118.319H212.429V111.986H208.429ZM210.429 116.319H190.286V120.319H210.429V116.319ZM188.286 118.319V130.986H192.286V118.319H188.286ZM190.286 128.986H183.571V132.986H190.286V128.986ZM199 99.3191V92.9857H195V99.3191H199ZM197 94.9857H210.429V90.9857H197V94.9857ZM208.429 92.9857V99.3191H212.429V92.9857H208.429ZM210.429 97.3191H197V101.319H210.429V97.3191ZM239.286 111.986V105.652H235.286V111.986H239.286ZM237.286 107.652H244V103.652H237.286V107.652ZM242 105.652V111.986H246V105.652H242ZM244 109.986H237.286V113.986H244V109.986ZM225.857 124.652V92.9857H221.857V124.652H225.857ZM223.857 94.9857H230.571V90.9857H223.857V94.9857ZM228.571 92.9857V111.986H232.571V92.9857H228.571ZM230.571 113.986H237.286V109.986H230.571V113.986ZM235.286 111.986V118.319H239.286V111.986H235.286ZM237.286 116.319H230.571V120.319H237.286V116.319ZM228.571 118.319V124.652H232.571V118.319H228.571ZM230.571 122.652H223.857V126.652H230.571V122.652ZM252.714 124.652V105.652H248.714V124.652H252.714ZM250.714 103.652H244V107.652H250.714V103.652ZM246 105.652V99.3191H242V105.652H246ZM244 101.319H250.714V97.3191H244V101.319ZM252.714 99.3191V92.9857H248.714V99.3191H252.714ZM250.714 94.9857H257.429V90.9857H250.714V94.9857ZM255.429 92.9857V124.652H259.429V92.9857H255.429ZM257.429 122.652H250.714V126.652H257.429V122.652ZM266.143 124.652V92.9857H262.143V124.652H266.143ZM264.143 94.9857H270.857V90.9857H264.143V94.9857ZM268.857 92.9857V105.652H272.857V92.9857H268.857ZM270.857 107.652H291V103.652H270.857V107.652ZM293 105.652V92.9857H289V105.652H293ZM291 94.9857H297.714V90.9857H291V94.9857ZM295.714 92.9857V124.652H299.714V92.9857H295.714ZM297.714 122.652H291V126.652H297.714V122.652ZM293 124.652V111.986H289V124.652H293ZM291 109.986H270.857V113.986H291V109.986ZM268.857 111.986V124.652H272.857V111.986H268.857ZM270.857 122.652H264.143V126.652H270.857V122.652ZM306.429 124.652V111.986H302.429V124.652H306.429ZM304.429 113.986H311.143V109.986H304.429V113.986ZM309.143 111.986V124.652H313.143V111.986H309.143ZM311.143 122.652H304.429V126.652H311.143V122.652ZM333.286 124.652V111.986H329.286V124.652H333.286ZM331.286 113.986H338V109.986H331.286V113.986ZM336 111.986V124.652H340V111.986H336ZM338 122.652H331.286V126.652H338V122.652ZM306.429 105.652V92.9857H302.429V105.652H306.429ZM304.429 94.9857H311.143V90.9857H304.429V94.9857ZM309.143 92.9857V105.652H313.143V92.9857H309.143ZM311.143 103.652H304.429V107.652H311.143V103.652ZM319.857 124.652V111.986H315.857V124.652H319.857ZM317.857 109.986H311.143V113.986H317.857V109.986ZM313.143 111.986V105.652H309.143V111.986H313.143ZM311.143 107.652H317.857V103.652H311.143V107.652ZM319.857 105.652V92.9857H315.857V105.652H319.857ZM317.857 94.9857H324.571V90.9857H317.857V94.9857ZM322.571 92.9857V105.652H326.571V92.9857H322.571ZM324.571 107.652H331.286V103.652H324.571V107.652ZM329.286 105.652V111.986H333.286V105.652H329.286ZM331.286 109.986H324.571V113.986H331.286V109.986ZM322.571 111.986V124.652H326.571V111.986H322.571ZM324.571 122.652H317.857V126.652H324.571V122.652ZM333.286 105.652V92.9857H329.286V105.652H333.286ZM331.286 94.9857H338V90.9857H331.286V94.9857ZM336 92.9857V105.652H340V92.9857H336ZM338 103.652H331.286V107.652H338V103.652Z" fill="white" mask="url(#path-1-outside-1)"/>
</g>
<g filter="url(#filter1_d)">
<path d="M29 78.9857V39.5572H35.7241V46.1286H55.8966V39.5572H62.6207V78.9857H55.8966V52.7H35.7241V78.9857H29ZM35.7241 39.5572V32.9857H55.8966V39.5572H35.7241Z" fill="black"/>
<path d="M69.3448 78.9857V46.1286H76.069V59.2715H96.2414V46.1286H102.966V78.9857H96.2414V65.8429H76.069V78.9857H69.3448Z" fill="black"/>
<path d="M123.138 78.9857V52.7H109.69V46.1286H143.31V52.7H129.862V78.9857H123.138Z" fill="black"/>
<path d="M163.483 65.8429V59.2715H170.207V65.8429H163.483ZM150.034 78.9857V46.1286H156.759V65.8429H163.483V72.4143H156.759V78.9857H150.034ZM176.931 78.9857V59.2715H170.207V52.7H176.931V46.1286H183.655V78.9857H176.931Z" fill="black"/>
<path d="M190.379 59.2715V52.7H224V59.2715H190.379Z" fill="black"/>
<path d="M28 78.9857V79.9857H29H35.7241H36.7241V78.9857V53.7H54.8966V78.9857V79.9857H55.8966H62.6207H63.6207V78.9857V39.5572V38.5572H62.6207H56.8966V32.9857V31.9857H55.8966H35.7241H34.7241V32.9857V38.5572H29H28V39.5572V78.9857ZM68.3448 78.9857V79.9857H69.3448H76.069H77.069V78.9857V66.8429H95.2414V78.9857V79.9857H96.2414H102.966H103.966V78.9857V46.1286V45.1286H102.966H96.2414H95.2414V46.1286V58.2715H77.069V46.1286V45.1286H76.069H69.3448H68.3448V46.1286V78.9857ZM122.138 78.9857V79.9857H123.138H129.862H130.862V78.9857V53.7H143.31H144.31V52.7V46.1286V45.1286H143.31H109.69H108.69V46.1286V52.7V53.7H109.69H122.138V78.9857ZM163.483 58.2715H162.483V59.2715V64.8429H157.759V46.1286V45.1286H156.759H150.034H149.034V46.1286V78.9857V79.9857H150.034H156.759H157.759V78.9857V73.4143H163.483H164.483V72.4143V66.8429H170.207H171.207V65.8429V60.2715H175.931V78.9857V79.9857H176.931H183.655H184.655V78.9857V46.1286V45.1286H183.655H176.931H175.931V46.1286V51.7H170.207H169.207V52.7V58.2715H163.483ZM189.379 59.2715V60.2715H190.379H224H225V59.2715V52.7V51.7H224H190.379H189.379V52.7V59.2715ZM54.8966 45.1286H36.7241V40.5572H54.8966V45.1286Z" stroke="white" stroke-width="2"/>
</g>
<defs>
<filter id="filter0_d" x="118" y="60.9857" width="252" height="102" filterUnits="userSpaceOnUse" color-interpolation-filters="sRGB">
<feFlood flood-opacity="0" result="BackgroundImageFix"/>
<feColorMatrix in="SourceAlpha" type="matrix" values="0 0 0 0 0 0 0 0 0 0 0 0 0 0 0 0 0 0 127 0"/>
<feOffset/>
<feGaussianBlur stdDeviation="15"/>
<feColorMatrix type="matrix" values="0 0 0 0 0.388235 0 0 0 0 0.878431 0 0 0 0 0.858824 0 0 0 0.6 0"/>
<feBlend mode="normal" in2="BackgroundImageFix" result="effect1_dropShadow"/>
<feBlend mode="normal" in="SourceGraphic" in2="effect1_dropShadow" result="shape"/>
</filter>
<filter id="filter1_d" x="-3" y="0.985748" width="259" height="110" filterUnits="userSpaceOnUse" color-interpolation-filters="sRGB">
<feFlood flood-opacity="0" result="BackgroundImageFix"/>
<feColorMatrix in="SourceAlpha" type="matrix" values="0 0 0 0 0 0 0 0 0 0 0 0 0 0 0 0 0 0 127 0"/>
<feOffset/>
<feGaussianBlur stdDeviation="15"/>
<feColorMatrix type="matrix" values="0 0 0 0 0.388235 0 0 0 0 0.878431 0 0 0 0 0.858824 0 0 0 0.6 0"/>
<feBlend mode="normal" in2="BackgroundImageFix" result="effect1_dropShadow"/>
<feBlend mode="normal" in="SourceGraphic" in2="effect1_dropShadow" result="shape"/>
</filter>
</defs>
</svg>
