<svg width="641" height="141" viewBox="0 0 641 141" fill="none" xmlns="http://www.w3.org/2000/svg">
<g filter="url(#filter0_d)">
<mask id="path-1-outside-1" maskUnits="userSpaceOnUse" x="329.568" y="50.6598" width="282" height="61" fill="black">
<rect fill="white" x="329.568" y="50.6598" width="282" height="61"/>
<path d="M361.293 99.3904V90.0443H371.201V99.3904H361.293ZM351.384 90.0443V80.6982H361.293V90.0443H351.384ZM351.384 71.352V62.0059H361.293V71.352H351.384ZM331.568 99.3904V52.6598H341.476V71.352H351.384V80.6982H341.476V99.3904H331.568ZM361.293 62.0059V52.6598H371.201V62.0059H361.293Z"/>
<path d="M420.743 80.6982V62.0059H430.651V80.6982H420.743ZM381.109 108.737V52.6598H391.018V62.0059H400.926V71.352H391.018V80.6982H420.743V90.0443H391.018V108.737H381.109ZM400.926 62.0059V52.6598H420.743V62.0059H400.926Z"/>
<path d="M460.376 80.6982V71.352H470.284V80.6982H460.376ZM440.559 99.3904V52.6598H450.467V80.6982H460.376V90.0443H450.467V99.3904H440.559ZM480.192 99.3904V71.352H470.284V62.0059H480.192V52.6598H490.101V99.3904H480.192Z"/>
<path d="M500.009 99.3904V52.6598H509.917V71.352H539.642V52.6598H549.55V99.3904H539.642V80.6982H509.917V99.3904H500.009Z"/>
<path d="M559.459 99.3904V80.6982H569.367V99.3904H559.459ZM599.092 99.3904V80.6982H609V99.3904H599.092ZM559.459 71.352V52.6598H569.367V71.352H559.459ZM579.275 99.3904V80.6982H569.367V71.352H579.275V52.6598H589.184V71.352H599.092V80.6982H589.184V99.3904H579.275ZM599.092 71.352V52.6598H609V71.352H599.092Z"/>
</mask>
<path d="M361.293 99.3904V90.0443H371.201V99.3904H361.293ZM351.384 90.0443V80.6982H361.293V90.0443H351.384ZM351.384 71.352V62.0059H361.293V71.352H351.384ZM331.568 99.3904V52.6598H341.476V71.352H351.384V80.6982H341.476V99.3904H331.568ZM361.293 62.0059V52.6598H371.201V62.0059H361.293Z" fill="black"/>
<path d="M420.743 80.6982V62.0059H430.651V80.6982H420.743ZM381.109 108.737V52.6598H391.018V62.0059H400.926V71.352H391.018V80.6982H420.743V90.0443H391.018V108.737H381.109ZM400.926 62.0059V52.6598H420.743V62.0059H400.926Z" fill="black"/>
<path d="M460.376 80.6982V71.352H470.284V80.6982H460.376ZM440.559 99.3904V52.6598H450.467V80.6982H460.376V90.0443H450.467V99.3904H440.559ZM480.192 99.3904V71.352H470.284V62.0059H480.192V52.6598H490.101V99.3904H480.192Z" fill="black"/>
<path d="M500.009 99.3904V52.6598H509.917V71.352H539.642V52.6598H549.55V99.3904H539.642V80.6982H509.917V99.3904H500.009Z" fill="black"/>
<path d="M559.459 99.3904V80.6982H569.367V99.3904H559.459ZM599.092 99.3904V80.6982H609V99.3904H599.092ZM559.459 71.352V52.6598H569.367V71.352H559.459ZM579.275 99.3904V80.6982H569.367V71.352H579.275V52.6598H589.184V71.352H599.092V80.6982H589.184V99.3904H579.275ZM599.092 71.352V52.6598H609V71.352H599.092Z" fill="black"/>
<path d="M361.293 99.3904H359.293V101.39H361.293V99.3904ZM371.201 90.0443H373.201V88.0443H371.201V90.0443ZM371.201 99.3904V101.39H373.201V99.3904H371.201ZM351.384 90.0443H349.384V92.0443H351.384V90.0443ZM361.293 80.6982H363.293V78.6982H361.293V80.6982ZM351.384 62.0059V60.0059H349.384V62.0059H351.384ZM361.293 71.352V73.352H363.293V71.352H361.293ZM331.568 99.3904H329.568V101.39H331.568V99.3904ZM331.568 52.6598V50.6598H329.568V52.6598H331.568ZM341.476 52.6598H343.476V50.6598H341.476V52.6598ZM341.476 71.352H339.476V73.352H341.476V71.352ZM341.476 80.6982V78.6982H339.476V80.6982H341.476ZM341.476 99.3904V101.39H343.476V99.3904H341.476ZM361.293 52.6598V50.6598H359.293V52.6598H361.293ZM371.201 52.6598H373.201V50.6598H371.201V52.6598ZM371.201 62.0059V64.0059H373.201V62.0059H371.201ZM430.651 62.0059H432.651V60.0059H430.651V62.0059ZM430.651 80.6982V82.6982H432.651V80.6982H430.651ZM381.109 108.737H379.109V110.737H381.109V108.737ZM381.109 52.6598V50.6598H379.109V52.6598H381.109ZM391.018 52.6598H393.018V50.6598H391.018V52.6598ZM391.018 62.0059H389.018V64.0059H391.018V62.0059ZM400.926 71.352V73.352H402.926V71.352H400.926ZM391.018 71.352V69.352H389.018V71.352H391.018ZM391.018 80.6982H389.018V82.6982H391.018V80.6982ZM420.743 90.0443V92.0443H422.743V90.0443H420.743ZM391.018 90.0443V88.0443H389.018V90.0443H391.018ZM391.018 108.737V110.737H393.018V108.737H391.018ZM400.926 52.6598V50.6598H398.926V52.6598H400.926ZM420.743 52.6598H422.743V50.6598H420.743V52.6598ZM460.376 71.352V69.352H458.376V71.352H460.376ZM470.284 80.6982V82.6982H472.284V80.6982H470.284ZM440.559 99.3904H438.559V101.39H440.559V99.3904ZM440.559 52.6598V50.6598H438.559V52.6598H440.559ZM450.467 52.6598H452.467V50.6598H450.467V52.6598ZM450.467 80.6982H448.467V82.6982H450.467V80.6982ZM460.376 90.0443V92.0443H462.376V90.0443H460.376ZM450.467 90.0443V88.0443H448.467V90.0443H450.467ZM450.467 99.3904V101.39H452.467V99.3904H450.467ZM480.192 99.3904H478.192V101.39H480.192V99.3904ZM480.192 71.352H482.192V69.352H480.192V71.352ZM470.284 62.0059V60.0059H468.284V62.0059H470.284ZM480.192 62.0059V64.0059H482.192V62.0059H480.192ZM480.192 52.6598V50.6598H478.192V52.6598H480.192ZM490.101 52.6598H492.101V50.6598H490.101V52.6598ZM490.101 99.3904V101.39H492.101V99.3904H490.101ZM500.009 99.3904H498.009V101.39H500.009V99.3904ZM500.009 52.6598V50.6598H498.009V52.6598H500.009ZM509.917 52.6598H511.917V50.6598H509.917V52.6598ZM509.917 71.352H507.917V73.352H509.917V71.352ZM539.642 71.352V73.352H541.642V71.352H539.642ZM539.642 52.6598V50.6598H537.642V52.6598H539.642ZM549.55 52.6598H551.55V50.6598H549.55V52.6598ZM549.55 99.3904V101.39H551.55V99.3904H549.55ZM539.642 99.3904H537.642V101.39H539.642V99.3904ZM539.642 80.6982H541.642V78.6982H539.642V80.6982ZM509.917 80.6982V78.6982H507.917V80.6982H509.917ZM509.917 99.3904V101.39H511.917V99.3904H509.917ZM559.459 99.3904H557.459V101.39H559.459V99.3904ZM559.459 80.6982V78.6982H557.459V80.6982H559.459ZM569.367 99.3904V101.39H571.367V99.3904H569.367ZM599.092 99.3904H597.092V101.39H599.092V99.3904ZM609 80.6982H611V78.6982H609V80.6982ZM609 99.3904V101.39H611V99.3904H609ZM559.459 71.352H557.459V73.352H559.459V71.352ZM559.459 52.6598V50.6598H557.459V52.6598H559.459ZM569.367 52.6598H571.367V50.6598H569.367V52.6598ZM579.275 99.3904H577.275V101.39H579.275V99.3904ZM579.275 80.6982H581.275V78.6982H579.275V80.6982ZM579.275 71.352V73.352H581.275V71.352H579.275ZM579.275 52.6598V50.6598H577.275V52.6598H579.275ZM589.184 52.6598H591.184V50.6598H589.184V52.6598ZM589.184 71.352H587.184V73.352H589.184V71.352ZM589.184 80.6982V78.6982H587.184V80.6982H589.184ZM589.184 99.3904V101.39H591.184V99.3904H589.184ZM599.092 52.6598V50.6598H597.092V52.6598H599.092ZM609 52.6598H611V50.6598H609V52.6598ZM609 71.352V73.352H611V71.352H609ZM363.293 99.3904V90.0443H359.293V99.3904H363.293ZM361.293 92.0443H371.201V88.0443H361.293V92.0443ZM369.201 90.0443V99.3904H373.201V90.0443H369.201ZM371.201 97.3904H361.293V101.39H371.201V97.3904ZM353.384 90.0443V80.6982H349.384V90.0443H353.384ZM351.384 82.6982H361.293V78.6982H351.384V82.6982ZM359.293 80.6982V90.0443H363.293V80.6982H359.293ZM361.293 88.0443H351.384V92.0443H361.293V88.0443ZM353.384 71.352V62.0059H349.384V71.352H353.384ZM351.384 64.0059H361.293V60.0059H351.384V64.0059ZM359.293 62.0059V71.352H363.293V62.0059H359.293ZM361.293 69.352H351.384V73.352H361.293V69.352ZM333.568 99.3904V52.6598H329.568V99.3904H333.568ZM331.568 54.6598H341.476V50.6598H331.568V54.6598ZM339.476 52.6598V71.352H343.476V52.6598H339.476ZM341.476 73.352H351.384V69.352H341.476V73.352ZM349.384 71.352V80.6982H353.384V71.352H349.384ZM351.384 78.6982H341.476V82.6982H351.384V78.6982ZM339.476 80.6982V99.3904H343.476V80.6982H339.476ZM341.476 97.3904H331.568V101.39H341.476V97.3904ZM363.293 62.0059V52.6598H359.293V62.0059H363.293ZM361.293 54.6598H371.201V50.6598H361.293V54.6598ZM369.201 52.6598V62.0059H373.201V52.6598H369.201ZM371.201 60.0059H361.293V64.0059H371.201V60.0059ZM422.743 80.6982V62.0059H418.743V80.6982H422.743ZM420.743 64.0059H430.651V60.0059H420.743V64.0059ZM428.651 62.0059V80.6982H432.651V62.0059H428.651ZM430.651 78.6982H420.743V82.6982H430.651V78.6982ZM383.109 108.737V52.6598H379.109V108.737H383.109ZM381.109 54.6598H391.018V50.6598H381.109V54.6598ZM389.018 52.6598V62.0059H393.018V52.6598H389.018ZM391.018 64.0059H400.926V60.0059H391.018V64.0059ZM398.926 62.0059V71.352H402.926V62.0059H398.926ZM400.926 69.352H391.018V73.352H400.926V69.352ZM389.018 71.352V80.6982H393.018V71.352H389.018ZM391.018 82.6982H420.743V78.6982H391.018V82.6982ZM418.743 80.6982V90.0443H422.743V80.6982H418.743ZM420.743 88.0443H391.018V92.0443H420.743V88.0443ZM389.018 90.0443V108.737H393.018V90.0443H389.018ZM391.018 106.737H381.109V110.737H391.018V106.737ZM402.926 62.0059V52.6598H398.926V62.0059H402.926ZM400.926 54.6598H420.743V50.6598H400.926V54.6598ZM418.743 52.6598V62.0059H422.743V52.6598H418.743ZM420.743 60.0059H400.926V64.0059H420.743V60.0059ZM462.376 80.6982V71.352H458.376V80.6982H462.376ZM460.376 73.352H470.284V69.352H460.376V73.352ZM468.284 71.352V80.6982H472.284V71.352H468.284ZM470.284 78.6982H460.376V82.6982H470.284V78.6982ZM442.559 99.3904V52.6598H438.559V99.3904H442.559ZM440.559 54.6598H450.467V50.6598H440.559V54.6598ZM448.467 52.6598V80.6982H452.467V52.6598H448.467ZM450.467 82.6982H460.376V78.6982H450.467V82.6982ZM458.376 80.6982V90.0443H462.376V80.6982H458.376ZM460.376 88.0443H450.467V92.0443H460.376V88.0443ZM448.467 90.0443V99.3904H452.467V90.0443H448.467ZM450.467 97.3904H440.559V101.39H450.467V97.3904ZM482.192 99.3904V71.352H478.192V99.3904H482.192ZM480.192 69.352H470.284V73.352H480.192V69.352ZM472.284 71.352V62.0059H468.284V71.352H472.284ZM470.284 64.0059H480.192V60.0059H470.284V64.0059ZM482.192 62.0059V52.6598H478.192V62.0059H482.192ZM480.192 54.6598H490.101V50.6598H480.192V54.6598ZM488.101 52.6598V99.3904H492.101V52.6598H488.101ZM490.101 97.3904H480.192V101.39H490.101V97.3904ZM502.009 99.3904V52.6598H498.009V99.3904H502.009ZM500.009 54.6598H509.917V50.6598H500.009V54.6598ZM507.917 52.6598V71.352H511.917V52.6598H507.917ZM509.917 73.352H539.642V69.352H509.917V73.352ZM541.642 71.352V52.6598H537.642V71.352H541.642ZM539.642 54.6598H549.55V50.6598H539.642V54.6598ZM547.55 52.6598V99.3904H551.55V52.6598H547.55ZM549.55 97.3904H539.642V101.39H549.55V97.3904ZM541.642 99.3904V80.6982H537.642V99.3904H541.642ZM539.642 78.6982H509.917V82.6982H539.642V78.6982ZM507.917 80.6982V99.3904H511.917V80.6982H507.917ZM509.917 97.3904H500.009V101.39H509.917V97.3904ZM561.459 99.3904V80.6982H557.459V99.3904H561.459ZM559.459 82.6982H569.367V78.6982H559.459V82.6982ZM567.367 80.6982V99.3904H571.367V80.6982H567.367ZM569.367 97.3904H559.459V101.39H569.367V97.3904ZM601.092 99.3904V80.6982H597.092V99.3904H601.092ZM599.092 82.6982H609V78.6982H599.092V82.6982ZM607 80.6982V99.3904H611V80.6982H607ZM609 97.3904H599.092V101.39H609V97.3904ZM561.459 71.352V52.6598H557.459V71.352H561.459ZM559.459 54.6598H569.367V50.6598H559.459V54.6598ZM567.367 52.6598V71.352H571.367V52.6598H567.367ZM569.367 69.352H559.459V73.352H569.367V69.352ZM581.275 99.3904V80.6982H577.275V99.3904H581.275ZM579.275 78.6982H569.367V82.6982H579.275V78.6982ZM571.367 80.6982V71.352H567.367V80.6982H571.367ZM569.367 73.352H579.275V69.352H569.367V73.352ZM581.275 71.352V52.6598H577.275V71.352H581.275ZM579.275 54.6598H589.184V50.6598H579.275V54.6598ZM587.184 52.6598V71.352H591.184V52.6598H587.184ZM589.184 73.352H599.092V69.352H589.184V73.352ZM597.092 71.352V80.6982H601.092V71.352H597.092ZM599.092 78.6982H589.184V82.6982H599.092V78.6982ZM587.184 80.6982V99.3904H591.184V80.6982H587.184ZM589.184 97.3904H579.275V101.39H589.184V97.3904ZM601.092 71.352V52.6598H597.092V71.352H601.092ZM599.092 54.6598H609V50.6598H599.092V54.6598ZM607 52.6598V71.352H611V52.6598H607ZM609 69.352H599.092V73.352H609V69.352Z" fill="white" mask="url(#path-1-outside-1)"/>
</g>
<g filter="url(#filter1_d)">
<path d="M32 99.8824V41.6975H41.9228V51.395H71.6913V41.6975H81.6142V99.8824H71.6913V61.0924H41.9228V99.8824H32ZM41.9228 41.6975V32H71.6913V41.6975H41.9228Z" fill="black"/>
<path d="M91.537 99.8824V51.395H101.46V70.7899H131.228V51.395H141.151V99.8824H131.228V80.4874H101.46V99.8824H91.537Z" fill="black"/>
<path d="M170.92 99.8824V61.0924H151.074V51.395H200.688V61.0924H180.843V99.8824H170.92Z" fill="black"/>
<path d="M230.457 80.4874V70.7899H240.38V80.4874H230.457ZM210.611 99.8824V51.395H220.534V80.4874H230.457V90.1849H220.534V99.8824H210.611ZM250.302 99.8824V70.7899H240.38V61.0924H250.302V51.395H260.225V99.8824H250.302Z" fill="black"/>
<path d="M270.148 70.7899V61.0924H319.762V70.7899H270.148Z" fill="black"/>
<path d="M31 99.8824V100.882H32H41.9228H42.9228V99.8824V62.0924H70.6913V99.8824V100.882H71.6913H81.6142H82.6142V99.8824V41.6975V40.6975H81.6142H72.6913V32V31H71.6913H41.9228H40.9228V32V40.6975H32H31V41.6975V99.8824ZM90.537 99.8824V100.882H91.537H101.46H102.46V99.8824V81.4874H130.228V99.8824V100.882H131.228H141.151H142.151V99.8824V51.395V50.395H141.151H131.228H130.228V51.395V69.7899H102.46V51.395V50.395H101.46H91.537H90.537V51.395V99.8824ZM169.92 99.8824V100.882H170.92H180.843H181.843V99.8824V62.0924H200.688H201.688V61.0924V51.395V50.395H200.688H151.074H150.074V51.395V61.0924V62.0924H151.074H169.92V99.8824ZM230.457 69.7899H229.457V70.7899V79.4874H221.534V51.395V50.395H220.534H210.611H209.611V51.395V99.8824V100.882H210.611H220.534H221.534V99.8824V91.1849H230.457H231.457V90.1849V81.4874H240.38H241.38V80.4874V71.7899H249.302V99.8824V100.882H250.302H260.225H261.225V99.8824V51.395V50.395H260.225H250.302H249.302V51.395V60.0924H240.38H239.38V61.0924V69.7899H230.457ZM269.148 70.7899V71.7899H270.148H319.762H320.762V70.7899V61.0924V60.0924H319.762H270.148H269.148V61.0924V70.7899ZM70.6913 50.395H42.9228V42.6975H70.6913V50.395Z" stroke="white" stroke-width="2"/>
</g>
<defs>
<filter id="filter0_d" x="299.568" y="20.6598" width="341.432" height="120.077" filterUnits="userSpaceOnUse" color-interpolation-filters="sRGB">
<feFlood flood-opacity="0" result="BackgroundImageFix"/>
<feColorMatrix in="SourceAlpha" type="matrix" values="0 0 0 0 0 0 0 0 0 0 0 0 0 0 0 0 0 0 127 0"/>
<feOffset/>
<feGaussianBlur stdDeviation="15"/>
<feColorMatrix type="matrix" values="0 0 0 0 0.388235 0 0 0 0 0.878431 0 0 0 0 0.858824 0 0 0 0.6 0"/>
<feBlend mode="normal" in2="BackgroundImageFix" result="effect1_dropShadow"/>
<feBlend mode="normal" in="SourceGraphic" in2="effect1_dropShadow" result="shape"/>
</filter>
<filter id="filter1_d" x="0" y="0" width="351.762" height="131.882" filterUnits="userSpaceOnUse" color-interpolation-filters="sRGB">
<feFlood flood-opacity="0" result="BackgroundImageFix"/>
<feColorMatrix in="SourceAlpha" type="matrix" values="0 0 0 0 0 0 0 0 0 0 0 0 0 0 0 0 0 0 127 0"/>
<feOffset/>
<feGaussianBlur stdDeviation="15"/>
<feColorMatrix type="matrix" values="0 0 0 0 0.388235 0 0 0 0 0.878431 0 0 0 0 0.858824 0 0 0 0.6 0"/>
<feBlend mode="normal" in2="BackgroundImageFix" result="effect1_dropShadow"/>
<feBlend mode="normal" in="SourceGraphic" in2="effect1_dropShadow" result="shape"/>
</filter>
</defs>
</svg>
