<svg width="111" height="142" viewBox="0 0 111 142" fill="none" xmlns="http://www.w3.org/2000/svg">
<path d="M108.238 116.94H105.476V119.763H108.238V116.94Z" fill="#F7FAF7"/>
<path d="M105.476 119.763H102.671V122.587H105.476V119.763Z" fill="#F7FAF7"/>
<path d="M105.476 116.94H102.671V119.763H105.476V116.94Z" fill="#F7FAF7"/>
<path d="M105.476 114.116H102.671V116.94H105.476V114.116Z" fill="#F7FAF7"/>
<path d="M105.476 111.403H102.671V114.117H105.476V111.403Z" fill="#F7FAF7"/>
<path d="M102.671 119.763H99.9087V122.587H102.671V119.763Z" fill="#F7FAF7"/>
<path d="M102.671 116.94H99.9087V119.763H102.671V116.94Z" fill="#F7FAF7"/>
<path d="M102.671 114.116H99.9087V116.94H102.671V114.116Z" fill="#F7FAF7"/>
<path d="M102.671 111.403H99.9087V114.117H102.671V111.403Z" fill="#F7FAF7"/>
<path d="M102.671 108.579H99.9087V111.403H102.671V108.579Z" fill="#F7FAF7"/>
<path d="M99.9087 119.763H97.103V122.587H99.9087V119.763Z" fill="#F7FAF7"/>
<path d="M99.9087 116.94H97.103V119.763H99.9087V116.94Z" fill="#F7FAF7"/>
<path d="M99.9087 114.116H97.103V116.94H99.9087V114.116Z" fill="#F7FAF7"/>
<path d="M99.9087 111.403H97.103V114.117H99.9087V111.403Z" fill="#F7FAF7"/>
<path d="M99.9087 108.579H97.103V111.403H99.9087V108.579Z" fill="#F7FAF7"/>
<path d="M97.103 119.763H94.3412V122.587H97.103V119.763Z" fill="#F7FAF7"/>
<path d="M97.103 116.94H94.3412V119.763H97.103V116.94Z" fill="#F7FAF7"/>
<path d="M97.103 114.116H94.3412V116.94H97.103V114.116Z" fill="#F7FAF7"/>
<path d="M97.103 111.403H94.3412V114.117H97.103V111.403Z" fill="#F7FAF7"/>
<path d="M97.103 108.579H94.3412V111.403H97.103V108.579Z" fill="#F7FAF7"/>
<path d="M97.103 94.7031H94.3412V97.4171H97.103V94.7031Z" fill="#F7FAF7"/>
<path d="M97.103 91.8798H94.3412V94.7031H97.103V91.8798Z" fill="#F7FAF7"/>
<path d="M97.103 89.0564H94.3412V91.8797H97.103V89.0564Z" fill="#F7FAF7"/>
<path d="M97.103 86.3425H94.3412V89.0565H97.103V86.3425Z" fill="#070100"/>
<path d="M97.103 83.519H94.3412V86.3424H97.103V83.519Z" fill="#070100"/>
<path d="M97.103 80.7177H94.3412V83.541H97.103V80.7177Z" fill="#F7FAF7"/>
<path d="M97.103 77.9818H94.3412V80.6957H97.103V77.9818Z" fill="#F7FAF7"/>
<path d="M94.3412 119.763H91.5793V122.587H94.3412V119.763Z" fill="#F7FAF7"/>
<path d="M94.3412 116.94H91.5793V119.763H94.3412V116.94Z" fill="#F7FAF7"/>
<path d="M94.3412 114.116H91.5793V116.94H94.3412V114.116Z" fill="#F7FAF7"/>
<path d="M94.3412 111.403H91.5793V114.117H94.3412V111.403Z" fill="#F7FAF7"/>
<path d="M94.3412 108.579H91.5793V111.403H94.3412V108.579Z" fill="#F7FAF7"/>
<path d="M94.3412 103.042H91.5793V105.756H94.3412V103.042Z" fill="#F7FAF7"/>
<path d="M94.3412 100.24H91.5793V103.064H94.3412V100.24Z" fill="#F7FAF7"/>
<path d="M94.3412 97.4171H91.5793V100.24H94.3412V97.4171Z" fill="#F7FAF7"/>
<path d="M94.3412 94.7031H91.5793V97.4171H94.3412V94.7031Z" fill="#F7FAF7"/>
<path d="M94.3412 91.8798H91.5793V94.7031H94.3412V91.8798Z" fill="#F7FAF7"/>
<path d="M94.3412 89.0564H91.5793V91.8797H94.3412V89.0564Z" fill="#070100"/>
<path d="M94.3412 86.3425H91.5793V89.0565H94.3412V86.3425Z" fill="#070100"/>
<path d="M94.3412 83.519H91.5793V86.3424H94.3412V83.519Z" fill="#070100"/>
<path d="M94.3412 80.7177H91.5793V83.541H94.3412V80.7177Z" fill="#F7FAF7"/>
<path d="M94.3412 77.9818H91.5793V80.6957H94.3412V77.9818Z" fill="#F7FAF7"/>
<path d="M94.3412 75.1803H91.5793V78.0037H94.3412V75.1803Z" fill="#F7FAF7"/>
<path d="M94.3412 72.3569H91.5793V75.1803H94.3412V72.3569Z" fill="#F7FAF7"/>
<path d="M94.3412 69.6431H91.5793V72.357H94.3412V69.6431Z" fill="#F7FAF7"/>
<path d="M94.3412 44.5829H91.5793V47.2968H94.3412V44.5829Z" fill="#F7FAF7"/>
<path d="M94.3412 41.7595H91.5793V44.5829H94.3412V41.7595Z" fill="#F7FAF7"/>
<path d="M94.3412 38.9362H91.5793V41.7595H94.3412V38.9362Z" fill="#F7FAF7"/>
<path d="M94.3412 36.2223H91.5793V38.9362H94.3412V36.2223Z" fill="#F7FAF7"/>
<path d="M94.3412 33.3989H91.5793V36.2223H94.3412V33.3989Z" fill="#F7FAF7"/>
<path d="M91.5794 119.763H88.7737V122.587H91.5794V119.763Z" fill="#F7FAF7"/>
<path d="M91.5794 116.94H88.7737V119.763H91.5794V116.94Z" fill="#F7FAF7"/>
<path d="M91.5794 114.116H88.7737V116.94H91.5794V114.116Z" fill="#F7FAF7"/>
<path d="M91.5794 111.403H88.7737V114.117H91.5794V111.403Z" fill="#F7FAF7"/>
<path d="M91.5794 108.579H88.7737V111.403H91.5794V108.579Z" fill="#F7FAF7"/>
<path d="M91.5794 103.042H88.7737V105.756H91.5794V103.042Z" fill="#F7FAF7"/>
<path d="M91.5794 100.24H88.7737V103.064H91.5794V100.24Z" fill="#F7FAF7"/>
<path d="M91.5794 97.4171H88.7737V100.24H91.5794V97.4171Z" fill="#F7FAF7"/>
<path d="M91.5794 94.7031H88.7737V97.4171H91.5794V94.7031Z" fill="#F7FAF7"/>
<path d="M91.5794 91.8798H88.7737V94.7031H91.5794V91.8798Z" fill="#F7FAF7"/>
<path d="M91.5794 89.0564H88.7737V91.8797H91.5794V89.0564Z" fill="#070100"/>
<path d="M91.5794 86.3425H88.7737V89.0565H91.5794V86.3425Z" fill="#070100"/>
<path d="M91.5794 83.519H88.7737V86.3424H91.5794V83.519Z" fill="#070100"/>
<path d="M91.5794 80.7177H88.7737V83.541H91.5794V80.7177Z" fill="#F7FAF7"/>
<path d="M91.5794 77.9818H88.7737V80.6957H91.5794V77.9818Z" fill="#F7FAF7"/>
<path d="M91.5794 75.1803H88.7737V78.0037H91.5794V75.1803Z" fill="#F7FAF7"/>
<path d="M91.5794 72.3569H88.7737V75.1803H91.5794V72.3569Z" fill="#F7FAF7"/>
<path d="M91.5794 69.6431H88.7737V72.357H91.5794V69.6431Z" fill="#F7FAF7"/>
<path d="M91.5794 66.8197H88.7737V69.6431H91.5794V66.8197Z" fill="#F7FAF7"/>
<path d="M91.5794 63.9963H88.7737V66.8197H91.5794V63.9963Z" fill="#F7FAF7"/>
<path d="M91.5794 61.2823H88.7737V63.9963H91.5794V61.2823Z" fill="#F7FAF7"/>
<path d="M91.5794 50.1202H88.7737V52.9436H91.5794V50.1202Z" fill="#F7FAF7"/>
<path d="M91.5794 47.2969H88.7737V50.1203H91.5794V47.2969Z" fill="#F7FAF7"/>
<path d="M91.5794 33.3989H88.7737V36.2223H91.5794V33.3989Z" fill="#F7FAF7"/>
<path d="M91.5794 30.5974H88.7737V33.4208H91.5794V30.5974Z" fill="#F7FAF7"/>
<path d="M91.5794 27.8835H88.7737V30.5975H91.5794V27.8835Z" fill="#F7FAF7"/>
<path d="M88.7957 119.763H86.0338V122.587H88.7957V119.763Z" fill="#F7FAF7"/>
<path d="M88.7957 116.94H86.0338V119.763H88.7957V116.94Z" fill="#F7FAF7"/>
<path d="M88.7957 114.116H86.0338V116.94H88.7957V114.116Z" fill="#F7FAF7"/>
<path d="M88.7957 111.403H86.0338V114.117H88.7957V111.403Z" fill="#F7FAF7"/>
<path d="M88.7957 108.579H86.0338V111.403H88.7957V108.579Z" fill="#F7FAF7"/>
<path d="M88.7957 103.042H86.0338V105.756H88.7957V103.042Z" fill="#F7FAF7"/>
<path d="M88.7957 100.24H86.0338V103.064H88.7957V100.24Z" fill="#F7FAF7"/>
<path d="M88.7957 97.4171H86.0338V100.24H88.7957V97.4171Z" fill="#F7FAF7"/>
<path d="M88.7957 94.7031H86.0338V97.4171H88.7957V94.7031Z" fill="#F7FAF7"/>
<path d="M88.7957 91.8798H86.0338V94.7031H88.7957V91.8798Z" fill="#070100"/>
<path d="M88.7957 89.0564H86.0338V91.8797H88.7957V89.0564Z" fill="#070100"/>
<path d="M88.7957 86.3425H86.0338V89.0565H88.7957V86.3425Z" fill="#070100"/>
<path d="M88.7957 83.519H86.0338V86.3424H88.7957V83.519Z" fill="#070100"/>
<path d="M88.7957 80.7177H86.0338V83.541H88.7957V80.7177Z" fill="#070100"/>
<path d="M88.7957 77.9818H86.0338V80.6957H88.7957V77.9818Z" fill="#F7FAF7"/>
<path d="M88.7957 75.1803H86.0338V78.0037H88.7957V75.1803Z" fill="#F7FAF7"/>
<path d="M88.7957 69.6431H86.0338V72.357H88.7957V69.6431Z" fill="#F7FAF7"/>
<path d="M88.7957 66.8197H86.0338V69.6431H88.7957V66.8197Z" fill="#F7FAF7"/>
<path d="M88.7957 63.9963H86.0338V66.8197H88.7957V63.9963Z" fill="#F7FAF7"/>
<path d="M88.7957 61.2823H86.0338V63.9963H88.7957V61.2823Z" fill="#F7FAF7"/>
<path d="M88.7957 58.459H86.0338V61.2824H88.7957V58.459Z" fill="#F7FAF7"/>
<path d="M88.7957 55.6575H86.0338V58.4808H88.7957V55.6575Z" fill="#F7FAF7"/>
<path d="M88.7957 52.9436H86.0338V55.6575H88.7957V52.9436Z" fill="#F7FAF7"/>
<path d="M88.7957 25.0601H86.0338V27.8834H88.7957V25.0601Z" fill="#F7FAF7"/>
<path d="M88.7957 22.2367H86.0338V25.0601H88.7957V22.2367Z" fill="#F7FAF7"/>
<path d="M86.0337 119.763H83.2719V122.587H86.0337V119.763Z" fill="#F7FAF7"/>
<path d="M86.0337 116.94H83.2719V119.763H86.0337V116.94Z" fill="#F7FAF7"/>
<path d="M86.0337 114.116H83.2719V116.94H86.0337V114.116Z" fill="#F7FAF7"/>
<path d="M86.0337 111.403H83.2719V114.117H86.0337V111.403Z" fill="#F7FAF7"/>
<path d="M86.0337 105.756H83.2719V108.579H86.0337V105.756Z" fill="#F7FAF7"/>
<path d="M86.0337 103.042H83.2719V105.756H86.0337V103.042Z" fill="#F7FAF7"/>
<path d="M86.0337 100.24H83.2719V103.064H86.0337V100.24Z" fill="#F7FAF7"/>
<path d="M86.0337 97.4171H83.2719V100.24H86.0337V97.4171Z" fill="#F7FAF7"/>
<path d="M86.0337 94.7031H83.2719V97.4171H86.0337V94.7031Z" fill="#F7FAF7"/>
<path d="M86.0337 91.8798H83.2719V94.7031H86.0337V91.8798Z" fill="#070100"/>
<path d="M86.0337 89.0564H83.2719V91.8797H86.0337V89.0564Z" fill="#070100"/>
<path d="M86.0337 86.3425H83.2719V89.0565H86.0337V86.3425Z" fill="#070100"/>
<path d="M86.0337 83.519H83.2719V86.3424H86.0337V83.519Z" fill="#070100"/>
<path d="M86.0337 80.7177H83.2719V83.541H86.0337V80.7177Z" fill="#070100"/>
<path d="M86.0337 77.9818H83.2719V80.6957H86.0337V77.9818Z" fill="#F7FAF7"/>
<path d="M86.0337 75.1803H83.2719V78.0037H86.0337V75.1803Z" fill="#F7FAF7"/>
<path d="M86.0337 72.3569H83.2719V75.1803H86.0337V72.3569Z" fill="#F7FAF7"/>
<path d="M86.0337 66.8197H83.2719V69.6431H86.0337V66.8197Z" fill="#F7FAF7"/>
<path d="M86.0337 63.9963H83.2719V66.8197H86.0337V63.9963Z" fill="#F7FAF7"/>
<path d="M86.0337 61.2823H83.2719V63.9963H86.0337V61.2823Z" fill="#F7FAF7"/>
<path d="M86.0337 58.459H83.2719V61.2824H86.0337V58.459Z" fill="#F7FAF7"/>
<path d="M86.0337 55.6575H83.2719V58.4808H86.0337V55.6575Z" fill="#F7FAF7"/>
<path d="M86.0337 52.9436H83.2719V55.6575H86.0337V52.9436Z" fill="#F7FAF7"/>
<path d="M86.0337 50.1202H83.2719V52.9436H86.0337V50.1202Z" fill="#F7FAF7"/>
<path d="M88.7955 50.1202H86.0337V52.9436H88.7955V50.1202Z" fill="#070100"/>
<path d="M88.7955 33.3989H86.0337V36.2223H88.7955V33.3989Z" fill="#070100"/>
<path d="M88.7955 30.5974H86.0337V33.4208H88.7955V30.5974Z" fill="#070100"/>
<path d="M88.7955 27.8835H86.0337V30.5975H88.7955V27.8835Z" fill="#070100"/>
<path d="M86.0337 47.2969H83.2719V50.1203H86.0337V47.2969Z" fill="#070100"/>
<path d="M86.0337 44.583H83.2719V47.2969H86.0337V44.583Z" fill="#070100"/>
<path d="M86.0337 41.7596H83.2719V44.583H86.0337V41.7596Z" fill="#070100"/>
<path d="M86.0337 38.9363H83.2719V41.7596H86.0337V38.9363Z" fill="#070100"/>
<path d="M86.0337 36.2223H83.2719V38.9362H86.0337V36.2223Z" fill="#070100"/>
<path d="M86.0337 33.3989H83.2719V36.2223H86.0337V33.3989Z" fill="#F7FAF7"/>
<path d="M86.0337 30.5974H83.2719V33.4208H86.0337V30.5974Z" fill="#F7FAF7"/>
<path d="M86.0337 27.8835H83.2719V30.5975H86.0337V27.8835Z" fill="#F7FAF7"/>
<path d="M86.0337 25.0601H83.2719V27.8834H86.0337V25.0601Z" fill="#F7FAF7"/>
<path d="M86.0337 22.2367H83.2719V25.0601H86.0337V22.2367Z" fill="#F7FAF7"/>
<path d="M83.272 116.94H80.4663V119.763H83.272V116.94Z" fill="#F7FAF7"/>
<path d="M83.272 108.579H80.4663V111.403H83.272V108.579Z" fill="#F7FAF7"/>
<path d="M83.272 105.756H80.4663V108.579H83.272V105.756Z" fill="#F7FAF7"/>
<path d="M83.272 103.042H80.4663V105.756H83.272V103.042Z" fill="#F7FAF7"/>
<path d="M83.272 100.24H80.4663V103.064H83.272V100.24Z" fill="#F7FAF7"/>
<path d="M83.272 97.4171H80.4663V100.24H83.272V97.4171Z" fill="#F7FAF7"/>
<path d="M83.272 94.7031H80.4663V97.4171H83.272V94.7031Z" fill="#070100"/>
<path d="M83.272 91.8798H80.4663V94.7031H83.272V91.8798Z" fill="#070100"/>
<path d="M83.272 89.0564H80.4663V91.8797H83.272V89.0564Z" fill="#070100"/>
<path d="M83.272 86.3425H80.4663V89.0565H83.272V86.3425Z" fill="#070100"/>
<path d="M83.272 83.519H80.4663V86.3424H83.272V83.519Z" fill="#070100"/>
<path d="M83.272 80.7177H80.4663V83.541H83.272V80.7177Z" fill="#070100"/>
<path d="M83.272 77.9818H80.4663V80.6957H83.272V77.9818Z" fill="#F7FAF7"/>
<path d="M83.272 75.1803H80.4663V78.0037H83.272V75.1803Z" fill="#F7FAF7"/>
<path d="M83.272 72.3569H80.4663V75.1803H83.272V72.3569Z" fill="#F7FAF7"/>
<path d="M83.272 66.8197H80.4663V69.6431H83.272V66.8197Z" fill="#F7FAF7"/>
<path d="M83.272 63.9963H80.4663V66.8197H83.272V63.9963Z" fill="#F7FAF7"/>
<path d="M83.272 61.2823H80.4663V63.9963H83.272V61.2823Z" fill="#F7FAF7"/>
<path d="M83.272 58.459H80.4663V61.2824H83.272V58.459Z" fill="#F7FAF7"/>
<path d="M83.272 55.6575H80.4663V58.4808H83.272V55.6575Z" fill="#F7FAF7"/>
<path d="M83.272 52.9436H80.4663V55.6575H83.272V52.9436Z" fill="#F7FAF7"/>
<path d="M83.272 50.1202H80.4663V52.9436H83.272V50.1202Z" fill="#F7FAF7"/>
<path d="M83.272 47.2969H80.4663V50.1203H83.272V47.2969Z" fill="#F7FAF7"/>
<path d="M83.272 44.5829H80.4663V47.2968H83.272V44.5829Z" fill="#F7FAF7"/>
<path d="M83.272 41.7595H80.4663V44.5829H83.272V41.7595Z" fill="#F7FAF7"/>
<path d="M83.272 38.9362H80.4663V41.7595H83.272V38.9362Z" fill="#F7FAF7"/>
<path d="M83.272 36.2223H80.4663V38.9362H83.272V36.2223Z" fill="#F7FAF7"/>
<path d="M83.272 33.3989H80.4663V36.2223H83.272V33.3989Z" fill="#F7FAF7"/>
<path d="M83.272 30.5974H80.4663V33.4208H83.272V30.5974Z" fill="#F7FAF7"/>
<path d="M83.272 27.8835H80.4663V30.5975H83.272V27.8835Z" fill="#F7FAF7"/>
<path d="M80.4662 114.116H77.7043V116.94H80.4662V114.116Z" fill="#F7FAF7"/>
<path d="M80.4662 111.403H77.7043V114.117H80.4662V111.403Z" fill="#F7FAF7"/>
<path d="M80.4662 108.579H77.7043V111.403H80.4662V108.579Z" fill="#F7FAF7"/>
<path d="M80.4662 105.756H77.7043V108.579H80.4662V105.756Z" fill="#F7FAF7"/>
<path d="M80.4662 103.042H77.7043V105.756H80.4662V103.042Z" fill="#F7FAF7"/>
<path d="M80.4662 100.24H77.7043V103.064H80.4662V100.24Z" fill="#F7FAF7"/>
<path d="M80.4662 97.4171H77.7043V100.24H80.4662V97.4171Z" fill="#F7FAF7"/>
<path d="M80.4662 94.7031H77.7043V97.4171H80.4662V94.7031Z" fill="#070100"/>
<path d="M80.4662 91.8798H77.7043V94.7031H80.4662V91.8798Z" fill="#070100"/>
<path d="M80.4662 89.0564H77.7043V91.8797H80.4662V89.0564Z" fill="#070100"/>
<path d="M80.4662 86.3425H77.7043V89.0565H80.4662V86.3425Z" fill="#FFFFFE"/>
<path d="M80.4662 83.519H77.7043V86.3424H80.4662V83.519Z" fill="#070100"/>
<path d="M80.4662 80.7177H77.7043V83.541H80.4662V80.7177Z" fill="#070100"/>
<path d="M80.4662 77.9818H77.7043V80.6957H80.4662V77.9818Z" fill="#F7FAF7"/>
<path d="M80.4662 75.1803H77.7043V78.0037H80.4662V75.1803Z" fill="#F7FAF7"/>
<path d="M80.4662 72.3569H77.7043V75.1803H80.4662V72.3569Z" fill="#F7FAF7"/>
<path d="M80.4662 66.8197H77.7043V69.6431H80.4662V66.8197Z" fill="#F7FAF7"/>
<path d="M80.4662 63.9963H77.7043V66.8197H80.4662V63.9963Z" fill="#F7FAF7"/>
<path d="M80.4662 61.2823H77.7043V63.9963H80.4662V61.2823Z" fill="#F7FAF7"/>
<path d="M80.4662 58.459H77.7043V61.2824H80.4662V58.459Z" fill="#F7FAF7"/>
<path d="M80.4662 55.6575H77.7043V58.4808H80.4662V55.6575Z" fill="#F7FAF7"/>
<path d="M80.4662 52.9436H77.7043V55.6575H80.4662V52.9436Z" fill="#F7FAF7"/>
<path d="M80.4662 50.1202H77.7043V52.9436H80.4662V50.1202Z" fill="#F7FAF7"/>
<path d="M80.4662 47.2969H77.7043V50.1203H80.4662V47.2969Z" fill="#F7FAF7"/>
<path d="M80.4662 36.2223H77.7043V38.9362H80.4662V36.2223Z" fill="#F7FAF7"/>
<path d="M97.103 44.5829H94.3412V47.2968H97.103V44.5829Z" fill="#070100"/>
<path d="M97.103 41.7595H94.3412V44.5829H97.103V41.7595Z" fill="#070100"/>
<path d="M97.103 38.9362H94.3412V41.7595H97.103V38.9362Z" fill="#070100"/>
<path d="M97.103 36.2223H94.3412V38.9362H97.103V36.2223Z" fill="#070100"/>
<path d="M97.103 33.3989H94.3412V36.2223H97.103V33.3989Z" fill="#070100"/>
<path d="M94.3412 50.1202H91.5793V52.9436H94.3412V50.1202Z" fill="#070100"/>
<path d="M94.3412 47.2969H91.5793V50.1203H94.3412V47.2969Z" fill="#070100"/>
<path d="M94.3412 30.5974H91.5793V33.4208H94.3412V30.5974Z" fill="#070100"/>
<path d="M94.3412 27.8835H91.5793V30.5975H94.3412V27.8835Z" fill="#070100"/>
<path d="M91.5794 58.459H88.7737V61.2823H91.5794V58.459Z" fill="#070100"/>
<path d="M91.5794 55.6575H88.7737V58.4808H91.5794V55.6575Z" fill="#070100"/>
<path d="M91.5794 52.9436H88.7737V55.6575H91.5794V52.9436Z" fill="#070100"/>
<path d="M91.5794 25.0602H88.7737V27.8835H91.5794V25.0602Z" fill="#070100"/>
<path d="M91.5794 22.2367H88.7737V25.0601H91.5794V22.2367Z" fill="#070100"/>
<path d="M91.5794 19.5228H88.7737V22.2368H91.5794V19.5228Z" fill="#070100"/>
<path d="M88.7955 19.5228H86.0337V22.2368H88.7955V19.5228Z" fill="#070100"/>
<path d="M86.0337 19.5228H83.2719V22.2368H86.0337V19.5228Z" fill="#070100"/>
<path d="M83.2719 25.0602H80.4662V27.8835H83.2719V25.0602Z" fill="#070100"/>
<path d="M83.2719 22.2367H80.4662V25.0601H83.2719V22.2367Z" fill="#070100"/>
<path d="M80.4662 33.3989H77.7043V36.2223H80.4662V33.3989Z" fill="#070100"/>
<path d="M80.4662 30.5974H77.7043V33.4208H80.4662V30.5974Z" fill="#070100"/>
<path d="M80.4662 27.8835H77.7043V30.5975H80.4662V27.8835Z" fill="#070100"/>
<path d="M77.7044 108.579H74.9425V111.403H77.7044V108.579Z" fill="#F7FAF7"/>
<path d="M77.7044 105.756H74.9425V108.579H77.7044V105.756Z" fill="#F7FAF7"/>
<path d="M77.7044 103.042H74.9425V105.756H77.7044V103.042Z" fill="#F7FAF7"/>
<path d="M77.7044 100.24H74.9425V103.064H77.7044V100.24Z" fill="#F7FAF7"/>
<path d="M77.7044 97.4171H74.9425V100.24H77.7044V97.4171Z" fill="#F7FAF7"/>
<path d="M77.7044 94.7031H74.9425V97.4171H77.7044V94.7031Z" fill="#070100"/>
<path d="M77.7044 91.8798H74.9425V94.7031H77.7044V91.8798Z" fill="#070100"/>
<path d="M77.7044 89.0564H74.9425V91.8797H77.7044V89.0564Z" fill="#070100"/>
<path d="M77.7044 86.3425H74.9425V89.0565H77.7044V86.3425Z" fill="#070100"/>
<path d="M77.7044 83.519H74.9425V86.3424H77.7044V83.519Z" fill="#FFFFFE"/>
<path d="M77.7044 80.7177H74.9425V83.541H77.7044V80.7177Z" fill="#070100"/>
<path d="M77.7044 77.9818H74.9425V80.6957H77.7044V77.9818Z" fill="#F7FAF7"/>
<path d="M77.7044 75.1803H74.9425V78.0037H77.7044V75.1803Z" fill="#F7FAF7"/>
<path d="M77.7044 69.6431H74.9425V72.357H77.7044V69.6431Z" fill="#F7FAF7"/>
<path d="M77.7044 66.8197H74.9425V69.6431H77.7044V66.8197Z" fill="#F7FAF7"/>
<path d="M77.7044 63.9963H74.9425V66.8197H77.7044V63.9963Z" fill="#F7FAF7"/>
<path d="M77.7044 61.2823H74.9425V63.9963H77.7044V61.2823Z" fill="#F7FAF7"/>
<path d="M77.7044 58.459H74.9425V61.2824H77.7044V58.459Z" fill="#F7FAF7"/>
<path d="M77.7044 55.6575H74.9425V58.4808H77.7044V55.6575Z" fill="#F7FAF7"/>
<path d="M77.7044 52.9436H74.9425V55.6575H77.7044V52.9436Z" fill="#F7FAF7"/>
<path d="M77.7044 50.1202H74.9425V52.9436H77.7044V50.1202Z" fill="#F7FAF7"/>
<path d="M74.9425 119.763H72.1368V122.587H74.9425V119.763Z" fill="#F7FAF7"/>
<path d="M74.9425 116.94H72.1368V119.763H74.9425V116.94Z" fill="#F7FAF7"/>
<path d="M74.9425 114.116H72.1368V116.94H74.9425V114.116Z" fill="#F7FAF7"/>
<path d="M74.9425 111.403H72.1368V114.117H74.9425V111.403Z" fill="#F7FAF7"/>
<path d="M74.9425 105.756H72.1368V108.579H74.9425V105.756Z" fill="#F7FAF7"/>
<path d="M74.9425 103.042H72.1368V105.756H74.9425V103.042Z" fill="#F7FAF7"/>
<path d="M74.9425 100.24H72.1368V103.064H74.9425V100.24Z" fill="#F7FAF7"/>
<path d="M74.9425 97.4171H72.1368V100.24H74.9425V97.4171Z" fill="#F7FAF7"/>
<path d="M74.9425 94.7031H72.1368V97.4171H74.9425V94.7031Z" fill="#070100"/>
<path d="M74.9425 91.8798H72.1368V94.7031H74.9425V91.8798Z" fill="#070100"/>
<path d="M74.9425 89.0564H72.1368V91.8797H74.9425V89.0564Z" fill="#070100"/>
<path d="M74.9425 86.3425H72.1368V89.0565H74.9425V86.3425Z" fill="#070100"/>
<path d="M74.9425 83.519H72.1368V86.3424H74.9425V83.519Z" fill="#070100"/>
<path d="M74.9425 80.7177H72.1368V83.541H74.9425V80.7177Z" fill="#070100"/>
<path d="M74.9425 77.9818H72.1368V80.6957H74.9425V77.9818Z" fill="#F7FAF7"/>
<path d="M74.9425 75.1803H72.1368V78.0037H74.9425V75.1803Z" fill="#F7FAF7"/>
<path d="M74.9425 72.3569H72.1368V75.1803H74.9425V72.3569Z" fill="#F7FAF7"/>
<path d="M74.9425 69.6431H72.1368V72.357H74.9425V69.6431Z" fill="#F7FAF7"/>
<path d="M74.9425 66.8197H72.1368V69.6431H74.9425V66.8197Z" fill="#F7FAF7"/>
<path d="M74.9425 63.9963H72.1368V66.8197H74.9425V63.9963Z" fill="#F7FAF7"/>
<path d="M74.9425 61.2823H72.1368V63.9963H74.9425V61.2823Z" fill="#F7FAF7"/>
<path d="M74.9425 58.459H72.1368V61.2824H74.9425V58.459Z" fill="#F7FAF7"/>
<path d="M74.9425 55.6575H72.1368V58.4808H74.9425V55.6575Z" fill="#F7FAF7"/>
<path d="M74.9425 52.9436H72.1368V55.6575H74.9425V52.9436Z" fill="#F7FAF7"/>
<path d="M72.1368 125.279H69.375V128.102H72.1368V125.279Z" fill="#F7FAF7"/>
<path d="M72.1368 122.565H69.375V125.279H72.1368V122.565Z" fill="#F7FAF7"/>
<path d="M72.1368 119.763H69.375V122.587H72.1368V119.763Z" fill="#F7FAF7"/>
<path d="M72.1368 116.94H69.375V119.763H72.1368V116.94Z" fill="#F7FAF7"/>
<path d="M72.1368 114.116H69.375V116.94H72.1368V114.116Z" fill="#F7FAF7"/>
<path d="M72.1368 111.403H69.375V114.117H72.1368V111.403Z" fill="#F7FAF7"/>
<path d="M72.1368 108.579H69.375V111.403H72.1368V108.579Z" fill="#F7FAF7"/>
<path d="M72.1368 103.042H69.375V105.756H72.1368V103.042Z" fill="#F7FAF7"/>
<path d="M72.1368 100.24H69.375V103.064H72.1368V100.24Z" fill="#F7FAF7"/>
<path d="M72.1368 97.4171H69.375V100.24H72.1368V97.4171Z" fill="#F7FAF7"/>
<path d="M72.1368 94.7031H69.375V97.4171H72.1368V94.7031Z" fill="#070100"/>
<path d="M72.1368 91.8798H69.375V94.7031H72.1368V91.8798Z" fill="#070100"/>
<path d="M72.1368 89.0564H69.375V91.8797H72.1368V89.0564Z" fill="#070100"/>
<path d="M72.1368 86.3425H69.375V89.0565H72.1368V86.3425Z" fill="#070100"/>
<path d="M72.1368 83.519H69.375V86.3424H72.1368V83.519Z" fill="#070100"/>
<path d="M72.1368 80.7177H69.375V83.541H72.1368V80.7177Z" fill="#070100"/>
<path d="M72.1368 77.9818H69.375V80.6957H72.1368V77.9818Z" fill="#F7FAF7"/>
<path d="M72.1368 75.1803H69.375V78.0037H72.1368V75.1803Z" fill="#F7FAF7"/>
<path d="M72.1368 72.3569H69.375V75.1803H72.1368V72.3569Z" fill="#F7FAF7"/>
<path d="M72.1368 69.6431H69.375V72.357H72.1368V69.6431Z" fill="#F7FAF7"/>
<path d="M72.1368 66.8197H69.375V69.6431H72.1368V66.8197Z" fill="#F7FAF7"/>
<path d="M72.1368 63.9963H69.375V66.8197H72.1368V63.9963Z" fill="#F7FAF7"/>
<path d="M72.1368 61.2823H69.375V63.9963H72.1368V61.2823Z" fill="#F7FAF7"/>
<path d="M72.1368 58.459H69.375V61.2824H72.1368V58.459Z" fill="#F7FAF7"/>
<path d="M69.375 125.279H66.6132V128.102H69.375V125.279Z" fill="#F7FAF7"/>
<path d="M69.375 122.565H66.6132V125.279H69.375V122.565Z" fill="#F7FAF7"/>
<path d="M69.375 119.763H66.6132V122.587H69.375V119.763Z" fill="#F7FAF7"/>
<path d="M69.375 116.94H66.6132V119.763H69.375V116.94Z" fill="#F7FAF7"/>
<path d="M69.375 114.116H66.6132V116.94H69.375V114.116Z" fill="#F7FAF7"/>
<path d="M69.375 108.579H66.6132V111.403H69.375V108.579Z" fill="#F7FAF7"/>
<path d="M69.375 105.756H66.6132V108.579H69.375V105.756Z" fill="#F7FAF7"/>
<path d="M69.375 103.042H66.6132V105.756H69.375V103.042Z" fill="#F7FAF7"/>
<path d="M69.375 100.24H66.6132V103.064H69.375V100.24Z" fill="#F7FAF7"/>
<path d="M69.375 97.4171H66.6132V100.24H69.375V97.4171Z" fill="#F7FAF7"/>
<path d="M69.375 94.7031H66.6132V97.4171H69.375V94.7031Z" fill="#070100"/>
<path d="M69.375 91.8798H66.6132V94.7031H69.375V91.8798Z" fill="#070100"/>
<path d="M69.375 89.0564H66.6132V91.8797H69.375V89.0564Z" fill="#070100"/>
<path d="M69.375 86.3425H66.6132V89.0565H69.375V86.3425Z" fill="#070100"/>
<path d="M69.375 83.519H66.6132V86.3424H69.375V83.519Z" fill="#070100"/>
<path d="M69.375 80.7177H66.6132V83.541H69.375V80.7177Z" fill="#070100"/>
<path d="M69.375 77.9818H66.6132V80.6957H69.375V77.9818Z" fill="#F7FAF7"/>
<path d="M69.375 75.1803H66.6132V78.0037H69.375V75.1803Z" fill="#F7FAF7"/>
<path d="M69.375 72.3569H66.6132V75.1803H69.375V72.3569Z" fill="#F7FAF7"/>
<path d="M69.375 69.6431H66.6132V72.357H69.375V69.6431Z" fill="#F7FAF7"/>
<path d="M69.375 66.8197H66.6132V69.6431H69.375V66.8197Z" fill="#F7FAF7"/>
<path d="M69.375 63.9963H66.6132V66.8197H69.375V63.9963Z" fill="#F7FAF7"/>
<path d="M66.6132 128.102H63.8075V130.925H66.6132V128.102Z" fill="#F7FAF7"/>
<path d="M66.6132 125.279H63.8075V128.102H66.6132V125.279Z" fill="#F7FAF7"/>
<path d="M66.6132 122.565H63.8075V125.279H66.6132V122.565Z" fill="#F7FAF7"/>
<path d="M66.6132 119.763H63.8075V122.587H66.6132V119.763Z" fill="#F7FAF7"/>
<path d="M66.6132 111.403H63.8075V114.117H66.6132V111.403Z" fill="#F7FAF7"/>
<path d="M66.6132 108.579H63.8075V111.403H66.6132V108.579Z" fill="#F7FAF7"/>
<path d="M66.6132 105.756H63.8075V108.579H66.6132V105.756Z" fill="#F7FAF7"/>
<path d="M66.6132 103.042H63.8075V105.756H66.6132V103.042Z" fill="#F7FAF7"/>
<path d="M66.6132 100.24H63.8075V103.064H66.6132V100.24Z" fill="#F7FAF7"/>
<path d="M66.6132 97.4171H63.8075V100.24H66.6132V97.4171Z" fill="#F7FAF7"/>
<path d="M66.6132 94.7031H63.8075V97.4171H66.6132V94.7031Z" fill="#F7FAF7"/>
<path d="M66.6132 91.8798H63.8075V94.7031H66.6132V91.8798Z" fill="#070100"/>
<path d="M66.6132 89.0564H63.8075V91.8797H66.6132V89.0564Z" fill="#070100"/>
<path d="M66.6132 86.3425H63.8075V89.0565H66.6132V86.3425Z" fill="#070100"/>
<path d="M66.6132 83.519H63.8075V86.3424H66.6132V83.519Z" fill="#070100"/>
<path d="M66.6132 80.7177H63.8075V83.541H66.6132V80.7177Z" fill="#F7FAF7"/>
<path d="M66.6132 77.9818H63.8075V80.6957H66.6132V77.9818Z" fill="#F7FAF7"/>
<path d="M66.6132 75.1803H63.8075V78.0037H66.6132V75.1803Z" fill="#F7FAF7"/>
<path d="M66.6132 72.3569H63.8075V75.1803H66.6132V72.3569Z" fill="#F7FAF7"/>
<path d="M63.8293 128.102H61.0675V130.925H63.8293V128.102Z" fill="#F7FAF7"/>
<path d="M63.8293 125.279H61.0675V128.102H63.8293V125.279Z" fill="#F7FAF7"/>
<path d="M63.8293 122.565H61.0675V125.279H63.8293V122.565Z" fill="#F7FAF7"/>
<path d="M63.8293 111.403H61.0675V114.117H63.8293V111.403Z" fill="#F7FAF7"/>
<path d="M63.8293 108.579H61.0675V111.403H63.8293V108.579Z" fill="#F7FAF7"/>
<path d="M63.8293 105.756H61.0675V108.579H63.8293V105.756Z" fill="#F7FAF7"/>
<path d="M63.8293 103.042H61.0675V105.756H63.8293V103.042Z" fill="#F7FAF7"/>
<path d="M63.8293 100.24H61.0675V103.064H63.8293V100.24Z" fill="#F7FAF7"/>
<path d="M63.8293 97.4171H61.0675V100.24H63.8293V97.4171Z" fill="#F7FAF7"/>
<path d="M63.8293 94.7031H61.0675V97.4171H63.8293V94.7031Z" fill="#F7FAF7"/>
<path d="M63.8293 91.8798H61.0675V94.7031H63.8293V91.8798Z" fill="#F7FAF7"/>
<path d="M63.8293 89.0564H61.0675V91.8797H63.8293V89.0564Z" fill="#F7FAF7"/>
<path d="M63.8293 86.3425H61.0675V89.0565H63.8293V86.3425Z" fill="#070100"/>
<path d="M63.8293 83.519H61.0675V86.3424H63.8293V83.519Z" fill="#F7FAF7"/>
<path d="M63.8293 80.7177H61.0675V83.541H63.8293V80.7177Z" fill="#F7FAF7"/>
<path d="M63.8293 77.9818H61.0675V80.6957H63.8293V77.9818Z" fill="#F7FAF7"/>
<path d="M63.8293 75.1803H61.0675V78.0037H63.8293V75.1803Z" fill="#F7FAF7"/>
<path d="M61.0675 128.102H58.3057V130.925H61.0675V128.102Z" fill="#F7FAF7"/>
<path d="M61.0675 125.279H58.3057V128.102H61.0675V125.279Z" fill="#F7FAF7"/>
<path d="M61.0675 116.94H58.3057V119.763H61.0675V116.94Z" fill="#B577E0"/>
<path d="M61.0675 111.403H58.3057V114.117H61.0675V111.403Z" fill="#F7FAF7"/>
<path d="M61.0675 108.579H58.3057V111.403H61.0675V108.579Z" fill="#F7FAF7"/>
<path d="M61.0675 105.756H58.3057V108.579H61.0675V105.756Z" fill="#F7FAF7"/>
<path d="M61.0675 103.042H58.3057V105.756H61.0675V103.042Z" fill="#F7FAF7"/>
<path d="M61.0675 100.24H58.3057V103.064H61.0675V100.24Z" fill="#F7FAF7"/>
<path d="M61.0675 97.4171H58.3057V100.24H61.0675V97.4171Z" fill="#F7FAF7"/>
<path d="M61.0675 94.7031H58.3057V97.4171H61.0675V94.7031Z" fill="#F7FAF7"/>
<path d="M61.0675 91.8798H58.3057V94.7031H61.0675V91.8798Z" fill="#F7FAF7"/>
<path d="M61.0675 89.0564H58.3057V91.8797H61.0675V89.0564Z" fill="#F7FAF7"/>
<path d="M61.0675 86.3425H58.3057V89.0565H61.0675V86.3425Z" fill="#F7FAF7"/>
<path d="M61.0675 83.519H58.3057V86.3424H61.0675V83.519Z" fill="#070100"/>
<path d="M61.0675 80.7177H58.3057V83.541H61.0675V80.7177Z" fill="#F7FAF7"/>
<path d="M61.0675 77.9818H58.3057V80.6957H61.0675V77.9818Z" fill="#F7FAF7"/>
<path d="M58.3057 128.102H55.5V130.925H58.3057V128.102Z" fill="#F7FAF7"/>
<path d="M58.3057 125.279H55.5V128.102H58.3057V125.279Z" fill="#F7FAF7"/>
<path d="M58.3057 116.94H55.5V119.763H58.3057V116.94Z" fill="#B577E0"/>
<path d="M58.3057 111.403H55.5V114.117H58.3057V111.403Z" fill="#F7FAF7"/>
<path d="M58.3057 108.579H55.5V111.403H58.3057V108.579Z" fill="#F7FAF7"/>
<path d="M58.3057 105.756H55.5V108.579H58.3057V105.756Z" fill="#F7FAF7"/>
<path d="M58.3057 103.042H55.5V105.756H58.3057V103.042Z" fill="#F7FAF7"/>
<path d="M58.3057 100.24H55.5V103.064H58.3057V100.24Z" fill="#F7FAF7"/>
<path d="M58.3057 97.4171H55.5V100.24H58.3057V97.4171Z" fill="#F7FAF7"/>
<path d="M58.3057 94.7031H55.5V97.4171H58.3057V94.7031Z" fill="#F7FAF7"/>
<path d="M58.3057 91.8798H55.5V94.7031H58.3057V91.8798Z" fill="#F7FAF7"/>
<path d="M58.3057 89.0564H55.5V91.8797H58.3057V89.0564Z" fill="#F7FAF7"/>
<path d="M58.3057 86.3425H55.5V89.0565H58.3057V86.3425Z" fill="#F7FAF7"/>
<path d="M58.3057 83.519H55.5V86.3424H58.3057V83.519Z" fill="#070100"/>
<path d="M58.3057 80.7177H55.5V83.541H58.3057V80.7177Z" fill="#F7FAF7"/>
<path d="M58.3057 77.9818H55.5V80.6957H58.3057V77.9818Z" fill="#F7FAF7"/>
<path d="M77.7044 44.583H74.9425V47.2969H77.7044V44.583Z" fill="#63DFDB"/>
<path d="M77.7044 41.7596H74.9425V44.583H77.7044V41.7596Z" fill="#63DFDB"/>
<path d="M77.7044 38.9363H74.9425V41.7596H77.7044V38.9363Z" fill="#63DFDB"/>
<path d="M74.9425 47.2969H72.1368V50.1203H74.9425V47.2969Z" fill="#63DFDB"/>
<path d="M74.9425 44.583H72.1368V47.2969H74.9425V44.583Z" fill="#63DFDB"/>
<path d="M74.9425 41.7596H72.1368V44.583H74.9425V41.7596Z" fill="#63DFDB"/>
<path d="M74.9425 38.9363H72.1368V41.7596H74.9425V38.9363Z" fill="#63DFDB"/>
<path d="M74.9425 36.2223H72.1368V38.9362H74.9425V36.2223Z" fill="#63DFDB"/>
<path d="M72.1368 50.1202H69.375V52.9436H72.1368V50.1202Z" fill="#63DFDB"/>
<path d="M72.1368 47.2969H69.375V50.1203H72.1368V47.2969Z" fill="#63DFDB"/>
<path d="M72.1368 44.583H69.375V47.2969H72.1368V44.583Z" fill="#63DFDB"/>
<path d="M72.1368 41.7596H69.375V44.583H72.1368V41.7596Z" fill="#63DFDB"/>
<path d="M72.1368 38.9363H69.375V41.7596H72.1368V38.9363Z" fill="#63DFDB"/>
<path d="M72.1368 36.2223H69.375V38.9362H72.1368V36.2223Z" fill="#070100"/>
<path d="M69.375 55.6576H66.6132V58.481H69.375V55.6576Z" fill="#63DFDB"/>
<path d="M69.375 52.9436H66.6132V55.6575H69.375V52.9436Z" fill="#63DFDB"/>
<path d="M69.375 50.1202H66.6132V52.9436H69.375V50.1202Z" fill="#63DFDB"/>
<path d="M69.375 47.2969H66.6132V50.1203H69.375V47.2969Z" fill="#63DFDB"/>
<path d="M69.375 44.583H66.6132V47.2969H69.375V44.583Z" fill="#63DFDB"/>
<path d="M66.6132 61.2825H63.8075V63.9964H66.6132V61.2825Z" fill="#63DFDB"/>
<path d="M66.6132 58.4591H63.8075V61.2825H66.6132V58.4591Z" fill="#63DFDB"/>
<path d="M66.6132 55.6576H63.8075V58.481H66.6132V55.6576Z" fill="#63DFDB"/>
<path d="M66.6132 52.9436H63.8075V55.6575H66.6132V52.9436Z" fill="#63DFDB"/>
<path d="M66.6132 50.1202H63.8075V52.9436H66.6132V50.1202Z" fill="#63DFDB"/>
<path d="M63.8293 69.6431H61.0675V72.357H63.8293V69.6431Z" fill="#63DFDB"/>
<path d="M63.8293 66.8197H61.0675V69.6431H63.8293V66.8197Z" fill="#63DFDB"/>
<path d="M63.8293 63.9963H61.0675V66.8197H63.8293V63.9963Z" fill="#63DFDB"/>
<path d="M63.8293 61.2825H61.0675V63.9964H63.8293V61.2825Z" fill="#63DFDB"/>
<path d="M63.8293 58.4591H61.0675V61.2825H63.8293V58.4591Z" fill="#63DFDB"/>
<path d="M63.8293 55.6576H61.0675V58.481H63.8293V55.6576Z" fill="#63DFDB"/>
<path d="M61.0675 72.3571H58.3057V75.1804H61.0675V72.3571Z" fill="#63DFDB"/>
<path d="M61.0675 69.6431H58.3057V72.357H61.0675V69.6431Z" fill="#63DFDB"/>
<path d="M58.3057 72.3571H55.5V75.1804H58.3057V72.3571Z" fill="#63DFDB"/>
<path d="M58.3057 66.8197H55.5V69.6431H58.3057V66.8197Z" fill="#F7FAF7"/>
<path d="M55.5 128.102H52.7382V130.925H55.5V128.102Z" fill="#F7FAF7"/>
<path d="M55.5 125.279H52.7382V128.102H55.5V125.279Z" fill="#F7FAF7"/>
<path d="M55.5 116.94H52.7382V119.763H55.5V116.94Z" fill="#F7FAF7"/>
<path d="M55.5 111.403H52.7382V114.117H55.5V111.403Z" fill="#F7FAF7"/>
<path d="M55.5 108.579H52.7382V111.403H55.5V108.579Z" fill="#F7FAF7"/>
<path d="M55.5 105.756H52.7382V108.579H55.5V105.756Z" fill="#F7FAF7"/>
<path d="M55.5 103.042H52.7382V105.756H55.5V103.042Z" fill="#F7FAF7"/>
<path d="M55.5 100.24H52.7382V103.064H55.5V100.24Z" fill="#F7FAF7"/>
<path d="M55.5 97.4171H52.7382V100.24H55.5V97.4171Z" fill="#F7FAF7"/>
<path d="M55.5 94.7031H52.7382V97.4171H55.5V94.7031Z" fill="#F7FAF7"/>
<path d="M55.5 91.8798H52.7382V94.7031H55.5V91.8798Z" fill="#F7FAF7"/>
<path d="M55.5 89.0564H52.7382V91.8797H55.5V89.0564Z" fill="#F7FAF7"/>
<path d="M55.5 86.3425H52.7382V89.0565H55.5V86.3425Z" fill="#F7FAF7"/>
<path d="M55.5 83.519H52.7382V86.3424H55.5V83.519Z" fill="#070100"/>
<path d="M55.5 80.7177H52.7382V83.541H55.5V80.7177Z" fill="#F7FAF7"/>
<path d="M55.5 77.9818H52.7382V80.6957H55.5V77.9818Z" fill="#F7FAF7"/>
<path d="M55.5 69.6431H52.7382V72.357H55.5V69.6431Z" fill="#F7FAF7"/>
<path d="M52.7382 128.102H49.9325V130.925H52.7382V128.102Z" fill="#F7FAF7"/>
<path d="M52.7382 125.279H49.9325V128.102H52.7382V125.279Z" fill="#F7FAF7"/>
<path d="M52.7382 116.94H49.9325V119.763H52.7382V116.94Z" fill="#F7FAF7"/>
<path d="M52.7382 111.403H49.9325V114.117H52.7382V111.403Z" fill="#F7FAF7"/>
<path d="M52.7382 108.579H49.9325V111.403H52.7382V108.579Z" fill="#F7FAF7"/>
<path d="M52.7382 105.756H49.9325V108.579H52.7382V105.756Z" fill="#F7FAF7"/>
<path d="M52.7382 103.042H49.9325V105.756H52.7382V103.042Z" fill="#F7FAF7"/>
<path d="M52.7382 100.24H49.9325V103.064H52.7382V100.24Z" fill="#F7FAF7"/>
<path d="M52.7382 97.4171H49.9325V100.24H52.7382V97.4171Z" fill="#F7FAF7"/>
<path d="M52.7382 94.7031H49.9325V97.4171H52.7382V94.7031Z" fill="#F7FAF7"/>
<path d="M52.7382 91.8798H49.9325V94.7031H52.7382V91.8798Z" fill="#F7FAF7"/>
<path d="M52.7382 89.0564H49.9325V91.8797H52.7382V89.0564Z" fill="#F7FAF7"/>
<path d="M52.7382 86.3425H49.9325V89.0565H52.7382V86.3425Z" fill="#F7FAF7"/>
<path d="M52.7382 83.519H49.9325V86.3424H52.7382V83.519Z" fill="#070100"/>
<path d="M52.7382 80.7177H49.9325V83.541H52.7382V80.7177Z" fill="#F7FAF7"/>
<path d="M52.7382 77.9818H49.9325V80.6957H52.7382V77.9818Z" fill="#F7FAF7"/>
<path d="M52.7382 72.3569H49.9325V75.1803H52.7382V72.3569Z" fill="#F7FAF7"/>
<path d="M52.7382 69.6431H49.9325V72.357H52.7382V69.6431Z" fill="#F7FAF7"/>
<path d="M66.6132 30.5974H63.8075V33.4208H66.6132V30.5974Z" fill="#070100"/>
<path d="M63.8293 33.3989H61.0675V36.2223H63.8293V33.3989Z" fill="#B577E0"/>
<path d="M63.8293 30.5974H61.0675V33.4208H63.8293V30.5974Z" fill="#B577E0"/>
<path d="M63.8293 25.0602H61.0675V27.8836H63.8293V25.0602Z" fill="#B577E0"/>
<path d="M63.8293 22.2368H61.0675V25.0602H63.8293V22.2368Z" fill="#B577E0"/>
<path d="M61.0676 36.2223H58.3058V38.9362H61.0676V36.2223Z" fill="#B577E0"/>
<path d="M61.0676 33.3989H58.3058V36.2223H61.0676V33.3989Z" fill="#B577E0"/>
<path d="M61.0676 27.8835H58.3058V30.5975H61.0676V27.8835Z" fill="#B577E0"/>
<path d="M61.0676 25.0602H58.3058V27.8836H61.0676V25.0602Z" fill="#B577E0"/>
<path d="M61.0676 19.5228H58.3058V22.2368H61.0676V19.5228Z" fill="#B577E0"/>
<path d="M61.0676 16.6995H58.3058V19.5228H61.0676V16.6995Z" fill="#B577E0"/>
<path d="M61.0676 11.0747H58.3058V13.8981H61.0676V11.0747Z" fill="#B577E0"/>
<path d="M58.3057 36.2223H55.5V38.9362H58.3057V36.2223Z" fill="#B577E0"/>
<path d="M58.3057 33.3989H55.5V36.2223H58.3057V33.3989Z" fill="#B577E0"/>
<path d="M58.3057 27.8835H55.5V30.5975H58.3057V27.8835Z" fill="#B577E0"/>
<path d="M58.3057 25.0602H55.5V27.8836H58.3057V25.0602Z" fill="#B577E0"/>
<path d="M58.3057 19.5228H55.5V22.2368H58.3057V19.5228Z" fill="#B577E0"/>
<path d="M58.3057 16.6995H55.5V19.5228H58.3057V16.6995Z" fill="#B577E0"/>
<path d="M58.3057 11.0747H55.5V13.8981H58.3057V11.0747Z" fill="#B577E0"/>
<path d="M58.3057 8.36072H55.5V11.0747H58.3057V8.36072Z" fill="#B577E0"/>
<path d="M58.3057 5.53735H55.5V8.36072H58.3057V5.53735Z" fill="#B577E0"/>
<path d="M58.3057 2.71399H55.5V5.53736H58.3057V2.71399Z" fill="#B577E0"/>
<path d="M55.5 38.9363H52.7382V41.7596H55.5V38.9363Z" fill="#B577E0"/>
<path d="M55.5 36.2223H52.7382V38.9362H55.5V36.2223Z" fill="#B577E0"/>
<path d="M55.5 33.3989H52.7382V36.2223H55.5V33.3989Z" fill="#B577E0"/>
<path d="M55.5 27.8835H52.7382V30.5975H55.5V27.8835Z" fill="#B577E0"/>
<path d="M55.5 25.0602H52.7382V27.8836H55.5V25.0602Z" fill="#B577E0"/>
<path d="M55.5 19.5228H52.7382V22.2368H55.5V19.5228Z" fill="#B577E0"/>
<path d="M55.5 16.6995H52.7382V19.5228H55.5V16.6995Z" fill="#B577E0"/>
<path d="M55.5 11.0747H52.7382V13.8981H55.5V11.0747Z" fill="#B577E0"/>
<path d="M52.7382 36.2223H49.9325V38.9362H52.7382V36.2223Z" fill="#B577E0"/>
<path d="M52.7382 33.3989H49.9325V36.2223H52.7382V33.3989Z" fill="#B577E0"/>
<path d="M52.7382 30.5974H49.9325V33.4208H52.7382V30.5974Z" fill="#B577E0"/>
<path d="M52.7382 25.0602H49.9325V27.8836H52.7382V25.0602Z" fill="#B577E0"/>
<path d="M52.7382 22.2368H49.9325V25.0602H52.7382V22.2368Z" fill="#B577E0"/>
<path d="M49.9325 128.102H47.1707V130.925H49.9325V128.102Z" fill="#F7FAF7"/>
<path d="M49.9325 125.279H47.1707V128.102H49.9325V125.279Z" fill="#F7FAF7"/>
<path d="M49.9325 122.565H47.1707V125.279H49.9325V122.565Z" fill="#F7FAF7"/>
<path d="M63.8293 116.94H61.0675V119.763H63.8293V116.94Z" fill="#B577E0"/>
<path d="M61.0675 119.763H58.3057V122.587H61.0675V119.763Z" fill="#B577E0"/>
<path d="M58.3057 119.763H55.5V122.587H58.3057V119.763Z" fill="#B577E0"/>
<path d="M55.5 119.763H52.7382V122.587H55.5V119.763Z" fill="#B577E0"/>
<path d="M52.7382 119.763H49.9325V122.587H52.7382V119.763Z" fill="#B577E0"/>
<path d="M49.9325 116.94H47.1707V119.763H49.9325V116.94Z" fill="#B577E0"/>
<path d="M49.9325 111.403H47.1707V114.117H49.9325V111.403Z" fill="#F7FAF7"/>
<path d="M49.9325 108.579H47.1707V111.403H49.9325V108.579Z" fill="#F7FAF7"/>
<path d="M49.9325 105.756H47.1707V108.579H49.9325V105.756Z" fill="#F7FAF7"/>
<path d="M49.9325 103.042H47.1707V105.756H49.9325V103.042Z" fill="#F7FAF7"/>
<path d="M49.9325 100.24H47.1707V103.064H49.9325V100.24Z" fill="#F7FAF7"/>
<path d="M49.9325 97.4171H47.1707V100.24H49.9325V97.4171Z" fill="#F7FAF7"/>
<path d="M49.9325 94.7031H47.1707V97.4171H49.9325V94.7031Z" fill="#F7FAF7"/>
<path d="M49.9325 91.8798H47.1707V94.7031H49.9325V91.8798Z" fill="#F7FAF7"/>
<path d="M49.9325 89.0564H47.1707V91.8797H49.9325V89.0564Z" fill="#F7FAF7"/>
<path d="M49.9325 86.3425H47.1707V89.0565H49.9325V86.3425Z" fill="#070100"/>
<path d="M49.9325 83.519H47.1707V86.3424H49.9325V83.519Z" fill="#F7FAF7"/>
<path d="M49.9325 80.7177H47.1707V83.541H49.9325V80.7177Z" fill="#F7FAF7"/>
<path d="M49.9325 77.9818H47.1707V80.6957H49.9325V77.9818Z" fill="#F7FAF7"/>
<path d="M49.9325 75.1803H47.1707V78.0037H49.9325V75.1803Z" fill="#F7FAF7"/>
<path d="M49.9325 72.3569H47.1707V75.1803H49.9325V72.3569Z" fill="#F7FAF7"/>
<path d="M66.6132 27.8835H63.8075V30.5975H66.6132V27.8835Z" fill="#070100"/>
<path d="M66.6132 25.0601H63.8075V27.8834H66.6132V25.0601Z" fill="#070100"/>
<path d="M66.6132 22.2367H63.8075V25.0601H66.6132V22.2367Z" fill="#070100"/>
<path d="M63.8293 27.8835H61.0675V30.5975H63.8293V27.8835Z" fill="#070100"/>
<path d="M63.8293 19.5228H61.0675V22.2368H63.8293V19.5228Z" fill="#070100"/>
<path d="M63.8293 16.6995H61.0675V19.5228H63.8293V16.6995Z" fill="#070100"/>
<path d="M63.8293 13.8979H61.0675V16.7213H63.8293V13.8979Z" fill="#070100"/>
<path d="M63.8293 11.0746H61.0675V13.898H63.8293V11.0746Z" fill="#070100"/>
<path d="M61.0675 30.5974H58.3057V33.4208H61.0675V30.5974Z" fill="#070100"/>
<path d="M61.0675 22.2367H58.3057V25.0601H61.0675V22.2367Z" fill="#070100"/>
<path d="M61.0675 13.8979H58.3057V16.7213H61.0675V13.8979Z" fill="#070100"/>
<path d="M61.0675 8.36072H58.3057V11.0746H61.0675V8.36072Z" fill="#070100"/>
<path d="M61.0675 5.53723H58.3057V8.3606H61.0675V5.53723Z" fill="#070100"/>
<path d="M61.0675 2.71399H58.3057V5.53736H61.0675V2.71399Z" fill="#070100"/>
<path d="M58.3057 30.5974H55.5V33.4208H58.3057V30.5974Z" fill="#070100"/>
<path d="M58.3057 22.2367H55.5V25.0601H58.3057V22.2367Z" fill="#070100"/>
<path d="M58.3057 13.8979H55.5V16.7213H58.3057V13.8979Z" fill="#070100"/>
<path d="M58.3057 0H55.5V2.71393H58.3057V0Z" fill="#070100"/>
<path d="M55.5 30.5974H52.7382V33.4208H55.5V30.5974Z" fill="#070100"/>
<path d="M55.5 22.2367H52.7382V25.0601H55.5V22.2367Z" fill="#070100"/>
<path d="M55.5 13.8979H52.7382V16.7213H55.5V13.8979Z" fill="#070100"/>
<path d="M55.5 8.36072H52.7382V11.0746H55.5V8.36072Z" fill="#070100"/>
<path d="M55.5 5.53723H52.7382V8.3606H55.5V5.53723Z" fill="#070100"/>
<path d="M55.5 2.71399H52.7382V5.53736H55.5V2.71399Z" fill="#070100"/>
<path d="M52.7382 38.9362H49.9325V41.7595H52.7382V38.9362Z" fill="#070100"/>
<path d="M52.7382 27.8835H49.9325V30.5975H52.7382V27.8835Z" fill="#070100"/>
<path d="M52.7382 19.5228H49.9325V22.2368H52.7382V19.5228Z" fill="#070100"/>
<path d="M52.7382 16.6995H49.9325V19.5228H52.7382V16.6995Z" fill="#070100"/>
<path d="M52.7382 13.8979H49.9325V16.7213H52.7382V13.8979Z" fill="#070100"/>
<path d="M52.7382 11.0746H49.9325V13.898H52.7382V11.0746Z" fill="#070100"/>
<path d="M49.9325 36.2223H47.1707V38.9362H49.9325V36.2223Z" fill="#070100"/>
<path d="M49.9325 33.3989H47.1707V36.2223H49.9325V33.3989Z" fill="#070100"/>
<path d="M49.9325 30.5974H47.1707V33.4208H49.9325V30.5974Z" fill="#070100"/>
<path d="M49.9325 27.8835H47.1707V30.5975H49.9325V27.8835Z" fill="#070100"/>
<path d="M49.9325 25.0601H47.1707V27.8834H49.9325V25.0601Z" fill="#070100"/>
<path d="M49.9325 22.2367H47.1707V25.0601H49.9325V22.2367Z" fill="#070100"/>
<path d="M47.1707 128.102H44.4088V130.925H47.1707V128.102Z" fill="#F7FAF7"/>
<path d="M47.1707 125.279H44.4088V128.102H47.1707V125.279Z" fill="#F7FAF7"/>
<path d="M47.1707 122.565H44.4088V125.279H47.1707V122.565Z" fill="#F7FAF7"/>
<path d="M47.1707 119.763H44.4088V122.587H47.1707V119.763Z" fill="#F7FAF7"/>
<path d="M47.1707 111.403H44.4088V114.117H47.1707V111.403Z" fill="#F7FAF7"/>
<path d="M47.1707 108.579H44.4088V111.403H47.1707V108.579Z" fill="#F7FAF7"/>
<path d="M47.1707 105.756H44.4088V108.579H47.1707V105.756Z" fill="#F7FAF7"/>
<path d="M47.1707 103.042H44.4088V105.756H47.1707V103.042Z" fill="#F7FAF7"/>
<path d="M47.1707 100.24H44.4088V103.064H47.1707V100.24Z" fill="#F7FAF7"/>
<path d="M47.1707 97.4171H44.4088V100.24H47.1707V97.4171Z" fill="#F7FAF7"/>
<path d="M47.1707 94.7031H44.4088V97.4171H47.1707V94.7031Z" fill="#F7FAF7"/>
<path d="M47.1707 91.8798H44.4088V94.7031H47.1707V91.8798Z" fill="#070100"/>
<path d="M47.1707 89.0564H44.4088V91.8797H47.1707V89.0564Z" fill="#070100"/>
<path d="M47.1707 86.3425H44.4088V89.0565H47.1707V86.3425Z" fill="#070100"/>
<path d="M47.1707 83.519H44.4088V86.3424H47.1707V83.519Z" fill="#070100"/>
<path d="M47.1707 80.7177H44.4088V83.541H47.1707V80.7177Z" fill="#F7FAF7"/>
<path d="M47.1707 77.9818H44.4088V80.6957H47.1707V77.9818Z" fill="#F7FAF7"/>
<path d="M47.1707 75.1803H44.4088V78.0037H47.1707V75.1803Z" fill="#F7FAF7"/>
<path d="M47.1707 72.3569H44.4088V75.1803H47.1707V72.3569Z" fill="#F7FAF7"/>
<path d="M44.4087 125.279H41.603V128.102H44.4087V125.279Z" fill="#F7FAF7"/>
<path d="M44.4087 122.565H41.603V125.279H44.4087V122.565Z" fill="#F7FAF7"/>
<path d="M44.4087 119.763H41.603V122.587H44.4087V119.763Z" fill="#F7FAF7"/>
<path d="M44.4087 116.94H41.603V119.763H44.4087V116.94Z" fill="#F7FAF7"/>
<path d="M44.4087 114.116H41.603V116.94H44.4087V114.116Z" fill="#F7FAF7"/>
<path d="M69.3749 111.403H66.613V114.117H69.3749V111.403Z" fill="#070100"/>
<path d="M66.613 116.94H63.8074V119.763H66.613V116.94Z" fill="#070100"/>
<path d="M66.613 114.117H63.8074V116.94H66.613V114.117Z" fill="#070100"/>
<path d="M63.8292 119.763H61.0674V122.587H63.8292V119.763Z" fill="#070100"/>
<path d="M63.8292 114.117H61.0674V116.94H63.8292V114.117Z" fill="#070100"/>
<path d="M61.0675 122.565H58.3057V125.279H61.0675V122.565Z" fill="#070100"/>
<path d="M61.0675 114.117H58.3057V116.94H61.0675V114.117Z" fill="#070100"/>
<path d="M58.3056 122.565H55.4999V125.279H58.3056V122.565Z" fill="#070100"/>
<path d="M58.3056 114.117H55.4999V116.94H58.3056V114.117Z" fill="#070100"/>
<path d="M55.4999 122.565H52.738V125.279H55.4999V122.565Z" fill="#070100"/>
<path d="M55.4999 114.117H52.738V116.94H55.4999V114.117Z" fill="#070100"/>
<path d="M52.7381 122.565H49.9324V125.279H52.7381V122.565Z" fill="#070100"/>
<path d="M52.7381 114.117H49.9324V116.94H52.7381V114.117Z" fill="#070100"/>
<path d="M49.9324 119.763H47.1705V122.587H49.9324V119.763Z" fill="#070100"/>
<path d="M49.9324 114.117H47.1705V116.94H49.9324V114.117Z" fill="#070100"/>
<path d="M47.1705 116.94H44.4087V119.763H47.1705V116.94Z" fill="#070100"/>
<path d="M47.1705 114.117H44.4087V116.94H47.1705V114.117Z" fill="#070100"/>
<path d="M44.4087 111.403H41.603V114.117H44.4087V111.403Z" fill="#070100"/>
<path d="M44.4087 108.579H41.603V111.403H44.4087V108.579Z" fill="#F7FAF7"/>
<path d="M44.4087 105.756H41.603V108.579H44.4087V105.756Z" fill="#F7FAF7"/>
<path d="M44.4087 103.042H41.603V105.756H44.4087V103.042Z" fill="#F7FAF7"/>
<path d="M44.4087 100.24H41.603V103.064H44.4087V100.24Z" fill="#F7FAF7"/>
<path d="M44.4087 97.4171H41.603V100.24H44.4087V97.4171Z" fill="#F7FAF7"/>
<path d="M44.4087 94.7031H41.603V97.4171H44.4087V94.7031Z" fill="#070100"/>
<path d="M44.4087 91.8798H41.603V94.7031H44.4087V91.8798Z" fill="#070100"/>
<path d="M44.4087 89.0564H41.603V91.8797H44.4087V89.0564Z" fill="#070100"/>
<path d="M44.4087 86.3425H41.603V89.0565H44.4087V86.3425Z" fill="#070100"/>
<path d="M44.4087 83.519H41.603V86.3424H44.4087V83.519Z" fill="#070100"/>
<path d="M44.4087 80.7177H41.603V83.541H44.4087V80.7177Z" fill="#070100"/>
<path d="M44.4087 77.9818H41.603V80.6957H44.4087V77.9818Z" fill="#F7FAF7"/>
<path d="M44.4087 75.1803H41.603V78.0037H44.4087V75.1803Z" fill="#F7FAF7"/>
<path d="M44.4087 72.3569H41.603V75.1803H44.4087V72.3569Z" fill="#F7FAF7"/>
<path d="M41.6032 125.279H38.8413V128.102H41.6032V125.279Z" fill="#F7FAF7"/>
<path d="M41.6032 122.565H38.8413V125.279H41.6032V122.565Z" fill="#F7FAF7"/>
<path d="M41.6032 119.763H38.8413V122.587H41.6032V119.763Z" fill="#F7FAF7"/>
<path d="M41.6032 116.94H38.8413V119.763H41.6032V116.94Z" fill="#F7FAF7"/>
<path d="M41.6032 114.116H38.8413V116.94H41.6032V114.116Z" fill="#F7FAF7"/>
<path d="M41.6032 111.403H38.8413V114.117H41.6032V111.403Z" fill="#F7FAF7"/>
<path d="M41.6032 108.579H38.8413V111.403H41.6032V108.579Z" fill="#F7FAF7"/>
<path d="M41.6032 103.042H38.8413V105.756H41.6032V103.042Z" fill="#F7FAF7"/>
<path d="M41.6032 100.24H38.8413V103.064H41.6032V100.24Z" fill="#F7FAF7"/>
<path d="M41.6032 97.4171H38.8413V100.24H41.6032V97.4171Z" fill="#F7FAF7"/>
<path d="M41.6032 94.7031H38.8413V97.4171H41.6032V94.7031Z" fill="#070100"/>
<path d="M41.6032 91.8798H38.8413V94.7031H41.6032V91.8798Z" fill="#070100"/>
<path d="M41.6032 89.0564H38.8413V91.8797H41.6032V89.0564Z" fill="#070100"/>
<path d="M41.6032 86.3425H38.8413V89.0565H41.6032V86.3425Z" fill="#070100"/>
<path d="M41.6032 83.519H38.8413V86.3424H41.6032V83.519Z" fill="#070100"/>
<path d="M41.6032 80.7177H38.8413V83.541H41.6032V80.7177Z" fill="#070100"/>
<path d="M38.8632 80.7177H36.1013V83.541H38.8632V80.7177Z" fill="#070100"/>
<path d="M41.6032 77.9818H38.8413V80.6957H41.6032V77.9818Z" fill="#F7FAF7"/>
<path d="M41.6032 75.1803H38.8413V78.0037H41.6032V75.1803Z" fill="#F7FAF7"/>
<path d="M41.6032 72.3569H38.8413V75.1803H41.6032V72.3569Z" fill="#F7FAF7"/>
<path d="M66.6132 41.7596H63.8075V44.583H66.6132V41.7596Z" fill="#63DFDB"/>
<path d="M66.6132 38.9363H63.8075V41.7596H66.6132V38.9363Z" fill="#63DFDB"/>
<path d="M66.6132 36.2223H63.8075V38.9362H66.6132V36.2223Z" fill="#63DFDB"/>
<path d="M63.8295 47.2969H61.0676V50.1203H63.8295V47.2969Z" fill="#63DFDB"/>
<path d="M63.8295 44.583H61.0676V47.2969H63.8295V44.583Z" fill="#63DFDB"/>
<path d="M63.8295 41.7596H61.0676V44.583H63.8295V41.7596Z" fill="#63DFDB"/>
<path d="M63.8295 38.9363H61.0676V41.7596H63.8295V38.9363Z" fill="#63DFDB"/>
<path d="M61.0675 52.9436H58.3057V55.6575H61.0675V52.9436Z" fill="#63DFDB"/>
<path d="M61.0675 50.1202H58.3057V52.9436H61.0675V50.1202Z" fill="#63DFDB"/>
<path d="M61.0675 47.2969H58.3057V50.1203H61.0675V47.2969Z" fill="#63DFDB"/>
<path d="M61.0675 44.583H58.3057V47.2969H61.0675V44.583Z" fill="#63DFDB"/>
<path d="M61.0675 41.7596H58.3057V44.583H61.0675V41.7596Z" fill="#63DFDB"/>
<path d="M58.3057 58.4591H55.5V61.2825H58.3057V58.4591Z" fill="#63DFDB"/>
<path d="M58.3057 55.6576H55.5V58.481H58.3057V55.6576Z" fill="#63DFDB"/>
<path d="M58.3057 52.9436H55.5V55.6575H58.3057V52.9436Z" fill="#63DFDB"/>
<path d="M58.3057 50.1202H55.5V52.9436H58.3057V50.1202Z" fill="#63DFDB"/>
<path d="M58.3057 47.2969H55.5V50.1203H58.3057V47.2969Z" fill="#63DFDB"/>
<path d="M58.3057 44.583H55.5V47.2969H58.3057V44.583Z" fill="#63DFDB"/>
<path d="M58.3057 41.7596H55.5V44.583H58.3057V41.7596Z" fill="#63DFDB"/>
<path d="M55.5 63.9963H52.7382V66.8197H55.5V63.9963Z" fill="#63DFDB"/>
<path d="M55.5 61.2825H52.7382V63.9964H55.5V61.2825Z" fill="#63DFDB"/>
<path d="M55.5 58.4591H52.7382V61.2825H55.5V58.4591Z" fill="#63DFDB"/>
<path d="M55.5 55.6576H52.7382V58.481H55.5V55.6576Z" fill="#63DFDB"/>
<path d="M55.5 52.9436H52.7382V55.6575H55.5V52.9436Z" fill="#63DFDB"/>
<path d="M55.5 50.1202H52.7382V52.9436H55.5V50.1202Z" fill="#63DFDB"/>
<path d="M55.5 47.2969H52.7382V50.1203H55.5V47.2969Z" fill="#63DFDB"/>
<path d="M52.7383 63.9963H49.9326V66.8197H52.7383V63.9963Z" fill="#63DFDB"/>
<path d="M52.7383 61.2825H49.9326V63.9964H52.7383V61.2825Z" fill="#63DFDB"/>
<path d="M52.7383 58.4591H49.9326V61.2825H52.7383V58.4591Z" fill="#63DFDB"/>
<path d="M52.7383 55.6576H49.9326V58.481H52.7383V55.6576Z" fill="#63DFDB"/>
<path d="M52.7383 52.9436H49.9326V55.6575H52.7383V52.9436Z" fill="#63DFDB"/>
<path d="M52.7383 50.1202H49.9326V52.9436H52.7383V50.1202Z" fill="#63DFDB"/>
<path d="M49.9325 66.8197H47.1707V69.6431H49.9325V66.8197Z" fill="#63DFDB"/>
<path d="M49.9325 63.9963H47.1707V66.8197H49.9325V63.9963Z" fill="#63DFDB"/>
<path d="M49.9325 61.2825H47.1707V63.9964H49.9325V61.2825Z" fill="#63DFDB"/>
<path d="M49.9325 58.4591H47.1707V61.2825H49.9325V58.4591Z" fill="#63DFDB"/>
<path d="M49.9325 55.6576H47.1707V58.481H49.9325V55.6576Z" fill="#63DFDB"/>
<path d="M47.1707 66.8197H44.4088V69.6431H47.1707V66.8197Z" fill="#63DFDB"/>
<path d="M47.1707 63.9963H44.4088V66.8197H47.1707V63.9963Z" fill="#63DFDB"/>
<path d="M47.1707 61.2825H44.4088V63.9964H47.1707V61.2825Z" fill="#63DFDB"/>
<path d="M44.4088 66.8197H41.6031V69.6431H44.4088V66.8197Z" fill="#63DFDB"/>
<path d="M44.4088 63.9963H41.6031V66.8197H44.4088V63.9963Z" fill="#63DFDB"/>
<path d="M41.6032 66.8197H38.8413V69.6431H41.6032V66.8197Z" fill="#63DFDB"/>
<path d="M41.6032 61.2823H38.8413V63.9963H41.6032V61.2823Z" fill="#F7FAF7"/>
<path d="M38.8632 119.763H36.1013V122.587H38.8632V119.763Z" fill="#F7FAF7"/>
<path d="M38.8632 116.94H36.1013V119.763H38.8632V116.94Z" fill="#F7FAF7"/>
<path d="M38.8632 114.116H36.1013V116.94H38.8632V114.116Z" fill="#F7FAF7"/>
<path d="M38.8632 111.403H36.1013V114.117H38.8632V111.403Z" fill="#F7FAF7"/>
<path d="M38.8632 105.756H36.1013V108.579H38.8632V105.756Z" fill="#F7FAF7"/>
<path d="M38.8632 103.042H36.1013V105.756H38.8632V103.042Z" fill="#F7FAF7"/>
<path d="M38.8632 100.24H36.1013V103.064H38.8632V100.24Z" fill="#F7FAF7"/>
<path d="M38.8632 97.4171H36.1013V100.24H38.8632V97.4171Z" fill="#F7FAF7"/>
<path d="M38.8632 94.7031H36.1013V97.4171H38.8632V94.7031Z" fill="#070100"/>
<path d="M38.8632 91.8798H36.1013V94.7031H38.8632V91.8798Z" fill="#070100"/>
<path d="M38.8632 89.0564H36.1013V91.8797H38.8632V89.0564Z" fill="#070100"/>
<path d="M38.8632 86.3425H36.1013V89.0565H38.8632V86.3425Z" fill="#070100"/>
<path d="M38.8632 83.519H36.1013V86.3424H38.8632V83.519Z" fill="#070100"/>
<path d="M38.8632 77.9818H36.1013V80.6957H38.8632V77.9818Z" fill="#F7FAF7"/>
<path d="M38.8632 75.1803H36.1013V78.0037H38.8632V75.1803Z" fill="#F7FAF7"/>
<path d="M38.8632 72.3569H36.1013V75.1803H38.8632V72.3569Z" fill="#F7FAF7"/>
<path d="M38.8632 69.6431H36.1013V72.357H38.8632V69.6431Z" fill="#F7FAF7"/>
<path d="M69.375 41.7596H66.6132V44.583H69.375V41.7596Z" fill="#070100"/>
<path d="M69.375 38.9363H66.6132V41.7596H69.375V38.9363Z" fill="#070100"/>
<path d="M69.375 36.2223H66.6132V38.9362H69.375V36.2223Z" fill="#63DFDB"/>
<path d="M69.375 33.3989H66.6132V36.2223H69.375V33.3989Z" fill="#63DFDB"/>
<path d="M66.6132 47.2969H63.8075V50.1203H66.6132V47.2969Z" fill="#070100"/>
<path d="M66.6132 44.583H63.8075V47.2969H66.6132V44.583Z" fill="#070100"/>
<path d="M66.6132 33.3989H63.8075V36.2223H66.6132V33.3989Z" fill="#070100"/>
<path d="M63.8293 52.9436H61.0675V55.6575H63.8293V52.9436Z" fill="#070100"/>
<path d="M63.8293 50.1202H61.0675V52.9436H63.8293V50.1202Z" fill="#070100"/>
<path d="M63.8293 36.2223H61.0675V38.9362H63.8293V36.2223Z" fill="#070100"/>
<path d="M61.0675 58.459H58.3057V61.2823H61.0675V58.459Z" fill="#070100"/>
<path d="M61.0675 55.6576H58.3057V58.481H61.0675V55.6576Z" fill="#070100"/>
<path d="M61.0675 38.9363H58.3057V41.7596H61.0675V38.9363Z" fill="#070100"/>
<path d="M58.3057 63.9963H55.5V66.8197H58.3057V63.9963Z" fill="#070100"/>
<path d="M58.3057 61.2825H55.5V63.9964H58.3057V61.2825Z" fill="#070100"/>
<path d="M58.3057 38.9363H55.5V41.7596H58.3057V38.9363Z" fill="#070100"/>
<path d="M55.5 66.8197H52.7382V69.6431H55.5V66.8197Z" fill="#070100"/>
<path d="M52.7382 66.8197H49.9325V69.6431H52.7382V66.8197Z" fill="#070100"/>
<path d="M49.9325 69.6431H47.1707V72.357H49.9325V69.6431Z" fill="#070100"/>
<path d="M47.1707 69.6431H44.4088V72.357H47.1707V69.6431Z" fill="#070100"/>
<path d="M44.4088 69.6431H41.6031V72.357H44.4088V69.6431Z" fill="#070100"/>
<path d="M44.4088 61.2825H41.6031V63.9964H44.4088V61.2825Z" fill="#070100"/>
<path d="M41.6032 69.6431H38.8413V72.357H41.6032V69.6431Z" fill="#070100"/>
<path d="M41.6032 63.9963H38.8413V66.8197H41.6032V63.9963Z" fill="#070100"/>
<path d="M38.8632 66.8197H36.1013V69.6431H38.8632V66.8197Z" fill="#070100"/>
<path d="M38.8632 63.9963H36.1013V66.8197H38.8632V63.9963Z" fill="#F7FAF7"/>
<path d="M36.1013 108.579H33.2957V111.403H36.1013V108.579Z" fill="#F7FAF7"/>
<path d="M36.1013 105.756H33.2957V108.579H36.1013V105.756Z" fill="#F7FAF7"/>
<path d="M36.1013 103.042H33.2957V105.756H36.1013V103.042Z" fill="#F7FAF7"/>
<path d="M36.1013 100.24H33.2957V103.064H36.1013V100.24Z" fill="#F7FAF7"/>
<path d="M36.1013 97.4171H33.2957V100.24H36.1013V97.4171Z" fill="#F7FAF7"/>
<path d="M36.1013 94.7031H33.2957V97.4171H36.1013V94.7031Z" fill="#070100"/>
<path d="M36.1013 91.8798H33.2957V94.7031H36.1013V91.8798Z" fill="#070100"/>
<path d="M36.1013 89.0564H33.2957V91.8797H36.1013V89.0564Z" fill="#070100"/>
<path d="M36.1013 86.3425H33.2957V89.0565H36.1013V86.3425Z" fill="#070100"/>
<path d="M36.1013 83.519H33.2957V86.3424H36.1013V83.519Z" fill="#070100"/>
<path d="M36.1013 80.7177H33.2957V83.541H36.1013V80.7177Z" fill="#070100"/>
<path d="M36.1013 77.9818H33.2957V80.6957H36.1013V77.9818Z" fill="#F7FAF7"/>
<path d="M36.1013 75.1803H33.2957V78.0037H36.1013V75.1803Z" fill="#F7FAF7"/>
<path d="M36.1013 69.6431H33.2957V72.357H36.1013V69.6431Z" fill="#F7FAF7"/>
<path d="M36.1013 66.8197H33.2957V69.6431H36.1013V66.8197Z" fill="#F7FAF7"/>
<path d="M36.1013 63.9963H33.2957V66.8197H36.1013V63.9963Z" fill="#F7FAF7"/>
<path d="M36.1013 47.2969H33.2957V50.1203H36.1013V47.2969Z" fill="#F7FAF7"/>
<path d="M36.1013 44.5829H33.2957V47.2968H36.1013V44.5829Z" fill="#F7FAF7"/>
<path d="M33.2955 111.403H30.5337V114.117H33.2955V111.403Z" fill="#F7FAF7"/>
<path d="M33.2955 108.579H30.5337V111.403H33.2955V108.579Z" fill="#F7FAF7"/>
<path d="M33.2955 105.756H30.5337V108.579H33.2955V105.756Z" fill="#F7FAF7"/>
<path d="M33.2955 103.042H30.5337V105.756H33.2955V103.042Z" fill="#F7FAF7"/>
<path d="M33.2955 100.24H30.5337V103.064H33.2955V100.24Z" fill="#F7FAF7"/>
<path d="M33.2955 97.4171H30.5337V100.24H33.2955V97.4171Z" fill="#F7FAF7"/>
<path d="M33.2955 94.7031H30.5337V97.4171H33.2955V94.7031Z" fill="#070100"/>
<path d="M33.2955 91.8798H30.5337V94.7031H33.2955V91.8798Z" fill="#070100"/>
<path d="M33.2955 89.0564H30.5337V91.8797H33.2955V89.0564Z" fill="#070100"/>
<path d="M33.2955 86.3425H30.5337V89.0565H33.2955V86.3425Z" fill="#FFFFFE"/>
<path d="M33.2955 83.519H30.5337V86.3424H33.2955V83.519Z" fill="#070100"/>
<path d="M33.2955 80.7177H30.5337V83.541H33.2955V80.7177Z" fill="#070100"/>
<path d="M33.2955 77.9818H30.5337V80.6957H33.2955V77.9818Z" fill="#F7FAF7"/>
<path d="M33.2955 75.1803H30.5337V78.0037H33.2955V75.1803Z" fill="#F7FAF7"/>
<path d="M33.2955 72.3569H30.5337V75.1803H33.2955V72.3569Z" fill="#F7FAF7"/>
<path d="M33.2955 66.8197H30.5337V69.6431H33.2955V66.8197Z" fill="#F7FAF7"/>
<path d="M33.2955 63.9963H30.5337V66.8197H33.2955V63.9963Z" fill="#F7FAF7"/>
<path d="M33.2955 50.1202H30.5337V52.9436H33.2955V50.1202Z" fill="#F7FAF7"/>
<path d="M33.2955 47.2969H30.5337V50.1203H33.2955V47.2969Z" fill="#F7FAF7"/>
<path d="M33.2955 44.5829H30.5337V47.2968H33.2955V44.5829Z" fill="#F7FAF7"/>
<path d="M33.2955 41.7595H30.5337V44.5829H33.2955V41.7595Z" fill="#F7FAF7"/>
<path d="M33.2955 33.3989H30.5337V36.2223H33.2955V33.3989Z" fill="#F7FAF7"/>
<path d="M30.5338 116.94H27.772V119.763H30.5338V116.94Z" fill="#F7FAF7"/>
<path d="M30.5338 108.579H27.772V111.403H30.5338V108.579Z" fill="#F7FAF7"/>
<path d="M30.5338 105.756H27.772V108.579H30.5338V105.756Z" fill="#F7FAF7"/>
<path d="M30.5338 103.042H27.772V105.756H30.5338V103.042Z" fill="#F7FAF7"/>
<path d="M30.5338 100.24H27.772V103.064H30.5338V100.24Z" fill="#F7FAF7"/>
<path d="M30.5338 97.4171H27.772V100.24H30.5338V97.4171Z" fill="#F7FAF7"/>
<path d="M30.5338 94.7031H27.772V97.4171H30.5338V94.7031Z" fill="#070100"/>
<path d="M30.5338 91.8798H27.772V94.7031H30.5338V91.8798Z" fill="#070100"/>
<path d="M30.5338 89.0564H27.772V91.8797H30.5338V89.0564Z" fill="#070100"/>
<path d="M30.5338 86.3425H27.772V89.0565H30.5338V86.3425Z" fill="#070100"/>
<path d="M30.5338 83.519H27.772V86.3424H30.5338V83.519Z" fill="#FFFFFE"/>
<path d="M30.5338 80.7177H27.772V83.541H30.5338V80.7177Z" fill="#070100"/>
<path d="M30.5338 77.9818H27.772V80.6957H30.5338V77.9818Z" fill="#F7FAF7"/>
<path d="M30.5338 75.1803H27.772V78.0037H30.5338V75.1803Z" fill="#F7FAF7"/>
<path d="M30.5338 72.3569H27.772V75.1803H30.5338V72.3569Z" fill="#F7FAF7"/>
<path d="M30.5338 66.8197H27.772V69.6431H30.5338V66.8197Z" fill="#F7FAF7"/>
<path d="M30.5338 63.9963H27.772V66.8197H30.5338V63.9963Z" fill="#F7FAF7"/>
<path d="M30.5338 50.1202H27.772V52.9436H30.5338V50.1202Z" fill="#F7FAF7"/>
<path d="M30.5338 47.2969H27.772V50.1203H30.5338V47.2969Z" fill="#F7FAF7"/>
<path d="M30.5338 44.5829H27.772V47.2968H30.5338V44.5829Z" fill="#F7FAF7"/>
<path d="M30.5338 41.7595H27.772V44.5829H30.5338V41.7595Z" fill="#F7FAF7"/>
<path d="M30.5338 38.9362H27.772V41.7595H30.5338V38.9362Z" fill="#F7FAF7"/>
<path d="M30.5338 36.2223H27.772V38.9362H30.5338V36.2223Z" fill="#F7FAF7"/>
<path d="M30.5338 33.3989H27.772V36.2223H30.5338V33.3989Z" fill="#F7FAF7"/>
<path d="M30.5338 30.5974H27.772V33.4208H30.5338V30.5974Z" fill="#F7FAF7"/>
<path d="M30.5338 27.8835H27.772V30.5975H30.5338V27.8835Z" fill="#F7FAF7"/>
<path d="M27.7719 116.94H24.9662V119.763H27.7719V116.94Z" fill="#F7FAF7"/>
<path d="M27.7719 114.116H24.9662V116.94H27.7719V114.116Z" fill="#F7FAF7"/>
<path d="M27.7719 111.403H24.9662V114.117H27.7719V111.403Z" fill="#F7FAF7"/>
<path d="M27.7719 105.756H24.9662V108.579H27.7719V105.756Z" fill="#F7FAF7"/>
<path d="M27.7719 103.042H24.9662V105.756H27.7719V103.042Z" fill="#F7FAF7"/>
<path d="M27.7719 100.24H24.9662V103.064H27.7719V100.24Z" fill="#F7FAF7"/>
<path d="M27.7719 97.4171H24.9662V100.24H27.7719V97.4171Z" fill="#F7FAF7"/>
<path d="M27.7719 94.7031H24.9662V97.4171H27.7719V94.7031Z" fill="#F7FAF7"/>
<path d="M27.7719 91.8798H24.9662V94.7031H27.7719V91.8798Z" fill="#070100"/>
<path d="M27.7719 89.0564H24.9662V91.8797H27.7719V89.0564Z" fill="#070100"/>
<path d="M27.7719 86.3425H24.9662V89.0565H27.7719V86.3425Z" fill="#070100"/>
<path d="M27.7719 83.519H24.9662V86.3424H27.7719V83.519Z" fill="#070100"/>
<path d="M27.7719 80.7177H24.9662V83.541H27.7719V80.7177Z" fill="#070100"/>
<path d="M27.7719 77.9818H24.9662V80.6957H27.7719V77.9818Z" fill="#F7FAF7"/>
<path d="M27.7719 75.1803H24.9662V78.0037H27.7719V75.1803Z" fill="#F7FAF7"/>
<path d="M27.7719 72.3569H24.9662V75.1803H27.7719V72.3569Z" fill="#F7FAF7"/>
<path d="M27.7719 66.8197H24.9662V69.6431H27.7719V66.8197Z" fill="#F7FAF7"/>
<path d="M27.7719 63.9963H24.9662V66.8197H27.7719V63.9963Z" fill="#F7FAF7"/>
<path d="M27.7719 61.2823H24.9662V63.9963H27.7719V61.2823Z" fill="#F7FAF7"/>
<path d="M27.7719 52.9436H24.9662V55.6575H27.7719V52.9436Z" fill="#F7FAF7"/>
<path d="M27.7719 50.1202H24.9662V52.9436H27.7719V50.1202Z" fill="#F7FAF7"/>
<path d="M27.7719 33.3989H24.9662V36.2223H27.7719V33.3989Z" fill="#F7FAF7"/>
<path d="M27.7719 30.5974H24.9662V33.4208H27.7719V30.5974Z" fill="#F7FAF7"/>
<path d="M27.7719 27.8835H24.9662V30.5975H27.7719V27.8835Z" fill="#F7FAF7"/>
<path d="M27.7719 25.0601H24.9662V27.8834H27.7719V25.0601Z" fill="#F7FAF7"/>
<path d="M27.7719 22.2367H24.9662V25.0601H27.7719V22.2367Z" fill="#F7FAF7"/>
<path d="M24.9662 119.763H22.2043V122.587H24.9662V119.763Z" fill="#F7FAF7"/>
<path d="M24.9662 116.94H22.2043V119.763H24.9662V116.94Z" fill="#F7FAF7"/>
<path d="M24.9662 114.116H22.2043V116.94H24.9662V114.116Z" fill="#F7FAF7"/>
<path d="M24.9662 111.403H22.2043V114.117H24.9662V111.403Z" fill="#F7FAF7"/>
<path d="M24.9662 108.579H22.2043V111.403H24.9662V108.579Z" fill="#F7FAF7"/>
<path d="M24.9662 103.042H22.2043V105.756H24.9662V103.042Z" fill="#F7FAF7"/>
<path d="M24.9662 100.24H22.2043V103.064H24.9662V100.24Z" fill="#F7FAF7"/>
<path d="M24.9662 97.4171H22.2043V100.24H24.9662V97.4171Z" fill="#F7FAF7"/>
<path d="M24.9662 94.7031H22.2043V97.4171H24.9662V94.7031Z" fill="#F7FAF7"/>
<path d="M24.9662 91.8798H22.2043V94.7031H24.9662V91.8798Z" fill="#070100"/>
<path d="M24.9662 89.0564H22.2043V91.8797H24.9662V89.0564Z" fill="#070100"/>
<path d="M24.9662 86.3425H22.2043V89.0565H24.9662V86.3425Z" fill="#070100"/>
<path d="M24.9662 83.519H22.2043V86.3424H24.9662V83.519Z" fill="#070100"/>
<path d="M24.9662 80.7177H22.2043V83.541H24.9662V80.7177Z" fill="#070100"/>
<path d="M24.9662 77.9818H22.2043V80.6957H24.9662V77.9818Z" fill="#F7FAF7"/>
<path d="M24.9662 75.1803H22.2043V78.0037H24.9662V75.1803Z" fill="#F7FAF7"/>
<path d="M88.7957 72.3571H86.0338V75.1804H88.7957V72.3571Z" fill="#070100"/>
<path d="M86.0337 69.6431H83.2719V72.357H86.0337V69.6431Z" fill="#070100"/>
<path d="M83.2719 69.6431H80.4662V72.357H83.2719V69.6431Z" fill="#070100"/>
<path d="M80.4662 69.6431H77.7043V72.357H80.4662V69.6431Z" fill="#070100"/>
<path d="M77.7044 72.3571H74.9425V75.1804H77.7044V72.3571Z" fill="#070100"/>
<path d="M36.1013 72.3571H33.2957V75.1804H36.1013V72.3571Z" fill="#070100"/>
<path d="M33.2955 69.6431H30.5337V72.357H33.2955V69.6431Z" fill="#070100"/>
<path d="M30.5337 69.6431H27.7719V72.357H30.5337V69.6431Z" fill="#070100"/>
<path d="M27.7719 69.6431H24.9662V72.357H27.7719V69.6431Z" fill="#070100"/>
<path d="M24.9662 72.3571H22.2043V75.1804H24.9662V72.3571Z" fill="#070100"/>
<path d="M24.9662 69.6431H22.2043V72.357H24.9662V69.6431Z" fill="#F7FAF7"/>
<path d="M24.9662 66.8197H22.2043V69.6431H24.9662V66.8197Z" fill="#F7FAF7"/>
<path d="M24.9662 63.9963H22.2043V66.8197H24.9662V63.9963Z" fill="#F7FAF7"/>
<path d="M24.9662 61.2823H22.2043V63.9963H24.9662V61.2823Z" fill="#F7FAF7"/>
<path d="M24.9662 52.9436H22.2043V55.6575H24.9662V52.9436Z" fill="#F7FAF7"/>
<path d="M88.7957 44.583H86.0338V47.2969H88.7957V44.583Z" fill="#63DFDB"/>
<path d="M88.7957 41.7596H86.0338V44.583H88.7957V41.7596Z" fill="#63DFDB"/>
<path d="M88.7957 38.9363H86.0338V41.7596H88.7957V38.9363Z" fill="#63DFDB"/>
<path d="M88.7957 36.2223H86.0338V38.9362H88.7957V36.2223Z" fill="#63DFDB"/>
<path d="M24.9662 44.583H22.2043V47.2969H24.9662V44.583Z" fill="#63DFDB"/>
<path d="M24.9662 41.7596H22.2043V44.583H24.9662V41.7596Z" fill="#63DFDB"/>
<path d="M24.9662 38.9363H22.2043V41.7596H24.9662V38.9363Z" fill="#63DFDB"/>
<path d="M24.9662 36.2223H22.2043V38.9362H24.9662V36.2223Z" fill="#63DFDB"/>
<path d="M27.7719 47.2969H24.9662V50.1203H27.7719V47.2969Z" fill="#070100"/>
<path d="M27.7719 44.583H24.9662V47.2969H27.7719V44.583Z" fill="#070100"/>
<path d="M27.7719 41.7596H24.9662V44.583H27.7719V41.7596Z" fill="#070100"/>
<path d="M27.7719 38.9363H24.9662V41.7596H27.7719V38.9363Z" fill="#070100"/>
<path d="M27.7719 36.2223H24.9662V38.9362H27.7719V36.2223Z" fill="#070100"/>
<path d="M24.9662 50.1202H22.2043V52.9436H24.9662V50.1202Z" fill="#070100"/>
<path d="M24.9662 33.3989H22.2043V36.2223H24.9662V33.3989Z" fill="#070100"/>
<path d="M24.9662 30.5974H22.2043V33.4208H24.9662V30.5974Z" fill="#070100"/>
<path d="M24.9662 27.8835H22.2043V30.5975H24.9662V27.8835Z" fill="#070100"/>
<path d="M24.9662 25.0601H22.2043V27.8834H24.9662V25.0601Z" fill="#F7FAF7"/>
<path d="M24.9662 22.2367H22.2043V25.0601H24.9662V22.2367Z" fill="#F7FAF7"/>
<path d="M22.2043 119.763H19.4425V122.587H22.2043V119.763Z" fill="#F7FAF7"/>
<path d="M22.2043 116.94H19.4425V119.763H22.2043V116.94Z" fill="#F7FAF7"/>
<path d="M22.2043 114.116H19.4425V116.94H22.2043V114.116Z" fill="#F7FAF7"/>
<path d="M22.2043 111.403H19.4425V114.117H22.2043V111.403Z" fill="#F7FAF7"/>
<path d="M22.2043 108.579H19.4425V111.403H22.2043V108.579Z" fill="#F7FAF7"/>
<path d="M22.2043 103.042H19.4425V105.756H22.2043V103.042Z" fill="#F7FAF7"/>
<path d="M22.2043 100.24H19.4425V103.064H22.2043V100.24Z" fill="#F7FAF7"/>
<path d="M22.2043 97.4171H19.4425V100.24H22.2043V97.4171Z" fill="#F7FAF7"/>
<path d="M22.2043 94.7031H19.4425V97.4171H22.2043V94.7031Z" fill="#F7FAF7"/>
<path d="M22.2043 91.8798H19.4425V94.7031H22.2043V91.8798Z" fill="#F7FAF7"/>
<path d="M22.2043 89.0564H19.4425V91.8797H22.2043V89.0564Z" fill="#070100"/>
<path d="M22.2043 86.3425H19.4425V89.0565H22.2043V86.3425Z" fill="#070100"/>
<path d="M22.2043 83.519H19.4425V86.3424H22.2043V83.519Z" fill="#070100"/>
<path d="M22.2043 80.7177H19.4425V83.541H22.2043V80.7177Z" fill="#F7FAF7"/>
<path d="M22.2043 77.9818H19.4425V80.6957H22.2043V77.9818Z" fill="#F7FAF7"/>
<path d="M22.2043 75.1803H19.4425V78.0037H22.2043V75.1803Z" fill="#F7FAF7"/>
<path d="M22.2043 72.3569H19.4425V75.1803H22.2043V72.3569Z" fill="#F7FAF7"/>
<path d="M22.2043 69.6431H19.4425V72.357H22.2043V69.6431Z" fill="#F7FAF7"/>
<path d="M22.2043 66.8197H19.4425V69.6431H22.2043V66.8197Z" fill="#F7FAF7"/>
<path d="M22.2043 63.9963H19.4425V66.8197H22.2043V63.9963Z" fill="#F7FAF7"/>
<path d="M22.2043 61.2823H19.4425V63.9963H22.2043V61.2823Z" fill="#F7FAF7"/>
<path d="M22.2043 50.1202H19.4425V52.9436H22.2043V50.1202Z" fill="#F7FAF7"/>
<path d="M22.2043 47.2969H19.4425V50.1203H22.2043V47.2969Z" fill="#F7FAF7"/>
<path d="M91.5794 44.583H88.7737V47.2969H91.5794V44.583Z" fill="#2A9691"/>
<path d="M91.5794 41.7596H88.7737V44.583H91.5794V41.7596Z" fill="#2A9691"/>
<path d="M91.5794 38.9363H88.7737V41.7596H91.5794V38.9363Z" fill="#2A9691"/>
<path d="M91.5794 36.2223H88.7737V38.9362H91.5794V36.2223Z" fill="#2A9691"/>
<path d="M88.7955 47.2969H86.0337V50.1203H88.7955V47.2969Z" fill="#2A9691"/>
<path d="M24.9662 47.2969H22.2043V50.1203H24.9662V47.2969Z" fill="#2A9691"/>
<path d="M22.2043 44.583H19.4425V47.2969H22.2043V44.583Z" fill="#2A9691"/>
<path d="M22.2043 41.7596H19.4425V44.583H22.2043V41.7596Z" fill="#2A9691"/>
<path d="M22.2043 38.9363H19.4425V41.7596H22.2043V38.9363Z" fill="#2A9691"/>
<path d="M22.2043 36.2223H19.4425V38.9362H22.2043V36.2223Z" fill="#2A9691"/>
<path d="M22.2043 33.3989H19.4425V36.2223H22.2043V33.3989Z" fill="#F7FAF7"/>
<path d="M22.2043 30.5974H19.4425V33.4208H22.2043V30.5974Z" fill="#F7FAF7"/>
<path d="M22.2043 27.8835H19.4425V30.5975H22.2043V27.8835Z" fill="#F7FAF7"/>
<path d="M19.4425 119.763H16.6368V122.587H19.4425V119.763Z" fill="#F7FAF7"/>
<path d="M19.4425 116.94H16.6368V119.763H19.4425V116.94Z" fill="#F7FAF7"/>
<path d="M19.4425 114.116H16.6368V116.94H19.4425V114.116Z" fill="#F7FAF7"/>
<path d="M19.4425 111.403H16.6368V114.117H19.4425V111.403Z" fill="#F7FAF7"/>
<path d="M19.4425 108.579H16.6368V111.403H19.4425V108.579Z" fill="#F7FAF7"/>
<path d="M19.4425 103.042H16.6368V105.756H19.4425V103.042Z" fill="#F7FAF7"/>
<path d="M19.4425 100.24H16.6368V103.064H19.4425V100.24Z" fill="#F7FAF7"/>
<path d="M19.4425 97.4171H16.6368V100.24H19.4425V97.4171Z" fill="#F7FAF7"/>
<path d="M19.4425 94.7031H16.6368V97.4171H19.4425V94.7031Z" fill="#F7FAF7"/>
<path d="M19.4425 91.8798H16.6368V94.7031H19.4425V91.8798Z" fill="#F7FAF7"/>
<path d="M19.4425 89.0564H16.6368V91.8797H19.4425V89.0564Z" fill="#070100"/>
<path d="M19.4425 86.3425H16.6368V89.0565H19.4425V86.3425Z" fill="#070100"/>
<path d="M19.4425 83.519H16.6368V86.3424H19.4425V83.519Z" fill="#070100"/>
<path d="M19.4425 80.7177H16.6368V83.541H19.4425V80.7177Z" fill="#F7FAF7"/>
<path d="M19.4425 77.9818H16.6368V80.6957H19.4425V77.9818Z" fill="#F7FAF7"/>
<path d="M19.4425 75.1803H16.6368V78.0037H19.4425V75.1803Z" fill="#F7FAF7"/>
<path d="M19.4425 72.3569H16.6368V75.1803H19.4425V72.3569Z" fill="#F7FAF7"/>
<path d="M19.4425 44.5829H16.6368V47.2968H19.4425V44.5829Z" fill="#F7FAF7"/>
<path d="M19.4425 41.7595H16.6368V44.5829H19.4425V41.7595Z" fill="#F7FAF7"/>
<path d="M19.4425 38.9362H16.6368V41.7595H19.4425V38.9362Z" fill="#F7FAF7"/>
<path d="M19.4425 36.2223H16.6368V38.9362H19.4425V36.2223Z" fill="#F7FAF7"/>
<path d="M19.4425 33.3989H16.6368V36.2223H19.4425V33.3989Z" fill="#F7FAF7"/>
<path d="M16.6587 119.763H13.8969V122.587H16.6587V119.763Z" fill="#F7FAF7"/>
<path d="M16.6587 116.94H13.8969V119.763H16.6587V116.94Z" fill="#F7FAF7"/>
<path d="M16.6587 114.116H13.8969V116.94H16.6587V114.116Z" fill="#F7FAF7"/>
<path d="M16.6587 111.403H13.8969V114.117H16.6587V111.403Z" fill="#F7FAF7"/>
<path d="M16.6587 108.579H13.8969V111.403H16.6587V108.579Z" fill="#F7FAF7"/>
<path d="M16.6587 94.7031H13.8969V97.4171H16.6587V94.7031Z" fill="#F7FAF7"/>
<path d="M16.6587 91.8798H13.8969V94.7031H16.6587V91.8798Z" fill="#F7FAF7"/>
<path d="M16.6587 89.0564H13.8969V91.8797H16.6587V89.0564Z" fill="#F7FAF7"/>
<path d="M16.6587 86.3425H13.8969V89.0565H16.6587V86.3425Z" fill="#070100"/>
<path d="M16.6587 83.519H13.8969V86.3424H16.6587V83.519Z" fill="#070100"/>
<path d="M16.6587 80.7177H13.8969V83.541H16.6587V80.7177Z" fill="#F7FAF7"/>
<path d="M16.6587 77.9818H13.8969V80.6957H16.6587V77.9818Z" fill="#F7FAF7"/>
<path d="M33.2955 30.5974H30.5337V33.4208H33.2955V30.5974Z" fill="#070100"/>
<path d="M33.2955 27.8835H30.5337V30.5975H33.2955V27.8835Z" fill="#070100"/>
<path d="M30.5337 25.0602H27.7719V27.8835H30.5337V25.0602Z" fill="#070100"/>
<path d="M30.5337 22.2367H27.7719V25.0601H30.5337V22.2367Z" fill="#070100"/>
<path d="M27.7719 19.5228H24.9662V22.2368H27.7719V19.5228Z" fill="#070100"/>
<path d="M24.9662 19.5228H22.2043V22.2368H24.9662V19.5228Z" fill="#070100"/>
<path d="M22.2042 52.9436H19.4424V55.6575H22.2042V52.9436Z" fill="#070100"/>
<path d="M22.2042 25.0602H19.4424V27.8835H22.2042V25.0602Z" fill="#070100"/>
<path d="M22.2042 22.2367H19.4424V25.0601H22.2042V22.2367Z" fill="#070100"/>
<path d="M22.2042 19.5228H19.4424V22.2368H22.2042V19.5228Z" fill="#070100"/>
<path d="M19.4425 50.1202H16.6368V52.9436H19.4425V50.1202Z" fill="#070100"/>
<path d="M19.4425 47.2969H16.6368V50.1203H19.4425V47.2969Z" fill="#070100"/>
<path d="M19.4425 30.5974H16.6368V33.4208H19.4425V30.5974Z" fill="#070100"/>
<path d="M19.4425 27.8835H16.6368V30.5975H19.4425V27.8835Z" fill="#070100"/>
<path d="M16.6587 44.5829H13.8969V47.2968H16.6587V44.5829Z" fill="#070100"/>
<path d="M16.6587 41.7595H13.8969V44.5829H16.6587V41.7595Z" fill="#070100"/>
<path d="M16.6587 38.9362H13.8969V41.7595H16.6587V38.9362Z" fill="#070100"/>
<path d="M16.6587 36.2223H13.8969V38.9362H16.6587V36.2223Z" fill="#070100"/>
<path d="M16.6587 33.3989H13.8969V36.2223H16.6587V33.3989Z" fill="#070100"/>
<path d="M13.8969 119.763H11.135V122.587H13.8969V119.763Z" fill="#F7FAF7"/>
<path d="M13.8969 116.94H11.135V119.763H13.8969V116.94Z" fill="#F7FAF7"/>
<path d="M13.8969 114.116H11.135V116.94H13.8969V114.116Z" fill="#F7FAF7"/>
<path d="M13.8969 111.403H11.135V114.117H13.8969V111.403Z" fill="#F7FAF7"/>
<path d="M13.8969 108.579H11.135V111.403H13.8969V108.579Z" fill="#F7FAF7"/>
<path d="M11.135 119.763H8.32935V122.587H11.135V119.763Z" fill="#F7FAF7"/>
<path d="M11.135 116.94H8.32935V119.763H11.135V116.94Z" fill="#F7FAF7"/>
<path d="M11.135 114.116H8.32935V116.94H11.135V114.116Z" fill="#F7FAF7"/>
<path d="M11.135 111.403H8.32935V114.117H11.135V111.403Z" fill="#F7FAF7"/>
<path d="M11.135 108.579H8.32935V111.403H11.135V108.579Z" fill="#F7FAF7"/>
<path d="M8.32936 116.94H5.5675V119.763H8.32936V116.94Z" fill="#F7FAF7"/>
<path d="M8.32936 114.116H5.5675V116.94H8.32936V114.116Z" fill="#F7FAF7"/>
<path d="M8.32936 111.403H5.5675V114.117H8.32936V111.403Z" fill="#F7FAF7"/>
<path d="M5.56751 116.94H2.80566V119.763H5.56751V116.94Z" fill="#F7FAF7"/>
<path d="M33.2955 133.639H30.5337V136.463H33.2955V133.639Z" fill="#070100"/>
<path d="M33.2955 128.102H30.5337V130.925H33.2955V128.102Z" fill="#070100"/>
<path d="M33.2955 125.279H30.5337V128.102H33.2955V125.279Z" fill="#070100"/>
<path d="M33.2955 122.565H30.5337V125.279H33.2955V122.565Z" fill="#070100"/>
<path d="M33.2955 119.763H30.5337V122.587H33.2955V119.763Z" fill="#070100"/>
<path d="M33.2955 116.94H30.5337V119.763H33.2955V116.94Z" fill="#070100"/>
<path d="M30.5338 136.463H27.772V139.286H30.5338V136.463Z" fill="#070100"/>
<path d="M30.5338 119.763H27.772V122.587H30.5338V119.763Z" fill="#070100"/>
<path d="M27.7719 139.264H24.9662V141.978H27.7719V139.264Z" fill="#070100"/>
<path d="M27.7719 119.763H24.9662V122.587H27.7719V119.763Z" fill="#070100"/>
<path d="M24.9662 139.264H22.2043V141.978H24.9662V139.264Z" fill="#070100"/>
<path d="M24.9662 122.565H22.2043V125.279H24.9662V122.565Z" fill="#070100"/>
<path d="M22.2043 122.565H19.4425V125.279H22.2043V122.565Z" fill="#070100"/>
<path d="M19.4425 139.264H16.6368V141.978H19.4425V139.264Z" fill="#070100"/>
<path d="M19.4425 122.565H16.6368V125.279H19.4425V122.565Z" fill="#070100"/>
<path d="M16.6587 139.264H13.8969V141.978H16.6587V139.264Z" fill="#070100"/>
<path d="M16.6587 122.565H13.8969V125.279H16.6587V122.565Z" fill="#070100"/>
<path d="M13.8969 139.264H11.135V141.978H13.8969V139.264Z" fill="#070100"/>
<path d="M13.8969 122.565H11.135V125.279H13.8969V122.565Z" fill="#070100"/>
<path d="M11.135 122.565H8.32935V125.279H11.135V122.565Z" fill="#070100"/>
<path d="M8.32936 119.763H5.5675V122.587H8.32936V119.763Z" fill="#070100"/>
<path d="M5.56751 136.463H2.80566V139.286H5.56751V136.463Z" fill="#070100"/>
<path d="M5.56751 119.763H2.80566V122.587H5.56751V119.763Z" fill="#070100"/>
<path d="M2.80569 133.639H0V136.463H2.80569V133.639Z" fill="#070100"/>
<path d="M2.80569 130.925H0V133.639H2.80569V130.925Z" fill="#070100"/>
<path d="M2.80569 128.102H0V130.925H2.80569V128.102Z" fill="#070100"/>
<path d="M2.80569 125.279H0V128.102H2.80569V125.279Z" fill="#070100"/>
<path d="M2.80569 122.565H0V125.279H2.80569V122.565Z" fill="#070100"/>
<path d="M2.80569 119.763H0V122.587H2.80569V119.763Z" fill="#070100"/>
<path d="M2.80569 116.94H0V119.763H2.80569V116.94Z" fill="#070100"/>
<path d="M22.2043 139.264H19.4425V141.978H22.2043V139.264Z" fill="#070100"/>
<path d="M33.2955 130.925H30.5337V133.639H33.2955V130.925Z" fill="#070100"/>
<path d="M11.135 139.264H8.32935V141.978H11.135V139.264Z" fill="#070100"/>
<path d="M8.32936 139.264H5.5675V141.978H8.32936V139.264Z" fill="#070100"/>
<path d="M108.238 114.116H105.476V116.94H108.238V114.116Z" fill="#070100"/>
<path d="M108.238 111.403H105.476V114.117H108.238V111.403Z" fill="#070100"/>
<path d="M105.476 108.579H102.671V111.403H105.476V108.579Z" fill="#070100"/>
<path d="M102.671 105.756H99.9087V108.579H102.671V105.756Z" fill="#070100"/>
<path d="M99.9087 105.756H97.103V108.579H99.9087V105.756Z" fill="#070100"/>
<path d="M99.9087 94.7031H97.103V97.4171H99.9087V94.7031Z" fill="#070100"/>
<path d="M99.9087 91.8798H97.103V94.7031H99.9087V91.8798Z" fill="#070100"/>
<path d="M99.9087 89.0564H97.103V91.8797H99.9087V89.0564Z" fill="#070100"/>
<path d="M99.9087 86.3424H97.103V89.0564H99.9087V86.3424Z" fill="#070100"/>
<path d="M99.9087 83.519H97.103V86.3424H99.9087V83.519Z" fill="#070100"/>
<path d="M99.9087 80.7177H97.103V83.541H99.9087V80.7177Z" fill="#070100"/>
<path d="M99.9087 77.9818H97.103V80.6957H99.9087V77.9818Z" fill="#070100"/>
<path d="M97.103 105.756H94.3412V108.579H97.103V105.756Z" fill="#070100"/>
<path d="M97.103 103.042H94.3412V105.756H97.103V103.042Z" fill="#070100"/>
<path d="M97.103 100.24H94.3412V103.064H97.103V100.24Z" fill="#070100"/>
<path d="M97.103 97.4171H94.3412V100.24H97.103V97.4171Z" fill="#070100"/>
<path d="M97.103 75.1803H94.3412V78.0037H97.103V75.1803Z" fill="#070100"/>
<path d="M97.103 72.3569H94.3412V75.1803H97.103V72.3569Z" fill="#070100"/>
<path d="M97.103 69.6431H94.3412V72.357H97.103V69.6431Z" fill="#070100"/>
<path d="M94.3412 105.756H91.5793V108.579H94.3412V105.756Z" fill="#070100"/>
<path d="M94.3412 66.8196H91.5793V69.643H94.3412V66.8196Z" fill="#070100"/>
<path d="M94.3412 63.9962H91.5793V66.8196H94.3412V63.9962Z" fill="#070100"/>
<path d="M94.3412 61.2823H91.5793V63.9963H94.3412V61.2823Z" fill="#070100"/>
<path d="M91.5794 105.756H88.7737V108.579H91.5794V105.756Z" fill="#070100"/>
<path d="M88.7957 105.756H86.0338V108.579H88.7957V105.756Z" fill="#070100"/>
<path d="M86.0337 108.579H83.2719V111.403H86.0337V108.579Z" fill="#070100"/>
<path d="M83.272 114.116H80.4663V116.94H83.272V114.116Z" fill="#070100"/>
<path d="M83.272 111.403H80.4663V114.117H83.272V111.403Z" fill="#070100"/>
<path d="M77.7044 119.763H74.9425V122.587H77.7044V119.763Z" fill="#070100"/>
<path d="M77.7044 116.94H74.9425V119.763H77.7044V116.94Z" fill="#070100"/>
<path d="M77.7044 114.116H74.9425V116.94H77.7044V114.116Z" fill="#070100"/>
<path d="M77.7044 111.403H74.9425V114.117H77.7044V111.403Z" fill="#070100"/>
<path d="M74.9425 125.279H72.1368V128.102H74.9425V125.279Z" fill="#070100"/>
<path d="M74.9425 122.565H72.1368V125.279H74.9425V122.565Z" fill="#070100"/>
<path d="M74.9425 108.579H72.1368V111.403H74.9425V108.579Z" fill="#070100"/>
<path d="M72.1368 128.102H69.375V130.925H72.1368V128.102Z" fill="#070100"/>
<path d="M72.1368 105.756H69.375V108.579H72.1368V105.756Z" fill="#070100"/>
<path d="M69.375 128.102H66.6132V130.925H69.375V128.102Z" fill="#070100"/>
<path d="M66.6132 130.925H63.8075V133.639H66.6132V130.925Z" fill="#070100"/>
<path d="M63.8293 130.925H61.0675V133.639H63.8293V130.925Z" fill="#070100"/>
<path d="M61.0675 130.925H58.3057V133.639H61.0675V130.925Z" fill="#070100"/>
<path d="M58.3057 130.925H55.5V133.639H58.3057V130.925Z" fill="#070100"/>
<path d="M55.5 130.925H52.7382V133.639H55.5V130.925Z" fill="#070100"/>
<path d="M52.7382 130.925H49.9325V133.639H52.7382V130.925Z" fill="#070100"/>
<path d="M49.9325 130.925H47.1707V133.639H49.9325V130.925Z" fill="#070100"/>
<path d="M47.1707 130.925H44.4088V133.639H47.1707V130.925Z" fill="#070100"/>
<path d="M44.4087 128.102H41.603V130.925H44.4087V128.102Z" fill="#070100"/>
<path d="M41.6032 128.102H38.8413V130.925H41.6032V128.102Z" fill="#070100"/>
<path d="M41.6032 105.756H38.8413V108.579H41.6032V105.756Z" fill="#070100"/>
<path d="M38.8632 125.279H36.1013V128.102H38.8632V125.279Z" fill="#070100"/>
<path d="M38.8632 122.565H36.1013V125.279H38.8632V122.565Z" fill="#070100"/>
<path d="M38.8632 108.579H36.1013V111.403H38.8632V108.579Z" fill="#070100"/>
<path d="M36.1013 119.763H33.2957V122.587H36.1013V119.763Z" fill="#070100"/>
<path d="M36.1013 116.94H33.2957V119.763H36.1013V116.94Z" fill="#070100"/>
<path d="M36.1013 114.116H33.2957V116.94H36.1013V114.116Z" fill="#070100"/>
<path d="M36.1013 111.403H33.2957V114.117H36.1013V111.403Z" fill="#070100"/>
<path d="M33.2955 114.116H30.5337V116.94H33.2955V114.116Z" fill="#070100"/>
<path d="M30.5338 114.116H27.772V116.94H30.5338V114.116Z" fill="#070100"/>
<path d="M30.5338 111.403H27.772V114.117H30.5338V111.403Z" fill="#070100"/>
<path d="M27.7719 108.579H24.9662V111.403H27.7719V108.579Z" fill="#070100"/>
<path d="M24.9662 105.756H22.2043V108.579H24.9662V105.756Z" fill="#070100"/>
<path d="M22.2043 105.756H19.4425V108.579H22.2043V105.756Z" fill="#070100"/>
<path d="M19.4425 105.756H16.6368V108.579H19.4425V105.756Z" fill="#070100"/>
<path d="M19.4425 69.6431H16.6368V72.357H19.4425V69.6431Z" fill="#070100"/>
<path d="M19.4425 66.8196H16.6368V69.643H19.4425V66.8196Z" fill="#070100"/>
<path d="M19.4425 63.9962H16.6368V66.8196H19.4425V63.9962Z" fill="#070100"/>
<path d="M19.4425 61.2823H16.6368V63.9963H19.4425V61.2823Z" fill="#070100"/>
<path d="M16.6587 105.756H13.8969V108.579H16.6587V105.756Z" fill="#070100"/>
<path d="M16.6587 103.042H13.8969V105.756H16.6587V103.042Z" fill="#070100"/>
<path d="M16.6587 100.24H13.8969V103.064H16.6587V100.24Z" fill="#070100"/>
<path d="M16.6587 97.4171H13.8969V100.24H16.6587V97.4171Z" fill="#070100"/>
<path d="M16.6587 75.1803H13.8969V78.0037H16.6587V75.1803Z" fill="#070100"/>
<path d="M16.6587 72.3569H13.8969V75.1803H16.6587V72.3569Z" fill="#070100"/>
<path d="M13.8969 105.756H11.135V108.579H13.8969V105.756Z" fill="#070100"/>
<path d="M13.8969 94.7031H11.135V97.4171H13.8969V94.7031Z" fill="#070100"/>
<path d="M13.8969 91.8798H11.135V94.7031H13.8969V91.8798Z" fill="#070100"/>
<path d="M13.8969 89.0564H11.135V91.8797H13.8969V89.0564Z" fill="#070100"/>
<path d="M13.8969 86.3424H11.135V89.0564H13.8969V86.3424Z" fill="#070100"/>
<path d="M13.8969 83.519H11.135V86.3424H13.8969V83.519Z" fill="#070100"/>
<path d="M13.8969 80.7177H11.135V83.541H13.8969V80.7177Z" fill="#070100"/>
<path d="M13.8969 77.9818H11.135V80.6957H13.8969V77.9818Z" fill="#070100"/>
<path d="M11.135 105.756H8.32935V108.579H11.135V105.756Z" fill="#070100"/>
<path d="M8.32936 108.579H5.5675V111.403H8.32936V108.579Z" fill="#070100"/>
<path d="M5.56751 114.116H2.80566V116.94H5.56751V114.116Z" fill="#070100"/>
<path d="M5.56751 111.403H2.80566V114.117H5.56751V111.403Z" fill="#070100"/>
<path d="M2.80569 114.116H0V116.94H2.80569V114.116Z" fill="#070100"/>
<path d="M30.5337 133.639H27.7719V136.463H30.5337V133.639Z" fill="#63DFDB"/>
<path d="M30.5337 128.102H27.7719V130.925H30.5337V128.102Z" fill="#63DFDB"/>
<path d="M30.5337 125.279H27.7719V128.102H30.5337V125.279Z" fill="#63DFDB"/>
<path d="M30.5337 122.565H27.7719V125.279H30.5337V122.565Z" fill="#63DFDB"/>
<path d="M27.7719 136.463H24.9662V139.286H27.7719V136.463Z" fill="#63DFDB"/>
<path d="M27.7719 133.639H24.9662V136.463H27.7719V133.639Z" fill="#63DFDB"/>
<path d="M27.7719 130.925H24.9662V133.639H27.7719V130.925Z" fill="#63DFDB"/>
<path d="M27.7719 128.102H24.9662V130.925H27.7719V128.102Z" fill="#63DFDB"/>
<path d="M27.7719 125.279H24.9662V128.102H27.7719V125.279Z" fill="#63DFDB"/>
<path d="M27.7719 122.565H24.9662V125.279H27.7719V122.565Z" fill="#63DFDB"/>
<path d="M24.9662 136.463H22.2043V139.286H24.9662V136.463Z" fill="#63DFDB"/>
<path d="M24.9662 133.639H22.2043V136.463H24.9662V133.639Z" fill="#63DFDB"/>
<path d="M24.9662 130.925H22.2043V133.639H24.9662V130.925Z" fill="#63DFDB"/>
<path d="M24.9662 128.102H22.2043V130.925H24.9662V128.102Z" fill="#63DFDB"/>
<path d="M24.9662 125.279H22.2043V128.102H24.9662V125.279Z" fill="#63DFDB"/>
<path d="M22.2044 136.463H19.4425V139.286H22.2044V136.463Z" fill="#63DFDB"/>
<path d="M22.2044 133.639H19.4425V136.463H22.2044V133.639Z" fill="#63DFDB"/>
<path d="M22.2044 130.925H19.4425V133.639H22.2044V130.925Z" fill="#63DFDB"/>
<path d="M22.2044 128.102H19.4425V130.925H22.2044V128.102Z" fill="#63DFDB"/>
<path d="M22.2044 125.279H19.4425V128.102H22.2044V125.279Z" fill="#63DFDB"/>
<path d="M19.4425 136.463H16.6368V139.286H19.4425V136.463Z" fill="#63DFDB"/>
<path d="M19.4425 133.639H16.6368V136.463H19.4425V133.639Z" fill="#63DFDB"/>
<path d="M19.4425 130.925H16.6368V133.639H19.4425V130.925Z" fill="#63DFDB"/>
<path d="M19.4425 128.102H16.6368V130.925H19.4425V128.102Z" fill="#63DFDB"/>
<path d="M19.4425 125.279H16.6368V128.102H19.4425V125.279Z" fill="#63DFDB"/>
<path d="M16.6588 136.463H13.897V139.286H16.6588V136.463Z" fill="#63DFDB"/>
<path d="M16.6588 133.639H13.897V136.463H16.6588V133.639Z" fill="#63DFDB"/>
<path d="M16.6588 130.925H13.897V133.639H16.6588V130.925Z" fill="#63DFDB"/>
<path d="M16.6588 128.102H13.897V130.925H16.6588V128.102Z" fill="#63DFDB"/>
<path d="M16.6588 125.279H13.897V128.102H16.6588V125.279Z" fill="#63DFDB"/>
<path d="M13.8969 136.463H11.135V139.286H13.8969V136.463Z" fill="#63DFDB"/>
<path d="M13.8969 133.639H11.135V136.463H13.8969V133.639Z" fill="#63DFDB"/>
<path d="M13.8969 130.925H11.135V133.639H13.8969V130.925Z" fill="#63DFDB"/>
<path d="M13.8969 128.102H11.135V130.925H13.8969V128.102Z" fill="#63DFDB"/>
<path d="M13.8969 125.279H11.135V128.102H13.8969V125.279Z" fill="#63DFDB"/>
<path d="M11.1352 136.463H8.32947V139.286H11.1352V136.463Z" fill="#63DFDB"/>
<path d="M11.1352 133.639H8.32947V136.463H11.1352V133.639Z" fill="#63DFDB"/>
<path d="M11.1352 130.925H8.32947V133.639H11.1352V130.925Z" fill="#63DFDB"/>
<path d="M11.1352 128.102H8.32947V130.925H11.1352V128.102Z" fill="#63DFDB"/>
<path d="M11.1352 125.279H8.32947V128.102H11.1352V125.279Z" fill="#63DFDB"/>
<path d="M8.32936 136.463H5.5675V139.286H8.32936V136.463Z" fill="#63DFDB"/>
<path d="M8.32936 133.639H5.5675V136.463H8.32936V133.639Z" fill="#63DFDB"/>
<path d="M8.32936 130.925H5.5675V133.639H8.32936V130.925Z" fill="#63DFDB"/>
<path d="M8.32936 128.102H5.5675V130.925H8.32936V128.102Z" fill="#63DFDB"/>
<path d="M8.32936 125.279H5.5675V128.102H8.32936V125.279Z" fill="#63DFDB"/>
<path d="M8.32936 122.565H5.5675V125.279H8.32936V122.565Z" fill="#63DFDB"/>
<path d="M5.56751 133.639H2.80566V136.463H5.56751V133.639Z" fill="#63DFDB"/>
<path d="M5.56751 130.925H2.80566V133.639H5.56751V130.925Z" fill="#63DFDB"/>
<path d="M5.56751 128.102H2.80566V130.925H5.56751V128.102Z" fill="#63DFDB"/>
<path d="M5.56751 125.279H2.80566V128.102H5.56751V125.279Z" fill="#63DFDB"/>
<path d="M5.56751 122.565H2.80566V125.279H5.56751V122.565Z" fill="#63DFDB"/>
<path d="M30.5337 130.925H27.7719V133.639H30.5337V130.925Z" fill="#63DFDB"/>
<path d="M111 133.639H108.238V136.463H111V133.639Z" fill="#070100"/>
<path d="M111 128.102H108.238V130.925H111V128.102Z" fill="#070100"/>
<path d="M111 125.279H108.238V128.102H111V125.279Z" fill="#070100"/>
<path d="M111 122.565H108.238V125.279H111V122.565Z" fill="#070100"/>
<path d="M111 119.763H108.238V122.587H111V119.763Z" fill="#070100"/>
<path d="M111 116.94H108.238V119.763H111V116.94Z" fill="#070100"/>
<path d="M108.238 136.463H105.476V139.286H108.238V136.463Z" fill="#070100"/>
<path d="M108.238 119.763H105.476V122.587H108.238V119.763Z" fill="#070100"/>
<path d="M105.476 139.264H102.671V141.978H105.476V139.264Z" fill="#070100"/>
<path d="M105.476 122.565H102.671V125.279H105.476V122.565Z" fill="#070100"/>
<path d="M102.671 139.264H99.9087V141.978H102.671V139.264Z" fill="#070100"/>
<path d="M102.671 122.565H99.9087V125.279H102.671V122.565Z" fill="#070100"/>
<path d="M99.9087 139.264H97.103V141.978H99.9087V139.264Z" fill="#070100"/>
<path d="M99.9087 122.565H97.103V125.279H99.9087V122.565Z" fill="#070100"/>
<path d="M97.103 139.264H94.3412V141.978H97.103V139.264Z" fill="#070100"/>
<path d="M97.103 122.565H94.3412V125.279H97.103V122.565Z" fill="#070100"/>
<path d="M94.3412 139.264H91.5793V141.978H94.3412V139.264Z" fill="#070100"/>
<path d="M94.3412 122.565H91.5793V125.279H94.3412V122.565Z" fill="#070100"/>
<path d="M91.5794 139.264H88.7737V141.978H91.5794V139.264Z" fill="#070100"/>
<path d="M91.5794 122.565H88.7737V125.279H91.5794V122.565Z" fill="#070100"/>
<path d="M88.7955 139.264H86.0337V141.978H88.7955V139.264Z" fill="#070100"/>
<path d="M88.7955 122.565H86.0337V125.279H88.7955V122.565Z" fill="#070100"/>
<path d="M86.0337 139.264H83.2719V141.978H86.0337V139.264Z" fill="#070100"/>
<path d="M86.0337 122.565H83.2719V125.279H86.0337V122.565Z" fill="#070100"/>
<path d="M83.2719 136.463H80.4662V139.286H83.2719V136.463Z" fill="#070100"/>
<path d="M83.2719 119.763H80.4662V122.587H83.2719V119.763Z" fill="#070100"/>
<path d="M80.4662 133.639H77.7043V136.463H80.4662V133.639Z" fill="#070100"/>
<path d="M80.4662 130.925H77.7043V133.639H80.4662V130.925Z" fill="#070100"/>
<path d="M80.4662 128.102H77.7043V130.925H80.4662V128.102Z" fill="#070100"/>
<path d="M80.4662 125.279H77.7043V128.102H80.4662V125.279Z" fill="#070100"/>
<path d="M80.4662 122.565H77.7043V125.279H80.4662V122.565Z" fill="#070100"/>
<path d="M80.4662 119.763H77.7043V122.587H80.4662V119.763Z" fill="#070100"/>
<path d="M80.4662 116.94H77.7043V119.763H80.4662V116.94Z" fill="#070100"/>
<path d="M111 130.925H108.238V133.639H111V130.925Z" fill="#070100"/>
<path d="M108.216 133.639H105.454V136.463H108.216V133.639Z" fill="#63DFDB"/>
<path d="M108.216 130.925H105.454V133.639H108.216V130.925Z" fill="#63DFDB"/>
<path d="M108.216 128.102H105.454V130.925H108.216V128.102Z" fill="#63DFDB"/>
<path d="M108.216 125.279H105.454V128.102H108.216V125.279Z" fill="#63DFDB"/>
<path d="M108.216 122.565H105.454V125.279H108.216V122.565Z" fill="#63DFDB"/>
<path d="M105.476 136.463H102.649V139.286H105.476V136.463Z" fill="#63DFDB"/>
<path d="M105.476 133.639H102.649V136.463H105.476V133.639Z" fill="#63DFDB"/>
<path d="M105.476 130.925H102.649V133.639H105.476V130.925Z" fill="#63DFDB"/>
<path d="M105.476 128.102H102.649V130.925H105.476V128.102Z" fill="#63DFDB"/>
<path d="M105.476 125.279H102.649V128.102H105.476V125.279Z" fill="#63DFDB"/>
<path d="M102.649 136.463H99.8868V139.286H102.649V136.463Z" fill="#63DFDB"/>
<path d="M102.649 133.639H99.8868V136.463H102.649V133.639Z" fill="#63DFDB"/>
<path d="M102.649 130.925H99.8868V133.639H102.649V130.925Z" fill="#63DFDB"/>
<path d="M102.649 128.102H99.8868V130.925H102.649V128.102Z" fill="#63DFDB"/>
<path d="M102.649 125.279H99.8868V128.102H102.649V125.279Z" fill="#63DFDB"/>
<path d="M99.8649 136.463H97.0592V139.286H99.8649V136.463Z" fill="#63DFDB"/>
<path d="M99.8649 133.639H97.0592V136.463H99.8649V133.639Z" fill="#63DFDB"/>
<path d="M99.8649 130.925H97.0592V133.639H99.8649V130.925Z" fill="#63DFDB"/>
<path d="M99.8649 128.102H97.0592V130.925H99.8649V128.102Z" fill="#63DFDB"/>
<path d="M99.8649 125.279H97.0592V128.102H99.8649V125.279Z" fill="#63DFDB"/>
<path d="M97.0592 136.463H94.2974V139.286H97.0592V136.463Z" fill="#63DFDB"/>
<path d="M97.0592 133.639H94.2974V136.463H97.0592V133.639Z" fill="#63DFDB"/>
<path d="M97.0592 130.925H94.2974V133.639H97.0592V130.925Z" fill="#63DFDB"/>
<path d="M97.0592 128.102H94.2974V130.925H97.0592V128.102Z" fill="#63DFDB"/>
<path d="M97.0592 125.279H94.2974V128.102H97.0592V125.279Z" fill="#63DFDB"/>
<path d="M94.2974 136.463H91.5355V139.286H94.2974V136.463Z" fill="#63DFDB"/>
<path d="M94.2974 133.639H91.5355V136.463H94.2974V133.639Z" fill="#63DFDB"/>
<path d="M94.2974 130.925H91.5355V133.639H94.2974V130.925Z" fill="#63DFDB"/>
<path d="M94.2974 128.102H91.5355V130.925H94.2974V128.102Z" fill="#63DFDB"/>
<path d="M94.2974 125.279H91.5355V128.102H94.2974V125.279Z" fill="#63DFDB"/>
<path d="M91.5356 136.463H88.708V139.286H91.5356V136.463Z" fill="#63DFDB"/>
<path d="M91.5356 133.639H88.708V136.463H91.5356V133.639Z" fill="#63DFDB"/>
<path d="M91.5356 130.925H88.708V133.639H91.5356V130.925Z" fill="#63DFDB"/>
<path d="M91.5356 128.102H88.708V130.925H91.5356V128.102Z" fill="#63DFDB"/>
<path d="M91.5356 125.279H88.708V128.102H91.5356V125.279Z" fill="#63DFDB"/>
<path d="M88.7079 136.463H85.946V139.286H88.7079V136.463Z" fill="#63DFDB"/>
<path d="M88.7079 133.639H85.946V136.463H88.7079V133.639Z" fill="#63DFDB"/>
<path d="M88.7079 130.925H85.946V133.639H88.7079V130.925Z" fill="#63DFDB"/>
<path d="M88.7079 128.102H85.946V130.925H88.7079V128.102Z" fill="#63DFDB"/>
<path d="M88.8175 125.279H86.0557V128.102H88.8175V125.279Z" fill="#63DFDB"/>
<path d="M86.0557 136.463H83.2938V139.286H86.0557V136.463Z" fill="#63DFDB"/>
<path d="M86.0557 133.639H83.2938V136.463H86.0557V133.639Z" fill="#63DFDB"/>
<path d="M86.0557 130.925H83.2938V133.639H86.0557V130.925Z" fill="#63DFDB"/>
<path d="M86.0557 128.102H83.2938V130.925H86.0557V128.102Z" fill="#63DFDB"/>
<path d="M86.0557 125.279H83.2938V128.102H86.0557V125.279Z" fill="#63DFDB"/>
<path d="M83.2939 133.639H80.4882V136.463H83.2939V133.639Z" fill="#63DFDB"/>
<path d="M83.2939 130.925H80.4882V133.639H83.2939V130.925Z" fill="#63DFDB"/>
<path d="M83.2939 128.102H80.4882V130.925H83.2939V128.102Z" fill="#63DFDB"/>
<path d="M83.2939 125.279H80.4882V128.102H83.2939V125.279Z" fill="#63DFDB"/>
<path d="M83.2939 122.565H80.4882V125.279H83.2939V122.565Z" fill="#63DFDB"/>
<path d="M52.7382 44.5829H49.9325V47.2968H52.7382V44.5829Z" fill="#63DFDB"/>
<path d="M52.7382 41.7595H49.9325V44.5829H52.7382V41.7595Z" fill="#63DFDB"/>
<path d="M49.9325 47.2969H47.1707V50.1203H49.9325V47.2969Z" fill="#63DFDB"/>
<path d="M49.9325 44.5829H47.1707V47.2968H49.9325V44.5829Z" fill="#63DFDB"/>
<path d="M49.9325 41.7595H47.1707V44.5829H49.9325V41.7595Z" fill="#63DFDB"/>
<path d="M49.9325 38.9362H47.1707V41.7595H49.9325V38.9362Z" fill="#63DFDB"/>
<path d="M47.1707 52.9436H44.4088V55.6575H47.1707V52.9436Z" fill="#63DFDB"/>
<path d="M47.1707 50.1202H44.4088V52.9436H47.1707V50.1202Z" fill="#63DFDB"/>
<path d="M47.1707 47.2969H44.4088V50.1203H47.1707V47.2969Z" fill="#63DFDB"/>
<path d="M47.1707 44.5829H44.4088V47.2968H47.1707V44.5829Z" fill="#63DFDB"/>
<path d="M47.1707 41.7595H44.4088V44.5829H47.1707V41.7595Z" fill="#63DFDB"/>
<path d="M47.1707 38.9362H44.4088V41.7595H47.1707V38.9362Z" fill="#63DFDB"/>
<path d="M47.1707 36.2223H44.4088V38.9362H47.1707V36.2223Z" fill="#63DFDB"/>
<path d="M47.1707 33.3989H44.4088V36.2223H47.1707V33.3989Z" fill="#63DFDB"/>
<path d="M47.1707 30.5974H44.4088V33.4208H47.1707V30.5974Z" fill="#63DFDB"/>
<path d="M44.4088 55.6575H41.6031V58.4808H44.4088V55.6575Z" fill="#63DFDB"/>
<path d="M44.4088 52.9436H41.6031V55.6575H44.4088V52.9436Z" fill="#63DFDB"/>
<path d="M44.4088 50.1202H41.6031V52.9436H44.4088V50.1202Z" fill="#63DFDB"/>
<path d="M44.4088 47.2969H41.6031V50.1203H44.4088V47.2969Z" fill="#63DFDB"/>
<path d="M44.4088 44.5829H41.6031V47.2968H44.4088V44.5829Z" fill="#63DFDB"/>
<path d="M44.4088 41.7595H41.6031V44.5829H44.4088V41.7595Z" fill="#63DFDB"/>
<path d="M44.4088 38.9362H41.6031V41.7595H44.4088V38.9362Z" fill="#63DFDB"/>
<path d="M44.4088 36.2223H41.6031V38.9362H44.4088V36.2223Z" fill="#63DFDB"/>
<path d="M44.4088 33.3989H41.6031V36.2223H44.4088V33.3989Z" fill="#63DFDB"/>
<path d="M44.4088 30.5974H41.6031V33.4208H44.4088V30.5974Z" fill="#63DFDB"/>
<path d="M41.6031 55.6575H38.8413V58.4808H41.6031V55.6575Z" fill="#63DFDB"/>
<path d="M41.6031 52.9436H38.8413V55.6575H41.6031V52.9436Z" fill="#63DFDB"/>
<path d="M41.6031 50.1202H38.8413V52.9436H41.6031V50.1202Z" fill="#63DFDB"/>
<path d="M41.6031 47.2969H38.8413V50.1203H41.6031V47.2969Z" fill="#63DFDB"/>
<path d="M41.6031 44.5829H38.8413V47.2968H41.6031V44.5829Z" fill="#63DFDB"/>
<path d="M41.6031 41.7595H38.8413V44.5829H41.6031V41.7595Z" fill="#63DFDB"/>
<path d="M41.6031 38.9362H38.8413V41.7595H41.6031V38.9362Z" fill="#63DFDB"/>
<path d="M41.6031 36.2223H38.8413V38.9362H41.6031V36.2223Z" fill="#63DFDB"/>
<path d="M41.6031 33.3989H38.8413V36.2223H41.6031V33.3989Z" fill="#63DFDB"/>
<path d="M38.8632 58.459H36.1013V61.2824H38.8632V58.459Z" fill="#63DFDB"/>
<path d="M38.8632 55.6575H36.1013V58.4808H38.8632V55.6575Z" fill="#63DFDB"/>
<path d="M38.8632 52.9436H36.1013V55.6575H38.8632V52.9436Z" fill="#63DFDB"/>
<path d="M38.8632 50.1202H36.1013V52.9436H38.8632V50.1202Z" fill="#63DFDB"/>
<path d="M38.8632 41.7595H36.1013V44.5829H38.8632V41.7595Z" fill="#63DFDB"/>
<path d="M38.8632 38.9362H36.1013V41.7595H38.8632V38.9362Z" fill="#63DFDB"/>
<path d="M38.8632 36.2223H36.1013V38.9362H38.8632V36.2223Z" fill="#63DFDB"/>
<path d="M38.8632 33.3989H36.1013V36.2223H38.8632V33.3989Z" fill="#63DFDB"/>
<path d="M36.1015 58.459H33.2958V61.2824H36.1015V58.459Z" fill="#63DFDB"/>
<path d="M36.1015 55.6575H33.2958V58.4808H36.1015V55.6575Z" fill="#63DFDB"/>
<path d="M36.1015 38.9362H33.2958V41.7595H36.1015V38.9362Z" fill="#63DFDB"/>
<path d="M36.1015 36.2223H33.2958V38.9362H36.1015V36.2223Z" fill="#63DFDB"/>
<path d="M33.2957 58.459H30.5338V61.2824H33.2957V58.459Z" fill="#63DFDB"/>
<path d="M33.2957 55.6575H30.5338V58.4808H33.2957V55.6575Z" fill="#63DFDB"/>
<path d="M30.5338 58.459H27.772V61.2824H30.5338V58.459Z" fill="#63DFDB"/>
<path d="M30.5338 55.6575H27.772V58.4808H30.5338V55.6575Z" fill="#070100"/>
<path d="M36.1015 52.9436H33.2958V55.6575H36.1015V52.9436Z" fill="#63DFDB"/>
<path d="M55.5 44.583H52.7382V47.2969H55.5V44.583Z" fill="#070100"/>
<path d="M55.5 41.7596H52.7382V44.583H55.5V41.7596Z" fill="#070100"/>
<path d="M52.7382 47.2969H49.9325V50.1203H52.7382V47.2969Z" fill="#070100"/>
<path d="M49.9324 52.9436H47.1705V55.6575H49.9324V52.9436Z" fill="#070100"/>
<path d="M49.9324 50.1202H47.1705V52.9436H49.9324V50.1202Z" fill="#070100"/>
<path d="M47.1705 58.4591H44.4087V61.2824H47.1705V58.4591Z" fill="#070100"/>
<path d="M47.1705 55.6576H44.4087V58.481H47.1705V55.6576Z" fill="#070100"/>
<path d="M47.1705 27.8835H44.4087V30.5975H47.1705V27.8835Z" fill="#070100"/>
<path d="M44.4087 58.4591H41.603V61.2824H44.4087V58.4591Z" fill="#070100"/>
<path d="M44.4087 27.8835H41.603V30.5975H44.4087V27.8835Z" fill="#070100"/>
<path d="M41.603 58.4591H38.8412V61.2824H41.603V58.4591Z" fill="#070100"/>
<path d="M41.603 30.5974H38.8412V33.4208H41.603V30.5974Z" fill="#070100"/>
<path d="M38.8632 61.2823H36.1013V63.9963H38.8632V61.2823Z" fill="#070100"/>
<path d="M38.8632 47.2969H36.1013V50.1203H38.8632V47.2969Z" fill="#070100"/>
<path d="M38.8632 44.583H36.1013V47.2969H38.8632V44.583Z" fill="#070100"/>
<path d="M38.8632 30.5974H36.1013V33.4208H38.8632V30.5974Z" fill="#070100"/>
<path d="M36.1013 61.2823H33.2957V63.9963H36.1013V61.2823Z" fill="#070100"/>
<path d="M36.1013 50.1202H33.2957V52.9436H36.1013V50.1202Z" fill="#070100"/>
<path d="M36.1013 41.7596H33.2957V44.583H36.1013V41.7596Z" fill="#070100"/>
<path d="M36.1013 33.3989H33.2957V36.2223H36.1013V33.3989Z" fill="#070100"/>
<path d="M33.2957 61.2823H30.5338V63.9963H33.2957V61.2823Z" fill="#070100"/>
<path d="M33.2957 38.9363H30.5338V41.7596H33.2957V38.9363Z" fill="#070100"/>
<path d="M33.2957 36.2223H30.5338V38.9362H33.2957V36.2223Z" fill="#070100"/>
<path d="M30.5337 61.2823H27.7719V63.9963H30.5337V61.2823Z" fill="#070100"/>
<path d="M30.5337 52.9436H27.7719V55.6575H30.5337V52.9436Z" fill="#F7FAF7"/>
<path d="M27.772 58.4591H24.9663V61.2824H27.772V58.4591Z" fill="#070100"/>
<path d="M27.772 55.6576H24.9663V58.481H27.772V55.6576Z" fill="#F7FAF7"/>
<path d="M24.9662 58.4591H22.2043V61.2824H24.9662V58.4591Z" fill="#F7FAF7"/>
<path d="M24.9662 55.6576H22.2043V58.481H24.9662V55.6576Z" fill="#F7FAF7"/>
<path d="M22.2043 58.4591H19.4425V61.2824H22.2043V58.4591Z" fill="#070100"/>
<path d="M22.2043 55.6576H19.4425V58.481H22.2043V55.6576Z" fill="#070100"/>
<path d="M33.2957 52.9436H30.5338V55.6575H33.2957V52.9436Z" fill="#070100"/>
<path d="M80.4663 44.5829H77.7045V47.2968H80.4663V44.5829Z" fill="#070100"/>
<path d="M80.4663 41.7595H77.7045V44.5829H80.4663V41.7595Z" fill="#070100"/>
<path d="M80.4663 38.9362H77.7045V41.7595H80.4663V38.9362Z" fill="#070100"/>
<path d="M77.7044 47.2969H74.9425V50.1203H77.7044V47.2969Z" fill="#070100"/>
<path d="M77.7044 36.2223H74.9425V38.9362H77.7044V36.2223Z" fill="#070100"/>
<path d="M74.9425 50.1202H72.1368V52.9436H74.9425V50.1202Z" fill="#070100"/>
<path d="M74.9425 33.3989H72.1368V36.2223H74.9425V33.3989Z" fill="#070100"/>
<path d="M72.1368 52.9436H69.375V55.6575H72.1368V52.9436Z" fill="#070100"/>
<path d="M72.1368 33.3989H69.375V36.2223H72.1368V33.3989Z" fill="#070100"/>
<path d="M69.375 61.2823H66.6132V63.9963H69.375V61.2823Z" fill="#070100"/>
<path d="M69.375 58.459H66.6132V61.2824H69.375V58.459Z" fill="#070100"/>
<path d="M69.375 30.5974H66.6132V33.4208H69.375V30.5974Z" fill="#070100"/>
<path d="M66.6132 69.6431H63.8075V72.357H66.6132V69.6431Z" fill="#070100"/>
<path d="M66.6132 66.8197H63.8075V69.6431H66.6132V66.8197Z" fill="#070100"/>
<path d="M66.6132 63.9963H63.8075V66.8197H66.6132V63.9963Z" fill="#070100"/>
<path d="M63.8293 72.3569H61.0675V75.1803H63.8293V72.3569Z" fill="#070100"/>
<path d="M61.0676 75.1803H58.3058V78.0037H61.0676V75.1803Z" fill="#070100"/>
<path d="M61.0676 66.8197H58.3058V69.6431H61.0676V66.8197Z" fill="#070100"/>
<path d="M61.0676 61.2823H58.3058V63.9963H61.0676V61.2823Z" fill="#070100"/>
<path d="M58.3057 75.1803H55.5V78.0037H58.3057V75.1803Z" fill="#070100"/>
<path d="M58.3057 69.6431H55.5V72.357H58.3057V69.6431Z" fill="#070100"/>
<path d="M55.5 75.1803H52.7382V78.0037H55.5V75.1803Z" fill="#070100"/>
<path d="M55.5 72.3569H52.7382V75.1803H55.5V72.3569Z" fill="#070100"/>
<path d="M52.7382 75.1803H49.9325V78.0037H52.7382V75.1803Z" fill="#F7FAF7"/>
<path d="M72.1368 55.6575H69.375V58.4808H72.1368V55.6575Z" fill="#070100"/>
<path d="M61.0676 63.9963H58.3058V66.8197H61.0676V63.9963Z" fill="#070100"/>
</svg>
