<svg width="323" height="322" viewBox="0 0 323 322" fill="none" xmlns="http://www.w3.org/2000/svg">
<g opacity="0.8">
<path d="M78.7769 240.014L93.5064 232.382L108.378 223.357L123.063 212.912L137.612 201.148L151.77 188.063L165.46 173.883L178.531 158.558L190.904 142.313L202.425 125.351L213.018 107.644L222.606 89.4212L231.008 70.9584L238.223 52.2558L244.276 33.491L248.986 14.9409L252.478 -3.26644L254.651 -21.0815L255.527 -38.3267" stroke="#63E0DB" stroke-linecap="round" stroke-linejoin="round"/>
<path d="M-85.413 68.2325L-86.8286 79.4423L-87.6601 90.43L-87.7561 101.247L-87.3435 111.817L-86.1433 122.064L-84.3822 131.912L-81.8334 141.438L-78.6714 150.413L-74.8207 158.863L-70.2811 166.787L-65.0761 174.009L-59.1562 180.63L-52.5186 186.396L-45.291 191.433L-37.4213 195.59L-28.9589 198.765L-19.9299 201.033L-10.3837 202.293L-0.294209 202.469L10.2368 201.61L21.16 199.616L32.3241 196.432L43.7524 192.238L55.4218 186.856L67.053 180.358L78.8235 172.722L90.428 164.096L101.791 154.454L112.913 143.796L123.714 132.35L134.044 120.063L143.776 107.06L152.856 93.4941L161.259 79.4397L168.958 64.9731L175.724 50.2691L181.682 35.4558L186.655 20.5567L190.639 5.82524L193.711 -8.71258L195.817 -22.9053L196.857 -36.7031L196.956 -49.9782L196.162 -62.6288L194.374 -74.6051L191.717 -85.7792L188.191 -96.1512L183.872 -105.695L178.809 -114.309L173.003 -121.992L166.603 -128.694L159.611 -134.413L152.128 -139.199L144.153 -143.053L135.813 -145.847L127.083 -147.757L118.04 -148.759L108.834 -148.799L99.4168 -147.98L89.8888 -146.352L80.2505 -143.914L70.5776 -140.64L60.8962 -136.606L51.3079 -131.861L41.7635 -126.509L32.3122 -120.446L23.082 -113.797L14.0729 -106.565L5.20918 -98.7727L-3.38112 -90.5475L-11.7242 -81.8131L-19.7184 -72.6192L-27.3869 -63.1434L-34.7065 -53.2081L-41.5988 -43.0406L-48.1915 -32.5153L-54.2552 -21.8075L-59.8916 -10.8675L-65.15 0.203027L-69.8793 11.4561L-74.0534 22.816L-77.7218 34.1809L-80.8843 45.5508L-83.4655 56.9519L-85.413 68.2325ZM-85.413 68.2325L-93.6442 71.4954L-97.9189 76.0389L-99.6539 88.6644L-100.552 101.07L-100.8 107.427L-100.906 112.392L-100.918 113.405L-101.07 120.219L-100.676 125.696L-100.654 132.739L-100.06 138.37L-99.3749 144.964L-98.4752 150.445L-97.433 156.739L-96.1032 162.199L-94.6018 168.143L-92.8912 173.48L-91.0062 179.048L-86.6201 189.377L-81.4174 199.057L-75.2963 208.036L-68.4836 216.236L-60.7759 223.558L-52.2486 229.977L-42.9514 235.389L-32.8841 239.796L-22.07 243.019L-10.6604 245.007L1.52205 245.736L14.1489 245.177L27.3976 243.306L40.9917 239.944L54.9546 235.269L69.1614 229.151L83.5102 221.642L97.8499 212.688L112.128 202.441L126.168 190.926L139.893 178.115L153.226 164.236L165.887 149.362L177.85 133.57L189.089 116.934L199.424 99.7316L208.727 82.0884L216.896 64.0539L224.031 45.8319L229.976 27.6235L234.681 9.58009L238.091 -8.14673L240.334 -25.4291L241.306 -42.2172L241.006 -58.2579L239.583 -73.499L237.013 -87.8646L233.344 -101.253L228.626 -113.562L222.961 -124.842L216.447 -134.889L209.061 -143.88L200.979 -151.587L192.175 -158.185L182.878 -163.598L173.011 -167.85L162.726 -170.891L152.075 -172.871L141.108 -173.689L131.65 -169.324L121.026 -169.176L110.239 -168.066L99.3656 -165.97L88.3555 -162.988L77.3863 -159.144L72.5951 -151.388L62.2771 -146.98L52.0524 -141.862L41.8453 -136.06L41.7635 -126.509L44.5453 -115.207L49.9548 -103.676L57.2506 -93.4439L65.5107 -85.7613L73.5316 -81.5522L81.5707 -85.7291L89.7552 -89.3471L97.8818 -92.3071L105.977 -94.6845L114.089 -96.3778L122.117 -97.3371L129.986 -97.5886L130.137 -97.5365L130.567 -97.5575" stroke="#63E0DB" stroke-linecap="round" stroke-linejoin="round"/>
<path d="M171.383 -79.0637L170.79 -80.2857L169.441 -81.7686L166.701 -85.5961L161.532 -91.4492L155.821 -96.4716L149.672 -100.713L143.085 -104.173L136.16 -106.902L128.948 -108.797L121.474 -109.936L113.815 -110.29L105.92 -109.963L97.9152 -108.826L89.7767 -107.057L81.6558 -104.604L73.4769 -101.492L65.3418 -97.7723L57.2505 -93.4439L49.3046 -88.5567L41.4286 -83.1367L33.6982 -77.1579L26.241 -70.7457L18.8799 -63.8764L11.8183 -56.6495L5.03007 -48.9892L-1.53428 -40.9973L-7.72354 -32.6217L-13.6366 -24.0659L-19.1485 -15.2022L-24.3086 -6.13226L-29.0152 3.09416L-33.3439 12.451L-37.3208 22.014L-40.7919 31.582L-43.7573 41.155L-46.3186 50.7827L-48.348 60.3397L-49.8715 69.9016L-50.8371 79.317L-51.3201 88.5599L-51.219 97.5806L-50.5336 106.379L-49.3396 114.929L-47.6109 123.155L-45.2195 130.932L-42.2934 138.384L-38.8558 145.335L-34.7294 151.76L-30.1671 157.658L-24.9656 162.929L-19.2002 167.546L-12.9729 171.56L-6.2051 174.744L0.975271 177.222L8.8734 178.845L10.8937 179.119L11.2222 179.147" stroke="#63E0DB" stroke-linecap="round" stroke-linejoin="round"/>
<path d="M156.456 -92.1834L156.331 -92.3113L155.654 -92.7994L154.093 -93.4229L150.02 -95.5914L143.171 -98.2941L136.06 -100.239L128.688 -101.427L121.13 -101.831L113.337 -101.554L105.46 -100.542L97.5253 -98.8725L89.5323 -96.5447L81.4813 -93.5587L73.474 -89.9642L65.5105 -85.7612L57.617 -81.0255L49.8689 -75.7309L42.2924 -69.9533L34.8875 -63.6925L27.756 -56.9984L20.7467 -49.923L14.1125 -42.4638L7.67598 -34.5973L1.59128 -26.5247L-4.19394 -18.0943L-9.55181 -9.43178L-14.6335 -0.589115L-19.2878 8.48581L-23.4886 17.7172L-27.361 26.9772L-30.7042 36.4198L-33.6173 45.8413L-36.0246 55.2679L-38.0017 64.6733L-39.4468 74.008L-40.3339 83.1962L-40.7647 92.2876L-33.3627 97.5547L-29.9166 103.745L-29.7165 112.97L-28.9584 122.048L-27.59 130.827L-25.6112 139.309L-23.4233 147.185L-22.3151 149.856L-21.1751 151.945L-20.134 153.83L-16.0076 160.256L-11.3437 166.104L-7.74409 169.889L-6.71775 170.837L-6.31656 171.145L-2.34816 173.616L4.34405 176.774L11.2221 179.147L16.78 179.709L25.1777 179.64L33.9384 178.764L43.1641 177.031L46.0328 176.071" stroke="#63E0DB" stroke-linecap="round" stroke-linejoin="round"/>
<path d="M184.28 -33.8379L183.67 -44.8144L187.391 -54.1266L185.871 -65.1628L183.458 -75.5745L180.279 -85.2336L176.332 -94.1403L171.769 -102.242L166.463 -109.414L160.615 -115.755L154.202 -121.19L147.247 -125.794L139.878 -129.439L132.221 -132.252L124.073 -134.131L115.739 -135.227L107.166 -135.388L98.4084 -134.765L89.5402 -133.333L80.5618 -131.091L71.5254 -128.19L62.4804 -124.53L53.4531 -120.186L44.5451 -115.207L35.7565 -109.593L27.1133 -103.42L18.6156 -96.6891L10.2896 -89.4747L2.23688 -81.8269L-5.56864 -73.67L-13.0746 -65.1553L-20.3073 -56.2073L-27.1387 -46.9512L-33.6446 -37.4132L-39.7491 -27.5673L-45.502 -17.5151L-50.8013 -7.30646L-55.6733 3.13447L-60.0656 13.6561L-63.9783 24.2585L-67.4114 34.9417L-70.3386 45.6299L-72.6584 56.2734L-74.4462 66.8462L-75.7516 77.2464L-76.3478 87.5522L-76.4353 97.6098L-75.9386 107.445L-74.756 117.008L-73.0125 126.172L-70.5569 134.988L-67.4881 143.253L-63.8584 151.117L-59.5138 158.381L-54.5299 165.018L-48.9328 171.103L-42.7197 176.384L-35.9166 180.936L-28.4976 184.683L-20.5875 187.497L-12.137 189.481L-3.19549 190.532L6.24953 182.772L15.0512 182.757L24.2684 181.785L33.6975 179.952L43.1641 177.031L43.6727 176.783L46.0328 176.071L53.2468 173.305L63.239 168.615L69.1186 165.304L73.3183 162.939L79.4592 158.87L83.281 156.374L89.7851 151.498L93.229 148.871L100.047 143.086L102.933 140.607L110.09 133.837L112.418 131.503L121.633 121.714L130.324 111.234L138.617 100.194L146.41 88.6418L153.575 76.7034L153.834 76.1993L160.011 64.4285L165.868 51.8691L170.89 39.2761L175.18 26.5999L178.685 13.9919L181.278 1.57752L183.109 -10.591L184.152 -22.4379L184.28 -33.8379ZM184.28 -33.8379L188.17 -42.4136L187.391 -54.1266L196.162 -62.6287L208.857 -69.2678L224.023 -73.0195L239.583 -73.4989L253.51 -70.4728L263.964 -64.4914L265.71 -48.7151L266.182 -32.1913L265.355 -14.8443L263.334 3.02293L259.891 21.3322L255.23 39.984L249.253 58.7749L242.011 77.5532L233.584 96.0918L223.996 114.315L213.402 132.021L201.855 149.06L189.407 165.278L176.26 180.578L162.544 194.833L148.235 207.866L133.686 219.63L118.85 230.023L103.876 239.097L88.9201 246.651L78.7767 240.014L64.1136 246.228L49.6449 250.899L35.6467 254.206L21.9941 256.022L8.91369 256.425L1.5219 245.736L-2.85054 231.935L-3.41542 216.905L-0.294361 202.469L6.16145 190.625L15.9599 189.683L26.0983 187.757L36.4253 184.793L47.0427 180.743L57.747 175.706L68.5384 169.681L79.2654 162.617L89.9778 154.616L100.422 145.674L110.649 135.894L120.555 125.326L130.04 114.019L138.975 102.098L147.335 89.6391L155.017 76.6924L162.045 63.4352L168.317 49.9171L173.782 36.2897L178.411 22.6287L182.155 9.08567L185.012 -4.3395L186.903 -17.4195L187.982 -30.1022L188.17 -42.4136L196.955 -49.9782L209.892 -55.6015L225.277 -58.5149L241.005 -58.2579L255.13 -54.8244L265.71 -48.7151L271.464 -40.88L272.015 -24.5835L271.217 -7.56554L269.225 9.97262L265.988 27.9292L261.383 46.1762L255.536 64.5883L248.527 82.9383L240.305 101.124L230.95 118.919L220.563 136.273L209.222 152.958L197.082 168.774L184.217 183.747L170.707 197.65L156.755 210.383L154.764 211.984L142.387 221.87L139.914 223.644L127.806 232.012L124.801 233.857L113.417 240.864L109.142 243.203L106.064 244.769L98.4373 248.24L83.8527 254.227L78.8273 255.799L69.5118 258.772L63.655 260.057L55.4903 261.902L41.9656 263.592L33.8441 263.841L28.9113 263.919L18.8304 262.983L16.3771 262.984L5.79318 261.79L-6.11936 259.544L-17.4102 255.987L-27.9048 251.348L-37.2982 245.478L-42.9515 235.389L-45.161 222.674L-54.0077 217.671L-62.1598 211.637L-69.5186 204.774L-76.1335 196.981L-72.5612 185.159L-78.1385 177.3L-82.8729 168.715L-86.8924 159.529L-90.2232 149.818L-92.8157 139.683L-94.6439 129.049L-95.8357 118.041L-96.2397 106.712L-96.0595 95.1607L-95.144 83.4391L-93.6443 71.4954L-91.4353 59.4573L-88.6683 47.2727L-85.2705 35.221L-81.3408 23.0986L-76.8297 11.0073L-71.7895 -0.901434L-66.2697 -12.7294L-60.2208 -24.3748L-53.7445 -35.7879L-46.7914 -46.867L-39.3849 -57.7895L-31.6294 -68.2526L-32.6591 -71.1511L-24.0665 -81.8339L-15.0989 -92.1329L-5.80844 -101.897L3.75536 -111.227L13.7175 -119.996L23.8252 -128.206L31.6023 -133.83L34.2295 -135.805L41.873 -140.797L44.8287 -142.744L52.4143 -147.077L55.5967 -148.946L61.4763 -152.258L61.9849 -152.506L66.6119 -154.639L77.3862 -159.144L84.2568 -162.876L89.5641 -164.774L95.7085 -166.892L101.138 -168.41L107.201 -170.047L118.633 -172.29L129.978 -173.546L141.108 -173.689L150.892 -173.364L162.188 -172.518L173.167 -170.509L183.83 -167.338L194.101 -163.031L203.375 -157.796L203.852 -157.461L212.856 -150.709L221.366 -142.771L229.028 -133.599L235.916 -123.169L241.858 -111.708L246.774 -98.9918L250.742 -85.2458L253.51 -70.4728L255.13 -54.8244L255.527 -38.3267L266.182 -32.1913L272.015 -24.5835L272.305 -16.5997L271.865 -6.74836L271.64 -0.2139L270.324 11.1996L269.732 16.5903L267.387 29.5139L266.58 33.813L262.21 51.3783L256.651 68.9572L249.903 86.5496L242.044 103.928L233.128 120.942L223.179 137.515L212.353 153.445L211.812 154.276L200.75 168.684L199.649 169.915L188.374 182.978L175.503 196.253L173.05 198.458L162.062 208.484L158.897 211.037L148.307 219.42L144.177 222.318L134.261 229.238L129.143 232.304L120.18 237.688L113.088 240.835L103.876 239.097L93.5063 232.382L83.51 221.642L75.0623 208.13L69.3817 193.708L67.0528 180.358L68.5384 169.681L73.3183 162.939" stroke="#63E0DB" stroke-linecap="round" stroke-linejoin="round"/>
<path d="M4.34424 176.774L3.38496 176.612L-6.20498 174.744L-17.6163 177.418L-28.4974 184.683L-37.4213 195.59L-43.2605 208.834L-45.1609 222.674" stroke="#63E0DB" stroke-linecap="round" stroke-linejoin="round"/>
<path d="M25.1777 179.64L22.9949 180.328L15.0513 182.757L6.16152 190.625L-3.19541 190.532L-10.3837 202.293L-14.2606 216.468L-14.3266 231.365L-10.6605 245.007L-3.57106 255.592L5.79327 261.79L18.8305 262.983L28.9114 263.919" stroke="#63E0DB" stroke-linecap="round" stroke-linejoin="round"/>
<path d="M-45.1609 222.674L-35.5704 226.747L-25.3087 229.61L-14.3265 231.365L-2.85039 231.935L9.22128 231.269L21.7635 229.24L34.7239 225.998L48.0038 221.341L61.4752 215.394L75.0625 208.13L88.6901 199.524L102.155 189.675L115.532 178.609L128.542 166.399L141.058 153.17L153.156 138.95L164.529 123.886L175.152 108.055L184.946 91.6835L193.784 74.8972L201.716 57.7978L208.461 40.4587L214.168 23.1853L218.736 6.02737L222.112 -10.8637L224.32 -27.3103L225.333 -43.2366L225.277 -58.5148L224.023 -73.0194L221.75 -86.7741L218.377 -99.5515L214.058 -111.299L208.817 -122.094L202.704 -131.833L195.77 -140.414L188.19 -147.862L179.965 -154.176L171.197 -159.406L161.885 -163.552L152.155 -166.486L142.01 -168.461L131.65 -169.324L123.586 -160.663L113.671 -160.609L103.518 -159.62L93.3042 -157.719L82.98 -155.009L72.5951 -151.387" stroke="#63E0DB" stroke-linecap="round" stroke-linejoin="round"/>
<path d="M43.3908 177.109L36.4253 184.793L32.3239 196.432L31.7579 210.818L34.7238 225.998L40.9915 239.944L49.6449 250.899L59.6633 257.408L69.5118 258.772" stroke="#63E0DB" stroke-linecap="round" stroke-linejoin="round"/>
<path d="M33.9386 178.764L31.096 179.648L24.2685 181.784L15.9601 189.683L10.2368 201.61L7.87441 216.054L9.22127 231.269L14.1489 245.176L21.9942 256.022L31.7364 262.351L41.9657 263.592" stroke="#63E0DB" stroke-linecap="round" stroke-linejoin="round"/>
<path d="M10.8935 179.119L8.87324 178.845L7.12348 179.259L-2.13684 181.827L-12.1371 189.481L-19.9301 201.033L-24.4872 214.974L-25.309 229.61L-22.0703 243.019L-15.4082 253.372L-6.11947 259.544" stroke="#63E0DB" stroke-linecap="round" stroke-linejoin="round"/>
<path d="M43.013 176.979L33.6976 179.952L26.0983 187.757L21.1599 199.616L19.6318 214.093L21.7634 229.24L27.3975 243.306L35.6468 254.206L45.4385 260.637L55.4904 261.902" stroke="#63E0DB" stroke-linecap="round" stroke-linejoin="round"/>
<path d="M53.2468 173.305L47.0427 180.743L43.7523 192.238L44.1251 206.354L48.0037 221.341L54.9545 235.268L64.1137 246.228L74.2077 252.763L83.8528 254.227" stroke="#63E0DB" stroke-linecap="round" stroke-linejoin="round"/>
<path d="M-72.5611 185.159L-66.3184 192.315L-59.3085 198.718L-51.6565 204.241L-43.2605 208.834L-34.1701 212.395L-24.487 214.974L-14.2606 216.468L-3.41531 216.905L7.87438 216.054L19.6318 214.093L31.758 210.818L44.1252 206.354L56.6577 200.676L69.3818 193.708L81.9922 185.599L94.5907 176.298L106.974 165.906L119.141 154.423L130.789 141.997L142.04 128.756L152.67 114.622L162.572 99.8988L171.646 84.635L179.941 68.9327L187.302 52.9932L193.705 36.8921L199.096 20.7811L203.373 4.7097L206.61 -11.0426L208.781 -26.4001L209.858 -41.287L209.892 -55.6016L208.857 -69.268L206.851 -82.0825L203.824 -94.1471L199.953 -105.232L195.186 -115.439L189.547 -124.59L183.24 -132.786L176.213 -139.873L168.642 -145.877L160.479 -150.898L151.798 -154.911L142.725 -157.788L133.339 -159.756L123.586 -160.663" stroke="#63E0DB" stroke-linecap="round" stroke-linejoin="round"/>
<path d="M63.2391 168.616L57.7471 175.706L55.4217 186.856L56.6577 200.677L61.4751 215.394L69.1613 229.151L78.7768 240.014" stroke="#63E0DB" stroke-linecap="round" stroke-linejoin="round"/>
<path d="M-40.7646 92.2875L-40.6111 101.157L-39.9491 109.777L-38.6767 118.1L-36.8201 126.201L-34.4782 133.875L-31.5492 141.075L-28.0098 147.976L-24.0085 154.273L-19.394 160.02L-14.1662 165.214L-8.2992 169.782L-6.71763 170.837" stroke="#63E0DB" stroke-linecap="round" stroke-linejoin="round"/>
<path d="M8.69616 178.869L0.97534 177.222L-0.318087 177.538L-10.1598 180.076L-20.5874 187.497L-28.9589 198.765L-34.1701 212.395L-35.5704 226.747L-32.8841 239.796L-26.5738 249.942L-17.4101 255.987" stroke="#63E0DB" stroke-linecap="round" stroke-linejoin="round"/>
<path d="M83.2811 156.374L79.2655 162.618L78.8234 172.722L81.9922 185.599L88.6901 199.524L97.8498 212.688L108.378 223.357L118.85 230.023L127.806 232.012L134.261 229.238" stroke="#63E0DB" stroke-linecap="round" stroke-linejoin="round"/>
<path d="M271.641 -0.213726L271.217 -7.56537L265.355 -14.8441L254.651 -21.0814L240.334 -25.4289L224.32 -27.3102L208.781 -26.3998L195.817 -22.9051L186.904 -17.4193L183.109 -10.5908" stroke="#63E0DB" stroke-linecap="round" stroke-linejoin="round"/>
<path d="M-29.7166 112.97L-33.1599 106.526L-40.6113 101.157L-51.2191 97.5807L-63.7244 96.3168L-76.4354 97.6099L-87.7563 101.248L-96.2398 106.712L-100.892 113.33L-100.47 125.343L-99.2608 137.035L-97.3133 148.303L-94.6276 159.148L-91.2036 169.57L-86.963 179.341L-81.9319 188.537L-81.4176 199.057L-76.5814 207.592L-75.238 209.582L-70.312 216.876L-63.2493 225.333L-55.242 233.013L-46.4648 239.687L-36.9175 245.355L-26.574 249.942L-15.4082 253.372L-3.5712 255.592L8.91363 256.425L18.4785 262.777L31.7362 262.351L45.4383 260.637L59.6633 257.408L74.2076 252.764L88.9201 246.651L98.4373 248.24L109.502 242.649L113.417 240.864L120.18 237.688" stroke="#63E0DB" stroke-linecap="round" stroke-linejoin="round"/>
<path d="M269.732 16.5903L269.225 9.97259L263.334 3.0229L252.478 -3.26652L238.092 -8.14673L222.112 -10.8638L206.61 -11.0425L193.711 -8.71258L185.012 -4.33953L181.278 1.57749" stroke="#63E0DB" stroke-linecap="round" stroke-linejoin="round"/>
<path d="M183.105 -48.5697L181.685 -54.9938L180.026 -64.8912L177.067 -73.9655L173.443 -82.3369L169.229 -89.9794L164.298 -96.7676L158.852 -102.801L152.865 -108.003L146.44 -112.425L139.55 -115.989L132.346 -118.645L124.806 -120.569L116.978 -121.66L108.963 -121.967L100.688 -121.517L92.3022 -120.257L83.9341 -118.313L75.3802 -115.585L66.87 -112.249L58.4036 -108.305L49.9548 -103.676L41.6515 -98.488L33.4936 -92.7414L25.4318 -86.5379L17.5911 -79.7494L10.0237 -72.5275L2.6541 -64.8983L-4.44217 -56.8356L-11.2884 -48.5172L-17.7595 -39.8149L-23.9051 -30.8308L-29.6494 -21.5386L-35.0419 -12.0403L-40.0565 -2.41155L-44.6176 7.3737L-48.7252 17.3154L-52.3532 27.3379L-55.551 37.3394L-58.2691 47.4215L-60.3798 57.4591L-62.0341 67.3998L-63.1303 77.194L-63.6946 86.9174L-63.7242 96.3168L-63.1201 105.596L-61.9551 114.475L-60.2059 123.132L-57.7941 131.339L-54.8213 139.147L-51.2354 146.403L-47.138 153.158L-42.3519 159.387L-37.0019 164.963L-31.0622 169.811L-24.6342 173.979L-17.6164 177.418L-10.1598 180.076L-2.13663 181.827L6.24966 182.772L14.699 180.347L14.9025 180.248L16.7801 179.709" stroke="#63E0DB" stroke-linecap="round" stroke-linejoin="round"/>
<path d="M93.229 148.871L89.9778 154.616L90.4279 164.096L94.5906 176.298L102.155 189.675L112.128 202.441L123.063 212.912L133.686 219.63L142.387 221.87L148.307 219.42" stroke="#63E0DB" stroke-linecap="round" stroke-linejoin="round"/>
<path d="M178.686 13.9918L182.155 9.08562L190.639 5.82522L203.373 4.70976L218.736 6.02724L234.681 9.58005L248.986 14.9408L259.891 21.3321L265.988 27.9291L266.58 33.813" stroke="#63E0DB" stroke-linecap="round" stroke-linejoin="round"/>
<path d="M102.933 140.606L100.423 145.674L101.791 154.454L106.974 165.906L115.532 178.609L126.168 190.926L137.612 201.148L148.235 207.866L156.755 210.382L162.063 208.484" stroke="#63E0DB" stroke-linecap="round" stroke-linejoin="round"/>
<path d="M175.18 26.6001L178.411 22.629L186.655 20.557L199.096 20.7814L214.168 23.1855L229.976 27.6237L244.276 33.4912L255.23 39.9842L261.383 46.1764L262.21 51.3785" stroke="#63E0DB" stroke-linecap="round" stroke-linejoin="round"/>
<path d="M-3.21067 6.99804L-7.32455 3.96768L-14.6334 -0.589123L-24.3085 -6.13212L-35.0419 -12.0403L-45.5018 -17.515L-54.2553 -21.8074L-60.2206 -24.3747L-62.7438 -24.9064" stroke="#63E0DB" stroke-linecap="round" stroke-linejoin="round"/>
<path d="M112.418 131.503L110.649 135.894L112.912 143.796L119.141 154.423L128.542 166.399L139.893 178.115L151.77 188.063L162.544 194.833L170.707 197.65L175.503 196.253" stroke="#63E0DB" stroke-linecap="round" stroke-linejoin="round"/>
<path d="M170.89 39.2762L173.782 36.2898L181.682 35.4559L193.705 36.8923L208.461 40.4587L224.031 45.832L238.223 52.2558L249.253 58.775L255.536 64.5884L256.651 68.9573" stroke="#63E0DB" stroke-linecap="round" stroke-linejoin="round"/>
<path d="M121.633 121.713L120.555 125.326L123.714 132.35L130.789 141.997L141.058 153.17L153.226 164.236L165.46 173.883L176.26 180.578L184.217 183.747L188.374 182.978" stroke="#63E0DB" stroke-linecap="round" stroke-linejoin="round"/>
<path d="M242.045 103.928L240.306 101.124L233.584 96.0919L222.606 89.4213L208.727 82.0885L193.785 74.8972L179.941 68.9329L168.958 64.9732L162.045 63.4353L160.011 64.4286" stroke="#63E0DB" stroke-linecap="round" stroke-linejoin="round"/>
<path d="M165.868 51.869L168.317 49.9171L175.724 50.2691L187.302 52.9933L201.715 57.7977L216.896 64.0539L231.007 70.9583L242.011 77.5532L248.527 82.9382L249.903 86.5496" stroke="#63E0DB" stroke-linecap="round" stroke-linejoin="round"/>
<path d="M233.128 120.942L230.95 118.919L223.996 114.315L213.018 107.644L199.424 99.7316L184.946 91.6835L171.646 84.6352L161.259 79.4398L155.017 76.6924L153.575 76.7035" stroke="#63E0DB" stroke-linecap="round" stroke-linejoin="round"/>
<path d="M130.324 111.234L130.04 114.018L134.044 120.063L142.04 128.756L153.155 138.95L165.887 149.362L178.531 158.558L189.407 165.278L197.082 168.774L200.75 168.684" stroke="#63E0DB" stroke-linecap="round" stroke-linejoin="round"/>
<path d="M138.617 100.194L138.976 102.098L143.776 107.06L152.67 114.622L164.529 123.886L177.85 133.57L190.904 142.313L201.855 149.06L209.222 152.958L212.353 153.445" stroke="#63E0DB" stroke-linecap="round" stroke-linejoin="round"/>
<path d="M146.41 88.642L147.335 89.6392L152.856 93.4943L162.572 99.8991L175.152 108.055L189.089 116.934L202.425 125.351L213.402 132.021L220.563 136.273L223.179 137.515" stroke="#63E0DB" stroke-linecap="round" stroke-linejoin="round"/>
<path d="M15.0775 -20.2599L14.5632 -19.5049L8.77799 -11.0745L8.57172 -10.7219L2.80412 -1.60729L-2.64067 8.04251" stroke="#63E0DB" stroke-linecap="round" stroke-linejoin="round"/>
<path d="M51.6489 -60.7903L48.7137 -58.4124L40.9224 -51.5221L34.0614 -44.1412L28.7524 -37.581L27.5988 -36.199L21.7522 -29.0614L20.8804 -28.0059L15.0776 -20.2598L13.6824 -19.8936L7.64149 -11.2124L2.07734 -2.19719L-3.21062 6.99813L-2.64062 8.04255L-7.7598 17.9743L-12.3238 28.0129L-16.5098 38.1819L-20.1406 48.4577L-23.2918 58.8143L-25.1098 65.3077L-25.9372 69.1759L-27.1653 74.9404L-27.7893 78.7093L-28.715 84.5781L-29.5817 94.1972L-29.9164 103.746" stroke="#63E0DB" stroke-linecap="round" stroke-linejoin="round"/>
<path d="M59.8444 -67.6261L56.3744 -64.9242L55.9675 -64.7255L48.7138 -58.4126L43.727 -53.5214L40.9225 -51.5223L35.4225 -52.7422L28.3871 -45.591L21.6511 -38.0822L15.139 -30.2418L9.02819 -22.0934L3.21683 -13.5873L-2.24278 -4.8751L-7.32445 3.96756L-12.0049 13.1182L-16.2319 22.4254L-20.0548 31.7872L-23.398 41.2298L-26.3372 50.7271L-28.7707 60.2294L-30.6983 69.7367L-32.0679 79.0974L-33.0073 88.4371L-33.3625 97.5546L-33.1596 106.526L-32.4481 115.248L-31.1262 123.673L-29.194 131.8L-26.8027 139.576L-23.0713 147.391L-21.1749 151.945" stroke="#63E0DB" stroke-linecap="round" stroke-linejoin="round"/>
</g>
</svg>
