<svg width="454" height="443" viewBox="0 0 454 443" fill="none" xmlns="http://www.w3.org/2000/svg">
<g opacity="0.8">
<path d="M175.107 356.711L188.635 354.021L202.599 350.252L216.742 345.305L231.081 339.274L245.414 332.096L259.626 323.937L273.608 314.72L287.246 304.607L300.369 293.723L312.923 282.031L324.794 269.694L335.772 256.891L345.859 243.623L355.032 230.036L363.082 216.31L370.081 202.576L375.935 188.85L380.622 175.28" stroke="#63E0DB" stroke-linecap="round" stroke-linejoin="round"/>
<path d="M396.133 164.124L397.168 151.811L397.165 146.509L397.139 139.97L394.499 131.831L387.657 124.806L377.454 119.895L365.108 117.794L352.235 118.746L340.631 122.629L331.676 128.87L326.464 136.608L325.981 144.908" stroke="#63E0DB" stroke-linecap="round" stroke-linejoin="round"/>
<path d="M158.052 82.4351L148.985 89.4117L140.167 96.7271L131.598 104.381L123.617 112.124L123.333 112.412L115.448 120.712L107.943 129.279L100.819 138.115L94.0591 147.126L87.7723 156.389L81.9811 165.757L76.6469 175.284L71.901 184.9" stroke="#63E0DB" stroke-linecap="round" stroke-linejoin="round"/>
<path d="M320.61 116.992L321.273 107.514L325.927 97.914L334.058 89.3807L344.73 83.1278L356.5 79.9318L367.917 80.2367L377.487 83.968L383.971 90.5774" stroke="#63E0DB" stroke-linecap="round" stroke-linejoin="round"/>
<path d="M83.6936 181.556L79.9713 190.182L76.7669 198.765L74.1891 207.382L72.0749 215.919L70.6642 224.38L69.7939 232.652L69.627 240.85L70.0772 248.749L71.199 256.387L72.9923 263.766L75.4796 270.737L78.6768 277.393L82.6447 283.533L87.2523 289.227L92.5764 294.366L98.6008 298.858L105.287 302.758L112.62 305.971L120.637 308.444L129.247 310.193L138.431 311.126L148.084 311.165L158.181 310.457L168.745 308.857L179.536 306.356L190.702 302.979L201.965 298.773L213.269 293.7L224.615 287.759L235.888 281.115L246.98 273.69L257.758 265.556L268.146 256.821L278.106 247.539L287.6 237.765L296.404 227.586L304.587 217.133L312.003 206.384L318.591 195.54L324.405 184.639L329.369 173.791L333.39 163.012L336.538 152.433L338.829 142.146L340.17 132.168L340.631 122.629L340.214 113.53L338.971 104.91L336.919 96.8599L334.058 89.3808L330.496 82.5492L326.234 76.365L321.364 70.812L315.887 65.8904L309.872 61.731L303.342 58.1868L296.351 55.2961L289.008 53.1354L281.297 51.612L273.311 50.7097L265.05 50.4286L256.568 50.8069L247.903 51.7902L239.148 53.3624L230.288 55.4307L221.338 58.0878L212.429 61.2632L203.562 64.9568L194.681 69.1304L185.919 73.7133L177.236 78.76L168.726 84.2544L160.411 90.0492L152.268 96.2917L144.413 102.819L136.714 109.7L129.395 116.85L122.365 124.284L115.605 131.91L109.227 139.804L103.266 147.911L97.7091 156.139L92.5546 164.489L87.8572 172.997L83.6936 181.556ZM83.6936 181.556L76.3654 182.259L71.901 184.9L67.5962 194.582L64.0109 204.282L62.3428 209.302L61.11 213.242L60.8666 214.049L59.1696 219.455L58.218 223.92L56.6071 229.551L55.7801 234.185L54.8024 239.61L54.2535 244.196L53.6308 249.463L53.4303 254.131L53.2553 259.225L53.3874 263.883L53.6057 268.766L54.7203 278.03L56.6375 286.963L59.4502 295.549L62.9952 303.673L67.458 311.303L72.7843 318.401L78.9581 324.873L85.9795 330.72L93.8708 335.795L102.523 340.02L112.085 343.419L122.298 345.892L133.312 347.461L144.946 347.919L157.178 347.413L169.939 345.812L183.135 343.132L196.657 339.297L210.43 334.415L224.305 328.464L238.229 321.406L252.086 313.404L265.636 304.452L278.842 294.606L291.664 283.918L303.896 272.569L315.405 260.629L326.099 248.115L336.009 235.211L344.968 222.044L352.896 208.721L359.719 195.352L365.506 182.068L370.164 168.885L373.632 156.005L376.02 143.504L377.289 131.436L377.454 119.895L376.532 108.974L374.616 98.6553L371.736 89.1253L367.917 80.2368L363.243 72.2135L357.738 64.9083L351.564 58.436L344.667 52.7583L337.156 47.9519L329.108 43.9078L320.538 40.7188L311.975 42.0187L303.456 39.6807L294.584 38.0728L285.415 37.2332L275.933 37.0692L266.284 37.603L260.664 42.6896L251.404 43.8242L242.055 45.5477L232.562 47.8218L230.288 55.4307L229.897 65.1002L231.551 75.56L235.012 85.4185L239.833 93.4639L245.265 98.68L252.652 97.2028L260.025 96.2056L267.199 95.7205L274.214 95.6933L281.084 96.2166L287.718 97.3066L294.06 98.925L294.169 99.0016L294.517 99.0843" stroke="#63E0DB" stroke-linecap="round" stroke-linejoin="round"/>
<path d="M113.791 211.091L106.222 205.673L96.7191 201.5L86.467 199.082L76.767 198.765L68.9651 200.601L64.011 204.282L60.8668 214.049L59.1697 219.455" stroke="#63E0DB" stroke-linecap="round" stroke-linejoin="round"/>
<path d="M322.839 123.291L322.648 122.178L321.913 120.682L320.61 116.992L317.835 111.122L314.435 105.79L310.505 100.982L306.044 96.6949L301.145 92.9145L295.823 89.7331L290.117 87.0963L284.082 85.0423L277.701 83.4783L271.045 82.5355L264.136 82.0667L257.083 82.1484L249.832 82.7423L242.475 83.8323L235.012 85.4184L227.536 87.4845L219.993 89.9922L212.436 92.9798L204.998 96.3768L197.531 100.161L190.221 104.3L183.028 108.848L175.938 113.713L169.058 118.972L162.358 124.438L155.906 130.242L149.688 136.293L143.796 142.573L138.175 149.045L132.788 155.763L127.804 162.602L123.222 169.562L118.951 176.659L115.12 183.822L111.693 191.107L108.745 198.403L106.222 205.673L104.217 212.901L102.73 220.086L101.707 227.191L101.186 234.16L101.298 240.924L101.912 247.552L103.05 253.898L104.86 259.984L107.14 265.749L110.076 271.161L113.612 276.182L117.658 280.827L122.327 284.935L127.489 288.574L133.421 291.697L134.971 292.382L135.227 292.481" stroke="#63E0DB" stroke-linecap="round" stroke-linejoin="round"/>
<path d="M83.6937 181.556L92.7729 182.985L102.558 186.297L111.693 191.107L119.069 196.796L123.786 202.567L125.196 207.719" stroke="#63E0DB" stroke-linecap="round" stroke-linejoin="round"/>
<path d="M309.598 105.152L309.129 104.087L306.044 96.6949L305.953 86.4407L309.325 75.7745L315.887 65.8903L324.733 58.1877L334.787 53.6187L344.667 52.7582L353.189 55.6689" stroke="#63E0DB" stroke-linecap="round" stroke-linejoin="round"/>
<path d="M313.951 109.362L313.881 109.231L313.453 108.684L312.35 107.826L309.598 105.152L304.753 101.41L299.524 98.2124L293.911 95.5594L287.969 93.4893L281.681 91.9092L275.156 90.8958L268.433 90.3946L261.511 90.4057L254.39 90.929L247.164 91.9484L239.833 93.464L232.434 95.4211L225.021 97.8582L217.635 100.721L210.273 104.009L203.03 107.706L195.796 111.736L188.773 116.16L181.814 120.954L175.088 125.995L168.518 131.39L162.236 137.07L156.134 142.957L150.318 149.128L144.829 155.53L139.595 162.03L134.742 168.798L130.237 175.649L126.135 182.621L122.382 189.676L119.069 196.797L116.236 203.93L113.79 211.091L118.484 217.009L119.805 222.75L117.832 230.163L116.339 237.588L115.402 244.917L115.021 252.148L114.947 258.944L115.215 261.334L115.642 263.265L116.038 265.012L117.848 271.098L120.221 276.846L122.22 280.702L122.821 281.696L123.07 282.035L125.668 284.926L130.283 288.995L135.227 292.481L139.536 294.214L146.259 296.101L153.458 297.427L161.227 298.176L163.74 298.073" stroke="#63E0DB" stroke-linecap="round" stroke-linejoin="round"/>
<path d="M322.683 162.393L324.733 153.485L329.858 146.908L331.196 137.743L331.676 128.87L331.37 120.42L330.277 112.394L328.507 104.869L325.927 97.9141L322.723 91.4978L318.857 85.6745L314.368 80.3897L309.325 75.7745L303.859 71.7583L297.786 68.3733L291.384 65.5712L284.575 63.4608L277.436 61.9333L270.023 61.0269L262.334 60.7417L254.446 60.9687L246.376 61.8007L238.162 63.1832L229.897 65.1002L221.58 67.5515L213.25 70.4828L204.907 73.894L196.589 77.7308L188.39 81.9769L180.27 86.6867L172.307 91.7515L164.461 97.2256L156.865 103.038L149.464 109.152L142.313 115.604L135.394 122.302L128.801 129.23L122.496 136.442L116.556 143.83L110.98 151.393L105.768 159.131L100.959 166.99L96.6452 174.954L92.7729 182.985L89.3258 190.989L86.4669 199.082L84.0717 207.094L82.1944 215.064L80.9277 222.975L80.2016 230.697L80.1244 238.305L80.6645 245.615L81.745 252.736L83.5353 259.541L85.9813 265.994L89.0444 272.148L92.7856 277.802L97.1665 283.01L102.225 287.718L107.892 291.795L114.182 295.333L121.08 298.24L130.418 294.226L137.451 296.249L145.037 297.603L152.991 298.32L161.227 298.176L161.691 298.095L163.74 298.073L170.141 297.531L179.205 296.096L184.667 294.811L188.568 293.893L194.413 292.063L198.042 290.953L204.364 288.563L207.722 287.261L214.504 284.217L217.382 282.904L224.664 279.152L227.063 277.827L236.685 272.139L246.05 265.779L255.226 258.879L264.12 251.455L272.603 243.577L272.926 243.234L280.58 235.262L288.162 226.585L295.085 217.689L301.442 208.557L307.156 199.298L312.097 189.983L316.373 180.688L319.945 171.468L322.683 162.393ZM322.683 162.393L327.772 156.443L329.858 146.908L338.829 142.146L350.502 139.779L363.483 140.289L376.02 143.504L386.443 149.14L393.41 156.335L391.156 169.338L387.713 182.644L383.042 196.307L377.296 210.109L370.314 223.936L362.279 237.754L353.161 251.38L343.036 264.703L332.019 277.56L320.148 289.897L307.594 301.589L294.432 312.527L280.741 322.601L266.704 331.781L252.454 339.994L238.012 347.095L223.673 353.126L209.421 357.997L195.365 361.782L181.673 364.357L175.107 356.711L161.959 358.284L149.324 358.669L137.38 358.074L126.056 356.367L115.517 353.664L112.085 343.419L111.783 331.386L114.807 319.252L120.637 308.444L128.532 300.477L136.575 301.991L145.117 302.796L154.05 302.817L163.466 302.037L173.18 300.489L183.191 298.173L193.392 295.011L203.797 291.098L214.206 286.371L224.634 280.925L234.99 274.775L245.179 267.937L255.071 260.483L264.628 252.465L273.757 243.902L282.435 234.939L290.57 225.593L298.084 215.972L304.94 206.133L311.061 196.182L316.447 186.12L320.982 176.112L324.775 166.232L327.772 156.443L336.538 152.433L348.17 150.933L361.13 152.163L373.632 156.005L384.119 162.013L391.156 169.338L393.94 176.926L390.612 190.068L386.041 203.475L380.394 217.021L373.658 230.614L365.761 244.122L356.835 257.475L346.994 270.51L336.223 283.133L324.638 295.182L312.33 306.64L299.414 317.344L286.062 327.168L272.326 336.152L258.322 344.132L244.235 351.075L242.275 351.894L230.104 356.927L227.719 357.772L216.114 361.656L213.288 362.434L202.576 365.398L198.62 366.278L195.8 366.817L188.907 367.826L175.875 369.236L171.498 369.329L163.37 369.55L158.396 369.222L151.449 368.808L140.256 367.031L133.712 365.352L129.755 364.274L121.92 361.195L119.961 360.629L111.784 357.228L102.789 352.68L94.5944 347.229L87.2854 341.097L81.1405 334.238L78.9581 324.873L80.1333 314.207L74.2246 308.166L69.1092 301.462L64.8188 294.28L61.3376 286.526L66.9239 277.911L64.2866 270.345L62.4904 262.394L61.4041 254.128L60.9893 245.602L61.2619 236.909L62.2605 227.993L63.8537 218.926L66.1504 209.785L68.965 200.601L72.4063 191.451L76.3655 182.259L80.9129 173.156L85.9399 164.064L91.44 155.225L97.3813 146.452L103.78 137.838L110.558 129.493L117.701 121.322L125.225 113.42L133.036 105.803L141.15 98.562L149.591 91.5511L158.204 84.9879L158.052 82.435L167.384 75.8898L176.927 69.7379L186.605 64.0881L196.4 58.8476L206.384 54.1475L216.354 49.9274L223.866 47.2342L226.421 46.2638L233.679 44.0446L236.49 43.173L243.55 41.4659L246.524 40.7093L251.985 39.424L252.449 39.3432L256.637 38.7094L266.284 37.6029L272.634 36.2106L277.311 35.9215L282.708 35.6505L287.395 35.6942L292.616 35.7882L302.265 36.6398L311.616 38.2598L320.538 40.7188L328.277 43.2404L337.102 46.5281L345.407 50.671L353.189 55.669L360.396 61.4837L366.592 67.8088L366.896 68.1859L372.526 75.6605L377.487 83.9681L381.486 93.0643L384.576 102.987L386.671 113.514L387.657 124.806L387.648 136.702L386.443 149.14L384.119 162.013L380.622 175.28L387.713 182.644L390.612 190.068L388.998 196.511L386.369 204.278L384.679 209.444L380.988 218.255L379.27 222.424L374.409 232.203L372.77 235.45L365.219 248.468L356.715 261.222L347.258 273.712L336.964 285.775L325.909 297.301L314.132 308.237L301.802 318.456L301.178 318.995L289.012 327.944L287.848 328.672L275.823 336.498L262.475 344.125L260.006 345.319L248.912 350.786L245.795 352.093L235.399 356.339L231.43 357.699L221.911 360.933L217.115 362.198L208.712 364.426L202.32 365.3L195.365 361.782L188.635 354.021L183.135 343.132L179.512 330.388L178.31 317.557L179.536 306.356L183.191 298.173L188.568 293.893" stroke="#63E0DB" stroke-linecap="round" stroke-linejoin="round"/>
<path d="M121.6 280.428L113.613 276.182L103.616 275.248L92.7856 277.802L82.6448 283.533L74.3731 291.804L69.1092 301.462L67.458 311.303L69.6919 320.133" stroke="#63E0DB" stroke-linecap="round" stroke-linejoin="round"/>
<path d="M317.789 114.187L317.632 113.832L316.684 111.37L314.436 105.791L314.741 95.8972L318.857 85.6745L326.234 76.365L336.097 69.2975L347.059 65.2869L357.738 64.9083L366.896 68.1859L373.147 74.5493" stroke="#63E0DB" stroke-linecap="round" stroke-linejoin="round"/>
<path d="M125.668 284.926L117.658 280.827L107.786 280.063L97.1665 283.01L87.2524 289.227L79.2074 297.984L74.2247 308.166L72.7843 318.401L75.1587 327.493L81.1406 334.238L87.2854 341.097" stroke="#63E0DB" stroke-linecap="round" stroke-linejoin="round"/>
<path d="M324.389 130.091L325.241 121.153L330.277 112.394L338.971 104.91L350.259 99.7436L362.684 97.5801L374.615 98.6552L384.576 102.987L391.222 109.712L393.872 118.183L394.609 121.637L396.022 128.747" stroke="#63E0DB" stroke-linecap="round" stroke-linejoin="round"/>
<path d="M130.283 288.995L129.554 288.644L122.327 284.935L112.595 284.432L102.225 287.718L92.5764 294.366L84.8509 303.593L80.1333 314.207" stroke="#63E0DB" stroke-linecap="round" stroke-linejoin="round"/>
<path d="M130.976 196.061L132.531 193.163L130.781 188.261L126.135 182.621L118.951 176.659L110.184 171.212L100.959 166.99L92.5545 164.489L85.9398 164.064L81.981 165.757" stroke="#63E0DB" stroke-linecap="round" stroke-linejoin="round"/>
<path d="M325.981 144.908L331.196 137.743L340.17 132.168L351.863 129.08L364.847 128.778L377.289 131.436L387.648 136.702L394.544 143.765L397.169 151.811" stroke="#63E0DB" stroke-linecap="round" stroke-linejoin="round"/>
<path d="M146.259 296.101L144.356 296.145L137.451 296.249L128.532 300.477L121.08 298.24L112.62 305.971L106.247 316.395L102.75 328.278L102.524 340.02L105.738 350.113L111.784 357.228L121.92 361.195L129.755 364.274" stroke="#63E0DB" stroke-linecap="round" stroke-linejoin="round"/>
<path d="M163.502 151.657L157.533 158.046L151.798 164.682L146.427 171.493L141.381 178.533L136.684 185.656L132.445 192.939L129.328 198.975L128.662 200.381L127.293 203.246" stroke="#63E0DB" stroke-linecap="round" stroke-linejoin="round"/>
<path d="M325.246 137.298L326.2 128.677L331.37 120.42L340.213 113.53L351.706 108.998L364.374 107.413L376.532 108.974L386.671 113.514L393.404 120.462L396.022 128.747L396.566 133.859L397.139 139.97" stroke="#63E0DB" stroke-linecap="round" stroke-linejoin="round"/>
<path d="M80.1333 314.207L86.8511 319.677L94.3846 324.336L102.75 328.278L111.783 331.386L121.578 333.645L132.064 334.924L143.165 335.332L154.847 334.683L166.981 333.048L179.512 330.388L192.386 326.666L205.416 321.913L218.658 316.167L231.872 309.424L244.926 301.753L257.876 293.193L270.442 283.792L282.586 273.604L294.194 262.794L305.133 251.431L315.421 239.608L324.817 227.32L333.369 214.844L340.984 202.197L347.586 189.488L353.151 176.863L357.643 164.378L361.13 152.163L363.483 140.289L364.847 128.778L365.108 117.794L364.374 107.413L362.684 97.5801L360.054 88.3889L356.5 79.9319L352.168 72.2312L347.059 65.2869L341.266 59.0827L334.788 53.6187L327.695 49.026L320.05 45.1029L311.975 42.0187L303.532 47.0714L295.601 44.8221L287.264 43.2645L278.667 42.4208L269.795 42.1982L260.664 42.6896" stroke="#63E0DB" stroke-linecap="round" stroke-linejoin="round"/>
<path d="M161.39 298.291L154.05 302.817L148.084 311.164L144.306 322.522L143.165 335.332L144.946 347.919L149.324 358.669L155.82 366.183L163.37 369.55" stroke="#63E0DB" stroke-linecap="round" stroke-linejoin="round"/>
<path d="M311.116 107.037L309.943 106.047L304.753 101.41L301.145 92.9145L300.814 82.6543L303.859 71.7583L309.872 61.731L318.153 53.7925L327.695 49.026L337.156 47.9518L345.407 50.671" stroke="#63E0DB" stroke-linecap="round" stroke-linejoin="round"/>
<path d="M153.458 297.427L150.984 297.475L145.037 297.603L136.575 301.991L129.247 310.193L124.02 321.182L121.578 333.645L122.298 345.891L126.056 356.367L132.374 363.674L140.256 367.031" stroke="#63E0DB" stroke-linecap="round" stroke-linejoin="round"/>
<path d="M120.221 276.846L115.198 270.126L107.14 265.749L97.009 264.313L85.9812 265.994L75.4795 270.737L66.9238 277.911" stroke="#63E0DB" stroke-linecap="round" stroke-linejoin="round"/>
<path d="M305.778 103.763L299.524 98.2124L295.823 89.7332L295.236 79.3742L297.786 68.3734L303.341 58.1869L311.111 50.0509L320.049 45.1029L329.108 43.9078L337.102 46.5282" stroke="#63E0DB" stroke-linecap="round" stroke-linejoin="round"/>
<path d="M134.971 292.382L133.421 291.697L131.928 291.622L123.938 291.533L114.182 295.333L105.287 302.757L98.4248 312.837L94.3845 324.336L93.8707 335.795L96.7979 345.603L102.789 352.68" stroke="#63E0DB" stroke-linecap="round" stroke-linejoin="round"/>
<path d="M117.848 271.097L112.841 264.47L104.86 259.984L94.6269 258.231L83.5354 259.541L72.9924 263.766L64.2866 270.345L58.659 278.442L61.3376 286.526L59.4502 295.549L61.387 303.762" stroke="#63E0DB" stroke-linecap="round" stroke-linejoin="round"/>
<path d="M300.073 101.126L293.911 95.5592L290.117 87.0962L289.237 76.6928L291.384 65.5711L296.351 55.296L303.532 47.0713" stroke="#63E0DB" stroke-linecap="round" stroke-linejoin="round"/>
<path d="M116.038 265.012L115.805 264.766L111.101 258.515L103.05 253.898L92.916 251.889L81.7448 252.736L71.1988 256.387L62.4902 262.394L56.7669 269.935L54.7201 278.03" stroke="#63E0DB" stroke-linecap="round" stroke-linejoin="round"/>
<path d="M294.06 98.925L287.969 93.4892L284.082 85.0423L282.907 74.5946L284.575 63.4608L289.008 53.1353L295.601 44.822L303.456 39.6807L311.615 38.2598" stroke="#63E0DB" stroke-linecap="round" stroke-linejoin="round"/>
<path d="M161.118 298.099L152.991 298.32L145.117 302.796L138.431 311.126L133.864 322.334L132.064 334.924L133.312 347.461L137.38 358.074L143.713 365.474L151.449 368.808" stroke="#63E0DB" stroke-linecap="round" stroke-linejoin="round"/>
<path d="M114.714 258.698L109.87 252.185L101.912 247.552L91.7298 245.265L80.6643 245.615L70.0771 248.749L61.4039 254.128L55.6393 261.151L53.6055 268.765" stroke="#63E0DB" stroke-linecap="round" stroke-linejoin="round"/>
<path d="M170.141 297.531L163.466 302.037L158.181 310.457L155.215 321.817L154.847 334.683L157.178 347.413L161.959 358.284L168.51 365.837L175.875 369.236" stroke="#63E0DB" stroke-linecap="round" stroke-linejoin="round"/>
<path d="M66.9239 277.911L70.2551 285.069L74.373 291.804L79.2074 297.984L84.8509 303.593L91.2876 308.539L98.4248 312.837L106.247 316.395L114.807 319.252L124.02 321.182L133.864 322.334L144.306 322.522L155.215 321.817L166.536 320.18L178.31 317.557L190.256 313.996L202.468 309.481L214.76 304.044L227.133 297.686L239.308 290.455L251.355 282.482L263.112 273.651L274.425 264.182L285.201 254.09L295.456 243.467L305.021 232.439L313.857 221.06L321.887 209.439L329.019 197.593L335.246 185.761L340.53 173.997L344.833 162.357L348.17 150.933L350.502 139.779L351.863 129.08L352.236 118.745L351.706 108.997L350.259 99.7435L347.872 91.1311L344.73 83.1277L340.756 75.8424L336.097 69.2973L330.739 63.3996L324.734 58.1876L318.153 53.7924L311.111 50.0507L303.532 47.0713" stroke="#63E0DB" stroke-linecap="round" stroke-linejoin="round"/>
<path d="M179.205 296.096L173.18 300.489L168.745 308.857L166.536 320.18L166.981 333.048L169.939 345.812L175.107 356.711" stroke="#63E0DB" stroke-linecap="round" stroke-linejoin="round"/>
<path d="M113.79 211.091L111.862 218.21L110.398 225.248L109.49 232.189L109.1 239.088L109.196 245.758L109.871 252.185L111.102 258.515L112.841 264.47L115.198 270.126L118.172 275.483L121.802 280.488L122.821 281.696" stroke="#63E0DB" stroke-linecap="round" stroke-linejoin="round"/>
<path d="M208.169 112.878L203.03 107.706L197.531 100.161L192.459 91.2041L188.39 81.9769L185.919 73.7133L185.331 67.5104L186.605 64.0881" stroke="#63E0DB" stroke-linecap="round" stroke-linejoin="round"/>
<path d="M319.945 171.468L324.775 166.232L333.39 163.012L344.833 162.357L357.643 164.378L370.164 168.885L380.622 175.28" stroke="#63E0DB" stroke-linecap="round" stroke-linejoin="round"/>
<path d="M287.938 98.0325L281.084 96.2165L275.156 90.8957L271.045 82.5355L269.205 72.1081L270.023 61.0269L273.311 50.7096L278.667 42.4207L285.415 37.2331L292.616 35.7882" stroke="#63E0DB" stroke-linecap="round" stroke-linejoin="round"/>
<path d="M115.021 252.148L113.896 245.322L109.1 239.088L101.186 234.16L91.1324 231.23L80.2016 230.697L69.794 232.652L61.262 236.909L55.677 242.753L53.6309 249.463" stroke="#63E0DB" stroke-linecap="round" stroke-linejoin="round"/>
<path d="M280.866 97.4487L274.214 95.6932L268.433 90.3945L264.136 82.0667L262.073 71.726L262.334 60.7416L265.05 50.4285L269.795 42.1981L275.933 37.0691L282.708 35.6505" stroke="#63E0DB" stroke-linecap="round" stroke-linejoin="round"/>
<path d="M294.169 99.0018L294.06 98.9252L287.718 97.3068L281.681 91.9093L277.701 83.4785L276.194 73.041L277.436 61.9335L281.297 51.6121L287.264 43.2646L294.584 38.0729L302.264 36.64" stroke="#63E0DB" stroke-linecap="round" stroke-linejoin="round"/>
<path d="M115.402 244.917L114.232 238.385L109.49 232.189L101.707 227.191L91.7369 223.911L80.9278 222.975L70.6643 224.38L62.2605 227.993L56.7269 233.304L54.8024 239.61" stroke="#63E0DB" stroke-linecap="round" stroke-linejoin="round"/>
<path d="M114.714 258.698L114.008 252.086L109.196 245.758L101.298 240.924L91.1609 238.342L80.1244 238.305L69.6269 240.85L60.9892 245.602L55.3144 252.036L53.2553 259.225" stroke="#63E0DB" stroke-linecap="round" stroke-linejoin="round"/>
<path d="M273.557 97.4317L267.199 95.7206L261.511 90.4057L257.083 82.1485L254.61 71.9268L254.446 60.9688L256.567 50.8069L260.664 42.6896" stroke="#63E0DB" stroke-linecap="round" stroke-linejoin="round"/>
<path d="M133.274 291.674L127.489 288.574L126.383 288.528L117.936 288.279L107.892 291.795L98.6008 298.858L91.2876 308.539L86.8511 319.677L85.9794 330.72L88.6733 340.282L94.5944 347.229" stroke="#63E0DB" stroke-linecap="round" stroke-linejoin="round"/>
<path d="M116.339 237.588L115.124 231.351L110.398 225.248L102.73 220.086L92.8593 216.551L82.1943 215.064L72.0749 215.918L63.8536 218.926L58.2179 223.92L56.6071 229.551" stroke="#63E0DB" stroke-linecap="round" stroke-linejoin="round"/>
<path d="M266.05 97.9268L260.025 96.2055L254.39 90.929L249.832 82.7423L247.043 72.6236L246.376 61.8007L247.903 51.7902L251.404 43.8242L256.637 38.7094L262.354 37.5229" stroke="#63E0DB" stroke-linecap="round" stroke-linejoin="round"/>
<path d="M198.042 290.953L193.391 295.011L190.702 302.979L190.256 313.996L192.385 326.666L196.657 339.297L202.599 350.252L209.421 357.997L216.114 361.656L221.911 360.933" stroke="#63E0DB" stroke-linecap="round" stroke-linejoin="round"/>
<path d="M384.679 209.445L386.041 203.475L383.042 196.307L375.935 188.851L365.506 182.068L353.151 176.863L340.53 173.998L329.369 173.791L320.982 176.112L316.373 180.688" stroke="#63E0DB" stroke-linecap="round" stroke-linejoin="round"/>
<path d="M117.832 230.163L116.572 224.22L111.862 218.21L104.217 212.901L94.5221 209L84.0716 207.094L74.1891 207.382L66.1503 209.785L60.905 213.994L58.4642 223.686L56.7268 233.304L55.6769 242.753L55.3144 252.036L55.6394 261.151L56.767 269.935L58.6589 278.442L56.6375 286.963L58.5265 294.898L59.1394 296.797L61.3869 303.762L65.0725 312.148L69.6918 320.133L75.1586 327.493L81.473 334.228L88.6733 340.282L96.7979 345.603L105.738 350.113L115.517 353.664L121.687 360.949L132.374 363.674L143.713 365.473L155.82 366.184L168.51 365.837L181.673 364.357L188.907 367.826L199.036 365.919L202.576 365.398L208.711 364.426" stroke="#63E0DB" stroke-linecap="round" stroke-linejoin="round"/>
<path d="M236.49 43.1729L232.562 47.8216L223.033 50.7228L213.545 54.1423L204.061 58.1345L194.656 62.5905L185.331 67.5102L176.085 72.8938L167.066 78.7634L158.204 84.9878" stroke="#63E0DB" stroke-linecap="round" stroke-linejoin="round"/>
<path d="M121.6 280.428L118.172 275.484L110.076 271.161L99.9925 270.003L89.0444 272.148L78.6768 277.393L70.2551 285.069L64.8188 294.28L62.9952 303.673L65.0725 312.148" stroke="#63E0DB" stroke-linecap="round" stroke-linejoin="round"/>
<path d="M258.437 98.9181L252.651 97.2028L247.164 91.9484L242.475 83.8324L239.369 73.8165L238.162 63.1833L239.148 53.3624L242.055 45.5478L246.524 40.7094L253.369 39.4218L256.468 38.8345L262.354 37.5229L267.115 36.885L272.634 36.2106" stroke="#63E0DB" stroke-linecap="round" stroke-linejoin="round"/>
<path d="M250.735 100.498L245.265 98.6801L237.866 100.637L230.4 103.036L222.92 105.915L215.505 109.165L208.169 112.878" stroke="#63E0DB" stroke-linecap="round" stroke-linejoin="round"/>
<path d="M122.28 215.201L120.876 209.809L116.237 203.93L108.745 198.403L99.4179 193.865L89.3258 190.989L79.9714 190.182L72.4063 191.451L67.5963 194.582" stroke="#63E0DB" stroke-linecap="round" stroke-linejoin="round"/>
<path d="M379.27 222.424L380.394 217.021L377.296 210.109L370.081 202.576L359.719 195.352L347.586 189.488L335.246 185.761L324.405 184.639L316.447 186.121L312.097 189.983" stroke="#63E0DB" stroke-linecap="round" stroke-linejoin="round"/>
<path d="M243.058 102.504L237.866 100.637L232.434 95.4211L227.536 87.4846L223.72 77.7834L221.58 67.5516L221.338 58.0879L223.033 50.7231L226.421 46.264" stroke="#63E0DB" stroke-linecap="round" stroke-linejoin="round"/>
<path d="M325.15 150.355L325.502 144.896L326.465 136.608L326.2 128.677L325.241 121.153L323.643 114.075L321.273 107.514L318.319 101.436L314.741 95.8973L310.632 90.8806L305.953 86.4408L300.814 82.6544L295.236 79.3742L289.237 76.6931L282.907 74.5947L276.194 73.0409L269.205 72.1083L262.073 71.7261L254.61 71.9269L247.043 72.6237L239.369 73.8166L231.551 75.56L223.72 77.7834L215.876 80.4868L208.003 83.5773L200.172 87.1861L192.458 91.2042L184.809 95.5934L177.277 100.392L169.886 105.453L162.706 110.906L155.721 116.661L148.985 122.754L142.482 129.093L136.251 135.623L130.346 142.384L124.767 149.374L119.552 156.54L114.686 163.788L110.184 171.212L106.177 178.74L102.558 186.297L99.4178 193.865L96.719 201.501L94.5222 209.001L92.8593 216.551L91.7368 223.911L91.1323 231.23L91.1609 238.342L91.7299 245.265L92.9162 251.889L94.6268 258.231L97.009 264.313L99.9925 270.003L103.616 275.248L107.786 280.063L112.595 284.432L117.936 288.279L123.939 291.533L130.418 294.226L137.727 294.243L137.912 294.211L139.536 294.214" stroke="#63E0DB" stroke-linecap="round" stroke-linejoin="round"/>
<path d="M207.722 287.261L203.797 291.097L201.965 298.773L202.468 309.481L205.416 321.912L210.43 334.415L216.742 345.305L223.673 353.126L230.104 356.927L235.399 356.339" stroke="#63E0DB" stroke-linecap="round" stroke-linejoin="round"/>
<path d="M235.274 105.005L230.4 103.036L225.021 97.8582L219.993 89.9923L215.876 80.4867L213.25 70.4829L212.429 61.2632L213.545 54.1425L216.354 49.9275" stroke="#63E0DB" stroke-linecap="round" stroke-linejoin="round"/>
<path d="M128.646 200.288L127.044 195.408L122.382 189.676L115.12 183.823L106.177 178.74L96.6452 174.954L87.8572 172.997L80.9129 173.156L76.6469 175.284" stroke="#63E0DB" stroke-linecap="round" stroke-linejoin="round"/>
<path d="M307.156 199.298L311.061 196.182L318.591 195.539L329.019 197.593L340.984 202.197L352.896 208.721L363.082 216.31L370.314 223.935L373.658 230.614L372.77 235.45" stroke="#63E0DB" stroke-linecap="round" stroke-linejoin="round"/>
<path d="M217.382 282.904L214.206 286.371L213.269 293.699L214.76 304.044L218.658 316.167L224.305 328.464L231.081 339.274L238.012 347.095L244.235 351.075L248.913 350.786" stroke="#63E0DB" stroke-linecap="round" stroke-linejoin="round"/>
<path d="M183.211 134.086L180.003 131.253L175.088 125.995L169.058 118.972L162.706 110.906L156.865 103.039L152.268 96.2918L149.591 91.5512L148.985 89.4117" stroke="#63E0DB" stroke-linecap="round" stroke-linejoin="round"/>
<path d="M301.442 208.557L304.94 206.133L312.003 206.384L321.887 209.439L333.369 214.844L344.968 222.044L355.032 230.036L362.279 237.754L365.761 244.122L365.219 248.468" stroke="#63E0DB" stroke-linecap="round" stroke-linejoin="round"/>
<path d="M163.502 151.657L160.917 148.286L156.134 142.957L149.688 136.293L142.482 129.093L135.394 122.302L129.395 116.85L125.225 113.42L123.333 112.412" stroke="#63E0DB" stroke-linecap="round" stroke-linejoin="round"/>
<path d="M227.062 277.827L224.634 280.925L224.615 287.759L227.133 297.686L231.872 309.424L238.229 321.406L245.414 332.097L252.454 339.995L258.322 344.132L262.475 344.125" stroke="#63E0DB" stroke-linecap="round" stroke-linejoin="round"/>
<path d="M295.085 217.689L298.084 215.973L304.587 217.133L313.857 221.06L324.817 227.32L336.009 235.211L345.859 243.623L353.161 251.38L356.835 257.475L356.715 261.222" stroke="#63E0DB" stroke-linecap="round" stroke-linejoin="round"/>
<path d="M236.685 272.139L234.99 274.775L235.888 281.115L239.308 290.455L244.926 301.753L252.086 313.404L259.626 323.937L266.704 331.781L272.326 336.152L275.823 336.498" stroke="#63E0DB" stroke-linecap="round" stroke-linejoin="round"/>
<path d="M135.484 188.397L136.684 185.657L134.922 181.234L130.237 175.649L123.222 169.562L114.686 163.788L105.768 159.131L97.7092 156.139L91.44 155.225L87.7723 156.389" stroke="#63E0DB" stroke-linecap="round" stroke-linejoin="round"/>
<path d="M336.964 285.775L336.223 283.133L332.018 277.56L324.793 269.694L315.405 260.629L305.133 251.431L295.456 243.467L287.6 237.765L282.435 234.939L280.58 235.262" stroke="#63E0DB" stroke-linecap="round" stroke-linejoin="round"/>
<path d="M288.162 226.585L290.57 225.593L296.403 227.586L305.021 232.439L315.421 239.608L326.098 248.115L335.772 256.891L343.035 264.703L346.994 270.51L347.258 273.712" stroke="#63E0DB" stroke-linecap="round" stroke-linejoin="round"/>
<path d="M140.395 180.854L141.381 178.533L139.465 174.329L134.742 168.798L127.804 162.602L119.552 156.54L110.979 151.392L103.266 147.911L97.3811 146.452L94.0589 147.126" stroke="#63E0DB" stroke-linecap="round" stroke-linejoin="round"/>
<path d="M325.909 297.301L324.638 295.182L320.148 289.897L312.923 282.031L303.896 272.569L294.194 262.794L285.201 254.09L278.106 247.539L273.757 243.902L272.603 243.577" stroke="#63E0DB" stroke-linecap="round" stroke-linejoin="round"/>
<path d="M246.05 265.779L245.179 267.937L246.979 273.69L251.355 282.482L257.876 293.193L265.636 304.452L273.608 314.72L280.741 322.601L286.062 327.168L289.012 327.944" stroke="#63E0DB" stroke-linecap="round" stroke-linejoin="round"/>
<path d="M145.671 173.487L146.426 171.493L144.318 167.561L139.595 162.03L132.788 155.763L124.766 149.374L116.556 143.83L109.226 139.804L103.779 137.838L100.819 138.115" stroke="#63E0DB" stroke-linecap="round" stroke-linejoin="round"/>
<path d="M131.598 104.381L133.036 105.803L136.714 109.7L142.313 115.604L148.985 122.754L155.906 130.242L162.237 137.069L167.02 142.398L169.851 145.536L170.295 146.175" stroke="#63E0DB" stroke-linecap="round" stroke-linejoin="round"/>
<path d="M199.336 123.444L197.405 123.876L193.78 121.402L188.773 116.16L183.028 108.849L177.277 100.392L172.306 91.7515L168.726 84.2544L167.066 78.7635L167.384 75.8899" stroke="#63E0DB" stroke-linecap="round" stroke-linejoin="round"/>
<path d="M151.365 166.333L151.798 164.682L149.536 160.968L144.829 155.53L138.176 149.045L130.346 142.384L122.496 136.442L115.605 131.91L110.558 129.492L107.943 129.279" stroke="#63E0DB" stroke-linecap="round" stroke-linejoin="round"/>
<path d="M255.226 258.879L255.071 260.483L257.758 265.556L263.112 273.652L270.442 283.792L278.842 294.606L287.246 304.607L294.432 312.527L299.414 317.344L301.802 318.456" stroke="#63E0DB" stroke-linecap="round" stroke-linejoin="round"/>
<path d="M191.776 128.63L190.222 128.757L186.767 126.158L181.814 120.954L175.938 113.713L169.886 105.452L164.461 97.2256L160.411 90.0492L158.204 84.9879" stroke="#63E0DB" stroke-linecap="round" stroke-linejoin="round"/>
<path d="M157.331 159.372L157.533 158.047L155.063 154.512L150.318 149.128L143.796 142.573L136.251 135.623L128.801 129.23L122.365 124.284L117.701 121.323L115.448 120.712" stroke="#63E0DB" stroke-linecap="round" stroke-linejoin="round"/>
<path d="M264.12 251.455L264.628 252.465L268.146 256.821L274.425 264.182L282.586 273.605L291.664 283.918L300.369 293.723L307.594 301.589L312.329 306.64L314.132 308.237" stroke="#63E0DB" stroke-linecap="round" stroke-linejoin="round"/>
<path d="M177.255 139.995L176.379 139.622L173.395 136.703L168.518 131.39L162.358 124.438L155.721 116.661L149.464 109.152L144.413 102.819L141.15 98.5621L140.167 96.7271" stroke="#63E0DB" stroke-linecap="round" stroke-linejoin="round"/>
<path d="M321.133 119.48L320.539 118.246L320.217 117.204L317.835 111.122L318.319 101.436L322.723 91.4979L330.496 82.5492L340.756 75.8426L352.168 72.2313L363.243 72.2136L372.526 75.6606L378.94 82.1389" stroke="#63E0DB" stroke-linecap="round" stroke-linejoin="round"/>
<path d="M322.903 122.277L323.642 114.075L328.506 104.869L336.919 96.8598L347.872 91.1312L360.054 88.3889L371.736 89.1253L381.486 93.0642L388.078 99.7502" stroke="#63E0DB" stroke-linecap="round" stroke-linejoin="round"/>
<path d="M184.41 134.116L183.825 134.6L177.255 139.995L177.009 140.229L170.296 146.175L163.716 152.623" stroke="#63E0DB" stroke-linecap="round" stroke-linejoin="round"/>
<path d="M207.108 118.652L205.093 119.432L197.405 123.876L190.222 128.757L183.211 134.086" stroke="#63E0DB" stroke-linecap="round" stroke-linejoin="round"/>
<path d="M214.981 114.176L212.845 115.36L207.108 118.652L204.783 119.295L200.896 116.963L195.796 111.736L190.221 104.3L184.809 95.5933L180.27 86.6867L177.236 78.76L176.085 72.894L176.927 69.7379" stroke="#63E0DB" stroke-linecap="round" stroke-linejoin="round"/>
<path d="M222.989 110.202L220.095 111.423L212.279 115.124L205.093 119.433L199.336 123.444L198.095 124.281L191.776 128.63L190.836 129.272L184.41 134.116L183.211 134.086L176.38 139.623L169.851 145.536L163.502 151.657L163.716 152.623L157.331 159.372L151.365 166.334L145.671 173.487L140.395 180.855L135.484 188.397L132.531 193.163L130.976 196.061L128.662 200.381L127.292 203.247L125.196 207.72L122.28 215.202L119.805 222.75" stroke="#63E0DB" stroke-linecap="round" stroke-linejoin="round"/>
<path d="M231.114 106.637L227.718 107.993L227.347 108.058L220.095 111.422L214.981 114.176L212.279 115.124L208.169 112.878L200.896 116.963L193.781 121.402L186.767 126.158L180.003 131.253L173.395 136.703L167.02 142.399L160.917 148.286L155.064 154.512L149.536 160.968L144.318 167.561L139.465 174.329L134.922 181.234L130.781 188.261L127.044 195.408L123.786 202.567L120.876 209.809L118.484 217.009L116.572 224.22L115.124 231.351L114.232 238.385L113.896 245.322L114.008 252.086L115.181 259.19L115.643 263.265" stroke="#63E0DB" stroke-linecap="round" stroke-linejoin="round"/>
<path d="M324.733 153.485L325.15 150.355L325.741 144.902L325.246 137.298L324.389 130.091L322.839 123.291L322.392 122.079L321.133 119.48L320.539 118.246L317.788 114.187L313.951 109.362L313.321 108.755L311.116 107.037L305.779 103.763L300.073 101.126L294.517 99.0843L294.13 99.0561L287.938 98.0326L280.866 97.4488L273.558 97.4317L266.05 97.9269L258.438 98.9181L250.735 100.498L243.058 102.504L236.132 104.713L235.367 104.989L231.114 106.638L227.61 107.917L222.92 105.915L217.635 100.721L212.437 92.9799L208.003 83.5773L204.907 73.8941L203.562 64.9569L204.061 58.1347L206.384 54.1476" stroke="#63E0DB" stroke-linecap="round" stroke-linejoin="round"/>
<path d="M313.584 108.614L313.395 108.073L310.505 100.981L310.632 90.8803L314.368 80.3895L321.364 70.8118L330.739 63.3995L341.266 59.0825L351.564 58.4357L360.396 61.4835L366.842 68.1474L373.147 74.5491L374.517 76.4122L378.939 82.1386L383.971 90.5773L388.078 99.7501L391.223 109.711L393.404 120.462L394.499 131.831L394.544 143.765L393.41 156.334L396.133 164.124L393.94 176.926L392.22 183.865L390.917 189.06L390.628 190.161L388.998 196.511" stroke="#63E0DB" stroke-linecap="round" stroke-linejoin="round"/>
<path d="M236.131 104.713L235.367 104.989L231.955 106.252L227.718 107.993L222.989 110.202L219.932 111.307L215.505 109.164L210.273 104.009L204.998 96.3768L200.172 87.1859L196.589 77.7307L194.681 69.1303L194.656 62.5906L196.4 58.8475" stroke="#63E0DB" stroke-linecap="round" stroke-linejoin="round"/>
</g>
</svg>
