<svg width="204" height="118" viewBox="0 0 204 118" fill="none" xmlns="http://www.w3.org/2000/svg">
<path d="M71 54.2565H68.5598V56.6967H71V54.2565Z" fill="black"/>
<path d="M68.5129 54.2565H66.0727V56.6967H68.5129V54.2565Z" fill="black"/>
<path d="M66.0727 54.2565H63.6326V56.6967H66.0727V54.2565Z" fill="black"/>
<path d="M63.6325 56.6967H61.1923V59.1368H63.6325V56.6967Z" fill="black"/>
<path d="M63.6325 54.2565H61.1923V56.6967H63.6325V54.2565Z" fill="#63E0DB"/>
<path d="M63.6325 51.8163H61.1923V54.2565H63.6325V51.8163Z" fill="black"/>
<path d="M61.1924 56.6967H58.7522V59.1368H61.1924V56.6967Z" fill="black"/>
<path d="M61.1924 54.2565H58.7522V56.6967H61.1924V54.2565Z" fill="#63E0DB"/>
<path d="M61.1924 51.8163H58.7522V54.2565H61.1924V51.8163Z" fill="black"/>
<path d="M58.7521 56.6967H56.312V59.1368H58.7521V56.6967Z" fill="black"/>
<path d="M58.7521 54.2565H56.312V56.6967H58.7521V54.2565Z" fill="#63E0DB"/>
<path d="M58.7521 51.8163H56.312V54.2565H58.7521V51.8163Z" fill="black"/>
<path d="M56.312 56.6967H53.8718V59.1368H56.312V56.6967Z" fill="black"/>
<path d="M56.312 54.2565H53.8718V56.6967H56.312V54.2565Z" fill="#63E0DB"/>
<path d="M56.312 51.8163H53.8718V54.2565H56.312V51.8163Z" fill="black"/>
<path d="M53.8248 59.1837H51.3846V61.6239H53.8248V59.1837Z" fill="black"/>
<path d="M53.8248 56.6967H51.3846V59.1368H53.8248V56.6967Z" fill="#63E0DB"/>
<path d="M53.8248 54.2565H51.3846V56.6967H53.8248V54.2565Z" fill="#63E0DB"/>
<path d="M53.8248 51.8163H51.3846V54.2565H53.8248V51.8163Z" fill="#63E0DB"/>
<path d="M53.8248 49.3761H51.3846V51.8163H53.8248V49.3761Z" fill="black"/>
<path d="M51.3846 59.1837H48.9445V61.6239H51.3846V59.1837Z" fill="black"/>
<path d="M51.3846 56.6967H48.9445V59.1368H51.3846V56.6967Z" fill="white"/>
<path d="M51.3846 54.2565H48.9445V56.6967H51.3846V54.2565Z" fill="#63E0DB"/>
<path d="M51.3846 51.8163H48.9445V54.2565H51.3846V51.8163Z" fill="#63E0DB"/>
<path d="M51.3846 49.3761H48.9445V51.8163H51.3846V49.3761Z" fill="black"/>
<path d="M48.9445 59.1837H46.5043V61.6239H48.9445V59.1837Z" fill="black"/>
<path d="M48.9445 56.6967H46.5043V59.1368H48.9445V56.6967Z" fill="#63E0DB"/>
<path d="M48.9445 54.2565H46.5043V56.6967H48.9445V54.2565Z" fill="white"/>
<path d="M48.9445 51.8163H46.5043V54.2565H48.9445V51.8163Z" fill="#63E0DB"/>
<path d="M48.9445 49.3761H46.5043V51.8163H48.9445V49.3761Z" fill="black"/>
<path d="M46.5043 59.1837H44.0641V61.6239H46.5043V59.1837Z" fill="black"/>
<path d="M46.5043 56.6967H44.0641V59.1368H46.5043V56.6967Z" fill="white"/>
<path d="M46.5043 54.2565H44.0641V56.6967H46.5043V54.2565Z" fill="#63E0DB"/>
<path d="M46.5043 51.8163H44.0641V54.2565H46.5043V51.8163Z" fill="white"/>
<path d="M46.5043 49.3761H44.0641V51.8163H46.5043V49.3761Z" fill="black"/>
<path d="M44.0641 61.6239H41.6239V64.0641H44.0641V61.6239Z" fill="black"/>
<path d="M44.0641 59.1837H41.6239V61.6239H44.0641V59.1837Z" fill="white"/>
<path d="M44.0641 56.6967H41.6239V59.1368H44.0641V56.6967Z" fill="#63E0DB"/>
<path d="M44.0641 54.2565H41.6239V56.6967H44.0641V54.2565Z" fill="white"/>
<path d="M44.0641 51.8163H41.6239V54.2565H44.0641V51.8163Z" fill="#63E0DB"/>
<path d="M44.0641 49.3761H41.6239V51.8163H44.0641V49.3761Z" fill="white"/>
<path d="M44.0641 46.9359H41.6239V49.3761H44.0641V46.9359Z" fill="black"/>
<path d="M41.6239 71.3846H39.1837V73.8248H41.6239V71.3846Z" fill="black"/>
<path d="M41.6239 68.9445H39.1837V71.3846H41.6239V68.9445Z" fill="black"/>
<path d="M41.6239 66.5043H39.1837V68.9445H41.6239V66.5043Z" fill="black"/>
<path d="M41.6239 64.0641H39.1837V66.5043H41.6239V64.0641Z" fill="black"/>
<path d="M41.6239 61.6239H39.1837V64.0641H41.6239V61.6239Z" fill="white"/>
<path d="M41.6239 59.1837H39.1837V61.6239H41.6239V59.1837Z" fill="white"/>
<path d="M41.6239 56.6967H39.1837V59.1368H41.6239V56.6967Z" fill="white"/>
<path d="M41.6239 54.2565H39.1837V56.6967H41.6239V54.2565Z" fill="#63E0DB"/>
<path d="M41.6239 51.8163H39.1837V54.2565H41.6239V51.8163Z" fill="white"/>
<path d="M41.6239 49.3761H39.1837V51.8163H41.6239V49.3761Z" fill="#63E0DB"/>
<path d="M41.6239 46.9359H39.1837V49.3761H41.6239V46.9359Z" fill="white"/>
<path d="M41.6239 44.4957H39.1837V46.9359H41.6239V44.4957Z" fill="black"/>
<path d="M41.6239 42.0085H39.1837V44.4487H41.6239V42.0085Z" fill="black"/>
<path d="M41.6239 39.5684H39.1837V42.0085H41.6239V39.5684Z" fill="black"/>
<path d="M41.6239 37.1282H39.1837V39.5684H41.6239V37.1282Z" fill="black"/>
<path d="M39.1368 81.1924H36.6967V83.6326H39.1368V81.1924Z" fill="black"/>
<path d="M39.1368 78.7522H36.6967V81.1924H39.1368V78.7522Z" fill="black"/>
<path d="M39.1368 76.312H36.6967V78.7522H39.1368V76.312Z" fill="black"/>
<path d="M39.1368 73.8718H36.6967V76.312H39.1368V73.8718Z" fill="black"/>
<path d="M39.1368 71.3846H36.6967V73.8248H39.1368V71.3846Z" fill="#63E0DB"/>
<path d="M39.1368 68.9445H36.6967V71.3846H39.1368V68.9445Z" fill="white"/>
<path d="M39.1368 66.5043H36.6967V68.9445H39.1368V66.5043Z" fill="#63E0DB"/>
<path d="M39.1368 64.0641H36.6967V66.5043H39.1368V64.0641Z" fill="white"/>
<path d="M39.1368 61.6239H36.6967V64.0641H39.1368V61.6239Z" fill="#63E0DB"/>
<path d="M39.1368 59.1837H36.6967V61.6239H39.1368V59.1837Z" fill="white"/>
<path d="M39.1368 56.6967H36.6967V59.1368H39.1368V56.6967Z" fill="white"/>
<path d="M39.1368 54.2565H36.6967V56.6967H39.1368V54.2565Z" fill="white"/>
<path d="M39.1368 51.8163H36.6967V54.2565H39.1368V51.8163Z" fill="#63E0DB"/>
<path d="M39.1368 49.3761H36.6967V51.8163H39.1368V49.3761Z" fill="white"/>
<path d="M39.1368 46.9359H36.6967V49.3761H39.1368V46.9359Z" fill="#63E0DB"/>
<path d="M39.1368 44.4957H36.6967V46.9359H39.1368V44.4957Z" fill="white"/>
<path d="M39.1368 42.0085H36.6967V44.4487H39.1368V42.0085Z" fill="#63E0DB"/>
<path d="M39.1368 39.5684H36.6967V42.0085H39.1368V39.5684Z" fill="#63E0DB"/>
<path d="M39.1368 37.1282H36.6967V39.5684H39.1368V37.1282Z" fill="#63E0DB"/>
<path d="M39.1368 34.688H36.6967V37.1282H39.1368V34.688Z" fill="black"/>
<path d="M39.1368 32.2478H36.6967V34.688H39.1368V32.2478Z" fill="black"/>
<path d="M39.1368 29.8076H36.6967V32.2478H39.1368V29.8076Z" fill="black"/>
<path d="M39.1368 27.3206H36.6967V29.7607H39.1368V27.3206Z" fill="black"/>
<path d="M36.6967 88.5598H34.2565V91H36.6967V88.5598Z" fill="black"/>
<path d="M36.6967 86.0728H34.2565V88.5129H36.6967V86.0728Z" fill="black"/>
<path d="M36.6967 83.6326H34.2565V86.0727H36.6967V83.6326Z" fill="black"/>
<path d="M36.6967 81.1924H34.2565V83.6326H36.6967V81.1924Z" fill="#63E0DB"/>
<path d="M36.6967 78.7522H34.2565V81.1924H36.6967V78.7522Z" fill="#63E0DB"/>
<path d="M36.6967 76.312H34.2565V78.7522H36.6967V76.312Z" fill="#63E0DB"/>
<path d="M36.6967 73.8718H34.2565V76.312H36.6967V73.8718Z" fill="#63E0DB"/>
<path d="M36.6967 71.3846H34.2565V73.8248H36.6967V71.3846Z" fill="#63E0DB"/>
<path d="M36.6967 68.9445H34.2565V71.3846H36.6967V68.9445Z" fill="#63E0DB"/>
<path d="M36.6967 66.5043H34.2565V68.9445H36.6967V66.5043Z" fill="white"/>
<path d="M36.6967 64.0641H34.2565V66.5043H36.6967V64.0641Z" fill="#63E0DB"/>
<path d="M36.6967 61.6239H34.2565V64.0641H36.6967V61.6239Z" fill="white"/>
<path d="M36.6967 59.1837H34.2565V61.6239H36.6967V59.1837Z" fill="#63E0DB"/>
<path d="M36.6967 56.6967H34.2565V59.1368H36.6967V56.6967Z" fill="white"/>
<path d="M36.6967 54.2565H34.2565V56.6967H36.6967V54.2565Z" fill="white"/>
<path d="M36.6967 51.8163H34.2565V54.2565H36.6967V51.8163Z" fill="white"/>
<path d="M36.6967 49.3761H34.2565V51.8163H36.6967V49.3761Z" fill="#63E0DB"/>
<path d="M36.6967 46.9359H34.2565V49.3761H36.6967V46.9359Z" fill="white"/>
<path d="M36.6967 44.4957H34.2565V46.9359H36.6967V44.4957Z" fill="#63E0DB"/>
<path d="M36.6967 42.0085H34.2565V44.4487H36.6967V42.0085Z" fill="white"/>
<path d="M36.6967 39.5684H34.2565V42.0085H36.6967V39.5684Z" fill="#63E0DB"/>
<path d="M36.6967 37.1282H34.2565V39.5684H36.6967V37.1282Z" fill="#63E0DB"/>
<path d="M36.6967 34.688H34.2565V37.1282H36.6967V34.688Z" fill="#63E0DB"/>
<path d="M36.6967 32.2478H34.2565V34.688H36.6967V32.2478Z" fill="#63E0DB"/>
<path d="M36.6967 29.8076H34.2565V32.2478H36.6967V29.8076Z" fill="#63E0DB"/>
<path d="M36.6967 27.3206H34.2565V29.7607H36.6967V27.3206Z" fill="#63E0DB"/>
<path d="M36.6967 24.8804H34.2565V27.3206H36.6967V24.8804Z" fill="black"/>
<path d="M36.6967 22.4402H34.2565V24.8804H36.6967V22.4402Z" fill="black"/>
<path d="M36.6967 20H34.2565V22.4402H36.6967V20Z" fill="black"/>
<path d="M34.2565 81.1924H31.8163V83.6326H34.2565V81.1924Z" fill="black"/>
<path d="M34.2565 78.7522H31.8163V81.1924H34.2565V78.7522Z" fill="black"/>
<path d="M34.2565 76.312H31.8163V78.7522H34.2565V76.312Z" fill="black"/>
<path d="M34.2565 73.8718H31.8163V76.312H34.2565V73.8718Z" fill="black"/>
<path d="M34.2565 71.3846H31.8163V73.8248H34.2565V71.3846Z" fill="#63E0DB"/>
<path d="M34.2565 68.9445H31.8163V71.3846H34.2565V68.9445Z" fill="#63E0DB"/>
<path d="M34.2565 66.5043H31.8163V68.9445H34.2565V66.5043Z" fill="#63E0DB"/>
<path d="M34.2565 64.0641H31.8163V66.5043H34.2565V64.0641Z" fill="white"/>
<path d="M34.2565 61.6239H31.8163V64.0641H34.2565V61.6239Z" fill="#63E0DB"/>
<path d="M34.2565 59.1837H31.8163V61.6239H34.2565V59.1837Z" fill="white"/>
<path d="M34.2565 56.6967H31.8163V59.1368H34.2565V56.6967Z" fill="#63E0DB"/>
<path d="M34.2565 54.2565H31.8163V56.6967H34.2565V54.2565Z" fill="white"/>
<path d="M34.2565 51.8163H31.8163V54.2565H34.2565V51.8163Z" fill="white"/>
<path d="M34.2565 49.3761H31.8163V51.8163H34.2565V49.3761Z" fill="white"/>
<path d="M34.2565 46.9359H31.8163V49.3761H34.2565V46.9359Z" fill="#63E0DB"/>
<path d="M34.2565 44.4957H31.8163V46.9359H34.2565V44.4957Z" fill="white"/>
<path d="M34.2565 42.0085H31.8163V44.4487H34.2565V42.0085Z" fill="#63E0DB"/>
<path d="M34.2565 39.5684H31.8163V42.0085H34.2565V39.5684Z" fill="white"/>
<path d="M34.2565 37.1282H31.8163V39.5684H34.2565V37.1282Z" fill="#63E0DB"/>
<path d="M34.2565 34.688H31.8163V37.1282H34.2565V34.688Z" fill="black"/>
<path d="M34.2565 32.2478H31.8163V34.688H34.2565V32.2478Z" fill="black"/>
<path d="M34.2565 29.8076H31.8163V32.2478H34.2565V29.8076Z" fill="black"/>
<path d="M34.2565 27.3206H31.8163V29.7607H34.2565V27.3206Z" fill="black"/>
<path d="M31.8163 71.3846H29.3761V73.8248H31.8163V71.3846Z" fill="black"/>
<path d="M31.8163 68.9445H29.3761V71.3846H31.8163V68.9445Z" fill="black"/>
<path d="M31.8163 66.5043H29.3761V68.9445H31.8163V66.5043Z" fill="black"/>
<path d="M31.8163 64.0641H29.3761V66.5043H31.8163V64.0641Z" fill="black"/>
<path d="M31.8163 61.6239H29.3761V64.0641H31.8163V61.6239Z" fill="white"/>
<path d="M31.8163 59.1837H29.3761V61.6239H31.8163V59.1837Z" fill="#63E0DB"/>
<path d="M31.8163 56.6967H29.3761V59.1368H31.8163V56.6967Z" fill="white"/>
<path d="M31.8163 54.2565H29.3761V56.6967H31.8163V54.2565Z" fill="#63E0DB"/>
<path d="M31.8163 51.8163H29.3761V54.2565H31.8163V51.8163Z" fill="white"/>
<path d="M31.8163 49.3761H29.3761V51.8163H31.8163V49.3761Z" fill="white"/>
<path d="M31.8163 46.9359H29.3761V49.3761H31.8163V46.9359Z" fill="white"/>
<path d="M31.8163 44.4957H29.3761V46.9359H31.8163V44.4957Z" fill="black"/>
<path d="M31.8163 42.0085H29.3761V44.4487H31.8163V42.0085Z" fill="black"/>
<path d="M31.8163 39.5684H29.3761V42.0085H31.8163V39.5684Z" fill="black"/>
<path d="M31.8163 37.1282H29.3761V39.5684H31.8163V37.1282Z" fill="black"/>
<path d="M29.376 61.6239H26.9359V64.0641H29.376V61.6239Z" fill="black"/>
<path d="M29.376 59.1837H26.9359V61.6239H29.376V59.1837Z" fill="white"/>
<path d="M29.376 56.6967H26.9359V59.1368H29.376V56.6967Z" fill="#63E0DB"/>
<path d="M29.376 54.2565H26.9359V56.6967H29.376V54.2565Z" fill="white"/>
<path d="M29.376 51.8163H26.9359V54.2565H29.376V51.8163Z" fill="#63E0DB"/>
<path d="M29.376 49.3761H26.9359V51.8163H29.376V49.3761Z" fill="white"/>
<path d="M29.376 46.9359H26.9359V49.3761H29.376V46.9359Z" fill="black"/>
<path d="M26.9359 59.1837H24.4957V61.6239H26.9359V59.1837Z" fill="black"/>
<path d="M26.9359 56.6967H24.4957V59.1368H26.9359V56.6967Z" fill="white"/>
<path d="M26.9359 54.2565H24.4957V56.6967H26.9359V54.2565Z" fill="#63E0DB"/>
<path d="M26.9359 51.8163H24.4957V54.2565H26.9359V51.8163Z" fill="white"/>
<path d="M26.9359 49.3761H24.4957V51.8163H26.9359V49.3761Z" fill="black"/>
<path d="M24.4488 59.1837H22.0086V61.6239H24.4488V59.1837Z" fill="black"/>
<path d="M24.4488 56.6967H22.0086V59.1368H24.4488V56.6967Z" fill="#63E0DB"/>
<path d="M24.4488 54.2565H22.0086V56.6967H24.4488V54.2565Z" fill="white"/>
<path d="M24.4488 51.8163H22.0086V54.2565H24.4488V51.8163Z" fill="#63E0DB"/>
<path d="M24.4488 49.3761H22.0086V51.8163H24.4488V49.3761Z" fill="black"/>
<path d="M22.0086 59.1837H19.5684V61.6239H22.0086V59.1837Z" fill="black"/>
<path d="M22.0086 56.6967H19.5684V59.1368H22.0086V56.6967Z" fill="#63E0DB"/>
<path d="M22.0086 54.2565H19.5684V56.6967H22.0086V54.2565Z" fill="#63E0DB"/>
<path d="M22.0086 51.8163H19.5684V54.2565H22.0086V51.8163Z" fill="white"/>
<path d="M22.0086 49.3761H19.5684V51.8163H22.0086V49.3761Z" fill="black"/>
<path d="M19.5684 59.1837H17.1282V61.6239H19.5684V59.1837Z" fill="black"/>
<path d="M19.5684 56.6967H17.1282V59.1368H19.5684V56.6967Z" fill="#63E0DB"/>
<path d="M19.5684 54.2565H17.1282V56.6967H19.5684V54.2565Z" fill="#63E0DB"/>
<path d="M19.5684 51.8163H17.1282V54.2565H19.5684V51.8163Z" fill="#63E0DB"/>
<path d="M19.5684 49.3761H17.1282V51.8163H19.5684V49.3761Z" fill="black"/>
<path d="M17.1282 56.6967H14.688V59.1368H17.1282V56.6967Z" fill="black"/>
<path d="M17.1282 54.2565H14.688V56.6967H17.1282V54.2565Z" fill="#63E0DB"/>
<path d="M17.1282 51.8163H14.688V54.2565H17.1282V51.8163Z" fill="black"/>
<path d="M14.688 56.6967H12.2479V59.1368H14.688V56.6967Z" fill="black"/>
<path d="M14.688 54.2565H12.2479V56.6967H14.688V54.2565Z" fill="#63E0DB"/>
<path d="M14.688 51.8163H12.2479V54.2565H14.688V51.8163Z" fill="black"/>
<path d="M12.2479 56.6967H9.80768V59.1368H12.2479V56.6967Z" fill="black"/>
<path d="M12.2479 54.2565H9.80768V56.6967H12.2479V54.2565Z" fill="#63E0DB"/>
<path d="M12.2479 51.8163H9.80768V54.2565H12.2479V51.8163Z" fill="black"/>
<path d="M9.76074 56.6967H7.32056V59.1368H9.76074V56.6967Z" fill="black"/>
<path d="M9.76074 54.2565H7.32056V56.6967H9.76074V54.2565Z" fill="#63E0DB"/>
<path d="M9.76074 51.8163H7.32056V54.2565H9.76074V51.8163Z" fill="black"/>
<path d="M7.32056 54.2565H4.88037V56.6967H7.32056V54.2565Z" fill="black"/>
<path d="M4.88037 54.2565H2.44019V56.6967H4.88037V54.2565Z" fill="black"/>
<path d="M2.44018 54.2565H0V56.6967H2.44018V54.2565Z" fill="black"/>
<rect x="113" y="17" width="17" height="18" fill="white"/>
<rect x="110" y="22" width="17" height="18" fill="white"/>
<path fill-rule="evenodd" clip-rule="evenodd" d="M132.708 2.45833V0H152.375V2.45833H132.708Z" fill="black"/>
<path fill-rule="evenodd" clip-rule="evenodd" d="M125.333 4.91671V2.45837H127.792H130.25H132.708V4.91671H125.333Z" fill="black"/>
<path fill-rule="evenodd" clip-rule="evenodd" d="M152.375 2.45837H154.833H157.292V4.91671H154.833H152.375V2.45837Z" fill="black"/>
<path fill-rule="evenodd" clip-rule="evenodd" d="M120.417 7.37496V4.91663H122.875H125.333V7.37496H122.875H120.417Z" fill="black"/>
<path fill-rule="evenodd" clip-rule="evenodd" d="M157.292 4.91663H159.75H162.208V7.37496H159.75H157.292V4.91663Z" fill="black"/>
<path fill-rule="evenodd" clip-rule="evenodd" d="M117.958 9.83333V7.375H120.417V9.83333H117.958Z" fill="black"/>
<path fill-rule="evenodd" clip-rule="evenodd" d="M162.208 7.375H164.667V9.83333H162.208V7.375Z" fill="black"/>
<path fill-rule="evenodd" clip-rule="evenodd" d="M115.5 12.2917V9.83337H117.958V12.2917H115.5Z" fill="black"/>
<path fill-rule="evenodd" clip-rule="evenodd" d="M164.667 9.83337H167.125V12.2917H164.667V9.83337Z" fill="black"/>
<path fill-rule="evenodd" clip-rule="evenodd" d="M115.5 12.2916V14.75V17.2083H113.042V14.75V12.2916H115.5Z" fill="black"/>
<path fill-rule="evenodd" clip-rule="evenodd" d="M167.125 12.2916H169.583V14.75H167.125V12.2916Z" fill="black"/>
<path fill-rule="evenodd" clip-rule="evenodd" d="M169.583 14.75H172.042V17.2083H169.583V14.75Z" fill="black"/>
<path fill-rule="evenodd" clip-rule="evenodd" d="M113.042 17.2084V19.6667V22.125H110.583V19.6667V17.2084H113.042Z" fill="black"/>
<path fill-rule="evenodd" clip-rule="evenodd" d="M172.042 17.2084H174.5V19.6667V22.125H172.042V19.6667V17.2084Z" fill="black"/>
<path fill-rule="evenodd" clip-rule="evenodd" d="M145 22.125H142.542V19.6666H145V22.125Z" fill="black"/>
<path fill-rule="evenodd" clip-rule="evenodd" d="M110.583 22.125V24.5833V27.0417V29.5H108.125V27.0417V24.5833V22.125H110.583Z" fill="black"/>
<path fill-rule="evenodd" clip-rule="evenodd" d="M145 22.125H147.458V24.5833H145V22.125Z" fill="black"/>
<path fill-rule="evenodd" clip-rule="evenodd" d="M174.5 22.125H176.958V24.5833V27.0417H174.5V24.5833V22.125Z" fill="black"/>
<path fill-rule="evenodd" clip-rule="evenodd" d="M147.458 24.5834H149.917V27.0417V29.5H147.458V27.0417V24.5834Z" fill="black"/>
<path fill-rule="evenodd" clip-rule="evenodd" d="M137.625 29.5H135.167V31.9583V34.4166V36.875V39.3333V41.7916H132.708V39.3333V36.875V34.4166V27.0416H135.167H137.625V29.5Z" fill="black"/>
<path fill-rule="evenodd" clip-rule="evenodd" d="M176.958 27.0416H179.417V29.5V31.9583V34.4166H176.958V31.9583V29.5V27.0416Z" fill="black"/>
<path fill-rule="evenodd" clip-rule="evenodd" d="M108.125 29.5V51.625H105.667V49.1667V46.7083V44.25V36.875V34.4167V31.9583V29.5H108.125Z" fill="black"/>
<path fill-rule="evenodd" clip-rule="evenodd" d="M122.875 34.4167H120.417V29.5H122.875V31.9583V34.4167Z" fill="black"/>
<path fill-rule="evenodd" clip-rule="evenodd" d="M137.625 29.5H140.083H142.542V31.9583H140.083H137.625V29.5Z" fill="black"/>
<path fill-rule="evenodd" clip-rule="evenodd" d="M149.917 29.5H152.375V31.9583V34.4167H145H142.542V31.9583H145H147.458H149.917V29.5Z" fill="black"/>
<path fill-rule="evenodd" clip-rule="evenodd" d="M122.875 34.4166H125.333V36.875V39.3333H127.792V41.7916V44.25H125.333V46.7083V49.1666H122.875V46.7083V44.25V41.7916V34.4166Z" fill="black"/>
<path fill-rule="evenodd" clip-rule="evenodd" d="M152.375 34.4166H154.833V36.875V39.3333H152.375V34.4166Z" fill="black"/>
<path fill-rule="evenodd" clip-rule="evenodd" d="M179.417 34.4166H181.875V36.875V39.3333V41.7916H179.417V39.3333V36.875V34.4166Z" fill="black"/>
<path fill-rule="evenodd" clip-rule="evenodd" d="M115.5 44.25H113.042V39.3334H115.5V41.7917V44.25Z" fill="black"/>
<path fill-rule="evenodd" clip-rule="evenodd" d="M142.542 41.7917V39.3334H145H147.458H152.375V41.7917H149.917H147.458H145H142.542Z" fill="black"/>
<path fill-rule="evenodd" clip-rule="evenodd" d="M154.833 39.3334H157.292V41.7917V44.25V49.1667H154.833V46.7084V44.25V39.3334Z" fill="black"/>
<path fill-rule="evenodd" clip-rule="evenodd" d="M179.417 63.9167V66.375H176.958H174.5V63.9167H172.042V56.5417V54.0834V51.625V49.1667V46.7084V44.25V41.7917V39.3334H174.5V46.7084V49.1667V51.625V54.0834V56.5417V59H176.958V61.4584V63.9167H179.417Z" fill="black"/>
<path fill-rule="evenodd" clip-rule="evenodd" d="M135.167 41.7916H137.625V44.25V46.7083V49.1666V54.0833H132.708V51.625H135.167V49.1666V41.7916Z" fill="black"/>
<path fill-rule="evenodd" clip-rule="evenodd" d="M142.542 41.7916V44.25V46.7083H140.083V41.7916H142.542Z" fill="black"/>
<path fill-rule="evenodd" clip-rule="evenodd" d="M181.875 41.7916H184.333V44.25V46.7083V49.1666V51.625V54.0833H181.875V41.7916Z" fill="black"/>
<path fill-rule="evenodd" clip-rule="evenodd" d="M115.5 44.25H117.958V46.7083V49.1667H115.5V46.7083V44.25Z" fill="black"/>
<path fill-rule="evenodd" clip-rule="evenodd" d="M127.792 44.25H130.25V46.7083V49.1667H127.792V44.25Z" fill="black"/>
<path fill-rule="evenodd" clip-rule="evenodd" d="M169.583 68.8334V71.2917H167.125H164.667V68.8334H162.208V66.375V63.9167H164.667V61.4584V59V56.5417V54.0834V51.625V49.1667V46.7084H167.125V51.625V59V61.4584V63.9167V66.375V68.8334H169.583Z" fill="black"/>
<path fill-rule="evenodd" clip-rule="evenodd" d="M117.958 49.1666H120.417V51.625V54.0833H117.958V51.625V49.1666Z" fill="black"/>
<path fill-rule="evenodd" clip-rule="evenodd" d="M125.333 49.1666H127.792V56.5416H125.333V49.1666Z" fill="black"/>
<path fill-rule="evenodd" clip-rule="evenodd" d="M130.25 49.1666H132.708V51.625H130.25V49.1666Z" fill="black"/>
<path fill-rule="evenodd" clip-rule="evenodd" d="M157.292 49.1666H159.75V51.625V54.0833V56.5416V59V61.4583V63.9166V66.375V68.8333H162.208V71.2916H159.75H157.292V68.8333H154.833V66.375V63.9166H157.292V49.1666Z" fill="black"/>
<path fill-rule="evenodd" clip-rule="evenodd" d="M108.125 51.625H110.583V54.0833V56.5417V59H108.125V56.5417V54.0833V51.625Z" fill="black"/>
<path fill-rule="evenodd" clip-rule="evenodd" d="M120.417 54.0834H122.875V56.5417H120.417V54.0834Z" fill="black"/>
<path fill-rule="evenodd" clip-rule="evenodd" d="M181.875 54.0834V63.9167H179.417V59V56.5417V54.0834H181.875Z" fill="black"/>
<path fill-rule="evenodd" clip-rule="evenodd" d="M122.875 56.5416H125.333V59H122.875V56.5416Z" fill="black"/>
<path fill-rule="evenodd" clip-rule="evenodd" d="M127.792 56.5416H130.25V59V61.4583H127.792V63.9166H125.333V61.4583V59H127.792V56.5416Z" fill="black"/>
<path fill-rule="evenodd" clip-rule="evenodd" d="M137.625 59V56.5416H140.083V59H137.625Z" fill="black"/>
<path fill-rule="evenodd" clip-rule="evenodd" d="M110.583 59H113.042V61.4583V63.9167H110.583V61.4583V59Z" fill="black"/>
<path fill-rule="evenodd" clip-rule="evenodd" d="M122.875 68.8334H120.417V61.4584H122.875V63.9167V68.8334Z" fill="black"/>
<path fill-rule="evenodd" clip-rule="evenodd" d="M113.042 63.9166H115.5V66.375V68.8333H113.042V66.375V63.9166Z" fill="black"/>
<path fill-rule="evenodd" clip-rule="evenodd" d="M127.792 63.9166H130.25V66.375V68.8333H127.792V66.375V63.9166Z" fill="black"/>
<path fill-rule="evenodd" clip-rule="evenodd" d="M172.042 63.9166V66.375V68.8333H169.583V66.375V63.9166H172.042Z" fill="black"/>
<path fill-rule="evenodd" clip-rule="evenodd" d="M88.4583 71.2917V68.8334H90.9166H93.375H95.8333V71.2917H98.2916H100.75H105.667V73.75H103.208H100.75H98.2916V76.2084H93.375H90.9166V73.75H93.375V71.2917H90.9166H88.4583Z" fill="black"/>
<path fill-rule="evenodd" clip-rule="evenodd" d="M115.5 68.8334H117.958V71.2917H115.5V68.8334Z" fill="black"/>
<path fill-rule="evenodd" clip-rule="evenodd" d="M122.875 68.8334H125.333V71.2917H127.792V73.75H125.333V76.2084V78.6667H120.417V76.2084H122.875V73.75V68.8334Z" fill="black"/>
<path fill-rule="evenodd" clip-rule="evenodd" d="M130.25 68.8334H132.708H135.167V71.2917H132.708H130.25V68.8334Z" fill="black"/>
<path fill-rule="evenodd" clip-rule="evenodd" d="M152.375 71.2917V68.8334H154.833V71.2917H152.375Z" fill="black"/>
<path fill-rule="evenodd" clip-rule="evenodd" d="M176.958 71.2917V68.8334H179.417H181.875H184.333H189.25V71.2917H184.333H181.875V73.75H179.417V71.2917H176.958Z" fill="black"/>
<path fill-rule="evenodd" clip-rule="evenodd" d="M86 71.2916H88.4583V73.75V76.2083V78.6666H90.9167H93.375H95.8333V81.125H88.4583H86V71.2916Z" fill="black"/>
<path fill-rule="evenodd" clip-rule="evenodd" d="M117.958 71.2916H120.417V73.75V76.2083H117.958V73.75V71.2916Z" fill="black"/>
<path fill-rule="evenodd" clip-rule="evenodd" d="M135.167 71.2916H152.375V73.75H149.917H147.458V76.2083H145V73.75H142.542H135.167V71.2916Z" fill="black"/>
<path fill-rule="evenodd" clip-rule="evenodd" d="M169.583 71.2916H176.958V73.75H174.5V76.2083H172.042V73.75H169.583V71.2916Z" fill="black"/>
<path fill-rule="evenodd" clip-rule="evenodd" d="M189.25 71.2916H191.708V73.75H189.25V71.2916Z" fill="black"/>
<path fill-rule="evenodd" clip-rule="evenodd" d="M105.667 73.75H108.125V76.2083H105.667V73.75Z" fill="black"/>
<path fill-rule="evenodd" clip-rule="evenodd" d="M127.792 73.75H130.25V76.2083H127.792V73.75Z" fill="black"/>
<path fill-rule="evenodd" clip-rule="evenodd" d="M176.958 76.2083V73.75H179.417V76.2083H176.958Z" fill="black"/>
<path fill-rule="evenodd" clip-rule="evenodd" d="M191.708 73.75H194.167V76.2083V78.6667H191.708V76.2083V73.75Z" fill="black"/>
<path fill-rule="evenodd" clip-rule="evenodd" d="M108.125 76.2084H110.583V78.6667H108.125V76.2084Z" fill="black"/>
<path fill-rule="evenodd" clip-rule="evenodd" d="M130.25 76.2084H132.708V78.6667H135.167V81.125V83.5834V86.0417H132.708V83.5834V81.125H130.25H127.792V78.6667H130.25V76.2084Z" fill="black"/>
<path fill-rule="evenodd" clip-rule="evenodd" d="M135.167 78.6667V76.2084H137.625H140.083H145V78.6667H142.542H140.083V81.125H142.542V83.5834H140.083V86.0417V90.9584H137.625V88.5V86.0417V83.5834V81.125V78.6667H135.167Z" fill="black"/>
<path fill-rule="evenodd" clip-rule="evenodd" d="M169.583 78.6667V76.2084H172.042V78.6667H169.583Z" fill="black"/>
<path fill-rule="evenodd" clip-rule="evenodd" d="M174.5 76.2084H176.958V78.6667V81.125H174.5V76.2084Z" fill="black"/>
<path fill-rule="evenodd" clip-rule="evenodd" d="M110.583 78.6666H113.042V81.125V83.5833V93.4166H115.5V95.875H117.958V98.3333H115.5H113.042V95.875H110.583V93.4166V90.9583V88.5V86.0416V78.6666Z" fill="black"/>
<path fill-rule="evenodd" clip-rule="evenodd" d="M162.208 81.125V78.6666H164.667H167.125H169.583V81.125H167.125V83.5833H164.667V81.125H162.208Z" fill="black"/>
<path fill-rule="evenodd" clip-rule="evenodd" d="M194.167 78.6666H196.625V81.125V83.5833V88.5H194.167V86.0416V83.5833V78.6666Z" fill="black"/>
<path fill-rule="evenodd" clip-rule="evenodd" d="M95.8333 81.125H98.2916H100.75V83.5833H98.2916H95.8333V81.125Z" fill="black"/>
<path fill-rule="evenodd" clip-rule="evenodd" d="M125.333 83.5833V81.125H127.792V83.5833H125.333Z" fill="black"/>
<path fill-rule="evenodd" clip-rule="evenodd" d="M154.833 83.5833V81.125H157.292H159.75H162.208V83.5833H154.833Z" fill="black"/>
<path fill-rule="evenodd" clip-rule="evenodd" d="M174.5 81.125V83.5833V86.0417V88.5H172.042V86.0417V83.5833V81.125H174.5Z" fill="black"/>
<path fill-rule="evenodd" clip-rule="evenodd" d="M100.75 83.5833H103.208V86.0416V88.4999V90.9583V93.4166V95.8749V98.3333V100.792H100.75V83.5833Z" fill="black"/>
<path fill-rule="evenodd" clip-rule="evenodd" d="M125.333 83.5833V86.0416V88.4999H122.875V86.0416V83.5833H125.333Z" fill="black"/>
<path fill-rule="evenodd" clip-rule="evenodd" d="M142.542 83.5833H145H147.458V86.0416H145H142.542V83.5833Z" fill="black"/>
<path fill-rule="evenodd" clip-rule="evenodd" d="M154.833 83.5833V86.0416H152.375H149.917V83.5833H152.375H154.833Z" fill="black"/>
<path fill-rule="evenodd" clip-rule="evenodd" d="M162.208 86.0416V83.5833H164.667V86.0416H162.208Z" fill="black"/>
<path fill-rule="evenodd" clip-rule="evenodd" d="M130.25 88.5001V86.0417H132.708V88.5001H130.25Z" fill="black"/>
<path fill-rule="evenodd" clip-rule="evenodd" d="M159.75 88.5001V86.0417H162.208V88.5001H159.75Z" fill="black"/>
<path fill-rule="evenodd" clip-rule="evenodd" d="M122.875 88.5V90.9583H125.333H127.792V93.4167H125.333H122.875V95.875H120.417H117.958V93.4167H120.417V90.9583V88.5H122.875Z" fill="black"/>
<path fill-rule="evenodd" clip-rule="evenodd" d="M127.792 90.9583V88.5H130.25V90.9583H127.792Z" fill="black"/>
<path fill-rule="evenodd" clip-rule="evenodd" d="M154.833 90.9583V88.5H157.292H159.75V90.9583H157.292H154.833Z" fill="black"/>
<path fill-rule="evenodd" clip-rule="evenodd" d="M172.042 88.5V105.708H169.583V103.25V100.792V98.3333V95.875V93.4167V90.9583V88.5H172.042Z" fill="black"/>
<path fill-rule="evenodd" clip-rule="evenodd" d="M179.417 95.875H176.958V88.5H179.417V90.9583V95.875Z" fill="black"/>
<path fill-rule="evenodd" clip-rule="evenodd" d="M196.625 88.5H199.083V90.9583V93.4167V95.875V100.792H196.625V98.3333V95.875V88.5Z" fill="black"/>
<path fill-rule="evenodd" clip-rule="evenodd" d="M140.083 90.9583H142.542V93.4166V95.8749H140.083V93.4166V90.9583Z" fill="black"/>
<path fill-rule="evenodd" clip-rule="evenodd" d="M149.917 93.4166V90.9583H152.375H154.833V93.4166H152.375H149.917Z" fill="black"/>
<path fill-rule="evenodd" clip-rule="evenodd" d="M145 95.8751V93.4167H147.458H149.917V95.8751H147.458H145Z" fill="black"/>
<path fill-rule="evenodd" clip-rule="evenodd" d="M142.542 98.3333V95.875H145V98.3333H142.542Z" fill="black"/>
<path fill-rule="evenodd" clip-rule="evenodd" d="M179.417 95.875H181.875V98.3333V100.792V103.25V105.708H184.333V108.167V113.083H181.875V110.625V108.167H179.417V103.25V95.875Z" fill="black"/>
<path fill-rule="evenodd" clip-rule="evenodd" d="M110.583 100.792V98.3333H113.042V100.792H110.583Z" fill="black"/>
<path fill-rule="evenodd" clip-rule="evenodd" d="M142.542 98.3333V100.792V103.25H140.083V100.792V98.3333H142.542Z" fill="black"/>
<path fill-rule="evenodd" clip-rule="evenodd" d="M100.75 100.792V103.25V105.708V108.167V110.625V113.083H98.2917V110.625V108.167V105.708V103.25V100.792H100.75Z" fill="black"/>
<path fill-rule="evenodd" clip-rule="evenodd" d="M108.125 103.25V100.792H110.583V103.25H108.125Z" fill="black"/>
<path fill-rule="evenodd" clip-rule="evenodd" d="M199.083 100.792H201.542V103.25V105.708V110.625H199.083V108.167V105.708V100.792Z" fill="black"/>
<path fill-rule="evenodd" clip-rule="evenodd" d="M108.125 103.25V105.708V108.167H105.667V105.708V103.25H108.125Z" fill="black"/>
<path fill-rule="evenodd" clip-rule="evenodd" d="M140.083 103.25V105.708V108.167V110.625H137.625V105.708V103.25H140.083Z" fill="black"/>
<path fill-rule="evenodd" clip-rule="evenodd" d="M172.042 105.708H174.5V108.167V110.625V113.083H172.042V110.625V108.167V105.708Z" fill="black"/>
<path fill-rule="evenodd" clip-rule="evenodd" d="M105.667 108.167V115.542H103.208V113.083V110.625V108.167H105.667Z" fill="black"/>
<path fill-rule="evenodd" clip-rule="evenodd" d="M179.417 108.167V118H176.958V115.542H174.5V113.083H176.958V110.625V108.167H179.417Z" fill="black"/>
<path fill-rule="evenodd" clip-rule="evenodd" d="M201.542 110.625H204V113.083V115.542V118H201.542V110.625Z" fill="black"/>
<path fill-rule="evenodd" clip-rule="evenodd" d="M98.2916 113.083V118H95.8333V115.542V113.083H98.2916Z" fill="black"/>
<path fill-rule="evenodd" clip-rule="evenodd" d="M184.333 113.083H186.792V115.542V118H184.333V113.083Z" fill="black"/>
<path fill-rule="evenodd" clip-rule="evenodd" d="M105.667 118V115.542H108.125V118H105.667Z" fill="black"/>
<path fill-rule="evenodd" clip-rule="evenodd" d="M140.083 36.875V34.4166H142.542H145H147.458V36.875H142.542H140.083Z" fill="#71466B"/>
<path fill-rule="evenodd" clip-rule="evenodd" d="M137.625 36.875H140.083V39.3333H137.625V36.875Z" fill="#71466B"/>
<path fill-rule="evenodd" clip-rule="evenodd" d="M145 41.7916V46.7083H142.542V44.25V41.7916H145Z" fill="#C4C0D6"/>
<path fill-rule="evenodd" clip-rule="evenodd" d="M149.917 41.7916H152.375V44.25H149.917V41.7916Z" fill="#C4C0D6"/>
<path fill-rule="evenodd" clip-rule="evenodd" d="M147.458 44.25V41.7916H149.917V44.25H147.458Z" fill="#581B8F"/>
<path fill-rule="evenodd" clip-rule="evenodd" d="M145 44.25H147.458V46.7083H145V44.25Z" fill="#581B8F"/>
<path fill-rule="evenodd" clip-rule="evenodd" d="M147.458 44.25H149.917V46.7083V49.1667H147.458H145V46.7083H147.458V44.25Z" fill="#F2AAFE"/>
<path fill-rule="evenodd" clip-rule="evenodd" d="M145 41.7916H147.458V44.25H145V41.7916Z" fill="#F6F4FF"/>
<path fill-rule="evenodd" clip-rule="evenodd" d="M152.375 44.25V46.7083V49.1667H149.917V46.7083V44.25H152.375Z" fill="#F6F4FF"/>
<path fill-rule="evenodd" clip-rule="evenodd" d="M142.542 46.7083H145V49.1666H142.542V46.7083Z" fill="#F6F4FF"/>
<path fill-rule="evenodd" clip-rule="evenodd" d="M147.458 54.0833V51.625H149.917H152.375H154.833V56.5417H149.917V54.0833H147.458Z" fill="#FF8F8F"/>
<path fill-rule="evenodd" clip-rule="evenodd" d="M145 61.4584H147.458V63.9167V66.375H145H142.542H140.083V63.9167H142.542H145V61.4584Z" fill="#E36C6C"/>
<path fill-rule="evenodd" clip-rule="evenodd" d="M132.708 2.45837H152.375V4.91671H154.833H157.292V7.37504H159.75H162.208V9.83337H164.667V12.2917V14.75H167.125V17.2084V19.6667V22.125H169.583V31.9584V39.3334V54.0834H167.125V51.625V49.1667V46.7084V44.25H164.667V51.625V54.0834V56.5417H162.208V59V68.8334H159.75V66.375V63.9167V61.4584V59V56.5417V51.625V49.1667V46.7084V44.25H157.292V41.7917V39.3334V36.875H154.833V34.4167V31.9584V29.5H152.375V27.0417V24.5834H149.917V22.125H147.458V19.6667H145V17.2084H142.542H140.083V19.6667V22.125H142.542V24.5834H145V27.0417H147.458V29.5H149.917V31.9584H147.458H142.542V29.5H140.083H137.625V27.0417H135.167V24.5834H132.708V22.125H130.25V29.5V34.4167V36.875H132.708V39.3334V41.7917V44.25H135.167V51.625H132.708V49.1667H130.25V46.7084V44.25H127.792V41.7917V39.3334H125.333V36.875V34.4167H122.875V31.9584V29.5H120.417V34.4167V36.875V39.3334V41.7917H122.875V44.25V46.7084V49.1667V51.625H125.333V54.0834V56.5417H122.875V54.0834H120.417V51.625V49.1667H117.958V46.7084V44.25H115.5V41.7917V39.3334H113.042V49.1667H115.5V51.625V54.0834H117.958V56.5417V59V61.4584H120.417V71.2917H117.958V68.8334H115.5V66.375V63.9167H113.042V61.4584V59H110.583V56.5417V54.0834V51.625H108.125V29.5H110.583V34.4167H113.042V31.9584V29.5V27.0417H115.5V19.6667H117.958V17.2084H115.5V14.75V12.2917H117.958V9.83337H120.417V7.37504H122.875H125.333V4.91671H127.792H130.25H132.708V2.45837ZM122.875 19.6667V22.125V24.5834V27.0417H125.333V24.5834V22.125V19.6667H122.875Z" fill="#63E0DB"/>
<path fill-rule="evenodd" clip-rule="evenodd" d="M115.5 17.2084V19.6667H113.042V17.2084H115.5Z" fill="#63E0DB"/>
<path fill-rule="evenodd" clip-rule="evenodd" d="M125.333 56.5417H127.792V59.0001H125.333V56.5417Z" fill="#63E0DB"/>
<path fill-rule="evenodd" clip-rule="evenodd" d="M120.417 71.2917H122.875V73.7501V76.2084H120.417V71.2917Z" fill="#63E0DB"/>
<path fill-rule="evenodd" clip-rule="evenodd" d="M164.667 12.2916H167.125V14.75H164.667V12.2916Z" fill="#139B96"/>
<path fill-rule="evenodd" clip-rule="evenodd" d="M167.125 14.75H169.583V17.2083H172.042V19.6667V22.125H174.5V24.5833V27.0417H176.958V29.5V31.9583V34.4167H179.417V36.875V39.3333V41.7917H181.875V49.1667V54.0833H179.417V56.5417V59V63.9167H176.958V61.4583V59H174.5V56.5417V51.625V44.25V39.3333H172.042V41.7917V44.25V49.1667V56.5417V59V61.4583V63.9167H169.583V66.375V68.8333H167.125V66.375V63.9167V61.4583V59V56.5417V54.0833H169.583V51.625V49.1667V46.7083V36.875V27.0417V24.5833V22.125H167.125V19.6667V17.2083V14.75Z" fill="#139B96"/>
<path fill-rule="evenodd" clip-rule="evenodd" d="M145 19.6666H142.542V22.1249H140.083V19.6666V17.2083H142.542H145V19.6666Z" fill="#139B96"/>
<path fill-rule="evenodd" clip-rule="evenodd" d="M145 22.125V19.6666H147.458V22.125H145Z" fill="#139B96"/>
<path fill-rule="evenodd" clip-rule="evenodd" d="M130.25 22.125H132.708V24.5833H135.167V27.0417H132.708V29.5V31.9583V34.4167V36.875H130.25V34.4167V29.5V22.125Z" fill="#139B96"/>
<path fill-rule="evenodd" clip-rule="evenodd" d="M142.542 22.125H145V24.5833H142.542V22.125Z" fill="#139B96"/>
<path fill-rule="evenodd" clip-rule="evenodd" d="M147.458 24.5833V22.125H149.917V24.5833H147.458Z" fill="#139B96"/>
<path fill-rule="evenodd" clip-rule="evenodd" d="M145 24.5833H147.458V27.0416H145V24.5833Z" fill="#139B96"/>
<path fill-rule="evenodd" clip-rule="evenodd" d="M149.917 24.5833H152.375V27.0416V29.4999H149.917V27.0416V24.5833Z" fill="#139B96"/>
<path fill-rule="evenodd" clip-rule="evenodd" d="M152.375 29.5H154.833V31.9583V34.4167H152.375V29.5Z" fill="#139B96"/>
<path fill-rule="evenodd" clip-rule="evenodd" d="M120.417 34.4166H122.875V36.875V39.3333V41.7916H120.417V34.4166Z" fill="#139B96"/>
<path fill-rule="evenodd" clip-rule="evenodd" d="M154.833 39.3333V36.875H157.292V39.3333H154.833Z" fill="#139B96"/>
<path fill-rule="evenodd" clip-rule="evenodd" d="M132.708 44.25V41.7916H135.167V44.25H132.708Z" fill="#139B96"/>
<path fill-rule="evenodd" clip-rule="evenodd" d="M113.042 44.25H115.5V46.7083V49.1667H113.042V44.25Z" fill="#139B96"/>
<path fill-rule="evenodd" clip-rule="evenodd" d="M157.292 44.25H159.75V46.7083V49.1667H157.292V46.7083V44.25Z" fill="#139B96"/>
<path fill-rule="evenodd" clip-rule="evenodd" d="M164.667 46.7083V44.25H167.125V46.7083H164.667Z" fill="#139B96"/>
<path fill-rule="evenodd" clip-rule="evenodd" d="M115.5 49.1666H117.958V51.625V54.0833H115.5V51.625V49.1666Z" fill="#139B96"/>
<path fill-rule="evenodd" clip-rule="evenodd" d="M122.875 51.625V49.1666H125.333V51.625H122.875Z" fill="#139B96"/>
<path fill-rule="evenodd" clip-rule="evenodd" d="M117.958 54.0833H120.417V56.5416H122.875V58.9999H125.333V61.4583V63.9166H127.792V66.3749V68.8333H130.25V71.2916H132.708H135.167V73.7499H137.625H140.083H142.542H145V76.2083H140.083H137.625H135.167V78.6666H132.708V76.2083H130.25V73.7499H127.792V71.2916H125.333V68.8333H122.875V61.4583H117.958V54.0833Z" fill="#139B96"/>
<path fill-rule="evenodd" clip-rule="evenodd" d="M162.208 56.5416H164.667V59V61.4583V63.9166H162.208V56.5416Z" fill="#139B96"/>
<path fill-rule="evenodd" clip-rule="evenodd" d="M122.875 68.8333V71.2916H120.417V68.8333H122.875Z" fill="#139B96"/>
<path fill-rule="evenodd" clip-rule="evenodd" d="M137.625 34.4166H140.083V36.875H137.625V34.4166Z" fill="#FFF4E6"/>
<path fill-rule="evenodd" clip-rule="evenodd" d="M152.375 44.25H154.833V46.7083V49.1667V51.625H147.458V54.0833H149.917V56.5417H152.375H154.833V59V61.4583V63.9167V66.375H152.375V68.8333H149.917V71.2917H147.458H145H142.542H140.083H137.625H135.167V68.8333H130.25V63.9167H132.708V61.4583V59V56.5417H135.167H137.625V59H140.083H142.542V56.5417H140.083V54.0833V51.625V49.1667V46.7083H142.542V49.1667H152.375V44.25ZM147.458 61.4583H145V63.9167H142.542H140.083V66.375H142.542H145V68.8333H147.458V66.375V63.9167V61.4583Z" fill="#FFF4E6"/>
<path fill-rule="evenodd" clip-rule="evenodd" d="M88.4583 71.2916H90.9166H93.375V73.75H90.9166V76.2083H88.4583V71.2916Z" fill="#FFF4E6"/>
<path fill-rule="evenodd" clip-rule="evenodd" d="M194.167 78.6666V93.4166V100.792V108.167H191.708V110.625V113.083V115.542H189.25V118H186.792V113.083H184.333V110.625V108.167V105.708H181.875V103.25V100.792V98.3333V95.875H179.417V93.4166V90.9583V88.5V86.0416V83.5833V81.125V78.6666V76.2083H181.875V73.75V71.2916H184.333H186.792H189.25V73.75H191.708V76.2083V78.6666H194.167Z" fill="#FFF4E6"/>
<path fill-rule="evenodd" clip-rule="evenodd" d="M98.2916 73.75H100.75H103.208H105.667V76.2083H103.208H100.75H98.2916V73.75Z" fill="#FFF4E6"/>
<path fill-rule="evenodd" clip-rule="evenodd" d="M152.375 81.1249V76.2083H154.833V78.6666V81.1249H152.375Z" fill="#FFF4E6"/>
<path fill-rule="evenodd" clip-rule="evenodd" d="M103.208 83.5833H100.75V81.125H103.208V83.5833Z" fill="#FFF4E6"/>
<path fill-rule="evenodd" clip-rule="evenodd" d="M127.792 83.5833V81.125H130.25V83.5833H127.792Z" fill="#FFF4E6"/>
<path fill-rule="evenodd" clip-rule="evenodd" d="M152.375 81.125V83.5833H149.917V81.125H152.375Z" fill="#FFF4E6"/>
<path fill-rule="evenodd" clip-rule="evenodd" d="M103.208 83.5833H105.667V86.0416H108.125V88.4999V90.9583V93.4166V95.8749V98.3333H105.667V100.792V103.25V105.708H103.208V108.167V110.625V113.083H100.75V105.708V103.25V100.792H103.208V98.3333V95.8749V93.4166V83.5833Z" fill="#FFF4E6"/>
<path fill-rule="evenodd" clip-rule="evenodd" d="M127.792 83.5833V86.0416V88.4999H125.333V86.0416V83.5833H127.792Z" fill="#FFF4E6"/>
<path fill-rule="evenodd" clip-rule="evenodd" d="M142.542 86.0416H140.083V83.5833H142.542V86.0416Z" fill="#FFF4E6"/>
<path fill-rule="evenodd" clip-rule="evenodd" d="M154.833 86.0416V83.5833H157.292H159.75V86.0416H154.833Z" fill="#FFF4E6"/>
<path fill-rule="evenodd" clip-rule="evenodd" d="M142.542 86.0416H147.458H154.833V88.5H152.375H149.917V90.9583H147.458H142.542V86.0416Z" fill="#FFF4E6"/>
<path fill-rule="evenodd" clip-rule="evenodd" d="M125.333 88.5V90.9583H122.875V88.5H125.333Z" fill="#FFF4E6"/>
<path fill-rule="evenodd" clip-rule="evenodd" d="M100.75 113.083V118H98.2916V115.542V113.083H100.75Z" fill="#FFF4E6"/>
<path fill-rule="evenodd" clip-rule="evenodd" d="M135.167 29.5H137.625V31.9583H140.083H142.542V34.4167H140.083H137.625V36.875V39.3333H140.083V36.875H142.542H145H147.458V34.4167H149.917H152.375V39.3333H142.542V41.7917H140.083V44.25V46.7083V49.1667V56.5417H132.708V63.9167H127.792V61.4583H130.25V59V56.5417H127.792V49.1667H130.25V51.625H132.708V54.0833H137.625V46.7083V44.25V41.7917H135.167V39.3333V36.875V34.4167V31.9583V29.5Z" fill="#F4B7AB"/>
<path fill-rule="evenodd" clip-rule="evenodd" d="M152.375 39.3334H154.833V44.25H152.375V41.7917V39.3334Z" fill="#F4B7AB"/>
<path fill-rule="evenodd" clip-rule="evenodd" d="M127.792 49.1667H125.333V44.25H127.792V46.7083V49.1667Z" fill="#F4B7AB"/>
<path fill-rule="evenodd" clip-rule="evenodd" d="M154.833 49.1666H157.292V51.625V54.0833V56.5416V59V61.4583V63.9166H154.833V61.4583V59V56.5416V54.0833V51.625V49.1666Z" fill="#F4B7AB"/>
<path fill-rule="evenodd" clip-rule="evenodd" d="M140.083 56.5416H142.542V59H140.083V56.5416Z" fill="#F4B7AB"/>
<path fill-rule="evenodd" clip-rule="evenodd" d="M145 68.8333V66.375H147.458V68.8333H145Z" fill="#F4B7AB"/>
<path fill-rule="evenodd" clip-rule="evenodd" d="M152.375 68.8333V66.375H154.833V68.8333H152.375Z" fill="#F4B7AB"/>
<path fill-rule="evenodd" clip-rule="evenodd" d="M152.375 68.8334V71.2917H149.917V68.8334H152.375Z" fill="#F4B7AB"/>
<path fill-rule="evenodd" clip-rule="evenodd" d="M154.833 68.8334H157.292V71.2917H159.75H162.208V68.8334H164.667V71.2917H167.125H169.583V73.75H172.042V76.2084H169.583V78.6667H167.125H164.667H162.208V81.125H154.833V78.6667V76.2084H152.375V81.125H149.917V83.5834V86.0417H147.458V83.5834H145H142.542V81.125H140.083V78.6667H142.542H145V76.2084H147.458V73.75H149.917H152.375V71.2917H154.833V68.8334Z" fill="#F4B7AB"/>
<path fill-rule="evenodd" clip-rule="evenodd" d="M179.417 76.2083V73.75H181.875V76.2083H179.417Z" fill="#F4B7AB"/>
<path fill-rule="evenodd" clip-rule="evenodd" d="M88.4583 78.6667V76.2084H108.125V78.6667H110.583V81.125V83.5834V86.0417V88.5V90.9584V93.4167V95.875H113.042V98.3334H110.583V100.792H108.125V103.25H105.667V100.792V98.3334H108.125V95.875V93.4167V90.9584V88.5V86.0417H105.667V83.5834H103.208V81.125H100.75H98.2916H95.8333V78.6667H93.375H90.9166H88.4583Z" fill="#F4B7AB"/>
<path fill-rule="evenodd" clip-rule="evenodd" d="M179.417 76.2084V78.6667V81.125V83.5834V86.0417V88.5H176.958V90.9584V93.4167V95.875H179.417V98.3334V100.792V103.25V105.708V108.167H176.958V110.625V113.083H174.5V110.625V108.167V105.708H172.042V103.25V100.792V98.3334V95.875V93.4167V90.9584V88.5H174.5V86.0417V83.5834V81.125H176.958V78.6667V76.2084H179.417Z" fill="#F4B7AB"/>
<path fill-rule="evenodd" clip-rule="evenodd" d="M127.792 88.5V86.0417V83.5833H130.25V81.125H132.708V83.5833V86.0417H130.25V88.5H127.792Z" fill="#F4B7AB"/>
<path fill-rule="evenodd" clip-rule="evenodd" d="M152.375 81.125H154.833V83.5833H152.375V81.125Z" fill="#F4B7AB"/>
<path fill-rule="evenodd" clip-rule="evenodd" d="M162.208 83.5833V81.125H164.667V83.5833H162.208Z" fill="#F4B7AB"/>
<path fill-rule="evenodd" clip-rule="evenodd" d="M159.75 86.0416V83.5833H162.208V86.0416H159.75Z" fill="#F4B7AB"/>
<path fill-rule="evenodd" clip-rule="evenodd" d="M142.542 90.9584H140.083V88.5001V86.0417H142.542V90.9584Z" fill="#F4B7AB"/>
<path fill-rule="evenodd" clip-rule="evenodd" d="M154.833 88.5001V86.0417H157.292H159.75V88.5001H157.292H154.833Z" fill="#F4B7AB"/>
<path fill-rule="evenodd" clip-rule="evenodd" d="M127.792 88.5V90.9583H125.333V88.5H127.792Z" fill="#F4B7AB"/>
<path fill-rule="evenodd" clip-rule="evenodd" d="M149.917 90.9583V88.5H152.375H154.833V90.9583H152.375H149.917Z" fill="#F4B7AB"/>
<path fill-rule="evenodd" clip-rule="evenodd" d="M201.542 110.625V118H196.625H189.25V115.542H191.708V113.083V110.625V108.167H194.167V105.708V103.25V100.792V98.3333V95.875V93.4167V90.9583V88.5H196.625V93.4167V95.875V98.3333V100.792H199.083V105.708V108.167V110.625H201.542Z" fill="#F4B7AB"/>
<path fill-rule="evenodd" clip-rule="evenodd" d="M142.542 90.9583H149.917V93.4166H147.458H145V95.8749H142.542V93.4166V90.9583Z" fill="#F4B7AB"/>
<path fill-rule="evenodd" clip-rule="evenodd" d="M103.208 108.167V105.708H105.667V108.167H103.208Z" fill="#F4B7AB"/>
<path fill-rule="evenodd" clip-rule="evenodd" d="M105.667 118H100.75V113.083H103.208V115.542H105.667V118Z" fill="#F4B7AB"/>
<path fill-rule="evenodd" clip-rule="evenodd" d="M176.958 73.75V71.2916H179.417V73.75H176.958Z" fill="#63E0DB"/>
<path fill-rule="evenodd" clip-rule="evenodd" d="M174.5 76.2083V73.75H176.958V76.2083H174.5Z" fill="#63E0DB"/>
<path fill-rule="evenodd" clip-rule="evenodd" d="M172.042 78.6666V76.2083H174.5V78.6666H172.042Z" fill="#63E0DB"/>
<path fill-rule="evenodd" clip-rule="evenodd" d="M172.042 78.6666V81.125V83.5833V86.0416H169.583V88.5V90.9583V93.4166V95.875H167.125V98.3333V100.792V103.25V105.708H164.667V108.167V110.625H162.208V113.083H159.75H157.292V115.542H149.917V113.083H145V110.625H142.542V108.167H140.083V103.25H142.542V100.792V98.3333H145V95.875H147.458H149.917V93.4166H152.375H154.833V90.9583H157.292H159.75V88.5H162.208V86.0416H164.667V83.5833H167.125V81.125H169.583V78.6666H172.042Z" fill="#63E0DB"/>
<path fill-rule="evenodd" clip-rule="evenodd" d="M108.125 110.625V103.25H110.583V100.792H113.042V98.3333H115.5H117.958V95.8749H120.417H122.875V93.4166H125.333H127.792V90.9583H130.25V88.4999H132.708V86.0416H135.167V83.5833H137.625V86.0416V88.4999V90.9583V93.4166V95.8749H135.167V98.3333V100.792V103.25H132.708V105.708V108.167H130.25V110.625H127.792H125.333V113.083H122.875H120.417H117.958H115.5H113.042H110.583V110.625H108.125Z" fill="#63E0DB"/>
<path fill-rule="evenodd" clip-rule="evenodd" d="M135.167 78.6666H137.625V81.125V83.5833H135.167V81.125V78.6666Z" fill="#2A9691"/>
<path fill-rule="evenodd" clip-rule="evenodd" d="M172.042 78.6666H174.5V81.125H172.042V78.6666Z" fill="#2A9691"/>
<path fill-rule="evenodd" clip-rule="evenodd" d="M169.583 88.5V86.0416H172.042V88.5H169.583Z" fill="#2A9691"/>
<path fill-rule="evenodd" clip-rule="evenodd" d="M176.958 115.542V118H174.5H172.042H164.667H157.292H147.458H140.083H130.25H122.875H115.5H110.583H108.125V115.542H105.667V108.167H108.125V110.625H110.583V113.083H120.417H122.875H125.333V110.625H127.792H130.25V108.167H132.708V105.708V103.25H135.167V100.792V98.3333V95.8749H137.625V93.4166V90.9583H140.083V93.4166V95.8749H142.542V98.3333H140.083V100.792V103.25H137.625V105.708V108.167V110.625H140.083V108.167H142.542V110.625H145V113.083H147.458H149.917V115.542H152.375H154.833H157.292V113.083H159.75H162.208V110.625H164.667V108.167V105.708H167.125V103.25V100.792V98.3333V95.8749H169.583V100.792V103.25V105.708H172.042V108.167V110.625V113.083H174.5V115.542H176.958Z" fill="#2A9691"/>
</svg>
