<svg width="328" height="366" viewBox="0 0 328 366" fill="none" xmlns="http://www.w3.org/2000/svg">
<g opacity="0.8">
<path d="M61.1024 287.178L68.2424 251.327L102.089 239.191L135.883 227.074L169.677 214.958L176.118 179.655L209.753 167.595L243.336 155.554L263.546 163.315L283.058 170.791" stroke="#63E0DB" stroke-width="2.0073" stroke-linecap="round" stroke-linejoin="round"/>
<path d="M61.1024 287.178L95.1078 274.985L102.089 239.191L108.901 203.756L115.686 168.748L122.373 134.132L155.585 122.223L182.48 144.798L209.753 167.595L237.317 190.705L265.135 214.021L299.14 201.828" stroke="#63E0DB" stroke-width="2.0073" stroke-linecap="round" stroke-linejoin="round"/>
<path d="M58.3494 269.346L65.3312 234.386L68.5489 218.224L69.9581 211.168L72.2679 199.799L79.1066 165.605L76.0003 151.116L85.8472 131.804L89.3701 114.163L90.6963 107.375L92.4898 98.3945L96.1258 80.2372L97.471 73.5018L99.0684 65.3062" stroke="#63E0DB" stroke-width="2.0073" stroke-linecap="round" stroke-linejoin="round"/>
<path d="M107.517 298.109L140.359 286.333L151.56 268.799L163.119 250.599L197.124 238.407L231.129 226.214L265.135 214.021L285.201 220.881" stroke="#63E0DB" stroke-width="2.0073" stroke-linecap="round" stroke-linejoin="round"/>
<path d="M55.7557 252.291L62.5604 218.168L69.3389 184.472L76.0004 151.116L82.6168 118.133L89.1881 85.5239" stroke="#63E0DB" stroke-width="2.0073" stroke-linecap="round" stroke-linejoin="round"/>
<path d="M109.36 44.4052L135.526 66.1104L162.035 88.1092L188.798 110.315L209.734 118.768L215.904 132.814L209.753 167.595L203.471 202.841L231.129 226.214L251.778 232.865L285.201 220.881L299.14 201.828" stroke="#63E0DB" stroke-width="2.0073" stroke-linecap="round" stroke-linejoin="round"/>
<path d="M53.1963 235.997L59.9486 202.728L66.531 169.817L73.1212 137.26L79.6134 105.096" stroke="#63E0DB" stroke-width="2.0073" stroke-linecap="round" stroke-linejoin="round"/>
<path d="M131.223 53.7771L157.063 75.2416L183.262 96.8751L203.772 105.303L209.734 118.768L236.478 140.921L263.546 163.315L290.94 185.95" stroke="#63E0DB" stroke-width="2.0073" stroke-linecap="round" stroke-linejoin="round"/>
<path d="M152.333 62.8829L177.917 83.9632L203.772 105.303L223.601 113.499L249.437 134.786L268.348 142.417L275.527 156.28" stroke="#63E0DB" stroke-width="2.0073" stroke-linecap="round" stroke-linejoin="round"/>
<path d="M50.83 220.409L57.3862 187.924L54.9263 173.739L63.8973 155.813L70.3444 124.022" stroke="#63E0DB" stroke-width="2.0073" stroke-linecap="round" stroke-linejoin="round"/>
<path d="M172.851 71.6654L198.09 92.4521L223.601 113.499L242.803 121.442L249.437 134.786L256.333 148.691L283.058 170.791" stroke="#63E0DB" stroke-width="2.0073" stroke-linecap="round" stroke-linejoin="round"/>
<path d="M48.5132 205.458L54.9263 173.739L61.3472 142.375" stroke="#63E0DB" stroke-width="2.0073" stroke-linecap="round" stroke-linejoin="round"/>
<path d="M192.616 80.1815L217.583 100.708L242.803 121.442L268.348 142.417" stroke="#63E0DB" stroke-width="2.0073" stroke-linecap="round" stroke-linejoin="round"/>
<path d="M211.859 88.4083L236.482 108.642L261.43 129.116" stroke="#63E0DB" stroke-width="2.0073" stroke-linecap="round" stroke-linejoin="round"/>
<path d="M46.2988 191.126L52.6216 160.154" stroke="#63E0DB" stroke-width="2.0073" stroke-linecap="round" stroke-linejoin="round"/>
<path d="M109.36 44.4052L131.223 53.7772L152.333 62.8829L172.851 71.6654L192.616 80.1815L198.09 92.4521L217.583 100.709L223.601 113.499L229.899 126.903L236.478 140.921L256.333 148.691L275.527 156.28L283.058 170.791L290.94 185.95L299.14 201.828" stroke="#63E0DB" stroke-width="2.0073" stroke-linecap="round" stroke-linejoin="round"/>
<path d="M285.201 220.881L271.727 239.231L258.682 256.95L226.369 268.536L206.043 262.782L184.983 256.814L163.119 250.599L135.883 227.074L142.536 191.696L176.118 179.655L182.48 144.798L215.904 132.814L243.336 155.554L271.111 178.588L299.14 201.828" stroke="#63E0DB" stroke-width="2.0073" stroke-linecap="round" stroke-linejoin="round"/>
<path d="M99.0684 65.3062L89.1881 85.5238L92.4899 98.3945L82.6168 118.133L85.8472 131.804L83.8577 141.569L82.4976 148.429L79.1066 165.605L82.2623 180.732L108.901 203.756L135.883 227.074L129.113 262.792L118.136 280.783L84.7122 292.767" stroke="#63E0DB" stroke-width="2.0073" stroke-linecap="round" stroke-linejoin="round"/>
<path d="M258.682 256.95L246.107 274.144L214.322 285.54L194.109 280.103L161.796 291.689L140.359 286.333" stroke="#63E0DB" stroke-width="2.0073" stroke-linecap="round" stroke-linejoin="round"/>
<path d="M290.94 185.95L271.111 178.588L237.317 190.705L203.471 202.841L169.677 214.958L163.119 250.599L129.113 262.792L95.1078 274.985L84.7123 292.767" stroke="#63E0DB" stroke-width="2.0073" stroke-linecap="round" stroke-linejoin="round"/>
<path d="M271.727 239.231L251.777 232.865L218.407 244.83L197.124 238.407L169.677 214.957L142.536 191.696L115.686 168.748L89.1611 146.04L85.8472 131.804L95.9808 111.793L102.684 77.886L99.0684 65.3063L109.36 44.4052" stroke="#63E0DB" stroke-width="2.0073" stroke-linecap="round" stroke-linejoin="round"/>
<path d="M192.616 80.1815L211.859 88.4082L217.583 100.708L236.482 108.642L242.803 121.442L261.43 129.116L268.348 142.417" stroke="#63E0DB" stroke-width="2.0073" stroke-linecap="round" stroke-linejoin="round"/>
<path d="M226.369 268.536L214.322 285.54L182.591 296.918L161.796 291.689" stroke="#63E0DB" stroke-width="2.0073" stroke-linecap="round" stroke-linejoin="round"/>
<path d="M258.683 256.95L238.885 251.006L206.043 262.782L194.109 280.103L182.591 296.918L150.807 308.314L129.536 303.256" stroke="#63E0DB" stroke-width="2.0073" stroke-linecap="round" stroke-linejoin="round"/>
<path d="M246.107 274.144L233.908 290.726L202.653 301.933L171.397 313.14L150.807 308.314" stroke="#63E0DB" stroke-width="2.0073" stroke-linecap="round" stroke-linejoin="round"/>
<path d="M58.3494 269.346L68.2423 251.327L75.3183 215.797L108.901 203.756L142.536 191.696L149.11 156.764L155.585 122.223L162.035 88.1092L157.063 75.2417L152.333 62.8829" stroke="#63E0DB" stroke-width="2.0073" stroke-linecap="round" stroke-linejoin="round"/>
<path d="M233.908 290.726L214.322 285.54" stroke="#63E0DB" stroke-width="2.0073" stroke-linecap="round" stroke-linejoin="round"/>
<path d="M211.859 88.4083L230.423 96.4025L254.826 116.357L261.43 129.116" stroke="#63E0DB" stroke-width="2.0073" stroke-linecap="round" stroke-linejoin="round"/>
<path d="M214.322 285.54L202.653 301.933L191.346 317.838" stroke="#63E0DB" stroke-width="2.0073" stroke-linecap="round" stroke-linejoin="round"/>
<path d="M222.125 306.802L202.653 301.933L182.591 296.918" stroke="#63E0DB" stroke-width="2.0073" stroke-linecap="round" stroke-linejoin="round"/>
<path d="M233.908 290.726L222.125 306.802L191.346 317.838L171.397 313.14" stroke="#63E0DB" stroke-width="2.0073" stroke-linecap="round" stroke-linejoin="round"/>
<path d="M210.704 322.391L191.346 317.838" stroke="#63E0DB" stroke-width="2.0073" stroke-linecap="round" stroke-linejoin="round"/>
<path d="M182.591 296.918L171.397 313.14" stroke="#63E0DB" stroke-width="2.0073" stroke-linecap="round" stroke-linejoin="round"/>
<path d="M230.423 96.4026L248.483 104.16L254.826 116.357" stroke="#63E0DB" stroke-width="2.0073" stroke-linecap="round" stroke-linejoin="round"/>
<path d="M222.125 306.802L210.704 322.391" stroke="#63E0DB" stroke-width="2.0073" stroke-linecap="round" stroke-linejoin="round"/>
<path d="M61.1024 287.178L58.3495 269.346L55.7557 252.291L65.3313 234.386L75.3183 215.797L82.2623 180.732L115.686 168.748L149.11 156.764L182.48 144.798L188.797 110.315L183.262 96.8752L162.035 88.1091L128.981 99.9606L122.373 134.132L89.1612 146.04L79.1066 165.605L69.3389 184.472L72.268 199.799L75.3183 215.797L102.089 239.191L129.113 262.792L151.56 268.798L184.983 256.814L197.124 238.407L203.471 202.841L176.118 179.655L149.11 156.764L122.373 134.132L95.9809 111.793L92.4899 98.3946L102.684 77.8859L135.526 66.1104L157.063 75.2416L177.917 83.9631L198.09 92.4521L203.772 105.303L229.899 126.903L256.333 148.691L263.546 163.315L271.111 178.588L265.135 214.021L251.778 232.865L238.885 251.006L226.369 268.536L194.109 280.103L173.201 274.557L151.56 268.798L118.136 280.783L95.1078 274.985L68.2424 251.327L65.3313 234.386L62.5604 218.168L72.268 199.799L82.2623 180.732L89.1612 146.04L95.9809 111.793L128.981 99.9606L155.585 122.223L188.797 110.315L215.904 132.814L236.478 140.921L243.336 155.554L237.317 190.705L231.129 226.214L218.407 244.83L206.043 262.782L173.201 274.557L161.796 291.689L129.536 303.256L107.517 298.109L84.7122 292.767L61.1024 287.178Z" stroke="#63E0DB" stroke-width="2.0073" stroke-linecap="round" stroke-linejoin="round"/>
<path d="M55.7557 252.291L53.1963 235.997L62.5604 218.168L59.9486 202.728L69.3389 184.472L66.531 169.816L76.0004 151.116L73.1212 137.26L82.6168 118.133L79.6134 105.096L89.1881 85.5239" stroke="#63E0DB" stroke-width="2.0073" stroke-linecap="round" stroke-linejoin="round"/>
<path d="M53.1963 235.997L50.83 220.409L59.9486 202.728L57.3863 187.924L66.531 169.817L63.8974 155.813L73.1212 137.26L70.3444 124.022L79.6134 105.096" stroke="#63E0DB" stroke-width="2.0073" stroke-linecap="round" stroke-linejoin="round"/>
<path d="M50.83 220.409L48.5132 205.458L57.3862 187.924L63.8973 155.813L61.3471 142.375L70.3444 124.022" stroke="#63E0DB" stroke-width="2.0073" stroke-linecap="round" stroke-linejoin="round"/>
<path d="M48.5132 205.458L46.2988 191.126L54.9263 173.739L52.6216 160.154L61.3472 142.375" stroke="#63E0DB" stroke-width="2.0073" stroke-linecap="round" stroke-linejoin="round"/>
<path d="M46.2988 191.126L44.1867 177.411L52.6216 160.154" stroke="#63E0DB" stroke-width="2.0073" stroke-linecap="round" stroke-linejoin="round"/>
<path d="M230.423 96.4026L236.482 108.642L254.826 116.357" stroke="#63E0DB" stroke-width="2.0073" stroke-linecap="round" stroke-linejoin="round"/>
<path d="M172.851 71.6654L177.917 83.9632L183.262 96.8752L209.734 118.768L229.899 126.903L249.437 134.786L275.527 156.28" stroke="#63E0DB" stroke-width="2.0073" stroke-linecap="round" stroke-linejoin="round"/>
</g>
</svg>
