<svg width="209" height="116" viewBox="0 0 209 116" fill="none" xmlns="http://www.w3.org/2000/svg">
<path d="M208.401 111.91H205.108V115.203H208.401V111.91Z" fill="#070809"/>
<path d="M208.401 108.617H205.108V111.91H208.401V108.617Z" fill="#070809"/>
<path d="M208.401 105.324H205.108V108.617H208.401V105.324Z" fill="#070809"/>
<path d="M208.401 102.031H205.108V105.324H208.401V102.031Z" fill="#070809"/>
<path d="M205.108 111.91H201.816V115.203H205.108V111.91Z" fill="#63E0DB"/>
<path d="M205.108 108.617H201.816V111.91H205.108V108.617Z" fill="#2A9691"/>
<path d="M205.108 105.324H201.816V108.617H205.108V105.324Z" fill="#63E0DB"/>
<path d="M205.108 102.031H201.816V105.324H205.108V102.031Z" fill="#63E0DB"/>
<path d="M205.108 98.7388H201.816V102.032H205.108V98.7388Z" fill="#070809"/>
<path d="M205.108 95.446H201.816V98.7388H205.108V95.446Z" fill="#070809"/>
<path d="M201.827 111.91H198.534V115.203H201.827V111.91Z" fill="#2A9691"/>
<path d="M201.827 108.617H198.534V111.91H201.827V108.617Z" fill="#2A9691"/>
<path d="M201.827 105.324H198.534V108.617H201.827V105.324Z" fill="#63E0DB"/>
<path d="M201.827 102.031H198.534V105.324H201.827V102.031Z" fill="#63E0DB"/>
<path d="M201.827 98.7388H198.534V102.032H201.827V98.7388Z" fill="#63E0DB"/>
<path d="M201.827 95.446H198.534V98.7388H201.827V95.446Z" fill="#63E0DB"/>
<path d="M201.827 92.1533H198.534V95.4461H201.827V92.1533Z" fill="#070809"/>
<path d="M198.534 111.91H195.241V115.203H198.534V111.91Z" fill="#63E0DB"/>
<path d="M198.534 108.617H195.241V111.91H198.534V108.617Z" fill="#63E0DB"/>
<path d="M198.534 105.324H195.241V108.617H198.534V105.324Z" fill="#63E0DB"/>
<path d="M198.534 102.031H195.241V105.324H198.534V102.031Z" fill="#63E0DB"/>
<path d="M198.534 98.7388H195.241V102.032H198.534V98.7388Z" fill="#63E0DB"/>
<path d="M198.534 95.446H195.241V98.7388H198.534V95.446Z" fill="#63E0DB"/>
<path d="M198.534 92.1533H195.241V95.4461H198.534V92.1533Z" fill="#63E0DB"/>
<path d="M198.534 88.8716H195.241V92.1644H198.534V88.8716Z" fill="#070809"/>
<path d="M195.241 111.91H191.948V115.203H195.241V111.91Z" fill="#63E0DB"/>
<path d="M195.241 108.617H191.948V111.91H195.241V108.617Z" fill="#63E0DB"/>
<path d="M195.241 105.324H191.948V108.617H195.241V105.324Z" fill="#63E0DB"/>
<path d="M195.241 102.031H191.948V105.324H195.241V102.031Z" fill="#63E0DB"/>
<path d="M195.241 98.7388H191.948V102.032H195.241V98.7388Z" fill="#63E0DB"/>
<path d="M195.241 95.446H191.948V98.7388H195.241V95.446Z" fill="#63E0DB"/>
<path d="M195.241 92.1533H191.948V95.4461H195.241V92.1533Z" fill="#63E0DB"/>
<path d="M195.241 88.8716H191.948V92.1644H195.241V88.8716Z" fill="#63E0DB"/>
<path d="M195.241 85.5789H191.948V88.8716H195.241V85.5789Z" fill="#070809"/>
<path d="M191.948 111.91H188.656V115.203H191.948V111.91Z" fill="#63E0DB"/>
<path d="M191.948 108.617H188.656V111.91H191.948V108.617Z" fill="#63E0DB"/>
<path d="M191.948 105.324H188.656V108.617H191.948V105.324Z" fill="#63E0DB"/>
<path d="M191.948 102.031H188.656V105.324H191.948V102.031Z" fill="#63E0DB"/>
<path d="M191.948 98.7388H188.656V102.032H191.948V98.7388Z" fill="#63E0DB"/>
<path d="M191.948 95.446H188.656V98.7388H191.948V95.446Z" fill="#63E0DB"/>
<path d="M191.948 92.1533H188.656V95.4461H191.948V92.1533Z" fill="#63E0DB"/>
<path d="M191.948 88.8716H188.656V92.1644H191.948V88.8716Z" fill="#63E0DB"/>
<path d="M191.948 85.5789H188.656V88.8716H191.948V85.5789Z" fill="#63E0DB"/>
<path d="M191.948 82.2861H188.656V85.5789H191.948V82.2861Z" fill="#070809"/>
<path d="M188.656 111.91H185.363V115.203H188.656V111.91Z" fill="#63E0DB"/>
<path d="M188.656 108.617H185.363V111.91H188.656V108.617Z" fill="#63E0DB"/>
<path d="M188.656 105.324H185.363V108.617H188.656V105.324Z" fill="#63E0DB"/>
<path d="M188.656 102.031H185.363V105.324H188.656V102.031Z" fill="#63E0DB"/>
<path d="M188.656 98.7388H185.363V102.032H188.656V98.7388Z" fill="#63E0DB"/>
<path d="M188.656 95.446H185.363V98.7388H188.656V95.446Z" fill="#63E0DB"/>
<path d="M188.656 92.1533H185.363V95.4461H188.656V92.1533Z" fill="#63E0DB"/>
<path d="M188.656 88.8716H185.363V92.1644H188.656V88.8716Z" fill="#63E0DB"/>
<path d="M188.656 85.5789H185.363V88.8716H188.656V85.5789Z" fill="#63E0DB"/>
<path d="M188.656 82.2861H185.363V85.5789H188.656V82.2861Z" fill="#070809"/>
<path d="M185.363 111.91H182.07V115.203H185.363V111.91Z" fill="#63E0DB"/>
<path d="M185.363 108.617H182.07V111.91H185.363V108.617Z" fill="#63E0DB"/>
<path d="M185.363 105.324H182.07V108.617H185.363V105.324Z" fill="#63E0DB"/>
<path d="M185.363 102.031H182.07V105.324H185.363V102.031Z" fill="#63E0DB"/>
<path d="M185.363 98.7388H182.07V102.032H185.363V98.7388Z" fill="#63E0DB"/>
<path d="M185.363 95.446H182.07V98.7388H185.363V95.446Z" fill="#63E0DB"/>
<path d="M185.363 92.1533H182.07V95.4461H185.363V92.1533Z" fill="#63E0DB"/>
<path d="M185.363 88.8716H182.07V92.1644H185.363V88.8716Z" fill="#63E0DB"/>
<path d="M185.363 85.5789H182.07V88.8716H185.363V85.5789Z" fill="#63E0DB"/>
<path d="M185.363 82.2861H182.07V85.5789H185.363V82.2861Z" fill="#63E0DB"/>
<path d="M185.363 78.9933H182.07V82.286H185.363V78.9933Z" fill="#070809"/>
<path d="M182.07 111.91H178.777V115.203H182.07V111.91Z" fill="#63E0DB"/>
<path d="M182.07 108.617H178.777V111.91H182.07V108.617Z" fill="#63E0DB"/>
<path d="M182.07 105.324H178.777V108.617H182.07V105.324Z" fill="#63E0DB"/>
<path d="M182.07 102.031H178.777V105.324H182.07V102.031Z" fill="#63E0DB"/>
<path d="M182.07 98.7388H178.777V102.032H182.07V98.7388Z" fill="#63E0DB"/>
<path d="M182.07 95.446H178.777V98.7388H182.07V95.446Z" fill="#63E0DB"/>
<path d="M182.07 92.1533H178.777V95.4461H182.07V92.1533Z" fill="#63E0DB"/>
<path d="M182.07 88.8716H178.777V92.1644H182.07V88.8716Z" fill="#2A9691"/>
<path d="M182.07 85.5789H178.777V88.8716H182.07V85.5789Z" fill="#2A9691"/>
<path d="M182.07 82.2861H178.777V85.5789H182.07V82.2861Z" fill="#2A9691"/>
<path d="M182.07 78.9933H178.777V82.286H182.07V78.9933Z" fill="#070809"/>
<path d="M178.777 111.91H175.484V115.203H178.777V111.91Z" fill="#63E0DB"/>
<path d="M178.777 108.617H175.484V111.91H178.777V108.617Z" fill="#63E0DB"/>
<path d="M178.777 105.324H175.484V108.617H178.777V105.324Z" fill="#63E0DB"/>
<path d="M178.777 102.031H175.484V105.324H178.777V102.031Z" fill="#63E0DB"/>
<path d="M178.777 98.7388H175.484V102.032H178.777V98.7388Z" fill="#63E0DB"/>
<path d="M178.777 95.446H175.484V98.7388H178.777V95.446Z" fill="#2A9691"/>
<path d="M178.777 92.1533H175.484V95.4461H178.777V92.1533Z" fill="#2A9691"/>
<path d="M178.777 88.8716H175.484V92.1644H178.777V88.8716Z" fill="#2A9691"/>
<path d="M178.777 85.5789H175.484V88.8716H178.777V85.5789Z" fill="#2A9691"/>
<path d="M178.777 82.2861H175.484V85.5789H178.777V82.2861Z" fill="#070809"/>
<path d="M178.777 78.9933H175.484V82.286H178.777V78.9933Z" fill="white"/>
<path d="M178.777 75.7004H175.484V78.9932H178.777V75.7004Z" fill="#070809"/>
<path d="M175.496 111.91H172.203V115.203H175.496V111.91Z" fill="#63E0DB"/>
<path d="M175.496 108.617H172.203V111.91H175.496V108.617Z" fill="#63E0DB"/>
<path d="M175.496 105.324H172.203V108.617H175.496V105.324Z" fill="#63E0DB"/>
<path d="M175.496 102.031H172.203V105.324H175.496V102.031Z" fill="#63E0DB"/>
<path d="M175.496 98.7388H172.203V102.032H175.496V98.7388Z" fill="#63E0DB"/>
<path d="M175.496 95.446H172.203V98.7388H175.496V95.446Z" fill="#2A9691"/>
<path d="M175.496 92.1533H172.203V95.4461H175.496V92.1533Z" fill="#2A9691"/>
<path d="M175.496 88.8716H172.203V92.1644H175.496V88.8716Z" fill="#070809"/>
<path d="M175.496 85.5789H172.203V88.8716H175.496V85.5789Z" fill="#070809"/>
<path d="M175.496 82.2861H172.203V85.5789H175.496V82.2861Z" fill="white"/>
<path d="M175.496 78.9933H172.203V82.286H175.496V78.9933Z" fill="white"/>
<path d="M175.496 75.7004H172.203V78.9932H175.496V75.7004Z" fill="white"/>
<path d="M175.496 72.4077H172.203V75.7005H175.496V72.4077Z" fill="#070809"/>
<path d="M175.496 69.115H172.203V72.4078H175.496V69.115Z" fill="#070809"/>
<path d="M175.496 65.8333H172.203V69.126H175.496V65.8333Z" fill="#070809"/>
<path d="M172.203 111.91H168.91V115.203H172.203V111.91Z" fill="#63E0DB"/>
<path d="M172.203 108.617H168.91V111.91H172.203V108.617Z" fill="#63E0DB"/>
<path d="M172.203 105.324H168.91V108.617H172.203V105.324Z" fill="#63E0DB"/>
<path d="M172.203 102.031H168.91V105.324H172.203V102.031Z" fill="#63E0DB"/>
<path d="M172.203 98.7388H168.91V102.032H172.203V98.7388Z" fill="#2A9691"/>
<path d="M172.203 95.446H168.91V98.7388H172.203V95.446Z" fill="#2A9691"/>
<path d="M172.203 92.1533H168.91V95.4461H172.203V92.1533Z" fill="#070809"/>
<path d="M172.203 88.8716H168.91V92.1644H172.203V88.8716Z" fill="white"/>
<path d="M172.203 85.5789H168.91V88.8716H172.203V85.5789Z" fill="#FDEBDC"/>
<path d="M172.203 82.2861H168.91V85.5789H172.203V82.2861Z" fill="white"/>
<path d="M172.203 78.9933H168.91V82.286H172.203V78.9933Z" fill="white"/>
<path d="M172.203 75.7004H168.91V78.9932H172.203V75.7004Z" fill="white"/>
<path d="M172.203 72.4077H168.91V75.7005H172.203V72.4077Z" fill="white"/>
<path d="M172.203 69.115H168.91V72.4078H172.203V69.115Z" fill="white"/>
<path d="M172.203 65.8333H168.91V69.126H172.203V65.8333Z" fill="white"/>
<path d="M172.203 62.5405H168.91V65.8333H172.203V62.5405Z" fill="#070809"/>
<path d="M168.91 111.91H165.617V115.203H168.91V111.91Z" fill="#63E0DB"/>
<path d="M168.91 108.617H165.617V111.91H168.91V108.617Z" fill="#63E0DB"/>
<path d="M168.91 105.324H165.617V108.617H168.91V105.324Z" fill="#2A9691"/>
<path d="M168.91 102.031H165.617V105.324H168.91V102.031Z" fill="#2A9691"/>
<path d="M168.91 98.7388H165.617V102.032H168.91V98.7388Z" fill="#2A9691"/>
<path d="M168.91 95.446H165.617V98.7388H168.91V95.446Z" fill="#070809"/>
<path d="M168.91 92.1533H165.617V95.4461H168.91V92.1533Z" fill="white"/>
<path d="M168.91 88.8716H165.617V92.1644H168.91V88.8716Z" fill="white"/>
<path d="M168.91 85.5789H165.617V88.8716H168.91V85.5789Z" fill="white"/>
<path d="M168.91 82.2861H165.617V85.5789H168.91V82.2861Z" fill="white"/>
<path d="M168.91 78.9933H165.617V82.286H168.91V78.9933Z" fill="white"/>
<path d="M168.91 75.7004H165.617V78.9932H168.91V75.7004Z" fill="#FDEBDC"/>
<path d="M168.91 72.4077H165.617V75.7005H168.91V72.4077Z" fill="white"/>
<path d="M168.91 69.115H165.617V72.4078H168.91V69.115Z" fill="#FDEBDC"/>
<path d="M168.91 65.8333H165.617V69.126H168.91V65.8333Z" fill="white"/>
<path d="M168.91 62.5405H165.617V65.8333H168.91V62.5405Z" fill="white"/>
<path d="M168.91 59.2478H165.617V62.5406H168.91V59.2478Z" fill="#070809"/>
<path d="M165.617 111.91H162.324V115.203H165.617V111.91Z" fill="#2A9691"/>
<path d="M165.617 108.617H162.324V111.91H165.617V108.617Z" fill="#2A9691"/>
<path d="M165.617 105.324H162.324V108.617H165.617V105.324Z" fill="#2A9691"/>
<path d="M165.617 102.031H162.324V105.324H165.617V102.031Z" fill="#2A9691"/>
<path d="M165.617 98.7388H162.324V102.032H165.617V98.7388Z" fill="#070809"/>
<path d="M165.617 95.446H162.324V98.7388H165.617V95.446Z" fill="white"/>
<path d="M165.617 92.1533H162.324V95.4461H165.617V92.1533Z" fill="white"/>
<path d="M165.617 88.8716H162.324V92.1644H165.617V88.8716Z" fill="#FDEBDC"/>
<path d="M165.617 85.5789H162.324V88.8716H165.617V85.5789Z" fill="white"/>
<path d="M165.617 82.2861H162.324V85.5789H165.617V82.2861Z" fill="white"/>
<path d="M165.617 78.9933H162.324V82.286H165.617V78.9933Z" fill="white"/>
<path d="M165.617 75.7004H162.324V78.9932H165.617V75.7004Z" fill="white"/>
<path d="M165.617 72.4077H162.324V75.7005H165.617V72.4077Z" fill="white"/>
<path d="M165.617 69.115H162.324V72.4078H165.617V69.115Z" fill="white"/>
<path d="M165.617 65.8333H162.324V69.126H165.617V65.8333Z" fill="white"/>
<path d="M165.617 62.5405H162.324V65.8333H165.617V62.5405Z" fill="white"/>
<path d="M165.617 59.2478H162.324V62.5406H165.617V59.2478Z" fill="white"/>
<path d="M162.324 111.91H159.032V115.203H162.324V111.91Z" fill="#2A9691"/>
<path d="M162.324 108.617H159.032V111.91H162.324V108.617Z" fill="#2A9691"/>
<path d="M162.324 105.324H159.032V108.617H162.324V105.324Z" fill="#070809"/>
<path d="M162.324 102.031H159.032V105.324H162.324V102.031Z" fill="#070809"/>
<path d="M162.324 98.7388H159.032V102.032H162.324V98.7388Z" fill="white"/>
<path d="M162.324 95.446H159.032V98.7388H162.324V95.446Z" fill="white"/>
<path d="M162.324 92.1533H159.032V95.4461H162.324V92.1533Z" fill="white"/>
<path d="M162.324 88.8716H159.032V92.1644H162.324V88.8716Z" fill="white"/>
<path d="M162.324 85.5789H159.032V88.8716H162.324V85.5789Z" fill="#FDEBDC"/>
<path d="M162.324 82.2861H159.032V85.5789H162.324V82.2861Z" fill="#FDEBDC"/>
<path d="M162.324 78.9933H159.032V82.286H162.324V78.9933Z" fill="white"/>
<path d="M162.324 75.7004H159.032V78.9932H162.324V75.7004Z" fill="white"/>
<path d="M162.324 72.4077H159.032V75.7005H162.324V72.4077Z" fill="white"/>
<path d="M162.324 69.115H159.032V72.4078H162.324V69.115Z" fill="white"/>
<path d="M162.324 65.8333H159.032V69.126H162.324V65.8333Z" fill="white"/>
<path d="M162.324 62.5405H159.032V65.8333H162.324V62.5405Z" fill="white"/>
<path d="M162.324 59.2478H159.032V62.5406H162.324V59.2478Z" fill="#070809"/>
<path d="M165.617 55.955H162.324V59.2477H165.617V55.955Z" fill="#070809"/>
<path d="M165.617 52.6621H162.324V55.9549H165.617V52.6621Z" fill="#070809"/>
<path d="M165.617 49.3694H162.324V52.6621H165.617V49.3694Z" fill="#070809"/>
<path d="M165.617 46.0767H162.324V49.3694H165.617V46.0767Z" fill="#070809"/>
<path d="M162.324 46.0767H159.032V49.3694H162.324V46.0767Z" fill="#070809"/>
<path d="M162.324 42.7839H159.032V46.0767H162.324V42.7839Z" fill="#070809"/>
<path d="M162.324 39.5022H159.032V42.795H162.324V39.5022Z" fill="#070809"/>
<path d="M162.324 36.2095H159.032V39.5022H162.324V36.2095Z" fill="#070809"/>
<path d="M159.032 32.9166H155.739V36.2094H159.032V32.9166Z" fill="#070809"/>
<path d="M159.032 29.6238H155.739V32.9165H159.032V29.6238Z" fill="#070809"/>
<path d="M155.739 26.3311H152.446V29.6238H155.739V26.3311Z" fill="#070809"/>
<path d="M162.324 55.955H159.032V59.2477H162.324V55.955Z" fill="#915555"/>
<path d="M162.324 52.6621H159.032V55.9549H162.324V52.6621Z" fill="#915555"/>
<path d="M162.324 49.3694H159.032V52.6621H162.324V49.3694Z" fill="#63E0DB"/>
<path d="M159.032 111.91H155.739V115.203H159.032V111.91Z" fill="#2A9691"/>
<path d="M159.032 108.617H155.739V111.91H159.032V108.617Z" fill="#070809"/>
<path d="M159.032 105.324H155.739V108.617H159.032V105.324Z" fill="white"/>
<path d="M159.032 102.031H155.739V105.324H159.032V102.031Z" fill="white"/>
<path d="M159.032 98.7388H155.739V102.032H159.032V98.7388Z" fill="white"/>
<path d="M159.032 95.446H155.739V98.7388H159.032V95.446Z" fill="#FDEBDC"/>
<path d="M159.032 92.1533H155.739V95.4461H159.032V92.1533Z" fill="white"/>
<path d="M159.032 88.8716H155.739V92.1644H159.032V88.8716Z" fill="#FDEBDC"/>
<path d="M159.032 85.5789H155.739V88.8716H159.032V85.5789Z" fill="white"/>
<path d="M159.032 82.2861H155.739V85.5789H159.032V82.2861Z" fill="white"/>
<path d="M159.032 78.9933H155.739V82.286H159.032V78.9933Z" fill="white"/>
<path d="M159.032 75.7004H155.739V78.9932H159.032V75.7004Z" fill="white"/>
<path d="M159.032 72.4077H155.739V75.7005H159.032V72.4077Z" fill="#070809"/>
<path d="M159.032 69.115H155.739V72.4078H159.032V69.115Z" fill="#070809"/>
<path d="M159.032 65.8333H155.739V69.126H159.032V65.8333Z" fill="#070809"/>
<path d="M159.032 62.5405H155.739V65.8333H159.032V62.5405Z" fill="#070809"/>
<path d="M159.032 59.2478H155.739V62.5406H159.032V59.2478Z" fill="#070809"/>
<path d="M159.032 55.955H155.739V59.2477H159.032V55.955Z" fill="#7B4646"/>
<path d="M159.032 52.6621H155.739V55.9549H159.032V52.6621Z" fill="#7B4646"/>
<path d="M159.032 49.3694H155.739V52.6621H159.032V49.3694Z" fill="#63E0DB"/>
<path d="M159.032 46.0767H155.739V49.3694H159.032V46.0767Z" fill="#7B4646"/>
<path d="M159.032 42.7839H155.739V46.0767H159.032V42.7839Z" fill="#7B4646"/>
<path d="M159.032 39.5022H155.739V42.795H159.032V39.5022Z" fill="#7B4646"/>
<path d="M159.032 36.2095H155.739V39.5022H159.032V36.2095Z" fill="#7B4646"/>
<path d="M155.739 111.91H152.446V115.203H155.739V111.91Z" fill="#070809"/>
<path d="M155.739 108.617H152.446V111.91H155.739V108.617Z" fill="white"/>
<path d="M155.739 105.324H152.446V108.617H155.739V105.324Z" fill="white"/>
<path d="M155.739 102.031H152.446V105.324H155.739V102.031Z" fill="white"/>
<path d="M155.739 98.7388H152.446V102.032H155.739V98.7388Z" fill="white"/>
<path d="M155.739 95.446H152.446V98.7388H155.739V95.446Z" fill="#FDEBDC"/>
<path d="M155.739 92.1533H152.446V95.4461H155.739V92.1533Z" fill="white"/>
<path d="M155.739 88.8716H152.446V92.1644H155.739V88.8716Z" fill="white"/>
<path d="M155.739 85.5789H152.446V88.8716H155.739V85.5789Z" fill="#FDEBDC"/>
<path d="M155.739 82.2861H152.446V85.5789H155.739V82.2861Z" fill="white"/>
<path d="M155.739 78.9933H152.446V82.286H155.739V78.9933Z" fill="#070809"/>
<path d="M155.739 75.7004H152.446V78.9932H155.739V75.7004Z" fill="#070809"/>
<path d="M155.739 72.4077H152.446V75.7005H155.739V72.4077Z" fill="#231313"/>
<path d="M155.739 69.115H152.446V72.4078H155.739V69.115Z" fill="#231313"/>
<path d="M155.739 65.8333H152.446V69.126H155.739V65.8333Z" fill="#321B1B"/>
<path d="M155.739 62.5405H152.446V65.8333H155.739V62.5405Z" fill="#261516"/>
<path d="M155.739 59.2478H152.446V62.5406H155.739V59.2478Z" fill="#7B4646"/>
<path d="M155.739 55.955H152.446V59.2477H155.739V55.955Z" fill="#070809"/>
<path d="M155.739 52.6621H152.446V55.9549H155.739V52.6621Z" fill="#070809"/>
<path d="M155.739 49.3694H152.446V52.6621H155.739V49.3694Z" fill="#4D4D4D"/>
<path d="M155.739 46.0767H152.446V49.3694H155.739V46.0767Z" fill="#231313"/>
<path d="M155.739 42.7839H152.446V46.0767H155.739V42.7839Z" fill="#070809"/>
<path d="M155.739 39.5022H152.446V42.795H155.739V39.5022Z" fill="#7B4646"/>
<path d="M155.739 36.2095H152.446V39.5022H155.739V36.2095Z" fill="#7B4646"/>
<path d="M155.739 32.9166H152.446V36.2094H155.739V32.9166Z" fill="#7B4646"/>
<path d="M155.739 29.6238H152.446V32.9165H155.739V29.6238Z" fill="#7B4646"/>
<path d="M152.446 111.91H149.153V115.203H152.446V111.91Z" fill="white"/>
<path d="M152.446 108.617H149.153V111.91H152.446V108.617Z" fill="#FDEBDC"/>
<path d="M152.446 105.324H149.153V108.617H152.446V105.324Z" fill="white"/>
<path d="M152.446 102.031H149.153V105.324H152.446V102.031Z" fill="white"/>
<path d="M152.446 98.7388H149.153V102.032H152.446V98.7388Z" fill="white"/>
<path d="M152.446 95.446H149.153V98.7388H152.446V95.446Z" fill="white"/>
<path d="M152.446 92.1533H149.153V95.4461H152.446V92.1533Z" fill="#FDEBDC"/>
<path d="M152.446 88.8716H149.153V92.1644H152.446V88.8716Z" fill="white"/>
<path d="M152.446 85.5789H149.153V88.8716H152.446V85.5789Z" fill="white"/>
<path d="M152.446 82.2861H149.153V85.5789H152.446V82.2861Z" fill="#070809"/>
<path d="M152.446 78.9933H149.153V82.286H152.446V78.9933Z" fill="#321B1B"/>
<path d="M152.446 75.7004H149.153V78.9932H152.446V75.7004Z" fill="#231313"/>
<path d="M152.446 72.4077H149.153V75.7005H152.446V72.4077Z" fill="#261516"/>
<path d="M152.446 69.115H149.153V72.4078H152.446V69.115Z" fill="#321B1B"/>
<path d="M152.446 65.8333H149.153V69.126H152.446V65.8333Z" fill="#7B4646"/>
<path d="M152.446 62.5405H149.153V65.8333H152.446V62.5405Z" fill="#915555"/>
<path d="M152.446 59.2478H149.153V62.5406H152.446V59.2478Z" fill="#070809"/>
<path d="M152.446 55.955H149.153V59.2477H152.446V55.955Z" fill="#070809"/>
<path d="M152.446 52.6621H149.153V55.9549H152.446V52.6621Z" fill="#4D4D4D"/>
<path d="M152.446 49.3694H149.153V52.6621H152.446V49.3694Z" fill="#070809"/>
<path d="M152.446 46.0767H149.153V49.3694H152.446V46.0767Z" fill="#231313"/>
<path d="M152.446 42.7839H149.153V46.0767H152.446V42.7839Z" fill="#231313"/>
<path d="M152.446 39.5022H149.153V42.795H152.446V39.5022Z" fill="#070809"/>
<path d="M152.446 36.2095H149.153V39.5022H152.446V36.2095Z" fill="#7B4646"/>
<path d="M152.446 32.9166H149.153V36.2094H152.446V32.9166Z" fill="#7B4646"/>
<path d="M152.446 29.6238H149.153V32.9165H152.446V29.6238Z" fill="#7B4646"/>
<path d="M152.446 26.3311H149.153V29.6238H152.446V26.3311Z" fill="#070809"/>
<path d="M152.446 23.0383H149.153V26.3311H152.446V23.0383Z" fill="#63E0DB"/>
<path d="M152.446 19.7456H149.153V23.0384H152.446V19.7456Z" fill="#63E0DB"/>
<path d="M152.446 16.4528H149.153V19.7455H152.446V16.4528Z" fill="#63E0DB"/>
<path d="M152.446 13.1711H149.153V16.4639H152.446V13.1711Z" fill="#63E0DB"/>
<path d="M152.446 9.8783H149.153V13.1711H152.446V9.8783Z" fill="white"/>
<path d="M152.446 6.58545H149.153V9.87822H152.446V6.58545Z" fill="#63E0DB"/>
<path d="M149.164 111.91H145.872V115.203H149.164V111.91Z" fill="#FDEBDC"/>
<path d="M149.164 108.617H145.872V111.91H149.164V108.617Z" fill="white"/>
<path d="M149.164 105.324H145.872V108.617H149.164V105.324Z" fill="white"/>
<path d="M149.164 102.031H145.872V105.324H149.164V102.031Z" fill="#FDEBDC"/>
<path d="M149.164 98.7388H145.872V102.032H149.164V98.7388Z" fill="white"/>
<path d="M149.164 95.446H145.872V98.7388H149.164V95.446Z" fill="#070809"/>
<path d="M149.164 92.1533H145.872V95.4461H149.164V92.1533Z" fill="#070809"/>
<path d="M149.164 88.8716H145.872V92.1644H149.164V88.8716Z" fill="#070809"/>
<path d="M149.164 85.5789H145.872V88.8716H149.164V85.5789Z" fill="#070809"/>
<path d="M149.164 82.2861H145.872V85.5789H149.164V82.2861Z" fill="#231313"/>
<path d="M149.164 78.9933H145.872V82.286H149.164V78.9933Z" fill="#231313"/>
<path d="M149.164 75.7004H145.872V78.9932H149.164V75.7004Z" fill="#231313"/>
<path d="M149.164 72.4077H145.872V75.7005H149.164V72.4077Z" fill="#261516"/>
<path d="M149.164 69.115H145.872V72.4078H149.164V69.115Z" fill="#321B1B"/>
<path d="M149.164 65.8333H145.872V69.126H149.164V65.8333Z" fill="#321B1B"/>
<path d="M149.164 62.5405H145.872V65.8333H149.164V62.5405Z" fill="#915555"/>
<path d="M149.164 59.2478H145.872V62.5406H149.164V59.2478Z" fill="#070809"/>
<path d="M149.164 55.955H145.872V59.2477H149.164V55.955Z" fill="#070809"/>
<path d="M149.164 52.6621H145.872V55.9549H149.164V52.6621Z" fill="#070809"/>
<path d="M149.164 49.3694H145.872V52.6621H149.164V49.3694Z" fill="#4D4D4D"/>
<path d="M149.164 46.0767H145.872V49.3694H149.164V46.0767Z" fill="#231313"/>
<path d="M149.164 42.7839H145.872V46.0767H149.164V42.7839Z" fill="#231313"/>
<path d="M149.164 39.5022H145.872V42.795H149.164V39.5022Z" fill="#070809"/>
<path d="M149.164 36.2095H145.872V39.5022H149.164V36.2095Z" fill="#915555"/>
<path d="M149.164 32.9166H145.872V36.2094H149.164V32.9166Z" fill="#7B4646"/>
<path d="M149.164 29.6238H145.872V32.9165H149.164V29.6238Z" fill="#7B4646"/>
<path d="M149.164 26.3311H145.872V29.6238H149.164V26.3311Z" fill="#070809"/>
<path d="M149.164 23.0383H145.872V26.3311H149.164V23.0383Z" fill="#7B4646"/>
<path d="M149.164 23.0383H145.872V26.3311H149.164V23.0383Z" fill="#2A9691"/>
<path d="M149.164 19.7456H145.872V23.0384H149.164V19.7456Z" fill="#63E0DB"/>
<path d="M149.164 16.4528H145.872V19.7455H149.164V16.4528Z" fill="#63E0DB"/>
<path d="M149.164 9.8783H145.872V13.1711H149.164V9.8783Z" fill="#63E0DB"/>
<path d="M145.872 111.91H142.579V115.203H145.872V111.91Z" fill="white"/>
<path d="M145.872 108.617H142.579V111.91H145.872V108.617Z" fill="white"/>
<path d="M145.872 105.324H142.579V108.617H145.872V105.324Z" fill="#FDEBDC"/>
<path d="M145.872 102.031H142.579V105.324H145.872V102.031Z" fill="#070809"/>
<path d="M145.872 98.7388H142.579V102.032H145.872V98.7388Z" fill="#070809"/>
<path d="M145.872 95.446H142.579V98.7388H145.872V95.446Z" fill="#2A9691"/>
<path d="M145.872 92.1533H142.579V95.4461H145.872V92.1533Z" fill="#2A9691"/>
<path d="M145.872 88.8716H142.579V92.1644H145.872V88.8716Z" fill="#070809"/>
<path d="M145.872 85.5789H142.579V88.8716H145.872V85.5789Z" fill="#231313"/>
<path d="M145.872 82.2861H142.579V85.5789H145.872V82.2861Z" fill="#261516"/>
<path d="M145.872 78.9933H142.579V82.286H145.872V78.9933Z" fill="#321B1B"/>
<path d="M145.872 75.7004H142.579V78.9932H145.872V75.7004Z" fill="#321B1B"/>
<path d="M145.872 72.4077H142.579V75.7005H145.872V72.4077Z" fill="#070809"/>
<path d="M145.872 69.115H142.579V72.4078H145.872V69.115Z" fill="#261516"/>
<path d="M145.872 65.8333H142.579V69.126H145.872V65.8333Z" fill="#321B1B"/>
<path d="M145.872 62.5405H142.579V65.8333H145.872V62.5405Z" fill="#915555"/>
<path d="M145.872 59.2478H142.579V62.5406H145.872V59.2478Z" fill="#070809"/>
<path d="M145.872 55.955H142.579V59.2477H145.872V55.955Z" fill="#070809"/>
<path d="M145.872 52.6621H142.579V55.9549H145.872V52.6621Z" fill="#4D4D4D"/>
<path d="M145.872 49.3694H142.579V52.6621H145.872V49.3694Z" fill="#070809"/>
<path d="M145.872 46.0767H142.579V49.3694H145.872V46.0767Z" fill="#231313"/>
<path d="M145.872 42.7839H142.579V46.0767H145.872V42.7839Z" fill="#231313"/>
<path d="M145.872 39.5022H142.579V42.795H145.872V39.5022Z" fill="#070809"/>
<path d="M145.872 36.2095H142.579V39.5022H145.872V36.2095Z" fill="#915555"/>
<path d="M145.872 32.9166H142.579V36.2094H145.872V32.9166Z" fill="#915555"/>
<path d="M145.872 29.6238H142.579V32.9165H145.872V29.6238Z" fill="#915555"/>
<path d="M145.872 26.3311H142.579V29.6238H145.872V26.3311Z" fill="#070809"/>
<path d="M145.872 23.0383H142.579V26.3311H145.872V23.0383Z" fill="#7B4646"/>
<path d="M145.872 23.0383H142.579V26.3311H145.872V23.0383Z" fill="#2A9691"/>
<path d="M145.872 19.7456H142.579V23.0384H145.872V19.7456Z" fill="#63E0DB"/>
<path d="M145.872 16.4528H142.579V19.7455H145.872V16.4528Z" fill="#63E0DB"/>
<path d="M145.872 13.1711H142.579V16.4639H145.872V13.1711Z" fill="#63E0DB"/>
<path d="M142.579 111.91H139.286V115.203H142.579V111.91Z" fill="#070809"/>
<path d="M142.579 108.617H139.286V111.91H142.579V108.617Z" fill="#070809"/>
<path d="M142.579 105.324H139.286V108.617H142.579V105.324Z" fill="#070809"/>
<path d="M142.579 102.031H139.286V105.324H142.579V102.031Z" fill="#2A9691"/>
<path d="M142.579 98.7388H139.286V102.032H142.579V98.7388Z" fill="#2A9691"/>
<path d="M142.579 95.446H139.286V98.7388H142.579V95.446Z" fill="#2A9691"/>
<path d="M142.579 92.1533H139.286V95.4461H142.579V92.1533Z" fill="#070809"/>
<path d="M142.579 88.8716H139.286V92.1644H142.579V88.8716Z" fill="#261516"/>
<path d="M142.579 85.5789H139.286V88.8716H142.579V85.5789Z" fill="#231313"/>
<path d="M142.579 82.2861H139.286V85.5789H142.579V82.2861Z" fill="#261516"/>
<path d="M142.579 78.9933H139.286V82.286H142.579V78.9933Z" fill="#231313"/>
<path d="M142.579 75.7004H139.286V78.9932H142.579V75.7004Z" fill="#8D4E4E"/>
<path d="M142.579 72.4077H139.286V75.7005H142.579V72.4077Z" fill="#DFC1C2"/>
<path d="M142.579 69.115H139.286V72.4078H142.579V69.115Z" fill="#8D4E4E"/>
<path d="M142.579 65.8333H139.286V69.126H142.579V65.8333Z" fill="#261516"/>
<path d="M142.579 62.5405H139.286V65.8333H142.579V62.5405Z" fill="#321B1B"/>
<path d="M142.579 59.2478H139.286V62.5406H142.579V59.2478Z" fill="#070809"/>
<path d="M142.579 55.955H139.286V59.2477H142.579V55.955Z" fill="#070809"/>
<path d="M142.579 52.6621H139.286V55.9549H142.579V52.6621Z" fill="#070809"/>
<path d="M142.579 49.3694H139.286V52.6621H142.579V49.3694Z" fill="#4D4D4D"/>
<path d="M142.579 46.0767H139.286V49.3694H142.579V46.0767Z" fill="#231313"/>
<path d="M142.579 42.7839H139.286V46.0767H142.579V42.7839Z" fill="#070809"/>
<path d="M142.579 39.5022H139.286V42.795H142.579V39.5022Z" fill="#915555"/>
<path d="M142.579 36.2095H139.286V39.5022H142.579V36.2095Z" fill="#976060"/>
<path d="M142.579 32.9166H139.286V36.2094H142.579V32.9166Z" fill="#915555"/>
<path d="M142.579 29.6238H139.286V32.9165H142.579V29.6238Z" fill="#976060"/>
<path d="M142.579 26.3311H139.286V29.6238H142.579V26.3311Z" fill="#070809"/>
<path d="M142.579 23.0383H139.286V26.3311H142.579V23.0383Z" fill="#7B4646"/>
<path d="M142.579 23.0383H139.286V26.3311H142.579V23.0383Z" fill="#63E0DB"/>
<path d="M142.579 19.7456H139.286V23.0384H142.579V19.7456Z" fill="#63E0DB"/>
<path d="M142.579 16.4528H139.286V19.7455H142.579V16.4528Z" fill="#2A9691"/>
<path d="M142.579 13.1711H139.286V16.4639H142.579V13.1711Z" fill="#63E0DB"/>
<path d="M142.579 9.8783H139.286V13.1711H142.579V9.8783Z" fill="#63E0DB"/>
<path d="M142.579 6.58545H139.286V9.87822H142.579V6.58545Z" fill="#070809"/>
<path d="M145.872 9.8783H142.579V13.1711H145.872V9.8783Z" fill="#070809"/>
<path d="M149.164 6.58545H145.872V9.87822H149.164V6.58545Z" fill="#070809"/>
<path d="M152.446 3.29272H149.153V6.58549H152.446V3.29272Z" fill="#070809"/>
<path d="M155.739 6.58545H152.446V9.87822H155.739V6.58545Z" fill="#070809"/>
<path d="M155.739 9.8783H152.446V13.1711H155.739V9.8783Z" fill="#070809"/>
<path d="M155.739 13.1711H152.446V16.4639H155.739V13.1711Z" fill="#070809"/>
<path d="M155.739 16.4528H152.446V19.7455H155.739V16.4528Z" fill="#070809"/>
<path d="M155.739 19.7456H152.446V23.0384H155.739V19.7456Z" fill="#070809"/>
<path d="M155.739 23.0383H152.446V26.3311H155.739V23.0383Z" fill="#070809"/>
<path d="M139.286 111.91H135.993V115.203H139.286V111.91Z" fill="#63E0DB"/>
<path d="M139.286 108.617H135.993V111.91H139.286V108.617Z" fill="#63E0DB"/>
<path d="M139.286 105.324H135.993V108.617H139.286V105.324Z" fill="#63E0DB"/>
<path d="M139.286 102.031H135.993V105.324H139.286V102.031Z" fill="#2A9691"/>
<path d="M139.286 98.7388H135.993V102.032H139.286V98.7388Z" fill="#2A9691"/>
<path d="M139.286 95.446H135.993V98.7388H139.286V95.446Z" fill="#2A9691"/>
<path d="M139.286 92.1533H135.993V95.4461H139.286V92.1533Z" fill="#070809"/>
<path d="M139.286 88.8716H135.993V92.1644H139.286V88.8716Z" fill="#321B1B"/>
<path d="M139.286 85.5789H135.993V88.8716H139.286V85.5789Z" fill="#321B1B"/>
<path d="M139.286 82.2861H135.993V85.5789H139.286V82.2861Z" fill="#321B1B"/>
<path d="M139.286 78.9933H135.993V82.286H139.286V78.9933Z" fill="#231313"/>
<path d="M139.286 75.7004H135.993V78.9932H139.286V75.7004Z" fill="#8D4E4E"/>
<path d="M139.286 72.4077H135.993V75.7005H139.286V72.4077Z" fill="#DFC1C2"/>
<path d="M139.286 69.115H135.993V72.4078H139.286V69.115Z" fill="#8D4E4E"/>
<path d="M139.286 65.8333H135.993V69.126H139.286V65.8333Z" fill="#321B1B"/>
<path d="M139.286 62.5405H135.993V65.8333H139.286V62.5405Z" fill="#070809"/>
<path d="M139.286 59.2478H135.993V62.5406H139.286V59.2478Z" fill="#8D4E4E"/>
<path d="M139.286 55.955H135.993V59.2477H139.286V55.955Z" fill="#8D4E4E"/>
<path d="M139.286 52.6621H135.993V55.9549H139.286V52.6621Z" fill="#8D4E4E"/>
<path d="M139.286 49.3694H135.993V52.6621H139.286V49.3694Z" fill="#63E0DB"/>
<path d="M139.286 46.0767H135.993V49.3694H139.286V46.0767Z" fill="#321B1B"/>
<path d="M139.286 42.7839H135.993V46.0767H139.286V42.7839Z" fill="#321B1B"/>
<path d="M139.286 39.5022H135.993V42.795H139.286V39.5022Z" fill="#915555"/>
<path d="M139.286 36.2095H135.993V39.5022H139.286V36.2095Z" fill="#976060"/>
<path d="M139.286 32.9166H135.993V36.2094H139.286V32.9166Z" fill="#915555"/>
<path d="M139.286 29.6238H135.993V32.9165H139.286V29.6238Z" fill="#976060"/>
<path d="M139.286 26.3311H135.993V29.6238H139.286V26.3311Z" fill="#070809"/>
<path d="M139.286 23.0383H135.993V26.3311H139.286V23.0383Z" fill="#7B4646"/>
<path d="M139.286 23.0383H135.993V26.3311H139.286V23.0383Z" fill="#63E0DB"/>
<path d="M139.286 19.7456H135.993V23.0384H139.286V19.7456Z" fill="#63E0DB"/>
<path d="M139.286 16.4528H135.993V19.7455H139.286V16.4528Z" fill="#63E0DB"/>
<path d="M139.286 13.1711H135.993V16.4639H139.286V13.1711Z" fill="#63E0DB"/>
<path d="M139.286 9.8783H135.993V13.1711H139.286V9.8783Z" fill="white"/>
<path d="M139.286 6.58545H135.993V9.87822H139.286V6.58545Z" fill="#63E0DB"/>
<path d="M139.286 3.29272H135.993V6.58549H139.286V3.29272Z" fill="#070809"/>
<path d="M135.993 111.91H132.701V115.203H135.993V111.91Z" fill="#63E0DB"/>
<path d="M135.993 108.617H132.701V111.91H135.993V108.617Z" fill="#63E0DB"/>
<path d="M135.993 105.324H132.701V108.617H135.993V105.324Z" fill="#2A9691"/>
<path d="M135.993 102.031H132.701V105.324H135.993V102.031Z" fill="#2A9691"/>
<path d="M135.993 98.7388H132.701V102.032H135.993V98.7388Z" fill="#2A9691"/>
<path d="M135.993 95.446H132.701V98.7388H135.993V95.446Z" fill="#2A9691"/>
<path d="M135.993 92.1533H132.701V95.4461H135.993V92.1533Z" fill="#070809"/>
<path d="M135.993 88.8716H132.701V92.1644H135.993V88.8716Z" fill="#261516"/>
<path d="M135.993 85.5789H132.701V88.8716H135.993V85.5789Z" fill="#321B1B"/>
<path d="M135.993 82.2861H132.701V85.5789H135.993V82.2861Z" fill="#261516"/>
<path d="M135.993 78.9933H132.701V82.286H135.993V78.9933Z" fill="#231313"/>
<path d="M135.993 75.7004H132.701V78.9932H135.993V75.7004Z" fill="#8D4E4E"/>
<path d="M135.993 72.4077H132.701V75.7005H135.993V72.4077Z" fill="#DFC1C2"/>
<path d="M135.993 69.115H132.701V72.4078H135.993V69.115Z" fill="#8D4E4E"/>
<path d="M135.993 65.8333H132.701V69.126H135.993V65.8333Z" fill="#321B1B"/>
<path d="M135.993 62.5405H132.701V65.8333H135.993V62.5405Z" fill="#070809"/>
<path d="M135.993 59.2478H132.701V62.5406H135.993V59.2478Z" fill="#8D4E4E"/>
<path d="M135.993 55.955H132.701V59.2477H135.993V55.955Z" fill="#8D4E4E"/>
<path d="M135.993 52.6621H132.701V55.9549H135.993V52.6621Z" fill="#8D4E4E"/>
<path d="M135.993 49.3694H132.701V52.6621H135.993V49.3694Z" fill="#63E0DB"/>
<path d="M135.993 46.0767H132.701V49.3694H135.993V46.0767Z" fill="#915555"/>
<path d="M135.993 42.7839H132.701V46.0767H135.993V42.7839Z" fill="#915555"/>
<path d="M135.993 39.5022H132.701V42.795H135.993V39.5022Z" fill="#915555"/>
<path d="M135.993 36.2095H132.701V39.5022H135.993V36.2095Z" fill="#976060"/>
<path d="M135.993 32.9166H132.701V36.2094H135.993V32.9166Z" fill="#915555"/>
<path d="M135.993 29.6238H132.701V32.9165H135.993V29.6238Z" fill="#976060"/>
<path d="M135.993 26.3311H132.701V29.6238H135.993V26.3311Z" fill="#070809"/>
<path d="M135.993 23.0383H132.701V26.3311H135.993V23.0383Z" fill="#7B4646"/>
<path d="M135.993 23.0383H132.701V26.3311H135.993V23.0383Z" fill="#63E0DB"/>
<path d="M135.993 19.7456H132.701V23.0384H135.993V19.7456Z" fill="#63E0DB"/>
<path d="M135.993 16.4528H132.701V19.7455H135.993V16.4528Z" fill="#63E0DB"/>
<path d="M135.993 13.1711H132.701V16.4639H135.993V13.1711Z" fill="white"/>
<path d="M135.993 9.8783H132.701V13.1711H135.993V9.8783Z" fill="white"/>
<path d="M135.993 6.58545H132.701V9.87822H135.993V6.58545Z" fill="white"/>
<path d="M135.993 3.29272H132.701V6.58549H135.993V3.29272Z" fill="#63E0DB"/>
<path d="M135.993 0H132.701V3.29277H135.993V0Z" fill="#63E0DB"/>
<path d="M132.701 111.91H129.408V115.203H132.701V111.91Z" fill="#63E0DB"/>
<path d="M132.701 108.617H129.408V111.91H132.701V108.617Z" fill="#63E0DB"/>
<path d="M132.701 105.324H129.408V108.617H132.701V105.324Z" fill="#63E0DB"/>
<path d="M132.701 102.031H129.408V105.324H132.701V102.031Z" fill="#2A9691"/>
<path d="M132.701 98.7388H129.408V102.032H132.701V98.7388Z" fill="#2A9691"/>
<path d="M132.701 95.446H129.408V98.7388H132.701V95.446Z" fill="#2A9691"/>
<path d="M132.701 92.1533H129.408V95.4461H132.701V92.1533Z" fill="#070809"/>
<path d="M132.701 88.8716H129.408V92.1644H132.701V88.8716Z" fill="#261516"/>
<path d="M132.701 85.5789H129.408V88.8716H132.701V85.5789Z" fill="#261516"/>
<path d="M132.701 82.2861H129.408V85.5789H132.701V82.2861Z" fill="#261516"/>
<path d="M132.701 78.9933H129.408V82.286H132.701V78.9933Z" fill="#261516"/>
<path d="M132.701 75.7004H129.408V78.9932H132.701V75.7004Z" fill="#8D4E4E"/>
<path d="M132.701 72.4077H129.408V75.7005H132.701V72.4077Z" fill="#DFC1C2"/>
<path d="M132.701 69.115H129.408V72.4078H132.701V69.115Z" fill="#8D4E4E"/>
<path d="M132.701 65.8333H129.408V69.126H132.701V65.8333Z" fill="#321B1B"/>
<path d="M132.701 62.5405H129.408V65.8333H132.701V62.5405Z" fill="#070809"/>
<path d="M132.701 59.2478H129.408V62.5406H132.701V59.2478Z" fill="#AA5C5C"/>
<path d="M132.701 55.955H129.408V59.2477H132.701V55.955Z" fill="#AA5C5C"/>
<path d="M132.701 52.6621H129.408V55.9549H132.701V52.6621Z" fill="#AA5C5C"/>
<path d="M132.701 49.3694H129.408V52.6621H132.701V49.3694Z" fill="#63E0DB"/>
<path d="M132.701 46.0767H129.408V49.3694H132.701V46.0767Z" fill="#915555"/>
<path d="M132.701 42.7839H129.408V46.0767H132.701V42.7839Z" fill="#915555"/>
<path d="M132.701 39.5022H129.408V42.795H132.701V39.5022Z" fill="#915555"/>
<path d="M132.701 36.2095H129.408V39.5022H132.701V36.2095Z" fill="#976060"/>
<path d="M132.701 32.9166H129.408V36.2094H132.701V32.9166Z" fill="#915555"/>
<path d="M132.701 29.6238H129.408V32.9165H132.701V29.6238Z" fill="#976060"/>
<path d="M132.701 26.3311H129.408V29.6238H132.701V26.3311Z" fill="#070809"/>
<path d="M132.701 23.0383H129.408V26.3311H132.701V23.0383Z" fill="#7B4646"/>
<path d="M132.701 23.0383H129.408V26.3311H132.701V23.0383Z" fill="#2A9691"/>
<path d="M132.701 19.7456H129.408V23.0384H132.701V19.7456Z" fill="#63E0DB"/>
<path d="M132.701 16.4528H129.408V19.7455H132.701V16.4528Z" fill="#63E0DB"/>
<path d="M132.701 13.1711H129.408V16.4639H132.701V13.1711Z" fill="#63E0DB"/>
<path d="M132.701 9.8783H129.408V13.1711H132.701V9.8783Z" fill="white"/>
<path d="M132.701 6.58545H129.408V9.87822H132.701V6.58545Z" fill="#63E0DB"/>
<path d="M132.701 3.29272H129.408V6.58549H132.701V3.29272Z" fill="#2A9691"/>
<path d="M129.408 111.91H126.115V115.203H129.408V111.91Z" fill="#2A9691"/>
<path d="M129.408 108.617H126.115V111.91H129.408V108.617Z" fill="#63E0DB"/>
<path d="M129.408 105.324H126.115V108.617H129.408V105.324Z" fill="#63E0DB"/>
<path d="M129.408 102.031H126.115V105.324H129.408V102.031Z" fill="#2A9691"/>
<path d="M129.408 98.7388H126.115V102.032H129.408V98.7388Z" fill="#2A9691"/>
<path d="M129.408 95.446H126.115V98.7388H129.408V95.446Z" fill="#2A9691"/>
<path d="M129.408 92.1533H126.115V95.4461H129.408V92.1533Z" fill="#070809"/>
<path d="M129.408 88.8716H126.115V92.1644H129.408V88.8716Z" fill="#321B1B"/>
<path d="M129.408 85.5789H126.115V88.8716H129.408V85.5789Z" fill="#261516"/>
<path d="M129.408 82.2861H126.115V85.5789H129.408V82.2861Z" fill="#321B1B"/>
<path d="M129.408 78.9933H126.115V82.286H129.408V78.9933Z" fill="#321B1B"/>
<path d="M129.408 75.7004H126.115V78.9932H129.408V75.7004Z" fill="#8D4E4E"/>
<path d="M129.408 72.4077H126.115V75.7005H129.408V72.4077Z" fill="#DFC1C2"/>
<path d="M129.408 69.115H126.115V72.4078H129.408V69.115Z" fill="#8D4E4E"/>
<path d="M129.408 65.8333H126.115V69.126H129.408V65.8333Z" fill="#321B1B"/>
<path d="M129.408 62.5405H126.115V65.8333H129.408V62.5405Z" fill="#321B1B"/>
<path d="M129.408 59.2478H126.115V62.5406H129.408V59.2478Z" fill="#070809"/>
<path d="M129.408 55.955H126.115V59.2477H129.408V55.955Z" fill="#070809"/>
<path d="M129.408 52.6621H126.115V55.9549H129.408V52.6621Z" fill="#070809"/>
<path d="M129.408 49.3694H126.115V52.6621H129.408V49.3694Z" fill="#4D4D4D"/>
<path d="M129.408 46.0767H126.115V49.3694H129.408V46.0767Z" fill="#231313"/>
<path d="M129.408 42.7839H126.115V46.0767H129.408V42.7839Z" fill="#070809"/>
<path d="M129.408 39.5022H126.115V42.795H129.408V39.5022Z" fill="#915555"/>
<path d="M129.408 36.2095H126.115V39.5022H129.408V36.2095Z" fill="#976060"/>
<path d="M129.408 32.9166H126.115V36.2094H129.408V32.9166Z" fill="#915555"/>
<path d="M129.408 29.6238H126.115V32.9165H129.408V29.6238Z" fill="#976060"/>
<path d="M129.408 26.3311H126.115V29.6238H129.408V26.3311Z" fill="#070809"/>
<path d="M129.408 23.0383H126.115V26.3311H129.408V23.0383Z" fill="#7B4646"/>
<path d="M129.408 23.0383H126.115V26.3311H129.408V23.0383Z" fill="#2A9691"/>
<path d="M129.408 19.7456H126.115V23.0384H129.408V19.7456Z" fill="#63E0DB"/>
<path d="M129.408 16.4528H126.115V19.7455H129.408V16.4528Z" fill="#2A9691"/>
<path d="M129.408 13.1711H126.115V16.4639H129.408V13.1711Z" fill="#63E0DB"/>
<path d="M129.408 9.8783H126.115V13.1711H129.408V9.8783Z" fill="#63E0DB"/>
<path d="M129.408 6.58545H126.115V9.87822H129.408V6.58545Z" fill="#2A9691"/>
<path d="M126.126 111.91H122.833V115.203H126.126V111.91Z" fill="#2A9691"/>
<path d="M126.126 108.617H122.833V111.91H126.126V108.617Z" fill="#63E0DB"/>
<path d="M126.126 105.324H122.833V108.617H126.126V105.324Z" fill="#63E0DB"/>
<path d="M126.126 102.031H122.833V105.324H126.126V102.031Z" fill="#63E0DB"/>
<path d="M126.126 98.7388H122.833V102.032H126.126V98.7388Z" fill="#2A9691"/>
<path d="M126.126 95.446H122.833V98.7388H126.126V95.446Z" fill="#2A9691"/>
<path d="M126.126 92.1533H122.833V95.4461H126.126V92.1533Z" fill="#2A9691"/>
<path d="M126.126 88.8716H122.833V92.1644H126.126V88.8716Z" fill="#070809"/>
<path d="M126.126 85.5789H122.833V88.8716H126.126V85.5789Z" fill="#321B1B"/>
<path d="M126.126 82.2861H122.833V85.5789H126.126V82.2861Z" fill="#261516"/>
<path d="M126.126 78.9933H122.833V82.286H126.126V78.9933Z" fill="#261516"/>
<path d="M126.126 75.7004H122.833V78.9932H126.126V75.7004Z" fill="#321B1B"/>
<path d="M126.126 72.4077H122.833V75.7005H126.126V72.4077Z" fill="#070809"/>
<path d="M126.126 69.115H122.833V72.4078H126.126V69.115Z" fill="#321B1B"/>
<path d="M126.126 65.8333H122.833V69.126H126.126V65.8333Z" fill="#321B1B"/>
<path d="M126.126 62.5405H122.833V65.8333H126.126V62.5405Z" fill="#915555"/>
<path d="M126.126 59.2478H122.833V62.5406H126.126V59.2478Z" fill="#070809"/>
<path d="M126.126 55.955H122.833V59.2477H126.126V55.955Z" fill="#070809"/>
<path d="M126.126 52.6621H122.833V55.9549H126.126V52.6621Z" fill="#4D4D4D"/>
<path d="M126.126 49.3694H122.833V52.6621H126.126V49.3694Z" fill="#070809"/>
<path d="M126.126 46.0767H122.833V49.3694H126.126V46.0767Z" fill="#231313"/>
<path d="M126.126 42.7839H122.833V46.0767H126.126V42.7839Z" fill="#231313"/>
<path d="M126.126 39.5022H122.833V42.795H126.126V39.5022Z" fill="#070809"/>
<path d="M126.126 36.2095H122.833V39.5022H126.126V36.2095Z" fill="#915555"/>
<path d="M126.126 32.9166H122.833V36.2094H126.126V32.9166Z" fill="#915555"/>
<path d="M126.126 29.6238H122.833V32.9165H126.126V29.6238Z" fill="#915555"/>
<path d="M126.126 26.3311H122.833V29.6238H126.126V26.3311Z" fill="#070809"/>
<path d="M126.126 23.0383H122.833V26.3311H126.126V23.0383Z" fill="#7B4646"/>
<path d="M126.126 23.0383H122.833V26.3311H126.126V23.0383Z" fill="#2A9691"/>
<path d="M126.126 19.7456H122.833V23.0384H126.126V19.7456Z" fill="#63E0DB"/>
<path d="M126.126 16.4528H122.833V19.7455H126.126V16.4528Z" fill="#63E0DB"/>
<path d="M126.126 13.1711H122.833V16.4639H126.126V13.1711Z" fill="#63E0DB"/>
<path d="M122.833 111.91H119.541V115.203H122.833V111.91Z" fill="#070809"/>
<path d="M122.833 108.617H119.541V111.91H122.833V108.617Z" fill="#070809"/>
<path d="M122.833 105.324H119.541V108.617H122.833V105.324Z" fill="#070809"/>
<path d="M122.833 102.031H119.541V105.324H122.833V102.031Z" fill="#070809"/>
<path d="M122.833 98.7388H119.541V102.032H122.833V98.7388Z" fill="#070809"/>
<path d="M122.833 95.446H119.541V98.7388H122.833V95.446Z" fill="#070809"/>
<path d="M122.833 92.1533H119.541V95.4461H122.833V92.1533Z" fill="#2A9691"/>
<path d="M122.833 88.8716H119.541V92.1644H122.833V88.8716Z" fill="#2A9691"/>
<path d="M122.833 85.5789H119.541V88.8716H122.833V85.5789Z" fill="#070809"/>
<path d="M122.833 82.2861H119.541V85.5789H122.833V82.2861Z" fill="#321B1B"/>
<path d="M122.833 78.9933H119.541V82.286H122.833V78.9933Z" fill="#261516"/>
<path d="M122.833 75.7004H119.541V78.9932H122.833V75.7004Z" fill="#321B1B"/>
<path d="M122.833 72.4077H119.541V75.7005H122.833V72.4077Z" fill="#321B1B"/>
<path d="M122.833 69.115H119.541V72.4078H122.833V69.115Z" fill="#261516"/>
<path d="M122.833 65.8333H119.541V69.126H122.833V65.8333Z" fill="#915555"/>
<path d="M122.833 62.5405H119.541V65.8333H122.833V62.5405Z" fill="#915555"/>
<path d="M122.833 59.2478H119.541V62.5406H122.833V59.2478Z" fill="#070809"/>
<path d="M122.833 55.955H119.541V59.2477H122.833V55.955Z" fill="#070809"/>
<path d="M122.833 52.6621H119.541V55.9549H122.833V52.6621Z" fill="#070809"/>
<path d="M122.833 49.3694H119.541V52.6621H122.833V49.3694Z" fill="#4D4D4D"/>
<path d="M122.833 46.0767H119.541V49.3694H122.833V46.0767Z" fill="#231313"/>
<path d="M122.833 42.7839H119.541V46.0767H122.833V42.7839Z" fill="#231313"/>
<path d="M122.833 39.5022H119.541V42.795H122.833V39.5022Z" fill="#070809"/>
<path d="M122.833 36.2095H119.541V39.5022H122.833V36.2095Z" fill="#915555"/>
<path d="M122.833 32.9166H119.541V36.2094H122.833V32.9166Z" fill="#7B4646"/>
<path d="M122.833 29.6238H119.541V32.9165H122.833V29.6238Z" fill="#7B4646"/>
<path d="M122.833 26.3311H119.541V29.6238H122.833V26.3311Z" fill="#070809"/>
<path d="M122.833 23.0383H119.541V26.3311H122.833V23.0383Z" fill="#7B4646"/>
<path d="M122.833 23.0383H119.541V26.3311H122.833V23.0383Z" fill="#63E0DB"/>
<path d="M122.833 19.7456H119.541V23.0384H122.833V19.7456Z" fill="#63E0DB"/>
<path d="M122.833 16.4528H119.541V19.7455H122.833V16.4528Z" fill="#63E0DB"/>
<path d="M122.833 9.8783H119.541V13.1711H122.833V9.8783Z" fill="#63E0DB"/>
<path d="M119.541 111.91H116.248V115.203H119.541V111.91Z" fill="white"/>
<path d="M119.541 108.617H116.248V111.91H119.541V108.617Z" fill="white"/>
<path d="M119.541 105.324H116.248V108.617H119.541V105.324Z" fill="white"/>
<path d="M119.541 102.031H116.248V105.324H119.541V102.031Z" fill="white"/>
<path d="M119.541 98.7388H116.248V102.032H119.541V98.7388Z" fill="white"/>
<path d="M119.541 95.446H116.248V98.7388H119.541V95.446Z" fill="white"/>
<path d="M119.541 92.1533H116.248V95.4461H119.541V92.1533Z" fill="#070809"/>
<path d="M119.541 88.8716H116.248V92.1644H119.541V88.8716Z" fill="#070809"/>
<path d="M119.541 85.5789H116.248V88.8716H119.541V85.5789Z" fill="#070809"/>
<path d="M119.541 82.2861H116.248V85.5789H119.541V82.2861Z" fill="#070809"/>
<path d="M119.541 78.9933H116.248V82.286H119.541V78.9933Z" fill="#321B1B"/>
<path d="M119.541 75.7004H116.248V78.9932H119.541V75.7004Z" fill="#321B1B"/>
<path d="M119.541 72.4077H116.248V75.7005H119.541V72.4077Z" fill="#261516"/>
<path d="M119.541 69.115H116.248V72.4078H119.541V69.115Z" fill="#261516"/>
<path d="M119.541 65.8333H116.248V69.126H119.541V65.8333Z" fill="#321B1B"/>
<path d="M119.541 62.5405H116.248V65.8333H119.541V62.5405Z" fill="#915555"/>
<path d="M119.541 59.2478H116.248V62.5406H119.541V59.2478Z" fill="#070809"/>
<path d="M119.541 55.955H116.248V59.2477H119.541V55.955Z" fill="#070809"/>
<path d="M119.541 52.6621H116.248V55.9549H119.541V52.6621Z" fill="#4D4D4D"/>
<path d="M119.541 49.3694H116.248V52.6621H119.541V49.3694Z" fill="#070809"/>
<path d="M119.541 46.0767H116.248V49.3694H119.541V46.0767Z" fill="#231313"/>
<path d="M119.541 42.7839H116.248V46.0767H119.541V42.7839Z" fill="#321B1B"/>
<path d="M119.541 39.5022H116.248V42.795H119.541V39.5022Z" fill="#070809"/>
<path d="M119.541 36.2095H116.248V39.5022H119.541V36.2095Z" fill="#7B4646"/>
<path d="M119.541 32.9166H116.248V36.2094H119.541V32.9166Z" fill="#7B4646"/>
<path d="M119.541 29.6238H116.248V32.9165H119.541V29.6238Z" fill="#7B4646"/>
<path d="M119.541 26.3311H116.248V29.6238H119.541V26.3311Z" fill="#070809"/>
<path d="M119.541 23.0383H116.248V26.3311H119.541V23.0383Z" fill="#63E0DB"/>
<path d="M119.541 19.7456H116.248V23.0384H119.541V19.7456Z" fill="#63E0DB"/>
<path d="M119.541 16.4528H116.248V19.7455H119.541V16.4528Z" fill="#2A9691"/>
<path d="M119.541 13.1711H116.248V16.4639H119.541V13.1711Z" fill="#63E0DB"/>
<path d="M119.541 9.8783H116.248V13.1711H119.541V9.8783Z" fill="white"/>
<path d="M119.541 6.58545H116.248V9.87822H119.541V6.58545Z" fill="#63E0DB"/>
<path d="M116.248 111.91H112.955V115.203H116.248V111.91Z" fill="#FDEBDC"/>
<path d="M116.248 108.617H112.955V111.91H116.248V108.617Z" fill="#FDEBDC"/>
<path d="M116.248 105.324H112.955V108.617H116.248V105.324Z" fill="white"/>
<path d="M116.248 102.031H112.955V105.324H116.248V102.031Z" fill="#FDEBDC"/>
<path d="M116.248 98.7388H112.955V102.032H116.248V98.7388Z" fill="white"/>
<path d="M116.248 95.446H112.955V98.7388H116.248V95.446Z" fill="#FDEBDC"/>
<path d="M116.248 92.1533H112.955V95.4461H116.248V92.1533Z" fill="white"/>
<path d="M116.248 88.8716H112.955V92.1644H116.248V88.8716Z" fill="white"/>
<path d="M116.248 85.5789H112.955V88.8716H116.248V85.5789Z" fill="white"/>
<path d="M116.248 82.2861H112.955V85.5789H116.248V82.2861Z" fill="#070809"/>
<path d="M116.248 78.9933H112.955V82.286H116.248V78.9933Z" fill="#070809"/>
<path d="M116.248 75.7004H112.955V78.9932H116.248V75.7004Z" fill="#231313"/>
<path d="M116.248 72.4077H112.955V75.7005H116.248V72.4077Z" fill="#261516"/>
<path d="M116.248 69.115H112.955V72.4078H116.248V69.115Z" fill="#261516"/>
<path d="M116.248 65.8333H112.955V69.126H116.248V65.8333Z" fill="#321B1B"/>
<path d="M116.248 62.5405H112.955V65.8333H116.248V62.5405Z" fill="#261516"/>
<path d="M116.248 59.2478H112.955V62.5406H116.248V59.2478Z" fill="#321B1B"/>
<path d="M116.248 55.955H112.955V59.2477H116.248V55.955Z" fill="#070809"/>
<path d="M116.248 52.6621H112.955V55.9549H116.248V52.6621Z" fill="#070809"/>
<path d="M116.248 49.3694H112.955V52.6621H116.248V49.3694Z" fill="#4D4D4D"/>
<path d="M116.248 46.0767H112.955V49.3694H116.248V46.0767Z" fill="#321B1B"/>
<path d="M116.248 42.7839H112.955V46.0767H116.248V42.7839Z" fill="#070809"/>
<path d="M116.248 39.5022H112.955V42.795H116.248V39.5022Z" fill="#7B4646"/>
<path d="M116.248 36.2095H112.955V39.5022H116.248V36.2095Z" fill="#7B4646"/>
<path d="M116.248 32.9166H112.955V36.2094H116.248V32.9166Z" fill="#7B4646"/>
<path d="M116.248 29.6238H112.955V32.9165H116.248V29.6238Z" fill="#7B4646"/>
<path d="M112.955 111.91H109.662V115.203H112.955V111.91Z" fill="#FDEBDC"/>
<path d="M112.955 108.617H109.662V111.91H112.955V108.617Z" fill="white"/>
<path d="M112.955 105.324H109.662V108.617H112.955V105.324Z" fill="white"/>
<path d="M112.955 102.031H109.662V105.324H112.955V102.031Z" fill="white"/>
<path d="M112.955 98.7388H109.662V102.032H112.955V98.7388Z" fill="#FDEBDC"/>
<path d="M112.955 95.446H109.662V98.7388H112.955V95.446Z" fill="white"/>
<path d="M112.955 92.1533H109.662V95.4461H112.955V92.1533Z" fill="white"/>
<path d="M112.955 88.8716H109.662V92.1644H112.955V88.8716Z" fill="white"/>
<path d="M112.955 85.5789H109.662V88.8716H112.955V85.5789Z" fill="white"/>
<path d="M112.955 82.2861H109.662V85.5789H112.955V82.2861Z" fill="white"/>
<path d="M112.955 78.9933H109.662V82.286H112.955V78.9933Z" fill="white"/>
<path d="M112.955 75.7004H109.662V78.9932H112.955V75.7004Z" fill="#070809"/>
<path d="M112.955 72.4077H109.662V75.7005H112.955V72.4077Z" fill="#070809"/>
<path d="M112.955 69.115H109.662V72.4078H112.955V69.115Z" fill="#070809"/>
<path d="M112.955 65.8333H109.662V69.126H112.955V65.8333Z" fill="#070809"/>
<path d="M112.955 62.5405H109.662V65.8333H112.955V62.5405Z" fill="#070809"/>
<path d="M112.955 59.2478H109.662V62.5406H112.955V59.2478Z" fill="#070809"/>
<path d="M112.955 55.955H109.662V59.2477H112.955V55.955Z" fill="#7B4646"/>
<path d="M112.955 52.6621H109.662V55.9549H112.955V52.6621Z" fill="#7B4646"/>
<path d="M112.955 49.3694H109.662V52.6621H112.955V49.3694Z" fill="#63E0DB"/>
<path d="M112.955 46.0767H109.662V49.3694H112.955V46.0767Z" fill="#7B4646"/>
<path d="M112.955 42.7839H109.662V46.0767H112.955V42.7839Z" fill="#7B4646"/>
<path d="M112.955 39.5022H109.662V42.795H112.955V39.5022Z" fill="#7B4646"/>
<path d="M112.955 36.2095H109.662V39.5022H112.955V36.2095Z" fill="#7B4646"/>
<path d="M109.662 46.0767H106.37V49.3694H109.662V46.0767Z" fill="#070809"/>
<path d="M106.37 49.3694H103.077V52.6621H106.37V49.3694Z" fill="#070809"/>
<path d="M106.37 52.6621H103.077V55.9549H106.37V52.6621Z" fill="#070809"/>
<path d="M106.37 55.955H103.077V59.2477H106.37V55.955Z" fill="#070809"/>
<path d="M106.37 46.0767H103.077V49.3694H106.37V46.0767Z" fill="#070809"/>
<path d="M109.662 42.7839H106.37V46.0767H109.662V42.7839Z" fill="#070809"/>
<path d="M109.662 39.5022H106.37V42.795H109.662V39.5022Z" fill="#070809"/>
<path d="M109.662 36.2095H106.37V39.5022H109.662V36.2095Z" fill="#070809"/>
<path d="M112.955 32.9166H109.662V36.2094H112.955V32.9166Z" fill="#070809"/>
<path d="M112.955 29.6238H109.662V32.9165H112.955V29.6238Z" fill="#070809"/>
<path d="M116.248 26.3311H112.955V29.6238H116.248V26.3311Z" fill="#070809"/>
<path d="M116.248 23.0383H112.955V26.3311H116.248V23.0383Z" fill="#070809"/>
<path d="M116.248 19.7456H112.955V23.0384H116.248V19.7456Z" fill="#070809"/>
<path d="M116.248 16.4528H112.955V19.7455H116.248V16.4528Z" fill="#070809"/>
<path d="M116.248 13.1711H112.955V16.4639H116.248V13.1711Z" fill="#070809"/>
<path d="M116.248 9.8783H112.955V13.1711H116.248V9.8783Z" fill="#070809"/>
<path d="M116.248 6.58545H112.955V9.87822H116.248V6.58545Z" fill="#070809"/>
<path d="M119.541 3.29272H116.248V6.58549H119.541V3.29272Z" fill="#070809"/>
<path d="M122.833 6.58545H119.541V9.87822H122.833V6.58545Z" fill="#070809"/>
<path d="M126.126 9.8783H122.833V13.1711H126.126V9.8783Z" fill="#070809"/>
<path d="M129.408 6.58545H126.115V9.87822H129.408V6.58545Z" fill="#070809"/>
<path d="M132.701 3.29272H129.408V6.58549H132.701V3.29272Z" fill="#070809"/>
<path d="M135.993 0H132.701V3.29277H135.993V0Z" fill="#070809"/>
<path d="M109.662 111.91H106.37V115.203H109.662V111.91Z" fill="#070809"/>
<path d="M109.662 108.617H106.37V111.91H109.662V108.617Z" fill="#070809"/>
<path d="M109.662 105.324H106.37V108.617H109.662V105.324Z" fill="#FDEBDC"/>
<path d="M109.662 102.031H106.37V105.324H109.662V102.031Z" fill="white"/>
<path d="M109.662 98.7388H106.37V102.032H109.662V98.7388Z" fill="white"/>
<path d="M109.662 95.446H106.37V98.7388H109.662V95.446Z" fill="white"/>
<path d="M109.662 92.1533H106.37V95.4461H109.662V92.1533Z" fill="#FDEBDC"/>
<path d="M109.662 88.8716H106.37V92.1644H109.662V88.8716Z" fill="#FDEBDC"/>
<path d="M109.662 85.5789H106.37V88.8716H109.662V85.5789Z" fill="white"/>
<path d="M109.662 82.2861H106.37V85.5789H109.662V82.2861Z" fill="#FDEBDC"/>
<path d="M109.662 78.9933H106.37V82.286H109.662V78.9933Z" fill="white"/>
<path d="M109.662 75.7004H106.37V78.9932H109.662V75.7004Z" fill="white"/>
<path d="M109.662 72.4077H106.37V75.7005H109.662V72.4077Z" fill="white"/>
<path d="M109.662 69.115H106.37V72.4078H109.662V69.115Z" fill="white"/>
<path d="M109.662 65.8333H106.37V69.126H109.662V65.8333Z" fill="white"/>
<path d="M109.662 62.5405H106.37V65.8333H109.662V62.5405Z" fill="white"/>
<path d="M109.662 59.2478H106.37V62.5406H109.662V59.2478Z" fill="#070809"/>
<path d="M109.662 55.955H106.37V59.2477H109.662V55.955Z" fill="#915555"/>
<path d="M109.662 52.6621H106.37V55.9549H109.662V52.6621Z" fill="#915555"/>
<path d="M109.662 49.3694H106.37V52.6621H109.662V49.3694Z" fill="#63E0DB"/>
<path d="M106.37 111.91H103.077V115.203H106.37V111.91Z" fill="#63E0DB"/>
<path d="M106.37 108.617H103.077V111.91H106.37V108.617Z" fill="#2A9691"/>
<path d="M106.37 105.324H103.077V108.617H106.37V105.324Z" fill="#070809"/>
<path d="M106.37 102.031H103.077V105.324H106.37V102.031Z" fill="#FDEBDC"/>
<path d="M106.37 98.7388H103.077V102.032H106.37V98.7388Z" fill="#FDEBDC"/>
<path d="M106.37 95.446H103.077V98.7388H106.37V95.446Z" fill="white"/>
<path d="M106.37 92.1533H103.077V95.4461H106.37V92.1533Z" fill="white"/>
<path d="M106.37 88.8716H103.077V92.1644H106.37V88.8716Z" fill="#FDEBDC"/>
<path d="M106.37 85.5789H103.077V88.8716H106.37V85.5789Z" fill="#FDEBDC"/>
<path d="M106.37 82.2861H103.077V85.5789H106.37V82.2861Z" fill="white"/>
<path d="M106.37 78.9933H103.077V82.286H106.37V78.9933Z" fill="#FDEBDC"/>
<path d="M106.37 75.7004H103.077V78.9932H106.37V75.7004Z" fill="white"/>
<path d="M106.37 72.4077H103.077V75.7005H106.37V72.4077Z" fill="white"/>
<path d="M106.37 69.115H103.077V72.4078H106.37V69.115Z" fill="#FDEBDC"/>
<path d="M106.37 65.8333H103.077V69.126H106.37V65.8333Z" fill="white"/>
<path d="M106.37 62.5405H103.077V65.8333H106.37V62.5405Z" fill="white"/>
<path d="M106.37 59.2478H103.077V62.5406H106.37V59.2478Z" fill="white"/>
<path d="M103.077 111.91H99.7841V115.203H103.077V111.91Z" fill="#63E0DB"/>
<path d="M103.077 108.617H99.7841V111.91H103.077V108.617Z" fill="#63E0DB"/>
<path d="M103.077 105.324H99.7841V108.617H103.077V105.324Z" fill="#63E0DB"/>
<path d="M103.077 102.031H99.7841V105.324H103.077V102.031Z" fill="#070809"/>
<path d="M103.077 98.7388H99.7841V102.032H103.077V98.7388Z" fill="#070809"/>
<path d="M103.077 95.446H99.7841V98.7388H103.077V95.446Z" fill="white"/>
<path d="M103.077 92.1533H99.7841V95.4461H103.077V92.1533Z" fill="white"/>
<path d="M103.077 88.8716H99.7841V92.1644H103.077V88.8716Z" fill="white"/>
<path d="M103.077 85.5789H99.7841V88.8716H103.077V85.5789Z" fill="white"/>
<path d="M103.077 82.2861H99.7841V85.5789H103.077V82.2861Z" fill="white"/>
<path d="M103.077 78.9933H99.7841V82.286H103.077V78.9933Z" fill="#FDEBDC"/>
<path d="M103.077 75.7004H99.7841V78.9932H103.077V75.7004Z" fill="white"/>
<path d="M103.077 72.4077H99.7841V75.7005H103.077V72.4077Z" fill="#FDEBDC"/>
<path d="M103.077 69.115H99.7841V72.4078H103.077V69.115Z" fill="#FDEBDC"/>
<path d="M103.077 65.8333H99.7841V69.126H103.077V65.8333Z" fill="white"/>
<path d="M103.077 62.5405H99.7841V65.8333H103.077V62.5405Z" fill="#FDEBDC"/>
<path d="M103.077 59.2478H99.7841V62.5406H103.077V59.2478Z" fill="#070809"/>
<path d="M99.7951 111.91H96.5023V115.203H99.7951V111.91Z" fill="#63E0DB"/>
<path d="M99.7951 108.617H96.5023V111.91H99.7951V108.617Z" fill="#63E0DB"/>
<path d="M99.7951 105.324H96.5023V108.617H99.7951V105.324Z" fill="#63E0DB"/>
<path d="M99.7951 102.031H96.5023V105.324H99.7951V102.031Z" fill="#63E0DB"/>
<path d="M99.7951 98.7388H96.5023V102.032H99.7951V98.7388Z" fill="#2A9691"/>
<path d="M99.7951 95.446H96.5023V98.7388H99.7951V95.446Z" fill="#070809"/>
<path d="M99.7951 92.1533H96.5023V95.4461H99.7951V92.1533Z" fill="#070809"/>
<path d="M99.7951 88.8716H96.5023V92.1644H99.7951V88.8716Z" fill="#070809"/>
<path d="M99.7951 85.5789H96.5023V88.8716H99.7951V85.5789Z" fill="#FDEBDC"/>
<path d="M99.7951 82.2861H96.5023V85.5789H99.7951V82.2861Z" fill="white"/>
<path d="M99.7951 78.9933H96.5023V82.286H99.7951V78.9933Z" fill="#FDEBDC"/>
<path d="M99.7951 75.7004H96.5023V78.9932H99.7951V75.7004Z" fill="white"/>
<path d="M99.7951 72.4077H96.5023V75.7005H99.7951V72.4077Z" fill="#FDEBDC"/>
<path d="M99.7951 69.115H96.5023V72.4078H99.7951V69.115Z" fill="#FDEBDC"/>
<path d="M99.7951 65.8333H96.5023V69.126H99.7951V65.8333Z" fill="#FDEBDC"/>
<path d="M99.7951 62.5405H96.5023V65.8333H99.7951V62.5405Z" fill="#070809"/>
<path d="M96.5022 111.91H93.2095V115.203H96.5022V111.91Z" fill="#63E0DB"/>
<path d="M96.5022 108.617H93.2095V111.91H96.5022V108.617Z" fill="#63E0DB"/>
<path d="M96.5022 105.324H93.2095V108.617H96.5022V105.324Z" fill="#63E0DB"/>
<path d="M96.5022 102.031H93.2095V105.324H96.5022V102.031Z" fill="#63E0DB"/>
<path d="M96.5022 98.7388H93.2095V102.032H96.5022V98.7388Z" fill="#63E0DB"/>
<path d="M96.5022 95.446H93.2095V98.7388H96.5022V95.446Z" fill="#63E0DB"/>
<path d="M96.5022 92.1533H93.2095V95.4461H96.5022V92.1533Z" fill="#63E0DB"/>
<path d="M96.5022 88.8716H93.2095V92.1644H96.5022V88.8716Z" fill="#2A9691"/>
<path d="M96.5022 85.5789H93.2095V88.8716H96.5022V85.5789Z" fill="#070809"/>
<path d="M96.5022 82.2861H93.2095V85.5789H96.5022V82.2861Z" fill="#070809"/>
<path d="M96.5022 78.9933H93.2095V82.286H96.5022V78.9933Z" fill="white"/>
<path d="M96.5022 75.7004H93.2095V78.9932H96.5022V75.7004Z" fill="white"/>
<path d="M96.5022 72.4077H93.2095V75.7005H96.5022V72.4077Z" fill="#FDEBDC"/>
<path d="M96.5022 69.115H93.2095V72.4078H96.5022V69.115Z" fill="white"/>
<path d="M96.5022 65.8333H93.2095V69.126H96.5022V65.8333Z" fill="#070809"/>
<path d="M93.2095 111.91H89.9167V115.203H93.2095V111.91Z" fill="#63E0DB"/>
<path d="M93.2095 108.617H89.9167V111.91H93.2095V108.617Z" fill="#63E0DB"/>
<path d="M93.2095 105.324H89.9167V108.617H93.2095V105.324Z" fill="#63E0DB"/>
<path d="M93.2095 102.031H89.9167V105.324H93.2095V102.031Z" fill="#63E0DB"/>
<path d="M93.2095 98.7388H89.9167V102.032H93.2095V98.7388Z" fill="#63E0DB"/>
<path d="M93.2095 95.446H89.9167V98.7388H93.2095V95.446Z" fill="#63E0DB"/>
<path d="M93.2095 92.1533H89.9167V95.4461H93.2095V92.1533Z" fill="#63E0DB"/>
<path d="M93.2095 88.8716H89.9167V92.1644H93.2095V88.8716Z" fill="#63E0DB"/>
<path d="M93.2095 85.5789H89.9167V88.8716H93.2095V85.5789Z" fill="#63E0DB"/>
<path d="M93.2095 82.2861H89.9167V85.5789H93.2095V82.2861Z" fill="#63E0DB"/>
<path d="M93.2095 78.9933H89.9167V82.286H93.2095V78.9933Z" fill="#070809"/>
<path d="M93.2095 75.7004H89.9167V78.9932H93.2095V75.7004Z" fill="#070809"/>
<path d="M93.2095 72.4077H89.9167V75.7005H93.2095V72.4077Z" fill="#070809"/>
<path d="M93.2095 69.115H89.9167V72.4078H93.2095V69.115Z" fill="#070809"/>
<path d="M89.9168 111.91H86.624V115.203H89.9168V111.91Z" fill="#63E0DB"/>
<path d="M89.9168 108.617H86.624V111.91H89.9168V108.617Z" fill="#63E0DB"/>
<path d="M89.9168 105.324H86.624V108.617H89.9168V105.324Z" fill="#63E0DB"/>
<path d="M89.9168 102.031H86.624V105.324H89.9168V102.031Z" fill="#63E0DB"/>
<path d="M89.9168 98.7388H86.624V102.032H89.9168V98.7388Z" fill="#63E0DB"/>
<path d="M89.9168 95.446H86.624V98.7388H89.9168V95.446Z" fill="#63E0DB"/>
<path d="M89.9168 92.1533H86.624V95.4461H89.9168V92.1533Z" fill="#63E0DB"/>
<path d="M89.9168 88.8716H86.624V92.1644H89.9168V88.8716Z" fill="#63E0DB"/>
<path d="M89.9168 85.5789H86.624V88.8716H89.9168V85.5789Z" fill="#63E0DB"/>
<path d="M89.9168 82.2861H86.624V85.5789H89.9168V82.2861Z" fill="#63E0DB"/>
<path d="M89.9168 78.9933H86.624V82.286H89.9168V78.9933Z" fill="#070809"/>
<path d="M86.6239 111.91H83.3312V115.203H86.6239V111.91Z" fill="#63E0DB"/>
<path d="M86.6239 108.617H83.3312V111.91H86.6239V108.617Z" fill="#63E0DB"/>
<path d="M86.6239 105.324H83.3312V108.617H86.6239V105.324Z" fill="#63E0DB"/>
<path d="M86.6239 102.031H83.3312V105.324H86.6239V102.031Z" fill="#63E0DB"/>
<path d="M86.6239 98.7388H83.3312V102.032H86.6239V98.7388Z" fill="#63E0DB"/>
<path d="M86.6239 95.446H83.3312V98.7388H86.6239V95.446Z" fill="#63E0DB"/>
<path d="M86.6239 92.1533H83.3312V95.4461H86.6239V92.1533Z" fill="#63E0DB"/>
<path d="M86.6239 88.8716H83.3312V92.1644H86.6239V88.8716Z" fill="#63E0DB"/>
<path d="M86.6239 85.5789H83.3312V88.8716H86.6239V85.5789Z" fill="#63E0DB"/>
<path d="M86.6239 82.2861H83.3312V85.5789H86.6239V82.2861Z" fill="#070809"/>
<path d="M83.3312 111.91H80.0385V115.203H83.3312V111.91Z" fill="#63E0DB"/>
<path d="M83.3312 108.617H80.0385V111.91H83.3312V108.617Z" fill="#63E0DB"/>
<path d="M83.3312 105.324H80.0385V108.617H83.3312V105.324Z" fill="#63E0DB"/>
<path d="M83.3312 102.031H80.0385V105.324H83.3312V102.031Z" fill="#63E0DB"/>
<path d="M83.3312 98.7388H80.0385V102.032H83.3312V98.7388Z" fill="#63E0DB"/>
<path d="M83.3312 95.446H80.0385V98.7388H83.3312V95.446Z" fill="#63E0DB"/>
<path d="M83.3312 92.1533H80.0385V95.4461H83.3312V92.1533Z" fill="#63E0DB"/>
<path d="M83.3312 88.8716H80.0385V92.1644H83.3312V88.8716Z" fill="#63E0DB"/>
<path d="M83.3312 85.5789H80.0385V88.8716H83.3312V85.5789Z" fill="#63E0DB"/>
<path d="M83.3312 82.2861H80.0385V85.5789H83.3312V82.2861Z" fill="#070809"/>
<path d="M80.0384 111.91H76.7456V115.203H80.0384V111.91Z" fill="#63E0DB"/>
<path d="M80.0384 108.617H76.7456V111.91H80.0384V108.617Z" fill="#63E0DB"/>
<path d="M80.0384 105.324H76.7456V108.617H80.0384V105.324Z" fill="#63E0DB"/>
<path d="M80.0384 102.031H76.7456V105.324H80.0384V102.031Z" fill="#63E0DB"/>
<path d="M80.0384 98.7388H76.7456V102.032H80.0384V98.7388Z" fill="#63E0DB"/>
<path d="M80.0384 95.446H76.7456V98.7388H80.0384V95.446Z" fill="#63E0DB"/>
<path d="M80.0384 92.1533H76.7456V95.4461H80.0384V92.1533Z" fill="#63E0DB"/>
<path d="M80.0384 88.8716H76.7456V92.1644H80.0384V88.8716Z" fill="#63E0DB"/>
<path d="M80.0384 85.5789H76.7456V88.8716H80.0384V85.5789Z" fill="#63E0DB"/>
<path d="M80.0384 82.2861H76.7456V85.5789H80.0384V82.2861Z" fill="#070809"/>
<path d="M70.1712 111.91H66.8784V115.203H70.1712V111.91Z" fill="#63E0DB"/>
<path d="M76.7456 108.617H73.4529V111.91H76.7456V108.617Z" fill="#63E0DB"/>
<path d="M76.7456 105.324H73.4529V108.617H76.7456V105.324Z" fill="#63E0DB"/>
<path d="M76.7456 102.031H73.4529V105.324H76.7456V102.031Z" fill="#63E0DB"/>
<path d="M76.7456 98.7388H73.4529V102.032H76.7456V98.7388Z" fill="#63E0DB"/>
<path d="M76.7456 95.446H73.4529V98.7388H76.7456V95.446Z" fill="#63E0DB"/>
<path d="M76.7456 92.1533H73.4529V95.4461H76.7456V92.1533Z" fill="#63E0DB"/>
<path d="M76.7456 88.8716H73.4529V92.1644H76.7456V88.8716Z" fill="#63E0DB"/>
<path d="M76.7456 85.5789H73.4529V88.8716H76.7456V85.5789Z" fill="#070809"/>
<path d="M66.8783 111.91H63.5856V115.203H66.8783V111.91Z" fill="#63E0DB"/>
<path d="M76.7456 111.91H73.4529V115.203H76.7456V111.91Z" fill="#63E0DB"/>
<path d="M73.4639 111.91H70.1711V115.203H73.4639V111.91Z" fill="#63E0DB"/>
<path d="M73.4639 108.617H70.1711V111.91H73.4639V108.617Z" fill="#63E0DB"/>
<path d="M73.4639 105.324H70.1711V108.617H73.4639V105.324Z" fill="#63E0DB"/>
<path d="M73.4639 102.031H70.1711V105.324H73.4639V102.031Z" fill="#63E0DB"/>
<path d="M73.4639 98.7388H70.1711V102.032H73.4639V98.7388Z" fill="#63E0DB"/>
<path d="M73.4639 95.446H70.1711V98.7388H73.4639V95.446Z" fill="#63E0DB"/>
<path d="M73.4639 92.1643H70.1711V95.4571H73.4639V92.1643Z" fill="#63E0DB"/>
<path d="M73.4639 88.8716H70.1711V92.1644H73.4639V88.8716Z" fill="#070809"/>
<path d="M70.1712 108.617H66.8784V111.91H70.1712V108.617Z" fill="#2A9691"/>
<path d="M70.1712 105.324H66.8784V108.617H70.1712V105.324Z" fill="#63E0DB"/>
<path d="M70.1712 102.031H66.8784V105.324H70.1712V102.031Z" fill="#63E0DB"/>
<path d="M70.1712 98.7388H66.8784V102.032H70.1712V98.7388Z" fill="#63E0DB"/>
<path d="M70.1712 95.446H66.8784V98.7388H70.1712V95.446Z" fill="#63E0DB"/>
<path d="M70.1712 92.1533H66.8784V95.4461H70.1712V92.1533Z" fill="#070809"/>
<path d="M66.8783 108.617H63.5856V111.91H66.8783V108.617Z" fill="#63E0DB"/>
<path d="M66.8783 105.324H63.5856V108.617H66.8783V105.324Z" fill="#2A9691"/>
<path d="M66.8783 102.031H63.5856V105.324H66.8783V102.031Z" fill="#63E0DB"/>
<path d="M63.5856 111.91H60.2928V115.203H63.5856V111.91Z" fill="#63E0DB"/>
<path d="M63.5856 108.617H60.2928V111.91H63.5856V108.617Z" fill="#63E0DB"/>
<path d="M63.5856 105.324H60.2928V108.617H63.5856V105.324Z" fill="#2A9691"/>
<path d="M60.2929 111.91H57.0001V115.203H60.2929V111.91Z" fill="#070809"/>
<path d="M60.2929 108.617H57.0001V111.91H60.2929V108.617Z" fill="#070809"/>
<path d="M60.2929 105.324H57.0001V108.617H60.2929V105.324Z" fill="#070809"/>
<path d="M63.5856 102.031H60.2928V105.324H63.5856V102.031Z" fill="#070809"/>
<path d="M66.8783 98.7388H63.5856V102.032H66.8783V98.7388Z" fill="#070809"/>
<path d="M66.8783 95.446H63.5856V98.7388H66.8783V95.446Z" fill="#070809"/>
<path d="M48.6185 77.1442H45.1441V80.6186H48.6185V77.1442Z" fill="#070809"/>
<path d="M48.6185 73.6697H45.1441V77.1441H48.6185V73.6697Z" fill="#070809"/>
<path d="M48.6185 70.2069H45.1441V73.6813H48.6185V70.2069Z" fill="#070809"/>
<path d="M48.6185 66.7325H45.1441V70.207H48.6185V66.7325Z" fill="#070809"/>
<path d="M45.1441 80.6185H41.6697V84.0929H45.1441V80.6185Z" fill="#070809"/>
<path d="M45.1441 77.1442H41.6697V80.6186H45.1441V77.1442Z" fill="#FDEBDC"/>
<path d="M45.1441 73.6697H41.6697V77.1441H45.1441V73.6697Z" fill="white"/>
<path d="M45.1441 70.2069H41.6697V73.6813H45.1441V70.2069Z" fill="#FDEBDC"/>
<path d="M45.1441 66.7325H41.6697V70.207H45.1441V66.7325Z" fill="#FDEBDC"/>
<path d="M45.1441 63.2581H41.6697V66.7325H45.1441V63.2581Z" fill="#070809"/>
<path d="M45.1441 42.4232H41.6697V45.8976H45.1441V42.4232Z" fill="#070809"/>
<path d="M45.1441 38.9489H41.6697V42.4233H45.1441V38.9489Z" fill="#070809"/>
<path d="M45.1441 35.4745H41.6697V38.9489H45.1441V35.4745Z" fill="#070809"/>
<path d="M41.6814 84.0929H38.207V87.5673H41.6814V84.0929Z" fill="#070809"/>
<path d="M41.6814 80.6185H38.207V84.0929H41.6814V80.6185Z" fill="#FDEBDC"/>
<path d="M41.6814 77.1442H38.207V80.6186H41.6814V77.1442Z" fill="#FDEBDC"/>
<path d="M41.6814 73.6697H38.207V77.1441H41.6814V73.6697Z" fill="white"/>
<path d="M41.6814 70.2069H38.207V73.6813H41.6814V70.2069Z" fill="#FDEBDC"/>
<path d="M41.6814 66.7325H38.207V70.207H41.6814V66.7325Z" fill="white"/>
<path d="M41.6814 63.2581H38.207V66.7325H41.6814V63.2581Z" fill="#070809"/>
<path d="M41.6814 45.886H38.207V49.3604H41.6814V45.886Z" fill="#070809"/>
<path d="M41.6814 42.4232H38.207V45.8976H41.6814V42.4232Z" fill="#3B3939"/>
<path d="M41.6814 38.9489H38.207V42.4233H41.6814V38.9489Z" fill="#716060"/>
<path d="M41.6814 35.4745H38.207V38.9489H41.6814V35.4745Z" fill="#3B3939"/>
<path d="M41.6814 32H38.207V35.4744H41.6814V32Z" fill="#070809"/>
<path d="M38.2069 87.5674H34.7325V91.0418H38.2069V87.5674Z" fill="#070809"/>
<path d="M38.2069 84.0929H34.7325V87.5673H38.2069V84.0929Z" fill="#FDEBDC"/>
<path d="M38.2069 80.6185H34.7325V84.0929H38.2069V80.6185Z" fill="#FDEBDC"/>
<path d="M38.2069 77.1442H34.7325V80.6186H38.2069V77.1442Z" fill="white"/>
<path d="M38.2069 73.6697H34.7325V77.1441H38.2069V73.6697Z" fill="white"/>
<path d="M38.2069 70.2069H34.7325V73.6813H38.2069V70.2069Z" fill="white"/>
<path d="M38.2069 66.7325H34.7325V70.207H38.2069V66.7325Z" fill="#FDEBDC"/>
<path d="M38.2069 63.2581H34.7325V66.7325H38.2069V63.2581Z" fill="#63DFDB"/>
<path d="M38.2069 59.7837H34.7325V63.2581H38.2069V59.7837Z" fill="#070809"/>
<path d="M38.2069 56.3092H34.7325V59.7836H38.2069V56.3092Z" fill="#070809"/>
<path d="M38.2069 45.886H34.7325V49.3604H38.2069V45.886Z" fill="#070809"/>
<path d="M38.2069 42.4232H34.7325V45.8976H38.2069V42.4232Z" fill="#4D4848"/>
<path d="M38.2069 38.9489H34.7325V42.4233H38.2069V38.9489Z" fill="#3B3939"/>
<path d="M38.2069 35.4745H34.7325V38.9489H38.2069V35.4745Z" fill="#716060"/>
<path d="M38.2069 32H34.7325V35.4744H38.2069V32Z" fill="#070809"/>
<path d="M34.7325 87.5674H31.2581V91.0418H34.7325V87.5674Z" fill="#070809"/>
<path d="M34.7325 84.0929H31.2581V87.5673H34.7325V84.0929Z" fill="#FDEBDC"/>
<path d="M34.7325 80.6185H31.2581V84.0929H34.7325V80.6185Z" fill="white"/>
<path d="M34.7325 77.1442H31.2581V80.6186H34.7325V77.1442Z" fill="#FDEBDC"/>
<path d="M34.7325 73.6697H31.2581V77.1441H34.7325V73.6697Z" fill="white"/>
<path d="M34.7325 70.2069H31.2581V73.6813H34.7325V70.2069Z" fill="white"/>
<path d="M34.7325 66.7325H31.2581V70.207H34.7325V66.7325Z" fill="#2A9691"/>
<path d="M34.7325 63.2581H31.2581V66.7325H34.7325V63.2581Z" fill="#070809"/>
<path d="M34.7325 59.7837H31.2581V63.2581H34.7325V59.7837Z" fill="#915555"/>
<path d="M34.7325 56.3092H31.2581V59.7836H34.7325V56.3092Z" fill="#915555"/>
<path d="M34.7325 52.8348H31.2581V56.3093H34.7325V52.8348Z" fill="#070809"/>
<path d="M34.7325 49.3605H31.2581V52.8349H34.7325V49.3605Z" fill="#070809"/>
<path d="M34.7325 45.886H31.2581V49.3604H34.7325V45.886Z" fill="#4D4848"/>
<path d="M34.7325 42.4232H31.2581V45.8976H34.7325V42.4232Z" fill="#3B3939"/>
<path d="M34.7325 38.9489H31.2581V42.4233H34.7325V38.9489Z" fill="#4D4848"/>
<path d="M34.7325 35.4745H31.2581V38.9489H34.7325V35.4745Z" fill="#756868"/>
<path d="M34.7325 32H31.2581V35.4744H34.7325V32Z" fill="#070809"/>
<path d="M31.2581 87.5674H27.7837V91.0418H31.2581V87.5674Z" fill="#070809"/>
<path d="M31.2581 84.0929H27.7837V87.5673H31.2581V84.0929Z" fill="white"/>
<path d="M31.2581 80.6185H27.7837V84.0929H31.2581V80.6185Z" fill="#FDEBDC"/>
<path d="M31.2581 77.1442H27.7837V80.6186H31.2581V77.1442Z" fill="white"/>
<path d="M31.2581 73.6697H27.7837V77.1441H31.2581V73.6697Z" fill="white"/>
<path d="M31.2581 70.2069H27.7837V73.6813H31.2581V70.2069Z" fill="#63DFDB"/>
<path d="M31.2581 66.7325H27.7837V70.207H31.2581V66.7325Z" fill="#070809"/>
<path d="M31.2581 63.2581H27.7837V66.7325H31.2581V63.2581Z" fill="#915555"/>
<path d="M31.2581 59.7837H27.7837V63.2581H31.2581V59.7837Z" fill="black"/>
<path d="M31.2581 56.3092H27.7837V59.7836H31.2581V56.3092Z" fill="#915555"/>
<path d="M31.2581 52.8348H27.7837V56.3093H31.2581V52.8348Z" fill="#070809"/>
<path d="M31.2581 49.3605H27.7837V52.8349H31.2581V49.3605Z" fill="#3B3939"/>
<path d="M31.2581 45.886H27.7837V49.3604H31.2581V45.886Z" fill="#756868"/>
<path d="M31.2581 42.4232H27.7837V45.8976H31.2581V42.4232Z" fill="#070809"/>
<path d="M31.2581 38.9489H27.7837V42.4233H31.2581V38.9489Z" fill="#070809"/>
<path d="M31.2581 35.4745H27.7837V38.9489H31.2581V35.4745Z" fill="#070809"/>
<path d="M27.7837 84.0929H24.3093V87.5673H27.7837V84.0929Z" fill="#070809"/>
<path d="M27.7837 80.6185H24.3093V84.0929H27.7837V80.6185Z" fill="white"/>
<path d="M27.7837 77.1442H24.3093V80.6186H27.7837V77.1442Z" fill="white"/>
<path d="M27.7837 73.6697H24.3093V77.1441H27.7837V73.6697Z" fill="#2A9691"/>
<path d="M27.7837 70.2069H24.3093V73.6813H27.7837V70.2069Z" fill="#070809"/>
<path d="M27.7837 66.7325H24.3093V70.207H27.7837V66.7325Z" fill="#915555"/>
<path d="M27.7837 63.2581H24.3093V66.7325H27.7837V63.2581Z" fill="#7B4646"/>
<path d="M27.7837 59.7837H24.3093V63.2581H27.7837V59.7837Z" fill="#7B4646"/>
<path d="M27.7837 56.3092H24.3093V59.7836H27.7837V56.3092Z" fill="black"/>
<path d="M27.7837 52.8348H24.3093V56.3093H27.7837V52.8348Z" fill="#915555"/>
<path d="M27.7837 49.3605H24.3093V52.8349H27.7837V49.3605Z" fill="#070809"/>
<path d="M27.7837 45.886H24.3093V49.3604H27.7837V45.886Z" fill="#070809"/>
<path d="M24.3093 80.6185H20.8349V84.0929H24.3093V80.6185Z" fill="#070809"/>
<path d="M24.3093 77.1442H20.8349V80.6186H24.3093V77.1442Z" fill="#63DFDB"/>
<path d="M24.3093 73.6697H20.8349V77.1441H24.3093V73.6697Z" fill="#070809"/>
<path d="M24.3093 70.2069H20.8349V73.6813H24.3093V70.2069Z" fill="#7B4646"/>
<path d="M24.3093 66.7325H20.8349V70.207H24.3093V66.7325Z" fill="#7B4646"/>
<path d="M24.3093 63.2581H20.8349V66.7325H24.3093V63.2581Z" fill="#7B4646"/>
<path d="M24.3093 59.7837H20.8349V63.2581H24.3093V59.7837Z" fill="#070809"/>
<path d="M24.3093 56.3092H20.8349V59.7836H24.3093V56.3092Z" fill="#7B4646"/>
<path d="M24.3093 52.8348H20.8349V56.3093H24.3093V52.8348Z" fill="black"/>
<path d="M24.3093 49.3605H20.8349V52.8349H24.3093V49.3605Z" fill="#070809"/>
<path d="M20.8348 77.1442H17.3604V80.6186H20.8348V77.1442Z" fill="#070809"/>
<path d="M20.8348 73.6697H17.3604V77.1441H20.8348V73.6697Z" fill="#915555"/>
<path d="M20.8348 70.2069H17.3604V73.6813H20.8348V70.2069Z" fill="#915555"/>
<path d="M20.8348 66.7325H17.3604V70.207H20.8348V66.7325Z" fill="#7B4646"/>
<path d="M20.8348 63.2581H17.3604V66.7325H20.8348V63.2581Z" fill="#070809"/>
<path d="M20.8348 59.7837H17.3604V63.2581H20.8348V59.7837Z" fill="#915555"/>
<path d="M20.8348 56.3092H17.3604V59.7836H20.8348V56.3092Z" fill="#7B4646"/>
<path d="M20.8348 52.8348H17.3604V56.3093H20.8348V52.8348Z" fill="#915555"/>
<path d="M20.8348 49.3605H17.3604V52.8349H20.8348V49.3605Z" fill="#070809"/>
<path d="M17.3604 77.1442H13.886V80.6186H17.3604V77.1442Z" fill="#070809"/>
<path d="M17.3604 73.6697H13.886V77.1441H17.3604V73.6697Z" fill="#7B4646"/>
<path d="M17.3604 70.2069H13.886V73.6813H17.3604V70.2069Z" fill="#070809"/>
<path d="M17.3604 66.7325H13.886V70.207H17.3604V66.7325Z" fill="#070809"/>
<path d="M17.3604 63.2581H13.886V66.7325H17.3604V63.2581Z" fill="#7B4646"/>
<path d="M17.3604 59.7837H13.886V63.2581H17.3604V59.7837Z" fill="#915555"/>
<path d="M17.3604 56.3092H13.886V59.7836H17.3604V56.3092Z" fill="#2A9691"/>
<path d="M17.3604 52.8348H13.886V56.3093H17.3604V52.8348Z" fill="#7B4646"/>
<path d="M17.3604 49.3605H13.886V52.8349H17.3604V49.3605Z" fill="#070809"/>
<path d="M13.8976 77.1442H10.4232V80.6186H13.8976V77.1442Z" fill="#070809"/>
<path d="M13.8976 73.6697H10.4232V77.1441H13.8976V73.6697Z" fill="#070809"/>
<path d="M13.8976 70.2069H10.4232V73.6813H13.8976V70.2069Z" fill="#070809"/>
<path d="M13.8976 66.7325H10.4232V70.207H13.8976V66.7325Z" fill="#915555"/>
<path d="M13.8976 63.2581H10.4232V66.7325H13.8976V63.2581Z" fill="#7B4646"/>
<path d="M13.8976 59.7837H10.4232V63.2581H13.8976V59.7837Z" fill="#2A9691"/>
<path d="M13.8976 56.3092H10.4232V59.7836H13.8976V56.3092Z" fill="#63DFDB"/>
<path d="M13.8976 52.8348H10.4232V56.3093H13.8976V52.8348Z" fill="#070809"/>
<path d="M10.4233 80.6185H6.94887V84.0929H10.4233V80.6185Z" fill="#070809"/>
<path d="M10.4233 77.1442H6.94887V80.6186H10.4233V77.1442Z" fill="#070809"/>
<path d="M10.4233 73.6697H6.94887V77.1441H10.4233V73.6697Z" fill="#070809"/>
<path d="M10.4233 70.2069H6.94887V73.6813H10.4233V70.2069Z" fill="#915555"/>
<path d="M10.4233 66.7325H6.94887V70.207H10.4233V66.7325Z" fill="#7B4646"/>
<path d="M10.4233 63.2581H6.94887V66.7325H10.4233V63.2581Z" fill="#915555"/>
<path d="M10.4233 59.7837H6.94887V63.2581H10.4233V59.7837Z" fill="#7B4646"/>
<path d="M10.4233 56.3092H6.94887V59.7836H10.4233V56.3092Z" fill="#070809"/>
<path d="M10.4233 52.8348H6.94887V56.3093H10.4233V52.8348Z" fill="#070809"/>
<path d="M6.94884 80.6185H3.47443V84.0929H6.94884V80.6185Z" fill="#070809"/>
<path d="M6.94884 77.1442H3.47443V80.6186H6.94884V77.1442Z" fill="#756868"/>
<path d="M6.94884 73.6697H3.47443V77.1441H6.94884V73.6697Z" fill="#070809"/>
<path d="M6.94884 70.2069H3.47443V73.6813H6.94884V70.2069Z" fill="#070809"/>
<path d="M6.94884 66.7325H3.47443V70.207H6.94884V66.7325Z" fill="#070809"/>
<path d="M6.94884 63.2581H3.47443V66.7325H6.94884V63.2581Z" fill="#070809"/>
<path d="M6.94884 59.7837H3.47443V63.2581H6.94884V59.7837Z" fill="#070809"/>
<path d="M3.47442 77.1442H0V80.6186H3.47442V77.1442Z" fill="#070809"/>
</svg>
