<svg width="210" height="83" viewBox="0 0 210 83" fill="none" xmlns="http://www.w3.org/2000/svg">
<g clip-path="url(#clip0)">
<path d="M148.913 16.5307C148.851 16.899 149.719 28.6423 149.719 28.6423L156.208 30.4632L158.42 31.7316H170.51L171.812 30.4632L173.114 28.8878L174.417 27.8649L175.347 26.6578V16.0193L174.417 15.2214L173.59 13.9938H167.906V11.7434L169.208 10.1885L170.51 9.18603L170.159 4.60327L169.208 2.57785L168.464 1.80042L166.604 2.57785L165.095 5.11474L164.909 6.97648L164 7.65163L161.396 10.1885L158.792 12.7254L156.208 15.2418L155.423 16.4694L148.913 16.5307Z" fill="white"/>
<path d="M148.396 15.2009H140.604V30.4427H148.396V15.2009Z" fill="#63E0DB"/>
<path d="M140.604 15.2418H138V17.7787H140.604V15.2418Z" fill="black"/>
<path d="M143.208 12.7048H140.604V15.2417H143.208V12.7048Z" fill="black"/>
<path d="M145.812 12.7048H143.208V15.2417H145.812V12.7048Z" fill="black"/>
<path d="M148.396 12.7048H145.792V15.2417H148.396V12.7048Z" fill="black"/>
<path d="M153.604 15.2418H151V17.7787H153.604V15.2418Z" fill="black"/>
<path d="M156.208 15.2418H153.604V17.7787H156.208V15.2418Z" fill="black"/>
<path d="M158.812 12.7048H156.208V15.2417H158.812V12.7048Z" fill="black"/>
<path d="M161.396 10.168H158.792V12.7049H161.396V10.168Z" fill="black"/>
<path d="M164 7.6311H161.396V10.168H164V7.6311Z" fill="black"/>
<path d="M166.604 2.53687H164V5.07375H166.604V2.53687Z" fill="black"/>
<path d="M166.604 5.07373H164V7.61062H166.604V5.07373Z" fill="black"/>
<path d="M169.208 0H166.604V2.53689H169.208V0Z" fill="black"/>
<path d="M171.812 2.53687H169.208V5.07375H171.812V2.53687Z" fill="black"/>
<path d="M171.812 5.07373H169.208V7.61062H171.812V5.07373Z" fill="black"/>
<path d="M171.812 7.6311H169.208V10.168H171.812V7.6311Z" fill="black"/>
<path d="M169.208 10.168H166.604V12.7049H169.208V10.168Z" fill="black"/>
<path d="M166.604 15.2622H164V17.7991H166.604V15.2622Z" fill="black"/>
<path d="M174.396 17.9015H171.792V20.4384H174.396V17.9015Z" fill="black"/>
<path d="M174.396 22.7706H171.792V25.3075H174.396V22.7706Z" fill="black"/>
<path d="M169.208 12.7048H166.604V15.2417H169.208V12.7048Z" fill="black"/>
<path d="M171.812 12.7048H169.208V15.2417H171.812V12.7048Z" fill="black"/>
<path d="M174.396 12.7048H171.792V15.2417H174.396V12.7048Z" fill="black"/>
<path d="M177 15.2009H174.396V17.7378H177V15.2009Z" fill="black"/>
<path d="M177 17.7378H174.396V20.2747H177V17.7378Z" fill="black"/>
<path d="M177 20.2747H174.396V22.8115H177V20.2747Z" fill="black"/>
<path d="M177 22.7706H174.396V25.3075H177V22.7706Z" fill="black"/>
<path d="M177 25.3075H174.396V27.8444H177V25.3075Z" fill="black"/>
<path d="M174.396 27.8649H171.792V30.4018H174.396V27.8649Z" fill="black"/>
<path d="M171.812 30.4426H169.208V32.9795H171.812V30.4426Z" fill="black"/>
<path d="M153.604 27.9058H151V30.4427H153.604V27.9058Z" fill="black"/>
<path d="M156.208 27.9058H153.604V30.4427H156.208V27.9058Z" fill="black"/>
<path d="M158.812 30.4426H156.208V32.9795H158.812V30.4426Z" fill="black"/>
<path d="M145.812 30.4426H143.208V32.9795H145.812V30.4426Z" fill="black"/>
<path d="M148.396 30.4426H145.792V32.9795H148.396V30.4426Z" fill="black"/>
<path d="M161.396 30.4426H158.792V32.9795H161.396V30.4426Z" fill="black"/>
<path d="M164 30.4426H161.396V32.9795H164V30.4426Z" fill="black"/>
<path d="M166.604 30.4426H164V32.9795H166.604V30.4426Z" fill="black"/>
<path d="M169.208 30.4426H166.604V32.9795H169.208V30.4426Z" fill="black"/>
<path d="M140.604 17.7787H138V20.3156H140.604V17.7787Z" fill="black"/>
<path d="M140.604 20.3361H138V22.873H140.604V20.3361Z" fill="black"/>
<path d="M140.604 22.8729H138V25.4098H140.604V22.8729Z" fill="black"/>
<path d="M140.604 25.3689H138V27.9058H140.604V25.3689Z" fill="black"/>
<path d="M140.604 27.9058H138V30.4427H140.604V27.9058Z" fill="black"/>
<path d="M151 15.2418H148.396V17.7787H151V15.2418Z" fill="black"/>
<path d="M151 17.7787H148.396V20.3156H151V17.7787Z" fill="black"/>
<path d="M145.812 25.3893H143.208V27.9262H145.812V25.3893Z" fill="black"/>
<path d="M151 20.3361H148.396V22.873H151V20.3361Z" fill="black"/>
<path d="M151 22.8729H148.396V25.4098H151V22.8729Z" fill="black"/>
<path d="M151 25.3689H148.396V27.9058H151V25.3689Z" fill="black"/>
<path d="M151 27.9058H148.396V30.4427H151V27.9058Z" fill="black"/>
<path d="M143.208 30.4426H140.604V32.9795H143.208V30.4426Z" fill="black"/>
</g>
<path d="M17.7333 7.46155V12.3846H20.288V7.46155H35.4667L35.4454 22.2308H30.4V24.6923H27.8667L27.856 29.6361H22.8V32.0769H20.2667V34.5385H17.7333V32.0769H15.2106V29.6361H10.0801V24.6923H7.6V22.2308H2.53334V7.46155H17.7333Z" fill="#E3E3E3"/>
<path d="M27.8666 9.9231H30.3999V12.3846H32.9332V14.8462V17.3077H30.3999V14.8462H27.8666V12.3846H25.3332V9.9231H27.8666Z" fill="white"/>
<path d="M22.7999 5H32.9332V7.46154H22.7999V5Z" fill="black"/>
<path d="M5.06649 5H15.1998V7.46154H5.06649V5Z" fill="black"/>
<path d="M20.2666 7.46155H22.7999V9.92309H20.2666V7.46155Z" fill="black"/>
<path d="M32.9333 7.46155H35.4667V9.92309H32.9333V7.46155Z" fill="black"/>
<path d="M32.9333 19.7693H35.4667V22.2308H32.9333V19.7693Z" fill="black"/>
<path d="M30.3999 22.2307H32.9332V24.6923H30.3999V22.2307Z" fill="black"/>
<path d="M27.8664 24.6924H30.3998V27.1539H27.8664V24.6924Z" fill="black"/>
<path d="M25.3332 27.1538H27.8666V29.6153H25.3332V27.1538Z" fill="black"/>
<path d="M10.1333 27.1538H12.6666V29.6153H10.1333V27.1538Z" fill="black"/>
<path d="M22.7998 29.6154H25.3331V32.0769H22.7998V29.6154Z" fill="black"/>
<path d="M20.2666 32.0769H22.7999V34.5384H20.2666V32.0769Z" fill="black"/>
<path d="M2.5332 19.7693H5.06653V22.2308H2.5332V19.7693Z" fill="black"/>
<path d="M5.06664 22.2307H7.59998V24.6923H5.06664V22.2307Z" fill="black"/>
<path d="M7.59985 24.6924H10.1332V27.1539H7.59985V24.6924Z" fill="black"/>
<path d="M12.6665 29.6154H15.1998V32.0769H12.6665V29.6154Z" fill="black"/>
<path d="M15.2 32.0769H17.7333V34.5384H15.2V32.0769Z" fill="black"/>
<path d="M17.7331 34.5385H20.2665V37H17.7331V34.5385Z" fill="black"/>
<path d="M35.4665 9.9231H37.9999V19.7693H35.4665V9.9231Z" fill="black"/>
<path d="M0 9.9231H2.53333V19.7693H0V9.9231Z" fill="black"/>
<path d="M15.2 7.46155H17.7333V9.92309H15.2V7.46155Z" fill="black"/>
<path d="M2.5332 7.46155H5.06653V9.92309H2.5332V7.46155Z" fill="black"/>
<path d="M17.7331 9.9231H20.2665V12.3846H17.7331V9.9231Z" fill="black"/>
<path fill-rule="evenodd" clip-rule="evenodd" d="M75.625 2.35417V0H82.6875H87.3958H96.8125H115.646V2.35417H94.4583H85.0417H75.625Z" fill="black"/>
<path fill-rule="evenodd" clip-rule="evenodd" d="M75.625 2.35425V7.06258H73.2709V4.70841V2.35425H75.625Z" fill="black"/>
<path fill-rule="evenodd" clip-rule="evenodd" d="M115.646 2.35425H118V4.70841V9.41675V14.1251H115.646V9.41675V7.06258H113.292H106.229H96.8125H87.3958H77.9791V4.70841H80.3333H82.6875H89.75H99.1666H101.521H103.875H106.229H108.583H110.937H113.292H115.646V2.35425Z" fill="black"/>
<path fill-rule="evenodd" clip-rule="evenodd" d="M73.2708 7.0625V11.7708V14.125H70.9166V11.7708V9.41667V7.0625H73.2708Z" fill="black"/>
<path fill-rule="evenodd" clip-rule="evenodd" d="M75.625 7.0625H77.9792V9.41667V11.7708V14.125H75.625V11.7708V7.0625Z" fill="black"/>
<path fill-rule="evenodd" clip-rule="evenodd" d="M70.9167 14.125V21.1875H68.5625V18.8333V16.4792V14.125H70.9167Z" fill="black"/>
<path fill-rule="evenodd" clip-rule="evenodd" d="M73.2709 14.125H75.625V16.4792V18.8333V21.1875H73.2709V14.125Z" fill="black"/>
<path fill-rule="evenodd" clip-rule="evenodd" d="M115.646 14.125V16.4792V18.8333V21.1875H113.292V18.8333V16.4792V14.125H115.646Z" fill="black"/>
<path fill-rule="evenodd" clip-rule="evenodd" d="M68.5625 21.1875V28.25H66.2084V25.8958V23.5417V21.1875H68.5625Z" fill="black"/>
<path fill-rule="evenodd" clip-rule="evenodd" d="M70.9166 21.1875H73.2708V23.5417V25.8958V28.25H70.9166V21.1875Z" fill="black"/>
<path fill-rule="evenodd" clip-rule="evenodd" d="M113.292 21.1875V23.5417V25.8958V28.25H110.938V25.8958V23.5417V21.1875H113.292Z" fill="black"/>
<path fill-rule="evenodd" clip-rule="evenodd" d="M66.2083 28.25V35.3125H63.8541V32.9583V30.6042V28.25H66.2083Z" fill="black"/>
<path fill-rule="evenodd" clip-rule="evenodd" d="M68.5625 28.25H70.9167V30.6042V32.9583V35.3125H68.5625V28.25Z" fill="black"/>
<path fill-rule="evenodd" clip-rule="evenodd" d="M110.938 28.25V35.3125H108.583V32.9583V30.6042V28.25H110.938Z" fill="black"/>
<path fill-rule="evenodd" clip-rule="evenodd" d="M63.8542 35.3125V44.7292H61.5V40.0208V37.6667V35.3125H63.8542Z" fill="black"/>
<path fill-rule="evenodd" clip-rule="evenodd" d="M66.2084 35.3125H68.5625V40.0208V42.375V44.7292H66.2084V35.3125Z" fill="black"/>
<path fill-rule="evenodd" clip-rule="evenodd" d="M108.583 35.3125V42.375H101.521H96.8125H94.4583H92.1042H89.75V40.0208H106.229V37.6667V35.3125H108.583Z" fill="black"/>
<path fill-rule="evenodd" clip-rule="evenodd" d="M110.938 35.3125H113.292V37.6667H110.938V35.3125Z" fill="black"/>
<path fill-rule="evenodd" clip-rule="evenodd" d="M82.6875 40.0209V37.6667H85.0417H87.3958H89.75V40.0209H82.6875Z" fill="black"/>
<path fill-rule="evenodd" clip-rule="evenodd" d="M113.292 37.6667H115.646V40.0209V42.3751H113.292V40.0209V37.6667Z" fill="black"/>
<path fill-rule="evenodd" clip-rule="evenodd" d="M82.6875 40.0209V42.375H80.3334V40.0209H82.6875Z" fill="black"/>
<path fill-rule="evenodd" clip-rule="evenodd" d="M82.6875 42.375H85.0417V44.7292H82.6875V42.375Z" fill="black"/>
<path fill-rule="evenodd" clip-rule="evenodd" d="M115.646 42.375H118V58.8542H115.646V42.375Z" fill="black"/>
<path fill-rule="evenodd" clip-rule="evenodd" d="M61.5 44.7292V51.7917H59.1459V49.4376V47.0834V44.7292H61.5Z" fill="black"/>
<path fill-rule="evenodd" clip-rule="evenodd" d="M63.8541 44.7292H66.2083V47.0834V49.4376V51.7917H63.8541V44.7292Z" fill="black"/>
<path fill-rule="evenodd" clip-rule="evenodd" d="M85.0416 44.7292H87.3958V47.0834H85.0416V44.7292Z" fill="black"/>
<path fill-rule="evenodd" clip-rule="evenodd" d="M87.3959 47.0834H89.75H92.1042V49.4375H89.75H87.3959V47.0834Z" fill="black"/>
<path fill-rule="evenodd" clip-rule="evenodd" d="M92.1041 49.4375H108.583V51.7917H106.229H103.875V54.1458H101.521H99.1666V51.7917H96.8125H94.4583H92.1041V49.4375Z" fill="black"/>
<path fill-rule="evenodd" clip-rule="evenodd" d="M59.1458 51.7917V58.8542H56.7916V56.5001V54.1459V51.7917H59.1458Z" fill="black"/>
<path fill-rule="evenodd" clip-rule="evenodd" d="M61.5 51.7917H63.8542V54.1459V56.5001V58.8542H61.5V51.7917Z" fill="black"/>
<path fill-rule="evenodd" clip-rule="evenodd" d="M85.0416 54.1459H82.6875H80.3333V56.5001V58.8542H77.9791V51.7917H80.3333H82.6875H85.0416V54.1459Z" fill="black"/>
<path fill-rule="evenodd" clip-rule="evenodd" d="M85.0416 54.1459H99.1666V56.5H96.8125H94.4583H92.1041H89.75H87.3958H85.0416V54.1459Z" fill="black"/>
<path fill-rule="evenodd" clip-rule="evenodd" d="M106.229 58.8542V56.5H108.583V58.8542H106.229Z" fill="black"/>
<path fill-rule="evenodd" clip-rule="evenodd" d="M56.7917 58.8542V65.9167H54.4375V63.5626V61.2084V58.8542H56.7917Z" fill="black"/>
<path fill-rule="evenodd" clip-rule="evenodd" d="M59.1459 58.8542H61.5V61.2084V63.5626V65.9167H59.1459V58.8542Z" fill="black"/>
<path fill-rule="evenodd" clip-rule="evenodd" d="M80.3334 58.8542H82.6875H85.0417V61.2084H82.6875V63.5626V65.9167H80.3334V63.5626V61.2084V58.8542Z" fill="black"/>
<path fill-rule="evenodd" clip-rule="evenodd" d="M101.521 61.2084V58.8542H103.875H106.229V61.2084H103.875H101.521Z" fill="black"/>
<path fill-rule="evenodd" clip-rule="evenodd" d="M115.646 58.8542V61.2084V63.5626H113.292V61.2084V58.8542H115.646Z" fill="black"/>
<path fill-rule="evenodd" clip-rule="evenodd" d="M85.0416 61.2084H101.521V63.5625H99.1666H96.8125H94.4583H92.1041H89.75H87.3958H85.0416V61.2084Z" fill="black"/>
<path fill-rule="evenodd" clip-rule="evenodd" d="M113.292 63.5625V65.9167V68.2708H110.938V65.9167V63.5625H113.292Z" fill="black"/>
<path fill-rule="evenodd" clip-rule="evenodd" d="M52.0834 65.9167H54.4375V70.6251H52.0834V65.9167Z" fill="black"/>
<path fill-rule="evenodd" clip-rule="evenodd" d="M56.7917 65.9167H59.1458V68.2709V70.6251H61.5H70.9167H75.625H82.6875V65.9167H85.0417H87.3958H89.75V68.2709H87.3958H85.0417V70.6251H87.3958H89.75V72.9792H80.3333H70.9167H61.5H56.7917H54.4375V70.6251H56.7917V68.2709V65.9167Z" fill="black"/>
<path fill-rule="evenodd" clip-rule="evenodd" d="M101.521 68.2709V65.9167H103.875H106.229V68.2709H103.875H101.521Z" fill="black"/>
<path fill-rule="evenodd" clip-rule="evenodd" d="M89.75 70.625V68.2709H94.4583H101.521V70.625H99.1667H96.8125H94.4583H89.75Z" fill="black"/>
<path fill-rule="evenodd" clip-rule="evenodd" d="M108.583 70.625V68.2709H110.938V70.625H108.583Z" fill="black"/>
<path fill-rule="evenodd" clip-rule="evenodd" d="M106.229 72.9792V70.625H108.583V72.9792H106.229Z" fill="black"/>
<path fill-rule="evenodd" clip-rule="evenodd" d="M89.75 75.3334V72.9792H106.229V75.3334H89.75Z" fill="black"/>
<path fill-rule="evenodd" clip-rule="evenodd" d="M85.0416 14.1249V11.7708H87.3958H89.75V14.1249V16.4791H87.3958V14.1249H85.0416Z" fill="#2A9691"/>
<path fill-rule="evenodd" clip-rule="evenodd" d="M82.6875 14.125H85.0417V16.4792H87.3958V18.8333H85.0417H82.6875V16.4792V14.125Z" fill="#2A9691"/>
<path fill-rule="evenodd" clip-rule="evenodd" d="M85.0416 16.4792V14.125H87.3958V16.4792H85.0416Z" fill="#63E0DB"/>
<path fill-rule="evenodd" clip-rule="evenodd" d="M75.625 2.35425H82.6875H87.3958H96.8125H106.229H108.583H110.938H113.292H115.646V4.70841H101.521H94.4583H89.75H87.3958H80.3333H77.9792V7.06258H75.625V2.35425Z" fill="#88E1FA"/>
<path fill-rule="evenodd" clip-rule="evenodd" d="M75.625 7.0625V9.41667V11.7708V14.125H73.2709V11.7708V9.41667V7.0625H75.625Z" fill="#88E1FA"/>
<path fill-rule="evenodd" clip-rule="evenodd" d="M73.2708 14.125V16.4792V18.8333V21.1875H70.9166V18.8333V16.4792V14.125H73.2708Z" fill="#88E1FA"/>
<path fill-rule="evenodd" clip-rule="evenodd" d="M70.9167 21.1875V23.5417V25.8958V28.25H68.5625V25.8958V23.5417V21.1875H70.9167Z" fill="#88E1FA"/>
<path fill-rule="evenodd" clip-rule="evenodd" d="M68.5625 28.25V30.6042V32.9583V35.3125H66.2084V32.9583V30.6042V28.25H68.5625Z" fill="#88E1FA"/>
<path fill-rule="evenodd" clip-rule="evenodd" d="M66.2083 35.3125V40.0208V42.375V44.7292H63.8541V40.0208V37.6667V35.3125H66.2083Z" fill="#88E1FA"/>
<path fill-rule="evenodd" clip-rule="evenodd" d="M63.8542 44.7292V47.0834V49.4376V51.7917H61.5V49.4376V47.0834V44.7292H63.8542Z" fill="#88E1FA"/>
<path fill-rule="evenodd" clip-rule="evenodd" d="M61.5 51.7917V54.1459V56.5001V58.8542H59.1459V56.5001V54.1459V51.7917H61.5Z" fill="#88E1FA"/>
<path fill-rule="evenodd" clip-rule="evenodd" d="M59.1458 58.8542V61.2084V63.5626V65.9167H56.7916V63.5626V61.2084V58.8542H59.1458Z" fill="#88E1FA"/>
<path fill-rule="evenodd" clip-rule="evenodd" d="M54.4375 65.9167H56.7917V70.6251H54.4375V68.2709V65.9167Z" fill="#88E1FA"/>
<path fill-rule="evenodd" clip-rule="evenodd" d="M77.9792 7.0625H115.646V11.7708V14.125H113.292V16.4792V18.8333V21.1875H110.938V23.5417V25.8958V28.25H108.583V30.6042V32.9583H106.229V35.3125H103.875V37.6667H101.521H99.1667H92.1042H85.0417H82.6875H80.3334V42.375V44.7292H82.6875V47.0833V49.4375H77.9792V51.7917H75.625V54.1458V56.5V58.8542H77.9792V61.2083V63.5625V65.9167H80.3334V70.625H73.2709H63.8542H61.5H59.1459V68.2708V65.9167H61.5V63.5625V61.2083V58.8542H63.8542V56.5V54.1458V51.7917H66.2084V49.4375V47.0833V44.7292H68.5625V42.375V40.0208V37.6667V35.3125H70.9167V32.9583V30.6042V28.25H73.2709V25.8958V23.5417V21.1875H75.625V18.8333V16.4792V14.125H77.9792V11.7708V9.41667V7.0625ZM85.0417 14.125H82.6875V16.4792V18.8333H85.0417H87.3959V16.4792H89.75V14.125V11.7708H85.0417V14.125Z" fill="#63E0DB"/>
<path fill-rule="evenodd" clip-rule="evenodd" d="M106.229 35.3124V32.9583H108.583V35.3124H106.229Z" fill="#2A9691"/>
<path fill-rule="evenodd" clip-rule="evenodd" d="M106.229 35.3125V37.6667V40.0208H103.875H101.521H99.1667H96.8125H94.4583H92.1042H89.75V37.6667H94.4583H96.8125H99.1667H101.521H103.875V35.3125H106.229Z" fill="#2A9691"/>
<path fill-rule="evenodd" clip-rule="evenodd" d="M80.3334 40.0208V37.6666H82.6875V40.0208H80.3334Z" fill="#2A9691"/>
<path fill-rule="evenodd" clip-rule="evenodd" d="M82.6875 44.7292H80.3334V42.375H82.6875V44.7292Z" fill="#2A9691"/>
<path fill-rule="evenodd" clip-rule="evenodd" d="M82.6875 44.7291H85.0416V47.0833H87.3958V49.4375H89.75H92.1041V51.7916H94.4583H96.8125H99.1666V54.1458H92.1041H89.75H87.3958H85.0416V51.7916H82.6875H77.9791V49.4375H80.3333H82.6875V47.0833V44.7291Z" fill="#2A9691"/>
<path fill-rule="evenodd" clip-rule="evenodd" d="M75.625 51.7916H77.9792V58.8541H75.625V51.7916Z" fill="#2A9691"/>
<path fill-rule="evenodd" clip-rule="evenodd" d="M77.9791 58.8541H80.3333V61.2083V63.5625V65.9166H77.9791V63.5625V61.2083V58.8541Z" fill="#2A9691"/>
<path fill-rule="evenodd" clip-rule="evenodd" d="M80.3334 65.9166H82.6875V68.2708V70.625H80.3334V65.9166Z" fill="#2A9691"/>
<path fill-rule="evenodd" clip-rule="evenodd" d="M82.6875 40.0208H87.3958H89.75V42.3749H92.1042H101.521V44.7291H99.1667H96.8125V47.0833H94.4583H92.1042H87.3958V44.7291H85.0417V42.3749H82.6875V40.0208Z" fill="#FFF4E6"/>
<path fill-rule="evenodd" clip-rule="evenodd" d="M80.3334 54.1458H82.6875H85.0417V56.4999H99.1667V58.8541H94.4584H92.1042V61.2083H89.75H87.3959H85.0417V58.8541H82.6875H80.3334V54.1458Z" fill="#FFF4E6"/>
<path fill-rule="evenodd" clip-rule="evenodd" d="M99.1666 56.4999V54.1458H101.521H103.875V56.4999H99.1666Z" fill="#FFF4E6"/>
<path fill-rule="evenodd" clip-rule="evenodd" d="M89.75 65.9167V63.5625H92.1042H94.4583H96.8125V65.9167H89.75Z" fill="#FFF4E6"/>
<path fill-rule="evenodd" clip-rule="evenodd" d="M108.583 35.3125H110.938V37.6667H113.292V40.0208V42.375H115.646V58.8542H113.292V61.2083V63.5625H110.938V65.9167V68.2708H108.583V70.625H106.229V72.9792H96.8125H89.75V70.625H94.4583H96.8125H99.1667H101.521V68.2708H103.875H106.229V65.9167H103.875H101.521V68.2708H96.8125H89.75V65.9167H92.1042H94.4583H96.8125V63.5625H99.1667H101.521V61.2083H103.875H106.229V58.8542H108.583V56.5H106.229V58.8542H103.875H101.521V61.2083H92.1042V58.8542H94.4583H96.8125H99.1667V56.5H103.875V51.7917H106.229H108.583V49.4375H106.229H103.875H101.521H99.1667H96.8125H94.4583H92.1042V47.0833H96.8125V44.7292H99.1667H101.521V42.375H103.875H106.229H108.583V37.6667V35.3125Z" fill="#F4B7AB"/>
<path fill-rule="evenodd" clip-rule="evenodd" d="M82.6875 61.2083H85.0417V63.5624H87.3958H89.75V65.9166H87.3958H85.0417H82.6875V61.2083Z" fill="#F4B7AB"/>
<path fill-rule="evenodd" clip-rule="evenodd" d="M89.75 68.2709V70.625H87.3958H85.0416V68.2709H87.3958H89.75Z" fill="#F4B7AB"/>
<path fill-rule="evenodd" clip-rule="evenodd" d="M49.7291 11.7709V9.41675H59.1458H61.5H63.8541V11.7709V14.1251V16.4792H61.5V14.1251V11.7709H59.1458H49.7291Z" fill="black"/>
<path fill-rule="evenodd" clip-rule="evenodd" d="M40.3125 14.125V11.7709H42.6667H45.0208H49.7292V14.125H40.3125Z" fill="black"/>
<path fill-rule="evenodd" clip-rule="evenodd" d="M35.6041 16.4792V14.125H37.9583H40.3125V16.4792H37.9583H35.6041Z" fill="black"/>
<path fill-rule="evenodd" clip-rule="evenodd" d="M30.8959 18.8334V16.4792H33.25H35.6042V18.8334H33.25H30.8959Z" fill="black"/>
<path fill-rule="evenodd" clip-rule="evenodd" d="M52.0834 18.8334V16.4792H54.4375H56.7917H61.5V18.8334H52.0834Z" fill="black"/>
<path fill-rule="evenodd" clip-rule="evenodd" d="M26.1875 21.1875V18.8334H28.5417H30.8958V21.1875H28.5417H26.1875Z" fill="black"/>
<path fill-rule="evenodd" clip-rule="evenodd" d="M45.0209 21.1875V18.8334H47.375H49.7292H52.0834V21.1875H49.7292H47.375H45.0209Z" fill="black"/>
<path fill-rule="evenodd" clip-rule="evenodd" d="M21.4791 23.5417V21.1875H23.8333H26.1875V23.5417H23.8333H21.4791Z" fill="black"/>
<path fill-rule="evenodd" clip-rule="evenodd" d="M40.3125 23.5417V21.1875H42.6667H45.0208V23.5417H42.6667H40.3125Z" fill="black"/>
<path fill-rule="evenodd" clip-rule="evenodd" d="M19.125 25.8959V23.5417H21.4792V25.8959H19.125Z" fill="black"/>
<path fill-rule="evenodd" clip-rule="evenodd" d="M35.6041 25.8959H33.25H30.8958H28.5416V23.5417H30.8958H33.25H35.6041V25.8959Z" fill="black"/>
<path fill-rule="evenodd" clip-rule="evenodd" d="M37.9584 25.8959V23.5417H40.3125V25.8959H37.9584Z" fill="black"/>
<path fill-rule="evenodd" clip-rule="evenodd" d="M19.125 25.8959V28.25V30.6042H16.7709V28.25V25.8959H19.125Z" fill="black"/>
<path fill-rule="evenodd" clip-rule="evenodd" d="M35.6041 25.8959H37.9583V28.25H35.6041V25.8959Z" fill="black"/>
<path fill-rule="evenodd" clip-rule="evenodd" d="M47.375 28.25V25.8959H49.7292H52.0833V28.25H47.375Z" fill="black"/>
<path fill-rule="evenodd" clip-rule="evenodd" d="M33.25 30.6042H30.8959H28.5417H26.1875H23.8334V28.25H33.25V30.6042Z" fill="black"/>
<path fill-rule="evenodd" clip-rule="evenodd" d="M37.9584 28.25H40.3125V30.6042H37.9584V28.25Z" fill="black"/>
<path fill-rule="evenodd" clip-rule="evenodd" d="M42.6666 30.6042V28.25H45.0208H47.375V30.6042H45.0208H42.6666Z" fill="black"/>
<path fill-rule="evenodd" clip-rule="evenodd" d="M52.0834 28.25H54.4375V30.6042V32.9583V35.3125H52.0834V28.25Z" fill="black"/>
<path fill-rule="evenodd" clip-rule="evenodd" d="M16.7708 30.6042V32.9584V35.3126H14.4166V32.9584V30.6042H16.7708Z" fill="black"/>
<path fill-rule="evenodd" clip-rule="evenodd" d="M33.25 30.6042H35.6042V32.9584H33.25V30.6042Z" fill="black"/>
<path fill-rule="evenodd" clip-rule="evenodd" d="M40.3125 30.6042H42.6667V32.9584H40.3125V30.6042Z" fill="black"/>
<path fill-rule="evenodd" clip-rule="evenodd" d="M30.8958 35.3125H28.5416H26.1875H23.8333H21.4791V32.9584H30.8958V35.3125Z" fill="black"/>
<path fill-rule="evenodd" clip-rule="evenodd" d="M35.6041 32.9584H37.9583V35.3125H35.6041V32.9584Z" fill="black"/>
<path fill-rule="evenodd" clip-rule="evenodd" d="M42.6666 32.9584H45.0208V35.3125V37.6667V40.0209H42.6666V32.9584Z" fill="black"/>
<path fill-rule="evenodd" clip-rule="evenodd" d="M14.4167 35.3125V37.6667V40.0208V42.375H12.0625V40.0208V37.6667V35.3125H14.4167Z" fill="black"/>
<path fill-rule="evenodd" clip-rule="evenodd" d="M30.8959 35.3125H33.25V37.6667H30.8959V35.3125Z" fill="black"/>
<path fill-rule="evenodd" clip-rule="evenodd" d="M37.9584 35.3125H40.3125V37.6667V40.0208H37.9584V35.3125Z" fill="black"/>
<path fill-rule="evenodd" clip-rule="evenodd" d="M49.7291 37.6667V35.3125H52.0833V37.6667H49.7291Z" fill="black"/>
<path fill-rule="evenodd" clip-rule="evenodd" d="M33.25 37.6667H35.6042V40.0209H33.25V37.6667Z" fill="black"/>
<path fill-rule="evenodd" clip-rule="evenodd" d="M47.375 40.0209V37.6667H49.7292V40.0209H47.375Z" fill="black"/>
<path fill-rule="evenodd" clip-rule="evenodd" d="M28.5416 42.375H26.1875H23.8333H21.4791V40.0209H28.5416V42.375Z" fill="black"/>
<path fill-rule="evenodd" clip-rule="evenodd" d="M35.6042 40.0209H37.9583V42.375V44.7292H40.3125V47.0834H37.9583V49.4375H35.6042H33.25V47.0834H35.6042V44.7292V40.0209Z" fill="black"/>
<path fill-rule="evenodd" clip-rule="evenodd" d="M40.3125 40.0209H42.6667V42.375H45.0208V44.7292V47.0834H42.6667V44.7292H40.3125V40.0209Z" fill="black"/>
<path fill-rule="evenodd" clip-rule="evenodd" d="M45.0209 42.375V40.0209H47.375V42.375H45.0209Z" fill="black"/>
<path fill-rule="evenodd" clip-rule="evenodd" d="M12.0625 42.375V44.7292V47.0833V49.4375H9.70837V47.0833V44.7292V42.375H12.0625Z" fill="black"/>
<path fill-rule="evenodd" clip-rule="evenodd" d="M28.5416 44.7292V42.375H30.8958V44.7292H28.5416Z" fill="black"/>
<path fill-rule="evenodd" clip-rule="evenodd" d="M26.1875 47.0834V44.7292H28.5417V47.0834H26.1875Z" fill="black"/>
<path fill-rule="evenodd" clip-rule="evenodd" d="M26.1875 47.0834V49.4375H23.8334V47.0834H26.1875Z" fill="black"/>
<path fill-rule="evenodd" clip-rule="evenodd" d="M40.3125 47.0834H42.6667V49.4375V51.7917H40.3125V47.0834Z" fill="black"/>
<path fill-rule="evenodd" clip-rule="evenodd" d="M9.70829 49.4375V51.7917V54.1458V56.5H7.35413V54.1458V51.7917V49.4375H9.70829Z" fill="black"/>
<path fill-rule="evenodd" clip-rule="evenodd" d="M26.1875 49.4375H33.25V51.7917H30.8958H28.5417H26.1875V49.4375Z" fill="black"/>
<path fill-rule="evenodd" clip-rule="evenodd" d="M40.3125 51.7917V54.1459V56.5001H37.9584V54.1459V51.7917H40.3125Z" fill="black"/>
<path fill-rule="evenodd" clip-rule="evenodd" d="M5 56.5H7.35417V63.5625H5V56.5Z" fill="black"/>
<path fill-rule="evenodd" clip-rule="evenodd" d="M35.6041 58.8542V56.5H37.9583V58.8542H35.6041Z" fill="black"/>
<path fill-rule="evenodd" clip-rule="evenodd" d="M33.25 61.2084V58.8542H35.6042V61.2084H33.25Z" fill="black"/>
<path fill-rule="evenodd" clip-rule="evenodd" d="M30.8959 63.5625V61.2084H33.25V63.5625H30.8959Z" fill="black"/>
<path fill-rule="evenodd" clip-rule="evenodd" d="M7.35413 63.5625H9.70829V65.9167H7.35413V63.5625Z" fill="black"/>
<path fill-rule="evenodd" clip-rule="evenodd" d="M28.5416 65.9167V63.5625H30.8958V65.9167H28.5416Z" fill="black"/>
<path fill-rule="evenodd" clip-rule="evenodd" d="M9.70837 65.9167H12.0625H14.4167V68.2709H12.0625H9.70837V65.9167Z" fill="black"/>
<path fill-rule="evenodd" clip-rule="evenodd" d="M23.8334 68.2709V65.9167H26.1875H28.5417V68.2709H26.1875H23.8334Z" fill="black"/>
<path fill-rule="evenodd" clip-rule="evenodd" d="M14.4166 70.625V68.2709H23.8333V70.625H14.4166Z" fill="black"/>
<path fill-rule="evenodd" clip-rule="evenodd" d="M49.7291 11.7709H59.1458H61.5V14.125H54.4375H52.0833V16.4792H49.7291H47.375H45.0208V18.8334H42.6666H40.3125V21.1875H37.9583H35.6041H33.25V23.5417H30.8958H28.5416V25.8959H33.25H35.6041V28.25H37.9583V32.9584H35.6041V30.6042H33.25V28.25H23.8333V30.6042H26.1875H28.5416H30.8958H33.25V32.9584H35.6041V35.3125V37.6667H33.25V35.3125H30.8958V32.9584H21.4791V35.3125H23.8333H26.1875H28.5416H30.8958V37.6667V40.0209V42.375H28.5416V40.0209H26.1875H23.8333H21.4791V42.375V44.7292V47.0834V49.4375H19.125V51.7917V54.1459V56.5H16.7708V58.8542H14.4166H12.0625V61.2084H9.70829H7.35413V58.8542V56.5H9.70829V54.1459V51.7917V49.4375H12.0625V47.0834V44.7292V42.375H14.4166V40.0209V37.6667V35.3125H16.7708V32.9584V30.6042H19.125V28.25V25.8959H21.4791V23.5417H23.8333H26.1875V21.1875H28.5416H30.8958V18.8334H33.25H35.6041V16.4792H37.9583H40.3125V14.125H42.6666H45.0208H47.375H49.7291V11.7709Z" fill="#FFF4E6"/>
<path fill-rule="evenodd" clip-rule="evenodd" d="M52.0833 28.25V30.6042H49.7291V32.9583H47.375V35.3125H45.0208V32.9583H42.6666V30.6042H45.0208H47.375V28.25H49.7291H52.0833Z" fill="#FFF4E6"/>
<path fill-rule="evenodd" clip-rule="evenodd" d="M52.0834 16.4792V14.125H56.7917H59.1459H61.5V16.4792H52.0834Z" fill="#F4B7AB"/>
<path fill-rule="evenodd" clip-rule="evenodd" d="M45.0209 18.8334V16.4792H47.375H49.7292H52.0834V18.8334H49.7292H47.375H45.0209Z" fill="#F4B7AB"/>
<path fill-rule="evenodd" clip-rule="evenodd" d="M40.3125 21.1874V18.8333H42.6667H45.0208V21.1874H42.6667H40.3125Z" fill="#F4B7AB"/>
<path fill-rule="evenodd" clip-rule="evenodd" d="M40.3125 21.1875V23.5417H37.9583V25.8958H35.6042V23.5417H33.25V21.1875H40.3125Z" fill="#F4B7AB"/>
<path fill-rule="evenodd" clip-rule="evenodd" d="M42.6667 40.0209H40.3125V37.6667V35.3126H37.9584V30.6042H40.3125V32.9584H42.6667V35.3126V40.0209Z" fill="#F4B7AB"/>
<path fill-rule="evenodd" clip-rule="evenodd" d="M45.0209 40.0209V37.6667V35.3126H47.375V32.9584H49.7292V30.6042H52.0834V32.9584V35.3126H49.7292V37.6667H47.375V40.0209H45.0209Z" fill="#F4B7AB"/>
<path fill-rule="evenodd" clip-rule="evenodd" d="M37.9583 35.3125V40.0208H35.6041V37.6667V35.3125H37.9583Z" fill="#F4B7AB"/>
<path fill-rule="evenodd" clip-rule="evenodd" d="M35.6042 40.0209V42.3751V44.7292V47.0834H33.25V49.4376H26.1875V47.0834H28.5417V44.7292H30.8958V42.3751V37.6667H33.25V40.0209H35.6042Z" fill="#F4B7AB"/>
<path fill-rule="evenodd" clip-rule="evenodd" d="M37.9584 40.0208H40.3125V44.7291H37.9584V42.3749V40.0208Z" fill="#F4B7AB"/>
<path fill-rule="evenodd" clip-rule="evenodd" d="M42.6666 40.0208H45.0208V42.3749H42.6666V40.0208Z" fill="#F4B7AB"/>
<path fill-rule="evenodd" clip-rule="evenodd" d="M28.5416 44.7292H26.1875V47.0833H23.8333V49.4375H26.1875V51.7917H28.5416H30.8958H33.25V49.4375H35.6041H37.9583V47.0833H40.3125V49.4375V51.7917H37.9583V54.1458V56.5H35.6041V58.8542H33.25V61.2083H30.8958V63.5625H28.5416V65.9167H26.1875H23.8333V68.2708H14.4166V65.9167H12.0625H9.70829V63.5625H7.35413V61.2083H9.70829H12.0625V58.8542H14.4166H16.7708V56.5H19.125V54.1458V51.7917V49.4375H21.4791V47.0833V44.7292V42.375H23.8333H26.1875H28.5416V44.7292Z" fill="#F4B7AB"/>
<path fill-rule="evenodd" clip-rule="evenodd" d="M40.3125 47.0834V44.7292H42.6667V47.0834H40.3125Z" fill="#F4B7AB"/>
<g clip-path="url(#clip1)">
<path d="M181.913 55.5307C181.851 55.899 182.719 67.6423 182.719 67.6423L189.208 69.4632L191.42 70.7316H203.51L204.812 69.4632L206.114 67.8878L207.417 66.8649L208.347 65.6578V55.0193L207.417 54.2214L206.59 52.9938H200.906V50.7434L202.208 49.1885L203.51 48.186L203.159 43.6033L202.208 41.5778L201.464 40.8004L199.604 41.5778L198.095 44.1147L197.909 45.9765L197 46.6516L194.396 49.1885L191.792 51.7254L189.208 54.2418L188.423 55.4694L181.913 55.5307Z" fill="white"/>
<path d="M181.396 54.2009H173.604V69.4427H181.396V54.2009Z" fill="#63E0DB"/>
<path d="M173.604 54.2418H171V56.7787H173.604V54.2418Z" fill="black"/>
<path d="M176.208 51.7048H173.604V54.2417H176.208V51.7048Z" fill="black"/>
<path d="M178.812 51.7048H176.208V54.2417H178.812V51.7048Z" fill="black"/>
<path d="M181.396 51.7048H178.792V54.2417H181.396V51.7048Z" fill="black"/>
<path d="M186.604 54.2418H184V56.7787H186.604V54.2418Z" fill="black"/>
<path d="M189.208 54.2418H186.604V56.7787H189.208V54.2418Z" fill="black"/>
<path d="M191.812 51.7048H189.208V54.2417H191.812V51.7048Z" fill="black"/>
<path d="M194.396 49.168H191.792V51.7049H194.396V49.168Z" fill="black"/>
<path d="M197 46.6311H194.396V49.168H197V46.6311Z" fill="black"/>
<path d="M199.604 41.5369H197V44.0738H199.604V41.5369Z" fill="black"/>
<path d="M199.604 44.0737H197V46.6106H199.604V44.0737Z" fill="black"/>
<path d="M202.208 39H199.604V41.5369H202.208V39Z" fill="black"/>
<path d="M204.812 41.5369H202.208V44.0738H204.812V41.5369Z" fill="black"/>
<path d="M204.812 44.0737H202.208V46.6106H204.812V44.0737Z" fill="black"/>
<path d="M204.812 46.6311H202.208V49.168H204.812V46.6311Z" fill="black"/>
<path d="M202.208 49.168H199.604V51.7049H202.208V49.168Z" fill="black"/>
<path d="M199.604 54.2622H197V56.7991H199.604V54.2622Z" fill="black"/>
<path d="M207.396 56.9015H204.792V59.4384H207.396V56.9015Z" fill="black"/>
<path d="M207.396 61.7706H204.792V64.3075H207.396V61.7706Z" fill="black"/>
<path d="M202.208 51.7048H199.604V54.2417H202.208V51.7048Z" fill="black"/>
<path d="M204.812 51.7048H202.208V54.2417H204.812V51.7048Z" fill="black"/>
<path d="M207.396 51.7048H204.792V54.2417H207.396V51.7048Z" fill="black"/>
<path d="M210 54.2009H207.396V56.7378H210V54.2009Z" fill="black"/>
<path d="M210 56.7378H207.396V59.2747H210V56.7378Z" fill="black"/>
<path d="M210 59.2747H207.396V61.8115H210V59.2747Z" fill="black"/>
<path d="M210 61.7706H207.396V64.3075H210V61.7706Z" fill="black"/>
<path d="M210 64.3075H207.396V66.8444H210V64.3075Z" fill="black"/>
<path d="M207.396 66.8649H204.792V69.4018H207.396V66.8649Z" fill="black"/>
<path d="M204.812 69.4426H202.208V71.9795H204.812V69.4426Z" fill="black"/>
<path d="M186.604 66.9058H184V69.4427H186.604V66.9058Z" fill="black"/>
<path d="M189.208 66.9058H186.604V69.4427H189.208V66.9058Z" fill="black"/>
<path d="M191.812 69.4426H189.208V71.9795H191.812V69.4426Z" fill="black"/>
<path d="M178.812 69.4426H176.208V71.9795H178.812V69.4426Z" fill="black"/>
<path d="M181.396 69.4426H178.792V71.9795H181.396V69.4426Z" fill="black"/>
<path d="M194.396 69.4426H191.792V71.9795H194.396V69.4426Z" fill="black"/>
<path d="M197 69.4426H194.396V71.9795H197V69.4426Z" fill="black"/>
<path d="M199.604 69.4426H197V71.9795H199.604V69.4426Z" fill="black"/>
<path d="M202.208 69.4426H199.604V71.9795H202.208V69.4426Z" fill="black"/>
<path d="M173.604 56.7787H171V59.3156H173.604V56.7787Z" fill="black"/>
<path d="M173.604 59.3361H171V61.873H173.604V59.3361Z" fill="black"/>
<path d="M173.604 61.8729H171V64.4098H173.604V61.8729Z" fill="black"/>
<path d="M173.604 64.3689H171V66.9058H173.604V64.3689Z" fill="black"/>
<path d="M173.604 66.9058H171V69.4427H173.604V66.9058Z" fill="black"/>
<path d="M184 54.2418H181.396V56.7787H184V54.2418Z" fill="black"/>
<path d="M184 56.7787H181.396V59.3156H184V56.7787Z" fill="black"/>
<path d="M178.812 64.3893H176.208V66.9262H178.812V64.3893Z" fill="black"/>
<path d="M184 59.3361H181.396V61.873H184V59.3361Z" fill="black"/>
<path d="M184 61.8729H181.396V64.4098H184V61.8729Z" fill="black"/>
<path d="M184 64.3689H181.396V66.9058H184V64.3689Z" fill="black"/>
<path d="M184 66.9058H181.396V69.4427H184V66.9058Z" fill="black"/>
<path d="M176.208 69.4426H173.604V71.9795H176.208V69.4426Z" fill="black"/>
</g>
<path d="M127.733 53.4615V58.3846H130.288V53.4615H145.467L145.445 68.2308H140.4V70.6923H137.867L137.856 75.6361H132.8V78.0769H130.267V80.5385H127.733V78.0769H125.211V75.6361H120.08V70.6923H117.6V68.2308H112.533V53.4615H127.733Z" fill="#E3E3E3"/>
<path d="M137.867 55.9231H140.4V58.3846H142.933V60.8462V63.3077H140.4V60.8462H137.867V58.3846H135.333V55.9231H137.867Z" fill="white"/>
<path d="M132.8 51H142.933V53.4615H132.8V51Z" fill="black"/>
<path d="M115.066 51H125.2V53.4615H115.066V51Z" fill="black"/>
<path d="M130.267 53.4615H132.8V55.9231H130.267V53.4615Z" fill="black"/>
<path d="M142.933 53.4615H145.467V55.9231H142.933V53.4615Z" fill="black"/>
<path d="M142.933 65.7693H145.467V68.2308H142.933V65.7693Z" fill="black"/>
<path d="M140.4 68.2307H142.933V70.6923H140.4V68.2307Z" fill="black"/>
<path d="M137.866 70.6924H140.4V73.1539H137.866V70.6924Z" fill="black"/>
<path d="M135.333 73.1538H137.867V75.6153H135.333V73.1538Z" fill="black"/>
<path d="M120.133 73.1538H122.667V75.6153H120.133V73.1538Z" fill="black"/>
<path d="M132.8 75.6154H135.333V78.0769H132.8V75.6154Z" fill="black"/>
<path d="M130.267 78.0769H132.8V80.5384H130.267V78.0769Z" fill="black"/>
<path d="M112.533 65.7693H115.067V68.2308H112.533V65.7693Z" fill="black"/>
<path d="M115.067 68.2307H117.6V70.6923H115.067V68.2307Z" fill="black"/>
<path d="M117.6 70.6924H120.133V73.1539H117.6V70.6924Z" fill="black"/>
<path d="M122.666 75.6154H125.2V78.0769H122.666V75.6154Z" fill="black"/>
<path d="M125.2 78.0769H127.733V80.5384H125.2V78.0769Z" fill="black"/>
<path d="M127.733 80.5385H130.266V83H127.733V80.5385Z" fill="black"/>
<path d="M145.467 55.9231H148V65.7693H145.467V55.9231Z" fill="black"/>
<path d="M110 55.9231H112.533V65.7693H110V55.9231Z" fill="black"/>
<path d="M125.2 53.4615H127.733V55.9231H125.2V53.4615Z" fill="black"/>
<path d="M112.533 53.4615H115.067V55.9231H112.533V53.4615Z" fill="black"/>
<path d="M127.733 55.9231H130.266V58.3846H127.733V55.9231Z" fill="black"/>
<defs>
<clipPath id="clip0">
<rect width="39" height="33" fill="white" transform="translate(138)"/>
</clipPath>
<clipPath id="clip1">
<rect width="39" height="33" fill="white" transform="translate(171 39)"/>
</clipPath>
</defs>
</svg>
