<svg width="26" height="26" viewBox="0 0 26 26" fill="none" xmlns="http://www.w3.org/2000/svg">
<path fill-rule="evenodd" clip-rule="evenodd" d="M13 24.375C16.0168 24.375 18.9101 23.1766 21.0433 21.0433C23.1766 18.9101 24.375 16.0168 24.375 13C24.375 9.98316 23.1766 7.08989 21.0433 4.95666C18.9101 2.82343 16.0168 1.625 13 1.625C9.98316 1.625 7.08989 2.82343 4.95666 4.95666C2.82343 7.08989 1.625 9.98316 1.625 13C1.625 16.0168 2.82343 18.9101 4.95666 21.0433C7.08989 23.1766 9.98316 24.375 13 24.375ZM13 26C16.4478 26 19.7544 24.6304 22.1924 22.1924C24.6304 19.7544 26 16.4478 26 13C26 9.55219 24.6304 6.24558 22.1924 3.80761C19.7544 1.36964 16.4478 0 13 0C9.55219 0 6.24558 1.36964 3.80761 3.80761C1.36964 6.24558 0 9.55219 0 13C0 16.4478 1.36964 19.7544 3.80761 22.1924C6.24558 24.6304 9.55219 26 13 26Z" fill="black"/>
<path fill-rule="evenodd" clip-rule="evenodd" d="M6.96336 15.5464C7.14997 15.4386 7.37174 15.4094 7.57988 15.4652C7.78802 15.521 7.96548 15.6571 8.07323 15.8438C8.57229 16.7088 9.29044 17.4271 10.1554 17.9263C11.0203 18.4256 12.0015 18.6881 13.0002 18.6875C13.9989 18.6881 14.9801 18.4256 15.8451 17.9263C16.71 17.4271 17.4282 16.7088 17.9272 15.8438C17.9802 15.7506 18.0511 15.6688 18.1357 15.6032C18.2204 15.5375 18.3173 15.4893 18.4207 15.4612C18.5241 15.4331 18.632 15.4258 18.7383 15.4396C18.8445 15.4534 18.947 15.4881 19.0398 15.5417C19.1326 15.5953 19.2139 15.6667 19.279 15.7518C19.3441 15.8369 19.3917 15.9341 19.4191 16.0377C19.4465 16.1412 19.4531 16.2492 19.4386 16.3554C19.424 16.4616 19.3887 16.5638 19.3345 16.6562C18.6928 17.7683 17.7695 18.6918 16.6575 19.3336C15.5456 19.9755 14.2842 20.3131 13.0002 20.3125C11.7163 20.3131 10.4549 19.9755 9.34291 19.3336C8.23094 18.6918 7.30766 17.7683 6.66598 16.6562C6.55824 16.4696 6.52905 16.2479 6.58481 16.0397C6.64058 15.8316 6.77675 15.6541 6.96336 15.5464ZM10.5627 10.5576V10.5625H8.93773C8.93773 9.6395 9.66411 9.02363 10.3385 8.68725C11.0616 8.32488 12.0041 8.125 13.0002 8.125C13.9964 8.125 14.9389 8.32488 15.662 8.68725C16.3364 9.02363 17.0627 9.6395 17.0627 10.5625H15.4377V10.5576L15.4329 10.5414C15.4178 10.5099 15.3981 10.4808 15.3744 10.4553C15.25 10.3226 15.101 10.2155 14.9356 10.14C14.479 9.9125 13.7965 9.75 13.0002 9.75C12.2024 9.75 11.5182 9.9125 11.0665 10.14C10.9005 10.2154 10.7509 10.3225 10.6261 10.4553C10.6022 10.4813 10.5825 10.5109 10.5676 10.543L10.5627 10.5593V10.5576Z" fill="black"/>
<path d="M3.7533 8.51988C3.69327 8.28027 3.68866 8.03013 3.73982 7.78848C3.79097 7.54682 3.89654 7.32001 4.0485 7.12528C4.20047 6.93055 4.39482 6.77302 4.6168 6.66467C4.83878 6.55632 5.08254 6.50001 5.32955 6.5H9.74955C10.1805 6.5 10.5938 6.67121 10.8986 6.97595C11.2033 7.2807 11.3745 7.69402 11.3745 8.125V9.75C11.3745 10.612 11.0321 11.4386 10.4226 12.0481C9.81315 12.6576 8.9865 13 8.12455 13H7.4128C6.68806 12.9999 5.98416 12.7575 5.41296 12.3115C4.84176 11.8654 4.43605 11.2412 4.2603 10.5381L3.7533 8.51988ZM14.6245 8.125C14.6245 7.69402 14.7958 7.2807 15.1005 6.97595C15.4052 6.67121 15.8186 6.5 16.2495 6.5H20.6695C20.9166 6.50001 21.1603 6.55632 21.3823 6.66467C21.6043 6.77302 21.7986 6.93055 21.9506 7.12528C22.1026 7.32001 22.2081 7.54682 22.2593 7.78848C22.3104 8.03013 22.3058 8.28027 22.2458 8.51988L21.7404 10.5381C21.5647 11.2412 21.159 11.8654 20.5878 12.3115C20.0166 12.7575 19.3127 12.9999 18.5879 13H17.8745C17.0126 13 16.1859 12.6576 15.5765 12.0481C14.967 11.4386 14.6245 10.612 14.6245 9.75V8.125Z" fill="black"/>
<path fill-rule="evenodd" clip-rule="evenodd" d="M13 6C14.8565 6 16.637 6.7375 17.9497 8.05025C19.2625 9.36301 20 11.1435 20 13C20 14.8565 19.2625 16.637 17.9497 17.9497C16.637 19.2625 14.8565 20 13 20C11.1435 20 9.36301 19.2625 8.05025 17.9497C6.7375 16.637 6 14.8565 6 13C6 11.1435 6.7375 9.36301 8.05025 8.05025C9.36301 6.7375 11.1435 6 13 6ZM13 5C15.1217 5 17.1566 5.84285 18.6569 7.34315C20.1571 8.84344 21 10.8783 21 13C21 15.1217 20.1571 17.1566 18.6569 18.6569C17.1566 20.1571 15.1217 21 13 21C10.8783 21 8.84344 20.1571 7.34315 18.6569C5.84285 17.1566 5 15.1217 5 13C5 10.8783 5.84285 8.84344 7.34315 7.34315C8.84344 5.84285 10.8783 5 13 5V5Z" fill="black"/>
<path fill-rule="evenodd" clip-rule="evenodd" d="M9.28514 11.433C9.39998 11.4993 9.53646 11.5173 9.66454 11.483C9.79263 11.4486 9.90184 11.3648 9.96814 11.25C10.2753 10.7177 10.7172 10.2756 11.2495 9.96842C11.7817 9.6612 12.3856 9.49964 13.0001 9.5C14.2951 9.5 15.4261 10.203 16.0321 11.25C16.0989 11.3639 16.208 11.4468 16.3357 11.4805C16.4633 11.5143 16.5991 11.4962 16.7135 11.4301C16.8278 11.3641 16.9114 11.2556 16.946 11.1281C16.9806 11.0007 16.9634 10.8648 16.8981 10.75C16.5033 10.0656 15.9351 9.49738 15.2508 9.1024C14.5665 8.70741 13.7902 8.49964 13.0001 8.5C12.2101 8.49984 11.4339 8.7077 10.7496 9.10266C10.0654 9.49763 9.49718 10.0658 9.10214 10.75C9.03584 10.8648 9.01787 11.0013 9.05219 11.1294C9.08651 11.2575 9.17031 11.3667 9.28514 11.433Z" fill="black"/>
<path d="M12 14.5C12 13.672 11.552 13 11 13C10.448 13 10 13.672 10 14.5C10 15.328 10.448 16 11 16C11.552 16 12 15.328 12 14.5ZM16 14.5C16 13.672 15.552 13 15 13C14.448 13 14 13.672 14 14.5C14 15.328 14.448 16 15 16C15.552 16 16 15.328 16 14.5Z" fill="black"/>
</svg>
