<svg width="25" height="26" viewBox="0 0 25 26" fill="none" xmlns="http://www.w3.org/2000/svg">
<path d="M14.7965 26C13.092 26 11.7623 25.9831 10.8074 25.9492C9.85254 25.9154 9.11864 25.8434 8.6057 25.7334C8.09276 25.6234 7.76921 25.5303 7.63505 25.4541C7.5009 25.3779 7.28389 25.2298 6.98401 25.0098C6.74727 24.8066 6.31719 24.6416 5.69377 24.5146C5.07034 24.3877 4.03262 24.2734 2.5806 24.1719C2.32808 24.1549 2.13079 24.0534 1.98875 23.8672C1.95718 23.8164 1.89405 23.7064 1.79935 23.5371C1.70466 23.3678 1.5705 23.0843 1.39689 22.6865C1.22328 22.2887 1.06151 21.8529 0.911569 21.3789C0.761632 20.9049 0.631424 20.3125 0.520944 19.6016C0.410465 18.8906 0.355225 18.1712 0.355225 17.4434C0.355225 14.972 0.741904 13.0762 1.51526 11.7559C1.67309 11.502 1.89405 11.375 2.17814 11.375C3.5039 11.375 4.95986 10.5117 6.54604 8.78516C8.13221 7.05859 9.50137 4.71419 10.6535 1.75195C10.6851 1.70117 10.7364 1.58268 10.8074 1.39648C10.8784 1.21029 10.9218 1.0918 10.9376 1.04102C10.9534 0.990234 10.9968 0.892904 11.0678 0.749023C11.1388 0.605143 11.202 0.512044 11.2572 0.469727C11.3125 0.427409 11.3874 0.363932 11.4821 0.279297C11.5768 0.194661 11.6755 0.139648 11.778 0.114258C11.8806 0.0888672 12.0069 0.0634766 12.1568 0.0380859C12.3068 0.0126953 12.4764 0 12.6658 0C12.9499 0 13.2419 0.0677083 13.5418 0.203125C13.8417 0.338542 14.1179 0.520508 14.3704 0.749023C14.6229 0.977539 14.8281 1.23568 14.9859 1.52344C15.2858 2.04818 15.4594 2.80143 15.5067 3.7832C15.5541 4.76497 15.5265 5.67904 15.4239 6.52539C15.3213 7.37174 15.1832 8.18425 15.0096 8.96289C17.8189 8.94596 19.7286 8.9375 20.7387 8.9375C21.6699 8.9375 22.4236 9.20833 22.9996 9.75C23.5757 10.2917 23.8716 11.0026 23.8874 11.8828C23.9032 12.6276 23.8322 13.1947 23.6744 13.584C23.9427 13.8717 24.1676 14.1722 24.3491 14.4854C24.5306 14.7985 24.6292 15.1497 24.645 15.5391C24.6608 16.3346 24.2978 17.1471 23.556 17.9766C23.5718 18.0104 23.6033 18.0908 23.6507 18.2178C23.698 18.3447 23.7335 18.4505 23.7572 18.5352C23.7809 18.6198 23.8006 18.7256 23.8164 18.8525C23.8322 18.9795 23.8401 19.1022 23.8401 19.2207C23.8085 20.1517 23.3035 20.9811 22.3249 21.709C22.4038 22.2676 22.3959 22.7669 22.3012 23.207C21.9225 25.069 19.4209 26 14.7965 26ZM2.98307 22.5215C5.57145 22.7415 7.21286 23.1309 7.90731 23.6895C8.15983 23.8926 8.38079 24.028 8.57019 24.0957C8.75958 24.1634 9.32776 24.2269 10.2747 24.2861C11.2217 24.3454 12.729 24.375 14.7965 24.375C15.4436 24.375 16.0315 24.3581 16.5602 24.3242C17.089 24.2904 17.7006 24.2311 18.395 24.1465C19.0894 24.0618 19.6497 23.9095 20.0759 23.6895C20.502 23.4694 20.7545 23.1901 20.8334 22.8516C20.8966 22.4961 20.7466 22.1152 20.3836 21.709C20.3047 21.5059 20.3047 21.2985 20.3836 21.0869C20.4625 20.8753 20.5888 20.7272 20.7624 20.6426H20.7861C20.865 20.6087 20.9597 20.5664 21.0702 20.5156C21.1807 20.4648 21.3424 20.3717 21.5555 20.2363C21.7686 20.1009 21.9461 19.9359 22.0882 19.7412C22.2302 19.5465 22.3091 19.3561 22.3249 19.1699C22.3249 19.1022 22.321 19.0387 22.3131 18.9795C22.3052 18.9202 22.2973 18.8652 22.2894 18.8145C22.2815 18.7637 22.2657 18.7129 22.2421 18.6621L22.1829 18.5352L22.1237 18.4336L22.0645 18.3447L22.0172 18.2812L21.9816 18.2305L21.9698 18.2051C21.9067 18.1204 21.8672 18.0273 21.8514 17.9258C21.8357 17.8242 21.8357 17.7227 21.8514 17.6211C21.8672 17.5195 21.9027 17.4222 21.958 17.3291C22.0132 17.236 22.0803 17.1556 22.1592 17.0879C22.2539 17.0371 22.3565 16.9652 22.467 16.8721C22.5774 16.779 22.7155 16.6055 22.8813 16.3516C23.047 16.0977 23.1298 15.8438 23.1298 15.5898C23.1141 15.1667 22.8142 14.7689 22.2302 14.3965C22.1355 14.3288 22.0566 14.2484 21.9935 14.1553C21.9304 14.0622 21.883 13.9564 21.8514 13.8379C21.8357 13.7702 21.8317 13.6982 21.8396 13.6221C21.8475 13.5459 21.8633 13.4697 21.8869 13.3936C21.9106 13.3174 21.9461 13.2454 21.9935 13.1777C22.0093 13.1608 22.025 13.1396 22.0408 13.1143C22.0566 13.0889 22.0882 13.0254 22.1355 12.9238C22.1829 12.8223 22.2223 12.7249 22.2539 12.6318C22.2855 12.5387 22.3131 12.4245 22.3368 12.2891C22.3604 12.1536 22.3723 12.0267 22.3723 11.9082C22.3565 11.6035 22.2815 11.3496 22.1474 11.1465C22.0132 10.9434 21.8396 10.8037 21.6265 10.7275C21.4135 10.6514 21.2438 10.6048 21.1175 10.5879C20.9913 10.571 20.865 10.5625 20.7387 10.5625H15.199L13.9206 10.5879C13.8574 10.5879 13.7943 10.5794 13.7312 10.5625C13.668 10.5456 13.6089 10.5202 13.5536 10.4863C13.4984 10.4525 13.4471 10.4144 13.3997 10.3721C13.3524 10.3298 13.3129 10.2747 13.2814 10.207C13.1393 9.98698 13.1156 9.73307 13.2103 9.44531C13.4629 8.66667 13.6641 7.81185 13.814 6.88086C13.964 5.94987 14.035 5.0612 14.0271 4.21484C14.0192 3.36849 13.9048 2.75065 13.6838 2.36133C13.668 2.32747 13.6365 2.26823 13.5891 2.18359C13.5418 2.09896 13.5102 2.03971 13.4944 2.00586C13.4786 1.97201 13.4431 1.92546 13.3879 1.86621C13.3327 1.80697 13.2774 1.76465 13.2222 1.73926C13.1669 1.71387 13.092 1.68848 12.9973 1.66309C12.9026 1.6377 12.7921 1.625 12.6658 1.625C12.6185 1.625 12.5711 1.64193 12.5238 1.67578C12.4764 1.70964 12.4054 1.78581 12.3107 1.9043C12.216 2.02279 12.1292 2.18359 12.0503 2.38672C10.835 5.53516 9.36722 8.0446 7.64689 9.91504C5.92656 11.7855 4.26147 12.8053 2.65163 12.9746C2.52536 13.2793 2.41488 13.584 2.32019 13.8887C2.22549 14.1934 2.12685 14.6758 2.02426 15.3359C1.92167 15.9961 1.87038 16.6986 1.87038 17.4434C1.87038 18.2051 1.9414 18.9626 2.08344 19.7158C2.22549 20.4691 2.37148 21.0615 2.52142 21.4932C2.67135 21.9248 2.82524 22.2676 2.98307 22.5215Z" fill="black"/>
</svg>
