<svg width="93" height="31" viewBox="0 0 93 31" fill="none" xmlns="http://www.w3.org/2000/svg">
<path d="M2.23375 11.3455L0 10.4905V7.98238H2.2903L2.31858 6.55731C2.31858 0.714537 6.84263 0.230014 11.3384 1.42707L10.9143 4.96124C9.2743 4.44821 6.89918 4.1347 6.89918 6.67132V7.98238H10.5467V11.3455H6.89918V21.492H2.23375V11.3455Z" fill="white"/>
<path d="M24.3734 8.89404V17.1594C24.3734 18.2425 24.3168 18.727 25.5044 18.727V21.2921C23.8361 21.6626 20.641 22.1472 20.641 19.582V19.411C19.9059 20.8931 18.379 21.6911 16.8238 21.6911C12.7239 21.6056 10.9143 18.4135 10.9143 14.5088C11.0557 9.86309 14.166 7.55448 18.6335 7.63999C20.6127 7.69699 22.5637 8.15301 24.3734 8.89404ZM19.8776 11.6302C19.3404 11.4877 18.7466 11.4307 18.2659 11.4307C16.6259 11.4307 15.6363 12.3712 15.5515 14.6228C15.5797 16.4184 16.3432 17.5014 17.87 17.4729C19.2555 17.4729 19.8493 16.2474 19.8776 14.5658V11.6302Z" fill="white"/>
<path d="M32.6584 21.4632H27.993V12.0863C27.993 10.9177 27.9647 10.4332 26.6641 10.5187V7.92508C28.5585 7.46906 32.4888 6.98454 32.4888 10.0057C33.2805 8.55211 34.6377 7.66857 36.2777 7.66857C40.0948 7.66857 41.4803 10.2622 41.3955 13.7109V17.359C41.3955 18.3851 41.5652 18.9266 42.6396 18.9266V21.3492C39.9535 22.1188 36.7584 21.9477 36.7584 18.2426V13.7109C36.7866 12.1718 35.8253 11.4022 34.8356 11.4022C33.7612 11.3167 32.6584 12.2288 32.6584 13.7964V21.4632Z" fill="white"/>
<path d="M49.5667 7.982H53.5817V11.3452H49.5667V16.0479C49.5667 18.499 52.1114 18.3565 53.7797 17.7295L54.1472 21.2921C49.6232 22.5747 44.9861 21.8906 44.9861 16.1619V11.3452L42.6675 10.9176V7.982H44.9861L46.4281 3.8208H49.5384V7.982H49.5667Z" fill="white"/>
<path d="M62.0362 21.7767C58.53 21.7767 54.9956 19.4111 54.9956 14.6513C54.9956 9.86312 58.53 7.49751 62.0644 7.52601C65.514 7.55451 68.9919 9.94862 68.9919 14.6513C68.9636 19.4111 65.5423 21.7767 62.0362 21.7767ZM62.0362 17.6155C63.252 17.587 64.383 16.6179 64.383 14.6798C64.383 12.7418 63.252 11.7727 62.0927 11.7442C60.9051 11.7157 59.6328 12.6848 59.6328 14.6798C59.6328 16.6464 60.8203 17.644 62.0362 17.6155Z" fill="white"/>
<path d="M74.8731 2.36719V16.0193C74.8731 17.8434 75.7779 18.2139 77.1634 17.9859L77.3047 21.5486C73.2048 22.3181 70.2925 21.2636 70.2925 16.0478V7.04141V2.36719H74.8731Z" fill="white"/>
<path d="M91.3013 8.89404V17.1594C91.3013 18.2425 91.2448 18.727 92.4323 18.727V21.2921C90.7641 21.6626 87.569 22.1472 87.569 19.582V19.411C86.8338 20.8931 85.307 21.6911 83.7518 21.6911C79.6519 21.6056 77.8423 18.4135 77.8423 14.5088C77.9837 9.86309 81.0939 7.55448 85.5614 7.63999C87.5124 7.69699 89.4917 8.15301 91.3013 8.89404ZM86.8055 11.6302C86.2683 11.4877 85.6745 11.4307 85.1939 11.4307C83.5539 11.4307 82.5643 12.3712 82.4794 14.6228C82.5077 16.4184 83.2711 17.5014 84.798 17.4729C86.1835 17.4729 86.7773 16.2474 86.8055 14.5658V11.6302Z" fill="white"/>
<path d="M86.7772 26.4224L86.8903 26.3369L84.3455 23.3443L84.2324 23.4298C81.5745 25.7099 78.2097 26.964 74.7319 26.964C71.1975 26.964 67.7762 25.6814 65.1183 23.3443L65.0052 23.2588L62.4321 26.2229L62.5452 26.3084C65.91 29.2726 70.2361 30.8972 74.7319 30.8972C79.1428 30.9257 83.4407 29.3296 86.7772 26.4224Z" fill="#C20E1A"/>
<path d="M90.8767 5.13204C90.8767 4.81852 90.6222 4.56201 90.2829 4.56201H89.6326V6.18659H90.0001V5.64506H90.2264L90.6222 6.18659H90.9332V6.04408L90.5939 5.58806C90.7919 5.50256 90.8767 5.33155 90.8767 5.13204ZM90.0001 4.93253H90.3112C90.4526 4.93253 90.5374 5.01803 90.5374 5.13204C90.5374 5.27455 90.4526 5.36005 90.3112 5.36005H90.0001V4.93253Z" fill="white"/>
<path d="M90.2264 3.93481C89.4064 3.93481 88.7561 4.59034 88.7561 5.41688C88.7561 6.24342 89.4064 6.89895 90.2264 6.89895C91.0464 6.89895 91.6967 6.24342 91.6967 5.41688C91.6967 4.61885 91.0464 3.93481 90.2264 3.93481ZM90.2264 6.64244C89.5761 6.64244 89.0389 6.10092 89.0389 5.44538C89.0389 4.78985 89.5761 4.24833 90.2264 4.24833C90.8768 4.24833 91.414 4.78985 91.414 5.44538C91.414 6.10092 90.8768 6.64244 90.2264 6.64244Z" fill="white"/>
</svg>
