<svg width="26" height="26" viewBox="0 0 26 26" fill="none" xmlns="http://www.w3.org/2000/svg">
<path fill-rule="evenodd" clip-rule="evenodd" d="M13 1.625C16.0168 1.625 18.9101 2.82343 21.0433 4.95666C23.1766 7.08989 24.375 9.98316 24.375 13C24.375 16.0168 23.1766 18.9101 21.0433 21.0433C18.9101 23.1766 16.0168 24.375 13 24.375C9.98316 24.375 7.08989 23.1766 4.95666 21.0433C2.82343 18.9101 1.625 16.0168 1.625 13C1.625 9.98316 2.82343 7.08989 4.95666 4.95666C7.08989 2.82343 9.98316 1.625 13 1.625ZM13 0C16.4478 0 19.7544 1.36964 22.1924 3.80761C24.6304 6.24558 26 9.55219 26 13C26 16.4478 24.6304 19.7544 22.1924 22.1924C19.7544 24.6304 16.4478 26 13 26C9.55219 26 6.24558 24.6304 3.80761 22.1924C1.36964 19.7544 0 16.4478 0 13C0 9.55219 1.36964 6.24558 3.80761 3.80761C6.24558 1.36964 9.55219 0 13 0V0Z" fill="black"/>
<path fill-rule="evenodd" clip-rule="evenodd" d="M6.96336 10.4536C7.14997 10.5614 7.37174 10.5906 7.57988 10.5348C7.78802 10.479 7.96548 10.3429 8.07323 10.1563C8.57229 9.2912 9.29044 8.5729 10.1554 8.07367C11.0203 7.57445 12.0015 7.31191 13.0002 7.3125C15.1046 7.3125 16.9425 8.45488 17.9272 10.1563C18.0357 10.3413 18.2131 10.476 18.4205 10.5308C18.6279 10.5857 18.8486 10.5563 19.0344 10.449C19.2202 10.3417 19.3561 10.1653 19.4123 9.95822C19.4685 9.75116 19.4405 9.53027 19.3345 9.34375C18.6928 8.23168 17.7695 7.30825 16.6575 6.66639C15.5456 6.02454 14.2842 5.68692 13.0002 5.6875C11.7164 5.68725 10.4551 6.02501 9.34317 6.66683C8.23125 7.30865 7.30791 8.2319 6.66598 9.34375C6.55824 9.53036 6.52905 9.75213 6.58481 9.96027C6.64058 10.1684 6.77675 10.3459 6.96336 10.4536Z" fill="black"/>
<path d="M11.375 15.4375C11.375 14.092 10.647 13 9.75 13C8.853 13 8.125 14.092 8.125 15.4375C8.125 16.783 8.853 17.875 9.75 17.875C10.647 17.875 11.375 16.783 11.375 15.4375ZM17.875 15.4375C17.875 14.092 17.147 13 16.25 13C15.353 13 14.625 14.092 14.625 15.4375C14.625 16.783 15.353 17.875 16.25 17.875C17.147 17.875 17.875 16.783 17.875 15.4375Z" fill="black"/>
</svg>
