<svg width="444" height="333" viewBox="0 0 444 333" fill="none" xmlns="http://www.w3.org/2000/svg">
<g opacity="0.8">
<path d="M277.677 95.3877C277.677 95.3877 280.403 97.3646 285.147 100.808C289.998 104.413 296.951 109.686 305.669 117.034C314.489 124.642 325.171 134.331 336.626 147.99C339.474 151.496 342.35 154.867 345.185 158.919C346.605 160.897 347.988 162.852 349.409 164.83C350.829 166.807 352.156 169.033 353.489 171.161C354.823 173.289 356.172 175.477 357.461 177.681C358.707 179.96 359.916 182.218 361.162 184.497C363.654 189.056 365.746 193.786 367.837 198.516C368.921 200.903 369.832 203.24 370.705 205.556C371.557 207.909 372.446 210.284 373.32 212.6C374.91 217.242 376.236 221.731 377.579 226.28C378.663 230.579 379.763 234.938 380.681 239.091C381.492 243.082 382.281 247.11 382.925 250.954C385.454 266.151 386.32 278.224 386.997 288.276C387.263 293.21 387.553 297.755 387.658 301.489C387.778 305.282 387.944 308.649 388.001 311.248C388.131 316.505 388.223 319.477 388.223 319.477L196.579 323.559C196.579 323.559 196.511 321.154 196.398 316.913C196.355 314.724 196.243 312.395 196.16 309.58C196.062 306.705 195.904 303.846 195.726 300.674C195.336 294.562 194.756 287.736 193.917 282.924C193.675 281.778 193.464 280.75 193.319 279.61C193.103 278.68 192.874 277.944 192.733 277.058C192.493 276.516 192.378 275.846 192.191 275.386C192.084 275.224 192.036 275.045 191.951 274.845C191.903 274.666 191.877 274.45 191.764 274.385C191.62 274.201 191.637 273.909 191.449 273.8C191.395 273.719 191.342 273.638 191.348 273.54C191.256 273.437 191.143 273.372 191.112 273.253C191.02 273.15 191.086 273.037 190.919 272.891C190.79 272.766 190.683 272.603 190.576 272.441C190.496 272.143 189.921 271.66 189.616 271.232C188.055 269.325 184.794 266.184 181.349 263.189C177.656 260.101 173.892 257.223 171.15 255.187C168.235 253.101 166.573 251.89 166.573 251.89C166.573 251.89 166.142 251.591 165.357 251.037C164.496 250.44 163.259 249.625 161.688 248.517C158.622 246.344 153.764 243.187 147.819 239.301C135.847 231.584 118.395 221.005 100.246 210.326C82.1358 199.668 63.5235 188.923 49.4919 180.771C35.4603 172.62 26.0789 167.203 26.0789 167.203L122.316 1.2118C122.316 1.2118 131.66 6.60644 145.654 14.7361C159.669 22.8281 178.486 33.7422 197.614 44.987C216.742 56.2317 236.304 68.0293 251.579 77.8549C259.214 82.8163 265.665 87.0439 270.361 90.3086C272.663 91.8895 274.498 93.1498 275.713 94.0026C276.967 94.8772 277.677 95.3877 277.677 95.3877Z" stroke="#63E0DB" stroke-miterlimit="10"/>
<path d="M388.201 319.515C388.201 319.515 388.131 316.505 387.979 311.286C387.939 308.746 387.794 305.342 387.636 301.527C387.531 297.793 387.241 293.248 386.975 288.314C386.298 278.262 385.454 266.151 382.903 250.991C382.259 247.148 381.433 243.098 380.659 239.129C379.742 234.976 378.663 230.579 377.557 226.318C376.214 221.769 374.91 217.242 373.298 212.638C372.446 210.284 371.573 207.969 370.684 205.593C369.832 203.24 368.921 200.902 367.816 198.553C365.724 193.823 363.67 189.115 361.14 184.535C359.894 182.256 358.648 179.976 357.44 177.719C356.15 175.515 354.801 173.327 353.468 171.199C352.134 169.07 350.807 166.845 349.387 164.867C347.966 162.89 346.546 160.913 345.163 158.957C342.328 154.905 339.452 151.534 336.604 148.027C325.149 134.369 314.445 124.717 305.647 117.072C296.929 109.723 289.938 104.429 285.125 100.845C280.382 97.4023 277.655 95.4254 277.655 95.4254L166.573 251.89C166.573 251.89 168.235 253.101 171.15 255.187C173.892 257.223 177.694 260.123 181.349 263.189C184.794 266.184 188.055 269.325 189.616 271.232C189.959 271.682 190.496 272.143 190.576 272.441C190.683 272.603 190.79 272.766 190.919 272.89C191.086 273.037 191.02 273.15 191.112 273.253C191.165 273.334 191.256 273.437 191.348 273.54C191.342 273.638 191.395 273.719 191.449 273.8C191.637 273.909 191.62 274.201 191.764 274.385C191.84 274.428 191.887 274.607 191.951 274.845C191.999 275.023 192.084 275.224 192.191 275.386C192.34 275.824 192.493 276.516 192.733 277.058C192.874 277.944 193.103 278.68 193.319 279.61C193.486 280.713 193.734 281.762 193.917 282.924C194.756 287.736 195.336 294.562 195.726 300.674C195.904 303.846 196.1 306.727 196.16 309.58C196.243 312.395 196.393 314.746 196.398 316.913C196.511 321.154 196.579 323.559 196.579 323.559L388.201 319.515Z" stroke="#63E0DB" stroke-miterlimit="10"/>
<path d="M321.723 320.936C321.723 320.936 321.678 318.143 321.525 313.274C321.394 308.368 321.177 301.349 320.611 292.669C320.008 283.968 319.246 273.716 317.298 262.125C316.773 259.205 316.173 256.242 315.595 253.242C314.903 250.175 314.115 247.104 313.37 243.956C312.431 240.798 311.492 237.639 310.418 234.452L308.661 229.664C308.075 228.068 307.452 226.45 306.748 224.886C301.339 212.153 293.638 200.259 285.616 190.747C277.579 181.175 269.471 173.727 262.522 167.752C255.567 161.875 249.695 157.428 245.57 154.392C241.461 151.416 239.126 149.716 239.126 149.716" stroke="#63E0DB" stroke-miterlimit="10"/>
<path d="M277.424 321.878C277.424 321.878 277.352 319.22 277.224 314.567C277.097 309.915 276.894 303.306 276.373 295.508C275.368 279.933 273.477 259.368 266.023 242.434C262.369 233.884 257.362 226.112 251.615 219.272C245.869 212.432 239.503 206.492 233.757 201.564C227.93 196.691 222.806 192.776 219.187 190.083C215.508 187.405 213.416 185.895 213.416 185.895" stroke="#63E0DB" stroke-miterlimit="10"/>
<path d="M247.886 322.486C247.886 322.486 247.808 319.925 247.691 315.429C247.654 313.144 247.522 310.501 247.413 307.47C247.348 304.363 247.101 301.05 246.893 297.408C246.412 290.236 245.742 282 244.447 274.409C244.112 272.555 243.738 270.678 243.402 268.824C243.001 267.083 242.562 265.32 242.145 263.519C241.619 261.907 241.136 260.219 240.648 258.629L239.79 256.373C239.524 255.615 239.258 254.858 238.911 254.154C236.392 248.423 233.228 243.376 228.973 238.303C224.756 233.251 219.496 228.353 214.643 224.142C209.596 219.92 204.955 216.385 201.654 213.925C198.254 211.46 196.291 210.074 196.291 210.074" stroke="#63E0DB" stroke-miterlimit="10"/>
<path d="M228.169 322.877C228.169 322.877 228.106 320.375 227.983 315.977C227.962 313.751 227.824 311.206 227.71 308.271C227.639 305.262 227.402 302.105 227.242 298.642C226.774 291.881 226.188 284.196 225.045 277.648C224.729 276.107 224.435 274.529 224.162 272.912C223.841 271.468 223.475 270.1 223.153 268.656C222.738 267.461 222.389 266.152 221.99 265.016C221.787 264.496 221.547 263.955 221.367 263.398C221.186 262.841 221.005 262.283 220.759 261.839C219.025 257.97 217.076 254.732 213.804 250.829C210.606 246.97 206.104 242.761 201.788 239.011C197.279 235.25 192.955 231.949 189.879 229.62C186.647 227.301 184.856 225.965 184.856 225.965" stroke="#63E0DB" stroke-miterlimit="10"/>
<path d="M215.05 323.152C215.05 323.152 214.965 320.688 214.896 316.371C214.875 314.145 214.731 311.697 214.632 308.822C214.54 305.85 214.372 302.835 214.146 299.484C213.721 292.999 213.132 285.665 212.121 279.848C211.852 278.485 211.584 277.123 211.338 275.722C211.042 274.495 210.718 273.402 210.519 272.18C210.184 271.282 209.935 270.233 209.638 269.357C209.467 268.956 209.334 268.578 209.201 268.199C209.09 267.782 208.957 267.404 208.78 267.101C207.595 264.454 206.429 262.472 203.81 259.35C201.305 256.294 197.303 252.524 193.358 249.089C189.203 245.583 185.122 242.472 182.175 240.267C179.093 238.035 177.318 236.759 177.318 236.759" stroke="#63E0DB" stroke-miterlimit="10"/>
<path d="M206.303 323.336C206.303 323.336 206.256 320.894 206.127 316.592C206.085 314.404 205.978 311.978 205.858 309.141C205.781 306.228 205.592 303.251 205.398 300.019C204.982 293.69 204.398 286.61 203.454 281.285C203.202 279.982 202.959 278.836 202.745 277.554C202.48 276.446 202.204 275.532 202.015 274.466C201.728 273.747 201.527 272.876 201.315 272.2C201.176 271.919 201.074 271.659 200.957 271.34C200.878 271.042 200.798 270.745 200.654 270.56C200.408 270.117 200.302 269.603 200.029 269.294C199.943 269.094 199.82 268.872 199.773 268.693C199.628 268.509 199.445 268.303 199.36 268.103C199.215 267.918 199.189 267.702 198.991 267.437C198.771 267.209 198.61 266.965 198.412 266.7C198.187 266.218 197.505 265.573 197.055 264.96C194.984 262.456 191.374 258.963 187.65 255.756C183.715 252.478 179.784 249.454 176.913 247.293C173.906 245.104 172.207 243.872 172.207 243.872" stroke="#63E0DB" stroke-miterlimit="10"/>
<path d="M200.445 323.476C200.445 323.476 200.398 321.034 200.285 316.792C200.243 314.604 200.152 312.237 200.032 309.4C199.955 306.487 199.76 303.607 199.566 300.375C199.16 294.204 198.548 287.258 197.684 282.23C197.463 281.046 197.199 279.938 197.038 278.738C196.805 277.748 196.561 276.953 196.366 275.985C196.11 275.384 195.941 274.633 195.761 274.076C195.638 273.854 195.552 273.653 195.489 273.415C195.425 273.178 195.362 272.94 195.27 272.837C195.094 272.533 195.058 272.16 194.854 271.992C194.784 271.851 194.715 271.711 194.683 271.592C194.554 271.467 194.447 271.304 194.378 271.164C194.27 271.001 194.298 270.866 194.094 270.698C193.949 270.514 193.804 270.33 193.659 270.145C193.526 269.767 192.914 269.262 192.517 268.731C190.736 266.595 187.368 263.292 183.772 260.21C179.966 257.057 176.149 254.098 173.331 252.018C170.378 249.911 168.678 248.678 168.678 248.678" stroke="#63E0DB" stroke-miterlimit="10"/>
<path d="M381.423 242.941L193.433 280.632" stroke="#63E0DB" stroke-miterlimit="10"/>
<path d="M356.118 175.396L191.256 273.438" stroke="#63E0DB" stroke-miterlimit="10"/>
<path d="M327.137 137.278L187.936 269.357" stroke="#63E0DB" stroke-miterlimit="10"/>
<path d="M307.319 118.439L182 263.715" stroke="#63E0DB" stroke-miterlimit="10"/>
<path d="M294.67 108.067L176.296 259.064" stroke="#63E0DB" stroke-miterlimit="10"/>
<path d="M286.492 101.785L171.973 255.763" stroke="#63E0DB" stroke-miterlimit="10"/>
<path d="M281.189 97.9187L168.724 253.384" stroke="#63E0DB" stroke-miterlimit="10"/>
<path d="M122.338 1.17408C122.338 1.17408 131.682 6.56874 145.675 14.6985C159.691 22.7904 178.508 33.7045 197.636 44.9493C216.764 56.1941 236.326 67.9915 251.601 77.8172C259.236 82.7786 265.687 87.0062 270.383 90.2709C272.685 91.8518 274.52 93.1121 275.735 93.9649C277.004 94.899 277.698 95.35 277.698 95.35L166.616 251.815C166.616 251.815 166.186 251.516 165.401 250.962C164.54 250.364 163.303 249.549 161.732 248.441C158.666 246.269 153.808 243.111 147.862 239.226C135.891 231.509 118.438 220.93 100.29 210.25C82.1793 199.593 63.5671 188.847 49.5355 180.696C35.4821 172.582 26.1224 167.128 26.1224 167.128L122.338 1.17408Z" stroke="#63E0DB" stroke-miterlimit="10"/>
<path d="M88.9315 58.7741C88.9315 58.7741 98.2753 64.1687 112.307 72.3202C126.36 80.4339 145.064 91.2827 163.853 102.332C182.641 113.381 201.45 124.743 215.58 133.857C222.633 138.432 228.541 142.296 232.656 145.175C234.694 146.604 236.324 147.696 237.449 148.445C238.551 149.233 239.148 149.678 239.148 149.678" stroke="#63E0DB" stroke-miterlimit="10"/>
<path d="M66.6753 97.1492C66.6753 97.1492 76.0191 102.544 90.0507 110.695C104.104 118.809 122.77 129.636 141.333 140.555C159.895 151.473 178.215 162.553 191.574 171.172C198.235 175.47 203.766 179.116 207.526 181.74C209.436 183.044 210.915 184.049 211.905 184.771C212.894 185.494 213.438 185.858 213.438 185.858" stroke="#63E0DB" stroke-miterlimit="10"/>
<path d="M51.8431 122.752C51.8431 122.752 61.2246 128.169 75.2185 136.298C89.2719 144.412 107.9 155.217 126.312 166.049C144.724 176.88 162.704 187.764 175.596 196.063C181.993 200.209 187.282 203.665 190.778 206.137C192.537 207.353 193.941 208.315 194.915 208.978C195.829 209.657 196.335 209.999 196.335 209.999" stroke="#63E0DB" stroke-miterlimit="10"/>
<path d="M41.9569 139.789C41.9569 139.789 51.3384 145.205 65.37 153.357C79.4234 161.47 98.0515 172.276 116.313 183.02C134.612 193.786 152.403 204.561 164.94 212.605C171.149 216.642 176.287 220.011 179.617 222.336C181.301 223.51 182.667 224.449 183.565 225.069C184.426 225.666 184.872 226.024 184.872 226.024" stroke="#63E0DB" stroke-miterlimit="10"/>
<path d="M35.3768 151.186C35.3768 151.186 44.7583 156.602 58.7899 164.754C72.8432 172.868 91.4337 183.651 109.657 194.374C127.881 205.097 145.522 215.785 157.833 223.697C163.929 227.67 168.916 230.952 172.17 233.233C173.816 234.385 175.129 235.243 176.027 235.863C176.85 236.438 177.297 236.797 177.297 236.797" stroke="#63E0DB" stroke-miterlimit="10"/>
<path d="M30.9595 158.75C30.9595 158.75 40.341 164.166 54.3726 172.318C68.426 180.431 87.0165 191.215 105.202 201.916C123.388 212.617 140.916 223.24 153.076 231.065C159.119 234.956 164.031 238.195 167.172 240.411C168.802 241.503 170.093 242.399 170.954 242.997C171.777 243.573 172.185 243.909 172.185 243.909" stroke="#63E0DB" stroke-miterlimit="10"/>
<path d="M28.0398 163.807C28.0398 163.807 37.4213 169.223 51.4529 177.375C65.5063 185.488 84.0967 196.272 102.245 206.951C120.393 217.63 137.884 228.231 149.931 235.992C155.935 239.861 160.772 243.056 163.875 245.251C165.468 246.321 166.721 247.196 167.582 247.793C168.367 248.347 168.776 248.684 168.776 248.684" stroke="#63E0DB" stroke-miterlimit="10"/>
<path d="M174.304 31.3276L77.8406 197.189" stroke="#63E0DB" stroke-miterlimit="10"/>
<path d="M209.643 52.0828L111.484 216.965" stroke="#63E0DB" stroke-miterlimit="10"/>
<path d="M233.699 66.6255L133.021 229.953" stroke="#63E0DB" stroke-miterlimit="10"/>
<path d="M250.154 76.9311L146.694 238.552" stroke="#63E0DB" stroke-miterlimit="10"/>
<path d="M261.388 84.2726L155.325 244.138" stroke="#63E0DB" stroke-miterlimit="10"/>
<path d="M269.032 89.3906L160.774 247.838" stroke="#63E0DB" stroke-miterlimit="10"/>
<path d="M274.18 92.9164L164.314 250.234" stroke="#63E0DB" stroke-miterlimit="10"/>
</g>
</svg>
