<svg width="109" height="241" viewBox="0 0 109 241" fill="none" xmlns="http://www.w3.org/2000/svg">
<g opacity="0.8" clip-path="url(#clip0)">
<path d="M207.313 38.0076L213.161 44.7377L218.506 51.8568L223.308 59.4039L227.529 67.2621L231.131 75.3927L234.152 83.7956L236.514 92.3931L238.257 101.107L239.342 109.938L239.806 118.847L239.574 127.716L238.722 136.586L237.212 145.339L235.043 153.937L232.254 162.339L228.885 170.548L224.935 178.445L220.365 186.031L215.291 193.267L209.714 200.114L203.634 206.533L197.128 212.485L190.195 217.931L182.914 222.833L175.285 227.19L167.345 231.002L159.135 234.192L150.77 236.76L142.211 238.744L133.536 240.066L124.783 240.728L116.03 240.805L107.278 240.183L98.6026 238.938L90.0049 237.071L81.6008 234.581L73.3904 231.469L65.451 227.734L57.7828 223.455L50.4631 218.592L43.492 213.224L36.9469 207.349L30.8278 201.008L25.1735 194.239L20.0613 187.042L15.4914 179.495L11.4636 171.637L8.0168 163.468L5.18963 155.104L2.98211 146.506L1.39425 137.753L0.464763 128.922L0.193665 120.053L0.580949 111.144L1.58789 102.313L3.29194 93.5601L5.61564 84.9627L8.559 76.5209L12.122 68.3514L16.266 60.4542L21.0296 52.8683L26.2966 45.6714L32.1059 38.9023L38.4186 32.5224L45.1574 26.687L52.3221 21.3185L59.8742 16.5335L67.7747 12.332L75.9464 8.71413L84.3505 5.67975L92.9869 3.34561L101.778 1.63391L110.647 0.583542L119.555 0.194519L128.501 0.466835L137.408 1.43939L146.2 3.07329L154.836 5.32963L163.279 8.2473L171.489 11.7874L179.39 15.9111L186.981 20.6571L194.184 25.909L200.962 31.7054L207.313 38.0076Z" stroke="#63E0DB" stroke-linecap="round" stroke-linejoin="round"/>
<path d="M205.028 40.8475L210.721 47.383L215.911 54.3077L220.558 61.5824L224.625 69.2073L228.149 77.1044L231.054 85.235L233.377 93.5601L235.043 102.002L236.127 110.56L236.553 119.197L236.321 127.794L235.508 136.392L234.036 144.872L231.945 153.197L229.272 161.367L225.98 169.303L222.146 176.967L217.731 184.358L212.813 191.361L207.391 197.974L201.543 204.198L195.23 209.956L188.491 215.247L181.404 219.993L174.007 224.233L166.339 227.929L158.399 231.002L150.266 233.531L141.978 235.437L133.536 236.721L125.054 237.382L116.573 237.421L108.091 236.837L99.687 235.631L91.3604 233.803L83.2274 231.391L75.2493 228.357L67.5424 224.778L60.1065 220.615L53.0192 215.908L46.2418 210.695L39.8903 205.015L33.9649 198.869L28.5041 192.294L23.5469 185.331L19.1319 177.978L15.2203 170.353L11.8897 162.456L9.13994 154.326L7.00988 146L5.46074 137.52L4.56999 128.961L4.29889 120.364L4.68617 111.766L5.69311 103.169L7.31971 94.6883L9.56595 86.3632L12.4319 78.1937L15.8787 70.2576L19.9064 62.6328L24.5151 55.2802L29.6273 48.3167L35.2816 41.7033L41.362 35.5567L47.9071 29.877L54.8782 24.703L62.1591 20.0736L69.8274 15.9889L77.728 12.4877L85.8997 9.56998L94.265 7.27474L102.785 5.60194L111.383 4.59048L120.019 4.24036L128.695 4.51267L137.292 5.44633L145.813 7.00242L154.178 9.21986L162.35 12.0208L170.328 15.4442L177.996 19.4512L185.316 24.0416L192.325 29.1379L198.909 34.7787L205.028 40.8475Z" stroke="#63E0DB" stroke-linecap="round" stroke-linejoin="round"/>
<path d="M193.836 40.9642L199.568 46.605L204.873 52.7127L209.676 59.1316L214.013 65.9395L217.809 73.0197L221.101 80.3722L223.812 87.9582L225.98 95.6998L227.568 103.597L228.536 111.572L228.962 119.586L228.769 127.6L227.994 135.614L226.639 143.511L224.702 151.291L222.185 158.877L219.125 166.308L215.562 173.427L211.457 180.312L206.887 186.848L201.853 193.033L196.353 198.83L190.466 204.198L184.231 209.1L177.609 213.574L170.715 217.503L163.55 220.926L156.153 223.844L148.562 226.178L140.817 227.929L132.993 229.135L125.093 229.757L117.153 229.796L109.253 229.251L101.391 228.123L93.684 226.451L86.0545 224.194L78.6574 221.354L71.4539 218.009L64.5215 214.118L57.899 209.761L51.625 204.899L45.6995 199.569L40.2001 193.85L35.0879 187.704L30.4793 181.207L26.3353 174.399L22.6948 167.28L19.5966 159.889L17.0405 152.342L15.0654 144.561L13.6711 136.664L12.8191 128.689L12.5867 120.675L12.9353 112.661L13.8648 104.647L15.3752 96.7501L17.5052 89.0086L20.1775 81.3837L23.392 74.0312L27.1486 66.8731L31.4475 60.0652L36.2111 53.5685L41.4394 47.422L47.1325 41.7033L53.2516 36.4126L59.7192 31.5887L66.5354 27.2705L73.6227 23.4581L81.0198 20.2292L88.6106 17.5061L96.395 15.3664L104.334 13.8492L112.312 12.8767L120.407 12.5655L128.462 12.7989L136.479 13.6547L144.38 15.133L152.203 17.1948L159.832 19.8013L167.229 22.9913L174.355 26.7259L181.21 30.9663L187.717 35.7513L193.836 40.9642Z" stroke="#63E0DB" stroke-linecap="round" stroke-linejoin="round"/>
<path d="M186.4 49.5616L191.512 54.6189L196.276 60.0652L200.575 65.8228L204.447 71.9304L207.894 78.2715L210.838 84.846L213.277 91.615L215.214 98.5785L216.608 105.62L217.538 112.778L217.886 119.975L217.731 127.172L217.034 134.33L215.833 141.41L214.091 148.374L211.844 155.181L209.133 161.834L205.919 168.253L202.24 174.399L198.135 180.273L193.642 185.798L188.724 191.011L183.457 195.834L177.841 200.23L171.915 204.237L165.758 207.777L159.329 210.851L152.667 213.457L145.89 215.558L138.958 217.153L131.909 218.203L124.822 218.787L117.734 218.826L110.608 218.32L103.599 217.308L96.6274 215.791L89.8112 213.768L83.1887 211.24L76.721 208.205L70.5245 204.743L64.599 200.814L58.9447 196.457L53.6389 191.672L48.6817 186.537L44.1504 181.052L40.0065 175.216L36.2886 169.109L33.0354 162.729L30.2857 156.115L28.0007 149.307L26.2192 142.344L24.9411 135.263L24.2053 128.144L24.0117 120.947L24.3215 113.75L25.1735 106.592L26.529 99.5122L28.4267 92.5487L30.8279 85.7408L33.7325 79.1663L37.1019 72.7474L40.936 66.6397L45.2348 60.8433L49.921 55.358L55.0331 50.2229L60.4938 45.4768L66.2644 41.1976L72.3834 37.3073L78.7736 33.9228L85.3575 31.0052L92.1737 28.5543L99.1448 26.687L106.232 25.2865L113.397 24.4307L120.6 24.1194L127.843 24.3529L135.007 25.1309L142.095 26.4536L149.104 28.282L155.921 30.6161L162.543 33.4949L168.933 36.8016L175.052 40.614L180.9 44.8933L186.4 49.5616Z" stroke="#63E0DB" stroke-linecap="round" stroke-linejoin="round"/>
<path d="M177.57 59.365L182.024 63.7221L186.129 68.4292L189.847 73.4087L193.216 78.6995L196.198 84.1847L198.754 89.8644L200.884 95.7387L202.55 101.73L203.789 107.876L204.564 114.062L204.873 120.286L204.757 126.51L204.176 132.696L203.131 138.842L201.62 144.872L199.684 150.786L197.321 156.543L194.572 162.106L191.396 167.436L187.833 172.532L183.921 177.317L179.7 181.83L175.13 186.031L170.25 189.843L165.138 193.306L159.755 196.379L154.217 199.063L148.446 201.32L142.559 203.109L136.556 204.51L130.437 205.443L124.318 205.91L118.16 205.949L112.003 205.521L105.884 204.665L99.8806 203.343L93.9552 201.592L88.2233 199.375L82.6077 196.768L77.2245 193.734L72.1123 190.349L67.1938 186.537L62.6239 182.413L58.325 177.939L54.3747 173.193L50.8117 168.136L47.5972 162.845L44.8088 157.321L42.4076 151.564L40.4325 145.689L38.8833 139.659L37.799 133.552L37.1793 127.327L36.9857 121.103L37.2955 114.879L38.0313 108.693L39.2319 102.586L40.8585 96.5556L42.9498 90.6814L45.4672 84.9238L48.3718 79.4386L51.7025 74.1479L55.4204 69.0906L59.4869 64.3445L63.9019 59.9096L68.6268 55.8249L73.6615 52.1292L78.9285 48.7836L84.428 45.827L90.1598 43.2983L96.0465 41.1976L102.088 39.5637L108.207 38.3577L114.404 37.6575L120.639 37.3852L126.913 37.5797L133.11 38.241L139.267 39.3692L145.309 40.9642L151.196 42.9871L156.928 45.438L162.466 48.3556L167.772 51.6234L172.806 55.3191L177.57 59.365Z" stroke="#63E0DB" stroke-linecap="round" stroke-linejoin="round"/>
<path d="M168.701 68.8961L172.458 72.5918L175.943 76.5987L179.08 80.8002L181.946 85.2739L184.463 89.9033L186.632 94.7272L188.414 99.7067L189.847 104.764L190.892 109.938L191.589 115.19L191.861 120.442L191.744 125.732L191.241 130.984L190.389 136.197L189.111 141.293L187.484 146.312L185.47 151.175L183.147 155.882L180.474 160.433L177.454 164.751L174.162 168.836L170.56 172.649L166.687 176.189L162.543 179.418L158.206 182.374L153.674 184.981L148.949 187.237L144.07 189.143L139.074 190.699L134 191.866L128.811 192.683L123.621 193.072L118.393 193.111L113.164 192.761L108.014 192.022L102.901 190.894L97.9054 189.377L93.0257 187.509L88.2621 185.292L83.7308 182.763L79.3545 179.846L75.2106 176.656L71.3378 173.154L67.6973 169.342L64.3666 165.296L61.3458 161.017L58.6348 156.543L56.2337 151.836L54.2198 146.973L52.5545 141.994L51.2377 136.897L50.347 131.684L49.8048 126.433L49.6498 121.181L49.9209 115.89L50.5406 110.677L51.5475 105.464L52.9418 100.368L54.7233 95.3885L56.8533 90.5647L59.3319 85.8964L62.1591 81.4226L65.2961 77.1433L68.7429 73.1364L72.4996 69.4018L76.4886 65.9395L80.7488 62.7884L85.2025 59.9485L89.8887 57.4588L94.7297 55.3191L99.6869 53.5685L104.799 52.168L109.989 51.1566L115.256 50.5341L120.523 50.3396L125.79 50.4952L131.057 51.0788L136.247 52.0124L141.359 53.374L146.355 55.0857L151.196 57.1475L155.882 59.5984L160.374 62.3605L164.673 65.4726L168.701 68.8961Z" stroke="#63E0DB" stroke-linecap="round" stroke-linejoin="round"/>
<path d="M160.994 76.871L164.17 80.0221L167.113 83.3677L169.824 86.9467L172.225 90.7203L174.355 94.6494L176.214 98.7341L177.725 102.936L178.964 107.215L179.855 111.611L180.397 116.046L180.668 120.519L180.552 124.993L180.165 129.428L179.39 133.824L178.344 138.181L176.95 142.421L175.285 146.545L173.31 150.552L171.025 154.364L168.469 158.021L165.68 161.484L162.621 164.751L159.329 167.747L155.843 170.509L152.164 172.999L148.33 175.216L144.341 177.122L140.197 178.756L135.975 180.079L131.638 181.052L127.262 181.713L122.847 182.063L118.431 182.102L114.016 181.791L109.601 181.168L105.303 180.196L101.042 178.951L96.8985 177.356L92.8707 175.488L89.0366 173.31L85.3187 170.859L81.8331 168.136L78.5412 165.179L75.443 161.95L72.6158 158.527L70.0597 154.87L67.7747 151.058L65.7609 147.09L64.0568 143.005L62.6239 138.765L61.5395 134.446L60.7649 130.051L60.3389 125.577L60.184 121.103L60.4163 116.668L60.9585 112.194L61.8106 107.837L63.0111 103.519L64.4828 99.2788L66.303 95.194L68.3944 91.226L70.7955 87.4525L73.4678 83.8345L76.3724 80.45L79.5482 77.299L82.9563 74.3424L86.558 71.697L90.3147 69.2851L94.265 67.1843L98.3702 65.3948L102.592 63.8776L106.929 62.7106L111.305 61.8547L115.759 61.349L120.213 61.1545L124.705 61.3101L129.121 61.7769L133.536 62.5939L137.873 63.722L142.095 65.1614L146.2 66.912L150.15 68.9739L153.984 71.3469L157.586 73.9923L160.994 76.871Z" stroke="#63E0DB" stroke-linecap="round" stroke-linejoin="round"/>
<path d="M155.495 82.2395L158.283 84.9627L160.878 87.9193L163.202 91.0315L165.332 94.3382L167.191 97.7616L168.817 101.341L170.134 105.036L171.218 108.81L171.993 112.622L172.496 116.513L172.729 120.403L172.651 124.332L172.264 128.222L171.644 132.073L170.715 135.886L169.514 139.621L168.043 143.238L166.3 146.74L164.286 150.085L162.078 153.275L159.639 156.31L156.966 159.149L154.1 161.795L151.041 164.207L147.826 166.385L144.418 168.33L140.933 170.003L137.331 171.443L133.613 172.571L129.818 173.466L125.984 174.049L122.111 174.36H118.238L114.365 174.127L110.531 173.543L106.735 172.726L103.018 171.598L99.3771 170.237L95.8915 168.564L92.4834 166.658L89.269 164.518L86.1707 162.145L83.3048 159.539L80.5938 156.699L78.1152 153.703L75.8689 150.513L73.8551 147.206L72.1123 143.705L70.6019 140.087L69.4013 136.392L68.4331 132.618L67.7747 128.767L67.3874 124.877L67.2712 120.947L67.4649 117.057L67.9296 113.167L68.7042 109.316L69.7111 105.542L71.0279 101.846L72.6158 98.2673L74.4747 94.805L76.5661 91.4983L78.8898 88.3472L81.4458 85.3517L84.2343 82.5897L87.1776 80.0221L90.3534 77.688L93.6453 75.6261L97.1308 73.7588L100.694 72.2027L104.373 70.8801L108.168 69.8686L112.003 69.1295L115.914 68.6626L119.826 68.507L123.737 68.6237L127.61 69.0127L131.444 69.7519L135.24 70.7245L138.958 72.0082L142.521 73.5254L146.006 75.3538L149.337 77.4157L152.512 79.7109L155.495 82.2395Z" stroke="#63E0DB" stroke-linecap="round" stroke-linejoin="round"/>
<path d="M155.34 87.0245L157.78 89.7866L159.987 92.7043L161.962 95.7776L163.705 99.0064L165.215 102.352L166.455 105.814L167.462 109.316L168.198 112.933L168.662 116.551L168.895 120.208L168.817 123.865L168.469 127.522L167.849 131.14L166.997 134.68L165.874 138.181L164.48 141.566L162.853 144.833L160.994 147.984L158.941 150.98L156.618 153.82L154.139 156.465L151.428 158.955L148.601 161.211L145.58 163.273L142.404 165.063L139.112 166.658L135.743 167.98L132.258 169.07L128.733 169.887L125.132 170.431L121.491 170.703L117.889 170.742L114.249 170.47L110.647 169.964L107.123 169.186L103.637 168.136L100.229 166.852L96.9372 165.296L93.7615 163.507L90.7407 161.523L87.8748 159.266L85.1638 156.815L82.6465 154.209L80.3227 151.369L78.2314 148.412L76.3337 145.261L74.7071 142.032L73.2742 138.648L72.1511 135.186L71.2603 131.607L70.6019 128.028L70.2534 124.371L70.1759 120.714L70.3308 117.057L70.7956 113.4L71.4927 109.821L72.4609 106.281L73.7002 102.819L75.1719 99.4733L76.9147 96.2444L78.8511 93.1322L81.0586 90.1756L83.4598 87.4135L86.0546 84.8071L88.8043 82.3951L91.7864 80.2166L94.8846 78.2715L98.0991 76.5598L101.468 75.0815L104.915 73.8366L108.44 72.903L112.041 72.2027L115.682 71.7748L119.361 71.6192L123.001 71.7359L126.642 72.1249L130.244 72.7863L133.807 73.7199L137.254 74.887L140.623 76.3264L143.876 78.0381L146.974 79.9443L149.956 82.0839L152.745 84.457L155.34 87.0245Z" stroke="#63E0DB" stroke-linecap="round" stroke-linejoin="round"/>
<path d="M114.249 170.47L114.365 174.127L114.016 181.791L113.164 192.761L112.003 205.521L110.608 218.32L109.253 229.251L108.091 236.837L107.278 240.183" stroke="#63E0DB" stroke-linecap="round" stroke-linejoin="round"/>
<path d="M110.647 169.964L110.531 173.543L109.601 181.168L108.014 192.022L105.883 204.665L103.599 217.308L101.391 228.123L99.6869 235.631L98.6025 238.938" stroke="#63E0DB" stroke-linecap="round" stroke-linejoin="round"/>
<path d="M107.123 169.186L106.736 172.726L105.303 180.196L102.901 190.894L99.8806 203.343L96.6274 215.791L93.6841 226.451L91.3604 233.803L90.0049 237.071" stroke="#63E0DB" stroke-linecap="round" stroke-linejoin="round"/>
<path d="M103.637 168.136L103.018 171.598L101.042 178.951L97.9055 189.377L93.9552 201.592L89.8112 213.768L86.0546 224.194L83.2274 231.391L81.6008 234.581" stroke="#63E0DB" stroke-linecap="round" stroke-linejoin="round"/>
<path d="M100.229 166.852L99.3772 170.237L96.8985 177.356L93.0257 187.509L88.2234 199.374L83.1887 211.24L78.6574 221.354L75.2493 228.357L73.3904 231.469" stroke="#63E0DB" stroke-linecap="round" stroke-linejoin="round"/>
<path d="M96.9373 165.296L95.8916 168.564L92.8708 175.488L88.2621 185.292L82.6078 196.768L76.721 208.205L71.454 218.009L67.5424 224.778L65.451 227.734" stroke="#63E0DB" stroke-linecap="round" stroke-linejoin="round"/>
<path d="M93.7615 163.507L92.4834 166.658L89.0366 173.31L83.7308 182.763L77.2244 193.734L70.5244 204.743L64.5215 214.119L60.1065 220.615L57.7828 223.455" stroke="#63E0DB" stroke-linecap="round" stroke-linejoin="round"/>
<path d="M90.7407 161.523L89.269 164.518L85.3187 170.859L79.3545 179.846L72.1123 190.349L64.599 200.814L57.899 209.761L53.0192 215.908L50.4631 218.592" stroke="#63E0DB" stroke-linecap="round" stroke-linejoin="round"/>
<path d="M87.8748 159.266L86.1708 162.145L81.8332 168.136L75.2106 176.656L67.1939 186.537L58.9447 196.457L51.625 204.899L46.2418 210.695L43.4921 213.224" stroke="#63E0DB" stroke-linecap="round" stroke-linejoin="round"/>
<path d="M85.1638 156.815L83.3048 159.539L78.5412 165.179L71.3377 173.154L62.6238 182.413L53.6388 191.672L45.6995 199.569L39.8903 205.015L36.9469 207.35" stroke="#63E0DB" stroke-linecap="round" stroke-linejoin="round"/>
<path d="M82.6464 154.209L80.5938 156.699L75.443 161.95L67.6973 169.342L58.325 177.939L48.6816 186.537L40.2001 193.85L33.9648 198.869L30.8278 201.008" stroke="#63E0DB" stroke-linecap="round" stroke-linejoin="round"/>
<path d="M80.3227 151.369L78.1152 153.703L72.6158 158.527L64.3666 165.296L54.3747 173.193L44.1504 181.051L35.0879 187.704L28.5041 192.294L25.1735 194.239" stroke="#63E0DB" stroke-linecap="round" stroke-linejoin="round"/>
<path d="M78.2314 148.412L75.869 150.513L70.0597 154.87L61.3458 161.017L50.8117 168.136L40.0065 175.216L30.4793 181.207L23.5469 185.331L20.0613 187.042" stroke="#63E0DB" stroke-linecap="round" stroke-linejoin="round"/>
<path d="M76.3337 145.261L73.8551 147.206L67.7748 151.058L58.6348 156.543L47.5973 162.845L36.2886 169.109L26.3354 174.399L19.1319 177.978L15.4914 179.495" stroke="#63E0DB" stroke-linecap="round" stroke-linejoin="round"/>
<path d="M74.7071 142.032L72.1123 143.705L65.7609 147.09L56.2337 151.836L44.8088 157.321L33.0354 162.729L22.6949 167.28L15.2203 170.353L11.4636 171.637" stroke="#63E0DB" stroke-linecap="round" stroke-linejoin="round"/>
<path d="M112.041 72.2028L112.003 69.1295L111.306 61.8547L109.989 51.1566L108.207 38.3577L106.232 25.2865L104.334 13.8492L102.785 5.60195L101.778 1.63391" stroke="#63E0DB" stroke-linecap="round" stroke-linejoin="round"/>
<path d="M73.2742 138.648L70.6019 140.087L64.0568 143.005L54.2198 146.973L42.4076 151.564L30.2856 156.115L19.5966 159.889L11.8896 162.456L8.01678 163.468" stroke="#63E0DB" stroke-linecap="round" stroke-linejoin="round"/>
<path d="M108.44 72.903L108.168 69.8686L106.929 62.7106L104.799 52.1681L102.088 39.5637L99.1448 26.687L96.395 15.3664L94.265 7.27475L92.9869 3.34561" stroke="#63E0DB" stroke-linecap="round" stroke-linejoin="round"/>
<path d="M72.1511 135.186L69.4014 136.392L62.6239 138.765L52.5545 141.994L40.4325 145.689L28.0007 149.307L17.0405 152.342L9.13994 154.326L5.18964 155.104" stroke="#63E0DB" stroke-linecap="round" stroke-linejoin="round"/>
<path d="M104.915 73.8366L104.373 70.8801L102.592 63.8776L99.687 53.5685L96.0465 41.1976L92.1737 28.5543L88.6107 17.5061L85.8997 9.56998L84.3505 5.67975" stroke="#63E0DB" stroke-linecap="round" stroke-linejoin="round"/>
<path d="M71.2603 131.607L68.4331 132.618L61.5395 134.447L51.2377 136.897L38.8834 139.659L26.2192 142.344L15.0654 144.561L7.00987 146.001L2.98212 146.506" stroke="#63E0DB" stroke-linecap="round" stroke-linejoin="round"/>
<path d="M101.468 75.0815L100.694 72.2028L98.3702 65.3949L94.7297 55.3191L90.1598 43.2983L85.3575 31.0052L81.0199 20.2292L77.728 12.4877L75.9465 8.71414" stroke="#63E0DB" stroke-linecap="round" stroke-linejoin="round"/>
<path d="M70.6019 128.028L67.7747 128.767L60.7649 130.051L50.347 131.684L37.7989 133.552L24.9411 135.263L13.6711 136.664L5.46071 137.52L1.39423 137.753" stroke="#63E0DB" stroke-linecap="round" stroke-linejoin="round"/>
<path d="M98.0991 76.5598L97.1309 73.7588L94.265 67.1843L89.8887 57.4587L84.428 45.827L78.7736 33.9228L73.6228 23.4581L69.8274 15.9889L67.7748 12.332" stroke="#63E0DB" stroke-linecap="round" stroke-linejoin="round"/>
<path d="M70.2534 124.371L67.3875 124.877L60.3389 125.577L49.8048 126.433L37.1793 127.327L24.2053 128.144L12.8191 128.689L4.56999 128.961L0.464783 128.922" stroke="#63E0DB" stroke-linecap="round" stroke-linejoin="round"/>
<path d="M94.8846 78.2715L93.6453 75.6262L90.3147 69.2851L85.2025 59.9485L78.9285 48.7835L72.3834 37.3074L66.5354 27.2706L62.1591 20.0736L59.8741 16.5335" stroke="#63E0DB" stroke-linecap="round" stroke-linejoin="round"/>
<path d="M70.1759 120.714L67.2713 120.947L60.184 121.103L49.6499 121.181L36.9857 121.103L24.0116 120.947L12.5868 120.675L4.29888 120.364L0.193665 120.053" stroke="#63E0DB" stroke-linecap="round" stroke-linejoin="round"/>
<path d="M91.7864 80.2166L90.3534 77.688L86.5581 71.697L80.7488 62.7884L73.6615 52.1291L66.2644 41.1976L59.7193 31.5887L54.8782 24.703L52.3221 21.3185" stroke="#63E0DB" stroke-linecap="round" stroke-linejoin="round"/>
<path d="M70.3308 117.057H67.4649L60.4163 116.668L49.9209 115.89L37.2955 114.879L24.3214 113.75L12.9353 112.661L4.68614 111.766L0.580933 111.144" stroke="#63E0DB" stroke-linecap="round" stroke-linejoin="round"/>
<path d="M88.8043 82.3952L87.1777 80.0221L82.9563 74.3424L76.4886 65.9395L68.6268 55.8249L60.4938 45.4768L53.2516 36.4126L47.9071 29.877L45.1573 26.687" stroke="#63E0DB" stroke-linecap="round" stroke-linejoin="round"/>
<path d="M70.7956 113.4L67.9297 113.167L60.9586 112.194L50.5406 110.677L38.0313 108.693L25.1735 106.592L13.8648 104.647L5.6931 103.169L1.58789 102.313" stroke="#63E0DB" stroke-linecap="round" stroke-linejoin="round"/>
<path d="M86.0546 84.8071L84.2344 82.5897L79.5482 77.299L72.4997 69.4018L63.9019 59.9096L55.0331 50.2229L47.1325 41.7033L41.362 35.5568L38.4186 32.5224" stroke="#63E0DB" stroke-linecap="round" stroke-linejoin="round"/>
<path d="M71.4927 109.821L68.7042 109.316L61.8106 107.837L51.5475 105.464L39.2319 102.585L26.529 99.5122L15.3752 96.7501L7.31969 94.6883L3.29193 93.5601" stroke="#63E0DB" stroke-linecap="round" stroke-linejoin="round"/>
<path d="M83.4598 87.4136L81.4459 85.3517L76.3725 80.45L68.743 73.1364L59.4869 64.3445L49.921 55.358L41.4394 47.422L35.2816 41.7033L32.1059 38.9023" stroke="#63E0DB" stroke-linecap="round" stroke-linejoin="round"/>
<path d="M72.4609 106.281L69.7112 105.542L63.0112 103.519L52.9418 100.368L40.8585 96.5556L28.4267 92.5487L17.5053 89.0086L9.56596 86.3632L5.61566 84.9627" stroke="#63E0DB" stroke-linecap="round" stroke-linejoin="round"/>
<path d="M81.0586 90.1756L78.8898 88.3472L73.4678 83.8345L65.2961 77.1433L55.4204 69.0906L45.2348 60.8433L36.2111 53.5685L29.6273 48.3167L26.2966 45.6714" stroke="#63E0DB" stroke-linecap="round" stroke-linejoin="round"/>
<path d="M73.7002 102.819L71.028 101.846L64.4829 99.2788L54.7233 95.3886L42.9499 90.6814L30.8279 85.7408L20.1775 81.3837L12.4319 78.1937L8.55902 76.5209" stroke="#63E0DB" stroke-linecap="round" stroke-linejoin="round"/>
<path d="M78.8511 93.1322L76.5661 91.4983L70.7956 87.4525L62.1591 81.4226L51.7024 74.1479L40.9359 66.6397L31.4475 60.0652L24.5151 55.2802L21.0295 52.8683" stroke="#63E0DB" stroke-linecap="round" stroke-linejoin="round"/>
<path d="M75.1719 99.4733L72.6158 98.2673L66.3031 95.194L56.8533 90.5647L45.4672 84.9238L33.7325 79.1663L23.392 74.0312L15.8787 70.2576L12.122 68.3514" stroke="#63E0DB" stroke-linecap="round" stroke-linejoin="round"/>
<path d="M76.9147 96.2444L74.4748 94.805L68.3944 91.226L59.332 85.8964L48.3718 79.4386L37.1019 72.7474L27.1487 66.8731L19.9065 62.6328L16.266 60.4543" stroke="#63E0DB" stroke-linecap="round" stroke-linejoin="round"/>
</g>
<defs>
<clipPath id="clip0">
<rect width="240" height="241" fill="white"/>
</clipPath>
</defs>
</svg>
