<svg width="374" height="376" viewBox="0 0 374 376" fill="none" xmlns="http://www.w3.org/2000/svg">
<g opacity="0.8">
<path d="M322.898 59.8378L331.987 70.3099L340.293 81.3874L347.757 93.1307L354.318 105.358L359.915 118.01L364.61 131.085L368.282 144.462L370.99 158.022L372.676 171.763L373.398 185.625L373.037 199.426L371.713 213.228L369.365 226.847L365.995 240.225L361.661 253.3L356.424 266.073L350.285 278.361L343.182 290.165L335.298 301.424L326.63 312.077L317.18 322.065L307.068 331.327L296.294 339.801L284.978 347.429L273.121 354.208L260.782 360.14L248.021 365.104L235.02 369.099L221.718 372.186L208.236 374.245L194.633 375.274L181.03 375.395L167.426 374.426L153.944 372.489L140.582 369.584L127.52 365.709L114.76 360.867L102.421 355.056L90.5031 348.397L79.1272 340.83L68.2929 332.477L58.1207 323.337L48.6106 313.47L39.8228 302.937L31.8777 291.738L24.7752 279.995L18.5154 267.768L13.1585 255.056L8.76456 242.041L5.33371 228.663L2.8659 215.044L1.42133 201.303L1 187.501L1.6019 173.639L3.16685 159.898L5.81523 146.278L9.42666 132.901L14.0011 119.765L19.5386 107.053L25.979 94.7651L33.3824 82.9612L41.5683 71.7627L50.5969 61.23L60.4079 51.3027L70.8811 42.2228L82.0163 33.8692L93.7534 26.4237L106.032 19.8862L118.732 14.2567L131.794 9.53511L145.216 5.90315L158.879 3.23971L172.663 1.60533L186.507 1L200.411 1.42373L214.255 2.93705L227.918 5.47942L241.34 8.99031L254.462 13.5303L267.222 19.0387L279.501 25.4552L291.298 32.8402L302.494 41.0121L313.027 50.0315L322.898 59.8378Z" stroke="#63E0DB" stroke-linecap="round" stroke-linejoin="round"/>
<path d="M319.347 64.2567L328.195 74.4262L336.261 85.201L343.483 96.5206L349.803 108.385L355.281 120.673L359.795 133.324L363.406 146.278L365.995 159.414L367.68 172.731L368.342 186.169L367.981 199.547L366.717 212.925L364.43 226.121L361.179 239.075L357.026 251.787L351.91 264.136L345.951 276.061L339.09 287.562L331.445 298.458L323.019 308.748L313.93 318.433L304.119 327.392L293.646 335.625L282.631 343.01L271.135 349.608L259.217 355.358L246.878 360.14L234.238 364.075L221.357 367.041L208.236 369.039L195.054 370.068L181.872 370.128L168.69 369.22L155.629 367.344L142.688 364.499L130.048 360.746L117.649 356.024L105.671 350.455L94.1145 343.978L83.0997 336.654L72.5663 328.542L62.6951 319.705L53.486 310.14L44.9991 299.91L37.2948 289.075L30.4331 277.634L24.3538 265.77L19.1774 253.482L14.9039 240.831L11.5935 227.877L9.18584 214.68L7.80146 201.363L7.38013 187.985L7.98203 174.608L9.54698 161.23L12.075 148.034L15.566 135.08L20.0201 122.368L25.3771 110.019L31.6369 98.155L38.7995 86.7143L46.7447 75.8789L55.5325 65.5884L64.9824 56.0242L75.1545 47.1864L85.9888 39.1356L97.3046 31.9322L109.222 25.5763L121.501 20.1283L134.201 15.5884L147.202 12.017L160.444 9.41405L173.807 7.8402L187.229 7.29541L200.712 7.71914L214.074 9.17192L227.316 11.5932L240.317 15.0436L253.017 19.4019L265.416 24.7288L277.334 30.9637L288.71 38.1065L299.605 46.0363L309.837 54.8136L319.347 64.2567Z" stroke="#63E0DB" stroke-linecap="round" stroke-linejoin="round"/>
<path d="M301.952 64.4384L310.86 73.2156L319.106 82.7192L326.57 92.7071L333.311 103.3L339.21 114.317L344.326 125.758L348.539 137.562L351.91 149.608L354.378 161.896L355.883 174.305L356.545 186.775L356.244 199.245L355.04 211.714L352.933 224.003L349.924 236.109L346.011 247.913L341.256 259.475L335.719 270.552L329.339 281.266L322.236 291.436L314.411 301.061L305.864 310.08L296.715 318.434L287.025 326.061L276.732 333.022L266.018 339.136L254.883 344.463L243.387 349.003L231.589 352.634L219.551 355.358L207.393 357.235L195.114 358.203L182.775 358.264L170.496 357.417L158.277 355.661L146.3 353.058L134.442 349.547L122.946 345.128L111.75 339.923L100.976 333.869L90.6837 327.09L80.9328 319.523L71.7237 311.23L63.1766 302.332L55.2315 292.768L48.0688 282.659L41.6285 272.065L35.9706 260.988L31.1553 249.487L27.1828 237.743L24.1131 225.637L21.9462 213.349L20.622 200.94L20.2609 188.47L20.8026 176L22.2471 163.53L24.5946 151.242L27.905 139.196L32.0582 127.332L37.054 115.891L42.8925 104.753L49.5736 94.1599L56.977 84.051L65.1027 74.4868L73.9507 65.5885L83.4608 57.356L93.5126 49.85L104.106 43.1309L115.121 37.1987L126.617 32.1745L138.415 27.9372L150.513 24.6079L162.852 22.2471L175.251 20.7338L187.831 20.2495L200.351 20.6127L212.81 21.9444L225.089 24.2447L237.247 27.4529L249.105 31.5086L260.601 36.4723L271.676 42.2834L282.33 48.8815L292.442 56.327L301.952 64.4384Z" stroke="#63E0DB" stroke-linecap="round" stroke-linejoin="round"/>
<path d="M290.395 77.8159L298.341 85.6852L305.744 94.1598L312.425 103.119L318.444 112.622L323.801 122.489L328.376 132.719L332.168 143.252L335.177 154.087L337.344 165.044L338.789 176.182L339.33 187.38L339.09 198.579L338.006 209.717L336.14 220.734L333.432 231.569L329.941 242.162L325.727 252.513L320.731 262.501L315.013 272.065L308.633 281.206L301.651 289.801L294.007 297.913L285.821 305.419L277.093 312.259L267.884 318.494L258.314 324.002L248.322 328.785L237.97 332.84L227.436 336.109L216.662 338.591L205.708 340.225L194.693 341.133L183.678 341.194L172.603 340.407L161.708 338.833L150.874 336.472L140.281 333.324L129.988 329.39L119.936 324.668L110.306 319.281L101.097 313.167L92.3088 306.387L84.0628 298.942L76.3584 290.952L69.3161 282.416L62.8757 273.337L57.0974 263.833L52.0415 253.906L47.7679 243.615L44.2167 233.022L41.4479 222.186L39.4617 211.169L38.318 200.092L38.0171 188.893L38.4986 177.695L39.8228 166.557L41.9295 155.54L44.8788 144.705L48.6106 134.111L53.1249 123.881L58.3615 113.893L64.3203 104.39L71.0014 95.3704L78.2845 86.8353L86.2296 78.845L94.7165 71.46L103.685 64.8014L113.195 58.7481L123.126 53.4818L133.359 48.9418L143.952 45.1283L154.786 42.2227L165.801 40.0435L176.937 38.7118L188.132 38.2275L199.388 38.5907L210.523 39.8014L221.538 41.8595L232.432 44.7045L243.026 48.3365L253.318 52.8159L263.25 57.9612L272.76 63.8934L281.848 70.552L290.395 77.8159Z" stroke="#63E0DB" stroke-linecap="round" stroke-linejoin="round"/>
<path d="M276.672 93.0701L283.594 99.8498L289.974 107.174L295.752 114.922L300.989 123.155L305.624 131.69L309.596 140.528L312.907 149.668L315.495 158.99L317.421 168.554L318.625 178.179L319.106 187.864L318.926 197.55L318.023 207.174L316.398 216.738L314.05 226.121L311.041 235.322L307.369 244.281L303.096 252.937L298.16 261.23L292.623 269.16L286.543 276.605L279.983 283.627L272.88 290.165L265.296 296.097L257.351 301.484L248.985 306.266L240.377 310.443L231.409 313.954L222.26 316.738L212.93 318.918L203.42 320.37L193.91 321.097L184.34 321.157L174.77 320.491L165.26 319.16L155.93 317.102L146.721 314.378L137.813 310.927L129.085 306.872L120.719 302.15L112.774 296.884L105.129 290.952L98.027 284.535L91.3458 277.574L85.2064 270.189L79.6689 262.32L74.6731 254.087L70.3394 245.491L66.6076 236.533L63.5379 227.392L61.1302 218.01L59.4449 208.506L58.4819 198.821L58.1809 189.136L58.6624 179.45L59.806 169.826L61.672 160.322L64.1999 150.939L67.4502 141.799L71.3626 132.84L75.8769 124.305L81.0533 116.073L86.8315 108.203L93.1515 100.818L100.013 93.9176L107.356 87.5616L115.181 81.811L123.367 76.6052L131.914 72.0047L140.822 68.0701L149.971 64.8013L159.361 62.259L168.871 60.3825L178.502 59.2929L188.192 58.8691L197.943 59.1718L207.574 60.2009L217.144 61.9563L226.533 64.4382L235.682 67.5859L244.591 71.3994L253.198 75.9394L261.444 81.0241L269.269 86.7747L276.672 93.0701Z" stroke="#63E0DB" stroke-linecap="round" stroke-linejoin="round"/>
<path d="M262.888 107.901L268.727 113.651L274.144 119.886L279.02 126.424L283.474 133.385L287.386 140.588L290.757 148.094L293.525 155.843L295.752 163.712L297.378 171.763L298.461 179.935L298.882 188.107L298.702 196.339L297.919 204.511L296.595 212.622L294.609 220.552L292.081 228.361L288.951 235.927L285.34 243.252L281.186 250.334L276.492 257.053L271.375 263.409L265.778 269.341L259.759 274.85L253.318 279.874L246.577 284.475L239.535 288.53L232.191 292.041L224.607 295.007L216.843 297.429L208.958 299.245L200.892 300.516L192.827 301.121L184.701 301.182L176.575 300.637L168.57 299.487L160.625 297.731L152.86 295.37L145.276 292.465L137.873 289.015L130.831 285.08L124.029 280.54L117.589 275.576L111.57 270.128L105.912 264.196L100.736 257.901L96.0407 251.242L91.8273 244.281L88.0955 236.956L84.9656 229.39L82.3774 221.642L80.331 213.712L78.9466 205.6L78.1039 197.429L77.8632 189.257L78.2845 181.024L79.2475 172.913L80.8125 164.801L82.9793 156.872L85.7481 149.123L89.0586 141.617L92.9108 134.353L97.3047 127.392L102.18 120.734L107.537 114.499L113.376 108.688L119.575 103.3L126.196 98.3971L133.118 93.9782L140.401 90.1041L147.925 86.7748L155.629 84.0508L163.574 81.8717L171.64 80.2978L179.826 79.3293L188.012 79.0266L196.197 79.2687L204.383 80.1767L212.449 81.6295L220.394 83.7482L228.159 86.4116L235.682 89.6198L242.965 93.4334L249.948 97.7312L256.629 102.574L262.888 107.901Z" stroke="#63E0DB" stroke-linecap="round" stroke-linejoin="round"/>
<path d="M250.911 120.31L255.846 125.213L260.421 130.419L264.634 135.988L268.366 141.86L271.676 147.973L274.565 154.329L276.913 160.867L278.839 167.525L280.223 174.366L281.066 181.266L281.487 188.228L281.307 195.189L280.705 202.09L279.501 208.93L277.876 215.709L275.709 222.308L273.121 228.724L270.051 234.959L266.5 240.891L262.527 246.581L258.194 251.969L253.439 257.053L248.322 261.714L242.905 266.012L237.187 269.886L231.228 273.337L225.029 276.303L218.588 278.845L212.028 280.903L205.286 282.416L198.485 283.446L191.623 283.99L184.761 284.051L177.9 283.567L171.038 282.598L164.357 281.085L157.736 279.148L151.295 276.666L145.036 273.76L139.077 270.37L133.299 266.557L127.881 262.32L122.765 257.719L117.95 252.695L113.556 247.368L109.584 241.678L106.032 235.746L102.902 229.571L100.254 223.216L98.027 216.617L96.3416 209.898L95.1378 203.058L94.4758 196.097L94.235 189.136L94.5961 182.235L95.4388 175.274L96.763 168.494L98.6289 161.775L100.916 155.177L103.745 148.821L106.995 142.647L110.727 136.775L114.88 131.145L119.395 125.879L124.33 120.976L129.627 116.375L135.225 112.259L141.063 108.506L147.203 105.237L153.583 102.453L160.143 100.092L166.885 98.276L173.686 96.9443L180.608 96.1574L187.53 95.8547L194.512 96.0969L201.374 96.8233L208.236 98.0944L214.977 99.8499L221.538 102.09L227.918 104.814L234.057 108.022L240.016 111.714L245.614 115.831L250.911 120.31Z" stroke="#63E0DB" stroke-linecap="round" stroke-linejoin="round"/>
<path d="M242.364 128.663L246.697 132.901L250.73 137.501L254.341 142.344L257.652 147.489L260.541 152.816L263.069 158.385L265.115 164.136L266.801 170.007L268.005 175.939L268.787 181.993L269.148 188.046L269.028 194.16L268.426 200.213L267.463 206.206L266.018 212.138L264.152 217.949L261.865 223.579L259.157 229.027L256.027 234.232L252.596 239.196L248.804 243.918L244.651 248.337L240.197 252.453L235.442 256.206L230.446 259.596L225.149 262.622L219.732 265.225L214.134 267.465L208.356 269.22L202.457 270.613L196.498 271.521L190.479 272.005H184.46L178.441 271.642L172.482 270.734L166.584 269.463L160.806 267.707L155.148 265.588L149.73 262.986L144.434 260.019L139.438 256.69L134.623 252.998L130.169 248.942L125.955 244.523L122.103 239.862L118.612 234.898L115.482 229.753L112.774 224.305L110.426 218.676L108.56 212.925L107.055 207.053L106.032 201.061L105.43 195.007L105.25 188.893L105.551 182.84L106.273 176.787L107.477 170.794L109.042 164.923L111.088 159.172L113.556 153.603L116.445 148.216L119.695 143.07L123.307 138.167L127.279 133.506L131.613 129.208L136.188 125.213L141.123 121.581L146.239 118.373L151.657 115.467L157.194 113.046L162.912 110.988L168.811 109.414L174.77 108.264L180.849 107.538L186.928 107.295L193.007 107.477L199.026 108.082L204.985 109.232L210.884 110.746L216.662 112.743L222.2 115.104L227.617 117.949L232.793 121.157L237.729 124.729L242.364 128.663Z" stroke="#63E0DB" stroke-linecap="round" stroke-linejoin="round"/>
<path d="M244.109 240.044L248.804 243.918L258.194 251.969L271.375 263.409L286.543 276.605L301.651 289.801L314.411 301.061L323.019 308.748L326.63 312.077" stroke="#63E0DB" stroke-linecap="round" stroke-linejoin="round"/>
<path d="M261.564 204.753L267.463 206.206L279.501 208.93L296.595 212.622L316.398 216.738L336.14 220.734L352.933 224.002L364.43 226.121L369.365 226.847" stroke="#63E0DB" stroke-linecap="round" stroke-linejoin="round"/>
<path d="M240.257 244.16L244.651 248.337L253.439 257.053L265.778 269.341L279.983 283.627L294.007 297.913L305.864 310.08L313.93 318.433L317.18 322.065" stroke="#63E0DB" stroke-linecap="round" stroke-linejoin="round"/>
<path d="M262.527 199.124L268.426 200.213L280.705 202.09L297.919 204.511L318.023 207.174L338.006 209.717L355.04 211.714L366.717 212.925L371.713 213.228" stroke="#63E0DB" stroke-linecap="round" stroke-linejoin="round"/>
<path d="M236.044 248.034L240.197 252.453L248.322 261.714L259.759 274.85L272.88 290.165L285.821 305.419L296.715 318.433L304.119 327.392L307.068 331.327" stroke="#63E0DB" stroke-linecap="round" stroke-linejoin="round"/>
<path d="M263.069 193.433L269.028 194.16L281.307 195.189L298.702 196.339L318.926 197.55L339.09 198.579L356.244 199.244L367.981 199.547L373.037 199.426" stroke="#63E0DB" stroke-linecap="round" stroke-linejoin="round"/>
<path d="M231.65 251.545L235.442 256.206L242.905 266.012L253.318 279.874L265.296 296.097L277.093 312.259L287.025 326.061L293.646 335.625L296.294 339.802" stroke="#63E0DB" stroke-linecap="round" stroke-linejoin="round"/>
<path d="M263.189 187.743L269.148 188.046L281.487 188.228L298.882 188.107L319.106 187.864L339.33 187.38L356.545 186.775L368.342 186.17L373.398 185.625" stroke="#63E0DB" stroke-linecap="round" stroke-linejoin="round"/>
<path d="M226.955 254.753L230.446 259.596L237.187 269.886L246.577 284.475L257.351 301.484L267.884 318.494L276.732 333.022L282.631 343.01L284.978 347.429" stroke="#63E0DB" stroke-linecap="round" stroke-linejoin="round"/>
<path d="M262.828 182.053L268.787 181.993L281.066 181.266L298.461 179.935L318.625 178.179L338.789 176.182L355.883 174.305L367.68 172.731L372.676 171.763" stroke="#63E0DB" stroke-linecap="round" stroke-linejoin="round"/>
<path d="M222.019 257.538L225.149 262.622L231.228 273.337L239.535 288.53L248.985 306.266L258.314 324.002L266.018 339.136L271.135 349.608L273.121 354.208" stroke="#63E0DB" stroke-linecap="round" stroke-linejoin="round"/>
<path d="M262.106 176.424L268.005 175.939L280.223 174.366L297.378 171.763L317.421 168.554L337.344 165.044L354.378 161.896L365.995 159.414L370.99 158.022" stroke="#63E0DB" stroke-linecap="round" stroke-linejoin="round"/>
<path d="M216.903 260.019L219.732 265.225L225.029 276.303L232.191 292.041L240.377 310.443L248.322 328.785L254.883 344.463L259.217 355.358L260.782 360.14" stroke="#63E0DB" stroke-linecap="round" stroke-linejoin="round"/>
<path d="M260.962 170.794L266.801 170.007L278.839 167.525L295.752 163.712L315.495 158.99L335.177 154.087L351.91 149.608L363.406 146.278L368.282 144.462" stroke="#63E0DB" stroke-linecap="round" stroke-linejoin="round"/>
<path d="M211.667 262.077L214.134 267.465L218.588 278.845L224.607 295.007L231.409 313.954L237.97 332.84L243.387 349.002L246.878 360.14L248.022 365.104" stroke="#63E0DB" stroke-linecap="round" stroke-linejoin="round"/>
<path d="M259.397 165.346L265.116 164.136L276.913 160.867L293.525 155.843L312.907 149.668L332.168 143.252L348.539 137.562L359.795 133.324L364.61 131.085" stroke="#63E0DB" stroke-linecap="round" stroke-linejoin="round"/>
<path d="M206.249 263.772L208.356 269.22L212.028 280.903L216.843 297.429L222.26 316.739L227.436 336.109L231.589 352.634L234.238 364.075L235.02 369.099" stroke="#63E0DB" stroke-linecap="round" stroke-linejoin="round"/>
<path d="M257.471 159.959L263.069 158.385L274.565 154.329L290.757 148.094L309.596 140.528L328.376 132.719L344.326 125.758L355.281 120.673L359.915 118.01" stroke="#63E0DB" stroke-linecap="round" stroke-linejoin="round"/>
<path d="M200.772 265.044L202.457 270.613L205.286 282.416L208.958 299.245L212.93 318.918L216.662 338.591L219.551 355.358L221.357 367.041L221.718 372.186" stroke="#63E0DB" stroke-linecap="round" stroke-linejoin="round"/>
<path d="M255.124 154.753L260.541 152.816L271.676 147.973L287.386 140.588L305.624 131.69L323.801 122.489L339.21 114.317L349.803 108.385L354.318 105.358" stroke="#63E0DB" stroke-linecap="round" stroke-linejoin="round"/>
<path d="M195.174 265.891L196.498 271.521L198.485 283.446L200.892 300.516L203.42 320.37L205.708 340.225L207.393 357.235L208.236 369.039V374.245" stroke="#63E0DB" stroke-linecap="round" stroke-linejoin="round"/>
<path d="M252.415 149.729L257.652 147.489L268.366 141.86L283.474 133.385L300.989 123.155L318.444 112.622L333.311 103.3L343.483 96.5207L347.757 93.1309" stroke="#63E0DB" stroke-linecap="round" stroke-linejoin="round"/>
<path d="M189.516 266.315L190.479 272.005L191.623 283.99L192.827 301.121L193.91 321.097L194.693 341.133L195.114 358.203L195.054 370.068L194.633 375.273" stroke="#63E0DB" stroke-linecap="round" stroke-linejoin="round"/>
<path d="M242.123 136.109L245.915 140.407L249.346 144.947L252.415 149.729L255.124 154.753L257.471 159.959L259.397 165.346L260.962 170.794L262.106 176.424L262.828 182.053L263.189 187.743L263.069 193.433L262.527 199.123L261.564 204.753L260.24 210.261L258.495 215.709L256.328 220.976L253.8 226.06L250.911 230.964L247.72 235.625L244.109 240.043L240.257 244.16L236.044 248.034L231.65 251.545L226.955 254.753L222.019 257.537L216.903 260.019L211.666 262.077L206.249 263.772L200.772 265.044L195.174 265.891L189.516 266.315L183.919 266.375L178.261 265.951L172.663 265.165L167.186 263.954L161.769 262.32L156.472 260.322L151.356 257.901L146.42 255.116L141.725 252.029L137.271 248.518L133.058 244.705L129.145 240.649L125.534 236.23L122.284 231.629L119.334 226.726L116.806 221.702L114.579 216.436L112.834 211.048L111.449 205.479L110.426 199.91L109.884 194.22L109.764 188.53L110.005 182.84L110.727 177.15L111.811 171.581L113.315 166.073L115.241 160.685L117.529 155.479L120.237 150.455L123.247 145.613L126.678 141.012L130.409 136.714L134.442 132.659L138.716 128.905L143.35 125.516L148.166 122.489L153.161 119.826L158.398 117.525L163.755 115.588L169.232 114.136L174.83 113.046L180.488 112.38L186.206 112.138L191.864 112.32L197.522 112.925L203.119 113.954L208.657 115.407L214.014 117.223L219.25 119.462L224.306 122.126L229.122 125.092L233.756 128.421L238.09 132.114L242.123 136.109Z" stroke="#63E0DB" stroke-linecap="round" stroke-linejoin="round"/>
<path d="M183.919 266.375L184.46 272.005L184.761 284.051L184.701 301.182L184.34 321.157L183.678 341.194L182.775 358.264L181.872 370.128L181.03 375.395" stroke="#63E0DB" stroke-linecap="round" stroke-linejoin="round"/>
<path d="M249.346 144.947L254.341 142.344L264.634 135.988L279.02 126.424L295.752 114.923L312.425 103.119L326.57 92.7071L336.261 85.201L340.293 81.3875" stroke="#63E0DB" stroke-linecap="round" stroke-linejoin="round"/>
<path d="M178.261 265.952L178.441 271.642L177.9 283.567L176.575 300.637L174.77 320.491L172.603 340.407L170.496 357.416L168.691 369.22L167.427 374.426" stroke="#63E0DB" stroke-linecap="round" stroke-linejoin="round"/>
<path d="M245.915 140.407L250.73 137.501L260.421 130.419L274.144 119.886L289.974 107.174L305.744 94.1599L319.106 82.7193L328.195 74.4263L331.987 70.3101" stroke="#63E0DB" stroke-linecap="round" stroke-linejoin="round"/>
<path d="M172.663 265.165L172.483 270.734L171.038 282.598L168.57 299.487L165.26 319.16L161.708 338.833L158.278 355.661L155.629 367.344L153.944 372.489" stroke="#63E0DB" stroke-linecap="round" stroke-linejoin="round"/>
<path d="M242.123 136.109L246.697 132.901L255.846 125.213L268.727 113.651L283.594 99.85L298.341 85.6853L310.86 73.2156L319.347 64.2568L322.898 59.8379" stroke="#63E0DB" stroke-linecap="round" stroke-linejoin="round"/>
<path d="M167.186 263.954L166.584 269.463L164.357 281.085L160.625 297.731L155.93 317.102L150.874 336.472L146.3 353.058L142.688 364.499L140.582 369.584" stroke="#63E0DB" stroke-linecap="round" stroke-linejoin="round"/>
<path d="M238.09 132.114L242.364 128.663L250.911 120.31L262.889 107.901L276.672 93.0702L290.396 77.816L301.952 64.4383L309.837 54.8136L313.027 50.0315" stroke="#63E0DB" stroke-linecap="round" stroke-linejoin="round"/>
<path d="M161.769 262.32L160.806 267.707L157.736 279.148L152.86 295.37L146.721 314.378L140.281 333.324L134.442 349.547L130.048 360.746L127.52 365.709" stroke="#63E0DB" stroke-linecap="round" stroke-linejoin="round"/>
<path d="M233.756 128.421L237.729 124.729L245.614 115.831L256.629 102.574L269.269 86.7749L281.848 70.5522L292.442 56.327L299.605 46.0364L302.494 41.0122" stroke="#63E0DB" stroke-linecap="round" stroke-linejoin="round"/>
<path d="M156.472 260.322L155.148 265.588L151.295 276.666L145.276 292.465L137.813 310.927L129.988 329.39L122.946 345.128L117.649 356.024L114.76 360.867" stroke="#63E0DB" stroke-linecap="round" stroke-linejoin="round"/>
<path d="M229.122 125.092L232.793 121.157L240.016 111.714L249.948 97.7311L261.444 81.0241L272.76 63.8934L282.33 48.8813L288.71 38.1064L291.298 32.8401" stroke="#63E0DB" stroke-linecap="round" stroke-linejoin="round"/>
<path d="M151.356 257.901L149.731 262.985L145.036 273.76L137.873 289.015L129.085 306.872L119.936 324.668L111.75 339.923L105.671 350.455L102.421 355.056" stroke="#63E0DB" stroke-linecap="round" stroke-linejoin="round"/>
<path d="M224.306 122.126L227.617 117.949L234.057 108.022L242.965 93.4335L253.198 75.9396L263.25 57.9614L271.676 42.2834L277.334 30.9638L279.501 25.4553" stroke="#63E0DB" stroke-linecap="round" stroke-linejoin="round"/>
<path d="M146.42 255.116L144.434 260.019L139.077 270.37L130.831 285.08L120.719 302.15L110.306 319.281L100.976 333.869L94.1145 343.978L90.5031 348.397" stroke="#63E0DB" stroke-linecap="round" stroke-linejoin="round"/>
<path d="M219.25 119.463L222.2 115.104L227.918 104.814L235.682 89.6199L244.591 71.3996L253.318 52.8161L260.601 36.4722L265.417 24.7289L267.222 19.0388" stroke="#63E0DB" stroke-linecap="round" stroke-linejoin="round"/>
<path d="M141.725 252.029L139.438 256.69L133.299 266.557L124.029 280.54L112.774 296.884L101.097 313.167L90.6838 327.09L83.0998 336.654L79.1272 340.83" stroke="#63E0DB" stroke-linecap="round" stroke-linejoin="round"/>
<path d="M214.014 117.223L216.662 112.743L221.538 102.09L228.159 86.4116L235.682 67.586L243.026 48.3366L249.105 31.5085L253.017 19.4019L254.462 13.5303" stroke="#63E0DB" stroke-linecap="round" stroke-linejoin="round"/>
<path d="M137.271 248.518L134.623 252.998L127.881 262.32L117.589 275.576L105.13 290.952L92.3089 306.387L80.933 319.523L72.5665 328.542L68.293 332.477" stroke="#63E0DB" stroke-linecap="round" stroke-linejoin="round"/>
<path d="M208.657 115.407L210.884 110.746L214.977 99.8498L220.394 83.7481L226.534 64.4382L232.432 44.7045L237.247 27.4527L240.317 15.0435L241.34 8.99023" stroke="#63E0DB" stroke-linecap="round" stroke-linejoin="round"/>
<path d="M133.058 244.705L130.169 248.942L122.765 257.719L111.57 270.128L98.027 284.535L84.0628 298.942L71.7238 311.23L62.6952 319.705L58.1207 323.337" stroke="#63E0DB" stroke-linecap="round" stroke-linejoin="round"/>
<path d="M203.119 113.954L204.985 109.233L208.236 98.0945L212.449 81.6296L217.144 61.9565L221.538 41.8596L225.089 24.2446L227.316 11.5933L227.918 5.47949" stroke="#63E0DB" stroke-linecap="round" stroke-linejoin="round"/>
<path d="M129.145 240.649L125.955 244.523L117.95 252.695L105.912 264.196L91.3458 277.574L76.3584 290.952L63.1767 302.332L53.486 310.141L48.6106 313.47" stroke="#63E0DB" stroke-linecap="round" stroke-linejoin="round"/>
<path d="M197.522 112.925L199.026 108.082L201.374 96.8232L204.383 80.1767L207.574 60.2009L210.523 39.8014L212.81 21.9443L214.074 9.17188L214.255 2.93701" stroke="#63E0DB" stroke-linecap="round" stroke-linejoin="round"/>
<path d="M125.534 236.23L122.103 239.862L113.556 247.368L100.735 257.901L85.2063 270.189L69.3161 282.416L55.2315 292.768L44.9991 299.91L39.8228 302.937" stroke="#63E0DB" stroke-linecap="round" stroke-linejoin="round"/>
<path d="M365.995 240.225L361.179 239.075L349.924 236.109L333.432 231.569L314.05 226.121L294.609 220.552L277.876 215.709L266.018 212.138L260.24 210.261" stroke="#63E0DB" stroke-linecap="round" stroke-linejoin="round"/>
<path d="M191.864 112.32L193.007 107.477L194.512 96.097L196.197 79.2689L197.943 59.172L199.388 38.5909L200.351 20.6127L200.712 7.71923L200.411 1.42383" stroke="#63E0DB" stroke-linecap="round" stroke-linejoin="round"/>
<path d="M361.661 253.3L357.026 251.787L346.011 247.913L329.941 242.162L311.041 235.322L292.081 228.361L275.709 222.308L264.153 217.949L258.495 215.709" stroke="#63E0DB" stroke-linecap="round" stroke-linejoin="round"/>
<path d="M122.284 231.63L118.612 234.898L109.583 241.678L96.0407 251.242L79.6689 262.32L62.8757 273.337L48.0689 282.659L37.2948 289.075L31.8777 291.739" stroke="#63E0DB" stroke-linecap="round" stroke-linejoin="round"/>
<path d="M356.424 266.073L351.91 264.136L341.256 259.475L325.727 252.513L307.369 244.281L288.951 235.927L273.121 228.724L261.865 223.579L256.328 220.976" stroke="#63E0DB" stroke-linecap="round" stroke-linejoin="round"/>
<path d="M350.285 278.361L345.951 276.061L335.719 270.552L320.732 262.501L303.096 252.937L285.34 243.252L270.051 234.959L259.157 229.027L253.8 226.061" stroke="#63E0DB" stroke-linecap="round" stroke-linejoin="round"/>
<path d="M343.183 290.165L339.09 287.562L329.339 281.266L315.013 272.065L298.16 261.23L281.186 250.334L266.5 240.891L256.027 234.232L250.911 230.964" stroke="#63E0DB" stroke-linecap="round" stroke-linejoin="round"/>
<path d="M186.206 112.138L186.928 107.295L187.53 95.8547L188.012 79.0266L188.192 58.8692L188.132 38.2276L187.831 20.2494L187.229 7.2954L186.507 1" stroke="#63E0DB" stroke-linecap="round" stroke-linejoin="round"/>
<path d="M335.298 301.424L331.445 298.458L322.236 291.436L308.633 281.206L292.623 269.16L276.491 257.053L262.527 246.581L252.596 239.196L247.72 235.625" stroke="#63E0DB" stroke-linecap="round" stroke-linejoin="round"/>
<path d="M119.334 226.726L115.482 229.753L106.032 235.746L91.8274 244.281L74.6731 254.087L57.0975 263.833L41.6286 272.065L30.4332 277.634L24.7753 279.995" stroke="#63E0DB" stroke-linecap="round" stroke-linejoin="round"/>
<path d="M180.488 112.38L180.849 107.537L180.608 96.1573L179.826 79.3292L178.502 59.2929L176.937 38.7118L175.251 20.7335L173.807 7.84009L172.663 1.60522" stroke="#63E0DB" stroke-linecap="round" stroke-linejoin="round"/>
<path d="M116.806 221.702L112.774 224.305L102.902 229.571L88.0955 236.956L70.3393 245.491L52.0415 253.906L35.9706 260.988L24.3539 265.77L18.5154 267.768" stroke="#63E0DB" stroke-linecap="round" stroke-linejoin="round"/>
<path d="M174.83 113.046L174.77 108.264L173.686 96.9443L171.64 80.2979L168.871 60.3826L165.801 40.0436L162.852 22.247L160.444 9.41408L158.88 3.23975" stroke="#63E0DB" stroke-linecap="round" stroke-linejoin="round"/>
<path d="M114.579 216.436L110.426 218.676L100.254 223.215L84.9656 229.39L66.6075 236.533L47.7679 243.615L31.1554 249.487L19.1775 253.482L13.1584 255.056" stroke="#63E0DB" stroke-linecap="round" stroke-linejoin="round"/>
<path d="M169.232 114.136L168.811 109.414L166.885 98.276L163.574 81.8716L159.361 62.259L154.787 42.2227L150.513 24.6077L147.203 12.0169L145.216 5.90308" stroke="#63E0DB" stroke-linecap="round" stroke-linejoin="round"/>
<path d="M112.834 211.048L108.56 212.925L98.0269 216.617L82.3774 221.642L63.5378 227.392L44.2167 233.022L27.1828 237.743L14.9039 240.83L8.76453 242.041" stroke="#63E0DB" stroke-linecap="round" stroke-linejoin="round"/>
<path d="M163.755 115.588L162.912 110.988L160.144 100.092L155.629 84.0509L149.971 64.8015L143.952 45.1284L138.415 27.9371L134.201 15.5884L131.794 9.53516" stroke="#63E0DB" stroke-linecap="round" stroke-linejoin="round"/>
<path d="M111.449 205.479L107.056 207.053L96.3416 209.898L80.331 213.712L61.1303 218.01L41.448 222.187L24.1131 225.637L11.5935 227.877L5.33374 228.664" stroke="#63E0DB" stroke-linecap="round" stroke-linejoin="round"/>
<path d="M158.398 117.525L157.194 113.046L153.583 102.453L147.925 86.7747L140.822 68.0701L133.359 48.9418L126.617 32.1743L121.501 20.1283L118.732 14.2566" stroke="#63E0DB" stroke-linecap="round" stroke-linejoin="round"/>
<path d="M110.426 199.91L106.032 201.061L95.1378 203.058L78.9465 205.6L59.4448 208.506L39.4616 211.17L21.9462 213.349L9.18584 214.68L2.86584 215.044" stroke="#63E0DB" stroke-linecap="round" stroke-linejoin="round"/>
<path d="M153.161 119.826L151.657 115.467L147.202 105.237L140.401 90.1041L131.914 72.0049L123.126 53.4819L115.121 37.1986L109.222 25.5763L106.032 19.8862" stroke="#63E0DB" stroke-linecap="round" stroke-linejoin="round"/>
<path d="M109.885 194.22L105.43 195.007L94.4758 196.097L78.104 197.428L58.4819 198.821L38.3181 200.092L20.6221 200.939L7.80157 201.363L1.42139 201.303" stroke="#63E0DB" stroke-linecap="round" stroke-linejoin="round"/>
<path d="M148.166 122.489L146.239 118.373L141.063 108.506L133.118 93.9783L123.367 76.6054L113.195 58.7483L104.106 43.1308L97.3046 31.9323L93.7534 26.4238" stroke="#63E0DB" stroke-linecap="round" stroke-linejoin="round"/>
<path d="M109.764 188.53L105.25 188.893L94.235 189.136L77.8632 189.257L58.1809 189.136L38.0171 188.893L20.2609 188.47L7.38018 187.985L1 187.501" stroke="#63E0DB" stroke-linecap="round" stroke-linejoin="round"/>
<path d="M143.35 125.516L141.123 121.581L135.225 112.259L126.196 98.3972L115.181 81.8113L103.685 64.8016L93.5127 49.85L85.9889 39.1357L82.0164 33.8694" stroke="#63E0DB" stroke-linecap="round" stroke-linejoin="round"/>
<path d="M110.005 182.84H105.551L94.5961 182.235L78.2845 181.024L58.6624 179.45L38.4986 177.695L20.8027 176L7.98211 174.608L1.60193 173.639" stroke="#63E0DB" stroke-linecap="round" stroke-linejoin="round"/>
<path d="M138.716 128.905L136.188 125.213L129.627 116.375L119.575 103.3L107.356 87.5616L94.7165 71.4599L83.4609 57.3558L75.1546 47.1863L70.8811 42.2227" stroke="#63E0DB" stroke-linecap="round" stroke-linejoin="round"/>
<path d="M110.727 177.15L106.273 176.787L95.4388 175.274L79.2476 172.913L59.8061 169.826L39.8228 166.557L22.2472 163.53L9.54705 161.23L3.16687 159.898" stroke="#63E0DB" stroke-linecap="round" stroke-linejoin="round"/>
<path d="M134.442 132.659L131.613 129.208L124.33 120.976L113.376 108.688L100.013 93.9177L86.2297 78.8451L73.9508 65.5884L64.9824 56.0243L60.408 51.3027" stroke="#63E0DB" stroke-linecap="round" stroke-linejoin="round"/>
<path d="M111.81 171.581L107.477 170.794L96.7629 168.494L80.8124 164.801L61.6719 160.322L41.9294 155.54L24.5946 151.242L12.075 148.034L5.81519 146.278" stroke="#63E0DB" stroke-linecap="round" stroke-linejoin="round"/>
<path d="M130.409 136.714L127.28 133.506L119.395 125.879L107.537 114.499L93.1516 100.818L78.2845 86.8353L65.1028 74.4866L55.5325 65.5883L50.5969 61.23" stroke="#63E0DB" stroke-linecap="round" stroke-linejoin="round"/>
<path d="M113.315 166.073L109.042 164.922L98.6288 161.775L82.9793 156.872L64.1999 150.939L44.8788 144.705L27.9051 139.196L15.5661 135.08L9.42664 132.901" stroke="#63E0DB" stroke-linecap="round" stroke-linejoin="round"/>
<path d="M126.678 141.012L123.307 138.167L114.88 131.145L102.18 120.734L86.8316 108.203L71.0015 95.3704L56.9771 84.0508L46.7447 75.8789L41.5684 71.7627" stroke="#63E0DB" stroke-linecap="round" stroke-linejoin="round"/>
<path d="M115.241 160.685L111.088 159.172L100.916 155.177L85.7481 149.124L67.4502 141.799L48.6106 134.111L32.0582 127.332L20.0201 122.368L14.0011 119.765" stroke="#63E0DB" stroke-linecap="round" stroke-linejoin="round"/>
<path d="M123.247 145.613L119.695 143.07L110.727 136.775L97.3047 127.392L81.0533 116.073L64.3203 104.39L49.5737 94.1597L38.7996 86.7142L33.3824 82.9612" stroke="#63E0DB" stroke-linecap="round" stroke-linejoin="round"/>
<path d="M117.529 155.479L113.556 153.603L103.745 148.821L89.0586 141.617L71.3626 132.84L53.1249 123.881L37.0541 115.891L25.3772 110.019L19.5387 107.053" stroke="#63E0DB" stroke-linecap="round" stroke-linejoin="round"/>
<path d="M120.237 150.455L116.445 148.215L106.995 142.646L92.9107 134.354L75.8769 124.305L58.3614 113.893L42.8925 104.753L31.6369 98.155L25.979 94.7651" stroke="#63E0DB" stroke-linecap="round" stroke-linejoin="round"/>
</g>
</svg>
