<svg width="142" height="180" viewBox="0 0 142 180" fill="none" xmlns="http://www.w3.org/2000/svg">
<path d="M132.848 72.1454L133.144 72.2776C134.068 72.6899 134.917 73.1832 135.69 73.7501L135.986 73.3468C137.643 74.5611 138.971 76.1047 139.954 77.9123L139.514 78.1511C140.412 79.8017 141.014 81.6878 141.303 83.7603L141.798 83.6913C142.063 85.5891 142.069 87.631 141.807 89.7779L141.31 89.7173C141.082 91.59 140.645 93.5483 139.99 95.5653L140.466 95.7196C139.869 97.5576 139.096 99.4403 138.14 101.348L137.693 101.124C136.831 102.844 135.819 104.586 134.651 106.336L135.067 106.613C133.981 108.239 132.764 109.87 131.411 111.493L131.027 111.173C130.392 111.935 129.726 112.697 129.03 113.455L128.939 113.555L128.91 113.687C128.7 114.653 128.482 115.62 128.254 116.585L128.741 116.7C128.285 118.631 127.794 120.558 127.265 122.476L126.783 122.343C126.257 124.254 125.693 126.155 125.092 128.04L125.568 128.192C124.962 130.09 124.318 131.973 123.634 133.832L123.164 133.659C122.478 135.526 121.751 137.369 120.983 139.182L121.444 139.377C120.664 141.219 119.842 143.031 118.976 144.804L118.527 144.584C117.652 146.377 116.733 148.129 115.768 149.835L116.203 150.081C115.215 151.828 114.18 153.526 113.096 155.168L112.679 154.892C111.578 156.558 110.428 158.164 109.227 159.703L109.621 160.011C108.385 161.594 107.094 163.107 105.748 164.541L105.384 164.198C104.022 165.649 102.603 167.017 101.126 168.293L101.453 168.671C99.9395 169.978 98.3649 171.191 96.7275 172.299L96.4473 171.885C94.8165 172.988 93.1236 173.986 91.3668 174.869L91.5913 175.316C89.8255 176.204 87.9952 176.976 86.099 177.624L85.9373 177.151C84.1033 177.778 82.2067 178.287 80.2459 178.669L80.3415 179.16C78.4317 179.532 76.462 179.784 74.4312 179.909L74.4004 179.41C73.4315 179.47 72.4483 179.5 71.4506 179.5C70.4565 179.5 69.4773 179.47 68.5127 179.411L68.4821 179.91C66.4578 179.786 64.4962 179.534 62.5958 179.164L62.6913 178.674C60.7372 178.293 58.8489 177.786 57.0247 177.161L56.8626 177.634C54.9734 176.987 53.1518 176.214 51.3961 175.327L51.6216 174.881C49.8735 173.998 48.1909 172.999 46.5719 171.894L46.2901 172.307C44.6634 171.197 43.101 169.982 41.6012 168.672L41.9302 168.296C40.4667 167.017 39.0625 165.647 37.7161 164.193L37.3492 164.533C36.0185 163.096 34.7445 161.579 33.5257 159.993L33.9223 159.688C32.7385 158.147 31.6065 156.538 30.5251 154.869L30.1055 155.141C29.0402 153.497 28.0241 151.797 27.0559 150.048L27.4933 149.806C26.5487 148.099 25.6494 146.345 24.7944 144.552L24.3431 144.767C23.4978 142.994 22.6957 141.183 21.9357 139.34L22.3979 139.149C21.6506 137.338 20.9439 135.495 20.2767 133.629L19.8059 133.798C19.1419 131.941 18.517 130.06 17.9301 128.164L18.4078 128.016C17.8255 126.134 17.2806 124.236 16.772 122.329L16.2889 122.457C15.7786 120.543 15.3049 118.62 14.8664 116.693L15.3539 116.582C15.1347 115.619 14.9243 114.655 14.7226 113.691L14.6941 113.555L14.5997 113.453C13.8639 112.66 13.1576 111.868 12.4806 111.077L12.1007 111.402C10.6578 109.716 9.3462 108.035 8.16474 106.371L8.57247 106.081C7.28741 104.271 6.15863 102.481 5.1841 100.726L4.74698 100.969C3.64963 98.993 2.7447 97.0582 2.02994 95.1839L2.49712 95.0057C1.692 92.8944 1.13362 90.867 0.816008 88.9515L0.322743 89.0332C-0.0557427 86.7506 -0.100327 84.6148 0.183667 82.6716L0.678411 82.7439C0.996949 80.5644 1.73925 78.6516 2.88695 77.0629L2.48165 76.7701C3.69049 75.0968 5.33714 73.7569 7.41317 72.8229L7.61831 73.2789C8.51263 72.8766 9.49324 72.5506 10.5606 72.3087L10.9501 72.2204V71.8211C10.9501 70.8653 10.9691 69.9097 11.0068 68.9548L10.5071 68.9351C10.583 67.0119 10.734 65.092 10.9572 63.1808L11.4539 63.2388C11.6757 61.3394 11.9693 59.4485 12.3317 57.5716L11.8408 57.4768C12.2059 55.5862 12.6403 53.7099 13.1412 51.8533L13.6239 51.9835C14.1226 50.1349 14.6875 48.3059 15.3157 46.5019L14.8435 46.3375C15.4775 44.5167 16.1756 42.7214 16.9346 40.957L17.3939 41.1546C18.1516 39.3934 18.9704 37.6633 19.8473 35.9698L19.4033 35.7399C20.2911 34.0254 21.2381 32.3482 22.2412 30.7139L22.6673 30.9755C23.6719 29.3388 24.733 27.7457 25.8473 26.2019L25.4419 25.9093C26.5737 24.3413 27.7603 22.8238 28.9983 21.3628L29.3797 21.686C30.6217 20.2203 31.9155 18.8121 33.2578 17.4674L32.9039 17.1142C34.2707 15.745 35.6877 14.441 37.1513 13.2086L37.4734 13.5911C38.9422 12.3543 40.4581 11.1905 42.0173 10.1061L41.7318 9.69565C43.319 8.59179 44.9513 7.56931 46.6248 6.635L46.8685 7.07157C48.5389 6.139 50.2503 5.29533 51.9989 4.54735L51.8022 4.08764C53.5723 3.33046 55.3807 2.67021 57.2235 2.11391L57.368 2.59257C59.1869 2.04348 61.0394 1.59677 62.9217 1.25923L62.8334 0.76708C64.715 0.429671 66.6263 0.200195 68.5638 0.0853859L68.5934 0.58451C69.5396 0.528438 70.4921 0.5 71.4506 0.5C72.4133 0.5 73.3709 0.528695 74.3228 0.585273L74.3525 0.086154C76.2974 0.201759 78.219 0.432586 80.1131 0.771851L80.0249 1.26402C81.9153 1.60262 83.7784 2.0504 85.61 2.60056L85.7539 2.1217C87.6057 2.6779 89.4253 3.33761 91.2086 4.09386L91.0134 4.55418C92.773 5.30041 94.4975 6.14171 96.1827 7.07137L96.4242 6.63357C98.1109 7.56409 99.7581 8.58211 101.362 9.68088L101.079 10.0934C102.655 11.1727 104.188 12.3309 105.675 13.5615L105.994 13.1762C107.477 14.4026 108.913 15.7001 110.301 17.0623L109.951 17.4191C111.314 18.7579 112.63 20.16 113.895 21.6192L114.272 21.2918C115.534 22.7475 116.744 24.2594 117.9 25.8216L117.498 26.1189C118.637 27.6586 119.722 29.2476 120.751 30.8801L121.174 30.6135C122.203 32.2451 123.174 33.9199 124.086 35.632L123.645 35.867C124.547 37.5601 125.39 39.29 126.171 41.0511L126.628 40.8484C127.411 42.6146 128.132 44.412 128.787 46.2349L128.316 46.4041C128.966 48.212 129.551 50.0452 130.068 51.8981L130.55 51.7638C131.069 53.6268 131.52 55.5098 131.9 57.4071L131.409 57.5051C131.786 59.39 132.092 61.289 132.323 63.1965L132.819 63.1364C133.052 65.0572 133.209 66.9868 133.289 68.9198L132.789 68.9403C132.828 69.9 132.848 70.8605 132.848 71.8211V72.1454Z" fill="#63E0DB" stroke="#63E0DB" />
</svg>
