<svg width="108" height="108" viewBox="0 0 108 108" fill="none" xmlns="http://www.w3.org/2000/svg">
<g filter="url(#filter0_d)">
<path d="M73.8643 30.3799H34.1998C32.4198 30.3799 30.973 31.8553 30.973 33.6734V73.6615C30.973 75.4796 32.4198 76.955 34.1998 76.955C34.4949 76.955 64.2123 77.193 75.9394 77.212C76.4344 77.212 76.9103 77.0121 77.253 76.6599C77.6147 76.2982 77.8146 75.8032 77.8051 75.2892L77.1007 33.6162C77.0626 31.8267 75.6158 30.3799 73.8643 30.3799ZM34.1998 31.5221H73.8643C74.997 31.5221 75.9299 32.474 75.9489 33.6353L76.5676 70.2062L67.363 60.7446C66.4302 59.2502 64.4598 58.7837 62.9654 59.7166C62.6703 59.8974 62.4133 60.1259 62.1944 60.3924L57.9109 65.5135C57.4826 66.037 56.8258 66.3131 56.15 66.2559C55.4741 66.1988 54.865 65.8086 54.5318 65.2089L46.7931 51.8256C45.9269 50.293 43.9755 49.7505 42.4335 50.6167C42.0528 50.8356 41.7196 51.1307 41.4531 51.4829L32.1152 62.2676V33.6734C32.1152 32.4835 33.048 31.5221 34.1998 31.5221ZM76.4439 75.8603C76.3106 75.9936 76.1298 76.0697 75.9394 76.0697C64.2219 76.0507 34.5044 75.8127 34.1998 75.8127C33.048 75.8127 32.1152 74.8513 32.1152 73.6615V64.0095L42.3288 52.2158L42.3574 52.1873C43.0332 51.2735 44.3182 51.0736 45.232 51.7494C45.47 51.9207 45.6699 52.1492 45.8126 52.4062L53.5514 65.7895C54.4176 67.322 56.3689 67.8646 57.9109 66.9984C58.2441 66.808 58.5487 66.5605 58.7962 66.2559L63.0796 61.1349C63.803 60.2591 65.0976 60.1354 65.9733 60.8588C66.1637 61.0111 66.316 61.2015 66.4397 61.4014L66.4778 61.4585L76.6247 71.891L76.6819 75.3178C76.6628 75.5081 76.5867 75.708 76.4439 75.8603Z" fill="#63E0DB"/>
<path d="M57.1495 50.2265C59.9766 50.2265 62.2801 47.8753 62.2801 44.9912C62.2801 42.107 59.9766 39.7559 57.1495 39.7559C54.3225 39.7559 52.0189 42.107 52.0189 44.9912C52.0189 47.8753 54.3225 50.2265 57.1495 50.2265ZM57.1495 40.8981C59.3483 40.8981 61.1379 42.7352 61.1379 44.9912C61.1379 47.2471 59.3483 49.0842 57.1495 49.0842C54.9507 49.0842 53.1612 47.2471 53.1612 44.9912C53.1612 42.7352 54.9507 40.8981 57.1495 40.8981Z" fill="#63E0DB"/>
</g>
<defs>
<filter id="filter0_d" x="0.972961" y="0.379883" width="106.832" height="106.832" filterUnits="userSpaceOnUse" color-interpolation-filters="sRGB">
<feFlood flood-opacity="0" result="BackgroundImageFix"/>
<feColorMatrix in="SourceAlpha" type="matrix" values="0 0 0 0 0 0 0 0 0 0 0 0 0 0 0 0 0 0 127 0"/>
<feOffset/>
<feGaussianBlur stdDeviation="15"/>
<feColorMatrix type="matrix" values="0 0 0 0 0.388235 0 0 0 0 0.878431 0 0 0 0 0.858824 0 0 0 0.6 0"/>
<feBlend mode="normal" in2="BackgroundImageFix" result="effect1_dropShadow"/>
<feBlend mode="normal" in="SourceGraphic" in2="effect1_dropShadow" result="shape"/>
</filter>
</defs>
</svg>
