<svg width="48" height="61" viewBox="0 0 48 61" fill="none" xmlns="http://www.w3.org/2000/svg">
<path d="M46.8056 50.2347H45.6113V51.4476H46.8056V50.2347Z" fill="#F7FAF7"/>
<path d="M45.6115 51.4476H44.3982V52.6604H45.6115V51.4476Z" fill="#F7FAF7"/>
<path d="M45.6115 50.2347H44.3982V51.4476H45.6115V50.2347Z" fill="#F7FAF7"/>
<path d="M45.6115 49.0219H44.3982V50.2347H45.6115V49.0219Z" fill="#F7FAF7"/>
<path d="M45.6115 47.856H44.3982V49.0219H45.6115V47.856Z" fill="#F7FAF7"/>
<path d="M44.3979 51.4476H43.2036V52.6604H44.3979V51.4476Z" fill="#F7FAF7"/>
<path d="M44.3979 50.2347H43.2036V51.4476H44.3979V50.2347Z" fill="#F7FAF7"/>
<path d="M44.3979 49.0219H43.2036V50.2347H44.3979V49.0219Z" fill="#F7FAF7"/>
<path d="M44.3979 47.856H43.2036V49.0219H44.3979V47.856Z" fill="#F7FAF7"/>
<path d="M44.3979 46.6432H43.2036V47.856H44.3979V46.6432Z" fill="#F7FAF7"/>
<path d="M43.2038 51.4476H41.9905V52.6604H43.2038V51.4476Z" fill="#F7FAF7"/>
<path d="M43.2038 50.2347H41.9905V51.4476H43.2038V50.2347Z" fill="#F7FAF7"/>
<path d="M43.2038 49.0219H41.9905V50.2347H43.2038V49.0219Z" fill="#F7FAF7"/>
<path d="M43.2038 47.856H41.9905V49.0219H43.2038V47.856Z" fill="#F7FAF7"/>
<path d="M43.2038 46.6432H41.9905V47.856H43.2038V46.6432Z" fill="#F7FAF7"/>
<path d="M41.9905 51.4476H40.7961V52.6604H41.9905V51.4476Z" fill="#F7FAF7"/>
<path d="M41.9905 50.2347H40.7961V51.4476H41.9905V50.2347Z" fill="#F7FAF7"/>
<path d="M41.9905 49.0219H40.7961V50.2347H41.9905V49.0219Z" fill="#F7FAF7"/>
<path d="M41.9905 47.856H40.7961V49.0219H41.9905V47.856Z" fill="#F7FAF7"/>
<path d="M41.9905 46.6432H40.7961V47.856H41.9905V46.6432Z" fill="#F7FAF7"/>
<path d="M41.9905 40.6823H40.7961V41.8482H41.9905V40.6823Z" fill="#F7FAF7"/>
<path d="M41.9905 39.4695H40.7961V40.6823H41.9905V39.4695Z" fill="#F7FAF7"/>
<path d="M41.9905 38.2566H40.7961V39.4695H41.9905V38.2566Z" fill="#F7FAF7"/>
<path d="M41.9905 37.0908H40.7961V38.2566H41.9905V37.0908Z" fill="#070100"/>
<path d="M41.9905 35.8779H40.7961V37.0908H41.9905V35.8779Z" fill="#070100"/>
<path d="M41.9905 34.6745H40.7961V35.8873H41.9905V34.6745Z" fill="#F7FAF7"/>
<path d="M41.9905 33.4992H40.7961V34.6651H41.9905V33.4992Z" fill="#F7FAF7"/>
<path d="M40.7961 51.4476H39.6018V52.6604H40.7961V51.4476Z" fill="#F7FAF7"/>
<path d="M40.7961 50.2347H39.6018V51.4476H40.7961V50.2347Z" fill="#F7FAF7"/>
<path d="M40.7961 49.0219H39.6018V50.2347H40.7961V49.0219Z" fill="#F7FAF7"/>
<path d="M40.7961 47.856H39.6018V49.0219H40.7961V47.856Z" fill="#F7FAF7"/>
<path d="M40.7961 46.6432H39.6018V47.856H40.7961V46.6432Z" fill="#F7FAF7"/>
<path d="M40.7961 44.2645H39.6018V45.4303H40.7961V44.2645Z" fill="#F7FAF7"/>
<path d="M40.7961 43.061H39.6018V44.2739H40.7961V43.061Z" fill="#F7FAF7"/>
<path d="M40.7961 41.8482H39.6018V43.061H40.7961V41.8482Z" fill="#F7FAF7"/>
<path d="M40.7961 40.6823H39.6018V41.8482H40.7961V40.6823Z" fill="#F7FAF7"/>
<path d="M40.7961 39.4695H39.6018V40.6823H40.7961V39.4695Z" fill="#F7FAF7"/>
<path d="M40.7961 38.2566H39.6018V39.4695H40.7961V38.2566Z" fill="#070100"/>
<path d="M40.7961 37.0908H39.6018V38.2566H40.7961V37.0908Z" fill="#070100"/>
<path d="M40.7961 35.8779H39.6018V37.0908H40.7961V35.8779Z" fill="#070100"/>
<path d="M40.7961 34.6745H39.6018V35.8873H40.7961V34.6745Z" fill="#F7FAF7"/>
<path d="M40.7961 33.4992H39.6018V34.6651H40.7961V33.4992Z" fill="#F7FAF7"/>
<path d="M40.7961 32.2958H39.6018V33.5086H40.7961V32.2958Z" fill="#F7FAF7"/>
<path d="M40.7961 31.0829H39.6018V32.2958H40.7961V31.0829Z" fill="#F7FAF7"/>
<path d="M40.7961 29.9171H39.6018V31.0829H40.7961V29.9171Z" fill="#F7FAF7"/>
<path d="M40.7961 19.1518H39.6018V20.3177H40.7961V19.1518Z" fill="#F7FAF7"/>
<path d="M40.7961 17.939H39.6018V19.1518H40.7961V17.939Z" fill="#F7FAF7"/>
<path d="M40.7961 16.7261H39.6018V17.939H40.7961V16.7261Z" fill="#F7FAF7"/>
<path d="M40.7961 15.5603H39.6018V16.7261H40.7961V15.5603Z" fill="#F7FAF7"/>
<path d="M40.7961 14.3474H39.6018V15.5603H40.7961V14.3474Z" fill="#F7FAF7"/>
<path d="M39.6019 51.4476H38.3887V52.6604H39.6019V51.4476Z" fill="#F7FAF7"/>
<path d="M39.6019 50.2347H38.3887V51.4476H39.6019V50.2347Z" fill="#F7FAF7"/>
<path d="M39.6019 49.0219H38.3887V50.2347H39.6019V49.0219Z" fill="#F7FAF7"/>
<path d="M39.6019 47.856H38.3887V49.0219H39.6019V47.856Z" fill="#F7FAF7"/>
<path d="M39.6019 46.6432H38.3887V47.856H39.6019V46.6432Z" fill="#F7FAF7"/>
<path d="M39.6019 44.2645H38.3887V45.4303H39.6019V44.2645Z" fill="#F7FAF7"/>
<path d="M39.6019 43.061H38.3887V44.2739H39.6019V43.061Z" fill="#F7FAF7"/>
<path d="M39.6019 41.8482H38.3887V43.061H39.6019V41.8482Z" fill="#F7FAF7"/>
<path d="M39.6019 40.6823H38.3887V41.8482H39.6019V40.6823Z" fill="#F7FAF7"/>
<path d="M39.6019 39.4695H38.3887V40.6823H39.6019V39.4695Z" fill="#F7FAF7"/>
<path d="M39.6019 38.2566H38.3887V39.4695H39.6019V38.2566Z" fill="#070100"/>
<path d="M39.6019 37.0908H38.3887V38.2566H39.6019V37.0908Z" fill="#070100"/>
<path d="M39.6019 35.8779H38.3887V37.0908H39.6019V35.8779Z" fill="#070100"/>
<path d="M39.6019 34.6745H38.3887V35.8873H39.6019V34.6745Z" fill="#F7FAF7"/>
<path d="M39.6019 33.4992H38.3887V34.6651H39.6019V33.4992Z" fill="#F7FAF7"/>
<path d="M39.6019 32.2958H38.3887V33.5086H39.6019V32.2958Z" fill="#F7FAF7"/>
<path d="M39.6019 31.0829H38.3887V32.2958H39.6019V31.0829Z" fill="#F7FAF7"/>
<path d="M39.6019 29.9171H38.3887V31.0829H39.6019V29.9171Z" fill="#F7FAF7"/>
<path d="M39.6019 28.7042H38.3887V29.9171H39.6019V28.7042Z" fill="#F7FAF7"/>
<path d="M39.6019 27.4914H38.3887V28.7042H39.6019V27.4914Z" fill="#F7FAF7"/>
<path d="M39.6019 26.3255H38.3887V27.4914H39.6019V26.3255Z" fill="#F7FAF7"/>
<path d="M39.6019 21.5305H38.3887V22.7434H39.6019V21.5305Z" fill="#F7FAF7"/>
<path d="M39.6019 20.3177H38.3887V21.5305H39.6019V20.3177Z" fill="#F7FAF7"/>
<path d="M39.6019 14.3474H38.3887V15.5603H39.6019V14.3474Z" fill="#F7FAF7"/>
<path d="M39.6019 13.144H38.3887V14.3568H39.6019V13.144Z" fill="#F7FAF7"/>
<path d="M39.6019 11.9781H38.3887V13.144H39.6019V11.9781Z" fill="#F7FAF7"/>
<path d="M38.3982 51.4476H37.2039V52.6604H38.3982V51.4476Z" fill="#F7FAF7"/>
<path d="M38.3982 50.2347H37.2039V51.4476H38.3982V50.2347Z" fill="#F7FAF7"/>
<path d="M38.3982 49.0219H37.2039V50.2347H38.3982V49.0219Z" fill="#F7FAF7"/>
<path d="M38.3982 47.856H37.2039V49.0219H38.3982V47.856Z" fill="#F7FAF7"/>
<path d="M38.3982 46.6432H37.2039V47.856H38.3982V46.6432Z" fill="#F7FAF7"/>
<path d="M38.3982 44.2645H37.2039V45.4303H38.3982V44.2645Z" fill="#F7FAF7"/>
<path d="M38.3982 43.061H37.2039V44.2739H38.3982V43.061Z" fill="#F7FAF7"/>
<path d="M38.3982 41.8482H37.2039V43.061H38.3982V41.8482Z" fill="#F7FAF7"/>
<path d="M38.3982 40.6823H37.2039V41.8482H38.3982V40.6823Z" fill="#F7FAF7"/>
<path d="M38.3982 39.4695H37.2039V40.6823H38.3982V39.4695Z" fill="#070100"/>
<path d="M38.3982 38.2566H37.2039V39.4695H38.3982V38.2566Z" fill="#070100"/>
<path d="M38.3982 37.0908H37.2039V38.2566H38.3982V37.0908Z" fill="#070100"/>
<path d="M38.3982 35.8779H37.2039V37.0908H38.3982V35.8779Z" fill="#070100"/>
<path d="M38.3982 34.6745H37.2039V35.8873H38.3982V34.6745Z" fill="#070100"/>
<path d="M38.3982 33.4992H37.2039V34.6651H38.3982V33.4992Z" fill="#F7FAF7"/>
<path d="M38.3982 32.2958H37.2039V33.5086H38.3982V32.2958Z" fill="#F7FAF7"/>
<path d="M38.3982 29.9171H37.2039V31.0829H38.3982V29.9171Z" fill="#F7FAF7"/>
<path d="M38.3982 28.7042H37.2039V29.9171H38.3982V28.7042Z" fill="#F7FAF7"/>
<path d="M38.3982 27.4914H37.2039V28.7042H38.3982V27.4914Z" fill="#F7FAF7"/>
<path d="M38.3982 26.3255H37.2039V27.4914H38.3982V26.3255Z" fill="#F7FAF7"/>
<path d="M38.3982 25.1127H37.2039V26.3255H38.3982V25.1127Z" fill="#F7FAF7"/>
<path d="M38.3982 23.9092H37.2039V25.1221H38.3982V23.9092Z" fill="#F7FAF7"/>
<path d="M38.3982 22.7434H37.2039V23.9092H38.3982V22.7434Z" fill="#F7FAF7"/>
<path d="M38.3982 10.7653H37.2039V11.9781H38.3982V10.7653Z" fill="#F7FAF7"/>
<path d="M38.3982 9.5524H37.2039V10.7653H38.3982V9.5524Z" fill="#F7FAF7"/>
<path d="M37.2038 51.4476H36.0095V52.6604H37.2038V51.4476Z" fill="#F7FAF7"/>
<path d="M37.2038 50.2347H36.0095V51.4476H37.2038V50.2347Z" fill="#F7FAF7"/>
<path d="M37.2038 49.0219H36.0095V50.2347H37.2038V49.0219Z" fill="#F7FAF7"/>
<path d="M37.2038 47.856H36.0095V49.0219H37.2038V47.856Z" fill="#F7FAF7"/>
<path d="M37.2038 45.4303H36.0095V46.6432H37.2038V45.4303Z" fill="#F7FAF7"/>
<path d="M37.2038 44.2645H36.0095V45.4303H37.2038V44.2645Z" fill="#F7FAF7"/>
<path d="M37.2038 43.061H36.0095V44.2739H37.2038V43.061Z" fill="#F7FAF7"/>
<path d="M37.2038 41.8482H36.0095V43.061H37.2038V41.8482Z" fill="#F7FAF7"/>
<path d="M37.2038 40.6823H36.0095V41.8482H37.2038V40.6823Z" fill="#F7FAF7"/>
<path d="M37.2038 39.4695H36.0095V40.6823H37.2038V39.4695Z" fill="#070100"/>
<path d="M37.2038 38.2566H36.0095V39.4695H37.2038V38.2566Z" fill="#070100"/>
<path d="M37.2038 37.0908H36.0095V38.2566H37.2038V37.0908Z" fill="#070100"/>
<path d="M37.2038 35.8779H36.0095V37.0908H37.2038V35.8779Z" fill="#070100"/>
<path d="M37.2038 34.6745H36.0095V35.8873H37.2038V34.6745Z" fill="#070100"/>
<path d="M37.2038 33.4992H36.0095V34.6651H37.2038V33.4992Z" fill="#F7FAF7"/>
<path d="M37.2038 32.2958H36.0095V33.5086H37.2038V32.2958Z" fill="#F7FAF7"/>
<path d="M37.2038 31.0829H36.0095V32.2958H37.2038V31.0829Z" fill="#F7FAF7"/>
<path d="M37.2038 28.7042H36.0095V29.9171H37.2038V28.7042Z" fill="#F7FAF7"/>
<path d="M37.2038 27.4914H36.0095V28.7042H37.2038V27.4914Z" fill="#F7FAF7"/>
<path d="M37.2038 26.3255H36.0095V27.4914H37.2038V26.3255Z" fill="#F7FAF7"/>
<path d="M37.2038 25.1127H36.0095V26.3255H37.2038V25.1127Z" fill="#F7FAF7"/>
<path d="M37.2038 23.9092H36.0095V25.1221H37.2038V23.9092Z" fill="#F7FAF7"/>
<path d="M37.2038 22.7434H36.0095V23.9092H37.2038V22.7434Z" fill="#F7FAF7"/>
<path d="M37.2038 21.5305H36.0095V22.7434H37.2038V21.5305Z" fill="#F7FAF7"/>
<path d="M38.3982 21.5305H37.2039V22.7434H38.3982V21.5305Z" fill="#070100"/>
<path d="M38.3982 14.3474H37.2039V15.5603H38.3982V14.3474Z" fill="#070100"/>
<path d="M38.3982 13.144H37.2039V14.3568H38.3982V13.144Z" fill="#070100"/>
<path d="M38.3982 11.9781H37.2039V13.144H38.3982V11.9781Z" fill="#070100"/>
<path d="M37.2038 20.3177H36.0095V21.5305H37.2038V20.3177Z" fill="#070100"/>
<path d="M37.2038 19.1518H36.0095V20.3177H37.2038V19.1518Z" fill="#070100"/>
<path d="M37.2038 17.939H36.0095V19.1518H37.2038V17.939Z" fill="#070100"/>
<path d="M37.2038 16.7261H36.0095V17.939H37.2038V16.7261Z" fill="#070100"/>
<path d="M37.2038 15.5603H36.0095V16.7261H37.2038V15.5603Z" fill="#070100"/>
<path d="M37.2038 14.3474H36.0095V15.5603H37.2038V14.3474Z" fill="#F7FAF7"/>
<path d="M37.2038 13.144H36.0095V14.3568H37.2038V13.144Z" fill="#F7FAF7"/>
<path d="M37.2038 11.9781H36.0095V13.144H37.2038V11.9781Z" fill="#F7FAF7"/>
<path d="M37.2038 10.7653H36.0095V11.9781H37.2038V10.7653Z" fill="#F7FAF7"/>
<path d="M37.2038 9.5524H36.0095V10.7653H37.2038V9.5524Z" fill="#F7FAF7"/>
<path d="M36.0094 50.2347H34.7961V51.4476H36.0094V50.2347Z" fill="#F7FAF7"/>
<path d="M36.0094 46.6432H34.7961V47.856H36.0094V46.6432Z" fill="#F7FAF7"/>
<path d="M36.0094 45.4303H34.7961V46.6432H36.0094V45.4303Z" fill="#F7FAF7"/>
<path d="M36.0094 44.2645H34.7961V45.4303H36.0094V44.2645Z" fill="#F7FAF7"/>
<path d="M36.0094 43.061H34.7961V44.2739H36.0094V43.061Z" fill="#F7FAF7"/>
<path d="M36.0094 41.8482H34.7961V43.061H36.0094V41.8482Z" fill="#F7FAF7"/>
<path d="M36.0094 40.6823H34.7961V41.8482H36.0094V40.6823Z" fill="#070100"/>
<path d="M36.0094 39.4695H34.7961V40.6823H36.0094V39.4695Z" fill="#070100"/>
<path d="M36.0094 38.2566H34.7961V39.4695H36.0094V38.2566Z" fill="#070100"/>
<path d="M36.0094 37.0908H34.7961V38.2566H36.0094V37.0908Z" fill="#070100"/>
<path d="M36.0094 35.8779H34.7961V37.0908H36.0094V35.8779Z" fill="#070100"/>
<path d="M36.0094 34.6745H34.7961V35.8873H36.0094V34.6745Z" fill="#070100"/>
<path d="M36.0094 33.4992H34.7961V34.6651H36.0094V33.4992Z" fill="#F7FAF7"/>
<path d="M36.0094 32.2958H34.7961V33.5086H36.0094V32.2958Z" fill="#F7FAF7"/>
<path d="M36.0094 31.0829H34.7961V32.2958H36.0094V31.0829Z" fill="#F7FAF7"/>
<path d="M36.0094 28.7042H34.7961V29.9171H36.0094V28.7042Z" fill="#F7FAF7"/>
<path d="M36.0094 27.4914H34.7961V28.7042H36.0094V27.4914Z" fill="#F7FAF7"/>
<path d="M36.0094 26.3255H34.7961V27.4914H36.0094V26.3255Z" fill="#F7FAF7"/>
<path d="M36.0094 25.1127H34.7961V26.3255H36.0094V25.1127Z" fill="#F7FAF7"/>
<path d="M36.0094 23.9092H34.7961V25.1221H36.0094V23.9092Z" fill="#F7FAF7"/>
<path d="M36.0094 22.7434H34.7961V23.9092H36.0094V22.7434Z" fill="#F7FAF7"/>
<path d="M36.0094 21.5305H34.7961V22.7434H36.0094V21.5305Z" fill="#F7FAF7"/>
<path d="M36.0094 20.3177H34.7961V21.5305H36.0094V20.3177Z" fill="#F7FAF7"/>
<path d="M36.0094 19.1518H34.7961V20.3177H36.0094V19.1518Z" fill="#F7FAF7"/>
<path d="M36.0094 17.939H34.7961V19.1518H36.0094V17.939Z" fill="#F7FAF7"/>
<path d="M36.0094 16.7261H34.7961V17.939H36.0094V16.7261Z" fill="#F7FAF7"/>
<path d="M36.0094 15.5603H34.7961V16.7261H36.0094V15.5603Z" fill="#F7FAF7"/>
<path d="M36.0094 14.3474H34.7961V15.5603H36.0094V14.3474Z" fill="#F7FAF7"/>
<path d="M36.0094 13.144H34.7961V14.3568H36.0094V13.144Z" fill="#F7FAF7"/>
<path d="M36.0094 11.9781H34.7961V13.144H36.0094V11.9781Z" fill="#F7FAF7"/>
<path d="M34.7961 49.0219H33.6018V50.2347H34.7961V49.0219Z" fill="#F7FAF7"/>
<path d="M34.7961 47.856H33.6018V49.0219H34.7961V47.856Z" fill="#F7FAF7"/>
<path d="M34.7961 46.6432H33.6018V47.856H34.7961V46.6432Z" fill="#F7FAF7"/>
<path d="M34.7961 45.4303H33.6018V46.6432H34.7961V45.4303Z" fill="#F7FAF7"/>
<path d="M34.7961 44.2645H33.6018V45.4303H34.7961V44.2645Z" fill="#F7FAF7"/>
<path d="M34.7961 43.061H33.6018V44.2739H34.7961V43.061Z" fill="#F7FAF7"/>
<path d="M34.7961 41.8482H33.6018V43.061H34.7961V41.8482Z" fill="#F7FAF7"/>
<path d="M34.7961 40.6823H33.6018V41.8482H34.7961V40.6823Z" fill="#070100"/>
<path d="M34.7961 39.4695H33.6018V40.6823H34.7961V39.4695Z" fill="#070100"/>
<path d="M34.7961 38.2566H33.6018V39.4695H34.7961V38.2566Z" fill="#070100"/>
<path d="M34.7961 37.0908H33.6018V38.2566H34.7961V37.0908Z" fill="#FFFFFE"/>
<path d="M34.7961 35.8779H33.6018V37.0908H34.7961V35.8779Z" fill="#070100"/>
<path d="M34.7961 34.6745H33.6018V35.8873H34.7961V34.6745Z" fill="#070100"/>
<path d="M34.7961 33.4992H33.6018V34.6651H34.7961V33.4992Z" fill="#F7FAF7"/>
<path d="M34.7961 32.2958H33.6018V33.5086H34.7961V32.2958Z" fill="#F7FAF7"/>
<path d="M34.7961 31.0829H33.6018V32.2958H34.7961V31.0829Z" fill="#F7FAF7"/>
<path d="M34.7961 28.7042H33.6018V29.9171H34.7961V28.7042Z" fill="#F7FAF7"/>
<path d="M34.7961 27.4914H33.6018V28.7042H34.7961V27.4914Z" fill="#F7FAF7"/>
<path d="M34.7961 26.3255H33.6018V27.4914H34.7961V26.3255Z" fill="#F7FAF7"/>
<path d="M34.7961 25.1127H33.6018V26.3255H34.7961V25.1127Z" fill="#F7FAF7"/>
<path d="M34.7961 23.9092H33.6018V25.1221H34.7961V23.9092Z" fill="#F7FAF7"/>
<path d="M34.7961 22.7434H33.6018V23.9092H34.7961V22.7434Z" fill="#F7FAF7"/>
<path d="M34.7961 21.5305H33.6018V22.7434H34.7961V21.5305Z" fill="#F7FAF7"/>
<path d="M34.7961 20.3177H33.6018V21.5305H34.7961V20.3177Z" fill="#F7FAF7"/>
<path d="M34.7961 15.5603H33.6018V16.7261H34.7961V15.5603Z" fill="#F7FAF7"/>
<path d="M41.9905 19.1518H40.7961V20.3177H41.9905V19.1518Z" fill="#070100"/>
<path d="M41.9905 17.939H40.7961V19.1518H41.9905V17.939Z" fill="#070100"/>
<path d="M41.9905 16.7261H40.7961V17.939H41.9905V16.7261Z" fill="#070100"/>
<path d="M41.9905 15.5603H40.7961V16.7261H41.9905V15.5603Z" fill="#070100"/>
<path d="M41.9905 14.3474H40.7961V15.5603H41.9905V14.3474Z" fill="#070100"/>
<path d="M40.7961 21.5305H39.6018V22.7434H40.7961V21.5305Z" fill="#070100"/>
<path d="M40.7961 20.3177H39.6018V21.5305H40.7961V20.3177Z" fill="#070100"/>
<path d="M40.7961 13.144H39.6018V14.3568H40.7961V13.144Z" fill="#070100"/>
<path d="M40.7961 11.9781H39.6018V13.144H40.7961V11.9781Z" fill="#070100"/>
<path d="M39.6017 25.1127H38.3884V26.3255H39.6017V25.1127Z" fill="#070100"/>
<path d="M39.6017 23.9092H38.3884V25.1221H39.6017V23.9092Z" fill="#070100"/>
<path d="M39.6017 22.7434H38.3884V23.9092H39.6017V22.7434Z" fill="#070100"/>
<path d="M39.6017 10.7653H38.3884V11.9781H39.6017V10.7653Z" fill="#070100"/>
<path d="M39.6017 9.5524H38.3884V10.7653H39.6017V9.5524Z" fill="#070100"/>
<path d="M39.6017 8.38656H38.3884V9.55241H39.6017V8.38656Z" fill="#070100"/>
<path d="M38.3979 8.38656H37.2036V9.55241H38.3979V8.38656Z" fill="#070100"/>
<path d="M37.2038 8.38656H36.0095V9.55241H37.2038V8.38656Z" fill="#070100"/>
<path d="M36.0094 10.7653H34.7961V11.9781H36.0094V10.7653Z" fill="#070100"/>
<path d="M36.0094 9.5524H34.7961V10.7653H36.0094V9.5524Z" fill="#070100"/>
<path d="M34.7961 14.3474H33.6018V15.5603H34.7961V14.3474Z" fill="#070100"/>
<path d="M34.7961 13.144H33.6018V14.3568H34.7961V13.144Z" fill="#070100"/>
<path d="M34.7961 11.9781H33.6018V13.144H34.7961V11.9781Z" fill="#070100"/>
<path d="M33.602 46.6432H32.4077V47.856H33.602V46.6432Z" fill="#F7FAF7"/>
<path d="M33.602 45.4303H32.4077V46.6432H33.602V45.4303Z" fill="#F7FAF7"/>
<path d="M33.602 44.2645H32.4077V45.4303H33.602V44.2645Z" fill="#F7FAF7"/>
<path d="M33.602 43.061H32.4077V44.2739H33.602V43.061Z" fill="#F7FAF7"/>
<path d="M33.602 41.8482H32.4077V43.061H33.602V41.8482Z" fill="#F7FAF7"/>
<path d="M33.602 40.6823H32.4077V41.8482H33.602V40.6823Z" fill="#070100"/>
<path d="M33.602 39.4695H32.4077V40.6823H33.602V39.4695Z" fill="#070100"/>
<path d="M33.602 38.2566H32.4077V39.4695H33.602V38.2566Z" fill="#070100"/>
<path d="M33.602 37.0908H32.4077V38.2566H33.602V37.0908Z" fill="#070100"/>
<path d="M33.602 35.8779H32.4077V37.0908H33.602V35.8779Z" fill="#FFFFFE"/>
<path d="M33.602 34.6745H32.4077V35.8873H33.602V34.6745Z" fill="#070100"/>
<path d="M33.602 33.4992H32.4077V34.6651H33.602V33.4992Z" fill="#F7FAF7"/>
<path d="M33.602 32.2958H32.4077V33.5086H33.602V32.2958Z" fill="#F7FAF7"/>
<path d="M33.602 29.9171H32.4077V31.0829H33.602V29.9171Z" fill="#F7FAF7"/>
<path d="M33.602 28.7042H32.4077V29.9171H33.602V28.7042Z" fill="#F7FAF7"/>
<path d="M33.602 27.4914H32.4077V28.7042H33.602V27.4914Z" fill="#F7FAF7"/>
<path d="M33.602 26.3255H32.4077V27.4914H33.602V26.3255Z" fill="#F7FAF7"/>
<path d="M33.602 25.1127H32.4077V26.3255H33.602V25.1127Z" fill="#F7FAF7"/>
<path d="M33.602 23.9092H32.4077V25.1221H33.602V23.9092Z" fill="#F7FAF7"/>
<path d="M33.602 22.7434H32.4077V23.9092H33.602V22.7434Z" fill="#F7FAF7"/>
<path d="M33.602 21.5305H32.4077V22.7434H33.602V21.5305Z" fill="#F7FAF7"/>
<path d="M32.4076 51.4476H31.1943V52.6604H32.4076V51.4476Z" fill="#F7FAF7"/>
<path d="M32.4076 50.2347H31.1943V51.4476H32.4076V50.2347Z" fill="#F7FAF7"/>
<path d="M32.4076 49.0219H31.1943V50.2347H32.4076V49.0219Z" fill="#F7FAF7"/>
<path d="M32.4076 47.856H31.1943V49.0219H32.4076V47.856Z" fill="#F7FAF7"/>
<path d="M32.4076 45.4303H31.1943V46.6432H32.4076V45.4303Z" fill="#F7FAF7"/>
<path d="M32.4076 44.2645H31.1943V45.4303H32.4076V44.2645Z" fill="#F7FAF7"/>
<path d="M32.4076 43.061H31.1943V44.2739H32.4076V43.061Z" fill="#F7FAF7"/>
<path d="M32.4076 41.8482H31.1943V43.061H32.4076V41.8482Z" fill="#F7FAF7"/>
<path d="M32.4076 40.6823H31.1943V41.8482H32.4076V40.6823Z" fill="#070100"/>
<path d="M32.4076 39.4695H31.1943V40.6823H32.4076V39.4695Z" fill="#070100"/>
<path d="M32.4076 38.2566H31.1943V39.4695H32.4076V38.2566Z" fill="#070100"/>
<path d="M32.4076 37.0908H31.1943V38.2566H32.4076V37.0908Z" fill="#070100"/>
<path d="M32.4076 35.8779H31.1943V37.0908H32.4076V35.8779Z" fill="#070100"/>
<path d="M32.4076 34.6745H31.1943V35.8873H32.4076V34.6745Z" fill="#070100"/>
<path d="M32.4076 33.4992H31.1943V34.6651H32.4076V33.4992Z" fill="#F7FAF7"/>
<path d="M32.4076 32.2958H31.1943V33.5086H32.4076V32.2958Z" fill="#F7FAF7"/>
<path d="M32.4076 31.0829H31.1943V32.2958H32.4076V31.0829Z" fill="#F7FAF7"/>
<path d="M32.4076 29.9171H31.1943V31.0829H32.4076V29.9171Z" fill="#F7FAF7"/>
<path d="M32.4076 28.7042H31.1943V29.9171H32.4076V28.7042Z" fill="#F7FAF7"/>
<path d="M32.4076 27.4914H31.1943V28.7042H32.4076V27.4914Z" fill="#F7FAF7"/>
<path d="M32.4076 26.3255H31.1943V27.4914H32.4076V26.3255Z" fill="#F7FAF7"/>
<path d="M32.4076 25.1127H31.1943V26.3255H32.4076V25.1127Z" fill="#F7FAF7"/>
<path d="M32.4076 23.9092H31.1943V25.1221H32.4076V23.9092Z" fill="#F7FAF7"/>
<path d="M32.4076 22.7434H31.1943V23.9092H32.4076V22.7434Z" fill="#F7FAF7"/>
<path d="M31.1943 53.8169H30V55.0298H31.1943V53.8169Z" fill="#F7FAF7"/>
<path d="M31.1943 52.651H30V53.8169H31.1943V52.651Z" fill="#F7FAF7"/>
<path d="M31.1943 51.4476H30V52.6604H31.1943V51.4476Z" fill="#F7FAF7"/>
<path d="M31.1943 50.2347H30V51.4476H31.1943V50.2347Z" fill="#F7FAF7"/>
<path d="M31.1943 49.0219H30V50.2347H31.1943V49.0219Z" fill="#F7FAF7"/>
<path d="M31.1943 47.856H30V49.0219H31.1943V47.856Z" fill="#F7FAF7"/>
<path d="M31.1943 46.6432H30V47.856H31.1943V46.6432Z" fill="#F7FAF7"/>
<path d="M31.1943 44.2645H30V45.4303H31.1943V44.2645Z" fill="#F7FAF7"/>
<path d="M31.1943 43.061H30V44.2739H31.1943V43.061Z" fill="#F7FAF7"/>
<path d="M31.1943 41.8482H30V43.061H31.1943V41.8482Z" fill="#F7FAF7"/>
<path d="M31.1943 40.6823H30V41.8482H31.1943V40.6823Z" fill="#070100"/>
<path d="M31.1943 39.4695H30V40.6823H31.1943V39.4695Z" fill="#070100"/>
<path d="M31.1943 38.2566H30V39.4695H31.1943V38.2566Z" fill="#070100"/>
<path d="M31.1943 37.0908H30V38.2566H31.1943V37.0908Z" fill="#070100"/>
<path d="M31.1943 35.8779H30V37.0908H31.1943V35.8779Z" fill="#070100"/>
<path d="M31.1943 34.6745H30V35.8873H31.1943V34.6745Z" fill="#070100"/>
<path d="M31.1943 33.4992H30V34.6651H31.1943V33.4992Z" fill="#F7FAF7"/>
<path d="M31.1943 32.2958H30V33.5086H31.1943V32.2958Z" fill="#F7FAF7"/>
<path d="M31.1943 31.0829H30V32.2958H31.1943V31.0829Z" fill="#F7FAF7"/>
<path d="M31.1943 29.9171H30V31.0829H31.1943V29.9171Z" fill="#F7FAF7"/>
<path d="M31.1943 28.7042H30V29.9171H31.1943V28.7042Z" fill="#F7FAF7"/>
<path d="M31.1943 27.4914H30V28.7042H31.1943V27.4914Z" fill="#F7FAF7"/>
<path d="M31.1943 26.3255H30V27.4914H31.1943V26.3255Z" fill="#F7FAF7"/>
<path d="M31.1943 25.1127H30V26.3255H31.1943V25.1127Z" fill="#F7FAF7"/>
<path d="M30 53.8169H28.8057V55.0298H30V53.8169Z" fill="#F7FAF7"/>
<path d="M30 52.651H28.8057V53.8169H30V52.651Z" fill="#F7FAF7"/>
<path d="M30 51.4476H28.8057V52.6604H30V51.4476Z" fill="#F7FAF7"/>
<path d="M30 50.2347H28.8057V51.4476H30V50.2347Z" fill="#F7FAF7"/>
<path d="M30 49.0219H28.8057V50.2347H30V49.0219Z" fill="#F7FAF7"/>
<path d="M30 46.6432H28.8057V47.856H30V46.6432Z" fill="#F7FAF7"/>
<path d="M30 45.4303H28.8057V46.6432H30V45.4303Z" fill="#F7FAF7"/>
<path d="M30 44.2645H28.8057V45.4303H30V44.2645Z" fill="#F7FAF7"/>
<path d="M30 43.061H28.8057V44.2739H30V43.061Z" fill="#F7FAF7"/>
<path d="M30 41.8482H28.8057V43.061H30V41.8482Z" fill="#F7FAF7"/>
<path d="M30 40.6823H28.8057V41.8482H30V40.6823Z" fill="#070100"/>
<path d="M30 39.4695H28.8057V40.6823H30V39.4695Z" fill="#070100"/>
<path d="M30 38.2566H28.8057V39.4695H30V38.2566Z" fill="#070100"/>
<path d="M30 37.0908H28.8057V38.2566H30V37.0908Z" fill="#070100"/>
<path d="M30 35.8779H28.8057V37.0908H30V35.8779Z" fill="#070100"/>
<path d="M30 34.6745H28.8057V35.8873H30V34.6745Z" fill="#070100"/>
<path d="M30 33.4992H28.8057V34.6651H30V33.4992Z" fill="#F7FAF7"/>
<path d="M30 32.2958H28.8057V33.5086H30V32.2958Z" fill="#F7FAF7"/>
<path d="M30 31.0829H28.8057V32.2958H30V31.0829Z" fill="#F7FAF7"/>
<path d="M30 29.9171H28.8057V31.0829H30V29.9171Z" fill="#F7FAF7"/>
<path d="M30 28.7042H28.8057V29.9171H30V28.7042Z" fill="#F7FAF7"/>
<path d="M30 27.4914H28.8057V28.7042H30V27.4914Z" fill="#F7FAF7"/>
<path d="M28.8056 55.0298H27.5923V56.2426H28.8056V55.0298Z" fill="#F7FAF7"/>
<path d="M28.8056 53.8169H27.5923V55.0298H28.8056V53.8169Z" fill="#F7FAF7"/>
<path d="M28.8056 52.651H27.5923V53.8169H28.8056V52.651Z" fill="#F7FAF7"/>
<path d="M28.8056 51.4476H27.5923V52.6604H28.8056V51.4476Z" fill="#F7FAF7"/>
<path d="M28.8056 47.856H27.5923V49.0219H28.8056V47.856Z" fill="#F7FAF7"/>
<path d="M28.8056 46.6432H27.5923V47.856H28.8056V46.6432Z" fill="#F7FAF7"/>
<path d="M28.8056 45.4303H27.5923V46.6432H28.8056V45.4303Z" fill="#F7FAF7"/>
<path d="M28.8056 44.2645H27.5923V45.4303H28.8056V44.2645Z" fill="#F7FAF7"/>
<path d="M28.8056 43.061H27.5923V44.2739H28.8056V43.061Z" fill="#F7FAF7"/>
<path d="M28.8056 41.8482H27.5923V43.061H28.8056V41.8482Z" fill="#F7FAF7"/>
<path d="M28.8056 40.6823H27.5923V41.8482H28.8056V40.6823Z" fill="#F7FAF7"/>
<path d="M28.8056 39.4695H27.5923V40.6823H28.8056V39.4695Z" fill="#070100"/>
<path d="M28.8056 38.2566H27.5923V39.4695H28.8056V38.2566Z" fill="#070100"/>
<path d="M28.8056 37.0908H27.5923V38.2566H28.8056V37.0908Z" fill="#070100"/>
<path d="M28.8056 35.8779H27.5923V37.0908H28.8056V35.8779Z" fill="#070100"/>
<path d="M28.8056 34.6745H27.5923V35.8873H28.8056V34.6745Z" fill="#F7FAF7"/>
<path d="M28.8056 33.4992H27.5923V34.6651H28.8056V33.4992Z" fill="#F7FAF7"/>
<path d="M28.8056 32.2958H27.5923V33.5086H28.8056V32.2958Z" fill="#F7FAF7"/>
<path d="M28.8056 31.0829H27.5923V32.2958H28.8056V31.0829Z" fill="#F7FAF7"/>
<path d="M27.6018 55.0298H26.4075V56.2426H27.6018V55.0298Z" fill="#F7FAF7"/>
<path d="M27.6018 53.8169H26.4075V55.0298H27.6018V53.8169Z" fill="#F7FAF7"/>
<path d="M27.6018 52.651H26.4075V53.8169H27.6018V52.651Z" fill="#F7FAF7"/>
<path d="M27.6018 47.856H26.4075V49.0219H27.6018V47.856Z" fill="#F7FAF7"/>
<path d="M27.6018 46.6432H26.4075V47.856H27.6018V46.6432Z" fill="#F7FAF7"/>
<path d="M27.6018 45.4303H26.4075V46.6432H27.6018V45.4303Z" fill="#F7FAF7"/>
<path d="M27.6018 44.2645H26.4075V45.4303H27.6018V44.2645Z" fill="#F7FAF7"/>
<path d="M27.6018 43.061H26.4075V44.2739H27.6018V43.061Z" fill="#F7FAF7"/>
<path d="M27.6018 41.8482H26.4075V43.061H27.6018V41.8482Z" fill="#F7FAF7"/>
<path d="M27.6018 40.6823H26.4075V41.8482H27.6018V40.6823Z" fill="#F7FAF7"/>
<path d="M27.6018 39.4695H26.4075V40.6823H27.6018V39.4695Z" fill="#F7FAF7"/>
<path d="M27.6018 38.2566H26.4075V39.4695H27.6018V38.2566Z" fill="#F7FAF7"/>
<path d="M27.6018 37.0908H26.4075V38.2566H27.6018V37.0908Z" fill="#070100"/>
<path d="M27.6018 35.8779H26.4075V37.0908H27.6018V35.8779Z" fill="#F7FAF7"/>
<path d="M27.6018 34.6745H26.4075V35.8873H27.6018V34.6745Z" fill="#F7FAF7"/>
<path d="M27.6018 33.4992H26.4075V34.6651H27.6018V33.4992Z" fill="#F7FAF7"/>
<path d="M27.6018 32.2958H26.4075V33.5086H27.6018V32.2958Z" fill="#F7FAF7"/>
<path d="M26.4077 55.0298H25.2134V56.2426H26.4077V55.0298Z" fill="#F7FAF7"/>
<path d="M26.4077 53.8169H25.2134V55.0298H26.4077V53.8169Z" fill="#F7FAF7"/>
<path d="M26.4077 50.2347H25.2134V51.4476H26.4077V50.2347Z" fill="#B577E0"/>
<path d="M26.4077 47.856H25.2134V49.0219H26.4077V47.856Z" fill="#F7FAF7"/>
<path d="M26.4077 46.6432H25.2134V47.856H26.4077V46.6432Z" fill="#F7FAF7"/>
<path d="M26.4077 45.4303H25.2134V46.6432H26.4077V45.4303Z" fill="#F7FAF7"/>
<path d="M26.4077 44.2645H25.2134V45.4303H26.4077V44.2645Z" fill="#F7FAF7"/>
<path d="M26.4077 43.061H25.2134V44.2739H26.4077V43.061Z" fill="#F7FAF7"/>
<path d="M26.4077 41.8482H25.2134V43.061H26.4077V41.8482Z" fill="#F7FAF7"/>
<path d="M26.4077 40.6823H25.2134V41.8482H26.4077V40.6823Z" fill="#F7FAF7"/>
<path d="M26.4077 39.4695H25.2134V40.6823H26.4077V39.4695Z" fill="#F7FAF7"/>
<path d="M26.4077 38.2566H25.2134V39.4695H26.4077V38.2566Z" fill="#F7FAF7"/>
<path d="M26.4077 37.0908H25.2134V38.2566H26.4077V37.0908Z" fill="#F7FAF7"/>
<path d="M26.4077 35.8779H25.2134V37.0908H26.4077V35.8779Z" fill="#070100"/>
<path d="M26.4077 34.6745H25.2134V35.8873H26.4077V34.6745Z" fill="#F7FAF7"/>
<path d="M26.4077 33.4992H25.2134V34.6651H26.4077V33.4992Z" fill="#F7FAF7"/>
<path d="M25.2133 55.0298H24V56.2426H25.2133V55.0298Z" fill="#F7FAF7"/>
<path d="M25.2133 53.8169H24V55.0298H25.2133V53.8169Z" fill="#F7FAF7"/>
<path d="M25.2133 50.2347H24V51.4476H25.2133V50.2347Z" fill="#B577E0"/>
<path d="M25.2133 47.856H24V49.0219H25.2133V47.856Z" fill="#F7FAF7"/>
<path d="M25.2133 46.6432H24V47.856H25.2133V46.6432Z" fill="#F7FAF7"/>
<path d="M25.2133 45.4303H24V46.6432H25.2133V45.4303Z" fill="#F7FAF7"/>
<path d="M25.2133 44.2645H24V45.4303H25.2133V44.2645Z" fill="#F7FAF7"/>
<path d="M25.2133 43.061H24V44.2739H25.2133V43.061Z" fill="#F7FAF7"/>
<path d="M25.2133 41.8482H24V43.061H25.2133V41.8482Z" fill="#F7FAF7"/>
<path d="M25.2133 40.6823H24V41.8482H25.2133V40.6823Z" fill="#F7FAF7"/>
<path d="M25.2133 39.4695H24V40.6823H25.2133V39.4695Z" fill="#F7FAF7"/>
<path d="M25.2133 38.2566H24V39.4695H25.2133V38.2566Z" fill="#F7FAF7"/>
<path d="M25.2133 37.0908H24V38.2566H25.2133V37.0908Z" fill="#F7FAF7"/>
<path d="M25.2133 35.8779H24V37.0908H25.2133V35.8779Z" fill="#070100"/>
<path d="M25.2133 34.6745H24V35.8873H25.2133V34.6745Z" fill="#F7FAF7"/>
<path d="M25.2133 33.4992H24V34.6651H25.2133V33.4992Z" fill="#F7FAF7"/>
<path d="M33.6018 19.1518H32.4075V20.3177H33.6018V19.1518Z" fill="#63DFDB"/>
<path d="M33.6018 17.939H32.4075V19.1518H33.6018V17.939Z" fill="#63DFDB"/>
<path d="M33.6018 16.7261H32.4075V17.939H33.6018V16.7261Z" fill="#63DFDB"/>
<path d="M32.4076 20.3177H31.1943V21.5305H32.4076V20.3177Z" fill="#63DFDB"/>
<path d="M32.4076 19.1518H31.1943V20.3177H32.4076V19.1518Z" fill="#63DFDB"/>
<path d="M32.4076 17.939H31.1943V19.1518H32.4076V17.939Z" fill="#63DFDB"/>
<path d="M32.4076 16.7261H31.1943V17.939H32.4076V16.7261Z" fill="#63DFDB"/>
<path d="M32.4076 15.5603H31.1943V16.7261H32.4076V15.5603Z" fill="#63DFDB"/>
<path d="M31.1943 21.5305H30V22.7434H31.1943V21.5305Z" fill="#63DFDB"/>
<path d="M31.1943 20.3177H30V21.5305H31.1943V20.3177Z" fill="#63DFDB"/>
<path d="M31.1943 19.1518H30V20.3177H31.1943V19.1518Z" fill="#63DFDB"/>
<path d="M31.1943 17.939H30V19.1518H31.1943V17.939Z" fill="#63DFDB"/>
<path d="M31.1943 16.7261H30V17.939H31.1943V16.7261Z" fill="#63DFDB"/>
<path d="M31.1943 15.5603H30V16.7261H31.1943V15.5603Z" fill="#070100"/>
<path d="M30 23.9092H28.8057V25.1221H30V23.9092Z" fill="#63DFDB"/>
<path d="M30 22.7434H28.8057V23.9092H30V22.7434Z" fill="#63DFDB"/>
<path d="M30 21.5305H28.8057V22.7434H30V21.5305Z" fill="#63DFDB"/>
<path d="M30 20.3177H28.8057V21.5305H30V20.3177Z" fill="#63DFDB"/>
<path d="M30 19.1518H28.8057V20.3177H30V19.1518Z" fill="#63DFDB"/>
<path d="M28.8056 26.3255H27.5923V27.4914H28.8056V26.3255Z" fill="#63DFDB"/>
<path d="M28.8056 25.1127H27.5923V26.3255H28.8056V25.1127Z" fill="#63DFDB"/>
<path d="M28.8056 23.9092H27.5923V25.1221H28.8056V23.9092Z" fill="#63DFDB"/>
<path d="M28.8056 22.7434H27.5923V23.9092H28.8056V22.7434Z" fill="#63DFDB"/>
<path d="M28.8056 21.5305H27.5923V22.7434H28.8056V21.5305Z" fill="#63DFDB"/>
<path d="M27.602 29.9171H26.4077V31.0829H27.602V29.9171Z" fill="#63DFDB"/>
<path d="M27.602 28.7042H26.4077V29.9171H27.602V28.7042Z" fill="#63DFDB"/>
<path d="M27.602 27.4914H26.4077V28.7042H27.602V27.4914Z" fill="#63DFDB"/>
<path d="M27.602 26.3255H26.4077V27.4914H27.602V26.3255Z" fill="#63DFDB"/>
<path d="M27.602 25.1127H26.4077V26.3255H27.602V25.1127Z" fill="#63DFDB"/>
<path d="M27.602 23.9092H26.4077V25.1221H27.602V23.9092Z" fill="#63DFDB"/>
<path d="M26.4074 31.0829H25.2131V32.2958H26.4074V31.0829Z" fill="#63DFDB"/>
<path d="M26.4074 29.9171H25.2131V31.0829H26.4074V29.9171Z" fill="#63DFDB"/>
<path d="M25.2133 31.0829H24V32.2958H25.2133V31.0829Z" fill="#63DFDB"/>
<path d="M25.2133 28.7042H24V29.9171H25.2133V28.7042Z" fill="#F7FAF7"/>
<path d="M24 55.0298H22.8057V56.2426H24V55.0298Z" fill="#F7FAF7"/>
<path d="M24 53.8169H22.8057V55.0298H24V53.8169Z" fill="#F7FAF7"/>
<path d="M24 50.2347H22.8057V51.4476H24V50.2347Z" fill="#F7FAF7"/>
<path d="M24 47.856H22.8057V49.0219H24V47.856Z" fill="#F7FAF7"/>
<path d="M24 46.6432H22.8057V47.856H24V46.6432Z" fill="#F7FAF7"/>
<path d="M24 45.4303H22.8057V46.6432H24V45.4303Z" fill="#F7FAF7"/>
<path d="M24 44.2645H22.8057V45.4303H24V44.2645Z" fill="#F7FAF7"/>
<path d="M24 43.061H22.8057V44.2739H24V43.061Z" fill="#F7FAF7"/>
<path d="M24 41.8482H22.8057V43.061H24V41.8482Z" fill="#F7FAF7"/>
<path d="M24 40.6823H22.8057V41.8482H24V40.6823Z" fill="#F7FAF7"/>
<path d="M24 39.4695H22.8057V40.6823H24V39.4695Z" fill="#F7FAF7"/>
<path d="M24 38.2566H22.8057V39.4695H24V38.2566Z" fill="#F7FAF7"/>
<path d="M24 37.0908H22.8057V38.2566H24V37.0908Z" fill="#F7FAF7"/>
<path d="M24 35.8779H22.8057V37.0908H24V35.8779Z" fill="#070100"/>
<path d="M24 34.6745H22.8057V35.8873H24V34.6745Z" fill="#F7FAF7"/>
<path d="M24 33.4992H22.8057V34.6651H24V33.4992Z" fill="#F7FAF7"/>
<path d="M24 29.9171H22.8057V31.0829H24V29.9171Z" fill="#F7FAF7"/>
<path d="M22.8058 55.0298H21.5925V56.2426H22.8058V55.0298Z" fill="#F7FAF7"/>
<path d="M22.8058 53.8169H21.5925V55.0298H22.8058V53.8169Z" fill="#F7FAF7"/>
<path d="M22.8058 50.2347H21.5925V51.4476H22.8058V50.2347Z" fill="#F7FAF7"/>
<path d="M22.8058 47.856H21.5925V49.0219H22.8058V47.856Z" fill="#F7FAF7"/>
<path d="M22.8058 46.6432H21.5925V47.856H22.8058V46.6432Z" fill="#F7FAF7"/>
<path d="M22.8058 45.4303H21.5925V46.6432H22.8058V45.4303Z" fill="#F7FAF7"/>
<path d="M22.8058 44.2645H21.5925V45.4303H22.8058V44.2645Z" fill="#F7FAF7"/>
<path d="M22.8058 43.061H21.5925V44.2739H22.8058V43.061Z" fill="#F7FAF7"/>
<path d="M22.8058 41.8482H21.5925V43.061H22.8058V41.8482Z" fill="#F7FAF7"/>
<path d="M22.8058 40.6823H21.5925V41.8482H22.8058V40.6823Z" fill="#F7FAF7"/>
<path d="M22.8058 39.4695H21.5925V40.6823H22.8058V39.4695Z" fill="#F7FAF7"/>
<path d="M22.8058 38.2566H21.5925V39.4695H22.8058V38.2566Z" fill="#F7FAF7"/>
<path d="M22.8058 37.0908H21.5925V38.2566H22.8058V37.0908Z" fill="#F7FAF7"/>
<path d="M22.8058 35.8779H21.5925V37.0908H22.8058V35.8779Z" fill="#070100"/>
<path d="M22.8058 34.6745H21.5925V35.8873H22.8058V34.6745Z" fill="#F7FAF7"/>
<path d="M22.8058 33.4992H21.5925V34.6651H22.8058V33.4992Z" fill="#F7FAF7"/>
<path d="M22.8058 31.0829H21.5925V32.2958H22.8058V31.0829Z" fill="#F7FAF7"/>
<path d="M22.8058 29.9171H21.5925V31.0829H22.8058V29.9171Z" fill="#F7FAF7"/>
<path d="M28.8058 13.144H27.5925V14.3568H28.8058V13.144Z" fill="#070100"/>
<path d="M27.602 14.3474H26.4077V15.5603H27.602V14.3474Z" fill="#B577E0"/>
<path d="M27.602 13.144H26.4077V14.3568H27.602V13.144Z" fill="#B577E0"/>
<path d="M27.602 10.7653H26.4077V11.9781H27.602V10.7653Z" fill="#B577E0"/>
<path d="M27.602 9.55241H26.4077V10.7653H27.602V9.55241Z" fill="#B577E0"/>
<path d="M26.4077 15.5603H25.2134V16.7261H26.4077V15.5603Z" fill="#B577E0"/>
<path d="M26.4077 14.3474H25.2134V15.5603H26.4077V14.3474Z" fill="#B577E0"/>
<path d="M26.4077 11.9781H25.2134V13.144H26.4077V11.9781Z" fill="#B577E0"/>
<path d="M26.4077 10.7653H25.2134V11.9781H26.4077V10.7653Z" fill="#B577E0"/>
<path d="M26.4077 8.38656H25.2134V9.55241H26.4077V8.38656Z" fill="#B577E0"/>
<path d="M26.4077 7.17371H25.2134V8.38656H26.4077V7.17371Z" fill="#B577E0"/>
<path d="M26.4077 4.7574H25.2134V5.97025H26.4077V4.7574Z" fill="#B577E0"/>
<path d="M25.2133 15.5603H24V16.7261H25.2133V15.5603Z" fill="#B577E0"/>
<path d="M25.2133 14.3474H24V15.5603H25.2133V14.3474Z" fill="#B577E0"/>
<path d="M25.2133 11.9781H24V13.144H25.2133V11.9781Z" fill="#B577E0"/>
<path d="M25.2133 10.7653H24V11.9781H25.2133V10.7653Z" fill="#B577E0"/>
<path d="M25.2133 8.38656H24V9.55241H25.2133V8.38656Z" fill="#B577E0"/>
<path d="M25.2133 7.17371H24V8.38656H25.2133V7.17371Z" fill="#B577E0"/>
<path d="M25.2133 4.7574H24V5.97025H25.2133V4.7574Z" fill="#B577E0"/>
<path d="M25.2133 3.59155H24V4.7574H25.2133V3.59155Z" fill="#B577E0"/>
<path d="M25.2133 2.3787H24V3.59156H25.2133V2.3787Z" fill="#B577E0"/>
<path d="M25.2133 1.16585H24V2.3787H25.2133V1.16585Z" fill="#B577E0"/>
<path d="M24 16.7261H22.8057V17.939H24V16.7261Z" fill="#B577E0"/>
<path d="M24 15.5603H22.8057V16.7261H24V15.5603Z" fill="#B577E0"/>
<path d="M24 14.3474H22.8057V15.5603H24V14.3474Z" fill="#B577E0"/>
<path d="M24 11.9781H22.8057V13.144H24V11.9781Z" fill="#B577E0"/>
<path d="M24 10.7653H22.8057V11.9781H24V10.7653Z" fill="#B577E0"/>
<path d="M24 8.38656H22.8057V9.55241H24V8.38656Z" fill="#B577E0"/>
<path d="M24 7.17371H22.8057V8.38656H24V7.17371Z" fill="#B577E0"/>
<path d="M24 4.7574H22.8057V5.97025H24V4.7574Z" fill="#B577E0"/>
<path d="M22.8058 15.5603H21.5925V16.7261H22.8058V15.5603Z" fill="#B577E0"/>
<path d="M22.8058 14.3474H21.5925V15.5603H22.8058V14.3474Z" fill="#B577E0"/>
<path d="M22.8058 13.144H21.5925V14.3568H22.8058V13.144Z" fill="#B577E0"/>
<path d="M22.8058 10.7653H21.5925V11.9781H22.8058V10.7653Z" fill="#B577E0"/>
<path d="M22.8058 9.55241H21.5925V10.7653H22.8058V9.55241Z" fill="#B577E0"/>
<path d="M21.5925 55.0298H20.3982V56.2426H21.5925V55.0298Z" fill="#F7FAF7"/>
<path d="M21.5925 53.8169H20.3982V55.0298H21.5925V53.8169Z" fill="#F7FAF7"/>
<path d="M21.5925 52.651H20.3982V53.8169H21.5925V52.651Z" fill="#F7FAF7"/>
<path d="M27.602 50.2347H26.4077V51.4476H27.602V50.2347Z" fill="#B577E0"/>
<path d="M26.4077 51.4476H25.2134V52.6604H26.4077V51.4476Z" fill="#B577E0"/>
<path d="M25.2133 51.4476H24V52.6604H25.2133V51.4476Z" fill="#B577E0"/>
<path d="M24.0002 51.4476H22.8059V52.6604H24.0002V51.4476Z" fill="#B577E0"/>
<path d="M22.8058 51.4476H21.5925V52.6604H22.8058V51.4476Z" fill="#B577E0"/>
<path d="M21.5925 50.2347H20.3982V51.4476H21.5925V50.2347Z" fill="#B577E0"/>
<path d="M21.5925 47.856H20.3982V49.0219H21.5925V47.856Z" fill="#F7FAF7"/>
<path d="M21.5925 46.6432H20.3982V47.856H21.5925V46.6432Z" fill="#F7FAF7"/>
<path d="M21.5925 45.4303H20.3982V46.6432H21.5925V45.4303Z" fill="#F7FAF7"/>
<path d="M21.5925 44.2645H20.3982V45.4303H21.5925V44.2645Z" fill="#F7FAF7"/>
<path d="M21.5925 43.061H20.3982V44.2739H21.5925V43.061Z" fill="#F7FAF7"/>
<path d="M21.5925 41.8482H20.3982V43.061H21.5925V41.8482Z" fill="#F7FAF7"/>
<path d="M21.5925 40.6823H20.3982V41.8482H21.5925V40.6823Z" fill="#F7FAF7"/>
<path d="M21.5925 39.4695H20.3982V40.6823H21.5925V39.4695Z" fill="#F7FAF7"/>
<path d="M21.5925 38.2566H20.3982V39.4695H21.5925V38.2566Z" fill="#F7FAF7"/>
<path d="M21.5925 37.0908H20.3982V38.2566H21.5925V37.0908Z" fill="#070100"/>
<path d="M21.5925 35.8779H20.3982V37.0908H21.5925V35.8779Z" fill="#F7FAF7"/>
<path d="M21.5925 34.6745H20.3982V35.8873H21.5925V34.6745Z" fill="#F7FAF7"/>
<path d="M21.5925 33.4992H20.3982V34.6651H21.5925V33.4992Z" fill="#F7FAF7"/>
<path d="M21.5925 32.2958H20.3982V33.5086H21.5925V32.2958Z" fill="#F7FAF7"/>
<path d="M21.5925 31.0829H20.3982V32.2958H21.5925V31.0829Z" fill="#F7FAF7"/>
<path d="M28.8058 11.9781H27.5925V13.144H28.8058V11.9781Z" fill="#070100"/>
<path d="M28.8058 10.7653H27.5925V11.9781H28.8058V10.7653Z" fill="#070100"/>
<path d="M28.8058 9.5524H27.5925V10.7653H28.8058V9.5524Z" fill="#070100"/>
<path d="M27.602 11.9781H26.4077V13.144H27.602V11.9781Z" fill="#070100"/>
<path d="M27.602 8.38656H26.4077V9.55241H27.602V8.38656Z" fill="#070100"/>
<path d="M27.602 7.17371H26.4077V8.38656H27.602V7.17371Z" fill="#070100"/>
<path d="M27.602 5.97026H26.4077V7.18311H27.602V5.97026Z" fill="#070100"/>
<path d="M27.602 4.75739H26.4077V5.97025H27.602V4.75739Z" fill="#070100"/>
<path d="M26.4077 13.144H25.2134V14.3568H26.4077V13.144Z" fill="#070100"/>
<path d="M26.4077 9.5524H25.2134V10.7653H26.4077V9.5524Z" fill="#070100"/>
<path d="M26.4077 5.97026H25.2134V7.18311H26.4077V5.97026Z" fill="#070100"/>
<path d="M26.4077 3.59156H25.2134V4.7574H26.4077V3.59156Z" fill="#070100"/>
<path d="M26.4077 2.3787H25.2134V3.59155H26.4077V2.3787Z" fill="#070100"/>
<path d="M26.4077 1.16585H25.2134V2.3787H26.4077V1.16585Z" fill="#070100"/>
<path d="M25.2133 13.144H24V14.3568H25.2133V13.144Z" fill="#070100"/>
<path d="M25.2133 9.5524H24V10.7653H25.2133V9.5524Z" fill="#070100"/>
<path d="M25.2133 5.97026H24V7.18311H25.2133V5.97026Z" fill="#070100"/>
<path d="M25.2133 0H24V1.16584H25.2133V0Z" fill="#070100"/>
<path d="M24.0002 13.144H22.8059V14.3568H24.0002V13.144Z" fill="#070100"/>
<path d="M24.0002 9.5524H22.8059V10.7653H24.0002V9.5524Z" fill="#070100"/>
<path d="M24.0002 5.97026H22.8059V7.18311H24.0002V5.97026Z" fill="#070100"/>
<path d="M24.0002 3.59156H22.8059V4.7574H24.0002V3.59156Z" fill="#070100"/>
<path d="M24.0002 2.3787H22.8059V3.59155H24.0002V2.3787Z" fill="#070100"/>
<path d="M24.0002 1.16585H22.8059V2.3787H24.0002V1.16585Z" fill="#070100"/>
<path d="M22.8058 16.7261H21.5925V17.939H22.8058V16.7261Z" fill="#070100"/>
<path d="M22.8058 11.9781H21.5925V13.144H22.8058V11.9781Z" fill="#070100"/>
<path d="M22.8058 8.38656H21.5925V9.55241H22.8058V8.38656Z" fill="#070100"/>
<path d="M22.8058 7.17371H21.5925V8.38656H22.8058V7.17371Z" fill="#070100"/>
<path d="M22.8058 5.97026H21.5925V7.18311H22.8058V5.97026Z" fill="#070100"/>
<path d="M22.8058 4.75739H21.5925V5.97025H22.8058V4.75739Z" fill="#070100"/>
<path d="M21.5925 15.5603H20.3982V16.7261H21.5925V15.5603Z" fill="#070100"/>
<path d="M21.5925 14.3474H20.3982V15.5603H21.5925V14.3474Z" fill="#070100"/>
<path d="M21.5925 13.144H20.3982V14.3568H21.5925V13.144Z" fill="#070100"/>
<path d="M21.5925 11.9781H20.3982V13.144H21.5925V11.9781Z" fill="#070100"/>
<path d="M21.5925 10.7653H20.3982V11.9781H21.5925V10.7653Z" fill="#070100"/>
<path d="M21.5925 9.5524H20.3982V10.7653H21.5925V9.5524Z" fill="#070100"/>
<path d="M20.3982 55.0298H19.2039V56.2426H20.3982V55.0298Z" fill="#F7FAF7"/>
<path d="M20.3982 53.8169H19.2039V55.0298H20.3982V53.8169Z" fill="#F7FAF7"/>
<path d="M20.3982 52.651H19.2039V53.8169H20.3982V52.651Z" fill="#F7FAF7"/>
<path d="M20.3982 51.4476H19.2039V52.6604H20.3982V51.4476Z" fill="#F7FAF7"/>
<path d="M20.3982 47.856H19.2039V49.0219H20.3982V47.856Z" fill="#F7FAF7"/>
<path d="M20.3982 46.6432H19.2039V47.856H20.3982V46.6432Z" fill="#F7FAF7"/>
<path d="M20.3982 45.4303H19.2039V46.6432H20.3982V45.4303Z" fill="#F7FAF7"/>
<path d="M20.3982 44.2645H19.2039V45.4303H20.3982V44.2645Z" fill="#F7FAF7"/>
<path d="M20.3982 43.061H19.2039V44.2739H20.3982V43.061Z" fill="#F7FAF7"/>
<path d="M20.3982 41.8482H19.2039V43.061H20.3982V41.8482Z" fill="#F7FAF7"/>
<path d="M20.3982 40.6823H19.2039V41.8482H20.3982V40.6823Z" fill="#F7FAF7"/>
<path d="M20.3982 39.4695H19.2039V40.6823H20.3982V39.4695Z" fill="#070100"/>
<path d="M20.3982 38.2566H19.2039V39.4695H20.3982V38.2566Z" fill="#070100"/>
<path d="M20.3982 37.0908H19.2039V38.2566H20.3982V37.0908Z" fill="#070100"/>
<path d="M20.3982 35.8779H19.2039V37.0908H20.3982V35.8779Z" fill="#070100"/>
<path d="M20.3982 34.6745H19.2039V35.8873H20.3982V34.6745Z" fill="#F7FAF7"/>
<path d="M20.3982 33.4992H19.2039V34.6651H20.3982V33.4992Z" fill="#F7FAF7"/>
<path d="M20.3982 32.2958H19.2039V33.5086H20.3982V32.2958Z" fill="#F7FAF7"/>
<path d="M20.3982 31.0829H19.2039V32.2958H20.3982V31.0829Z" fill="#F7FAF7"/>
<path d="M19.2038 53.8169H17.9905V55.0298H19.2038V53.8169Z" fill="#F7FAF7"/>
<path d="M19.2038 52.651H17.9905V53.8169H19.2038V52.651Z" fill="#F7FAF7"/>
<path d="M19.2038 51.4476H17.9905V52.6604H19.2038V51.4476Z" fill="#F7FAF7"/>
<path d="M19.2038 50.2347H17.9905V51.4476H19.2038V50.2347Z" fill="#F7FAF7"/>
<path d="M19.2038 49.0219H17.9905V50.2347H19.2038V49.0219Z" fill="#F7FAF7"/>
<path d="M30 47.856H28.8057V49.0219H30V47.856Z" fill="#070100"/>
<path d="M28.8056 50.2347H27.5923V51.4476H28.8056V50.2347Z" fill="#070100"/>
<path d="M28.8056 49.0219H27.5923V50.2347H28.8056V49.0219Z" fill="#070100"/>
<path d="M27.6018 51.4476H26.4075V52.6604H27.6018V51.4476Z" fill="#070100"/>
<path d="M27.6018 49.0219H26.4075V50.2347H27.6018V49.0219Z" fill="#070100"/>
<path d="M26.4077 52.651H25.2134V53.8169H26.4077V52.651Z" fill="#070100"/>
<path d="M26.4077 49.0219H25.2134V50.2347H26.4077V49.0219Z" fill="#070100"/>
<path d="M25.2133 52.651H24V53.8169H25.2133V52.651Z" fill="#070100"/>
<path d="M25.2133 49.0219H24V50.2347H25.2133V49.0219Z" fill="#070100"/>
<path d="M24 52.651H22.8057V53.8169H24V52.651Z" fill="#070100"/>
<path d="M24 49.0219H22.8057V50.2347H24V49.0219Z" fill="#070100"/>
<path d="M22.8056 52.651H21.5923V53.8169H22.8056V52.651Z" fill="#070100"/>
<path d="M22.8056 49.0219H21.5923V50.2347H22.8056V49.0219Z" fill="#070100"/>
<path d="M21.5925 51.4476H20.3982V52.6604H21.5925V51.4476Z" fill="#070100"/>
<path d="M21.5925 49.0219H20.3982V50.2347H21.5925V49.0219Z" fill="#070100"/>
<path d="M20.3979 50.2347H19.2036V51.4476H20.3979V50.2347Z" fill="#070100"/>
<path d="M20.3979 49.0219H19.2036V50.2347H20.3979V49.0219Z" fill="#070100"/>
<path d="M19.2038 47.856H17.9905V49.0219H19.2038V47.856Z" fill="#070100"/>
<path d="M19.2038 46.6432H17.9905V47.856H19.2038V46.6432Z" fill="#F7FAF7"/>
<path d="M19.2038 45.4303H17.9905V46.6432H19.2038V45.4303Z" fill="#F7FAF7"/>
<path d="M19.2038 44.2645H17.9905V45.4303H19.2038V44.2645Z" fill="#F7FAF7"/>
<path d="M19.2038 43.061H17.9905V44.2739H19.2038V43.061Z" fill="#F7FAF7"/>
<path d="M19.2038 41.8482H17.9905V43.061H19.2038V41.8482Z" fill="#F7FAF7"/>
<path d="M19.2038 40.6823H17.9905V41.8482H19.2038V40.6823Z" fill="#070100"/>
<path d="M19.2038 39.4695H17.9905V40.6823H19.2038V39.4695Z" fill="#070100"/>
<path d="M19.2038 38.2566H17.9905V39.4695H19.2038V38.2566Z" fill="#070100"/>
<path d="M19.2038 37.0908H17.9905V38.2566H19.2038V37.0908Z" fill="#070100"/>
<path d="M19.2038 35.8779H17.9905V37.0908H19.2038V35.8779Z" fill="#070100"/>
<path d="M19.2038 34.6745H17.9905V35.8873H19.2038V34.6745Z" fill="#070100"/>
<path d="M19.2038 33.4992H17.9905V34.6651H19.2038V33.4992Z" fill="#F7FAF7"/>
<path d="M19.2038 32.2958H17.9905V33.5086H19.2038V32.2958Z" fill="#F7FAF7"/>
<path d="M19.2038 31.0829H17.9905V32.2958H19.2038V31.0829Z" fill="#F7FAF7"/>
<path d="M17.9905 53.8169H16.7961V55.0298H17.9905V53.8169Z" fill="#F7FAF7"/>
<path d="M17.9905 52.651H16.7961V53.8169H17.9905V52.651Z" fill="#F7FAF7"/>
<path d="M17.9905 51.4476H16.7961V52.6604H17.9905V51.4476Z" fill="#F7FAF7"/>
<path d="M17.9905 50.2347H16.7961V51.4476H17.9905V50.2347Z" fill="#F7FAF7"/>
<path d="M17.9905 49.0219H16.7961V50.2347H17.9905V49.0219Z" fill="#F7FAF7"/>
<path d="M17.9905 47.856H16.7961V49.0219H17.9905V47.856Z" fill="#F7FAF7"/>
<path d="M17.9905 46.6432H16.7961V47.856H17.9905V46.6432Z" fill="#F7FAF7"/>
<path d="M17.9905 44.2645H16.7961V45.4303H17.9905V44.2645Z" fill="#F7FAF7"/>
<path d="M17.9905 43.061H16.7961V44.2739H17.9905V43.061Z" fill="#F7FAF7"/>
<path d="M17.9905 41.8482H16.7961V43.061H17.9905V41.8482Z" fill="#F7FAF7"/>
<path d="M17.9905 40.6823H16.7961V41.8482H17.9905V40.6823Z" fill="#070100"/>
<path d="M17.9905 39.4695H16.7961V40.6823H17.9905V39.4695Z" fill="#070100"/>
<path d="M17.9905 38.2566H16.7961V39.4695H17.9905V38.2566Z" fill="#070100"/>
<path d="M17.9905 37.0908H16.7961V38.2566H17.9905V37.0908Z" fill="#070100"/>
<path d="M17.9905 35.8779H16.7961V37.0908H17.9905V35.8779Z" fill="#070100"/>
<path d="M17.9905 34.6745H16.7961V35.8873H17.9905V34.6745Z" fill="#070100"/>
<path d="M16.8056 34.6745H15.6113V35.8873H16.8056V34.6745Z" fill="#070100"/>
<path d="M17.9905 33.4992H16.7961V34.6651H17.9905V33.4992Z" fill="#F7FAF7"/>
<path d="M17.9905 32.2958H16.7961V33.5086H17.9905V32.2958Z" fill="#F7FAF7"/>
<path d="M17.9905 31.0829H16.7961V32.2958H17.9905V31.0829Z" fill="#F7FAF7"/>
<path d="M28.8056 17.939H27.5923V19.1518H28.8056V17.939Z" fill="#63DFDB"/>
<path d="M28.8056 16.7261H27.5923V17.939H28.8056V16.7261Z" fill="#63DFDB"/>
<path d="M28.8056 15.5603H27.5923V16.7261H28.8056V15.5603Z" fill="#63DFDB"/>
<path d="M27.6018 20.3177H26.4075V21.5305H27.6018V20.3177Z" fill="#63DFDB"/>
<path d="M27.6018 19.1518H26.4075V20.3177H27.6018V19.1518Z" fill="#63DFDB"/>
<path d="M27.6018 17.939H26.4075V19.1518H27.6018V17.939Z" fill="#63DFDB"/>
<path d="M27.6018 16.7261H26.4075V17.939H27.6018V16.7261Z" fill="#63DFDB"/>
<path d="M26.4074 22.7434H25.2131V23.9092H26.4074V22.7434Z" fill="#63DFDB"/>
<path d="M26.4074 21.5305H25.2131V22.7434H26.4074V21.5305Z" fill="#63DFDB"/>
<path d="M26.4074 20.3177H25.2131V21.5305H26.4074V20.3177Z" fill="#63DFDB"/>
<path d="M26.4074 19.1518H25.2131V20.3177H26.4074V19.1518Z" fill="#63DFDB"/>
<path d="M26.4074 17.939H25.2131V19.1518H26.4074V17.939Z" fill="#63DFDB"/>
<path d="M25.2133 25.1127H24V26.3255H25.2133V25.1127Z" fill="#63DFDB"/>
<path d="M25.2133 23.9092H24V25.1221H25.2133V23.9092Z" fill="#63DFDB"/>
<path d="M25.2133 22.7434H24V23.9092H25.2133V22.7434Z" fill="#63DFDB"/>
<path d="M25.2133 21.5305H24V22.7434H25.2133V21.5305Z" fill="#63DFDB"/>
<path d="M25.2133 20.3177H24V21.5305H25.2133V20.3177Z" fill="#63DFDB"/>
<path d="M25.2133 19.1518H24V20.3177H25.2133V19.1518Z" fill="#63DFDB"/>
<path d="M25.2133 17.939H24V19.1518H25.2133V17.939Z" fill="#63DFDB"/>
<path d="M24 27.4914H22.8057V28.7042H24V27.4914Z" fill="#63DFDB"/>
<path d="M24 26.3255H22.8057V27.4914H24V26.3255Z" fill="#63DFDB"/>
<path d="M24 25.1127H22.8057V26.3255H24V25.1127Z" fill="#63DFDB"/>
<path d="M24 23.9092H22.8057V25.1221H24V23.9092Z" fill="#63DFDB"/>
<path d="M24 22.7434H22.8057V23.9092H24V22.7434Z" fill="#63DFDB"/>
<path d="M24 21.5305H22.8057V22.7434H24V21.5305Z" fill="#63DFDB"/>
<path d="M24 20.3177H22.8057V21.5305H24V20.3177Z" fill="#63DFDB"/>
<path d="M22.8056 27.4914H21.5923V28.7042H22.8056V27.4914Z" fill="#63DFDB"/>
<path d="M22.8056 26.3255H21.5923V27.4914H22.8056V26.3255Z" fill="#63DFDB"/>
<path d="M22.8056 25.1127H21.5923V26.3255H22.8056V25.1127Z" fill="#63DFDB"/>
<path d="M22.8056 23.9092H21.5923V25.1221H22.8056V23.9092Z" fill="#63DFDB"/>
<path d="M22.8056 22.7434H21.5923V23.9092H22.8056V22.7434Z" fill="#63DFDB"/>
<path d="M22.8056 21.5305H21.5923V22.7434H22.8056V21.5305Z" fill="#63DFDB"/>
<path d="M21.5923 28.7042H20.3979V29.9171H21.5923V28.7042Z" fill="#63DFDB"/>
<path d="M21.5923 27.4914H20.3979V28.7042H21.5923V27.4914Z" fill="#63DFDB"/>
<path d="M21.5923 26.3255H20.3979V27.4914H21.5923V26.3255Z" fill="#63DFDB"/>
<path d="M21.5923 25.1127H20.3979V26.3255H21.5923V25.1127Z" fill="#63DFDB"/>
<path d="M21.5923 23.9092H20.3979V25.1221H21.5923V23.9092Z" fill="#63DFDB"/>
<path d="M20.3982 28.7042H19.2039V29.9171H20.3982V28.7042Z" fill="#63DFDB"/>
<path d="M20.3982 27.4914H19.2039V28.7042H20.3982V27.4914Z" fill="#63DFDB"/>
<path d="M20.3982 26.3255H19.2039V27.4914H20.3982V26.3255Z" fill="#63DFDB"/>
<path d="M19.2037 28.7042H17.9905V29.9171H19.2037V28.7042Z" fill="#63DFDB"/>
<path d="M19.2037 27.4914H17.9905V28.7042H19.2037V27.4914Z" fill="#63DFDB"/>
<path d="M17.9905 28.7042H16.7961V29.9171H17.9905V28.7042Z" fill="#63DFDB"/>
<path d="M17.9905 26.3255H16.7961V27.4914H17.9905V26.3255Z" fill="#F7FAF7"/>
<path d="M16.8056 51.4476H15.6113V52.6604H16.8056V51.4476Z" fill="#F7FAF7"/>
<path d="M16.8056 50.2347H15.6113V51.4476H16.8056V50.2347Z" fill="#F7FAF7"/>
<path d="M16.8056 49.0219H15.6113V50.2347H16.8056V49.0219Z" fill="#F7FAF7"/>
<path d="M16.8056 47.856H15.6113V49.0219H16.8056V47.856Z" fill="#F7FAF7"/>
<path d="M16.8056 45.4303H15.6113V46.6432H16.8056V45.4303Z" fill="#F7FAF7"/>
<path d="M16.8056 44.2645H15.6113V45.4303H16.8056V44.2645Z" fill="#F7FAF7"/>
<path d="M16.8056 43.061H15.6113V44.2739H16.8056V43.061Z" fill="#F7FAF7"/>
<path d="M16.8056 41.8482H15.6113V43.061H16.8056V41.8482Z" fill="#F7FAF7"/>
<path d="M16.8056 40.6823H15.6113V41.8482H16.8056V40.6823Z" fill="#070100"/>
<path d="M16.8056 39.4695H15.6113V40.6823H16.8056V39.4695Z" fill="#070100"/>
<path d="M16.8056 38.2566H15.6113V39.4695H16.8056V38.2566Z" fill="#070100"/>
<path d="M16.8056 37.0908H15.6113V38.2566H16.8056V37.0908Z" fill="#070100"/>
<path d="M16.8056 35.8779H15.6113V37.0908H16.8056V35.8779Z" fill="#070100"/>
<path d="M16.8056 33.4992H15.6113V34.6651H16.8056V33.4992Z" fill="#F7FAF7"/>
<path d="M16.8056 32.2958H15.6113V33.5086H16.8056V32.2958Z" fill="#F7FAF7"/>
<path d="M16.8056 31.0829H15.6113V32.2958H16.8056V31.0829Z" fill="#F7FAF7"/>
<path d="M16.8056 29.9171H15.6113V31.0829H16.8056V29.9171Z" fill="#F7FAF7"/>
<path d="M30 17.939H28.8057V19.1518H30V17.939Z" fill="#070100"/>
<path d="M30 16.7261H28.8057V17.939H30V16.7261Z" fill="#070100"/>
<path d="M30 15.5603H28.8057V16.7261H30V15.5603Z" fill="#63DFDB"/>
<path d="M30 14.3474H28.8057V15.5603H30V14.3474Z" fill="#63DFDB"/>
<path d="M28.8058 20.3177H27.5925V21.5305H28.8058V20.3177Z" fill="#070100"/>
<path d="M28.8058 19.1518H27.5925V20.3177H28.8058V19.1518Z" fill="#070100"/>
<path d="M28.8058 14.3474H27.5925V15.5603H28.8058V14.3474Z" fill="#070100"/>
<path d="M27.6018 22.7434H26.4075V23.9092H27.6018V22.7434Z" fill="#070100"/>
<path d="M27.6018 21.5305H26.4075V22.7434H27.6018V21.5305Z" fill="#070100"/>
<path d="M27.6018 15.5603H26.4075V16.7261H27.6018V15.5603Z" fill="#070100"/>
<path d="M26.4074 25.1127H25.2131V26.3255H26.4074V25.1127Z" fill="#070100"/>
<path d="M26.4074 23.9092H25.2131V25.1221H26.4074V23.9092Z" fill="#070100"/>
<path d="M26.4074 16.7261H25.2131V17.939H26.4074V16.7261Z" fill="#070100"/>
<path d="M25.2133 27.4914H24V28.7042H25.2133V27.4914Z" fill="#070100"/>
<path d="M25.2133 26.3255H24V27.4914H25.2133V26.3255Z" fill="#070100"/>
<path d="M25.2133 16.7261H24V17.939H25.2133V16.7261Z" fill="#070100"/>
<path d="M24 28.7042H22.8057V29.9171H24V28.7042Z" fill="#070100"/>
<path d="M22.8056 28.7042H21.5923V29.9171H22.8056V28.7042Z" fill="#070100"/>
<path d="M21.5923 29.9171H20.3979V31.0829H21.5923V29.9171Z" fill="#070100"/>
<path d="M20.3979 29.9171H19.2036V31.0829H20.3979V29.9171Z" fill="#070100"/>
<path d="M19.2038 29.9171H17.9905V31.0829H19.2038V29.9171Z" fill="#070100"/>
<path d="M19.2038 26.3255H17.9905V27.4914H19.2038V26.3255Z" fill="#070100"/>
<path d="M17.9905 29.9171H16.7961V31.0829H17.9905V29.9171Z" fill="#070100"/>
<path d="M17.9905 27.4914H16.7961V28.7042H17.9905V27.4914Z" fill="#070100"/>
<path d="M16.8056 28.7042H15.6113V29.9171H16.8056V28.7042Z" fill="#070100"/>
<path d="M16.8056 27.4914H15.6113V28.7042H16.8056V27.4914Z" fill="#F7FAF7"/>
<path d="M15.6115 46.6432H14.3982V47.856H15.6115V46.6432Z" fill="#F7FAF7"/>
<path d="M15.6115 45.4303H14.3982V46.6432H15.6115V45.4303Z" fill="#F7FAF7"/>
<path d="M15.6115 44.2645H14.3982V45.4303H15.6115V44.2645Z" fill="#F7FAF7"/>
<path d="M15.6115 43.061H14.3982V44.2739H15.6115V43.061Z" fill="#F7FAF7"/>
<path d="M15.6115 41.8482H14.3982V43.061H15.6115V41.8482Z" fill="#F7FAF7"/>
<path d="M15.6115 40.6823H14.3982V41.8482H15.6115V40.6823Z" fill="#070100"/>
<path d="M15.6115 39.4695H14.3982V40.6823H15.6115V39.4695Z" fill="#070100"/>
<path d="M15.6115 38.2566H14.3982V39.4695H15.6115V38.2566Z" fill="#070100"/>
<path d="M15.6115 37.0908H14.3982V38.2566H15.6115V37.0908Z" fill="#070100"/>
<path d="M15.6115 35.8779H14.3982V37.0908H15.6115V35.8779Z" fill="#070100"/>
<path d="M15.6115 34.6745H14.3982V35.8873H15.6115V34.6745Z" fill="#070100"/>
<path d="M15.6115 33.4992H14.3982V34.6651H15.6115V33.4992Z" fill="#F7FAF7"/>
<path d="M15.6115 32.2958H14.3982V33.5086H15.6115V32.2958Z" fill="#F7FAF7"/>
<path d="M15.6115 29.9171H14.3982V31.0829H15.6115V29.9171Z" fill="#F7FAF7"/>
<path d="M15.6115 28.7042H14.3982V29.9171H15.6115V28.7042Z" fill="#F7FAF7"/>
<path d="M15.6115 27.4914H14.3982V28.7042H15.6115V27.4914Z" fill="#F7FAF7"/>
<path d="M15.6115 20.3177H14.3982V21.5305H15.6115V20.3177Z" fill="#F7FAF7"/>
<path d="M15.6115 19.1518H14.3982V20.3177H15.6115V19.1518Z" fill="#F7FAF7"/>
<path d="M14.3982 47.856H13.2039V49.0219H14.3982V47.856Z" fill="#F7FAF7"/>
<path d="M14.3982 46.6432H13.2039V47.856H14.3982V46.6432Z" fill="#F7FAF7"/>
<path d="M14.3982 45.4303H13.2039V46.6432H14.3982V45.4303Z" fill="#F7FAF7"/>
<path d="M14.3982 44.2645H13.2039V45.4303H14.3982V44.2645Z" fill="#F7FAF7"/>
<path d="M14.3982 43.061H13.2039V44.2739H14.3982V43.061Z" fill="#F7FAF7"/>
<path d="M14.3982 41.8482H13.2039V43.061H14.3982V41.8482Z" fill="#F7FAF7"/>
<path d="M14.3982 40.6823H13.2039V41.8482H14.3982V40.6823Z" fill="#070100"/>
<path d="M14.3982 39.4695H13.2039V40.6823H14.3982V39.4695Z" fill="#070100"/>
<path d="M14.3982 38.2566H13.2039V39.4695H14.3982V38.2566Z" fill="#070100"/>
<path d="M14.3982 37.0908H13.2039V38.2566H14.3982V37.0908Z" fill="#FFFFFE"/>
<path d="M14.3982 35.8779H13.2039V37.0908H14.3982V35.8779Z" fill="#070100"/>
<path d="M14.3982 34.6745H13.2039V35.8873H14.3982V34.6745Z" fill="#070100"/>
<path d="M14.3982 33.4992H13.2039V34.6651H14.3982V33.4992Z" fill="#F7FAF7"/>
<path d="M14.3982 32.2958H13.2039V33.5086H14.3982V32.2958Z" fill="#F7FAF7"/>
<path d="M14.3982 31.0829H13.2039V32.2958H14.3982V31.0829Z" fill="#F7FAF7"/>
<path d="M14.3982 28.7042H13.2039V29.9171H14.3982V28.7042Z" fill="#F7FAF7"/>
<path d="M14.3982 27.4914H13.2039V28.7042H14.3982V27.4914Z" fill="#F7FAF7"/>
<path d="M14.3982 21.5305H13.2039V22.7434H14.3982V21.5305Z" fill="#F7FAF7"/>
<path d="M14.3982 20.3177H13.2039V21.5305H14.3982V20.3177Z" fill="#F7FAF7"/>
<path d="M14.3982 19.1518H13.2039V20.3177H14.3982V19.1518Z" fill="#F7FAF7"/>
<path d="M14.3982 17.939H13.2039V19.1518H14.3982V17.939Z" fill="#F7FAF7"/>
<path d="M14.3982 14.3474H13.2039V15.5603H14.3982V14.3474Z" fill="#F7FAF7"/>
<path d="M13.2038 50.2347H12.0095V51.4476H13.2038V50.2347Z" fill="#F7FAF7"/>
<path d="M13.2038 46.6432H12.0095V47.856H13.2038V46.6432Z" fill="#F7FAF7"/>
<path d="M13.2038 45.4303H12.0095V46.6432H13.2038V45.4303Z" fill="#F7FAF7"/>
<path d="M13.2038 44.2645H12.0095V45.4303H13.2038V44.2645Z" fill="#F7FAF7"/>
<path d="M13.2038 43.061H12.0095V44.2739H13.2038V43.061Z" fill="#F7FAF7"/>
<path d="M13.2038 41.8482H12.0095V43.061H13.2038V41.8482Z" fill="#F7FAF7"/>
<path d="M13.2038 40.6823H12.0095V41.8482H13.2038V40.6823Z" fill="#070100"/>
<path d="M13.2038 39.4695H12.0095V40.6823H13.2038V39.4695Z" fill="#070100"/>
<path d="M13.2038 38.2566H12.0095V39.4695H13.2038V38.2566Z" fill="#070100"/>
<path d="M13.2038 37.0908H12.0095V38.2566H13.2038V37.0908Z" fill="#070100"/>
<path d="M13.2038 35.8779H12.0095V37.0908H13.2038V35.8779Z" fill="#FFFFFE"/>
<path d="M13.2038 34.6745H12.0095V35.8873H13.2038V34.6745Z" fill="#070100"/>
<path d="M13.2038 33.4992H12.0095V34.6651H13.2038V33.4992Z" fill="#F7FAF7"/>
<path d="M13.2038 32.2958H12.0095V33.5086H13.2038V32.2958Z" fill="#F7FAF7"/>
<path d="M13.2038 31.0829H12.0095V32.2958H13.2038V31.0829Z" fill="#F7FAF7"/>
<path d="M13.2038 28.7042H12.0095V29.9171H13.2038V28.7042Z" fill="#F7FAF7"/>
<path d="M13.2038 27.4914H12.0095V28.7042H13.2038V27.4914Z" fill="#F7FAF7"/>
<path d="M13.2038 21.5305H12.0095V22.7434H13.2038V21.5305Z" fill="#F7FAF7"/>
<path d="M13.2038 20.3177H12.0095V21.5305H13.2038V20.3177Z" fill="#F7FAF7"/>
<path d="M13.2038 19.1518H12.0095V20.3177H13.2038V19.1518Z" fill="#F7FAF7"/>
<path d="M13.2038 17.939H12.0095V19.1518H13.2038V17.939Z" fill="#F7FAF7"/>
<path d="M13.2038 16.7261H12.0095V17.939H13.2038V16.7261Z" fill="#F7FAF7"/>
<path d="M13.2038 15.5603H12.0095V16.7261H13.2038V15.5603Z" fill="#F7FAF7"/>
<path d="M13.2038 14.3474H12.0095V15.5603H13.2038V14.3474Z" fill="#F7FAF7"/>
<path d="M13.2038 13.144H12.0095V14.3568H13.2038V13.144Z" fill="#F7FAF7"/>
<path d="M13.2038 11.9781H12.0095V13.144H13.2038V11.9781Z" fill="#F7FAF7"/>
<path d="M12.0094 50.2347H10.7961V51.4476H12.0094V50.2347Z" fill="#F7FAF7"/>
<path d="M12.0094 49.0219H10.7961V50.2347H12.0094V49.0219Z" fill="#F7FAF7"/>
<path d="M12.0094 47.856H10.7961V49.0219H12.0094V47.856Z" fill="#F7FAF7"/>
<path d="M12.0094 45.4303H10.7961V46.6432H12.0094V45.4303Z" fill="#F7FAF7"/>
<path d="M12.0094 44.2645H10.7961V45.4303H12.0094V44.2645Z" fill="#F7FAF7"/>
<path d="M12.0094 43.061H10.7961V44.2739H12.0094V43.061Z" fill="#F7FAF7"/>
<path d="M12.0094 41.8482H10.7961V43.061H12.0094V41.8482Z" fill="#F7FAF7"/>
<path d="M12.0094 40.6823H10.7961V41.8482H12.0094V40.6823Z" fill="#F7FAF7"/>
<path d="M12.0094 39.4695H10.7961V40.6823H12.0094V39.4695Z" fill="#070100"/>
<path d="M12.0094 38.2566H10.7961V39.4695H12.0094V38.2566Z" fill="#070100"/>
<path d="M12.0094 37.0908H10.7961V38.2566H12.0094V37.0908Z" fill="#070100"/>
<path d="M12.0094 35.8779H10.7961V37.0908H12.0094V35.8779Z" fill="#070100"/>
<path d="M12.0094 34.6745H10.7961V35.8873H12.0094V34.6745Z" fill="#070100"/>
<path d="M12.0094 33.4992H10.7961V34.6651H12.0094V33.4992Z" fill="#F7FAF7"/>
<path d="M12.0094 32.2958H10.7961V33.5086H12.0094V32.2958Z" fill="#F7FAF7"/>
<path d="M12.0094 31.0829H10.7961V32.2958H12.0094V31.0829Z" fill="#F7FAF7"/>
<path d="M12.0094 28.7042H10.7961V29.9171H12.0094V28.7042Z" fill="#F7FAF7"/>
<path d="M12.0094 27.4914H10.7961V28.7042H12.0094V27.4914Z" fill="#F7FAF7"/>
<path d="M12.0094 26.3255H10.7961V27.4914H12.0094V26.3255Z" fill="#F7FAF7"/>
<path d="M12.0094 22.7434H10.7961V23.9092H12.0094V22.7434Z" fill="#F7FAF7"/>
<path d="M12.0094 21.5305H10.7961V22.7434H12.0094V21.5305Z" fill="#F7FAF7"/>
<path d="M12.0094 14.3474H10.7961V15.5603H12.0094V14.3474Z" fill="#F7FAF7"/>
<path d="M12.0094 13.144H10.7961V14.3568H12.0094V13.144Z" fill="#F7FAF7"/>
<path d="M12.0094 11.9781H10.7961V13.144H12.0094V11.9781Z" fill="#F7FAF7"/>
<path d="M12.0094 10.7653H10.7961V11.9781H12.0094V10.7653Z" fill="#F7FAF7"/>
<path d="M12.0094 9.5524H10.7961V10.7653H12.0094V9.5524Z" fill="#F7FAF7"/>
<path d="M10.7961 51.4476H9.60181V52.6604H10.7961V51.4476Z" fill="#F7FAF7"/>
<path d="M10.7961 50.2347H9.60181V51.4476H10.7961V50.2347Z" fill="#F7FAF7"/>
<path d="M10.7961 49.0219H9.60181V50.2347H10.7961V49.0219Z" fill="#F7FAF7"/>
<path d="M10.7961 47.856H9.60181V49.0219H10.7961V47.856Z" fill="#F7FAF7"/>
<path d="M10.7961 46.6432H9.60181V47.856H10.7961V46.6432Z" fill="#F7FAF7"/>
<path d="M10.7961 44.2645H9.60181V45.4303H10.7961V44.2645Z" fill="#F7FAF7"/>
<path d="M10.7961 43.061H9.60181V44.2739H10.7961V43.061Z" fill="#F7FAF7"/>
<path d="M10.7961 41.8482H9.60181V43.061H10.7961V41.8482Z" fill="#F7FAF7"/>
<path d="M10.7961 40.6823H9.60181V41.8482H10.7961V40.6823Z" fill="#F7FAF7"/>
<path d="M10.7961 39.4695H9.60181V40.6823H10.7961V39.4695Z" fill="#070100"/>
<path d="M10.7961 38.2566H9.60181V39.4695H10.7961V38.2566Z" fill="#070100"/>
<path d="M10.7961 37.0908H9.60181V38.2566H10.7961V37.0908Z" fill="#070100"/>
<path d="M10.7961 35.8779H9.60181V37.0908H10.7961V35.8779Z" fill="#070100"/>
<path d="M10.7961 34.6745H9.60181V35.8873H10.7961V34.6745Z" fill="#070100"/>
<path d="M10.7961 33.4992H9.60181V34.6651H10.7961V33.4992Z" fill="#F7FAF7"/>
<path d="M10.7961 32.2958H9.60181V33.5086H10.7961V32.2958Z" fill="#F7FAF7"/>
<path d="M38.3979 31.0829H37.2036V32.2958H38.3979V31.0829Z" fill="#070100"/>
<path d="M37.2038 29.9171H36.0095V31.0829H37.2038V29.9171Z" fill="#070100"/>
<path d="M36.0094 29.9171H34.7961V31.0829H36.0094V29.9171Z" fill="#070100"/>
<path d="M34.7961 29.9171H33.6018V31.0829H34.7961V29.9171Z" fill="#070100"/>
<path d="M33.6018 31.0829H32.4075V32.2958H33.6018V31.0829Z" fill="#070100"/>
<path d="M15.6112 31.0829H14.3979V32.2958H15.6112V31.0829Z" fill="#070100"/>
<path d="M14.3979 29.9171H13.2036V31.0829H14.3979V29.9171Z" fill="#070100"/>
<path d="M13.2038 29.9171H12.0095V31.0829H13.2038V29.9171Z" fill="#070100"/>
<path d="M12.0094 29.9171H10.7961V31.0829H12.0094V29.9171Z" fill="#070100"/>
<path d="M10.7961 31.0829H9.60181V32.2958H10.7961V31.0829Z" fill="#070100"/>
<path d="M10.7961 29.9171H9.60181V31.0829H10.7961V29.9171Z" fill="#F7FAF7"/>
<path d="M10.7961 28.7042H9.60181V29.9171H10.7961V28.7042Z" fill="#F7FAF7"/>
<path d="M10.7961 27.4914H9.60181V28.7042H10.7961V27.4914Z" fill="#F7FAF7"/>
<path d="M10.7961 26.3255H9.60181V27.4914H10.7961V26.3255Z" fill="#F7FAF7"/>
<path d="M10.7961 22.7434H9.60181V23.9092H10.7961V22.7434Z" fill="#F7FAF7"/>
<path d="M38.3979 19.1518H37.2036V20.3177H38.3979V19.1518Z" fill="#63DFDB"/>
<path d="M38.3979 17.939H37.2036V19.1518H38.3979V17.939Z" fill="#63DFDB"/>
<path d="M38.3979 16.7261H37.2036V17.939H38.3979V16.7261Z" fill="#63DFDB"/>
<path d="M38.3979 15.5603H37.2036V16.7261H38.3979V15.5603Z" fill="#63DFDB"/>
<path d="M10.7961 19.1518H9.60181V20.3177H10.7961V19.1518Z" fill="#63DFDB"/>
<path d="M10.7961 17.939H9.60181V19.1518H10.7961V17.939Z" fill="#63DFDB"/>
<path d="M10.7961 16.7261H9.60181V17.939H10.7961V16.7261Z" fill="#63DFDB"/>
<path d="M10.7961 15.5603H9.60181V16.7261H10.7961V15.5603Z" fill="#63DFDB"/>
<path d="M12.0094 20.3177H10.7961V21.5305H12.0094V20.3177Z" fill="#070100"/>
<path d="M12.0094 19.1518H10.7961V20.3177H12.0094V19.1518Z" fill="#070100"/>
<path d="M12.0094 17.939H10.7961V19.1518H12.0094V17.939Z" fill="#070100"/>
<path d="M12.0094 16.7261H10.7961V17.939H12.0094V16.7261Z" fill="#070100"/>
<path d="M12.0094 15.5603H10.7961V16.7261H12.0094V15.5603Z" fill="#070100"/>
<path d="M10.7961 21.5305H9.60181V22.7434H10.7961V21.5305Z" fill="#070100"/>
<path d="M10.7961 14.3474H9.60181V15.5603H10.7961V14.3474Z" fill="#070100"/>
<path d="M10.7961 13.144H9.60181V14.3568H10.7961V13.144Z" fill="#070100"/>
<path d="M10.7961 11.9781H9.60181V13.144H10.7961V11.9781Z" fill="#070100"/>
<path d="M10.7961 10.7653H9.60181V11.9781H10.7961V10.7653Z" fill="#F7FAF7"/>
<path d="M10.7961 9.5524H9.60181V10.7653H10.7961V9.5524Z" fill="#F7FAF7"/>
<path d="M9.60178 51.4476H8.40747V52.6604H9.60178V51.4476Z" fill="#F7FAF7"/>
<path d="M9.60178 50.2347H8.40747V51.4476H9.60178V50.2347Z" fill="#F7FAF7"/>
<path d="M9.60178 49.0219H8.40747V50.2347H9.60178V49.0219Z" fill="#F7FAF7"/>
<path d="M9.60178 47.856H8.40747V49.0219H9.60178V47.856Z" fill="#F7FAF7"/>
<path d="M9.60178 46.6432H8.40747V47.856H9.60178V46.6432Z" fill="#F7FAF7"/>
<path d="M9.60178 44.2645H8.40747V45.4303H9.60178V44.2645Z" fill="#F7FAF7"/>
<path d="M9.60178 43.061H8.40747V44.2739H9.60178V43.061Z" fill="#F7FAF7"/>
<path d="M9.60178 41.8482H8.40747V43.061H9.60178V41.8482Z" fill="#F7FAF7"/>
<path d="M9.60178 40.6823H8.40747V41.8482H9.60178V40.6823Z" fill="#F7FAF7"/>
<path d="M9.60178 39.4695H8.40747V40.6823H9.60178V39.4695Z" fill="#F7FAF7"/>
<path d="M9.60178 38.2566H8.40747V39.4695H9.60178V38.2566Z" fill="#070100"/>
<path d="M9.60178 37.0908H8.40747V38.2566H9.60178V37.0908Z" fill="#070100"/>
<path d="M9.60178 35.8779H8.40747V37.0908H9.60178V35.8779Z" fill="#070100"/>
<path d="M9.60178 34.6745H8.40747V35.8873H9.60178V34.6745Z" fill="#F7FAF7"/>
<path d="M9.60178 33.4992H8.40747V34.6651H9.60178V33.4992Z" fill="#F7FAF7"/>
<path d="M9.60178 32.2958H8.40747V33.5086H9.60178V32.2958Z" fill="#F7FAF7"/>
<path d="M9.60178 31.0829H8.40747V32.2958H9.60178V31.0829Z" fill="#F7FAF7"/>
<path d="M9.60178 29.9171H8.40747V31.0829H9.60178V29.9171Z" fill="#F7FAF7"/>
<path d="M9.60178 28.7042H8.40747V29.9171H9.60178V28.7042Z" fill="#F7FAF7"/>
<path d="M9.60178 27.4914H8.40747V28.7042H9.60178V27.4914Z" fill="#F7FAF7"/>
<path d="M9.60178 26.3255H8.40747V27.4914H9.60178V26.3255Z" fill="#F7FAF7"/>
<path d="M9.60178 21.5305H8.40747V22.7434H9.60178V21.5305Z" fill="#F7FAF7"/>
<path d="M9.60178 20.3177H8.40747V21.5305H9.60178V20.3177Z" fill="#F7FAF7"/>
<path d="M39.6017 19.1518H38.3884V20.3177H39.6017V19.1518Z" fill="#2A9691"/>
<path d="M39.6017 17.939H38.3884V19.1518H39.6017V17.939Z" fill="#2A9691"/>
<path d="M39.6017 16.7261H38.3884V17.939H39.6017V16.7261Z" fill="#2A9691"/>
<path d="M39.6017 15.5603H38.3884V16.7261H39.6017V15.5603Z" fill="#2A9691"/>
<path d="M38.3979 20.3177H37.2036V21.5305H38.3979V20.3177Z" fill="#2A9691"/>
<path d="M10.7961 20.3177H9.60181V21.5305H10.7961V20.3177Z" fill="#2A9691"/>
<path d="M9.60178 19.1518H8.40747V20.3177H9.60178V19.1518Z" fill="#2A9691"/>
<path d="M9.60178 17.939H8.40747V19.1518H9.60178V17.939Z" fill="#2A9691"/>
<path d="M9.60178 16.7261H8.40747V17.939H9.60178V16.7261Z" fill="#2A9691"/>
<path d="M9.60178 15.5603H8.40747V16.7261H9.60178V15.5603Z" fill="#2A9691"/>
<path d="M9.60178 14.3474H8.40747V15.5603H9.60178V14.3474Z" fill="#F7FAF7"/>
<path d="M9.60178 13.144H8.40747V14.3568H9.60178V13.144Z" fill="#F7FAF7"/>
<path d="M9.60178 11.9781H8.40747V13.144H9.60178V11.9781Z" fill="#F7FAF7"/>
<path d="M8.40761 51.4476H7.19434V52.6604H8.40761V51.4476Z" fill="#F7FAF7"/>
<path d="M8.40761 50.2347H7.19434V51.4476H8.40761V50.2347Z" fill="#F7FAF7"/>
<path d="M8.40761 49.0219H7.19434V50.2347H8.40761V49.0219Z" fill="#F7FAF7"/>
<path d="M8.40761 47.856H7.19434V49.0219H8.40761V47.856Z" fill="#F7FAF7"/>
<path d="M8.40761 46.6432H7.19434V47.856H8.40761V46.6432Z" fill="#F7FAF7"/>
<path d="M8.40761 44.2645H7.19434V45.4303H8.40761V44.2645Z" fill="#F7FAF7"/>
<path d="M8.40761 43.061H7.19434V44.2739H8.40761V43.061Z" fill="#F7FAF7"/>
<path d="M8.40761 41.8482H7.19434V43.061H8.40761V41.8482Z" fill="#F7FAF7"/>
<path d="M8.40761 40.6823H7.19434V41.8482H8.40761V40.6823Z" fill="#F7FAF7"/>
<path d="M8.40761 39.4695H7.19434V40.6823H8.40761V39.4695Z" fill="#F7FAF7"/>
<path d="M8.40761 38.2566H7.19434V39.4695H8.40761V38.2566Z" fill="#070100"/>
<path d="M8.40761 37.0908H7.19434V38.2566H8.40761V37.0908Z" fill="#070100"/>
<path d="M8.40761 35.8779H7.19434V37.0908H8.40761V35.8779Z" fill="#070100"/>
<path d="M8.40761 34.6745H7.19434V35.8873H8.40761V34.6745Z" fill="#F7FAF7"/>
<path d="M8.40761 33.4992H7.19434V34.6651H8.40761V33.4992Z" fill="#F7FAF7"/>
<path d="M8.40761 32.2958H7.19434V33.5086H8.40761V32.2958Z" fill="#F7FAF7"/>
<path d="M8.40761 31.0829H7.19434V32.2958H8.40761V31.0829Z" fill="#F7FAF7"/>
<path d="M8.40761 19.1518H7.19434V20.3177H8.40761V19.1518Z" fill="#F7FAF7"/>
<path d="M8.40761 17.939H7.19434V19.1518H8.40761V17.939Z" fill="#F7FAF7"/>
<path d="M8.40761 16.7261H7.19434V17.939H8.40761V16.7261Z" fill="#F7FAF7"/>
<path d="M8.40761 15.5603H7.19434V16.7261H8.40761V15.5603Z" fill="#F7FAF7"/>
<path d="M8.40761 14.3474H7.19434V15.5603H8.40761V14.3474Z" fill="#F7FAF7"/>
<path d="M7.20383 51.4476H6.00952V52.6604H7.20383V51.4476Z" fill="#F7FAF7"/>
<path d="M7.20383 50.2347H6.00952V51.4476H7.20383V50.2347Z" fill="#F7FAF7"/>
<path d="M7.20383 49.0219H6.00952V50.2347H7.20383V49.0219Z" fill="#F7FAF7"/>
<path d="M7.20383 47.856H6.00952V49.0219H7.20383V47.856Z" fill="#F7FAF7"/>
<path d="M7.20383 46.6432H6.00952V47.856H7.20383V46.6432Z" fill="#F7FAF7"/>
<path d="M7.20383 40.6823H6.00952V41.8482H7.20383V40.6823Z" fill="#F7FAF7"/>
<path d="M7.20383 39.4695H6.00952V40.6823H7.20383V39.4695Z" fill="#F7FAF7"/>
<path d="M7.20383 38.2566H6.00952V39.4695H7.20383V38.2566Z" fill="#F7FAF7"/>
<path d="M7.20383 37.0908H6.00952V38.2566H7.20383V37.0908Z" fill="#070100"/>
<path d="M7.20383 35.8779H6.00952V37.0908H7.20383V35.8779Z" fill="#070100"/>
<path d="M7.20383 34.6745H6.00952V35.8873H7.20383V34.6745Z" fill="#F7FAF7"/>
<path d="M7.20383 33.4992H6.00952V34.6651H7.20383V33.4992Z" fill="#F7FAF7"/>
<path d="M14.3982 13.144H13.2039V14.3568H14.3982V13.144Z" fill="#070100"/>
<path d="M14.3982 11.9781H13.2039V13.144H14.3982V11.9781Z" fill="#070100"/>
<path d="M13.2038 10.7653H12.0095V11.9781H13.2038V10.7653Z" fill="#070100"/>
<path d="M13.2038 9.5524H12.0095V10.7653H13.2038V9.5524Z" fill="#070100"/>
<path d="M12.0094 8.38656H10.7961V9.55241H12.0094V8.38656Z" fill="#070100"/>
<path d="M10.7964 8.38656H9.60205V9.55241H10.7964V8.38656Z" fill="#070100"/>
<path d="M9.60203 22.7434H8.40771V23.9092H9.60203V22.7434Z" fill="#070100"/>
<path d="M9.60203 10.7653H8.40771V11.9781H9.60203V10.7653Z" fill="#070100"/>
<path d="M9.60203 9.5524H8.40771V10.7653H9.60203V9.5524Z" fill="#070100"/>
<path d="M9.60203 8.38656H8.40771V9.55241H9.60203V8.38656Z" fill="#070100"/>
<path d="M8.40761 21.5305H7.19434V22.7434H8.40761V21.5305Z" fill="#070100"/>
<path d="M8.40761 20.3177H7.19434V21.5305H8.40761V20.3177Z" fill="#070100"/>
<path d="M8.40761 13.144H7.19434V14.3568H8.40761V13.144Z" fill="#070100"/>
<path d="M8.40761 11.9781H7.19434V13.144H8.40761V11.9781Z" fill="#070100"/>
<path d="M7.20383 19.1518H6.00952V20.3177H7.20383V19.1518Z" fill="#070100"/>
<path d="M7.20383 17.939H6.00952V19.1518H7.20383V17.939Z" fill="#070100"/>
<path d="M7.20383 16.7261H6.00952V17.939H7.20383V16.7261Z" fill="#070100"/>
<path d="M7.20383 15.5603H6.00952V16.7261H7.20383V15.5603Z" fill="#070100"/>
<path d="M7.20383 14.3474H6.00952V15.5603H7.20383V14.3474Z" fill="#070100"/>
<path d="M6.0095 51.4476H4.81519V52.6604H6.0095V51.4476Z" fill="#F7FAF7"/>
<path d="M6.0095 50.2347H4.81519V51.4476H6.0095V50.2347Z" fill="#F7FAF7"/>
<path d="M6.0095 49.0219H4.81519V50.2347H6.0095V49.0219Z" fill="#F7FAF7"/>
<path d="M6.0095 47.856H4.81519V49.0219H6.0095V47.856Z" fill="#F7FAF7"/>
<path d="M6.0095 46.6432H4.81519V47.856H6.0095V46.6432Z" fill="#F7FAF7"/>
<path d="M4.81508 51.4476H3.60181V52.6604H4.81508V51.4476Z" fill="#F7FAF7"/>
<path d="M4.81508 50.2347H3.60181V51.4476H4.81508V50.2347Z" fill="#F7FAF7"/>
<path d="M4.81508 49.0219H3.60181V50.2347H4.81508V49.0219Z" fill="#F7FAF7"/>
<path d="M4.81508 47.856H3.60181V49.0219H4.81508V47.856Z" fill="#F7FAF7"/>
<path d="M4.81508 46.6432H3.60181V47.856H4.81508V46.6432Z" fill="#F7FAF7"/>
<path d="M3.60203 50.2347H2.40771V51.4476H3.60203V50.2347Z" fill="#F7FAF7"/>
<path d="M3.60203 49.0219H2.40771V50.2347H3.60203V49.0219Z" fill="#F7FAF7"/>
<path d="M3.60203 47.856H2.40771V49.0219H3.60203V47.856Z" fill="#F7FAF7"/>
<path d="M2.40745 50.2347H1.21313V51.4476H2.40745V50.2347Z" fill="#F7FAF7"/>
<path d="M14.3982 57.4084H13.2039V58.6213H14.3982V57.4084Z" fill="#070100"/>
<path d="M14.3982 55.0298H13.2039V56.2426H14.3982V55.0298Z" fill="#070100"/>
<path d="M14.3982 53.8169H13.2039V55.0298H14.3982V53.8169Z" fill="#070100"/>
<path d="M14.3982 52.651H13.2039V53.8169H14.3982V52.651Z" fill="#070100"/>
<path d="M14.3982 51.4476H13.2039V52.6604H14.3982V51.4476Z" fill="#070100"/>
<path d="M14.3982 50.2347H13.2039V51.4476H14.3982V50.2347Z" fill="#070100"/>
<path d="M13.2038 58.6213H12.0095V59.8341H13.2038V58.6213Z" fill="#070100"/>
<path d="M13.2038 51.4476H12.0095V52.6604H13.2038V51.4476Z" fill="#070100"/>
<path d="M12.0094 59.8248H10.7961V60.9906H12.0094V59.8248Z" fill="#070100"/>
<path d="M12.0094 51.4476H10.7961V52.6604H12.0094V51.4476Z" fill="#070100"/>
<path d="M10.7961 59.8248H9.60181V60.9906H10.7961V59.8248Z" fill="#070100"/>
<path d="M10.7961 52.651H9.60181V53.8169H10.7961V52.651Z" fill="#070100"/>
<path d="M9.60178 52.651H8.40747V53.8169H9.60178V52.651Z" fill="#070100"/>
<path d="M8.40761 59.8248H7.19434V60.9906H8.40761V59.8248Z" fill="#070100"/>
<path d="M8.40761 52.651H7.19434V53.8169H8.40761V52.651Z" fill="#070100"/>
<path d="M7.20383 59.8248H6.00952V60.9906H7.20383V59.8248Z" fill="#070100"/>
<path d="M7.20383 52.651H6.00952V53.8169H7.20383V52.651Z" fill="#070100"/>
<path d="M6.0095 59.8248H4.81519V60.9906H6.0095V59.8248Z" fill="#070100"/>
<path d="M6.0095 52.651H4.81519V53.8169H6.0095V52.651Z" fill="#070100"/>
<path d="M4.81508 52.651H3.60181V53.8169H4.81508V52.651Z" fill="#070100"/>
<path d="M3.60203 51.4476H2.40771V52.6604H3.60203V51.4476Z" fill="#070100"/>
<path d="M2.40745 58.6213H1.21313V59.8341H2.40745V58.6213Z" fill="#070100"/>
<path d="M2.40745 51.4476H1.21313V52.6604H2.40745V51.4476Z" fill="#070100"/>
<path d="M1.21327 57.4084H0V58.6213H1.21327V57.4084Z" fill="#070100"/>
<path d="M1.21327 56.2426H0V57.4084H1.21327V56.2426Z" fill="#070100"/>
<path d="M1.21327 55.0298H0V56.2426H1.21327V55.0298Z" fill="#070100"/>
<path d="M1.21327 53.8169H0V55.0298H1.21327V53.8169Z" fill="#070100"/>
<path d="M1.21327 52.651H0V53.8169H1.21327V52.651Z" fill="#070100"/>
<path d="M1.21327 51.4476H0V52.6604H1.21327V51.4476Z" fill="#070100"/>
<path d="M1.21327 50.2347H0V51.4476H1.21327V50.2347Z" fill="#070100"/>
<path d="M9.60178 59.8248H8.40747V60.9906H9.60178V59.8248Z" fill="#070100"/>
<path d="M14.3982 56.2426H13.2039V57.4084H14.3982V56.2426Z" fill="#070100"/>
<path d="M4.81508 59.8248H3.60181V60.9906H4.81508V59.8248Z" fill="#070100"/>
<path d="M3.60203 59.8248H2.40771V60.9906H3.60203V59.8248Z" fill="#070100"/>
<path d="M46.8056 49.0219H45.6113V50.2347H46.8056V49.0219Z" fill="#070100"/>
<path d="M46.8056 47.856H45.6113V49.0219H46.8056V47.856Z" fill="#070100"/>
<path d="M45.6115 46.6432H44.3982V47.856H45.6115V46.6432Z" fill="#070100"/>
<path d="M44.3979 45.4303H43.2036V46.6432H44.3979V45.4303Z" fill="#070100"/>
<path d="M43.2038 45.4303H41.9905V46.6432H43.2038V45.4303Z" fill="#070100"/>
<path d="M43.2038 40.6823H41.9905V41.8482H43.2038V40.6823Z" fill="#070100"/>
<path d="M43.2038 39.4695H41.9905V40.6823H43.2038V39.4695Z" fill="#070100"/>
<path d="M43.2038 38.2566H41.9905V39.4695H43.2038V38.2566Z" fill="#070100"/>
<path d="M43.2038 37.0908H41.9905V38.2566H43.2038V37.0908Z" fill="#070100"/>
<path d="M43.2038 35.8779H41.9905V37.0908H43.2038V35.8779Z" fill="#070100"/>
<path d="M43.2038 34.6745H41.9905V35.8873H43.2038V34.6745Z" fill="#070100"/>
<path d="M43.2038 33.4992H41.9905V34.6651H43.2038V33.4992Z" fill="#070100"/>
<path d="M41.9905 45.4303H40.7961V46.6432H41.9905V45.4303Z" fill="#070100"/>
<path d="M41.9905 44.2645H40.7961V45.4303H41.9905V44.2645Z" fill="#070100"/>
<path d="M41.9905 43.061H40.7961V44.2739H41.9905V43.061Z" fill="#070100"/>
<path d="M41.9905 41.8482H40.7961V43.061H41.9905V41.8482Z" fill="#070100"/>
<path d="M41.9905 32.2958H40.7961V33.5086H41.9905V32.2958Z" fill="#070100"/>
<path d="M41.9905 31.0829H40.7961V32.2958H41.9905V31.0829Z" fill="#070100"/>
<path d="M41.9905 29.9171H40.7961V31.0829H41.9905V29.9171Z" fill="#070100"/>
<path d="M40.7961 45.4303H39.6018V46.6432H40.7961V45.4303Z" fill="#070100"/>
<path d="M40.7961 28.7042H39.6018V29.9171H40.7961V28.7042Z" fill="#070100"/>
<path d="M40.7961 27.4914H39.6018V28.7042H40.7961V27.4914Z" fill="#070100"/>
<path d="M40.7961 26.3255H39.6018V27.4914H40.7961V26.3255Z" fill="#070100"/>
<path d="M39.6019 45.4303H38.3887V46.6432H39.6019V45.4303Z" fill="#070100"/>
<path d="M38.3982 45.4303H37.2039V46.6432H38.3982V45.4303Z" fill="#070100"/>
<path d="M37.2038 46.6432H36.0095V47.856H37.2038V46.6432Z" fill="#070100"/>
<path d="M36.0094 49.0219H34.7961V50.2347H36.0094V49.0219Z" fill="#070100"/>
<path d="M36.0094 47.856H34.7961V49.0219H36.0094V47.856Z" fill="#070100"/>
<path d="M33.602 51.4476H32.4077V52.6604H33.602V51.4476Z" fill="#070100"/>
<path d="M33.602 50.2347H32.4077V51.4476H33.602V50.2347Z" fill="#070100"/>
<path d="M33.602 49.0219H32.4077V50.2347H33.602V49.0219Z" fill="#070100"/>
<path d="M33.602 47.856H32.4077V49.0219H33.602V47.856Z" fill="#070100"/>
<path d="M32.4076 53.8169H31.1943V55.0298H32.4076V53.8169Z" fill="#070100"/>
<path d="M32.4076 52.651H31.1943V53.8169H32.4076V52.651Z" fill="#070100"/>
<path d="M32.4076 46.6432H31.1943V47.856H32.4076V46.6432Z" fill="#070100"/>
<path d="M31.1943 55.0298H30V56.2426H31.1943V55.0298Z" fill="#070100"/>
<path d="M31.1943 45.4303H30V46.6432H31.1943V45.4303Z" fill="#070100"/>
<path d="M30 55.0298H28.8057V56.2426H30V55.0298Z" fill="#070100"/>
<path d="M28.8056 56.2426H27.5923V57.4084H28.8056V56.2426Z" fill="#070100"/>
<path d="M27.6018 56.2426H26.4075V57.4084H27.6018V56.2426Z" fill="#070100"/>
<path d="M26.4077 56.2426H25.2134V57.4084H26.4077V56.2426Z" fill="#070100"/>
<path d="M25.2133 56.2426H24V57.4084H25.2133V56.2426Z" fill="#070100"/>
<path d="M24 56.2426H22.8057V57.4084H24V56.2426Z" fill="#070100"/>
<path d="M22.8058 56.2426H21.5925V57.4084H22.8058V56.2426Z" fill="#070100"/>
<path d="M21.5925 56.2426H20.3982V57.4084H21.5925V56.2426Z" fill="#070100"/>
<path d="M20.3982 56.2426H19.2039V57.4084H20.3982V56.2426Z" fill="#070100"/>
<path d="M19.2038 55.0298H17.9905V56.2426H19.2038V55.0298Z" fill="#070100"/>
<path d="M17.9905 55.0298H16.7961V56.2426H17.9905V55.0298Z" fill="#070100"/>
<path d="M17.9905 45.4303H16.7961V46.6432H17.9905V45.4303Z" fill="#070100"/>
<path d="M16.8056 53.8169H15.6113V55.0298H16.8056V53.8169Z" fill="#070100"/>
<path d="M16.8056 52.651H15.6113V53.8169H16.8056V52.651Z" fill="#070100"/>
<path d="M16.8056 46.6432H15.6113V47.856H16.8056V46.6432Z" fill="#070100"/>
<path d="M15.6115 51.4476H14.3982V52.6604H15.6115V51.4476Z" fill="#070100"/>
<path d="M15.6115 50.2347H14.3982V51.4476H15.6115V50.2347Z" fill="#070100"/>
<path d="M15.6115 49.0219H14.3982V50.2347H15.6115V49.0219Z" fill="#070100"/>
<path d="M15.6115 47.856H14.3982V49.0219H15.6115V47.856Z" fill="#070100"/>
<path d="M14.3982 49.0219H13.2039V50.2347H14.3982V49.0219Z" fill="#070100"/>
<path d="M13.2038 49.0219H12.0095V50.2347H13.2038V49.0219Z" fill="#070100"/>
<path d="M13.2038 47.856H12.0095V49.0219H13.2038V47.856Z" fill="#070100"/>
<path d="M12.0094 46.6432H10.7961V47.856H12.0094V46.6432Z" fill="#070100"/>
<path d="M10.7961 45.4303H9.60181V46.6432H10.7961V45.4303Z" fill="#070100"/>
<path d="M9.60178 45.4303H8.40747V46.6432H9.60178V45.4303Z" fill="#070100"/>
<path d="M8.40761 45.4303H7.19434V46.6432H8.40761V45.4303Z" fill="#070100"/>
<path d="M8.40761 29.9171H7.19434V31.0829H8.40761V29.9171Z" fill="#070100"/>
<path d="M8.40761 28.7042H7.19434V29.9171H8.40761V28.7042Z" fill="#070100"/>
<path d="M8.40761 27.4914H7.19434V28.7042H8.40761V27.4914Z" fill="#070100"/>
<path d="M8.40761 26.3255H7.19434V27.4914H8.40761V26.3255Z" fill="#070100"/>
<path d="M7.20383 45.4303H6.00952V46.6432H7.20383V45.4303Z" fill="#070100"/>
<path d="M7.20383 44.2645H6.00952V45.4303H7.20383V44.2645Z" fill="#070100"/>
<path d="M7.20383 43.061H6.00952V44.2739H7.20383V43.061Z" fill="#070100"/>
<path d="M7.20383 41.8482H6.00952V43.061H7.20383V41.8482Z" fill="#070100"/>
<path d="M7.20383 32.2958H6.00952V33.5086H7.20383V32.2958Z" fill="#070100"/>
<path d="M7.20383 31.0829H6.00952V32.2958H7.20383V31.0829Z" fill="#070100"/>
<path d="M6.0095 45.4303H4.81519V46.6432H6.0095V45.4303Z" fill="#070100"/>
<path d="M6.0095 40.6823H4.81519V41.8482H6.0095V40.6823Z" fill="#070100"/>
<path d="M6.0095 39.4695H4.81519V40.6823H6.0095V39.4695Z" fill="#070100"/>
<path d="M6.0095 38.2566H4.81519V39.4695H6.0095V38.2566Z" fill="#070100"/>
<path d="M6.0095 37.0908H4.81519V38.2566H6.0095V37.0908Z" fill="#070100"/>
<path d="M6.0095 35.8779H4.81519V37.0908H6.0095V35.8779Z" fill="#070100"/>
<path d="M6.0095 34.6745H4.81519V35.8873H6.0095V34.6745Z" fill="#070100"/>
<path d="M6.0095 33.4992H4.81519V34.6651H6.0095V33.4992Z" fill="#070100"/>
<path d="M4.81508 45.4303H3.60181V46.6432H4.81508V45.4303Z" fill="#070100"/>
<path d="M3.60203 46.6432H2.40771V47.856H3.60203V46.6432Z" fill="#070100"/>
<path d="M2.40745 49.0219H1.21313V50.2347H2.40745V49.0219Z" fill="#070100"/>
<path d="M2.40745 47.856H1.21313V49.0219H2.40745V47.856Z" fill="#070100"/>
<path d="M1.21327 49.0219H0V50.2347H1.21327V49.0219Z" fill="#070100"/>
<path d="M13.2036 57.4084H12.0093V58.6213H13.2036V57.4084Z" fill="#63DFDB"/>
<path d="M13.2036 55.0298H12.0093V56.2426H13.2036V55.0298Z" fill="#63DFDB"/>
<path d="M13.2036 53.8169H12.0093V55.0298H13.2036V53.8169Z" fill="#63DFDB"/>
<path d="M13.2036 52.651H12.0093V53.8169H13.2036V52.651Z" fill="#63DFDB"/>
<path d="M12.0094 58.6213H10.7961V59.8342H12.0094V58.6213Z" fill="#63DFDB"/>
<path d="M12.0094 57.4084H10.7961V58.6213H12.0094V57.4084Z" fill="#63DFDB"/>
<path d="M12.0094 56.2426H10.7961V57.4084H12.0094V56.2426Z" fill="#63DFDB"/>
<path d="M12.0094 55.0298H10.7961V56.2426H12.0094V55.0298Z" fill="#63DFDB"/>
<path d="M12.0094 53.8169H10.7961V55.0298H12.0094V53.8169Z" fill="#63DFDB"/>
<path d="M12.0094 52.651H10.7961V53.8169H12.0094V52.651Z" fill="#63DFDB"/>
<path d="M10.7961 58.6213H9.60181V59.8342H10.7961V58.6213Z" fill="#63DFDB"/>
<path d="M10.7961 57.4084H9.60181V58.6213H10.7961V57.4084Z" fill="#63DFDB"/>
<path d="M10.7961 56.2426H9.60181V57.4084H10.7961V56.2426Z" fill="#63DFDB"/>
<path d="M10.7961 55.0298H9.60181V56.2426H10.7961V55.0298Z" fill="#63DFDB"/>
<path d="M10.7961 53.8169H9.60181V55.0298H10.7961V53.8169Z" fill="#63DFDB"/>
<path d="M9.60178 58.6213H8.40747V59.8342H9.60178V58.6213Z" fill="#63DFDB"/>
<path d="M9.60178 57.4084H8.40747V58.6213H9.60178V57.4084Z" fill="#63DFDB"/>
<path d="M9.60178 56.2426H8.40747V57.4084H9.60178V56.2426Z" fill="#63DFDB"/>
<path d="M9.60178 55.0298H8.40747V56.2426H9.60178V55.0298Z" fill="#63DFDB"/>
<path d="M9.60178 53.8169H8.40747V55.0298H9.60178V53.8169Z" fill="#63DFDB"/>
<path d="M8.40736 58.6213H7.19409V59.8342H8.40736V58.6213Z" fill="#63DFDB"/>
<path d="M8.40736 57.4084H7.19409V58.6213H8.40736V57.4084Z" fill="#63DFDB"/>
<path d="M8.40736 56.2426H7.19409V57.4084H8.40736V56.2426Z" fill="#63DFDB"/>
<path d="M8.40736 55.0298H7.19409V56.2426H8.40736V55.0298Z" fill="#63DFDB"/>
<path d="M8.40736 53.8169H7.19409V55.0298H8.40736V53.8169Z" fill="#63DFDB"/>
<path d="M7.20359 58.6213H6.00928V59.8342H7.20359V58.6213Z" fill="#63DFDB"/>
<path d="M7.20359 57.4084H6.00928V58.6213H7.20359V57.4084Z" fill="#63DFDB"/>
<path d="M7.20359 56.2426H6.00928V57.4084H7.20359V56.2426Z" fill="#63DFDB"/>
<path d="M7.20359 55.0298H6.00928V56.2426H7.20359V55.0298Z" fill="#63DFDB"/>
<path d="M7.20359 53.8169H6.00928V55.0298H7.20359V53.8169Z" fill="#63DFDB"/>
<path d="M6.00925 58.6213H4.81494V59.8342H6.00925V58.6213Z" fill="#63DFDB"/>
<path d="M6.00925 57.4084H4.81494V58.6213H6.00925V57.4084Z" fill="#63DFDB"/>
<path d="M6.00925 56.2426H4.81494V57.4084H6.00925V56.2426Z" fill="#63DFDB"/>
<path d="M6.00925 55.0298H4.81494V56.2426H6.00925V55.0298Z" fill="#63DFDB"/>
<path d="M6.00925 53.8169H4.81494V55.0298H6.00925V53.8169Z" fill="#63DFDB"/>
<path d="M4.81508 58.6213H3.60181V59.8342H4.81508V58.6213Z" fill="#63DFDB"/>
<path d="M4.81508 57.4084H3.60181V58.6213H4.81508V57.4084Z" fill="#63DFDB"/>
<path d="M4.81508 56.2426H3.60181V57.4084H4.81508V56.2426Z" fill="#63DFDB"/>
<path d="M4.81508 55.0298H3.60181V56.2426H4.81508V55.0298Z" fill="#63DFDB"/>
<path d="M4.81508 53.8169H3.60181V55.0298H4.81508V53.8169Z" fill="#63DFDB"/>
<path d="M3.60178 58.6213H2.40747V59.8342H3.60178V58.6213Z" fill="#63DFDB"/>
<path d="M3.60178 57.4084H2.40747V58.6213H3.60178V57.4084Z" fill="#63DFDB"/>
<path d="M3.60178 56.2426H2.40747V57.4084H3.60178V56.2426Z" fill="#63DFDB"/>
<path d="M3.60178 55.0298H2.40747V56.2426H3.60178V55.0298Z" fill="#63DFDB"/>
<path d="M3.60178 53.8169H2.40747V55.0298H3.60178V53.8169Z" fill="#63DFDB"/>
<path d="M3.60178 52.651H2.40747V53.8169H3.60178V52.651Z" fill="#63DFDB"/>
<path d="M2.40745 57.4084H1.21313V58.6213H2.40745V57.4084Z" fill="#63DFDB"/>
<path d="M2.40745 56.2426H1.21313V57.4084H2.40745V56.2426Z" fill="#63DFDB"/>
<path d="M2.40745 55.0298H1.21313V56.2426H2.40745V55.0298Z" fill="#63DFDB"/>
<path d="M2.40745 53.8169H1.21313V55.0298H2.40745V53.8169Z" fill="#63DFDB"/>
<path d="M2.40745 52.651H1.21313V53.8169H2.40745V52.651Z" fill="#63DFDB"/>
<path d="M13.2036 56.2426H12.0093V57.4084H13.2036V56.2426Z" fill="#63DFDB"/>
<path d="M48 57.4084H46.8057V58.6213H48V57.4084Z" fill="#070100"/>
<path d="M48 55.0298H46.8057V56.2426H48V55.0298Z" fill="#070100"/>
<path d="M48 53.8169H46.8057V55.0298H48V53.8169Z" fill="#070100"/>
<path d="M48 52.651H46.8057V53.8169H48V52.651Z" fill="#070100"/>
<path d="M48 51.4476H46.8057V52.6604H48V51.4476Z" fill="#070100"/>
<path d="M48 50.2347H46.8057V51.4476H48V50.2347Z" fill="#070100"/>
<path d="M46.8056 58.6213H45.6113V59.8341H46.8056V58.6213Z" fill="#070100"/>
<path d="M46.8056 51.4476H45.6113V52.6604H46.8056V51.4476Z" fill="#070100"/>
<path d="M45.6112 59.8248H44.3979V60.9906H45.6112V59.8248Z" fill="#070100"/>
<path d="M45.6112 52.651H44.3979V53.8169H45.6112V52.651Z" fill="#070100"/>
<path d="M44.3979 59.8248H43.2036V60.9906H44.3979V59.8248Z" fill="#070100"/>
<path d="M44.3979 52.651H43.2036V53.8169H44.3979V52.651Z" fill="#070100"/>
<path d="M43.2038 59.8248H41.9905V60.9906H43.2038V59.8248Z" fill="#070100"/>
<path d="M43.2038 52.651H41.9905V53.8169H43.2038V52.651Z" fill="#070100"/>
<path d="M41.9905 59.8248H40.7961V60.9906H41.9905V59.8248Z" fill="#070100"/>
<path d="M41.9905 52.651H40.7961V53.8169H41.9905V52.651Z" fill="#070100"/>
<path d="M40.7961 59.8248H39.6018V60.9906H40.7961V59.8248Z" fill="#070100"/>
<path d="M40.7961 52.651H39.6018V53.8169H40.7961V52.651Z" fill="#070100"/>
<path d="M39.6017 59.8248H38.3884V60.9906H39.6017V59.8248Z" fill="#070100"/>
<path d="M39.6017 52.651H38.3884V53.8169H39.6017V52.651Z" fill="#070100"/>
<path d="M38.3979 59.8248H37.2036V60.9906H38.3979V59.8248Z" fill="#070100"/>
<path d="M38.3979 52.651H37.2036V53.8169H38.3979V52.651Z" fill="#070100"/>
<path d="M37.2038 59.8248H36.0095V60.9906H37.2038V59.8248Z" fill="#070100"/>
<path d="M37.2038 52.651H36.0095V53.8169H37.2038V52.651Z" fill="#070100"/>
<path d="M36.0094 58.6213H34.7961V59.8341H36.0094V58.6213Z" fill="#070100"/>
<path d="M36.0094 51.4476H34.7961V52.6604H36.0094V51.4476Z" fill="#070100"/>
<path d="M34.7961 57.4084H33.6018V58.6213H34.7961V57.4084Z" fill="#070100"/>
<path d="M34.7961 56.2426H33.6018V57.4084H34.7961V56.2426Z" fill="#070100"/>
<path d="M34.7961 55.0298H33.6018V56.2426H34.7961V55.0298Z" fill="#070100"/>
<path d="M34.7961 53.8169H33.6018V55.0298H34.7961V53.8169Z" fill="#070100"/>
<path d="M34.7961 52.651H33.6018V53.8169H34.7961V52.651Z" fill="#070100"/>
<path d="M34.7961 51.4476H33.6018V52.6604H34.7961V51.4476Z" fill="#070100"/>
<path d="M34.7961 50.2347H33.6018V51.4476H34.7961V50.2347Z" fill="#070100"/>
<path d="M48 56.2426H46.8057V57.4084H48V56.2426Z" fill="#070100"/>
<path d="M46.7961 57.4084H45.6018V58.6213H46.7961V57.4084Z" fill="#63DFDB"/>
<path d="M46.7961 56.2426H45.6018V57.4084H46.7961V56.2426Z" fill="#63DFDB"/>
<path d="M46.7961 55.0298H45.6018V56.2426H46.7961V55.0298Z" fill="#63DFDB"/>
<path d="M46.7961 53.8169H45.6018V55.0298H46.7961V53.8169Z" fill="#63DFDB"/>
<path d="M46.7961 52.651H45.6018V53.8169H46.7961V52.651Z" fill="#63DFDB"/>
<path d="M45.6114 58.6213H44.3887V59.8342H45.6114V58.6213Z" fill="#63DFDB"/>
<path d="M45.6114 57.4084H44.3887V58.6213H45.6114V57.4084Z" fill="#63DFDB"/>
<path d="M45.6114 56.2426H44.3887V57.4084H45.6114V56.2426Z" fill="#63DFDB"/>
<path d="M45.6114 55.0298H44.3887V56.2426H45.6114V55.0298Z" fill="#63DFDB"/>
<path d="M45.6114 53.8169H44.3887V55.0298H45.6114V53.8169Z" fill="#63DFDB"/>
<path d="M44.3886 58.6213H43.1943V59.8342H44.3886V58.6213Z" fill="#63DFDB"/>
<path d="M44.3886 57.4084H43.1943V58.6213H44.3886V57.4084Z" fill="#63DFDB"/>
<path d="M44.3886 56.2426H43.1943V57.4084H44.3886V56.2426Z" fill="#63DFDB"/>
<path d="M44.3886 55.0298H43.1943V56.2426H44.3886V55.0298Z" fill="#63DFDB"/>
<path d="M44.3886 53.8169H43.1943V55.0298H44.3886V53.8169Z" fill="#63DFDB"/>
<path d="M43.1847 58.6213H41.9714V59.8342H43.1847V58.6213Z" fill="#63DFDB"/>
<path d="M43.1847 57.4084H41.9714V58.6213H43.1847V57.4084Z" fill="#63DFDB"/>
<path d="M43.1847 56.2426H41.9714V57.4084H43.1847V56.2426Z" fill="#63DFDB"/>
<path d="M43.1847 55.0298H41.9714V56.2426H43.1847V55.0298Z" fill="#63DFDB"/>
<path d="M43.1847 53.8169H41.9714V55.0298H43.1847V53.8169Z" fill="#63DFDB"/>
<path d="M41.9717 58.6213H40.7773V59.8342H41.9717V58.6213Z" fill="#63DFDB"/>
<path d="M41.9717 57.4084H40.7773V58.6213H41.9717V57.4084Z" fill="#63DFDB"/>
<path d="M41.9717 56.2426H40.7773V57.4084H41.9717V56.2426Z" fill="#63DFDB"/>
<path d="M41.9717 55.0298H40.7773V56.2426H41.9717V55.0298Z" fill="#63DFDB"/>
<path d="M41.9717 53.8169H40.7773V55.0298H41.9717V53.8169Z" fill="#63DFDB"/>
<path d="M40.7773 58.6213H39.583V59.8342H40.7773V58.6213Z" fill="#63DFDB"/>
<path d="M40.7773 57.4084H39.583V58.6213H40.7773V57.4084Z" fill="#63DFDB"/>
<path d="M40.7773 56.2426H39.583V57.4084H40.7773V56.2426Z" fill="#63DFDB"/>
<path d="M40.7773 55.0298H39.583V56.2426H40.7773V55.0298Z" fill="#63DFDB"/>
<path d="M40.7773 53.8169H39.583V55.0298H40.7773V53.8169Z" fill="#63DFDB"/>
<path d="M39.5829 58.6213H38.3601V59.8342H39.5829V58.6213Z" fill="#63DFDB"/>
<path d="M39.5829 57.4084H38.3601V58.6213H39.5829V57.4084Z" fill="#63DFDB"/>
<path d="M39.5829 56.2426H38.3601V57.4084H39.5829V56.2426Z" fill="#63DFDB"/>
<path d="M39.5829 55.0298H38.3601V56.2426H39.5829V55.0298Z" fill="#63DFDB"/>
<path d="M39.5829 53.8169H38.3601V55.0298H39.5829V53.8169Z" fill="#63DFDB"/>
<path d="M38.3601 58.6213H37.1658V59.8342H38.3601V58.6213Z" fill="#63DFDB"/>
<path d="M38.3601 57.4084H37.1658V58.6213H38.3601V57.4084Z" fill="#63DFDB"/>
<path d="M38.3601 56.2426H37.1658V57.4084H38.3601V56.2426Z" fill="#63DFDB"/>
<path d="M38.3601 55.0298H37.1658V56.2426H38.3601V55.0298Z" fill="#63DFDB"/>
<path d="M38.4077 53.8169H37.2134V55.0298H38.4077V53.8169Z" fill="#63DFDB"/>
<path d="M37.2131 58.6213H36.0188V59.8342H37.2131V58.6213Z" fill="#63DFDB"/>
<path d="M37.2131 57.4084H36.0188V58.6213H37.2131V57.4084Z" fill="#63DFDB"/>
<path d="M37.2131 56.2426H36.0188V57.4084H37.2131V56.2426Z" fill="#63DFDB"/>
<path d="M37.2131 55.0298H36.0188V56.2426H37.2131V55.0298Z" fill="#63DFDB"/>
<path d="M37.2131 53.8169H36.0188V55.0298H37.2131V53.8169Z" fill="#63DFDB"/>
<path d="M36.0189 57.4084H34.8057V58.6213H36.0189V57.4084Z" fill="#63DFDB"/>
<path d="M36.0189 56.2426H34.8057V57.4084H36.0189V56.2426Z" fill="#63DFDB"/>
<path d="M36.0189 55.0298H34.8057V56.2426H36.0189V55.0298Z" fill="#63DFDB"/>
<path d="M36.0189 53.8169H34.8057V55.0298H36.0189V53.8169Z" fill="#63DFDB"/>
<path d="M36.0189 52.651H34.8057V53.8169H36.0189V52.651Z" fill="#63DFDB"/>
<path d="M22.8058 19.1518H21.5925V20.3177H22.8058V19.1518Z" fill="#63DFDB"/>
<path d="M22.8058 17.939H21.5925V19.1518H22.8058V17.939Z" fill="#63DFDB"/>
<path d="M21.5925 20.3177H20.3982V21.5305H21.5925V20.3177Z" fill="#63DFDB"/>
<path d="M21.5925 19.1518H20.3982V20.3177H21.5925V19.1518Z" fill="#63DFDB"/>
<path d="M21.5925 17.939H20.3982V19.1518H21.5925V17.939Z" fill="#63DFDB"/>
<path d="M21.5925 16.7261H20.3982V17.939H21.5925V16.7261Z" fill="#63DFDB"/>
<path d="M20.3982 22.7434H19.2039V23.9092H20.3982V22.7434Z" fill="#63DFDB"/>
<path d="M20.3982 21.5305H19.2039V22.7434H20.3982V21.5305Z" fill="#63DFDB"/>
<path d="M20.3982 20.3177H19.2039V21.5305H20.3982V20.3177Z" fill="#63DFDB"/>
<path d="M20.3982 19.1518H19.2039V20.3177H20.3982V19.1518Z" fill="#63DFDB"/>
<path d="M20.3982 17.939H19.2039V19.1518H20.3982V17.939Z" fill="#63DFDB"/>
<path d="M20.3982 16.7261H19.2039V17.939H20.3982V16.7261Z" fill="#63DFDB"/>
<path d="M20.3982 15.5603H19.2039V16.7261H20.3982V15.5603Z" fill="#63DFDB"/>
<path d="M20.3982 14.3474H19.2039V15.5603H20.3982V14.3474Z" fill="#63DFDB"/>
<path d="M20.3982 13.144H19.2039V14.3568H20.3982V13.144Z" fill="#63DFDB"/>
<path d="M19.2038 23.9092H17.9905V25.1221H19.2038V23.9092Z" fill="#63DFDB"/>
<path d="M19.2038 22.7434H17.9905V23.9092H19.2038V22.7434Z" fill="#63DFDB"/>
<path d="M19.2038 21.5305H17.9905V22.7434H19.2038V21.5305Z" fill="#63DFDB"/>
<path d="M19.2038 20.3177H17.9905V21.5305H19.2038V20.3177Z" fill="#63DFDB"/>
<path d="M19.2038 19.1518H17.9905V20.3177H19.2038V19.1518Z" fill="#63DFDB"/>
<path d="M19.2038 17.939H17.9905V19.1518H19.2038V17.939Z" fill="#63DFDB"/>
<path d="M19.2038 16.7261H17.9905V17.939H19.2038V16.7261Z" fill="#63DFDB"/>
<path d="M19.2038 15.5603H17.9905V16.7261H19.2038V15.5603Z" fill="#63DFDB"/>
<path d="M19.2038 14.3474H17.9905V15.5603H19.2038V14.3474Z" fill="#63DFDB"/>
<path d="M19.2038 13.144H17.9905V14.3568H19.2038V13.144Z" fill="#63DFDB"/>
<path d="M17.9904 23.9092H16.7961V25.1221H17.9904V23.9092Z" fill="#63DFDB"/>
<path d="M17.9904 22.7434H16.7961V23.9092H17.9904V22.7434Z" fill="#63DFDB"/>
<path d="M17.9904 21.5305H16.7961V22.7434H17.9904V21.5305Z" fill="#63DFDB"/>
<path d="M17.9904 20.3177H16.7961V21.5305H17.9904V20.3177Z" fill="#63DFDB"/>
<path d="M17.9904 19.1518H16.7961V20.3177H17.9904V19.1518Z" fill="#63DFDB"/>
<path d="M17.9904 17.939H16.7961V19.1518H17.9904V17.939Z" fill="#63DFDB"/>
<path d="M17.9904 16.7261H16.7961V17.939H17.9904V16.7261Z" fill="#63DFDB"/>
<path d="M17.9904 15.5603H16.7961V16.7261H17.9904V15.5603Z" fill="#63DFDB"/>
<path d="M17.9904 14.3474H16.7961V15.5603H17.9904V14.3474Z" fill="#63DFDB"/>
<path d="M16.8056 25.1127H15.6113V26.3255H16.8056V25.1127Z" fill="#63DFDB"/>
<path d="M16.8056 23.9092H15.6113V25.1221H16.8056V23.9092Z" fill="#63DFDB"/>
<path d="M16.8056 22.7434H15.6113V23.9092H16.8056V22.7434Z" fill="#63DFDB"/>
<path d="M16.8056 21.5305H15.6113V22.7434H16.8056V21.5305Z" fill="#63DFDB"/>
<path d="M16.8056 17.939H15.6113V19.1518H16.8056V17.939Z" fill="#63DFDB"/>
<path d="M16.8056 16.7261H15.6113V17.939H16.8056V16.7261Z" fill="#63DFDB"/>
<path d="M16.8056 15.5603H15.6113V16.7261H16.8056V15.5603Z" fill="#63DFDB"/>
<path d="M16.8056 14.3474H15.6113V15.5603H16.8056V14.3474Z" fill="#63DFDB"/>
<path d="M15.6115 25.1127H14.3982V26.3255H15.6115V25.1127Z" fill="#63DFDB"/>
<path d="M15.6115 23.9092H14.3982V25.1221H15.6115V23.9092Z" fill="#63DFDB"/>
<path d="M15.6115 16.7261H14.3982V17.939H15.6115V16.7261Z" fill="#63DFDB"/>
<path d="M15.6115 15.5603H14.3982V16.7261H15.6115V15.5603Z" fill="#63DFDB"/>
<path d="M14.3982 25.1127H13.2039V26.3255H14.3982V25.1127Z" fill="#63DFDB"/>
<path d="M14.3982 23.9092H13.2039V25.1221H14.3982V23.9092Z" fill="#63DFDB"/>
<path d="M13.2038 25.1127H12.0095V26.3255H13.2038V25.1127Z" fill="#63DFDB"/>
<path d="M13.2038 23.9092H12.0095V25.1221H13.2038V23.9092Z" fill="#070100"/>
<path d="M15.6115 22.7434H14.3982V23.9092H15.6115V22.7434Z" fill="#63DFDB"/>
<path d="M24 19.1518H22.8057V20.3177H24V19.1518Z" fill="#070100"/>
<path d="M24 17.939H22.8057V19.1518H24V17.939Z" fill="#070100"/>
<path d="M22.8056 20.3177H21.5923V21.5305H22.8056V20.3177Z" fill="#070100"/>
<path d="M21.5923 22.7434H20.3979V23.9092H21.5923V22.7434Z" fill="#070100"/>
<path d="M21.5923 21.5305H20.3979V22.7434H21.5923V21.5305Z" fill="#070100"/>
<path d="M20.3979 25.1127H19.2036V26.3255H20.3979V25.1127Z" fill="#070100"/>
<path d="M20.3979 23.9092H19.2036V25.1221H20.3979V23.9092Z" fill="#070100"/>
<path d="M20.3979 11.9781H19.2036V13.144H20.3979V11.9781Z" fill="#070100"/>
<path d="M19.2038 25.1127H17.9905V26.3255H19.2038V25.1127Z" fill="#070100"/>
<path d="M19.2038 11.9781H17.9905V13.144H19.2038V11.9781Z" fill="#070100"/>
<path d="M17.9905 25.1127H16.7961V26.3255H17.9905V25.1127Z" fill="#070100"/>
<path d="M17.9905 13.144H16.7961V14.3568H17.9905V13.144Z" fill="#070100"/>
<path d="M16.8056 26.3255H15.6113V27.4914H16.8056V26.3255Z" fill="#070100"/>
<path d="M16.8056 20.3177H15.6113V21.5305H16.8056V20.3177Z" fill="#070100"/>
<path d="M16.8056 19.1518H15.6113V20.3177H16.8056V19.1518Z" fill="#070100"/>
<path d="M16.8056 13.144H15.6113V14.3568H16.8056V13.144Z" fill="#070100"/>
<path d="M15.6112 26.3255H14.3979V27.4914H15.6112V26.3255Z" fill="#070100"/>
<path d="M15.6112 21.5305H14.3979V22.7434H15.6112V21.5305Z" fill="#070100"/>
<path d="M15.6112 17.939H14.3979V19.1518H15.6112V17.939Z" fill="#070100"/>
<path d="M15.6112 14.3474H14.3979V15.5603H15.6112V14.3474Z" fill="#070100"/>
<path d="M14.3979 26.3255H13.2036V27.4914H14.3979V26.3255Z" fill="#070100"/>
<path d="M14.3979 16.7261H13.2036V17.939H14.3979V16.7261Z" fill="#070100"/>
<path d="M14.3979 15.5603H13.2036V16.7261H14.3979V15.5603Z" fill="#070100"/>
<path d="M13.2036 26.3255H12.0093V27.4914H13.2036V26.3255Z" fill="#070100"/>
<path d="M13.2036 22.7434H12.0093V23.9092H13.2036V22.7434Z" fill="#F7FAF7"/>
<path d="M12.0094 25.1127H10.7961V26.3255H12.0094V25.1127Z" fill="#070100"/>
<path d="M12.0094 23.9092H10.7961V25.1221H12.0094V23.9092Z" fill="#F7FAF7"/>
<path d="M10.7961 25.1127H9.60181V26.3255H10.7961V25.1127Z" fill="#F7FAF7"/>
<path d="M10.7961 23.9092H9.60181V25.1221H10.7961V23.9092Z" fill="#F7FAF7"/>
<path d="M9.60178 25.1127H8.40747V26.3255H9.60178V25.1127Z" fill="#070100"/>
<path d="M9.60178 23.9092H8.40747V25.1221H9.60178V23.9092Z" fill="#070100"/>
<path d="M14.3979 22.7434H13.2036V23.9092H14.3979V22.7434Z" fill="#070100"/>
<path d="M34.7964 19.1518H33.6021V20.3177H34.7964V19.1518Z" fill="#070100"/>
<path d="M34.7964 17.939H33.6021V19.1518H34.7964V17.939Z" fill="#070100"/>
<path d="M34.7964 16.7261H33.6021V17.939H34.7964V16.7261Z" fill="#070100"/>
<path d="M33.602 20.3177H32.4077V21.5305H33.602V20.3177Z" fill="#070100"/>
<path d="M33.602 15.5603H32.4077V16.7261H33.602V15.5603Z" fill="#070100"/>
<path d="M32.4076 21.5305H31.1943V22.7434H32.4076V21.5305Z" fill="#070100"/>
<path d="M32.4076 14.3474H31.1943V15.5603H32.4076V14.3474Z" fill="#070100"/>
<path d="M31.1943 22.7434H30V23.9092H31.1943V22.7434Z" fill="#070100"/>
<path d="M31.1943 14.3474H30V15.5603H31.1943V14.3474Z" fill="#070100"/>
<path d="M30.0002 26.3255H28.8059V27.4914H30.0002V26.3255Z" fill="#070100"/>
<path d="M30.0002 25.1127H28.8059V26.3255H30.0002V25.1127Z" fill="#070100"/>
<path d="M30.0002 13.144H28.8059V14.3568H30.0002V13.144Z" fill="#070100"/>
<path d="M28.8058 29.9171H27.5925V31.0829H28.8058V29.9171Z" fill="#070100"/>
<path d="M28.8058 28.7042H27.5925V29.9171H28.8058V28.7042Z" fill="#070100"/>
<path d="M28.8058 27.4914H27.5925V28.7042H28.8058V27.4914Z" fill="#070100"/>
<path d="M27.602 31.0829H26.4077V32.2958H27.602V31.0829Z" fill="#070100"/>
<path d="M26.4077 32.2958H25.2134V33.5086H26.4077V32.2958Z" fill="#070100"/>
<path d="M26.4077 28.7042H25.2134V29.9171H26.4077V28.7042Z" fill="#070100"/>
<path d="M26.4077 26.3255H25.2134V27.4914H26.4077V26.3255Z" fill="#070100"/>
<path d="M25.2133 32.2958H24V33.5086H25.2133V32.2958Z" fill="#070100"/>
<path d="M25.2133 29.9171H24V31.0829H25.2133V29.9171Z" fill="#070100"/>
<path d="M24 32.2958H22.8057V33.5086H24V32.2958Z" fill="#070100"/>
<path d="M24 31.0829H22.8057V32.2958H24V31.0829Z" fill="#070100"/>
<path d="M22.8058 32.2958H21.5925V33.5086H22.8058V32.2958Z" fill="#F7FAF7"/>
<path d="M31.1943 23.9092H30V25.1221H31.1943V23.9092Z" fill="#070100"/>
<path d="M26.4077 27.4914H25.2134V28.7042H26.4077V27.4914Z" fill="#070100"/>
</svg>
