<svg width="73" height="110" viewBox="0 0 73 110" fill="none" xmlns="http://www.w3.org/2000/svg">
<path d="M70.7113 77.6438H68.4583V79.8689H70.7113V77.6438Z" fill="#F7FAF7"/>
<path d="M70.7113 75.3291H68.4583V77.6438H70.7113V75.3291Z" fill="#F7FAF7"/>
<path d="M70.7113 73.0143H68.4583V75.3291H70.7113V73.0143Z" fill="#F7FAF7"/>
<path d="M70.7113 70.7892H68.4583V73.0143H70.7113V70.7892Z" fill="#070100"/>
<path d="M70.7113 68.4744H68.4583V70.7892H70.7113V68.4744Z" fill="#070100"/>
<path d="M70.7113 66.1776H68.4583V68.4924H70.7113V66.1776Z" fill="#F7FAF7"/>
<path d="M70.7113 63.9346H68.4583V66.1597H70.7113V63.9346Z" fill="#F7FAF7"/>
<path d="M68.4581 84.4805H66.2051V86.7056H68.4581V84.4805Z" fill="black"/>
<path d="M68.4581 82.1837H66.2051V84.4985H68.4581V82.1837Z" fill="#F7FAF7"/>
<path d="M68.4581 79.8689H66.2051V82.1837H68.4581V79.8689Z" fill="#F7FAF7"/>
<path d="M68.4581 77.6438H66.2051V79.8689H68.4581V77.6438Z" fill="#F7FAF7"/>
<path d="M68.4581 75.3291H66.2051V77.6438H68.4581V75.3291Z" fill="#F7FAF7"/>
<path d="M68.4581 73.0143H66.2051V75.3291H68.4581V73.0143Z" fill="#070100"/>
<path d="M68.4581 70.7892H66.2051V73.0143H68.4581V70.7892Z" fill="#070100"/>
<path d="M68.4581 68.4744H66.2051V70.7892H68.4581V68.4744Z" fill="#070100"/>
<path d="M68.4581 66.1776H66.2051V68.4924H68.4581V66.1776Z" fill="#F7FAF7"/>
<path d="M68.4581 63.9346H66.2051V66.1597H68.4581V63.9346Z" fill="#F7FAF7"/>
<path d="M68.4581 61.6378H66.2051V63.9525H68.4581V61.6378Z" fill="#F7FAF7"/>
<path d="M68.4581 59.323H66.2051V61.6378H68.4581V59.323Z" fill="#F7FAF7"/>
<path d="M68.4581 57.0979H66.2051V59.323H68.4581V57.0979Z" fill="#F7FAF7"/>
<path d="M68.4581 36.552H66.2051V38.7771H68.4581V36.552Z" fill="#F7FAF7"/>
<path d="M68.4581 34.2372H66.2051V36.552H68.4581V34.2372Z" fill="#F7FAF7"/>
<path d="M68.4581 31.9224H66.2051V34.2372H68.4581V31.9224Z" fill="#F7FAF7"/>
<path d="M68.4581 29.6974H66.2051V31.9224H68.4581V29.6974Z" fill="#F7FAF7"/>
<path d="M68.4581 27.3826H66.2051V29.6974H68.4581V27.3826Z" fill="#F7FAF7"/>
<path d="M66.2053 84.4805H63.9165V86.7056H66.2053V84.4805Z" fill="#F7FAF7"/>
<path d="M66.2053 82.1837H63.9165V84.4985H66.2053V82.1837Z" fill="#F7FAF7"/>
<path d="M66.2053 79.8689H63.9165V82.1837H66.2053V79.8689Z" fill="#F7FAF7"/>
<path d="M66.2053 77.6438H63.9165V79.8689H66.2053V77.6438Z" fill="#F7FAF7"/>
<path d="M66.2053 75.3291H63.9165V77.6438H66.2053V75.3291Z" fill="#F7FAF7"/>
<path d="M66.2053 73.0143H63.9165V75.3291H66.2053V73.0143Z" fill="#070100"/>
<path d="M66.2053 70.7892H63.9165V73.0143H66.2053V70.7892Z" fill="#070100"/>
<path d="M66.2053 68.4744H63.9165V70.7892H66.2053V68.4744Z" fill="#070100"/>
<path d="M66.2053 66.1776H63.9165V68.4924H66.2053V66.1776Z" fill="#F7FAF7"/>
<path d="M66.2053 63.9346H63.9165V66.1597H66.2053V63.9346Z" fill="#F7FAF7"/>
<path d="M66.2053 61.6378H63.9165V63.9525H66.2053V61.6378Z" fill="#F7FAF7"/>
<path d="M66.2053 59.323H63.9165V61.6378H66.2053V59.323Z" fill="#F7FAF7"/>
<path d="M66.2053 57.0979H63.9165V59.323H66.2053V57.0979Z" fill="#F7FAF7"/>
<path d="M66.2053 54.7831H63.9165V57.0979H66.2053V54.7831Z" fill="#F7FAF7"/>
<path d="M66.2053 52.4684H63.9165V54.7831H66.2053V52.4684Z" fill="#F7FAF7"/>
<path d="M66.2053 50.2433H63.9165V52.4684H66.2053V50.2433Z" fill="#F7FAF7"/>
<path d="M66.2053 41.0918H63.9165V43.4066H66.2053V41.0918Z" fill="#F7FAF7"/>
<path d="M66.2053 38.7771H63.9165V41.0918H66.2053V38.7771Z" fill="#F7FAF7"/>
<path d="M66.2053 27.3826H63.9165V29.6974H66.2053V27.3826Z" fill="#F7FAF7"/>
<path d="M66.2053 25.0858H63.9165V27.4005H66.2053V25.0858Z" fill="#F7FAF7"/>
<path d="M66.2053 22.8607H63.9165V25.0858H66.2053V22.8607Z" fill="#F7FAF7"/>
<path d="M63.9344 84.4805H61.6814V86.7056H63.9344V84.4805Z" fill="#F7FAF7"/>
<path d="M63.9344 82.1837H61.6814V84.4985H63.9344V82.1837Z" fill="#F7FAF7"/>
<path d="M63.9344 79.8689H61.6814V82.1837H63.9344V79.8689Z" fill="#F7FAF7"/>
<path d="M63.9344 77.6438H61.6814V79.8689H63.9344V77.6438Z" fill="#F7FAF7"/>
<path d="M63.9344 75.3291H61.6814V77.6438H63.9344V75.3291Z" fill="#070100"/>
<path d="M63.9344 73.0143H61.6814V75.3291H63.9344V73.0143Z" fill="#070100"/>
<path d="M63.9344 70.7892H61.6814V73.0143H63.9344V70.7892Z" fill="#070100"/>
<path d="M63.9344 68.4744H61.6814V70.7892H63.9344V68.4744Z" fill="#070100"/>
<path d="M63.9344 66.1776H61.6814V68.4924H63.9344V66.1776Z" fill="#070100"/>
<path d="M63.9344 63.9346H61.6814V66.1597H63.9344V63.9346Z" fill="#F7FAF7"/>
<path d="M63.9344 61.6378H61.6814V63.9525H63.9344V61.6378Z" fill="#F7FAF7"/>
<path d="M63.9344 57.0979H61.6814V59.323H63.9344V57.0979Z" fill="#F7FAF7"/>
<path d="M63.9344 54.7831H61.6814V57.0979H63.9344V54.7831Z" fill="#F7FAF7"/>
<path d="M63.9344 52.4684H61.6814V54.7831H63.9344V52.4684Z" fill="#F7FAF7"/>
<path d="M63.9344 50.2433H61.6814V52.4684H63.9344V50.2433Z" fill="#F7FAF7"/>
<path d="M63.9344 47.9285H61.6814V50.2433H63.9344V47.9285Z" fill="#F7FAF7"/>
<path d="M63.9344 45.6317H61.6814V47.9465H63.9344V45.6317Z" fill="#F7FAF7"/>
<path d="M63.9344 43.4066H61.6814V45.6317H63.9344V43.4066Z" fill="#F7FAF7"/>
<path d="M63.9344 20.5459H61.6814V22.8607H63.9344V20.5459Z" fill="#F7FAF7"/>
<path d="M63.9344 18.2311H61.6814V20.5459H63.9344V18.2311Z" fill="#F7FAF7"/>
<path d="M61.6815 86.7056H59.4285V89.0204H61.6815V86.7056Z" fill="#F7FAF7"/>
<path d="M61.6815 84.4805H59.4285V86.7056H61.6815V84.4805Z" fill="#F7FAF7"/>
<path d="M61.6815 82.1837H59.4285V84.4985H61.6815V82.1837Z" fill="#F7FAF7"/>
<path d="M61.6815 79.8689H59.4285V82.1837H61.6815V79.8689Z" fill="#F7FAF7"/>
<path d="M61.6815 77.6438H59.4285V79.8689H61.6815V77.6438Z" fill="#F7FAF7"/>
<path d="M61.6815 75.3291H59.4285V77.6438H61.6815V75.3291Z" fill="#070100"/>
<path d="M61.6815 73.0143H59.4285V75.3291H61.6815V73.0143Z" fill="#070100"/>
<path d="M61.6815 70.7892H59.4285V73.0143H61.6815V70.7892Z" fill="#070100"/>
<path d="M61.6815 68.4744H59.4285V70.7892H61.6815V68.4744Z" fill="#070100"/>
<path d="M61.6815 66.1776H59.4285V68.4924H61.6815V66.1776Z" fill="#070100"/>
<path d="M61.6815 63.9346H59.4285V66.1597H61.6815V63.9346Z" fill="#F7FAF7"/>
<path d="M61.6815 61.6378H59.4285V63.9525H61.6815V61.6378Z" fill="#F7FAF7"/>
<path d="M61.6815 59.323H59.4285V61.6378H61.6815V59.323Z" fill="#F7FAF7"/>
<path d="M61.6815 54.7831H59.4285V57.0979H61.6815V54.7831Z" fill="#F7FAF7"/>
<path d="M61.6815 52.4684H59.4285V54.7831H61.6815V52.4684Z" fill="#F7FAF7"/>
<path d="M61.6815 50.2433H59.4285V52.4684H61.6815V50.2433Z" fill="#F7FAF7"/>
<path d="M61.6815 47.9285H59.4285V50.2433H61.6815V47.9285Z" fill="#F7FAF7"/>
<path d="M61.6815 45.6317H59.4285V47.9465H61.6815V45.6317Z" fill="#F7FAF7"/>
<path d="M61.6815 43.4066H59.4285V45.6317H61.6815V43.4066Z" fill="#F7FAF7"/>
<path d="M61.6815 41.0918H59.4285V43.4066H61.6815V41.0918Z" fill="#F7FAF7"/>
<path d="M63.9344 41.0919H61.6814V43.4066H63.9344V41.0919Z" fill="#070100"/>
<path d="M63.9344 27.3826H61.6814V29.6974H63.9344V27.3826Z" fill="#070100"/>
<path d="M63.9344 25.0858H61.6814V27.4005H63.9344V25.0858Z" fill="#070100"/>
<path d="M63.9344 22.8607H61.6814V25.0858H63.9344V22.8607Z" fill="#070100"/>
<path d="M61.6815 38.7771H59.4285V41.0918H61.6815V38.7771Z" fill="#070100"/>
<path d="M61.6815 36.552H59.4285V38.7771H61.6815V36.552Z" fill="#070100"/>
<path d="M61.6815 34.2372H59.4285V36.552H61.6815V34.2372Z" fill="#070100"/>
<path d="M61.6815 31.9225H59.4285V34.2372H61.6815V31.9225Z" fill="#070100"/>
<path d="M61.6815 29.6974H59.4285V31.9224H61.6815V29.6974Z" fill="#070100"/>
<path d="M61.6815 27.3826H59.4285V29.6974H61.6815V27.3826Z" fill="#F7FAF7"/>
<path d="M61.6815 25.0858H59.4285V27.4005H61.6815V25.0858Z" fill="#F7FAF7"/>
<path d="M61.6815 22.8607H59.4285V25.0858H61.6815V22.8607Z" fill="#F7FAF7"/>
<path d="M61.6815 20.5459H59.4285V22.8607H61.6815V20.5459Z" fill="#F7FAF7"/>
<path d="M61.6815 18.2311H59.4285V20.5459H61.6815V18.2311Z" fill="#F7FAF7"/>
<path d="M59.4284 89.0204H57.1396V91.3351H59.4284V89.0204Z" fill="#F7FAF7"/>
<path d="M59.4284 86.7056H57.1396V89.0204H59.4284V86.7056Z" fill="#F7FAF7"/>
<path d="M59.4284 84.4805H57.1396V86.7056H59.4284V84.4805Z" fill="#F7FAF7"/>
<path d="M59.4284 82.1837H57.1396V84.4985H59.4284V82.1837Z" fill="#F7FAF7"/>
<path d="M59.4284 79.8689H57.1396V82.1837H59.4284V79.8689Z" fill="#F7FAF7"/>
<path d="M59.4284 77.6438H57.1396V79.8689H59.4284V77.6438Z" fill="#070100"/>
<path d="M59.4284 75.3291H57.1396V77.6438H59.4284V75.3291Z" fill="#070100"/>
<path d="M59.4284 73.0143H57.1396V75.3291H59.4284V73.0143Z" fill="#070100"/>
<path d="M59.4284 70.7892H57.1396V73.0143H59.4284V70.7892Z" fill="#070100"/>
<path d="M59.4284 68.4744H57.1396V70.7892H59.4284V68.4744Z" fill="#070100"/>
<path d="M59.4284 66.1776H57.1396V68.4924H59.4284V66.1776Z" fill="#070100"/>
<path d="M59.4284 63.9346H57.1396V66.1597H59.4284V63.9346Z" fill="#F7FAF7"/>
<path d="M59.4284 61.6378H57.1396V63.9525H59.4284V61.6378Z" fill="#F7FAF7"/>
<path d="M59.4284 59.323H57.1396V61.6378H59.4284V59.323Z" fill="#F7FAF7"/>
<path d="M59.4284 54.7831H57.1396V57.0979H59.4284V54.7831Z" fill="#F7FAF7"/>
<path d="M59.4284 52.4684H57.1396V54.7831H59.4284V52.4684Z" fill="#F7FAF7"/>
<path d="M59.4284 50.2433H57.1396V52.4684H59.4284V50.2433Z" fill="#F7FAF7"/>
<path d="M59.4284 47.9285H57.1396V50.2433H59.4284V47.9285Z" fill="#F7FAF7"/>
<path d="M59.4284 45.6317H57.1396V47.9465H59.4284V45.6317Z" fill="#F7FAF7"/>
<path d="M59.4284 43.4066H57.1396V45.6317H59.4284V43.4066Z" fill="#F7FAF7"/>
<path d="M59.4284 41.0918H57.1396V43.4066H59.4284V41.0918Z" fill="#F7FAF7"/>
<path d="M59.4284 38.7771H57.1396V41.0918H59.4284V38.7771Z" fill="#F7FAF7"/>
<path d="M59.4284 36.552H57.1396V38.7771H59.4284V36.552Z" fill="#F7FAF7"/>
<path d="M59.4284 34.2372H57.1396V36.552H59.4284V34.2372Z" fill="#F7FAF7"/>
<path d="M59.4284 31.9224H57.1396V34.2372H59.4284V31.9224Z" fill="#F7FAF7"/>
<path d="M59.4284 29.6974H57.1396V31.9224H59.4284V29.6974Z" fill="#F7FAF7"/>
<path d="M59.4284 27.3826H57.1396V29.6974H59.4284V27.3826Z" fill="#F7FAF7"/>
<path d="M59.4284 25.0858H57.1396V27.4005H59.4284V25.0858Z" fill="#F7FAF7"/>
<path d="M59.4284 22.8607H57.1396V25.0858H59.4284V22.8607Z" fill="#F7FAF7"/>
<path d="M57.1395 93.5602H54.8865V95.875H57.1395V93.5602Z" fill="black"/>
<path d="M57.1395 91.3351H54.8865V93.5602H57.1395V91.3351Z" fill="#F7FAF7"/>
<path d="M57.1395 89.0204H54.8865V91.3351H57.1395V89.0204Z" fill="#F7FAF7"/>
<path d="M57.1395 86.7056H54.8865V89.0204H57.1395V86.7056Z" fill="#F7FAF7"/>
<path d="M57.1395 84.4805H54.8865V86.7056H57.1395V84.4805Z" fill="#F7FAF7"/>
<path d="M57.1395 82.1837H54.8865V84.4985H57.1395V82.1837Z" fill="#F7FAF7"/>
<path d="M57.1395 79.8689H54.8865V82.1837H57.1395V79.8689Z" fill="#F7FAF7"/>
<path d="M57.1395 77.6438H54.8865V79.8689H57.1395V77.6438Z" fill="#070100"/>
<path d="M57.1395 75.3291H54.8865V77.6438H57.1395V75.3291Z" fill="#070100"/>
<path d="M57.1395 73.0143H54.8865V75.3291H57.1395V73.0143Z" fill="#070100"/>
<path d="M57.1395 70.7892H54.8865V73.0143H57.1395V70.7892Z" fill="#FFFFFE"/>
<path d="M57.1395 68.4744H54.8865V70.7892H57.1395V68.4744Z" fill="#070100"/>
<path d="M57.1395 66.1776H54.8865V68.4924H57.1395V66.1776Z" fill="#070100"/>
<path d="M57.1395 63.9346H54.8865V66.1597H57.1395V63.9346Z" fill="#F7FAF7"/>
<path d="M57.1395 61.6378H54.8865V63.9525H57.1395V61.6378Z" fill="#F7FAF7"/>
<path d="M57.1395 59.323H54.8865V61.6378H57.1395V59.323Z" fill="#F7FAF7"/>
<path d="M57.1395 54.7831H54.8865V57.0979H57.1395V54.7831Z" fill="#F7FAF7"/>
<path d="M57.1395 52.4684H54.8865V54.7831H57.1395V52.4684Z" fill="#F7FAF7"/>
<path d="M57.1395 50.2433H54.8865V52.4684H57.1395V50.2433Z" fill="#F7FAF7"/>
<path d="M57.1395 47.9285H54.8865V50.2433H57.1395V47.9285Z" fill="#F7FAF7"/>
<path d="M57.1395 45.6317H54.8865V47.9465H57.1395V45.6317Z" fill="#F7FAF7"/>
<path d="M57.1395 43.4066H54.8865V45.6317H57.1395V43.4066Z" fill="#F7FAF7"/>
<path d="M57.1395 41.0918H54.8865V43.4066H57.1395V41.0918Z" fill="#F7FAF7"/>
<path d="M57.1395 38.7771H54.8865V41.0918H57.1395V38.7771Z" fill="#F7FAF7"/>
<path d="M57.1395 29.6974H54.8865V31.9224H57.1395V29.6974Z" fill="#F7FAF7"/>
<path d="M70.711 36.552H68.458V38.777H70.711V36.552Z" fill="#070100"/>
<path d="M70.711 34.2372H68.458V36.552H70.711V34.2372Z" fill="#070100"/>
<path d="M70.711 31.9224H68.458V34.2372H70.711V31.9224Z" fill="#070100"/>
<path d="M70.711 29.6974H68.458V31.9224H70.711V29.6974Z" fill="#070100"/>
<path d="M70.711 27.3826H68.458V29.6974H70.711V27.3826Z" fill="#070100"/>
<path d="M68.4581 41.0918H66.2051V43.4066H68.4581V41.0918Z" fill="#070100"/>
<path d="M68.4581 38.7771H66.2051V41.0918H68.4581V38.7771Z" fill="#070100"/>
<path d="M68.4581 25.0858H66.2051V27.4005H68.4581V25.0858Z" fill="#070100"/>
<path d="M68.4581 22.8607H66.2051V25.0858H68.4581V22.8607Z" fill="#070100"/>
<path d="M66.2053 47.9285H63.9165V50.2433H66.2053V47.9285Z" fill="#070100"/>
<path d="M66.2053 45.6317H63.9165V47.9465H66.2053V45.6317Z" fill="#070100"/>
<path d="M66.2053 43.4066H63.9165V45.6317H66.2053V43.4066Z" fill="#070100"/>
<path d="M66.2053 20.5459H63.9165V22.8607H66.2053V20.5459Z" fill="#070100"/>
<path d="M66.2053 18.2311H63.9165V20.5459H66.2053V18.2311Z" fill="#070100"/>
<path d="M66.2053 16.0061H63.9165V18.2311H66.2053V16.0061Z" fill="#070100"/>
<path d="M63.9344 16.0061H61.6814V18.2311H63.9344V16.0061Z" fill="#070100"/>
<path d="M61.6812 16.0061H59.4282V18.2311H61.6812V16.0061Z" fill="#070100"/>
<path d="M59.4284 20.5459H57.1396V22.8607H59.4284V20.5459Z" fill="#070100"/>
<path d="M59.4284 18.2311H57.1396V20.5459H59.4284V18.2311Z" fill="#070100"/>
<path d="M57.1395 27.3826H54.8865V29.6974H57.1395V27.3826Z" fill="#070100"/>
<path d="M57.1395 25.0858H54.8865V27.4005H57.1395V25.0858Z" fill="#070100"/>
<path d="M57.1395 22.8607H54.8865V25.0858H57.1395V22.8607Z" fill="#070100"/>
<path d="M54.8866 89.0204H52.6335V91.3351H54.8866V89.0204Z" fill="#F7FAF7"/>
<path d="M54.8866 86.7056H52.6335V89.0204H54.8866V86.7056Z" fill="#F7FAF7"/>
<path d="M54.8866 84.4805H52.6335V86.7056H54.8866V84.4805Z" fill="#F7FAF7"/>
<path d="M54.8866 82.1837H52.6335V84.4985H54.8866V82.1837Z" fill="#F7FAF7"/>
<path d="M54.8866 79.8689H52.6335V82.1837H54.8866V79.8689Z" fill="#F7FAF7"/>
<path d="M54.8866 77.6438H52.6335V79.8689H54.8866V77.6438Z" fill="#070100"/>
<path d="M54.8866 75.3291H52.6335V77.6438H54.8866V75.3291Z" fill="#070100"/>
<path d="M54.8866 73.0143H52.6335V75.3291H54.8866V73.0143Z" fill="#070100"/>
<path d="M54.8866 70.7892H52.6335V73.0143H54.8866V70.7892Z" fill="#070100"/>
<path d="M54.8866 68.4744H52.6335V70.7892H54.8866V68.4744Z" fill="#FFFFFE"/>
<path d="M54.8866 66.1776H52.6335V68.4924H54.8866V66.1776Z" fill="#070100"/>
<path d="M54.8866 63.9346H52.6335V66.1597H54.8866V63.9346Z" fill="#F7FAF7"/>
<path d="M54.8866 61.6378H52.6335V63.9525H54.8866V61.6378Z" fill="#F7FAF7"/>
<path d="M54.8866 57.0979H52.6335V59.323H54.8866V57.0979Z" fill="#F7FAF7"/>
<path d="M54.8866 54.7831H52.6335V57.0979H54.8866V54.7831Z" fill="#F7FAF7"/>
<path d="M54.8866 52.4684H52.6335V54.7831H54.8866V52.4684Z" fill="#F7FAF7"/>
<path d="M54.8866 50.2433H52.6335V52.4684H54.8866V50.2433Z" fill="#F7FAF7"/>
<path d="M54.8866 47.9285H52.6335V50.2433H54.8866V47.9285Z" fill="#F7FAF7"/>
<path d="M54.8866 45.6317H52.6335V47.9465H54.8866V45.6317Z" fill="#F7FAF7"/>
<path d="M54.8866 43.4066H52.6335V45.6317H54.8866V43.4066Z" fill="#F7FAF7"/>
<path d="M54.8866 41.0918H52.6335V43.4066H54.8866V41.0918Z" fill="#F7FAF7"/>
<path d="M52.6335 98.1898H50.3447V100.505H52.6335V98.1898Z" fill="#F7FAF7"/>
<path d="M52.6335 95.875H50.3447V98.1898H52.6335V95.875Z" fill="#F7FAF7"/>
<path d="M52.6335 93.5602H50.3447V95.875H52.6335V93.5602Z" fill="#F7FAF7"/>
<path d="M52.6335 91.3351H50.3447V93.5602H52.6335V91.3351Z" fill="#F7FAF7"/>
<path d="M52.6335 86.7056H50.3447V89.0204H52.6335V86.7056Z" fill="#F7FAF7"/>
<path d="M52.6335 84.4805H50.3447V86.7056H52.6335V84.4805Z" fill="#F7FAF7"/>
<path d="M52.6335 82.1837H50.3447V84.4985H52.6335V82.1837Z" fill="#F7FAF7"/>
<path d="M52.6335 79.8689H50.3447V82.1837H52.6335V79.8689Z" fill="#F7FAF7"/>
<path d="M52.6335 77.6438H50.3447V79.8689H52.6335V77.6438Z" fill="#070100"/>
<path d="M52.6335 75.3291H50.3447V77.6438H52.6335V75.3291Z" fill="#070100"/>
<path d="M52.6335 73.0143H50.3447V75.3291H52.6335V73.0143Z" fill="#070100"/>
<path d="M52.6335 70.7892H50.3447V73.0143H52.6335V70.7892Z" fill="#070100"/>
<path d="M52.6335 68.4744H50.3447V70.7892H52.6335V68.4744Z" fill="#070100"/>
<path d="M52.6335 66.1776H50.3447V68.4924H52.6335V66.1776Z" fill="#070100"/>
<path d="M52.6335 63.9346H50.3447V66.1597H52.6335V63.9346Z" fill="#F7FAF7"/>
<path d="M52.6335 61.6378H50.3447V63.9525H52.6335V61.6378Z" fill="#F7FAF7"/>
<path d="M52.6335 59.323H50.3447V61.6378H52.6335V59.323Z" fill="#F7FAF7"/>
<path d="M52.6335 57.0979H50.3447V59.323H52.6335V57.0979Z" fill="#F7FAF7"/>
<path d="M52.6335 54.7831H50.3447V57.0979H52.6335V54.7831Z" fill="#F7FAF7"/>
<path d="M52.6335 52.4684H50.3447V54.7831H52.6335V52.4684Z" fill="#F7FAF7"/>
<path d="M52.6335 50.2433H50.3447V52.4684H52.6335V50.2433Z" fill="#F7FAF7"/>
<path d="M52.6335 47.9285H50.3447V50.2433H52.6335V47.9285Z" fill="#F7FAF7"/>
<path d="M52.6335 45.6317H50.3447V47.9465H52.6335V45.6317Z" fill="#F7FAF7"/>
<path d="M52.6335 43.4066H50.3447V45.6317H52.6335V43.4066Z" fill="#F7FAF7"/>
<path d="M50.3446 102.712H48.0916V105.026H50.3446V102.712Z" fill="#F7FAF7"/>
<path d="M50.3446 100.487H48.0916V102.712H50.3446V100.487Z" fill="#F7FAF7"/>
<path d="M50.3446 98.1898H48.0916V100.505H50.3446V98.1898Z" fill="#F7FAF7"/>
<path d="M50.3446 95.875H48.0916V98.1898H50.3446V95.875Z" fill="#F7FAF7"/>
<path d="M50.3446 93.5602H48.0916V95.875H50.3446V93.5602Z" fill="#F7FAF7"/>
<path d="M50.3446 91.3351H48.0916V93.5602H50.3446V91.3351Z" fill="#F7FAF7"/>
<path d="M50.3446 89.0204H48.0916V91.3351H50.3446V89.0204Z" fill="#F7FAF7"/>
<path d="M50.3446 84.4805H48.0916V86.7056H50.3446V84.4805Z" fill="#F7FAF7"/>
<path d="M50.3446 82.1837H48.0916V84.4985H50.3446V82.1837Z" fill="#F7FAF7"/>
<path d="M50.3446 79.8689H48.0916V82.1837H50.3446V79.8689Z" fill="#F7FAF7"/>
<path d="M50.3446 77.6438H48.0916V79.8689H50.3446V77.6438Z" fill="#070100"/>
<path d="M50.3446 75.3291H48.0916V77.6438H50.3446V75.3291Z" fill="#070100"/>
<path d="M50.3446 73.0143H48.0916V75.3291H50.3446V73.0143Z" fill="#070100"/>
<path d="M50.3446 70.7892H48.0916V73.0143H50.3446V70.7892Z" fill="#070100"/>
<path d="M50.3446 68.4744H48.0916V70.7892H50.3446V68.4744Z" fill="#070100"/>
<path d="M50.3446 66.1776H48.0916V68.4924H50.3446V66.1776Z" fill="#070100"/>
<path d="M50.3446 63.9346H48.0916V66.1597H50.3446V63.9346Z" fill="#F7FAF7"/>
<path d="M50.3446 61.6378H48.0916V63.9525H50.3446V61.6378Z" fill="#F7FAF7"/>
<path d="M50.3446 59.323H48.0916V61.6378H50.3446V59.323Z" fill="#F7FAF7"/>
<path d="M50.3446 57.0979H48.0916V59.323H50.3446V57.0979Z" fill="#F7FAF7"/>
<path d="M50.3446 54.7831H48.0916V57.0979H50.3446V54.7831Z" fill="#F7FAF7"/>
<path d="M50.3446 52.4684H48.0916V54.7831H50.3446V52.4684Z" fill="#F7FAF7"/>
<path d="M50.3446 50.2433H48.0916V52.4684H50.3446V50.2433Z" fill="#F7FAF7"/>
<path d="M50.3446 47.9285H48.0916V50.2433H50.3446V47.9285Z" fill="#F7FAF7"/>
<path d="M48.0919 102.712H45.8389V105.026H48.0919V102.712Z" fill="#F7FAF7"/>
<path d="M48.0919 100.487H45.8389V102.712H48.0919V100.487Z" fill="#F7FAF7"/>
<path d="M48.0919 98.1898H45.8389V100.505H48.0919V98.1898Z" fill="#F7FAF7"/>
<path d="M48.0919 95.875H45.8389V98.1898H48.0919V95.875Z" fill="#F7FAF7"/>
<path d="M48.0919 93.5602H45.8389V95.875H48.0919V93.5602Z" fill="#F7FAF7"/>
<path d="M48.0919 89.0204H45.8389V91.3351H48.0919V89.0204Z" fill="#F7FAF7"/>
<path d="M48.0919 86.7056H45.8389V89.0204H48.0919V86.7056Z" fill="#F7FAF7"/>
<path d="M48.0919 84.4805H45.8389V86.7056H48.0919V84.4805Z" fill="#F7FAF7"/>
<path d="M48.0919 82.1837H45.8389V84.4985H48.0919V82.1837Z" fill="#F7FAF7"/>
<path d="M48.0919 79.8689H45.8389V82.1837H48.0919V79.8689Z" fill="#F7FAF7"/>
<path d="M48.0919 77.6438H45.8389V79.8689H48.0919V77.6438Z" fill="#070100"/>
<path d="M48.0919 75.3291H45.8389V77.6438H48.0919V75.3291Z" fill="#070100"/>
<path d="M48.0919 73.0143H45.8389V75.3291H48.0919V73.0143Z" fill="#070100"/>
<path d="M48.0919 70.7892H45.8389V73.0143H48.0919V70.7892Z" fill="#070100"/>
<path d="M48.0919 68.4744H45.8389V70.7892H48.0919V68.4744Z" fill="#070100"/>
<path d="M48.0919 66.1776H45.8389V68.4924H48.0919V66.1776Z" fill="#070100"/>
<path d="M48.0919 63.9346H45.8389V66.1597H48.0919V63.9346Z" fill="#F7FAF7"/>
<path d="M48.0919 61.6378H45.8389V63.9525H48.0919V61.6378Z" fill="#F7FAF7"/>
<path d="M48.0919 59.323H45.8389V61.6378H48.0919V59.323Z" fill="#F7FAF7"/>
<path d="M48.0919 57.0979H45.8389V59.323H48.0919V57.0979Z" fill="#F7FAF7"/>
<path d="M48.0919 54.7831H45.8389V57.0979H48.0919V54.7831Z" fill="#F7FAF7"/>
<path d="M48.0919 52.4684H45.8389V54.7831H48.0919V52.4684Z" fill="#F7FAF7"/>
<path d="M45.8388 105.026H43.55V107.341H45.8388V105.026Z" fill="#F7FAF7"/>
<path d="M45.8388 102.712H43.55V105.026H45.8388V102.712Z" fill="#F7FAF7"/>
<path d="M45.8388 100.487H43.55V102.712H45.8388V100.487Z" fill="#F7FAF7"/>
<path d="M45.8388 98.1898H43.55V100.505H45.8388V98.1898Z" fill="#F7FAF7"/>
<path d="M45.8388 91.3351H43.55V93.5602H45.8388V91.3351Z" fill="#F7FAF7"/>
<path d="M45.8388 89.0204H43.55V91.3351H45.8388V89.0204Z" fill="#F7FAF7"/>
<path d="M45.8388 86.7056H43.55V89.0204H45.8388V86.7056Z" fill="#F7FAF7"/>
<path d="M45.8388 84.4805H43.55V86.7056H45.8388V84.4805Z" fill="#F7FAF7"/>
<path d="M45.8388 82.1837H43.55V84.4985H45.8388V82.1837Z" fill="#F7FAF7"/>
<path d="M45.8388 79.8689H43.55V82.1837H45.8388V79.8689Z" fill="#F7FAF7"/>
<path d="M45.8388 77.6438H43.55V79.8689H45.8388V77.6438Z" fill="#F7FAF7"/>
<path d="M45.8388 75.3291H43.55V77.6438H45.8388V75.3291Z" fill="#070100"/>
<path d="M45.8388 73.0143H43.55V75.3291H45.8388V73.0143Z" fill="#070100"/>
<path d="M45.8388 70.7892H43.55V73.0143H45.8388V70.7892Z" fill="#070100"/>
<path d="M45.8388 68.4744H43.55V70.7892H45.8388V68.4744Z" fill="#070100"/>
<path d="M45.8388 66.1776H43.55V68.4924H45.8388V66.1776Z" fill="#F7FAF7"/>
<path d="M45.8388 63.9346H43.55V66.1597H45.8388V63.9346Z" fill="#F7FAF7"/>
<path d="M45.8388 61.6378H43.55V63.9525H45.8388V61.6378Z" fill="#F7FAF7"/>
<path d="M45.8388 59.323H43.55V61.6378H45.8388V59.323Z" fill="#F7FAF7"/>
<path d="M43.5679 105.026H41.3149V107.341H43.5679V105.026Z" fill="#F7FAF7"/>
<path d="M43.5679 102.712H41.3149V105.026H43.5679V102.712Z" fill="#F7FAF7"/>
<path d="M43.5679 100.487H41.3149V102.712H43.5679V100.487Z" fill="#F7FAF7"/>
<path d="M43.5679 91.3351H41.3149V93.5602H43.5679V91.3351Z" fill="#F7FAF7"/>
<path d="M43.5679 89.0204H41.3149V91.3351H43.5679V89.0204Z" fill="#F7FAF7"/>
<path d="M43.5679 86.7056H41.3149V89.0204H43.5679V86.7056Z" fill="#F7FAF7"/>
<path d="M43.5679 84.4805H41.3149V86.7056H43.5679V84.4805Z" fill="#F7FAF7"/>
<path d="M43.5679 82.1837H41.3149V84.4985H43.5679V82.1837Z" fill="#F7FAF7"/>
<path d="M43.5679 79.8689H41.3149V82.1837H43.5679V79.8689Z" fill="#F7FAF7"/>
<path d="M43.5679 77.6438H41.3149V79.8689H43.5679V77.6438Z" fill="#F7FAF7"/>
<path d="M43.5679 75.3291H41.3149V77.6438H43.5679V75.3291Z" fill="#F7FAF7"/>
<path d="M43.5679 73.0143H41.3149V75.3291H43.5679V73.0143Z" fill="#F7FAF7"/>
<path d="M43.5679 70.7892H41.3149V73.0143H43.5679V70.7892Z" fill="#070100"/>
<path d="M43.5679 68.4744H41.3149V70.7892H43.5679V68.4744Z" fill="#F7FAF7"/>
<path d="M43.5679 66.1776H41.3149V68.4924H43.5679V66.1776Z" fill="#F7FAF7"/>
<path d="M43.5679 63.9346H41.3149V66.1597H43.5679V63.9346Z" fill="#F7FAF7"/>
<path d="M43.5679 61.6378H41.3149V63.9525H43.5679V61.6378Z" fill="#F7FAF7"/>
<path d="M41.3148 105.026H39.0618V107.341H41.3148V105.026Z" fill="#F7FAF7"/>
<path d="M41.3148 102.712H39.0618V105.026H41.3148V102.712Z" fill="#F7FAF7"/>
<path d="M41.3148 95.875H39.0618V98.1898H41.3148V95.875Z" fill="#B577E0"/>
<path d="M41.3148 91.3351H39.0618V93.5602H41.3148V91.3351Z" fill="#F7FAF7"/>
<path d="M41.3148 89.0204H39.0618V91.3351H41.3148V89.0204Z" fill="#F7FAF7"/>
<path d="M41.3148 86.7056H39.0618V89.0204H41.3148V86.7056Z" fill="#F7FAF7"/>
<path d="M41.3148 84.4805H39.0618V86.7056H41.3148V84.4805Z" fill="#F7FAF7"/>
<path d="M41.3148 82.1837H39.0618V84.4985H41.3148V82.1837Z" fill="#F7FAF7"/>
<path d="M41.3148 79.8689H39.0618V82.1837H41.3148V79.8689Z" fill="#F7FAF7"/>
<path d="M41.3148 77.6438H39.0618V79.8689H41.3148V77.6438Z" fill="#F7FAF7"/>
<path d="M41.3148 75.3291H39.0618V77.6438H41.3148V75.3291Z" fill="#F7FAF7"/>
<path d="M41.3148 73.0143H39.0618V75.3291H41.3148V73.0143Z" fill="#F7FAF7"/>
<path d="M41.3148 70.7892H39.0618V73.0143H41.3148V70.7892Z" fill="#F7FAF7"/>
<path d="M41.3148 68.4744H39.0618V70.7892H41.3148V68.4744Z" fill="#070100"/>
<path d="M41.3148 66.1776H39.0618V68.4924H41.3148V66.1776Z" fill="#F7FAF7"/>
<path d="M41.3148 63.9346H39.0618V66.1597H41.3148V63.9346Z" fill="#F7FAF7"/>
<path d="M39.0617 105.026H36.7729V107.341H39.0617V105.026Z" fill="#F7FAF7"/>
<path d="M39.0617 102.712H36.7729V105.026H39.0617V102.712Z" fill="#F7FAF7"/>
<path d="M39.0617 95.875H36.7729V98.1898H39.0617V95.875Z" fill="#B577E0"/>
<path d="M39.0617 91.3351H36.7729V93.5602H39.0617V91.3351Z" fill="#F7FAF7"/>
<path d="M39.0617 89.0204H36.7729V91.3351H39.0617V89.0204Z" fill="#F7FAF7"/>
<path d="M39.0617 86.7056H36.7729V89.0204H39.0617V86.7056Z" fill="#F7FAF7"/>
<path d="M39.0617 84.4805H36.7729V86.7056H39.0617V84.4805Z" fill="#F7FAF7"/>
<path d="M39.0617 82.1837H36.7729V84.4985H39.0617V82.1837Z" fill="#F7FAF7"/>
<path d="M39.0617 79.8689H36.7729V82.1837H39.0617V79.8689Z" fill="#F7FAF7"/>
<path d="M39.0617 77.6438H36.7729V79.8689H39.0617V77.6438Z" fill="#F7FAF7"/>
<path d="M39.0617 75.3291H36.7729V77.6438H39.0617V75.3291Z" fill="#F7FAF7"/>
<path d="M39.0617 73.0143H36.7729V75.3291H39.0617V73.0143Z" fill="#F7FAF7"/>
<path d="M39.0617 70.7892H36.7729V73.0143H39.0617V70.7892Z" fill="#F7FAF7"/>
<path d="M39.0617 68.4744H36.7729V70.7892H39.0617V68.4744Z" fill="#070100"/>
<path d="M39.0617 66.1776H36.7729V68.4924H39.0617V66.1776Z" fill="#F7FAF7"/>
<path d="M39.0617 63.9346H36.7729V66.1597H39.0617V63.9346Z" fill="#F7FAF7"/>
<path d="M54.8866 36.552H52.6335V38.7771H54.8866V36.552Z" fill="#63DFDB"/>
<path d="M54.8866 34.2372H52.6335V36.552H54.8866V34.2372Z" fill="#63DFDB"/>
<path d="M54.8866 31.9224H52.6335V34.2372H54.8866V31.9224Z" fill="#63DFDB"/>
<path d="M52.6332 38.7771H50.3445V41.0918H52.6332V38.7771Z" fill="#63DFDB"/>
<path d="M52.6332 36.552H50.3445V38.7771H52.6332V36.552Z" fill="#63DFDB"/>
<path d="M52.6332 34.2372H50.3445V36.552H52.6332V34.2372Z" fill="#63DFDB"/>
<path d="M52.6332 31.9224H50.3445V34.2372H52.6332V31.9224Z" fill="#63DFDB"/>
<path d="M52.6332 29.6974H50.3445V31.9224H52.6332V29.6974Z" fill="#63DFDB"/>
<path d="M50.3446 41.0918H48.0916V43.4066H50.3446V41.0918Z" fill="#63DFDB"/>
<path d="M50.3446 38.7771H48.0916V41.0918H50.3446V38.7771Z" fill="#63DFDB"/>
<path d="M50.3446 36.552H48.0916V38.7771H50.3446V36.552Z" fill="#63DFDB"/>
<path d="M50.3446 34.2372H48.0916V36.552H50.3446V34.2372Z" fill="#63DFDB"/>
<path d="M50.3446 31.9224H48.0916V34.2372H50.3446V31.9224Z" fill="#63DFDB"/>
<path d="M50.3446 29.6974H48.0916V31.9224H50.3446V29.6974Z" fill="#070100"/>
<path d="M48.0919 45.6317H45.8389V47.9465H48.0919V45.6317Z" fill="#63DFDB"/>
<path d="M48.0919 43.4066H45.8389V45.6317H48.0919V43.4066Z" fill="#63DFDB"/>
<path d="M48.0919 41.0918H45.8389V43.4066H48.0919V41.0918Z" fill="#63DFDB"/>
<path d="M48.0919 38.7771H45.8389V41.0918H48.0919V38.7771Z" fill="#63DFDB"/>
<path d="M48.0919 36.552H45.8389V38.7771H48.0919V36.552Z" fill="#63DFDB"/>
<path d="M45.8388 50.2433H43.55V52.4684H45.8388V50.2433Z" fill="#63DFDB"/>
<path d="M45.8388 47.9285H43.55V50.2433H45.8388V47.9285Z" fill="#63DFDB"/>
<path d="M45.8388 45.6317H43.55V47.9465H45.8388V45.6317Z" fill="#63DFDB"/>
<path d="M45.8388 43.4066H43.55V45.6317H45.8388V43.4066Z" fill="#63DFDB"/>
<path d="M45.8388 41.0918H43.55V43.4066H45.8388V41.0918Z" fill="#63DFDB"/>
<path d="M43.5677 57.0979H41.3147V59.323H43.5677V57.0979Z" fill="#63DFDB"/>
<path d="M43.5677 54.7831H41.3147V57.0979H43.5677V54.7831Z" fill="#63DFDB"/>
<path d="M43.5677 52.4684H41.3147V54.7831H43.5677V52.4684Z" fill="#63DFDB"/>
<path d="M43.5677 50.2433H41.3147V52.4684H43.5677V50.2433Z" fill="#63DFDB"/>
<path d="M43.5677 47.9285H41.3147V50.2433H43.5677V47.9285Z" fill="#63DFDB"/>
<path d="M43.5677 45.6317H41.3147V47.9465H43.5677V45.6317Z" fill="#63DFDB"/>
<path d="M41.3148 59.323H39.0618V61.6378H41.3148V59.323Z" fill="#63DFDB"/>
<path d="M41.3148 57.0979H39.0618V59.323H41.3148V57.0979Z" fill="#63DFDB"/>
<path d="M39.0617 59.323H36.7729V61.6378H39.0617V59.323Z" fill="#63DFDB"/>
<path d="M39.0617 54.7831H36.7729V57.0979H39.0617V54.7831Z" fill="#F7FAF7"/>
<path d="M36.773 105.026H34.52V107.341H36.773V105.026Z" fill="#F7FAF7"/>
<path d="M36.773 102.712H34.52V105.026H36.773V102.712Z" fill="#F7FAF7"/>
<path d="M36.773 95.875H34.52V98.1898H36.773V95.875Z" fill="#F7FAF7"/>
<path d="M36.773 91.3351H34.52V93.5602H36.773V91.3351Z" fill="#F7FAF7"/>
<path d="M36.773 89.0204H34.52V91.3351H36.773V89.0204Z" fill="#F7FAF7"/>
<path d="M36.773 86.7056H34.52V89.0204H36.773V86.7056Z" fill="#F7FAF7"/>
<path d="M36.773 84.4805H34.52V86.7056H36.773V84.4805Z" fill="#F7FAF7"/>
<path d="M36.773 82.1837H34.52V84.4985H36.773V82.1837Z" fill="#F7FAF7"/>
<path d="M36.773 79.8689H34.52V82.1837H36.773V79.8689Z" fill="#F7FAF7"/>
<path d="M36.773 77.6438H34.52V79.8689H36.773V77.6438Z" fill="#F7FAF7"/>
<path d="M36.773 75.3291H34.52V77.6438H36.773V75.3291Z" fill="#F7FAF7"/>
<path d="M36.773 73.0143H34.52V75.3291H36.773V73.0143Z" fill="#F7FAF7"/>
<path d="M36.773 70.7892H34.52V73.0143H36.773V70.7892Z" fill="#F7FAF7"/>
<path d="M36.773 68.4744H34.52V70.7892H36.773V68.4744Z" fill="#070100"/>
<path d="M36.773 66.1776H34.52V68.4924H36.773V66.1776Z" fill="#F7FAF7"/>
<path d="M36.773 63.9346H34.52V66.1597H36.773V63.9346Z" fill="#F7FAF7"/>
<path d="M36.773 57.0979H34.52V59.323H36.773V57.0979Z" fill="#F7FAF7"/>
<path d="M34.52 105.026H32.2312V107.341H34.52V105.026Z" fill="#F7FAF7"/>
<path d="M34.52 102.712H32.2312V105.026H34.52V102.712Z" fill="#F7FAF7"/>
<path d="M34.52 95.875H32.2312V98.1898H34.52V95.875Z" fill="#F7FAF7"/>
<path d="M34.52 91.3351H32.2312V93.5602H34.52V91.3351Z" fill="#F7FAF7"/>
<path d="M34.52 89.0204H32.2312V91.3351H34.52V89.0204Z" fill="#F7FAF7"/>
<path d="M34.52 86.7056H32.2312V89.0204H34.52V86.7056Z" fill="#F7FAF7"/>
<path d="M34.52 84.4805H32.2312V86.7056H34.52V84.4805Z" fill="#F7FAF7"/>
<path d="M34.52 82.1837H32.2312V84.4985H34.52V82.1837Z" fill="#F7FAF7"/>
<path d="M34.52 79.8689H32.2312V82.1837H34.52V79.8689Z" fill="#F7FAF7"/>
<path d="M34.52 77.6438H32.2312V79.8689H34.52V77.6438Z" fill="#F7FAF7"/>
<path d="M34.52 75.3291H32.2312V77.6438H34.52V75.3291Z" fill="#F7FAF7"/>
<path d="M34.52 73.0143H32.2312V75.3291H34.52V73.0143Z" fill="#F7FAF7"/>
<path d="M34.52 70.7892H32.2312V73.0143H34.52V70.7892Z" fill="#F7FAF7"/>
<path d="M34.52 68.4744H32.2312V70.7892H34.52V68.4744Z" fill="#070100"/>
<path d="M34.52 66.1776H32.2312V68.4924H34.52V66.1776Z" fill="#F7FAF7"/>
<path d="M34.52 63.9346H32.2312V66.1597H34.52V63.9346Z" fill="#F7FAF7"/>
<path d="M34.52 59.323H32.2312V61.6378H34.52V59.323Z" fill="#F7FAF7"/>
<path d="M34.52 57.0979H32.2312V59.323H34.52V57.0979Z" fill="#F7FAF7"/>
<path d="M45.8388 25.0858H43.55V27.4006H45.8388V25.0858Z" fill="#070100"/>
<path d="M43.5679 27.3826H41.3149V29.6974H43.5679V27.3826Z" fill="#B577E0"/>
<path d="M43.5679 25.0858H41.3149V27.4006H43.5679V25.0858Z" fill="#B577E0"/>
<path d="M43.5679 20.5459H41.3149V22.8607H43.5679V20.5459Z" fill="#B577E0"/>
<path d="M43.5679 18.2311H41.3149V20.5459H43.5679V18.2311Z" fill="#B577E0"/>
<path d="M41.315 29.6974H39.062V31.9225H41.315V29.6974Z" fill="#B577E0"/>
<path d="M41.315 27.3826H39.062V29.6974H41.315V27.3826Z" fill="#B577E0"/>
<path d="M41.315 22.8607H39.062V25.0858H41.315V22.8607Z" fill="#B577E0"/>
<path d="M41.315 20.5459H39.062V22.8607H41.315V20.5459Z" fill="#B577E0"/>
<path d="M41.315 16.0061H39.062V18.2312H41.315V16.0061Z" fill="#B577E0"/>
<path d="M41.315 13.6913H39.062V16.0061H41.315V13.6913Z" fill="#B577E0"/>
<path d="M41.315 9.07969H39.062V11.3945H41.315V9.07969Z" fill="#B577E0"/>
<path d="M39.0617 29.6974H36.7729V31.9225H39.0617V29.6974Z" fill="#B577E0"/>
<path d="M39.0617 27.3826H36.7729V29.6974H39.0617V27.3826Z" fill="#B577E0"/>
<path d="M39.0617 22.8607H36.7729V25.0858H39.0617V22.8607Z" fill="#B577E0"/>
<path d="M39.0617 20.5459H36.7729V22.8607H39.0617V20.5459Z" fill="#B577E0"/>
<path d="M39.0617 16.0061H36.7729V18.2312H39.0617V16.0061Z" fill="#B577E0"/>
<path d="M39.0617 13.6913H36.7729V16.0061H39.0617V13.6913Z" fill="#B577E0"/>
<path d="M39.0617 9.07969H36.7729V11.3945H39.0617V9.07969Z" fill="#B577E0"/>
<path d="M39.0617 6.85463H36.7729V9.07969H39.0617V6.85463Z" fill="#B577E0"/>
<path d="M39.0617 4.53985H36.7729V6.85463H39.0617V4.53985Z" fill="#B577E0"/>
<path d="M39.0617 2.22506H36.7729V4.53984H39.0617V2.22506Z" fill="#B577E0"/>
<path d="M36.773 31.9225H34.52V34.2372H36.773V31.9225Z" fill="#B577E0"/>
<path d="M36.773 29.6974H34.52V31.9225H36.773V29.6974Z" fill="#B577E0"/>
<path d="M36.773 27.3826H34.52V29.6974H36.773V27.3826Z" fill="#B577E0"/>
<path d="M36.773 22.8607H34.52V25.0858H36.773V22.8607Z" fill="#B577E0"/>
<path d="M36.773 20.5459H34.52V22.8607H36.773V20.5459Z" fill="#B577E0"/>
<path d="M36.773 16.0061H34.52V18.2312H36.773V16.0061Z" fill="#B577E0"/>
<path d="M36.773 13.6913H34.52V16.0061H36.773V13.6913Z" fill="#B577E0"/>
<path d="M36.773 9.07969H34.52V11.3945H36.773V9.07969Z" fill="#B577E0"/>
<path d="M34.52 29.6974H32.2312V31.9225H34.52V29.6974Z" fill="#B577E0"/>
<path d="M34.52 27.3826H32.2312V29.6974H34.52V27.3826Z" fill="#B577E0"/>
<path d="M34.52 25.0858H32.2312V27.4006H34.52V25.0858Z" fill="#B577E0"/>
<path d="M34.52 20.5459H32.2312V22.8607H34.52V20.5459Z" fill="#B577E0"/>
<path d="M34.52 18.2311H32.2312V20.5459H34.52V18.2311Z" fill="#B577E0"/>
<path d="M32.231 105.026H29.978V107.341H32.231V105.026Z" fill="#F7FAF7"/>
<path d="M32.231 102.712H29.978V105.026H32.231V102.712Z" fill="#F7FAF7"/>
<path d="M32.231 100.487H29.978V102.712H32.231V100.487Z" fill="#F7FAF7"/>
<path d="M43.5677 95.875H41.3147V98.1898H43.5677V95.875Z" fill="#B577E0"/>
<path d="M41.3148 98.1898H39.0618V100.505H41.3148V98.1898Z" fill="#B577E0"/>
<path d="M39.0617 98.1898H36.7729V100.505H39.0617V98.1898Z" fill="#B577E0"/>
<path d="M36.7728 98.1898H34.5198V100.505H36.7728V98.1898Z" fill="#B577E0"/>
<path d="M34.52 98.1898H32.2312V100.505H34.52V98.1898Z" fill="#B577E0"/>
<path d="M32.231 95.875H29.978V98.1898H32.231V95.875Z" fill="#B577E0"/>
<path d="M32.231 91.3351H29.978V93.5602H32.231V91.3351Z" fill="#F7FAF7"/>
<path d="M32.231 89.0204H29.978V91.3351H32.231V89.0204Z" fill="#F7FAF7"/>
<path d="M32.231 86.7056H29.978V89.0204H32.231V86.7056Z" fill="#F7FAF7"/>
<path d="M32.231 84.4805H29.978V86.7056H32.231V84.4805Z" fill="#F7FAF7"/>
<path d="M32.231 82.1837H29.978V84.4985H32.231V82.1837Z" fill="#F7FAF7"/>
<path d="M32.231 79.8689H29.978V82.1837H32.231V79.8689Z" fill="#F7FAF7"/>
<path d="M32.231 77.6438H29.978V79.8689H32.231V77.6438Z" fill="#F7FAF7"/>
<path d="M32.231 75.3291H29.978V77.6438H32.231V75.3291Z" fill="#F7FAF7"/>
<path d="M32.231 73.0143H29.978V75.3291H32.231V73.0143Z" fill="#F7FAF7"/>
<path d="M32.231 70.7892H29.978V73.0143H32.231V70.7892Z" fill="#070100"/>
<path d="M32.231 68.4744H29.978V70.7892H32.231V68.4744Z" fill="#F7FAF7"/>
<path d="M32.231 66.1776H29.978V68.4924H32.231V66.1776Z" fill="#F7FAF7"/>
<path d="M32.231 63.9346H29.978V66.1597H32.231V63.9346Z" fill="#F7FAF7"/>
<path d="M32.231 61.6378H29.978V63.9525H32.231V61.6378Z" fill="#F7FAF7"/>
<path d="M32.231 59.323H29.978V61.6378H32.231V59.323Z" fill="#F7FAF7"/>
<path d="M45.8386 22.8607H43.5498V25.0858H45.8386V22.8607Z" fill="#070100"/>
<path d="M45.8386 20.5459H43.5498V22.8607H45.8386V20.5459Z" fill="#070100"/>
<path d="M45.8386 18.2311H43.5498V20.5459H45.8386V18.2311Z" fill="#070100"/>
<path d="M43.5677 22.8607H41.3147V25.0858H43.5677V22.8607Z" fill="#070100"/>
<path d="M43.5677 16.0061H41.3147V18.2311H43.5677V16.0061Z" fill="#070100"/>
<path d="M43.5677 13.6913H41.3147V16.0061H43.5677V13.6913Z" fill="#070100"/>
<path d="M43.5677 11.3945H41.3147V13.7092H43.5677V11.3945Z" fill="#070100"/>
<path d="M43.5677 9.07968H41.3147V11.3945H43.5677V9.07968Z" fill="#070100"/>
<path d="M41.3148 25.0858H39.0618V27.4005H41.3148V25.0858Z" fill="#070100"/>
<path d="M41.3148 18.2311H39.0618V20.5459H41.3148V18.2311Z" fill="#070100"/>
<path d="M41.3148 11.3945H39.0618V13.7092H41.3148V11.3945Z" fill="#070100"/>
<path d="M41.3148 6.85463H39.0618V9.07969H41.3148V6.85463Z" fill="#070100"/>
<path d="M41.3148 4.53984H39.0618V6.85462H41.3148V4.53984Z" fill="#070100"/>
<path d="M41.3148 2.22506H39.0618V4.53984H41.3148V2.22506Z" fill="#070100"/>
<path d="M39.0617 25.0858H36.7729V27.4005H39.0617V25.0858Z" fill="#070100"/>
<path d="M39.0617 18.2311H36.7729V20.5459H39.0617V18.2311Z" fill="#070100"/>
<path d="M39.0617 11.3945H36.7729V13.7092H39.0617V11.3945Z" fill="#070100"/>
<path d="M39.0617 0H36.7729V2.22506H39.0617V0Z" fill="#070100"/>
<path d="M36.7728 25.0858H34.5198V27.4005H36.7728V25.0858Z" fill="#070100"/>
<path d="M36.7728 18.2311H34.5198V20.5459H36.7728V18.2311Z" fill="#070100"/>
<path d="M36.7728 11.3945H34.5198V13.7092H36.7728V11.3945Z" fill="#070100"/>
<path d="M36.7728 6.85463H34.5198V9.07969H36.7728V6.85463Z" fill="#070100"/>
<path d="M36.7728 4.53984H34.5198V6.85462H36.7728V4.53984Z" fill="#070100"/>
<path d="M36.7728 2.22506H34.5198V4.53984H36.7728V2.22506Z" fill="#070100"/>
<path d="M34.52 31.9224H32.2312V34.2372H34.52V31.9224Z" fill="#070100"/>
<path d="M34.52 22.8607H32.2312V25.0858H34.52V22.8607Z" fill="#070100"/>
<path d="M34.52 16.0061H32.2312V18.2311H34.52V16.0061Z" fill="#070100"/>
<path d="M34.52 13.6913H32.2312V16.0061H34.52V13.6913Z" fill="#070100"/>
<path d="M34.52 11.3945H32.2312V13.7092H34.52V11.3945Z" fill="#070100"/>
<path d="M34.52 9.07968H32.2312V11.3945H34.52V9.07968Z" fill="#070100"/>
<path d="M32.231 29.6974H29.978V31.9224H32.231V29.6974Z" fill="#070100"/>
<path d="M32.231 27.3826H29.978V29.6974H32.231V27.3826Z" fill="#070100"/>
<path d="M32.231 25.0858H29.978V27.4005H32.231V25.0858Z" fill="#070100"/>
<path d="M32.231 22.8607H29.978V25.0858H32.231V22.8607Z" fill="#070100"/>
<path d="M32.231 20.5459H29.978V22.8607H32.231V20.5459Z" fill="#070100"/>
<path d="M32.231 18.2311H29.978V20.5459H32.231V18.2311Z" fill="#070100"/>
<path d="M29.9784 105.026H27.7253V107.341H29.9784V105.026Z" fill="#F7FAF7"/>
<path d="M29.9784 102.712H27.7253V105.026H29.9784V102.712Z" fill="#F7FAF7"/>
<path d="M29.9784 100.487H27.7253V102.712H29.9784V100.487Z" fill="#F7FAF7"/>
<path d="M29.9784 98.1898H27.7253V100.505H29.9784V98.1898Z" fill="#F7FAF7"/>
<path d="M29.9784 91.3351H27.7253V93.5602H29.9784V91.3351Z" fill="#F7FAF7"/>
<path d="M29.9784 89.0204H27.7253V91.3351H29.9784V89.0204Z" fill="#F7FAF7"/>
<path d="M29.9784 86.7056H27.7253V89.0204H29.9784V86.7056Z" fill="#F7FAF7"/>
<path d="M29.9784 84.4805H27.7253V86.7056H29.9784V84.4805Z" fill="#F7FAF7"/>
<path d="M29.9784 82.1837H27.7253V84.4985H29.9784V82.1837Z" fill="#F7FAF7"/>
<path d="M29.9784 79.8689H27.7253V82.1837H29.9784V79.8689Z" fill="#F7FAF7"/>
<path d="M29.9784 77.6438H27.7253V79.8689H29.9784V77.6438Z" fill="#F7FAF7"/>
<path d="M29.9784 75.3291H27.7253V77.6438H29.9784V75.3291Z" fill="#070100"/>
<path d="M29.9784 73.0143H27.7253V75.3291H29.9784V73.0143Z" fill="#070100"/>
<path d="M29.9784 70.7892H27.7253V73.0143H29.9784V70.7892Z" fill="#070100"/>
<path d="M29.9784 68.4744H27.7253V70.7892H29.9784V68.4744Z" fill="#070100"/>
<path d="M29.9784 66.1776H27.7253V68.4924H29.9784V66.1776Z" fill="#F7FAF7"/>
<path d="M29.9784 63.9346H27.7253V66.1597H29.9784V63.9346Z" fill="#F7FAF7"/>
<path d="M29.9784 61.6378H27.7253V63.9525H29.9784V61.6378Z" fill="#F7FAF7"/>
<path d="M29.9784 59.323H27.7253V61.6378H29.9784V59.323Z" fill="#F7FAF7"/>
<path d="M27.7253 102.712H25.4365V105.026H27.7253V102.712Z" fill="#F7FAF7"/>
<path d="M27.7253 100.487H25.4365V102.712H27.7253V100.487Z" fill="#F7FAF7"/>
<path d="M27.7253 98.1898H25.4365V100.505H27.7253V98.1898Z" fill="#F7FAF7"/>
<path d="M27.7253 95.875H25.4365V98.1898H27.7253V95.875Z" fill="#F7FAF7"/>
<path d="M27.7253 93.5602H25.4365V95.875H27.7253V93.5602Z" fill="#F7FAF7"/>
<path d="M48.0919 91.3351H45.8389V93.5602H48.0919V91.3351Z" fill="#070100"/>
<path d="M45.8388 95.875H43.55V98.1898H45.8388V95.875Z" fill="#070100"/>
<path d="M45.8388 93.5602H43.55V95.875H45.8388V93.5602Z" fill="#070100"/>
<path d="M43.5679 98.1898H41.3149V100.505H43.5679V98.1898Z" fill="#070100"/>
<path d="M43.5679 93.5602H41.3149V95.875H43.5679V93.5602Z" fill="#070100"/>
<path d="M41.3148 100.487H39.0618V102.712H41.3148V100.487Z" fill="#070100"/>
<path d="M41.3148 93.5602H39.0618V95.875H41.3148V93.5602Z" fill="#070100"/>
<path d="M39.0617 100.487H36.7729V102.712H39.0617V100.487Z" fill="#070100"/>
<path d="M39.0617 93.5602H36.7729V95.875H39.0617V93.5602Z" fill="#070100"/>
<path d="M36.773 100.487H34.52V102.712H36.773V100.487Z" fill="#070100"/>
<path d="M36.773 93.5602H34.52V95.875H36.773V93.5602Z" fill="#070100"/>
<path d="M34.52 100.487H32.2312V102.712H34.52V100.487Z" fill="#070100"/>
<path d="M34.52 93.5602H32.2312V95.875H34.52V93.5602Z" fill="#070100"/>
<path d="M32.231 98.1898H29.978V100.505H32.231V98.1898Z" fill="#070100"/>
<path d="M32.231 93.5602H29.978V95.875H32.231V93.5602Z" fill="#070100"/>
<path d="M29.9784 95.875H27.7253V98.1898H29.9784V95.875Z" fill="#070100"/>
<path d="M29.9784 93.5602H27.7253V95.875H29.9784V93.5602Z" fill="#070100"/>
<path d="M27.7253 91.3351H25.4365V93.5602H27.7253V91.3351Z" fill="#070100"/>
<path d="M27.7253 89.0204H25.4365V91.3351H27.7253V89.0204Z" fill="#F7FAF7"/>
<path d="M27.7253 86.7056H25.4365V89.0204H27.7253V86.7056Z" fill="#F7FAF7"/>
<path d="M27.7253 84.4805H25.4365V86.7056H27.7253V84.4805Z" fill="#F7FAF7"/>
<path d="M27.7253 82.1837H25.4365V84.4985H27.7253V82.1837Z" fill="#F7FAF7"/>
<path d="M27.7253 79.8689H25.4365V82.1837H27.7253V79.8689Z" fill="#F7FAF7"/>
<path d="M27.7253 77.6438H25.4365V79.8689H27.7253V77.6438Z" fill="#070100"/>
<path d="M27.7253 75.3291H25.4365V77.6438H27.7253V75.3291Z" fill="#070100"/>
<path d="M27.7253 73.0143H25.4365V75.3291H27.7253V73.0143Z" fill="#070100"/>
<path d="M27.7253 70.7892H25.4365V73.0143H27.7253V70.7892Z" fill="#070100"/>
<path d="M27.7253 68.4744H25.4365V70.7892H27.7253V68.4744Z" fill="#070100"/>
<path d="M27.7253 66.1776H25.4365V68.4924H27.7253V66.1776Z" fill="#070100"/>
<path d="M27.7253 63.9346H25.4365V66.1597H27.7253V63.9346Z" fill="#F7FAF7"/>
<path d="M27.7253 61.6378H25.4365V63.9525H27.7253V61.6378Z" fill="#F7FAF7"/>
<path d="M27.7253 59.323H25.4365V61.6378H27.7253V59.323Z" fill="#F7FAF7"/>
<path d="M25.4366 102.712H23.1836V105.026H25.4366V102.712Z" fill="#F7FAF7"/>
<path d="M25.4366 100.487H23.1836V102.712H25.4366V100.487Z" fill="#F7FAF7"/>
<path d="M25.4366 98.1898H23.1836V100.505H25.4366V98.1898Z" fill="#F7FAF7"/>
<path d="M25.4366 95.875H23.1836V98.1898H25.4366V95.875Z" fill="#F7FAF7"/>
<path d="M25.4366 93.5602H23.1836V95.875H25.4366V93.5602Z" fill="#F7FAF7"/>
<path d="M25.4366 91.3351H23.1836V93.5602H25.4366V91.3351Z" fill="#F7FAF7"/>
<path d="M25.4366 89.0204H23.1836V91.3351H25.4366V89.0204Z" fill="#F7FAF7"/>
<path d="M25.4366 84.4805H23.1836V86.7056H25.4366V84.4805Z" fill="#F7FAF7"/>
<path d="M25.4366 82.1837H23.1836V84.4985H25.4366V82.1837Z" fill="#F7FAF7"/>
<path d="M25.4366 79.8689H23.1836V82.1837H25.4366V79.8689Z" fill="#F7FAF7"/>
<path d="M25.4366 77.6438H23.1836V79.8689H25.4366V77.6438Z" fill="#070100"/>
<path d="M25.4366 75.3291H23.1836V77.6438H25.4366V75.3291Z" fill="#070100"/>
<path d="M25.4366 73.0143H23.1836V75.3291H25.4366V73.0143Z" fill="#070100"/>
<path d="M25.4366 70.7892H23.1836V73.0143H25.4366V70.7892Z" fill="#070100"/>
<path d="M25.4366 68.4744H23.1836V70.7892H25.4366V68.4744Z" fill="#070100"/>
<path d="M25.4366 66.1776H23.1836V68.4924H25.4366V66.1776Z" fill="#070100"/>
<path d="M23.2013 66.1776H20.9482V68.4924H23.2013V66.1776Z" fill="#070100"/>
<path d="M25.4366 63.9346H23.1836V66.1597H25.4366V63.9346Z" fill="#F7FAF7"/>
<path d="M25.4366 61.6378H23.1836V63.9525H25.4366V61.6378Z" fill="#F7FAF7"/>
<path d="M25.4366 59.323H23.1836V61.6378H25.4366V59.323Z" fill="#F7FAF7"/>
<path d="M45.8388 34.2372H43.55V36.552H45.8388V34.2372Z" fill="#63DFDB"/>
<path d="M45.8388 31.9224H43.55V34.2372H45.8388V31.9224Z" fill="#63DFDB"/>
<path d="M45.8388 29.6974H43.55V31.9224H45.8388V29.6974Z" fill="#63DFDB"/>
<path d="M43.5679 38.7771H41.3149V41.0918H43.5679V38.7771Z" fill="#63DFDB"/>
<path d="M43.5679 36.552H41.3149V38.7771H43.5679V36.552Z" fill="#63DFDB"/>
<path d="M43.5679 34.2372H41.3149V36.552H43.5679V34.2372Z" fill="#63DFDB"/>
<path d="M43.5679 31.9224H41.3149V34.2372H43.5679V31.9224Z" fill="#63DFDB"/>
<path d="M41.315 43.4066H39.062V45.6317H41.315V43.4066Z" fill="#63DFDB"/>
<path d="M41.315 41.0918H39.062V43.4066H41.315V41.0918Z" fill="#63DFDB"/>
<path d="M41.315 38.7771H39.062V41.0918H41.315V38.7771Z" fill="#63DFDB"/>
<path d="M41.315 36.552H39.062V38.7771H41.315V36.552Z" fill="#63DFDB"/>
<path d="M41.315 34.2372H39.062V36.552H41.315V34.2372Z" fill="#63DFDB"/>
<path d="M39.062 47.9285H36.7732V50.2433H39.062V47.9285Z" fill="#63DFDB"/>
<path d="M39.062 45.6317H36.7732V47.9465H39.062V45.6317Z" fill="#63DFDB"/>
<path d="M39.062 43.4066H36.7732V45.6317H39.062V43.4066Z" fill="#63DFDB"/>
<path d="M39.062 41.0918H36.7732V43.4066H39.062V41.0918Z" fill="#63DFDB"/>
<path d="M39.062 38.7771H36.7732V41.0918H39.062V38.7771Z" fill="#63DFDB"/>
<path d="M39.062 36.552H36.7732V38.7771H39.062V36.552Z" fill="#63DFDB"/>
<path d="M39.062 34.2372H36.7732V36.552H39.062V34.2372Z" fill="#63DFDB"/>
<path d="M36.773 52.4684H34.52V54.7831H36.773V52.4684Z" fill="#63DFDB"/>
<path d="M36.773 50.2433H34.52V52.4684H36.773V50.2433Z" fill="#63DFDB"/>
<path d="M36.773 47.9285H34.52V50.2433H36.773V47.9285Z" fill="#63DFDB"/>
<path d="M36.773 45.6317H34.52V47.9465H36.773V45.6317Z" fill="#63DFDB"/>
<path d="M36.773 43.4066H34.52V45.6317H36.773V43.4066Z" fill="#63DFDB"/>
<path d="M36.773 41.0918H34.52V43.4066H36.773V41.0918Z" fill="#63DFDB"/>
<path d="M36.773 38.7771H34.52V41.0918H36.773V38.7771Z" fill="#63DFDB"/>
<path d="M34.52 52.4684H32.2312V54.7831H34.52V52.4684Z" fill="#63DFDB"/>
<path d="M34.52 50.2433H32.2312V52.4684H34.52V50.2433Z" fill="#63DFDB"/>
<path d="M34.52 47.9285H32.2312V50.2433H34.52V47.9285Z" fill="#63DFDB"/>
<path d="M34.52 45.6317H32.2312V47.9465H34.52V45.6317Z" fill="#63DFDB"/>
<path d="M34.52 43.4066H32.2312V45.6317H34.52V43.4066Z" fill="#63DFDB"/>
<path d="M34.52 41.0918H32.2312V43.4066H34.52V41.0918Z" fill="#63DFDB"/>
<path d="M32.2315 54.7831H29.9785V57.0979H32.2315V54.7831Z" fill="#63DFDB"/>
<path d="M32.2315 52.4684H29.9785V54.7831H32.2315V52.4684Z" fill="#63DFDB"/>
<path d="M32.2315 50.2433H29.9785V52.4684H32.2315V50.2433Z" fill="#63DFDB"/>
<path d="M32.2315 47.9285H29.9785V50.2433H32.2315V47.9285Z" fill="#63DFDB"/>
<path d="M32.2315 45.6317H29.9785V47.9465H32.2315V45.6317Z" fill="#63DFDB"/>
<path d="M29.9784 54.7831H27.7253V57.0979H29.9784V54.7831Z" fill="#63DFDB"/>
<path d="M29.9784 52.4684H27.7253V54.7831H29.9784V52.4684Z" fill="#63DFDB"/>
<path d="M29.9784 50.2433H27.7253V52.4684H29.9784V50.2433Z" fill="#63DFDB"/>
<path d="M27.7253 54.7831H25.4365V57.0979H27.7253V54.7831Z" fill="#63DFDB"/>
<path d="M27.7253 52.4684H25.4365V54.7831H27.7253V52.4684Z" fill="#63DFDB"/>
<path d="M25.4366 54.7831H23.1836V57.0979H25.4366V54.7831Z" fill="#63DFDB"/>
<path d="M25.4366 50.2433H23.1836V52.4684H25.4366V50.2433Z" fill="#F7FAF7"/>
<path d="M23.2013 98.1898H20.9482V100.505H23.2013V98.1898Z" fill="#F7FAF7"/>
<path d="M23.2013 95.875H20.9482V98.1898H23.2013V95.875Z" fill="#F7FAF7"/>
<path d="M23.2013 93.5602H20.9482V95.875H23.2013V93.5602Z" fill="#F7FAF7"/>
<path d="M23.2013 91.3351H20.9482V93.5602H23.2013V91.3351Z" fill="#F7FAF7"/>
<path d="M23.2013 86.7056H20.9482V89.0204H23.2013V86.7056Z" fill="#F7FAF7"/>
<path d="M23.2013 84.4805H20.9482V86.7056H23.2013V84.4805Z" fill="#F7FAF7"/>
<path d="M23.2013 82.1837H20.9482V84.4985H23.2013V82.1837Z" fill="#F7FAF7"/>
<path d="M23.2013 79.8689H20.9482V82.1837H23.2013V79.8689Z" fill="#F7FAF7"/>
<path d="M23.2013 77.6438H20.9482V79.8689H23.2013V77.6438Z" fill="#070100"/>
<path d="M23.2013 75.3291H20.9482V77.6438H23.2013V75.3291Z" fill="#070100"/>
<path d="M23.2013 73.0143H20.9482V75.3291H23.2013V73.0143Z" fill="#070100"/>
<path d="M23.2013 70.7892H20.9482V73.0143H23.2013V70.7892Z" fill="#070100"/>
<path d="M23.2013 68.4744H20.9482V70.7892H23.2013V68.4744Z" fill="#070100"/>
<path d="M23.2013 63.9346H20.9482V66.1597H23.2013V63.9346Z" fill="#F7FAF7"/>
<path d="M23.2013 61.6378H20.9482V63.9525H23.2013V61.6378Z" fill="#F7FAF7"/>
<path d="M23.2013 59.323H20.9482V61.6378H23.2013V59.323Z" fill="#F7FAF7"/>
<path d="M23.2013 57.0979H20.9482V59.323H23.2013V57.0979Z" fill="#F7FAF7"/>
<path d="M48.0919 34.2372H45.8389V36.552H48.0919V34.2372Z" fill="#070100"/>
<path d="M48.0919 31.9225H45.8389V34.2372H48.0919V31.9225Z" fill="#070100"/>
<path d="M48.0919 29.6974H45.8389V31.9225H48.0919V29.6974Z" fill="#63DFDB"/>
<path d="M48.0919 27.3826H45.8389V29.6974H48.0919V27.3826Z" fill="#63DFDB"/>
<path d="M45.8386 38.7771H43.5498V41.0918H45.8386V38.7771Z" fill="#070100"/>
<path d="M45.8386 36.552H43.5498V38.7771H45.8386V36.552Z" fill="#070100"/>
<path d="M45.8386 27.3826H43.5498V29.6974H45.8386V27.3826Z" fill="#070100"/>
<path d="M43.5677 43.4066H41.3147V45.6317H43.5677V43.4066Z" fill="#070100"/>
<path d="M43.5677 41.0918H41.3147V43.4066H43.5677V41.0918Z" fill="#070100"/>
<path d="M43.5677 29.6974H41.3147V31.9225H43.5677V29.6974Z" fill="#070100"/>
<path d="M41.3148 47.9285H39.0618V50.2433H41.3148V47.9285Z" fill="#070100"/>
<path d="M41.3148 45.6317H39.0618V47.9465H41.3148V45.6317Z" fill="#070100"/>
<path d="M41.3148 31.9225H39.0618V34.2372H41.3148V31.9225Z" fill="#070100"/>
<path d="M39.0617 52.4684H36.7729V54.7831H39.0617V52.4684Z" fill="#070100"/>
<path d="M39.0617 50.2433H36.7729V52.4684H39.0617V50.2433Z" fill="#070100"/>
<path d="M39.0617 31.9225H36.7729V34.2372H39.0617V31.9225Z" fill="#070100"/>
<path d="M36.7728 54.7831H34.5198V57.0979H36.7728V54.7831Z" fill="#070100"/>
<path d="M34.52 54.7831H32.2312V57.0979H34.52V54.7831Z" fill="#070100"/>
<path d="M32.231 57.0979H29.978V59.323H32.231V57.0979Z" fill="#070100"/>
<path d="M29.9779 57.0979H27.7249V59.323H29.9779V57.0979Z" fill="#070100"/>
<path d="M27.7253 57.0979H25.4365V59.323H27.7253V57.0979Z" fill="#070100"/>
<path d="M27.7253 50.2433H25.4365V52.4684H27.7253V50.2433Z" fill="#070100"/>
<path d="M25.4364 57.0979H23.1833V59.323H25.4364V57.0979Z" fill="#070100"/>
<path d="M25.4364 52.4684H23.1833V54.7831H25.4364V52.4684Z" fill="#070100"/>
<path d="M23.2013 54.7831H20.9482V57.0979H23.2013V54.7831Z" fill="#070100"/>
<path d="M23.2013 52.4684H20.9482V54.7831H23.2013V52.4684Z" fill="#F7FAF7"/>
<path d="M20.9482 89.0204H18.6594V91.3351H20.9482V89.0204Z" fill="#F7FAF7"/>
<path d="M20.9482 86.7056H18.6594V89.0204H20.9482V86.7056Z" fill="#F7FAF7"/>
<path d="M20.9482 84.4805H18.6594V86.7056H20.9482V84.4805Z" fill="#F7FAF7"/>
<path d="M20.9482 82.1837H18.6594V84.4985H20.9482V82.1837Z" fill="#F7FAF7"/>
<path d="M20.9482 79.8689H18.6594V82.1837H20.9482V79.8689Z" fill="#F7FAF7"/>
<path d="M20.9482 77.6438H18.6594V79.8689H20.9482V77.6438Z" fill="#070100"/>
<path d="M20.9482 75.3291H18.6594V77.6438H20.9482V75.3291Z" fill="#070100"/>
<path d="M20.9482 73.0143H18.6594V75.3291H20.9482V73.0143Z" fill="#070100"/>
<path d="M20.9482 70.7892H18.6594V73.0143H20.9482V70.7892Z" fill="#070100"/>
<path d="M20.9482 68.4744H18.6594V70.7892H20.9482V68.4744Z" fill="#070100"/>
<path d="M20.9482 66.1776H18.6594V68.4924H20.9482V66.1776Z" fill="#070100"/>
<path d="M20.9482 63.9346H18.6594V66.1597H20.9482V63.9346Z" fill="#F7FAF7"/>
<path d="M20.9482 61.6378H18.6594V63.9525H20.9482V61.6378Z" fill="#F7FAF7"/>
<path d="M20.9482 57.0979H18.6594V59.323H20.9482V57.0979Z" fill="#F7FAF7"/>
<path d="M20.9482 54.7831H18.6594V57.0979H20.9482V54.7831Z" fill="#F7FAF7"/>
<path d="M20.9482 52.4684H18.6594V54.7831H20.9482V52.4684Z" fill="#F7FAF7"/>
<path d="M20.9482 38.7771H18.6594V41.0918H20.9482V38.7771Z" fill="#F7FAF7"/>
<path d="M20.9482 36.552H18.6594V38.7771H20.9482V36.552Z" fill="#F7FAF7"/>
<path d="M18.6595 91.3351H16.4065V93.5602H18.6595V91.3351Z" fill="#F7FAF7"/>
<path d="M18.6595 89.0204H16.4065V91.3351H18.6595V89.0204Z" fill="#F7FAF7"/>
<path d="M18.6595 86.7056H16.4065V89.0204H18.6595V86.7056Z" fill="#F7FAF7"/>
<path d="M18.6595 84.4805H16.4065V86.7056H18.6595V84.4805Z" fill="#F7FAF7"/>
<path d="M18.6595 82.1837H16.4065V84.4985H18.6595V82.1837Z" fill="#F7FAF7"/>
<path d="M18.6595 79.8689H16.4065V82.1837H18.6595V79.8689Z" fill="#F7FAF7"/>
<path d="M18.6595 77.6438H16.4065V79.8689H18.6595V77.6438Z" fill="#070100"/>
<path d="M18.6595 75.3291H16.4065V77.6438H18.6595V75.3291Z" fill="#070100"/>
<path d="M18.6595 73.0143H16.4065V75.3291H18.6595V73.0143Z" fill="#070100"/>
<path d="M18.6595 70.7892H16.4065V73.0143H18.6595V70.7892Z" fill="#FFFFFE"/>
<path d="M18.6595 68.4744H16.4065V70.7892H18.6595V68.4744Z" fill="#070100"/>
<path d="M18.6595 66.1776H16.4065V68.4924H18.6595V66.1776Z" fill="#070100"/>
<path d="M18.6595 63.9346H16.4065V66.1597H18.6595V63.9346Z" fill="#F7FAF7"/>
<path d="M18.6595 61.6378H16.4065V63.9525H18.6595V61.6378Z" fill="#F7FAF7"/>
<path d="M18.6595 59.323H16.4065V61.6378H18.6595V59.323Z" fill="#F7FAF7"/>
<path d="M18.6595 54.7831H16.4065V57.0979H18.6595V54.7831Z" fill="#F7FAF7"/>
<path d="M18.6595 52.4684H16.4065V54.7831H18.6595V52.4684Z" fill="#F7FAF7"/>
<path d="M18.6595 41.0918H16.4065V43.4066H18.6595V41.0918Z" fill="#F7FAF7"/>
<path d="M18.6595 38.7771H16.4065V41.0918H18.6595V38.7771Z" fill="#F7FAF7"/>
<path d="M18.6595 36.552H16.4065V38.7771H18.6595V36.552Z" fill="#F7FAF7"/>
<path d="M18.6595 34.2372H16.4065V36.552H18.6595V34.2372Z" fill="#F7FAF7"/>
<path d="M18.6595 27.3826H16.4065V29.6974H18.6595V27.3826Z" fill="#F7FAF7"/>
<path d="M16.4066 89.0204H14.1536V91.3351H16.4066V89.0204Z" fill="#F7FAF7"/>
<path d="M16.4066 86.7056H14.1536V89.0204H16.4066V86.7056Z" fill="#F7FAF7"/>
<path d="M16.4066 84.4805H14.1536V86.7056H16.4066V84.4805Z" fill="#F7FAF7"/>
<path d="M16.4066 82.1837H14.1536V84.4985H16.4066V82.1837Z" fill="#F7FAF7"/>
<path d="M16.4066 79.8689H14.1536V82.1837H16.4066V79.8689Z" fill="#F7FAF7"/>
<path d="M16.4066 77.6438H14.1536V79.8689H16.4066V77.6438Z" fill="#070100"/>
<path d="M16.4066 75.3291H14.1536V77.6438H16.4066V75.3291Z" fill="#070100"/>
<path d="M16.4066 73.0143H14.1536V75.3291H16.4066V73.0143Z" fill="#070100"/>
<path d="M16.4066 70.7892H14.1536V73.0143H16.4066V70.7892Z" fill="#070100"/>
<path d="M16.4066 68.4744H14.1536V70.7892H16.4066V68.4744Z" fill="#FFFFFE"/>
<path d="M16.4066 66.1776H14.1536V68.4924H16.4066V66.1776Z" fill="#070100"/>
<path d="M16.4066 63.9346H14.1536V66.1597H16.4066V63.9346Z" fill="#F7FAF7"/>
<path d="M16.4066 61.6378H14.1536V63.9525H16.4066V61.6378Z" fill="#F7FAF7"/>
<path d="M16.4066 59.323H14.1536V61.6378H16.4066V59.323Z" fill="#F7FAF7"/>
<path d="M16.4066 54.7831H14.1536V57.0979H16.4066V54.7831Z" fill="#F7FAF7"/>
<path d="M16.4066 52.4684H14.1536V54.7831H16.4066V52.4684Z" fill="#F7FAF7"/>
<path d="M16.4066 41.0918H14.1536V43.4066H16.4066V41.0918Z" fill="#F7FAF7"/>
<path d="M16.4066 38.7771H14.1536V41.0918H16.4066V38.7771Z" fill="#F7FAF7"/>
<path d="M16.4066 36.552H14.1536V38.7771H16.4066V36.552Z" fill="#F7FAF7"/>
<path d="M16.4066 34.2372H14.1536V36.552H16.4066V34.2372Z" fill="#F7FAF7"/>
<path d="M16.4066 31.9224H14.1536V34.2372H16.4066V31.9224Z" fill="#F7FAF7"/>
<path d="M16.4066 29.6974H14.1536V31.9224H16.4066V29.6974Z" fill="#F7FAF7"/>
<path d="M16.4066 27.3826H14.1536V29.6974H16.4066V27.3826Z" fill="#F7FAF7"/>
<path d="M16.4066 25.0858H14.1536V27.4005H16.4066V25.0858Z" fill="#F7FAF7"/>
<path d="M16.4066 22.8607H14.1536V25.0858H16.4066V22.8607Z" fill="#F7FAF7"/>
<path d="M14.1535 86.7056H11.8647V89.0204H14.1535V86.7056Z" fill="#F7FAF7"/>
<path d="M14.1535 84.4805H11.8647V86.7056H14.1535V84.4805Z" fill="#F7FAF7"/>
<path d="M14.1535 82.1837H11.8647V84.4985H14.1535V82.1837Z" fill="#F7FAF7"/>
<path d="M14.1535 79.8689H11.8647V82.1837H14.1535V79.8689Z" fill="#F7FAF7"/>
<path d="M14.1535 77.6438H11.8647V79.8689H14.1535V77.6438Z" fill="#F7FAF7"/>
<path d="M14.1535 75.3291H11.8647V77.6438H14.1535V75.3291Z" fill="#070100"/>
<path d="M14.1535 73.0143H11.8647V75.3291H14.1535V73.0143Z" fill="#070100"/>
<path d="M14.1535 70.7892H11.8647V73.0143H14.1535V70.7892Z" fill="#070100"/>
<path d="M14.1535 68.4744H11.8647V70.7892H14.1535V68.4744Z" fill="#070100"/>
<path d="M14.1535 66.1776H11.8647V68.4924H14.1535V66.1776Z" fill="#070100"/>
<path d="M14.1535 63.9346H11.8647V66.1597H14.1535V63.9346Z" fill="#F7FAF7"/>
<path d="M14.1535 61.6378H11.8647V63.9525H14.1535V61.6378Z" fill="#F7FAF7"/>
<path d="M14.1535 59.323H11.8647V61.6378H14.1535V59.323Z" fill="#F7FAF7"/>
<path d="M14.1535 54.7831H11.8647V57.0979H14.1535V54.7831Z" fill="#F7FAF7"/>
<path d="M14.1535 52.4684H11.8647V54.7831H14.1535V52.4684Z" fill="#F7FAF7"/>
<path d="M14.1535 50.2433H11.8647V52.4684H14.1535V50.2433Z" fill="#F7FAF7"/>
<path d="M14.1535 43.4066H11.8647V45.6317H14.1535V43.4066Z" fill="#F7FAF7"/>
<path d="M14.1535 41.0918H11.8647V43.4066H14.1535V41.0918Z" fill="#F7FAF7"/>
<path d="M14.1535 27.3826H11.8647V29.6974H14.1535V27.3826Z" fill="#F7FAF7"/>
<path d="M14.1535 25.0858H11.8647V27.4005H14.1535V25.0858Z" fill="#F7FAF7"/>
<path d="M14.1535 22.8607H11.8647V25.0858H14.1535V22.8607Z" fill="#F7FAF7"/>
<path d="M14.1535 20.5459H11.8647V22.8607H14.1535V20.5459Z" fill="#F7FAF7"/>
<path d="M14.1535 18.2311H11.8647V20.5459H14.1535V18.2311Z" fill="#F7FAF7"/>
<path d="M11.8646 84.4805H9.61157V86.7056H11.8646V84.4805Z" fill="#F7FAF7"/>
<path d="M11.8646 82.1837H9.61157V84.4985H11.8646V82.1837Z" fill="#F7FAF7"/>
<path d="M11.8646 79.8689H9.61157V82.1837H11.8646V79.8689Z" fill="#F7FAF7"/>
<path d="M11.8646 77.6438H9.61157V79.8689H11.8646V77.6438Z" fill="#F7FAF7"/>
<path d="M11.8646 75.3291H9.61157V77.6438H11.8646V75.3291Z" fill="#070100"/>
<path d="M11.8646 73.0143H9.61157V75.3291H11.8646V73.0143Z" fill="#070100"/>
<path d="M11.8646 70.7892H9.61157V73.0143H11.8646V70.7892Z" fill="#070100"/>
<path d="M11.8646 68.4744H9.61157V70.7892H11.8646V68.4744Z" fill="#070100"/>
<path d="M11.8646 66.1776H9.61157V68.4924H11.8646V66.1776Z" fill="#070100"/>
<path d="M11.8646 63.9346H9.61157V66.1597H11.8646V63.9346Z" fill="#F7FAF7"/>
<path d="M11.8646 61.6378H9.61157V63.9525H11.8646V61.6378Z" fill="#F7FAF7"/>
<path d="M63.9344 59.323H61.6814V61.6378H63.9344V59.323Z" fill="#070100"/>
<path d="M61.6812 57.0979H59.4282V59.323H61.6812V57.0979Z" fill="#070100"/>
<path d="M59.4282 57.0979H57.1394V59.323H59.4282V57.0979Z" fill="#070100"/>
<path d="M57.1397 57.0979H54.8867V59.323H57.1397V57.0979Z" fill="#070100"/>
<path d="M54.8868 59.323H52.6338V61.6378H54.8868V59.323Z" fill="#070100"/>
<path d="M20.9482 59.323H18.6594V61.6378H20.9482V59.323Z" fill="#070100"/>
<path d="M18.6597 57.0979H16.4067V59.323H18.6597V57.0979Z" fill="#070100"/>
<path d="M16.4066 57.0979H14.1536V59.323H16.4066V57.0979Z" fill="#070100"/>
<path d="M14.1535 57.0979H11.8647V59.323H14.1535V57.0979Z" fill="#070100"/>
<path d="M11.8648 59.323H9.61182V61.6378H11.8648V59.323Z" fill="#070100"/>
<path d="M11.8646 57.0979H9.61157V59.323H11.8646V57.0979Z" fill="#F7FAF7"/>
<path d="M11.8646 54.7831H9.61157V57.0979H11.8646V54.7831Z" fill="#F7FAF7"/>
<path d="M11.8646 52.4684H9.61157V54.7831H11.8646V52.4684Z" fill="#F7FAF7"/>
<path d="M11.8646 50.2433H9.61157V52.4684H11.8646V50.2433Z" fill="#F7FAF7"/>
<path d="M11.8646 43.4066H9.61157V45.6317H11.8646V43.4066Z" fill="#F7FAF7"/>
<path d="M63.9344 36.552H61.6814V38.7771H63.9344V36.552Z" fill="#63DFDB"/>
<path d="M63.9344 34.2372H61.6814V36.552H63.9344V34.2372Z" fill="#63DFDB"/>
<path d="M63.9344 31.9224H61.6814V34.2372H63.9344V31.9224Z" fill="#63DFDB"/>
<path d="M63.9344 29.6974H61.6814V31.9224H63.9344V29.6974Z" fill="#63DFDB"/>
<path d="M11.8648 36.552H9.61182V38.7771H11.8648V36.552Z" fill="#63DFDB"/>
<path d="M11.8648 34.2372H9.61182V36.552H11.8648V34.2372Z" fill="#63DFDB"/>
<path d="M11.8648 31.9224H9.61182V34.2372H11.8648V31.9224Z" fill="#63DFDB"/>
<path d="M11.8648 29.6974H9.61182V31.9224H11.8648V29.6974Z" fill="#63DFDB"/>
<path d="M14.1535 38.7771H11.8647V41.0918H14.1535V38.7771Z" fill="#070100"/>
<path d="M14.1535 36.552H11.8647V38.7771H14.1535V36.552Z" fill="#070100"/>
<path d="M14.1535 34.2372H11.8647V36.552H14.1535V34.2372Z" fill="#070100"/>
<path d="M14.1535 31.9225H11.8647V34.2372H14.1535V31.9225Z" fill="#070100"/>
<path d="M14.1535 29.6974H11.8647V31.9224H14.1535V29.6974Z" fill="#070100"/>
<path d="M11.8648 41.0919H9.61182V43.4066H11.8648V41.0919Z" fill="#070100"/>
<path d="M11.8648 27.3826H9.61182V29.6974H11.8648V27.3826Z" fill="#070100"/>
<path d="M11.8648 25.0858H9.61182V27.4005H11.8648V25.0858Z" fill="#070100"/>
<path d="M11.8648 22.8607H9.61182V25.0858H11.8648V22.8607Z" fill="#070100"/>
<path d="M11.8646 20.5459H9.61157V22.8607H11.8646V20.5459Z" fill="#F7FAF7"/>
<path d="M11.8646 18.2311H9.61157V20.5459H11.8646V18.2311Z" fill="#F7FAF7"/>
<path d="M9.6119 84.4805H7.35889V86.7056H9.6119V84.4805Z" fill="#F7FAF7"/>
<path d="M9.6119 82.1837H7.35889V84.4985H9.6119V82.1837Z" fill="#F7FAF7"/>
<path d="M9.6119 79.8689H7.35889V82.1837H9.6119V79.8689Z" fill="#F7FAF7"/>
<path d="M9.6119 77.6438H7.35889V79.8689H9.6119V77.6438Z" fill="#F7FAF7"/>
<path d="M9.6119 75.3291H7.35889V77.6438H9.6119V75.3291Z" fill="#F7FAF7"/>
<path d="M9.6119 73.0143H7.35889V75.3291H9.6119V73.0143Z" fill="#070100"/>
<path d="M9.6119 70.7892H7.35889V73.0143H9.6119V70.7892Z" fill="#070100"/>
<path d="M9.6119 68.4744H7.35889V70.7892H9.6119V68.4744Z" fill="#070100"/>
<path d="M9.6119 66.1776H7.35889V68.4924H9.6119V66.1776Z" fill="#F7FAF7"/>
<path d="M9.6119 63.9346H7.35889V66.1597H9.6119V63.9346Z" fill="#F7FAF7"/>
<path d="M9.6119 61.6378H7.35889V63.9525H9.6119V61.6378Z" fill="#F7FAF7"/>
<path d="M9.6119 59.323H7.35889V61.6378H9.6119V59.323Z" fill="#F7FAF7"/>
<path d="M9.6119 57.0979H7.35889V59.323H9.6119V57.0979Z" fill="#F7FAF7"/>
<path d="M9.6119 54.7831H7.35889V57.0979H9.6119V54.7831Z" fill="#F7FAF7"/>
<path d="M9.6119 52.4684H7.35889V54.7831H9.6119V52.4684Z" fill="#F7FAF7"/>
<path d="M9.6119 50.2433H7.35889V52.4684H9.6119V50.2433Z" fill="#F7FAF7"/>
<path d="M9.6119 41.0918H7.35889V43.4066H9.6119V41.0918Z" fill="#F7FAF7"/>
<path d="M9.6119 38.7771H7.35889V41.0918H9.6119V38.7771Z" fill="#F7FAF7"/>
<path d="M66.2053 36.552H63.9165V38.7771H66.2053V36.552Z" fill="#2A9691"/>
<path d="M66.2053 34.2372H63.9165V36.552H66.2053V34.2372Z" fill="#2A9691"/>
<path d="M66.2053 31.9224H63.9165V34.2372H66.2053V31.9224Z" fill="#2A9691"/>
<path d="M66.2053 29.6974H63.9165V31.9224H66.2053V29.6974Z" fill="#2A9691"/>
<path d="M63.9344 38.7771H61.6814V41.0918H63.9344V38.7771Z" fill="#2A9691"/>
<path d="M11.8651 38.7771H9.61206V41.0918H11.8651V38.7771Z" fill="#2A9691"/>
<path d="M9.6119 36.552H7.35889V38.7771H9.6119V36.552Z" fill="#2A9691"/>
<path d="M9.6119 34.2372H7.35889V36.552H9.6119V34.2372Z" fill="#2A9691"/>
<path d="M9.6119 31.9224H7.35889V34.2372H9.6119V31.9224Z" fill="#2A9691"/>
<path d="M9.6119 29.6974H7.35889V31.9224H9.6119V29.6974Z" fill="#2A9691"/>
<path d="M9.6119 27.3826H7.35889V29.6974H9.6119V27.3826Z" fill="#F7FAF7"/>
<path d="M9.6119 25.0858H7.35889V27.4005H9.6119V25.0858Z" fill="#F7FAF7"/>
<path d="M9.6119 22.8607H7.35889V25.0858H9.6119V22.8607Z" fill="#F7FAF7"/>
<path d="M7.35884 84.4805H5.07007V86.7056H7.35884V84.4805Z" fill="black"/>
<path d="M7.35884 82.1837H5.07007V84.4985H7.35884V82.1837Z" fill="#F7FAF7"/>
<path d="M7.35884 79.8689H5.07007V82.1837H7.35884V79.8689Z" fill="#F7FAF7"/>
<path d="M7.35884 77.6438H5.07007V79.8689H7.35884V77.6438Z" fill="#F7FAF7"/>
<path d="M7.35884 75.3291H5.07007V77.6438H7.35884V75.3291Z" fill="#F7FAF7"/>
<path d="M7.35884 73.0143H5.07007V75.3291H7.35884V73.0143Z" fill="#070100"/>
<path d="M7.35884 70.7892H5.07007V73.0143H7.35884V70.7892Z" fill="#070100"/>
<path d="M7.35884 68.4744H5.07007V70.7892H7.35884V68.4744Z" fill="#070100"/>
<path d="M7.35884 66.1776H5.07007V68.4924H7.35884V66.1776Z" fill="#F7FAF7"/>
<path d="M7.35884 63.9346H5.07007V66.1597H7.35884V63.9346Z" fill="#F7FAF7"/>
<path d="M7.35884 61.6378H5.07007V63.9525H7.35884V61.6378Z" fill="#F7FAF7"/>
<path d="M7.35884 59.323H5.07007V61.6378H7.35884V59.323Z" fill="#F7FAF7"/>
<path d="M7.35884 36.552H5.07007V38.7771H7.35884V36.552Z" fill="#F7FAF7"/>
<path d="M7.35884 34.2372H5.07007V36.552H7.35884V34.2372Z" fill="#F7FAF7"/>
<path d="M7.35884 31.9224H5.07007V34.2372H7.35884V31.9224Z" fill="#F7FAF7"/>
<path d="M7.35884 29.6974H5.07007V31.9224H7.35884V29.6974Z" fill="#F7FAF7"/>
<path d="M7.35884 27.3826H5.07007V29.6974H7.35884V27.3826Z" fill="#F7FAF7"/>
<path d="M5.08797 77.6438H2.83496V79.8689H5.08797V77.6438Z" fill="#F7FAF7"/>
<path d="M5.08797 75.3291H2.83496V77.6438H5.08797V75.3291Z" fill="#F7FAF7"/>
<path d="M5.08797 73.0143H2.83496V75.3291H5.08797V73.0143Z" fill="#F7FAF7"/>
<path d="M5.08797 70.7892H2.83496V73.0143H5.08797V70.7892Z" fill="#070100"/>
<path d="M5.08797 68.4744H2.83496V70.7892H5.08797V68.4744Z" fill="#070100"/>
<path d="M5.08797 66.1776H2.83496V68.4924H5.08797V66.1776Z" fill="#F7FAF7"/>
<path d="M5.08797 63.9346H2.83496V66.1597H5.08797V63.9346Z" fill="#F7FAF7"/>
<path d="M18.6595 25.0858H16.4065V27.4005H18.6595V25.0858Z" fill="#070100"/>
<path d="M18.6595 22.8607H16.4065V25.0858H18.6595V22.8607Z" fill="#070100"/>
<path d="M16.4066 20.5459H14.1536V22.8607H16.4066V20.5459Z" fill="#070100"/>
<path d="M16.4066 18.2311H14.1536V20.5459H16.4066V18.2311Z" fill="#070100"/>
<path d="M14.1535 16.0061H11.8647V18.2311H14.1535V16.0061Z" fill="#070100"/>
<path d="M11.8646 16.0061H9.61157V18.2311H11.8646V16.0061Z" fill="#070100"/>
<path d="M9.6119 43.4066H7.35889V45.6317H9.6119V43.4066Z" fill="#070100"/>
<path d="M9.6119 20.5459H7.35889V22.8607H9.6119V20.5459Z" fill="#070100"/>
<path d="M9.6119 18.2311H7.35889V20.5459H9.6119V18.2311Z" fill="#070100"/>
<path d="M9.6119 16.0061H7.35889V18.2311H9.6119V16.0061Z" fill="#070100"/>
<path d="M7.35884 41.0918H5.07007V43.4066H7.35884V41.0918Z" fill="#070100"/>
<path d="M7.35884 38.7771H5.07007V41.0918H7.35884V38.7771Z" fill="#070100"/>
<path d="M7.35884 25.0858H5.07007V27.4005H7.35884V25.0858Z" fill="#070100"/>
<path d="M7.35884 22.8607H5.07007V25.0858H7.35884V22.8607Z" fill="#070100"/>
<path d="M5.08797 36.552H2.83496V38.777H5.08797V36.552Z" fill="#070100"/>
<path d="M5.08797 34.2372H2.83496V36.552H5.08797V34.2372Z" fill="#070100"/>
<path d="M5.08797 31.9224H2.83496V34.2372H5.08797V31.9224Z" fill="#070100"/>
<path d="M5.08797 29.6974H2.83496V31.9224H5.08797V29.6974Z" fill="#070100"/>
<path d="M5.08797 27.3826H2.83496V29.6974H5.08797V27.3826Z" fill="#070100"/>
<path d="M73 77.6438H70.7112V79.8689H73V77.6438Z" fill="#070100"/>
<path d="M73 75.3291H70.7112V77.6438H73V75.3291Z" fill="#070100"/>
<path d="M73 73.0143H70.7112V75.3291H73V73.0143Z" fill="#070100"/>
<path d="M73 70.7892H70.7112V73.0143H73V70.7892Z" fill="#070100"/>
<path d="M73 68.4744H70.7112V70.7892H73V68.4744Z" fill="#070100"/>
<path d="M73 66.1776H70.7112V68.4924H73V66.1776Z" fill="#070100"/>
<path d="M73 63.9346H70.7112V66.1597H73V63.9346Z" fill="#070100"/>
<path d="M70.7113 82.1837H68.4583V84.4985H70.7113V82.1837Z" fill="#070100"/>
<path d="M70.7113 79.8689H68.4583V82.1837H70.7113V79.8689Z" fill="#070100"/>
<path d="M70.7113 61.6378H68.4583V63.9525H70.7113V61.6378Z" fill="#070100"/>
<path d="M70.7113 59.323H68.4583V61.6378H70.7113V59.323Z" fill="#070100"/>
<path d="M70.7113 57.0979H68.4583V59.323H70.7113V57.0979Z" fill="#070100"/>
<path d="M68.4581 54.7831H66.2051V57.0979H68.4581V54.7831Z" fill="#070100"/>
<path d="M68.4581 52.4684H66.2051V54.7831H68.4581V52.4684Z" fill="#070100"/>
<path d="M68.4581 50.2433H66.2051V52.4684H68.4581V50.2433Z" fill="#070100"/>
<path d="M66.2053 86.7056H63.9165V89.0204H66.2053V86.7056Z" fill="#070100"/>
<path d="M63.9344 86.7056H61.6814V89.0204H63.9344V86.7056Z" fill="#070100"/>
<path d="M61.6815 89.0204H59.4285V91.3351H61.6815V89.0204Z" fill="#070100"/>
<path d="M59.4284 91.3351H57.1396V93.5602H59.4284V91.3351Z" fill="#070100"/>
<path d="M54.8866 98.1898H52.6335V100.505H54.8866V98.1898Z" fill="#070100"/>
<path d="M54.8866 95.875H52.6335V98.1898H54.8866V95.875Z" fill="#070100"/>
<path d="M54.8866 93.5602H52.6335V95.875H54.8866V93.5602Z" fill="#070100"/>
<path d="M54.8866 91.3351H52.6335V93.5602H54.8866V91.3351Z" fill="#070100"/>
<path d="M52.6335 102.712H50.3447V105.026H52.6335V102.712Z" fill="#070100"/>
<path d="M52.6335 100.487H50.3447V102.712H52.6335V100.487Z" fill="#070100"/>
<path d="M52.6335 89.0204H50.3447V91.3351H52.6335V89.0204Z" fill="#070100"/>
<path d="M50.3446 105.026H48.0916V107.341H50.3446V105.026Z" fill="#070100"/>
<path d="M50.3446 86.7056H48.0916V89.0204H50.3446V86.7056Z" fill="#070100"/>
<path d="M48.0919 105.026H45.8389V107.341H48.0919V105.026Z" fill="#070100"/>
<path d="M45.8388 107.341H43.55V109.566H45.8388V107.341Z" fill="#070100"/>
<path d="M43.5679 107.341H41.3149V109.566H43.5679V107.341Z" fill="#070100"/>
<path d="M41.3148 107.341H39.0618V109.566H41.3148V107.341Z" fill="#070100"/>
<path d="M39.0617 107.341H36.7729V109.566H39.0617V107.341Z" fill="#070100"/>
<path d="M36.773 107.341H34.52V109.566H36.773V107.341Z" fill="#070100"/>
<path d="M34.52 107.341H32.2312V109.566H34.52V107.341Z" fill="#070100"/>
<path d="M32.231 107.341H29.978V109.566H32.231V107.341Z" fill="#070100"/>
<path d="M29.9784 107.341H27.7253V109.566H29.9784V107.341Z" fill="#070100"/>
<path d="M27.7253 105.026H25.4365V107.341H27.7253V105.026Z" fill="#070100"/>
<path d="M25.4366 105.026H23.1836V107.341H25.4366V105.026Z" fill="#070100"/>
<path d="M25.4366 86.7056H23.1836V89.0204H25.4366V86.7056Z" fill="#070100"/>
<path d="M23.2013 102.712H20.9482V105.026H23.2013V102.712Z" fill="#070100"/>
<path d="M23.2013 100.487H20.9482V102.712H23.2013V100.487Z" fill="#070100"/>
<path d="M23.2013 89.0204H20.9482V91.3351H23.2013V89.0204Z" fill="#070100"/>
<path d="M20.9482 98.1898H18.6594V100.505H20.9482V98.1898Z" fill="#070100"/>
<path d="M20.9482 95.875H18.6594V98.1898H20.9482V95.875Z" fill="#070100"/>
<path d="M20.9482 93.5602H18.6594V95.875H20.9482V93.5602Z" fill="#070100"/>
<path d="M20.9482 91.3351H18.6594V93.5602H20.9482V91.3351Z" fill="#070100"/>
<path d="M18.6595 93.5602H16.4065V95.875H18.6595V93.5602Z" fill="#070100"/>
<path d="M16.4066 91.3351H14.1536V93.5602H16.4066V91.3351Z" fill="#070100"/>
<path d="M14.1535 89.0204H11.8647V91.3351H14.1535V89.0204Z" fill="#070100"/>
<path d="M11.8646 86.7056H9.61157V89.0204H11.8646V86.7056Z" fill="#070100"/>
<path d="M9.6119 86.7056H7.35889V89.0204H9.6119V86.7056Z" fill="#070100"/>
<path d="M7.35884 57.0979H5.07007V59.323H7.35884V57.0979Z" fill="#070100"/>
<path d="M7.35884 54.7831H5.07007V57.0979H7.35884V54.7831Z" fill="#070100"/>
<path d="M7.35884 52.4684H5.07007V54.7831H7.35884V52.4684Z" fill="#070100"/>
<path d="M7.35884 50.2433H5.07007V52.4684H7.35884V50.2433Z" fill="#070100"/>
<path d="M5.08797 82.1837H2.83496V84.4985H5.08797V82.1837Z" fill="#070100"/>
<path d="M5.08797 79.8689H2.83496V82.1837H5.08797V79.8689Z" fill="#070100"/>
<path d="M5.08797 61.6378H2.83496V63.9525H5.08797V61.6378Z" fill="#070100"/>
<path d="M5.08797 59.323H2.83496V61.6378H5.08797V59.323Z" fill="#070100"/>
<path d="M2.8348 77.6438H0.581787V79.8689H2.8348V77.6438Z" fill="#070100"/>
<path d="M2.8348 75.3291H0.581787V77.6438H2.8348V75.3291Z" fill="#070100"/>
<path d="M2.8348 73.0143H0.581787V75.3291H2.8348V73.0143Z" fill="#070100"/>
<path d="M2.8348 70.7892H0.581787V73.0143H2.8348V70.7892Z" fill="#070100"/>
<path d="M2.8348 68.4744H0.581787V70.7892H2.8348V68.4744Z" fill="#070100"/>
<path d="M2.8348 66.1776H0.581787V68.4924H2.8348V66.1776Z" fill="#070100"/>
<path d="M2.8348 63.9346H0.581787V66.1597H2.8348V63.9346Z" fill="#070100"/>
<path d="M34.52 36.552H32.2312V38.7771H34.52V36.552Z" fill="#63DFDB"/>
<path d="M34.52 34.2372H32.2312V36.552H34.52V34.2372Z" fill="#63DFDB"/>
<path d="M32.2315 38.7771H29.9785V41.0918H32.2315V38.7771Z" fill="#63DFDB"/>
<path d="M32.2315 36.552H29.9785V38.7771H32.2315V36.552Z" fill="#63DFDB"/>
<path d="M32.2315 34.2372H29.9785V36.552H32.2315V34.2372Z" fill="#63DFDB"/>
<path d="M32.2315 31.9225H29.9785V34.2372H32.2315V31.9225Z" fill="#63DFDB"/>
<path d="M29.9784 43.4066H27.7253V45.6317H29.9784V43.4066Z" fill="#63DFDB"/>
<path d="M29.9784 41.0919H27.7253V43.4066H29.9784V41.0919Z" fill="#63DFDB"/>
<path d="M29.9784 38.7771H27.7253V41.0918H29.9784V38.7771Z" fill="#63DFDB"/>
<path d="M29.9784 36.552H27.7253V38.7771H29.9784V36.552Z" fill="#63DFDB"/>
<path d="M29.9784 34.2372H27.7253V36.552H29.9784V34.2372Z" fill="#63DFDB"/>
<path d="M29.9784 31.9225H27.7253V34.2372H29.9784V31.9225Z" fill="#63DFDB"/>
<path d="M29.9784 29.6974H27.7253V31.9224H29.9784V29.6974Z" fill="#63DFDB"/>
<path d="M29.9784 27.3826H27.7253V29.6974H29.9784V27.3826Z" fill="#63DFDB"/>
<path d="M29.9784 25.0858H27.7253V27.4005H29.9784V25.0858Z" fill="#63DFDB"/>
<path d="M27.7255 45.6317H25.4368V47.9465H27.7255V45.6317Z" fill="#63DFDB"/>
<path d="M27.7255 43.4066H25.4368V45.6317H27.7255V43.4066Z" fill="#63DFDB"/>
<path d="M27.7255 41.0919H25.4368V43.4066H27.7255V41.0919Z" fill="#63DFDB"/>
<path d="M27.7255 38.7771H25.4368V41.0918H27.7255V38.7771Z" fill="#63DFDB"/>
<path d="M27.7255 36.552H25.4368V38.7771H27.7255V36.552Z" fill="#63DFDB"/>
<path d="M27.7255 34.2372H25.4368V36.552H27.7255V34.2372Z" fill="#63DFDB"/>
<path d="M27.7255 31.9225H25.4368V34.2372H27.7255V31.9225Z" fill="#63DFDB"/>
<path d="M27.7255 29.6974H25.4368V31.9224H27.7255V29.6974Z" fill="#63DFDB"/>
<path d="M27.7255 27.3826H25.4368V29.6974H27.7255V27.3826Z" fill="#63DFDB"/>
<path d="M27.7255 25.0858H25.4368V27.4005H27.7255V25.0858Z" fill="#63DFDB"/>
<path d="M25.4366 45.6317H23.1836V47.9465H25.4366V45.6317Z" fill="#63DFDB"/>
<path d="M25.4366 43.4066H23.1836V45.6317H25.4366V43.4066Z" fill="#63DFDB"/>
<path d="M25.4366 41.0919H23.1836V43.4066H25.4366V41.0919Z" fill="#63DFDB"/>
<path d="M25.4366 38.7771H23.1836V41.0918H25.4366V38.7771Z" fill="#63DFDB"/>
<path d="M25.4366 36.552H23.1836V38.7771H25.4366V36.552Z" fill="#63DFDB"/>
<path d="M25.4366 34.2372H23.1836V36.552H25.4366V34.2372Z" fill="#63DFDB"/>
<path d="M25.4366 31.9225H23.1836V34.2372H25.4366V31.9225Z" fill="#63DFDB"/>
<path d="M25.4366 29.6974H23.1836V31.9224H25.4366V29.6974Z" fill="#63DFDB"/>
<path d="M25.4366 27.3826H23.1836V29.6974H25.4366V27.3826Z" fill="#63DFDB"/>
<path d="M23.2015 47.9285H20.9485V50.2433H23.2015V47.9285Z" fill="#63DFDB"/>
<path d="M23.2015 45.6317H20.9485V47.9465H23.2015V45.6317Z" fill="#63DFDB"/>
<path d="M23.2015 43.4066H20.9485V45.6317H23.2015V43.4066Z" fill="#63DFDB"/>
<path d="M23.2015 41.0919H20.9485V43.4066H23.2015V41.0919Z" fill="#63DFDB"/>
<path d="M23.2015 34.2372H20.9485V36.552H23.2015V34.2372Z" fill="#63DFDB"/>
<path d="M23.2015 31.9225H20.9485V34.2372H23.2015V31.9225Z" fill="#63DFDB"/>
<path d="M23.2015 29.6974H20.9485V31.9224H23.2015V29.6974Z" fill="#63DFDB"/>
<path d="M23.2015 27.3826H20.9485V29.6974H23.2015V27.3826Z" fill="#63DFDB"/>
<path d="M20.9484 47.9285H18.6597V50.2433H20.9484V47.9285Z" fill="#63DFDB"/>
<path d="M20.9484 45.6317H18.6597V47.9465H20.9484V45.6317Z" fill="#63DFDB"/>
<path d="M20.9484 31.9225H18.6597V34.2372H20.9484V31.9225Z" fill="#63DFDB"/>
<path d="M20.9484 29.6974H18.6597V31.9224H20.9484V29.6974Z" fill="#63DFDB"/>
<path d="M18.6597 47.9285H16.4067V50.2433H18.6597V47.9285Z" fill="#63DFDB"/>
<path d="M18.6597 45.6317H16.4067V47.9465H18.6597V45.6317Z" fill="#63DFDB"/>
<path d="M16.4066 47.9285H14.1536V50.2433H16.4066V47.9285Z" fill="#63DFDB"/>
<path d="M16.4066 45.6317H14.1536V47.9465H16.4066V45.6317Z" fill="#070100"/>
<path d="M20.9484 43.4066H18.6597V45.6317H20.9484V43.4066Z" fill="#63DFDB"/>
<path d="M36.773 36.552H34.52V38.7771H36.773V36.552Z" fill="#070100"/>
<path d="M36.773 34.2372H34.52V36.552H36.773V34.2372Z" fill="#070100"/>
<path d="M34.52 38.7771H32.2312V41.0918H34.52V38.7771Z" fill="#070100"/>
<path d="M32.2315 43.4066H29.9785V45.6317H32.2315V43.4066Z" fill="#070100"/>
<path d="M32.2315 41.0919H29.9785V43.4066H32.2315V41.0919Z" fill="#070100"/>
<path d="M29.9784 47.9285H27.7253V50.2433H29.9784V47.9285Z" fill="#070100"/>
<path d="M29.9784 45.6317H27.7253V47.9465H29.9784V45.6317Z" fill="#070100"/>
<path d="M29.9784 22.8607H27.7253V25.0858H29.9784V22.8607Z" fill="#070100"/>
<path d="M27.7253 47.9285H25.4365V50.2433H27.7253V47.9285Z" fill="#070100"/>
<path d="M27.7253 22.8607H25.4365V25.0858H27.7253V22.8607Z" fill="#070100"/>
<path d="M25.4366 47.9285H23.1836V50.2433H25.4366V47.9285Z" fill="#070100"/>
<path d="M25.4366 25.0858H23.1836V27.4005H25.4366V25.0858Z" fill="#070100"/>
<path d="M23.2015 50.2433H20.9485V52.4683H23.2015V50.2433Z" fill="#070100"/>
<path d="M23.2015 38.7771H20.9485V41.0918H23.2015V38.7771Z" fill="#070100"/>
<path d="M23.2015 36.552H20.9485V38.7771H23.2015V36.552Z" fill="#070100"/>
<path d="M23.2015 25.0858H20.9485V27.4005H23.2015V25.0858Z" fill="#070100"/>
<path d="M20.9484 50.2433H18.6597V52.4683H20.9484V50.2433Z" fill="#070100"/>
<path d="M20.9484 41.0919H18.6597V43.4066H20.9484V41.0919Z" fill="#070100"/>
<path d="M20.9484 34.2372H18.6597V36.552H20.9484V34.2372Z" fill="#070100"/>
<path d="M20.9484 27.3826H18.6597V29.6974H20.9484V27.3826Z" fill="#070100"/>
<path d="M18.6595 50.2433H16.4065V52.4683H18.6595V50.2433Z" fill="#070100"/>
<path d="M18.6595 31.9225H16.4065V34.2372H18.6595V31.9225Z" fill="#070100"/>
<path d="M18.6595 29.6974H16.4065V31.9224H18.6595V29.6974Z" fill="#070100"/>
<path d="M16.4066 50.2433H14.1536V52.4683H16.4066V50.2433Z" fill="#070100"/>
<path d="M16.4066 43.4066H14.1536V45.6317H16.4066V43.4066Z" fill="#F7FAF7"/>
<path d="M14.1535 47.9285H11.8647V50.2433H14.1535V47.9285Z" fill="#070100"/>
<path d="M14.1535 45.6317H11.8647V47.9465H14.1535V45.6317Z" fill="#F7FAF7"/>
<path d="M11.8651 47.9285H9.61206V50.2433H11.8651V47.9285Z" fill="#F7FAF7"/>
<path d="M11.8651 45.6317H9.61206V47.9465H11.8651V45.6317Z" fill="#F7FAF7"/>
<path d="M9.6119 47.9285H7.35889V50.2433H9.6119V47.9285Z" fill="#070100"/>
<path d="M9.6119 45.6317H7.35889V47.9465H9.6119V45.6317Z" fill="#070100"/>
<path d="M18.6595 43.4066H16.4065V45.6317H18.6595V43.4066Z" fill="#070100"/>
<path d="M57.1395 36.552H54.8865V38.7771H57.1395V36.552Z" fill="#070100"/>
<path d="M57.1395 34.2372H54.8865V36.552H57.1395V34.2372Z" fill="#070100"/>
<path d="M57.1395 31.9225H54.8865V34.2372H57.1395V31.9225Z" fill="#070100"/>
<path d="M54.8866 38.7771H52.6335V41.0918H54.8866V38.7771Z" fill="#070100"/>
<path d="M54.8866 29.6974H52.6335V31.9224H54.8866V29.6974Z" fill="#070100"/>
<path d="M52.6335 41.0919H50.3447V43.4066H52.6335V41.0919Z" fill="#070100"/>
<path d="M52.6335 27.3826H50.3447V29.6974H52.6335V27.3826Z" fill="#070100"/>
<path d="M50.3451 43.4066H48.092V45.6317H50.3451V43.4066Z" fill="#070100"/>
<path d="M50.3451 27.3826H48.092V29.6974H50.3451V27.3826Z" fill="#070100"/>
<path d="M48.0919 50.2433H45.8389V52.4684H48.0919V50.2433Z" fill="#070100"/>
<path d="M48.0919 47.9285H45.8389V50.2433H48.0919V47.9285Z" fill="#070100"/>
<path d="M48.0919 25.0858H45.8389V27.4005H48.0919V25.0858Z" fill="#070100"/>
<path d="M45.8388 57.0979H43.55V59.323H45.8388V57.0979Z" fill="#070100"/>
<path d="M45.8388 54.7831H43.55V57.0979H45.8388V54.7831Z" fill="#070100"/>
<path d="M45.8388 52.4684H43.55V54.7831H45.8388V52.4684Z" fill="#070100"/>
<path d="M43.5679 59.323H41.3149V61.6378H43.5679V59.323Z" fill="#070100"/>
<path d="M41.315 61.6378H39.062V63.9525H41.315V61.6378Z" fill="#070100"/>
<path d="M41.315 54.7831H39.062V57.0979H41.315V54.7831Z" fill="#070100"/>
<path d="M41.315 50.2433H39.062V52.4684H41.315V50.2433Z" fill="#070100"/>
<path d="M39.0617 61.6378H36.7729V63.9525H39.0617V61.6378Z" fill="#070100"/>
<path d="M39.0617 57.0979H36.7729V59.323H39.0617V57.0979Z" fill="#070100"/>
<path d="M36.773 61.6378H34.52V63.9525H36.773V61.6378Z" fill="#070100"/>
<path d="M36.773 59.323H34.52V61.6378H36.773V59.323Z" fill="#070100"/>
<path d="M34.52 61.6378H32.2312V63.9525H34.52V61.6378Z" fill="#F7FAF7"/>
<path d="M50.3451 45.6317H48.092V47.9465H50.3451V45.6317Z" fill="#070100"/>
<path d="M41.315 52.4684H39.062V54.7831H41.315V52.4684Z" fill="#070100"/>
</svg>
