<svg width="112" height="111" viewBox="0 0 112 111" fill="none" xmlns="http://www.w3.org/2000/svg">
<g filter="url(#filter0_d)">
<path d="M56.2174 30.4271C42.1937 30.4271 30.8324 41.57 30.8324 55.324C30.8324 61.9226 33.505 68.2582 38.2725 72.9238C48.1891 82.6498 64.256 82.6498 74.1727 72.9238C84.0894 63.1978 84.079 47.44 74.1727 37.714C69.4156 33.0383 62.9558 30.4069 56.2174 30.4271ZM73.2956 72.0737C63.8639 81.324 48.5813 81.324 39.1496 72.0737C29.7179 62.8234 29.7179 47.8347 39.1496 38.5844C48.5813 29.3341 63.8639 29.3341 73.2956 38.5844C82.7272 47.8347 82.7169 62.8234 73.2956 72.0737Z" fill="#63E0DB"/>
<path d="M56.2174 33.3227C43.8345 33.3227 33.7837 43.1802 33.7837 55.325C33.7837 61.1545 36.1468 66.7512 40.357 70.8805C49.1179 79.4729 63.317 79.4729 72.0779 70.8805C80.8389 62.288 80.8389 48.362 72.0779 39.7695C67.878 35.6302 62.1716 33.3125 56.2174 33.3227ZM75.9682 47.7851L59.8395 48.3519H53.6583L62.5947 35.4986C68.7139 37.4114 73.6258 41.9252 75.9682 47.7851ZM59.6021 61.0837H52.8225L49.4378 55.325L52.8225 49.5663H59.6021L62.9868 55.325L59.6021 61.0837ZM61.3357 35.1545L51.9557 48.6555C51.9247 48.6858 51.9041 48.7263 51.8834 48.7567L48.8393 53.9385L42.6891 39.3343C47.8796 35.114 54.7934 33.5554 61.3357 35.1545ZM41.7088 40.1845L48.1892 55.6084C48.1995 55.6286 48.1995 55.6387 48.2098 55.659C48.2201 55.6792 48.2305 55.7096 48.2511 55.7298L51.3984 61.0837H35.8578C33.6495 53.5944 35.9197 45.5181 41.7088 40.1845ZM36.25 62.2981H58.4154L46.5794 73.8357C41.7707 71.4169 38.0764 67.2876 36.25 62.2981ZM47.7764 74.3923L60.3451 62.1261C60.4276 62.0654 60.4999 61.9844 60.5618 61.8933L63.6679 56.6204L70.6848 70.506C64.514 76.1635 55.5157 77.6917 47.7764 74.3923ZM71.6032 69.6053L64.2457 55.0315C64.2354 54.991 64.2148 54.9607 64.1941 54.9202L61.0158 49.5259L76.4016 48.9895C78.7544 56.2055 76.9176 64.1097 71.6032 69.6053Z" fill="#63E0DB"/>
</g>
<defs>
<filter id="filter0_d" x="0.832397" y="0.427002" width="110.774" height="109.791" filterUnits="userSpaceOnUse" color-interpolation-filters="sRGB">
<feFlood flood-opacity="0" result="BackgroundImageFix"/>
<feColorMatrix in="SourceAlpha" type="matrix" values="0 0 0 0 0 0 0 0 0 0 0 0 0 0 0 0 0 0 127 0"/>
<feOffset/>
<feGaussianBlur stdDeviation="15"/>
<feColorMatrix type="matrix" values="0 0 0 0 0.388235 0 0 0 0 0.878431 0 0 0 0 0.858824 0 0 0 0.6 0"/>
<feBlend mode="normal" in2="BackgroundImageFix" result="effect1_dropShadow"/>
<feBlend mode="normal" in="SourceGraphic" in2="effect1_dropShadow" result="shape"/>
</filter>
</defs>
</svg>
